<?xml version="1.0" encoding="UTF-8" standalone="no"?>
<!DOCTYPE svg PUBLIC "-//W3C//DTD SVG 1.1//EN"
 "http://www.w3.org/Graphics/SVG/1.1/DTD/svg11.dtd">
<!-- Generated by graphviz version 2.50.0 (20211204.2007)
 -->
<!-- Title: oneDegreeRelationshipsDiagram Pages: 1 -->
<svg width="631pt" height="521pt"
 viewBox="0.00 0.00 631.00 521.00" xmlns="http://www.w3.org/2000/svg" xmlns:xlink="http://www.w3.org/1999/xlink">
<g id="graph0" class="graph" transform="scale(1 1) rotate(0) translate(4 517)">
<title>oneDegreeRelationshipsDiagram</title>
<polygon fill="#ffffff" stroke="transparent" points="-4,4 -4,-517 627,-517 627,4 -4,4"/>
<text text-anchor="middle" x="72.5" y="-7.2" font-family="Helvetica,sans-Serif" font-size="11.00">Generated by SchemaSpy</text>
<!-- aggregate_risks -->
<g id="node1" class="node">
<title>aggregate_risks</title>
<g id="a_node1"><a xlink:href="../../tables/aggregate_risks.html" xlink:title="aggregate_risks" target="_top">
<polygon fill="#ffffff" stroke="transparent" points="368,-73 368,-403 615,-403 615,-73 368,-73"/>
<polygon fill="#f5f5f5" stroke="transparent" points="370.5,-379 370.5,-401 613.5,-401 613.5,-379 370.5,-379"/>
<polygon fill="none" stroke="black" points="370.5,-379 370.5,-401 613.5,-401 613.5,-379 370.5,-379"/>
<text text-anchor="start" x="375.5" y="-388.2" font-family="Helvetica,sans-Serif" font-weight="bold" font-size="11.00">aggregate_risks</text>
<text text-anchor="start" x="578.5" y="-387.2" font-family="Helvetica,sans-Serif" font-size="11.00">[table]</text>
<polygon fill="none" stroke="black" points="370.5,-357 370.5,-379 547.5,-379 547.5,-357 370.5,-357"/>
<image xlink:href="../../images/primaryKeys.png" width="11px" height="12px" preserveAspectRatio="xMinYMin meet" x="375.5" y="-374"/>
<text text-anchor="start" x="390.5" y="-365.2" font-family="Helvetica,sans-Serif" font-size="11.00">customer_id</text>
<polygon fill="none" stroke="black" points="547.5,-357 547.5,-379 613.5,-379 613.5,-357 547.5,-357"/>
<text text-anchor="start" x="550.5" y="-365.2" font-family="Helvetica,sans-Serif" font-size="11.00">int4[10]</text>
<polygon fill="none" stroke="black" points="370.5,-335 370.5,-357 547.5,-357 547.5,-335 370.5,-335"/>
<image xlink:href="../../images/primaryKeys.png" width="11px" height="12px" preserveAspectRatio="xMinYMin meet" x="375.5" y="-352"/>
<text text-anchor="start" x="390.5" y="-343.2" font-family="Helvetica,sans-Serif" font-size="11.00">entity_type</text>
<polygon fill="none" stroke="black" points="547.5,-335 547.5,-357 613.5,-357 613.5,-335 547.5,-335"/>
<text text-anchor="start" x="550.5" y="-343.2" font-family="Helvetica,sans-Serif" font-size="11.00">int4[10]</text>
<polygon fill="none" stroke="black" points="370.5,-313 370.5,-335 547.5,-335 547.5,-313 370.5,-313"/>
<image xlink:href="../../images/primaryKeys.png" width="11px" height="12px" preserveAspectRatio="xMinYMin meet" x="375.5" y="-330"/>
<text text-anchor="start" x="390.5" y="-321.2" font-family="Helvetica,sans-Serif" font-size="11.00">entity_id</text>
<polygon fill="none" stroke="black" points="547.5,-313 547.5,-335 613.5,-335 613.5,-313 547.5,-313"/>
<text text-anchor="start" x="550.5" y="-321.2" font-family="Helvetica,sans-Serif" font-size="11.00">int4[10]</text>
<polygon fill="none" stroke="black" points="370.5,-291 370.5,-313 547.5,-313 547.5,-291 370.5,-291"/>
<image xlink:href="../../images/primaryKeys.png" width="11px" height="12px" preserveAspectRatio="xMinYMin meet" x="375.5" y="-308"/>
<text text-anchor="start" x="390.5" y="-299.2" font-family="Helvetica,sans-Serif" font-size="11.00">scenario_id</text>
<polygon fill="none" stroke="black" points="547.5,-291 547.5,-313 613.5,-313 613.5,-291 547.5,-291"/>
<text text-anchor="start" x="550.5" y="-299.2" font-family="Helvetica,sans-Serif" font-size="11.00">int4[10]</text>
<polygon fill="none" stroke="black" points="370.5,-269 370.5,-291 547.5,-291 547.5,-269 370.5,-269"/>
<image xlink:href="../../images/primaryKeys.png" width="11px" height="12px" preserveAspectRatio="xMinYMin meet" x="375.5" y="-286"/>
<text text-anchor="start" x="390.5" y="-277.2" font-family="Helvetica,sans-Serif" font-size="11.00">decade</text>
<polygon fill="none" stroke="black" points="547.5,-269 547.5,-291 613.5,-291 613.5,-269 547.5,-269"/>
<text text-anchor="start" x="550.5" y="-277.2" font-family="Helvetica,sans-Serif" font-size="11.00">int4[10]</text>
<polygon fill="none" stroke="black" points="370.5,-247 370.5,-269 547.5,-269 547.5,-247 370.5,-247"/>
<image xlink:href="../../images/primaryKeys.png" width="11px" height="12px" preserveAspectRatio="xMinYMin meet" x="375.5" y="-264"/>
<text text-anchor="start" x="390.5" y="-255.2" font-family="Helvetica,sans-Serif" font-size="11.00">hazard_metric_id</text>
<polygon fill="none" stroke="black" points="547.5,-247 547.5,-269 613.5,-269 613.5,-247 547.5,-247"/>
<text text-anchor="start" x="550.5" y="-255.2" font-family="Helvetica,sans-Serif" font-size="11.00">int4[10]</text>
<polygon fill="none" stroke="black" points="370.5,-225 370.5,-247 547.5,-247 547.5,-225 370.5,-225"/>
<image xlink:href="../../images/primaryKeys.png" width="11px" height="12px" preserveAspectRatio="xMinYMin meet" x="375.5" y="-242"/>
<text text-anchor="start" x="390.5" y="-233.2" font-family="Helvetica,sans-Serif" font-size="11.00">risk_factor_id</text>
<polygon fill="none" stroke="black" points="547.5,-225 547.5,-247 613.5,-247 613.5,-225 547.5,-225"/>
<text text-anchor="start" x="550.5" y="-233.2" font-family="Helvetica,sans-Serif" font-size="11.00">int4[10]</text>
<polygon fill="none" stroke="black" points="370.5,-203 370.5,-225 547.5,-225 547.5,-203 370.5,-203"/>
<text text-anchor="start" x="390.5" y="-211.2" font-family="Helvetica,sans-Serif" font-size="11.00">risk_factor_name</text>
<polygon fill="none" stroke="black" points="547.5,-203 547.5,-225 613.5,-225 613.5,-203 547.5,-203"/>
<text text-anchor="start" x="550.5" y="-211.2" font-family="Helvetica,sans-Serif" font-size="11.00">varchar[32]</text>
<polygon fill="none" stroke="black" points="370.5,-181 370.5,-203 547.5,-203 547.5,-181 370.5,-181"/>
<text text-anchor="start" x="390.5" y="-189.2" font-family="Helvetica,sans-Serif" font-size="11.00">risk_factor_category_name</text>
<polygon fill="none" stroke="black" points="547.5,-181 547.5,-203 613.5,-203 613.5,-181 547.5,-181"/>
<text text-anchor="start" x="550.5" y="-189.2" font-family="Helvetica,sans-Serif" font-size="11.00">varchar[32]</text>
<polygon fill="none" stroke="black" points="370.5,-159 370.5,-181 547.5,-181 547.5,-159 370.5,-159"/>
<text text-anchor="start" x="390.5" y="-167.2" font-family="Helvetica,sans-Serif" font-size="11.00">tcfd_id</text>
<polygon fill="none" stroke="black" points="547.5,-159 547.5,-181 613.5,-181 613.5,-159 547.5,-159"/>
<text text-anchor="start" x="550.5" y="-167.2" font-family="Helvetica,sans-Serif" font-size="11.00">int4[10]</text>
<polygon fill="none" stroke="black" points="370.5,-137 370.5,-159 547.5,-159 547.5,-137 370.5,-137"/>
<text text-anchor="start" x="390.5" y="-145.2" font-family="Helvetica,sans-Serif" font-size="11.00">entity_value</text>
<polygon fill="none" stroke="black" points="547.5,-137 547.5,-159 613.5,-159 613.5,-137 547.5,-137"/>
<text text-anchor="start" x="550.5" y="-145.2" font-family="Helvetica,sans-Serif" font-size="11.00">float8[17,17]</text>
<polygon fill="none" stroke="black" points="370.5,-115 370.5,-137 547.5,-137 547.5,-115 370.5,-115"/>
<text text-anchor="start" x="390.5" y="-123.2" font-family="Helvetica,sans-Serif" font-size="11.00">entity_impact</text>
<polygon fill="none" stroke="black" points="547.5,-115 547.5,-137 613.5,-137 613.5,-115 547.5,-115"/>
<text text-anchor="start" x="550.5" y="-123.2" font-family="Helvetica,sans-Serif" font-size="11.00">float8[17,17]</text>
<polygon fill="none" stroke="black" points="370.5,-93 370.5,-115 547.5,-115 547.5,-93 370.5,-93"/>
<text text-anchor="start" x="390.5" y="-101.2" font-family="Helvetica,sans-Serif" font-size="11.00">entity_portion_at_risk</text>
<polygon fill="none" stroke="black" points="547.5,-93 547.5,-115 613.5,-115 613.5,-93 547.5,-93"/>
<text text-anchor="start" x="550.5" y="-101.2" font-family="Helvetica,sans-Serif" font-size="11.00">float8[17,17]</text>
<polygon fill="#ffffff" stroke="transparent" points="370.5,-75 370.5,-93 433.5,-93 433.5,-75 370.5,-75"/>
<polygon fill="none" stroke="black" points="370.5,-75 370.5,-93 433.5,-93 433.5,-75 370.5,-75"/>
<text text-anchor="start" x="373.5" y="-81.2" font-family="Helvetica,sans-Serif" font-size="11.00">&lt; 4</text>
<polygon fill="#ffffff" stroke="transparent" points="433.5,-75 433.5,-93 547.5,-93 547.5,-75 433.5,-75"/>
<polygon fill="none" stroke="black" points="433.5,-75 433.5,-93 547.5,-93 547.5,-75 433.5,-75"/>
<text text-anchor="start" x="477.5" y="-81.2" font-family="Helvetica,sans-Serif" font-size="11.00">133,008 rows</text>
<polygon fill="#ffffff" stroke="transparent" points="547.5,-75 547.5,-93 613.5,-93 613.5,-75 547.5,-75"/>
<polygon fill="none" stroke="black" points="547.5,-75 547.5,-93 613.5,-93 613.5,-75 547.5,-75"/>
<text text-anchor="start" x="594.5" y="-81.2" font-family="Helvetica,sans-Serif" font-size="11.00">0 &gt;</text>
<polygon fill="none" stroke="black" stroke-width="2" points="369,-74 369,-402 614,-402 614,-74 369,-74"/>
</a>
</g>
</g>
<!-- customers -->
<g id="node2" class="node">
<title>customers</title>
<g id="a_node2"><a xlink:href="../../tables/customers.html" xlink:title="customers" target="_top">
<polygon fill="#ffffff" stroke="transparent" points="183,-407 183,-509 300,-509 300,-407 183,-407"/>
<polygon fill="#f5f5f5" stroke="transparent" points="183.5,-487 183.5,-509 300.5,-509 300.5,-487 183.5,-487"/>
<polygon fill="none" stroke="black" points="183.5,-487 183.5,-509 300.5,-509 300.5,-487 183.5,-487"/>
<text text-anchor="start" x="188.5" y="-496.2" font-family="Helvetica,sans-Serif" font-weight="bold" font-size="11.00">customers</text>
<text text-anchor="start" x="265.5" y="-495.2" font-family="Helvetica,sans-Serif" font-size="11.00">[table]</text>
<polygon fill="none" stroke="black" points="183.5,-465 183.5,-487 300.5,-487 300.5,-465 183.5,-465"/>
<image xlink:href="../../images/primaryKeys.png" width="11px" height="12px" preserveAspectRatio="xMinYMin meet" x="188.5" y="-482"/>
<text text-anchor="start" x="203.5" y="-473.2" font-family="Helvetica,sans-Serif" font-size="11.00">id</text>
<polygon fill="#ffffff" stroke="transparent" points="183.5,-443 183.5,-465 300.5,-465 300.5,-443 183.5,-443"/>
<polygon fill="none" stroke="black" points="183.5,-443 183.5,-465 300.5,-465 300.5,-443 183.5,-443"/>
<text text-anchor="start" x="203.5" y="-451.2" font-family="Helvetica,sans-Serif" font-size="11.00">name</text>
<polygon fill="none" stroke="black" points="183.5,-425 183.5,-443 300.5,-443 300.5,-425 183.5,-425"/>
<text text-anchor="start" x="186.5" y="-431.2" font-family="Helvetica,sans-Serif" font-size="11.00">...</text>
<polygon fill="#ffffff" stroke="transparent" points="183.5,-407 183.5,-425 211.5,-425 211.5,-407 183.5,-407"/>
<polygon fill="none" stroke="black" points="183.5,-407 183.5,-425 211.5,-425 211.5,-407 183.5,-407"/>
<text text-anchor="start" x="186.5" y="-413.2" font-family="Helvetica,sans-Serif" font-size="11.00"> &#160;</text>
<polygon fill="#ffffff" stroke="transparent" points="211.5,-407 211.5,-425 270.5,-425 270.5,-407 211.5,-407"/>
<polygon fill="none" stroke="black" points="211.5,-407 211.5,-425 270.5,-425 270.5,-407 211.5,-407"/>
<text text-anchor="start" x="221.5" y="-413.2" font-family="Helvetica,sans-Serif" font-size="11.00">938 rows</text>
<polygon fill="#ffffff" stroke="transparent" points="270.5,-407 270.5,-425 300.5,-425 300.5,-407 270.5,-407"/>
<polygon fill="none" stroke="black" points="270.5,-407 270.5,-425 300.5,-425 300.5,-407 270.5,-407"/>
<text text-anchor="start" x="281.5" y="-413.2" font-family="Helvetica,sans-Serif" font-size="11.00">5 &gt;</text>
</a>
</g>
</g>
<!-- aggregate_risks&#45;&gt;customers -->
<g id="edge1" class="edge">
<title>aggregate_risks:w&#45;&gt;customers:e</title>
<path fill="none" stroke="black" d="M355.16,-371.12C320.95,-388.82 352.46,-476 301.5,-476"/>
<polygon fill="black" stroke="black" points="361.68,-369.7 370.26,-371.52 365.59,-368.85 369.5,-368 369.5,-368 369.5,-368 365.59,-368.85 368.74,-364.48 361.68,-369.7 361.68,-369.7"/>
<ellipse fill="none" stroke="black" cx="358.56" cy="-370.38" rx="3.2" ry="3.2"/>
</g>
<!-- hazard_metrics -->
<g id="node3" class="node">
<title>hazard_metrics</title>
<g id="a_node3"><a xlink:href="../../tables/hazard_metrics.html" xlink:title="hazard_metrics" target="_top">
<polygon fill="#ffffff" stroke="transparent" points="164,-95 164,-241 319,-241 319,-95 164,-95"/>
<polygon fill="#f5f5f5" stroke="transparent" points="164.5,-219 164.5,-241 319.5,-241 319.5,-219 164.5,-219"/>
<polygon fill="none" stroke="black" points="164.5,-219 164.5,-241 319.5,-241 319.5,-219 164.5,-219"/>
<text text-anchor="start" x="169.5" y="-228.2" font-family="Helvetica,sans-Serif" font-weight="bold" font-size="11.00">hazard_metrics</text>
<text text-anchor="start" x="284.5" y="-227.2" font-family="Helvetica,sans-Serif" font-size="11.00">[table]</text>
<polygon fill="none" stroke="black" points="164.5,-197 164.5,-219 319.5,-219 319.5,-197 164.5,-197"/>
<image xlink:href="../../images/primaryKeys.png" width="11px" height="12px" preserveAspectRatio="xMinYMin meet" x="169.5" y="-214"/>
<text text-anchor="start" x="184.5" y="-205.2" font-family="Helvetica,sans-Serif" font-size="11.00">id</text>
<polygon fill="#ffffff" stroke="transparent" points="164.5,-175 164.5,-197 319.5,-197 319.5,-175 164.5,-175"/>
<polygon fill="none" stroke="black" points="164.5,-175 164.5,-197 319.5,-197 319.5,-175 164.5,-175"/>
<text text-anchor="start" x="184.5" y="-183.2" font-family="Helvetica,sans-Serif" font-size="11.00">name</text>
<polygon fill="#ffffff" stroke="transparent" points="164.5,-153 164.5,-175 319.5,-175 319.5,-153 164.5,-153"/>
<polygon fill="none" stroke="black" points="164.5,-153 164.5,-175 319.5,-175 319.5,-153 164.5,-153"/>
<text text-anchor="start" x="184.5" y="-161.2" font-family="Helvetica,sans-Serif" font-size="11.00">name_etl</text>
<polygon fill="none" stroke="black" points="164.5,-131 164.5,-153 319.5,-153 319.5,-131 164.5,-131"/>
<image xlink:href="../../images/foreignKeys.png" width="11px" height="12px" preserveAspectRatio="xMinYMin meet" x="169.5" y="-148"/>
<text text-anchor="start" x="184.5" y="-139.2" font-family="Helvetica,sans-Serif" font-size="11.00">risk_factor_id</text>
<polygon fill="none" stroke="black" points="164.5,-113 164.5,-131 319.5,-131 319.5,-113 164.5,-113"/>
<text text-anchor="start" x="167.5" y="-119.2" font-family="Helvetica,sans-Serif" font-size="11.00">...</text>
<polygon fill="#ffffff" stroke="transparent" points="164.5,-95 164.5,-113 218.5,-113 218.5,-95 164.5,-95"/>
<polygon fill="none" stroke="black" points="164.5,-95 164.5,-113 218.5,-113 218.5,-95 164.5,-95"/>
<text text-anchor="start" x="167.5" y="-101.2" font-family="Helvetica,sans-Serif" font-size="11.00">&lt; 1</text>
<polygon fill="#ffffff" stroke="transparent" points="218.5,-95 218.5,-113 280.5,-113 280.5,-95 218.5,-95"/>
<polygon fill="none" stroke="black" points="218.5,-95 218.5,-113 280.5,-113 280.5,-95 218.5,-95"/>
<text text-anchor="start" x="237.5" y="-101.2" font-family="Helvetica,sans-Serif" font-size="11.00">15 rows</text>
<polygon fill="#ffffff" stroke="transparent" points="280.5,-95 280.5,-113 319.5,-113 319.5,-95 280.5,-95"/>
<polygon fill="none" stroke="black" points="280.5,-95 280.5,-113 319.5,-113 319.5,-95 280.5,-95"/>
<text text-anchor="start" x="300.5" y="-101.2" font-family="Helvetica,sans-Serif" font-size="11.00">3 &gt;</text>
</a>
</g>
</g>
<!-- aggregate_risks&#45;&gt;hazard_metrics -->
<g id="edge2" class="edge">
<title>aggregate_risks:w&#45;&gt;hazard_metrics:e</title>
<path fill="none" stroke="black" d="M355.68,-253.02C341.86,-240.38 345.54,-208 320.5,-208"/>
<polygon fill="black" stroke="black" points="361.97,-255.29 368.28,-261.39 365.74,-256.64 369.5,-258 369.5,-258 369.5,-258 365.74,-256.64 370.72,-254.61 361.97,-255.29 361.97,-255.29"/>
<ellipse fill="none" stroke="black" cx="358.96" cy="-254.2" rx="3.2" ry="3.2"/>
</g>
<!-- risk_factors -->
<g id="node4" class="node">
<title>risk_factors</title>
<g id="a_node4"><a xlink:href="../../tables/risk_factors.html" xlink:title="risk_factors" target="_top">
<polygon fill="#ffffff" stroke="transparent" points="8,-37 8,-139 115,-139 115,-37 8,-37"/>
<polygon fill="#f5f5f5" stroke="transparent" points="8.5,-117 8.5,-139 115.5,-139 115.5,-117 8.5,-117"/>
<polygon fill="none" stroke="black" points="8.5,-117 8.5,-139 115.5,-139 115.5,-117 8.5,-117"/>
<text text-anchor="start" x="13.5" y="-126.2" font-family="Helvetica,sans-Serif" font-weight="bold" font-size="11.00">risk_factors</text>
<text text-anchor="start" x="80.5" y="-125.2" font-family="Helvetica,sans-Serif" font-size="11.00">[table]</text>
<polygon fill="none" stroke="black" points="8.5,-95 8.5,-117 115.5,-117 115.5,-95 8.5,-95"/>
<image xlink:href="../../images/primaryKeys.png" width="11px" height="12px" preserveAspectRatio="xMinYMin meet" x="13.5" y="-112"/>
<text text-anchor="start" x="37.5" y="-103.2" font-family="Helvetica,sans-Serif" font-size="11.00">id</text>
<polygon fill="#ffffff" stroke="transparent" points="8.5,-73 8.5,-95 115.5,-95 115.5,-73 8.5,-73"/>
<polygon fill="none" stroke="black" points="8.5,-73 8.5,-95 115.5,-95 115.5,-73 8.5,-73"/>
<text text-anchor="start" x="37.5" y="-81.2" font-family="Helvetica,sans-Serif" font-size="11.00">name</text>
<polygon fill="none" stroke="black" points="8.5,-55 8.5,-73 115.5,-73 115.5,-55 8.5,-55"/>
<text text-anchor="start" x="11.5" y="-61.2" font-family="Helvetica,sans-Serif" font-size="11.00">...</text>
<polygon fill="#ffffff" stroke="transparent" points="8.5,-37 8.5,-55 34.5,-55 34.5,-37 8.5,-37"/>
<polygon fill="none" stroke="black" points="8.5,-37 8.5,-55 34.5,-55 34.5,-37 8.5,-37"/>
<text text-anchor="start" x="11.5" y="-43.2" font-family="Helvetica,sans-Serif" font-size="11.00"> &#160;</text>
<polygon fill="#ffffff" stroke="transparent" points="34.5,-37 34.5,-55 86.5,-55 86.5,-37 34.5,-37"/>
<polygon fill="none" stroke="black" points="34.5,-37 34.5,-55 86.5,-55 86.5,-37 34.5,-37"/>
<text text-anchor="start" x="43.5" y="-43.2" font-family="Helvetica,sans-Serif" font-size="11.00">17 rows</text>
<polygon fill="#ffffff" stroke="transparent" points="86.5,-37 86.5,-55 115.5,-55 115.5,-37 86.5,-37"/>
<polygon fill="none" stroke="black" points="86.5,-37 86.5,-55 115.5,-55 115.5,-37 86.5,-37"/>
<text text-anchor="start" x="96.5" y="-43.2" font-family="Helvetica,sans-Serif" font-size="11.00">7 &gt;</text>
</a>
</g>
</g>
<!-- aggregate_risks&#45;&gt;risk_factors -->
<g id="edge3" class="edge">
<title>aggregate_risks:w&#45;&gt;risk_factors:e</title>
<path fill="none" stroke="black" d="M354.99,-233.8C312.71,-218.18 377.91,-123.56 327,-85 266.42,-39.11 229.74,-66.62 156,-85 136.71,-89.81 136.38,-106 116.5,-106"/>
<polygon fill="black" stroke="black" points="361.59,-234.8 368.96,-239.56 365.55,-235.4 369.5,-236 369.5,-236 369.5,-236 365.55,-235.4 370.04,-232.44 361.59,-234.8 361.59,-234.8"/>
<ellipse fill="none" stroke="black" cx="358.43" cy="-234.32" rx="3.2" ry="3.2"/>
</g>
<!-- scenarios -->
<g id="node5" class="node">
<title>scenarios</title>
<g id="a_node5"><a xlink:href="../../tables/scenarios.html" xlink:title="scenarios" target="_top">
<polygon fill="#ffffff" stroke="transparent" points="172,-262 172,-386 311,-386 311,-262 172,-262"/>
<polygon fill="#f5f5f5" stroke="transparent" points="172.5,-364 172.5,-386 311.5,-386 311.5,-364 172.5,-364"/>
<polygon fill="none" stroke="black" points="172.5,-364 172.5,-386 311.5,-386 311.5,-364 172.5,-364"/>
<text text-anchor="start" x="177.5" y="-373.2" font-family="Helvetica,sans-Serif" font-weight="bold" font-size="11.00">scenarios</text>
<text text-anchor="start" x="276.5" y="-372.2" font-family="Helvetica,sans-Serif" font-size="11.00">[table]</text>
<polygon fill="none" stroke="black" points="172.5,-342 172.5,-364 311.5,-364 311.5,-342 172.5,-342"/>
<image xlink:href="../../images/primaryKeys.png" width="11px" height="12px" preserveAspectRatio="xMinYMin meet" x="177.5" y="-359"/>
<text text-anchor="start" x="192.5" y="-350.2" font-family="Helvetica,sans-Serif" font-size="11.00">id</text>
<polygon fill="#ffffff" stroke="transparent" points="172.5,-320 172.5,-342 311.5,-342 311.5,-320 172.5,-320"/>
<polygon fill="none" stroke="black" points="172.5,-320 172.5,-342 311.5,-342 311.5,-320 172.5,-320"/>
<text text-anchor="start" x="192.5" y="-328.2" font-family="Helvetica,sans-Serif" font-size="11.00">name</text>
<polygon fill="#ffffff" stroke="transparent" points="172.5,-298 172.5,-320 311.5,-320 311.5,-298 172.5,-298"/>
<polygon fill="none" stroke="black" points="172.5,-298 172.5,-320 311.5,-320 311.5,-298 172.5,-298"/>
<text text-anchor="start" x="192.5" y="-306.2" font-family="Helvetica,sans-Serif" font-size="11.00">name_etl</text>
<polygon fill="none" stroke="black" points="172.5,-280 172.5,-298 311.5,-298 311.5,-280 172.5,-280"/>
<text text-anchor="start" x="175.5" y="-286.2" font-family="Helvetica,sans-Serif" font-size="11.00">...</text>
<polygon fill="#ffffff" stroke="transparent" points="172.5,-262 172.5,-280 217.5,-280 217.5,-262 172.5,-262"/>
<polygon fill="none" stroke="black" points="172.5,-262 172.5,-280 217.5,-280 217.5,-262 172.5,-262"/>
<text text-anchor="start" x="175.5" y="-268.2" font-family="Helvetica,sans-Serif" font-size="11.00"> &#160;</text>
<polygon fill="#ffffff" stroke="transparent" points="217.5,-262 217.5,-280 273.5,-280 273.5,-262 217.5,-262"/>
<polygon fill="none" stroke="black" points="217.5,-262 217.5,-280 273.5,-280 273.5,-262 217.5,-262"/>
<text text-anchor="start" x="236.5" y="-268.2" font-family="Helvetica,sans-Serif" font-size="11.00">4 rows</text>
<polygon fill="#ffffff" stroke="transparent" points="273.5,-262 273.5,-280 311.5,-280 311.5,-262 273.5,-262"/>
<polygon fill="none" stroke="black" points="273.5,-262 273.5,-280 311.5,-280 311.5,-262 273.5,-262"/>
<text text-anchor="start" x="292.5" y="-268.2" font-family="Helvetica,sans-Serif" font-size="11.00">4 &gt;</text>
</a>
</g>
</g>
<!-- aggregate_risks&#45;&gt;scenarios -->
<g id="edge4" class="edge">
<title>aggregate_risks:w&#45;&gt;scenarios:e</title>
<path fill="none" stroke="black" d="M355.5,-306C337.95,-318.02 340.65,-353 312.5,-353"/>
<polygon fill="black" stroke="black" points="361.81,-304.2 370.49,-305.46 365.65,-303.1 369.5,-302 369.5,-302 369.5,-302 365.65,-303.1 368.51,-298.54 361.81,-304.2 361.81,-304.2"/>
<ellipse fill="none" stroke="black" cx="358.73" cy="-305.08" rx="3.2" ry="3.2"/>
</g>
<!-- hazard_metrics&#45;&gt;risk_factors -->
<g id="edge5" class="edge">
<title>hazard_metrics:w&#45;&gt;risk_factors:e</title>
<path fill="none" stroke="black" d="M149.79,-137.29C138.1,-127.54 136.85,-106 116.5,-106"/>
<polygon fill="black" stroke="black" points="155.93,-139.4 162.33,-145.4 159.72,-140.7 163.5,-142 163.5,-142 163.5,-142 159.72,-140.7 164.67,-138.6 155.93,-139.4 155.93,-139.4"/>
<ellipse fill="none" stroke="black" cx="152.91" cy="-138.36" rx="3.2" ry="3.2"/>
</g>
</g>
</svg>
