<?xml version="1.0" encoding="UTF-8" standalone="no"?>
<!DOCTYPE svg PUBLIC "-//W3C//DTD SVG 1.1//EN"
 "http://www.w3.org/Graphics/SVG/1.1/DTD/svg11.dtd">
<!-- Generated by graphviz version 2.50.0 (20211204.2007)
 -->
<!-- Title: twoDegreesRelationshipsDiagram Pages: 1 -->
<svg width="879pt" height="814pt"
 viewBox="0.00 0.00 879.00 813.50" xmlns="http://www.w3.org/2000/svg" xmlns:xlink="http://www.w3.org/1999/xlink">
<g id="graph0" class="graph" transform="scale(1 1) rotate(0) translate(4 809.5)">
<title>twoDegreesRelationshipsDiagram</title>
<polygon fill="#ffffff" stroke="transparent" points="-4,4 -4,-809.5 875,-809.5 875,4 -4,4"/>
<text text-anchor="middle" x="72.5" y="-7.2" font-family="Helvetica,sans-Serif" font-size="11.00">Generated by SchemaSpy</text>
<!-- aggregate_impacts -->
<g id="node1" class="node">
<title>aggregate_impacts</title>
<g id="a_node1"><a xlink:href="../../tables/aggregate_impacts.html" xlink:title="aggregate_impacts" target="_top">
<polygon fill="#ffffff" stroke="transparent" points="386,-409.5 386,-695.5 610,-695.5 610,-409.5 386,-409.5"/>
<polygon fill="#f5f5f5" stroke="transparent" points="388,-671.5 388,-693.5 608,-693.5 608,-671.5 388,-671.5"/>
<polygon fill="none" stroke="black" points="388,-671.5 388,-693.5 608,-693.5 608,-671.5 388,-671.5"/>
<text text-anchor="start" x="393" y="-680.7" font-family="Helvetica,sans-Serif" font-weight="bold" font-size="11.00">aggregate_impacts</text>
<text text-anchor="start" x="573" y="-679.7" font-family="Helvetica,sans-Serif" font-size="11.00">[table]</text>
<polygon fill="none" stroke="black" points="388,-649.5 388,-671.5 518,-671.5 518,-649.5 388,-649.5"/>
<image xlink:href="../../images/primaryKeys.png" width="11px" height="12px" preserveAspectRatio="xMinYMin meet" x="393" y="-666.504"/>
<text text-anchor="start" x="408" y="-657.7" font-family="Helvetica,sans-Serif" font-size="11.00">id</text>
<polygon fill="none" stroke="black" points="518,-649.5 518,-671.5 608,-671.5 608,-649.5 518,-649.5"/>
<text text-anchor="start" x="521" y="-657.7" font-family="Helvetica,sans-Serif" font-size="11.00">bigserial[19]</text>
<polygon fill="#ffffff" stroke="transparent" points="388,-627.5 388,-649.5 518,-649.5 518,-627.5 388,-627.5"/>
<polygon fill="none" stroke="black" points="388,-627.5 388,-649.5 518,-649.5 518,-627.5 388,-627.5"/>
<text text-anchor="start" x="408" y="-635.7" font-family="Helvetica,sans-Serif" font-size="11.00">aggregate_level</text>
<polygon fill="none" stroke="black" points="518,-627.5 518,-649.5 608,-649.5 608,-627.5 518,-627.5"/>
<text text-anchor="start" x="521" y="-635.7" font-family="Helvetica,sans-Serif" font-size="11.00">int4[10]</text>
<polygon fill="#ffffff" stroke="transparent" points="388,-605.5 388,-627.5 518,-627.5 518,-605.5 388,-605.5"/>
<polygon fill="none" stroke="black" points="388,-605.5 388,-627.5 518,-627.5 518,-605.5 388,-605.5"/>
<text text-anchor="start" x="408" y="-613.7" font-family="Helvetica,sans-Serif" font-size="11.00">entity_id</text>
<polygon fill="none" stroke="black" points="518,-605.5 518,-627.5 608,-627.5 608,-605.5 518,-605.5"/>
<text text-anchor="start" x="521" y="-613.7" font-family="Helvetica,sans-Serif" font-size="11.00">int4[10]</text>
<polygon fill="#ffffff" stroke="transparent" points="388,-583.5 388,-605.5 518,-605.5 518,-583.5 388,-583.5"/>
<polygon fill="none" stroke="black" points="388,-583.5 388,-605.5 518,-605.5 518,-583.5 388,-583.5"/>
<text text-anchor="start" x="408" y="-591.7" font-family="Helvetica,sans-Serif" font-size="11.00">tags_hash_md5</text>
<polygon fill="none" stroke="black" points="518,-583.5 518,-605.5 608,-605.5 608,-583.5 518,-583.5"/>
<text text-anchor="start" x="521" y="-591.7" font-family="Helvetica,sans-Serif" font-size="11.00">text[2147483647]</text>
<polygon fill="#ffffff" stroke="transparent" points="388,-561.5 388,-583.5 518,-583.5 518,-561.5 388,-561.5"/>
<polygon fill="none" stroke="black" points="388,-561.5 388,-583.5 518,-583.5 518,-561.5 388,-561.5"/>
<image xlink:href="../../images/foreignKeys.png" width="11px" height="12px" preserveAspectRatio="xMinYMin meet" x="393" y="-578.504"/>
<text text-anchor="start" x="408" y="-569.7" font-family="Helvetica,sans-Serif" font-size="11.00">risk_factor_id</text>
<polygon fill="none" stroke="black" points="518,-561.5 518,-583.5 608,-583.5 608,-561.5 518,-561.5"/>
<text text-anchor="start" x="521" y="-569.7" font-family="Helvetica,sans-Serif" font-size="11.00">int4[10]</text>
<polygon fill="#ffffff" stroke="transparent" points="388,-539.5 388,-561.5 518,-561.5 518,-539.5 388,-539.5"/>
<polygon fill="none" stroke="black" points="388,-539.5 388,-561.5 518,-561.5 518,-539.5 388,-539.5"/>
<image xlink:href="../../images/foreignKeys.png" width="11px" height="12px" preserveAspectRatio="xMinYMin meet" x="393" y="-556.504"/>
<text text-anchor="start" x="408" y="-547.7" font-family="Helvetica,sans-Serif" font-size="11.00">scenario_id</text>
<polygon fill="none" stroke="black" points="518,-539.5 518,-561.5 608,-561.5 608,-539.5 518,-539.5"/>
<text text-anchor="start" x="521" y="-547.7" font-family="Helvetica,sans-Serif" font-size="11.00">int4[10]</text>
<polygon fill="#ffffff" stroke="transparent" points="388,-517.5 388,-539.5 518,-539.5 518,-517.5 388,-517.5"/>
<polygon fill="none" stroke="black" points="388,-517.5 388,-539.5 518,-539.5 518,-517.5 388,-517.5"/>
<text text-anchor="start" x="408" y="-525.7" font-family="Helvetica,sans-Serif" font-size="11.00">yr</text>
<polygon fill="none" stroke="black" points="518,-517.5 518,-539.5 608,-539.5 608,-517.5 518,-517.5"/>
<text text-anchor="start" x="521" y="-525.7" font-family="Helvetica,sans-Serif" font-size="11.00">int4[10]</text>
<polygon fill="none" stroke="black" points="388,-495.5 388,-517.5 518,-517.5 518,-495.5 388,-495.5"/>
<text text-anchor="start" x="408" y="-503.7" font-family="Helvetica,sans-Serif" font-size="11.00">impact_abs</text>
<polygon fill="none" stroke="black" points="518,-495.5 518,-517.5 608,-517.5 608,-495.5 518,-495.5"/>
<text text-anchor="start" x="521" y="-503.7" font-family="Helvetica,sans-Serif" font-size="11.00">float8[17,17]</text>
<polygon fill="none" stroke="black" points="388,-473.5 388,-495.5 518,-495.5 518,-473.5 388,-473.5"/>
<text text-anchor="start" x="408" y="-481.7" font-family="Helvetica,sans-Serif" font-size="11.00">created_at</text>
<polygon fill="none" stroke="black" points="518,-473.5 518,-495.5 608,-495.5 608,-473.5 518,-473.5"/>
<text text-anchor="start" x="521" y="-481.7" font-family="Helvetica,sans-Serif" font-size="11.00">timestamp[29,6]</text>
<polygon fill="none" stroke="black" points="388,-451.5 388,-473.5 518,-473.5 518,-451.5 388,-451.5"/>
<text text-anchor="start" x="408" y="-459.7" font-family="Helvetica,sans-Serif" font-size="11.00">updated_at</text>
<polygon fill="none" stroke="black" points="518,-451.5 518,-473.5 608,-473.5 608,-451.5 518,-451.5"/>
<text text-anchor="start" x="521" y="-459.7" font-family="Helvetica,sans-Serif" font-size="11.00">timestamp[29,6]</text>
<polygon fill="none" stroke="black" points="388,-429.5 388,-451.5 518,-451.5 518,-429.5 388,-429.5"/>
<text text-anchor="start" x="408" y="-437.7" font-family="Helvetica,sans-Serif" font-size="11.00">batch_id</text>
<polygon fill="none" stroke="black" points="518,-429.5 518,-451.5 608,-451.5 608,-429.5 518,-429.5"/>
<text text-anchor="start" x="521" y="-437.7" font-family="Helvetica,sans-Serif" font-size="11.00">text[2147483647]</text>
<polygon fill="#ffffff" stroke="transparent" points="388,-411.5 388,-429.5 423,-429.5 423,-411.5 388,-411.5"/>
<polygon fill="none" stroke="black" points="388,-411.5 388,-429.5 423,-429.5 423,-411.5 388,-411.5"/>
<text text-anchor="start" x="391" y="-417.7" font-family="Helvetica,sans-Serif" font-size="11.00">&lt; 2</text>
<polygon fill="#ffffff" stroke="transparent" points="423,-411.5 423,-429.5 518,-429.5 518,-411.5 423,-411.5"/>
<polygon fill="none" stroke="black" points="423,-411.5 423,-429.5 518,-429.5 518,-411.5 423,-411.5"/>
<text text-anchor="start" x="439" y="-417.7" font-family="Helvetica,sans-Serif" font-size="11.00">7,901,926 rows</text>
<polygon fill="#ffffff" stroke="transparent" points="518,-411.5 518,-429.5 608,-429.5 608,-411.5 518,-411.5"/>
<polygon fill="none" stroke="black" points="518,-411.5 518,-429.5 608,-429.5 608,-411.5 518,-411.5"/>
<text text-anchor="start" x="589" y="-417.7" font-family="Helvetica,sans-Serif" font-size="11.00">0 &gt;</text>
<polygon fill="none" stroke="black" stroke-width="2" points="387,-410.5 387,-694.5 609,-694.5 609,-410.5 387,-410.5"/>
</a>
</g>
</g>
<!-- risk_factors -->
<g id="node2" class="node">
<title>risk_factors</title>
<g id="a_node2"><a xlink:href="../../tables/risk_factors.html" xlink:title="risk_factors" target="_top">
<polygon fill="#ffffff" stroke="transparent" points="8,-185.5 8,-287.5 115,-287.5 115,-185.5 8,-185.5"/>
<polygon fill="#f5f5f5" stroke="transparent" points="8.5,-265.5 8.5,-287.5 115.5,-287.5 115.5,-265.5 8.5,-265.5"/>
<polygon fill="none" stroke="black" points="8.5,-265.5 8.5,-287.5 115.5,-287.5 115.5,-265.5 8.5,-265.5"/>
<text text-anchor="start" x="13.5" y="-274.7" font-family="Helvetica,sans-Serif" font-weight="bold" font-size="11.00">risk_factors</text>
<text text-anchor="start" x="80.5" y="-273.7" font-family="Helvetica,sans-Serif" font-size="11.00">[table]</text>
<polygon fill="none" stroke="black" points="8.5,-243.5 8.5,-265.5 115.5,-265.5 115.5,-243.5 8.5,-243.5"/>
<image xlink:href="../../images/primaryKeys.png" width="11px" height="12px" preserveAspectRatio="xMinYMin meet" x="13.5" y="-260.504"/>
<text text-anchor="start" x="37.5" y="-251.7" font-family="Helvetica,sans-Serif" font-size="11.00">id</text>
<polygon fill="#ffffff" stroke="transparent" points="8.5,-221.5 8.5,-243.5 115.5,-243.5 115.5,-221.5 8.5,-221.5"/>
<polygon fill="none" stroke="black" points="8.5,-221.5 8.5,-243.5 115.5,-243.5 115.5,-221.5 8.5,-221.5"/>
<text text-anchor="start" x="37.5" y="-229.7" font-family="Helvetica,sans-Serif" font-size="11.00">name</text>
<polygon fill="none" stroke="black" points="8.5,-203.5 8.5,-221.5 115.5,-221.5 115.5,-203.5 8.5,-203.5"/>
<text text-anchor="start" x="11.5" y="-209.7" font-family="Helvetica,sans-Serif" font-size="11.00">...</text>
<polygon fill="#ffffff" stroke="transparent" points="8.5,-185.5 8.5,-203.5 34.5,-203.5 34.5,-185.5 8.5,-185.5"/>
<polygon fill="none" stroke="black" points="8.5,-185.5 8.5,-203.5 34.5,-203.5 34.5,-185.5 8.5,-185.5"/>
<text text-anchor="start" x="11.5" y="-191.7" font-family="Helvetica,sans-Serif" font-size="11.00"> &#160;</text>
<polygon fill="#ffffff" stroke="transparent" points="34.5,-185.5 34.5,-203.5 86.5,-203.5 86.5,-185.5 34.5,-185.5"/>
<polygon fill="none" stroke="black" points="34.5,-185.5 34.5,-203.5 86.5,-203.5 86.5,-185.5 34.5,-185.5"/>
<text text-anchor="start" x="43.5" y="-191.7" font-family="Helvetica,sans-Serif" font-size="11.00">17 rows</text>
<polygon fill="#ffffff" stroke="transparent" points="86.5,-185.5 86.5,-203.5 115.5,-203.5 115.5,-185.5 86.5,-185.5"/>
<polygon fill="none" stroke="black" points="86.5,-185.5 86.5,-203.5 115.5,-203.5 115.5,-185.5 86.5,-185.5"/>
<text text-anchor="start" x="96.5" y="-191.7" font-family="Helvetica,sans-Serif" font-size="11.00">7 &gt;</text>
</a>
</g>
</g>
<!-- aggregate_impacts&#45;&gt;risk_factors -->
<g id="edge1" class="edge">
<title>aggregate_impacts:w&#45;&gt;risk_factors:e</title>
<path fill="none" stroke="black" d="M372.45,-572.23C259.47,-567.9 224.12,-511.86 156,-413.5 114.54,-353.64 189.31,-254.5 116.5,-254.5"/>
<polygon fill="black" stroke="black" points="379,-572.35 386.93,-576.1 383,-572.43 387,-572.5 387,-572.5 387,-572.5 383,-572.43 387.07,-568.9 379,-572.35 379,-572.35"/>
<ellipse fill="none" stroke="black" cx="375.8" cy="-572.29" rx="3.2" ry="3.2"/>
</g>
<!-- scenarios -->
<g id="node3" class="node">
<title>scenarios</title>
<g id="a_node3"><a xlink:href="../../tables/scenarios.html" xlink:title="scenarios" target="_top">
<polygon fill="#ffffff" stroke="transparent" points="181,-278.5 181,-402.5 320,-402.5 320,-278.5 181,-278.5"/>
<polygon fill="#f5f5f5" stroke="transparent" points="181.5,-380.5 181.5,-402.5 320.5,-402.5 320.5,-380.5 181.5,-380.5"/>
<polygon fill="none" stroke="black" points="181.5,-380.5 181.5,-402.5 320.5,-402.5 320.5,-380.5 181.5,-380.5"/>
<text text-anchor="start" x="186.5" y="-389.7" font-family="Helvetica,sans-Serif" font-weight="bold" font-size="11.00">scenarios</text>
<text text-anchor="start" x="285.5" y="-388.7" font-family="Helvetica,sans-Serif" font-size="11.00">[table]</text>
<polygon fill="none" stroke="black" points="181.5,-358.5 181.5,-380.5 320.5,-380.5 320.5,-358.5 181.5,-358.5"/>
<image xlink:href="../../images/primaryKeys.png" width="11px" height="12px" preserveAspectRatio="xMinYMin meet" x="186.5" y="-375.504"/>
<text text-anchor="start" x="201.5" y="-366.7" font-family="Helvetica,sans-Serif" font-size="11.00">id</text>
<polygon fill="#ffffff" stroke="transparent" points="181.5,-336.5 181.5,-358.5 320.5,-358.5 320.5,-336.5 181.5,-336.5"/>
<polygon fill="none" stroke="black" points="181.5,-336.5 181.5,-358.5 320.5,-358.5 320.5,-336.5 181.5,-336.5"/>
<text text-anchor="start" x="201.5" y="-344.7" font-family="Helvetica,sans-Serif" font-size="11.00">name</text>
<polygon fill="#ffffff" stroke="transparent" points="181.5,-314.5 181.5,-336.5 320.5,-336.5 320.5,-314.5 181.5,-314.5"/>
<polygon fill="none" stroke="black" points="181.5,-314.5 181.5,-336.5 320.5,-336.5 320.5,-314.5 181.5,-314.5"/>
<text text-anchor="start" x="201.5" y="-322.7" font-family="Helvetica,sans-Serif" font-size="11.00">name_etl</text>
<polygon fill="none" stroke="black" points="181.5,-296.5 181.5,-314.5 320.5,-314.5 320.5,-296.5 181.5,-296.5"/>
<text text-anchor="start" x="184.5" y="-302.7" font-family="Helvetica,sans-Serif" font-size="11.00">...</text>
<polygon fill="#ffffff" stroke="transparent" points="181.5,-278.5 181.5,-296.5 226.5,-296.5 226.5,-278.5 181.5,-278.5"/>
<polygon fill="none" stroke="black" points="181.5,-278.5 181.5,-296.5 226.5,-296.5 226.5,-278.5 181.5,-278.5"/>
<text text-anchor="start" x="184.5" y="-284.7" font-family="Helvetica,sans-Serif" font-size="11.00"> &#160;</text>
<polygon fill="#ffffff" stroke="transparent" points="226.5,-278.5 226.5,-296.5 282.5,-296.5 282.5,-278.5 226.5,-278.5"/>
<polygon fill="none" stroke="black" points="226.5,-278.5 226.5,-296.5 282.5,-296.5 282.5,-278.5 226.5,-278.5"/>
<text text-anchor="start" x="245.5" y="-284.7" font-family="Helvetica,sans-Serif" font-size="11.00">4 rows</text>
<polygon fill="#ffffff" stroke="transparent" points="282.5,-278.5 282.5,-296.5 320.5,-296.5 320.5,-278.5 282.5,-278.5"/>
<polygon fill="none" stroke="black" points="282.5,-278.5 282.5,-296.5 320.5,-296.5 320.5,-278.5 282.5,-278.5"/>
<text text-anchor="start" x="301.5" y="-284.7" font-family="Helvetica,sans-Serif" font-size="11.00">4 &gt;</text>
</a>
</g>
</g>
<!-- aggregate_impacts&#45;&gt;scenarios -->
<g id="edge2" class="edge">
<title>aggregate_impacts:w&#45;&gt;scenarios:e</title>
<path fill="none" stroke="black" d="M372.74,-548.34C314.27,-527.92 401.54,-369.5 321.5,-369.5"/>
<polygon fill="black" stroke="black" points="379.09,-549.31 386.46,-554.06 383.05,-549.9 387,-550.5 387,-550.5 387,-550.5 383.05,-549.9 387.54,-546.94 379.09,-549.31 379.09,-549.31"/>
<ellipse fill="none" stroke="black" cx="375.93" cy="-548.83" rx="3.2" ry="3.2"/>
</g>
<!-- aggregate_risks -->
<g id="node4" class="node">
<title>aggregate_risks</title>
<g id="a_node4"><a xlink:href="../../tables/aggregate_risks.html" xlink:title="aggregate_risks" target="_top">
<polygon fill="#ffffff" stroke="transparent" points="433,-251.5 433,-309.5 563,-309.5 563,-251.5 433,-251.5"/>
<polygon fill="#f5f5f5" stroke="transparent" points="433,-287.5 433,-309.5 563,-309.5 563,-287.5 433,-287.5"/>
<polygon fill="none" stroke="black" points="433,-287.5 433,-309.5 563,-309.5 563,-287.5 433,-287.5"/>
<text text-anchor="start" x="438" y="-296.7" font-family="Helvetica,sans-Serif" font-weight="bold" font-size="11.00">aggregate_risks</text>
<text text-anchor="start" x="528" y="-295.7" font-family="Helvetica,sans-Serif" font-size="11.00">[table]</text>
<polygon fill="none" stroke="black" points="433,-269.5 433,-287.5 563,-287.5 563,-269.5 433,-269.5"/>
<text text-anchor="start" x="436" y="-275.7" font-family="Helvetica,sans-Serif" font-size="11.00">...</text>
<polygon fill="#ffffff" stroke="transparent" points="433,-251.5 433,-269.5 466,-269.5 466,-251.5 433,-251.5"/>
<polygon fill="none" stroke="black" points="433,-251.5 433,-269.5 466,-269.5 466,-251.5 433,-251.5"/>
<text text-anchor="start" x="436" y="-257.7" font-family="Helvetica,sans-Serif" font-size="11.00">&lt; 4</text>
<polygon fill="#ffffff" stroke="transparent" points="466,-251.5 466,-269.5 544,-269.5 544,-251.5 466,-251.5"/>
<polygon fill="none" stroke="black" points="466,-251.5 466,-269.5 544,-269.5 544,-251.5 466,-251.5"/>
<text text-anchor="start" x="474" y="-257.7" font-family="Helvetica,sans-Serif" font-size="11.00">133,008 rows</text>
<polygon fill="#ffffff" stroke="transparent" points="544,-251.5 544,-269.5 563,-269.5 563,-251.5 544,-251.5"/>
<polygon fill="none" stroke="black" points="544,-251.5 544,-269.5 563,-269.5 563,-251.5 544,-251.5"/>
<text text-anchor="start" x="553" y="-257.7" font-family="Helvetica,sans-Serif" font-size="11.00"> &#160;</text>
</a>
</g>
</g>
<!-- aggregate_risks&#45;&gt;risk_factors -->
<g id="edge4" class="edge">
<title>aggregate_risks:w&#45;&gt;risk_factors:e</title>
<path fill="none" stroke="black" d="M417.55,-278.16C389.98,-276.76 378.47,-271.45 345,-268.5 243.65,-259.58 218.25,-254.5 116.5,-254.5"/>
<polygon fill="black" stroke="black" points="424,-278.31 431.91,-282.1 428,-278.41 432,-278.5 432,-278.5 432,-278.5 428,-278.41 432.09,-274.9 424,-278.31 424,-278.31"/>
<ellipse fill="none" stroke="black" cx="420.8" cy="-278.24" rx="3.2" ry="3.2"/>
</g>
<!-- aggregate_risks&#45;&gt;scenarios -->
<g id="edge5" class="edge">
<title>aggregate_risks:w&#45;&gt;scenarios:e</title>
<path fill="none" stroke="black" d="M417.74,-280.73C400.73,-286.9 397.09,-304.82 378,-320.5 352.32,-341.6 354.74,-369.5 321.5,-369.5"/>
<polygon fill="black" stroke="black" points="424.1,-279.74 432.55,-282.06 428.05,-279.12 432,-278.5 432,-278.5 432,-278.5 428.05,-279.12 431.45,-274.95 424.1,-279.74 424.1,-279.74"/>
<ellipse fill="none" stroke="black" cx="420.93" cy="-280.23" rx="3.2" ry="3.2"/>
</g>
<!-- hazard_metrics -->
<g id="node5" class="node">
<title>hazard_metrics</title>
<g id="a_node5"><a xlink:href="../../tables/hazard_metrics.html" xlink:title="hazard_metrics" target="_top">
<polygon fill="#ffffff" stroke="transparent" points="187.5,-172.5 187.5,-230.5 313.5,-230.5 313.5,-172.5 187.5,-172.5"/>
<polygon fill="#f5f5f5" stroke="transparent" points="187.5,-208.5 187.5,-230.5 313.5,-230.5 313.5,-208.5 187.5,-208.5"/>
<polygon fill="none" stroke="black" points="187.5,-208.5 187.5,-230.5 313.5,-230.5 313.5,-208.5 187.5,-208.5"/>
<text text-anchor="start" x="192.5" y="-217.7" font-family="Helvetica,sans-Serif" font-weight="bold" font-size="11.00">hazard_metrics</text>
<text text-anchor="start" x="278.5" y="-216.7" font-family="Helvetica,sans-Serif" font-size="11.00">[table]</text>
<polygon fill="none" stroke="black" points="187.5,-190.5 187.5,-208.5 313.5,-208.5 313.5,-190.5 187.5,-190.5"/>
<text text-anchor="start" x="190.5" y="-196.7" font-family="Helvetica,sans-Serif" font-size="11.00">...</text>
<polygon fill="#ffffff" stroke="transparent" points="187.5,-172.5 187.5,-190.5 227.5,-190.5 227.5,-172.5 187.5,-172.5"/>
<polygon fill="none" stroke="black" points="187.5,-172.5 187.5,-190.5 227.5,-190.5 227.5,-172.5 187.5,-172.5"/>
<text text-anchor="start" x="190.5" y="-178.7" font-family="Helvetica,sans-Serif" font-size="11.00">&lt; 1</text>
<polygon fill="#ffffff" stroke="transparent" points="227.5,-172.5 227.5,-190.5 282.5,-190.5 282.5,-172.5 227.5,-172.5"/>
<polygon fill="none" stroke="black" points="227.5,-172.5 227.5,-190.5 282.5,-190.5 282.5,-172.5 227.5,-172.5"/>
<text text-anchor="start" x="239.5" y="-178.7" font-family="Helvetica,sans-Serif" font-size="11.00">15 rows</text>
<polygon fill="#ffffff" stroke="transparent" points="282.5,-172.5 282.5,-190.5 313.5,-190.5 313.5,-172.5 282.5,-172.5"/>
<polygon fill="none" stroke="black" points="282.5,-172.5 282.5,-190.5 313.5,-190.5 313.5,-172.5 282.5,-172.5"/>
<text text-anchor="start" x="294.5" y="-178.7" font-family="Helvetica,sans-Serif" font-size="11.00">3 &gt;</text>
</a>
</g>
</g>
<!-- aggregate_risks&#45;&gt;hazard_metrics -->
<g id="edge3" class="edge">
<title>aggregate_risks:w&#45;&gt;hazard_metrics:e</title>
<path fill="none" stroke="black" d="M417.57,-276.93C369.97,-265.79 372.14,-199.5 314.5,-199.5"/>
<polygon fill="black" stroke="black" points="424.05,-277.63 431.61,-282.08 428.02,-278.07 432,-278.5 432,-278.5 432,-278.5 428.02,-278.07 432.39,-274.92 424.05,-277.63 424.05,-277.63"/>
<ellipse fill="none" stroke="black" cx="420.87" cy="-277.29" rx="3.2" ry="3.2"/>
</g>
<!-- hazard_metrics&#45;&gt;risk_factors -->
<g id="edge12" class="edge">
<title>hazard_metrics:w&#45;&gt;risk_factors:e</title>
<path fill="none" stroke="black" d="M172.1,-202.62C148.56,-214.25 150.35,-254.5 116.5,-254.5"/>
<polygon fill="black" stroke="black" points="178.68,-201.2 187.26,-203.02 182.59,-200.35 186.5,-199.5 186.5,-199.5 186.5,-199.5 182.59,-200.35 185.74,-195.98 178.68,-201.2 178.68,-201.2"/>
<ellipse fill="none" stroke="black" cx="175.55" cy="-201.87" rx="3.2" ry="3.2"/>
</g>
<!-- asset_types_impact_functions -->
<g id="node6" class="node">
<title>asset_types_impact_functions</title>
<g id="a_node6"><a xlink:href="../../tables/asset_types_impact_functions.html" xlink:title="asset_types_impact_functions" target="_top">
<polygon fill="#ffffff" stroke="transparent" points="659,-67.5 659,-125.5 863,-125.5 863,-67.5 659,-67.5"/>
<polygon fill="#f5f5f5" stroke="transparent" points="659,-103.5 659,-125.5 863,-125.5 863,-103.5 659,-103.5"/>
<polygon fill="none" stroke="black" points="659,-103.5 659,-125.5 863,-125.5 863,-103.5 659,-103.5"/>
<text text-anchor="start" x="664" y="-112.7" font-family="Helvetica,sans-Serif" font-weight="bold" font-size="11.00">asset_types_impact_functions</text>
<text text-anchor="start" x="828" y="-111.7" font-family="Helvetica,sans-Serif" font-size="11.00">[table]</text>
<polygon fill="none" stroke="black" points="659,-85.5 659,-103.5 863,-103.5 863,-85.5 659,-85.5"/>
<text text-anchor="start" x="662" y="-91.7" font-family="Helvetica,sans-Serif" font-size="11.00">...</text>
<polygon fill="#ffffff" stroke="transparent" points="659,-67.5 659,-85.5 739,-85.5 739,-67.5 659,-67.5"/>
<polygon fill="none" stroke="black" points="659,-67.5 659,-85.5 739,-85.5 739,-67.5 659,-67.5"/>
<text text-anchor="start" x="662" y="-73.7" font-family="Helvetica,sans-Serif" font-size="11.00">&lt; 3</text>
<polygon fill="#ffffff" stroke="transparent" points="739,-67.5 739,-85.5 820,-85.5 820,-67.5 739,-67.5"/>
<polygon fill="none" stroke="black" points="739,-67.5 739,-85.5 820,-85.5 820,-67.5 739,-67.5"/>
<text text-anchor="start" x="771" y="-73.7" font-family="Helvetica,sans-Serif" font-size="11.00">625 rows</text>
<polygon fill="#ffffff" stroke="transparent" points="820,-67.5 820,-85.5 863,-85.5 863,-67.5 820,-67.5"/>
<polygon fill="none" stroke="black" points="820,-67.5 820,-85.5 863,-85.5 863,-67.5 820,-67.5"/>
<text text-anchor="start" x="853" y="-73.7" font-family="Helvetica,sans-Serif" font-size="11.00"> &#160;</text>
</a>
</g>
</g>
<!-- asset_types_impact_functions&#45;&gt;risk_factors -->
<g id="edge7" class="edge">
<title>asset_types_impact_functions:w&#45;&gt;risk_factors:e</title>
<path fill="none" stroke="black" d="M643.64,-92.06C635.78,-89.11 630.34,-84.31 618,-82.5 414.47,-52.63 311.43,24.25 156,-110.5 105.86,-153.98 182.86,-254.5 116.5,-254.5"/>
<polygon fill="black" stroke="black" points="650.11,-93.16 657.4,-98.05 654.06,-93.83 658,-94.5 658,-94.5 658,-94.5 654.06,-93.83 658.6,-90.95 650.11,-93.16 650.11,-93.16"/>
<ellipse fill="none" stroke="black" cx="646.96" cy="-92.62" rx="3.2" ry="3.2"/>
</g>
<!-- impact_functions -->
<g id="node7" class="node">
<title>impact_functions</title>
<g id="a_node7"><a xlink:href="../../tables/impact_functions.html" xlink:title="impact_functions" target="_top">
<polygon fill="#ffffff" stroke="transparent" points="430.5,-93.5 430.5,-151.5 565.5,-151.5 565.5,-93.5 430.5,-93.5"/>
<polygon fill="#f5f5f5" stroke="transparent" points="431,-129.5 431,-151.5 566,-151.5 566,-129.5 431,-129.5"/>
<polygon fill="none" stroke="black" points="431,-129.5 431,-151.5 566,-151.5 566,-129.5 431,-129.5"/>
<text text-anchor="start" x="436" y="-138.7" font-family="Helvetica,sans-Serif" font-weight="bold" font-size="11.00">impact_functions</text>
<text text-anchor="start" x="531" y="-137.7" font-family="Helvetica,sans-Serif" font-size="11.00">[table]</text>
<polygon fill="none" stroke="black" points="431,-111.5 431,-129.5 566,-129.5 566,-111.5 431,-111.5"/>
<text text-anchor="start" x="434" y="-117.7" font-family="Helvetica,sans-Serif" font-size="11.00">...</text>
<polygon fill="#ffffff" stroke="transparent" points="431,-93.5 431,-111.5 468,-111.5 468,-93.5 431,-93.5"/>
<polygon fill="none" stroke="black" points="431,-93.5 431,-111.5 468,-111.5 468,-93.5 431,-93.5"/>
<text text-anchor="start" x="434" y="-99.7" font-family="Helvetica,sans-Serif" font-size="11.00">&lt; 2</text>
<polygon fill="#ffffff" stroke="transparent" points="468,-93.5 468,-111.5 536,-111.5 536,-93.5 468,-93.5"/>
<polygon fill="none" stroke="black" points="468,-93.5 468,-111.5 536,-111.5 536,-93.5 468,-93.5"/>
<text text-anchor="start" x="478" y="-99.7" font-family="Helvetica,sans-Serif" font-size="11.00">3,261 rows</text>
<polygon fill="#ffffff" stroke="transparent" points="536,-93.5 536,-111.5 566,-111.5 566,-93.5 536,-93.5"/>
<polygon fill="none" stroke="black" points="536,-93.5 536,-111.5 566,-111.5 566,-93.5 536,-93.5"/>
<text text-anchor="start" x="547" y="-99.7" font-family="Helvetica,sans-Serif" font-size="11.00">2 &gt;</text>
</a>
</g>
</g>
<!-- asset_types_impact_functions&#45;&gt;impact_functions -->
<g id="edge6" class="edge">
<title>asset_types_impact_functions:w&#45;&gt;impact_functions:e</title>
<path fill="none" stroke="black" d="M643.34,-95.69C613.58,-100.77 603.64,-120.5 567,-120.5"/>
<polygon fill="black" stroke="black" points="650.03,-95.15 658.29,-98.09 654.01,-94.83 658,-94.5 658,-94.5 658,-94.5 654.01,-94.83 657.71,-90.92 650.03,-95.15 650.03,-95.15"/>
<ellipse fill="none" stroke="black" cx="646.84" cy="-95.41" rx="3.2" ry="3.2"/>
</g>
<!-- impact_functions&#45;&gt;risk_factors -->
<g id="edge14" class="edge">
<title>impact_functions:w&#45;&gt;risk_factors:e</title>
<path fill="none" stroke="black" d="M415.54,-120.35C302.51,-117.93 249.46,-89.14 156,-161.5 120.49,-189 161.41,-254.5 116.5,-254.5"/>
<polygon fill="black" stroke="black" points="422,-120.42 429.96,-124.1 426,-120.46 430,-120.5 430,-120.5 430,-120.5 426,-120.46 430.04,-116.9 422,-120.42 422,-120.42"/>
<ellipse fill="none" stroke="black" cx="418.8" cy="-120.38" rx="3.2" ry="3.2"/>
</g>
<!-- impact_functions&#45;&gt;hazard_metrics -->
<g id="edge13" class="edge">
<title>impact_functions:w&#45;&gt;hazard_metrics:e</title>
<path fill="none" stroke="black" d="M415.45,-122.15C368.81,-133.5 371.35,-199.5 314.5,-199.5"/>
<polygon fill="black" stroke="black" points="422.05,-121.41 430.41,-124.08 426.03,-120.95 430,-120.5 430,-120.5 430,-120.5 426.03,-120.95 429.59,-116.93 422.05,-121.41 422.05,-121.41"/>
<ellipse fill="none" stroke="black" cx="418.87" cy="-121.77" rx="3.2" ry="3.2"/>
</g>
<!-- assets_impact_functions -->
<g id="node8" class="node">
<title>assets_impact_functions</title>
<g id="a_node8"><a xlink:href="../../tables/assets_impact_functions.html" xlink:title="assets_impact_functions" target="_top">
<polygon fill="#ffffff" stroke="transparent" points="673.5,-431.5 673.5,-489.5 848.5,-489.5 848.5,-431.5 673.5,-431.5"/>
<polygon fill="#f5f5f5" stroke="transparent" points="674,-467.5 674,-489.5 849,-489.5 849,-467.5 674,-467.5"/>
<polygon fill="none" stroke="black" points="674,-467.5 674,-489.5 849,-489.5 849,-467.5 674,-467.5"/>
<text text-anchor="start" x="679" y="-476.7" font-family="Helvetica,sans-Serif" font-weight="bold" font-size="11.00">assets_impact_functions</text>
<text text-anchor="start" x="814" y="-475.7" font-family="Helvetica,sans-Serif" font-size="11.00">[table]</text>
<polygon fill="none" stroke="black" points="674,-449.5 674,-467.5 849,-467.5 849,-449.5 674,-449.5"/>
<text text-anchor="start" x="677" y="-455.7" font-family="Helvetica,sans-Serif" font-size="11.00">...</text>
<polygon fill="#ffffff" stroke="transparent" points="674,-431.5 674,-449.5 729,-449.5 729,-431.5 674,-431.5"/>
<polygon fill="none" stroke="black" points="674,-431.5 674,-449.5 729,-449.5 729,-431.5 674,-431.5"/>
<text text-anchor="start" x="677" y="-437.7" font-family="Helvetica,sans-Serif" font-size="11.00">&lt; 3</text>
<polygon fill="#ffffff" stroke="transparent" points="729,-431.5 729,-449.5 819,-449.5 819,-431.5 729,-431.5"/>
<polygon fill="none" stroke="black" points="729,-431.5 729,-449.5 819,-449.5 819,-431.5 729,-431.5"/>
<text text-anchor="start" x="749" y="-437.7" font-family="Helvetica,sans-Serif" font-size="11.00">654,369 rows</text>
<polygon fill="#ffffff" stroke="transparent" points="819,-431.5 819,-449.5 849,-449.5 849,-431.5 819,-431.5"/>
<polygon fill="none" stroke="black" points="819,-431.5 819,-449.5 849,-449.5 849,-431.5 819,-431.5"/>
<text text-anchor="start" x="839" y="-437.7" font-family="Helvetica,sans-Serif" font-size="11.00"> &#160;</text>
</a>
</g>
</g>
<!-- assets_impact_functions&#45;&gt;risk_factors -->
<g id="edge9" class="edge">
<title>assets_impact_functions:w&#45;&gt;risk_factors:e</title>
<path fill="none" stroke="black" d="M658.52,-459.69C573.53,-475.23 701.84,-639.22 618,-706.5 534.81,-773.27 477.29,-745.47 378,-706.5 252.7,-657.33 219.46,-619.2 156,-500.5 129.89,-451.68 171.87,-254.5 116.5,-254.5"/>
<polygon fill="black" stroke="black" points="665.03,-459.16 673.29,-462.09 669.01,-458.83 673,-458.5 673,-458.5 673,-458.5 669.01,-458.83 672.71,-454.92 665.03,-459.16 665.03,-459.16"/>
<ellipse fill="none" stroke="black" cx="661.84" cy="-459.42" rx="3.2" ry="3.2"/>
</g>
<!-- assets_impact_functions&#45;&gt;impact_functions -->
<g id="edge8" class="edge">
<title>assets_impact_functions:w&#45;&gt;impact_functions:e</title>
<path fill="none" stroke="black" d="M658.96,-454.11C612.81,-421.33 649.66,-214.52 618,-161.5 603.09,-136.53 596.08,-120.5 567,-120.5"/>
<polygon fill="black" stroke="black" points="665.36,-456.12 671.93,-461.94 669.18,-457.31 673,-458.5 673,-458.5 673,-458.5 669.18,-457.31 674.07,-455.07 665.36,-456.12 665.36,-456.12"/>
<ellipse fill="none" stroke="black" cx="662.31" cy="-455.16" rx="3.2" ry="3.2"/>
</g>
<!-- decadal_states -->
<g id="node9" class="node">
<title>decadal_states</title>
<g id="a_node9"><a xlink:href="../../tables/decadal_states.html" xlink:title="decadal_states" target="_top">
<polygon fill="#ffffff" stroke="transparent" points="436,-172.5 436,-230.5 560,-230.5 560,-172.5 436,-172.5"/>
<polygon fill="#f5f5f5" stroke="transparent" points="436,-208.5 436,-230.5 560,-230.5 560,-208.5 436,-208.5"/>
<polygon fill="none" stroke="black" points="436,-208.5 436,-230.5 560,-230.5 560,-208.5 436,-208.5"/>
<text text-anchor="start" x="441" y="-217.7" font-family="Helvetica,sans-Serif" font-weight="bold" font-size="11.00">decadal_states</text>
<text text-anchor="start" x="525" y="-216.7" font-family="Helvetica,sans-Serif" font-size="11.00">[table]</text>
<polygon fill="none" stroke="black" points="436,-190.5 436,-208.5 560,-208.5 560,-190.5 436,-190.5"/>
<text text-anchor="start" x="439" y="-196.7" font-family="Helvetica,sans-Serif" font-size="11.00">...</text>
<polygon fill="#ffffff" stroke="transparent" points="436,-172.5 436,-190.5 461,-190.5 461,-172.5 436,-172.5"/>
<polygon fill="none" stroke="black" points="436,-172.5 436,-190.5 461,-190.5 461,-172.5 436,-172.5"/>
<text text-anchor="start" x="439" y="-178.7" font-family="Helvetica,sans-Serif" font-size="11.00">&lt; 3</text>
<polygon fill="#ffffff" stroke="transparent" points="461,-172.5 461,-190.5 545,-190.5 545,-172.5 461,-172.5"/>
<polygon fill="none" stroke="black" points="461,-172.5 461,-190.5 545,-190.5 545,-172.5 461,-172.5"/>
<text text-anchor="start" x="466" y="-178.7" font-family="Helvetica,sans-Serif" font-size="11.00">7,749,532 rows</text>
<polygon fill="#ffffff" stroke="transparent" points="545,-172.5 545,-190.5 560,-190.5 560,-172.5 545,-172.5"/>
<polygon fill="none" stroke="black" points="545,-172.5 545,-190.5 560,-190.5 560,-172.5 545,-172.5"/>
<text text-anchor="start" x="550" y="-178.7" font-family="Helvetica,sans-Serif" font-size="11.00"> &#160;</text>
</a>
</g>
</g>
<!-- decadal_states&#45;&gt;scenarios -->
<g id="edge11" class="edge">
<title>decadal_states:w&#45;&gt;scenarios:e</title>
<path fill="none" stroke="black" d="M420.57,-201.06C401.05,-205.86 394.22,-221.27 378,-241.5 339.11,-290.02 383.68,-369.5 321.5,-369.5"/>
<polygon fill="black" stroke="black" points="427.05,-200.36 435.39,-203.08 431.02,-199.93 435,-199.5 435,-199.5 435,-199.5 431.02,-199.93 434.61,-195.92 427.05,-200.36 427.05,-200.36"/>
<ellipse fill="none" stroke="black" cx="423.86" cy="-200.71" rx="3.2" ry="3.2"/>
</g>
<!-- decadal_states&#45;&gt;hazard_metrics -->
<g id="edge10" class="edge">
<title>decadal_states:w&#45;&gt;hazard_metrics:e</title>
<path fill="none" stroke="black" d="M420.38,-199.5C378.45,-199.5 362.83,-199.5 314.5,-199.5"/>
<polygon fill="black" stroke="black" points="427,-199.5 435,-203.1 431,-199.5 435,-199.5 435,-199.5 435,-199.5 431,-199.5 435,-195.9 427,-199.5 427,-199.5"/>
<ellipse fill="none" stroke="black" cx="423.8" cy="-199.5" rx="3.2" ry="3.2"/>
</g>
<!-- rf_category_risk_factors -->
<g id="node10" class="node">
<title>rf_category_risk_factors</title>
<g id="a_node10"><a xlink:href="../../tables/rf_category_risk_factors.html" xlink:title="rf_category_risk_factors" target="_top">
<polygon fill="#ffffff" stroke="transparent" points="164,-743.5 164,-801.5 337,-801.5 337,-743.5 164,-743.5"/>
<polygon fill="#f5f5f5" stroke="transparent" points="164.5,-779.5 164.5,-801.5 337.5,-801.5 337.5,-779.5 164.5,-779.5"/>
<polygon fill="none" stroke="black" points="164.5,-779.5 164.5,-801.5 337.5,-801.5 337.5,-779.5 164.5,-779.5"/>
<text text-anchor="start" x="169.5" y="-788.7" font-family="Helvetica,sans-Serif" font-weight="bold" font-size="11.00">rf_category_risk_factors</text>
<text text-anchor="start" x="302.5" y="-787.7" font-family="Helvetica,sans-Serif" font-size="11.00">[table]</text>
<polygon fill="none" stroke="black" points="164.5,-761.5 164.5,-779.5 337.5,-779.5 337.5,-761.5 164.5,-761.5"/>
<text text-anchor="start" x="167.5" y="-767.7" font-family="Helvetica,sans-Serif" font-size="11.00">...</text>
<polygon fill="#ffffff" stroke="transparent" points="164.5,-743.5 164.5,-761.5 232.5,-761.5 232.5,-743.5 164.5,-743.5"/>
<polygon fill="none" stroke="black" points="164.5,-743.5 164.5,-761.5 232.5,-761.5 232.5,-743.5 164.5,-743.5"/>
<text text-anchor="start" x="167.5" y="-749.7" font-family="Helvetica,sans-Serif" font-size="11.00">&lt; 2</text>
<polygon fill="#ffffff" stroke="transparent" points="232.5,-743.5 232.5,-761.5 301.5,-761.5 301.5,-743.5 232.5,-743.5"/>
<polygon fill="none" stroke="black" points="232.5,-743.5 232.5,-761.5 301.5,-761.5 301.5,-743.5 232.5,-743.5"/>
<text text-anchor="start" x="258.5" y="-749.7" font-family="Helvetica,sans-Serif" font-size="11.00">17 rows</text>
<polygon fill="#ffffff" stroke="transparent" points="301.5,-743.5 301.5,-761.5 337.5,-761.5 337.5,-743.5 301.5,-743.5"/>
<polygon fill="none" stroke="black" points="301.5,-743.5 301.5,-761.5 337.5,-761.5 337.5,-743.5 301.5,-743.5"/>
<text text-anchor="start" x="327.5" y="-749.7" font-family="Helvetica,sans-Serif" font-size="11.00"> &#160;</text>
</a>
</g>
</g>
<!-- rf_category_risk_factors&#45;&gt;risk_factors -->
<g id="edge15" class="edge">
<title>rf_category_risk_factors:w&#45;&gt;risk_factors:e</title>
<path fill="none" stroke="black" d="M152.19,-761.55C115.81,-693.03 169.57,-254.5 116.5,-254.5"/>
<polygon fill="black" stroke="black" points="157.23,-765.54 161.27,-773.33 160.36,-768.02 163.5,-770.5 163.5,-770.5 163.5,-770.5 160.36,-768.02 165.73,-767.68 157.23,-765.54 157.23,-765.54"/>
<ellipse fill="none" stroke="black" cx="154.72" cy="-763.55" rx="3.2" ry="3.2"/>
</g>
<!-- risks -->
<g id="node11" class="node">
<title>risks</title>
<g id="a_node11"><a xlink:href="../../tables/risks.html" xlink:title="risks" target="_top">
<polygon fill="#ffffff" stroke="transparent" points="436.5,-330.5 436.5,-388.5 559.5,-388.5 559.5,-330.5 436.5,-330.5"/>
<polygon fill="#f5f5f5" stroke="transparent" points="437,-366.5 437,-388.5 560,-388.5 560,-366.5 437,-366.5"/>
<polygon fill="none" stroke="black" points="437,-366.5 437,-388.5 560,-388.5 560,-366.5 437,-366.5"/>
<text text-anchor="start" x="442" y="-375.7" font-family="Helvetica,sans-Serif" font-weight="bold" font-size="11.00">risks</text>
<text text-anchor="start" x="525" y="-374.7" font-family="Helvetica,sans-Serif" font-size="11.00">[table]</text>
<polygon fill="none" stroke="black" points="437,-348.5 437,-366.5 560,-366.5 560,-348.5 437,-348.5"/>
<text text-anchor="start" x="440" y="-354.7" font-family="Helvetica,sans-Serif" font-size="11.00">...</text>
<polygon fill="#ffffff" stroke="transparent" points="437,-330.5 437,-348.5 459,-348.5 459,-330.5 437,-330.5"/>
<polygon fill="none" stroke="black" points="437,-330.5 437,-348.5 459,-348.5 459,-330.5 437,-330.5"/>
<text text-anchor="start" x="440" y="-336.7" font-family="Helvetica,sans-Serif" font-size="11.00">&lt; 3</text>
<polygon fill="#ffffff" stroke="transparent" points="459,-330.5 459,-348.5 547,-348.5 547,-330.5 459,-330.5"/>
<polygon fill="none" stroke="black" points="459,-330.5 459,-348.5 547,-348.5 547,-330.5 459,-330.5"/>
<text text-anchor="start" x="462" y="-336.7" font-family="Helvetica,sans-Serif" font-size="11.00">28,657,312 rows</text>
<polygon fill="#ffffff" stroke="transparent" points="547,-330.5 547,-348.5 560,-348.5 560,-330.5 547,-330.5"/>
<polygon fill="none" stroke="black" points="547,-330.5 547,-348.5 560,-348.5 560,-330.5 547,-330.5"/>
<text text-anchor="start" x="550" y="-336.7" font-family="Helvetica,sans-Serif" font-size="11.00"> &#160;</text>
</a>
</g>
</g>
<!-- risks&#45;&gt;scenarios -->
<g id="edge16" class="edge">
<title>risks:w&#45;&gt;scenarios:e</title>
<path fill="none" stroke="black" d="M421.54,-357.85C381.96,-359.82 367.47,-369.5 321.5,-369.5"/>
<polygon fill="black" stroke="black" points="428,-357.69 436.09,-361.1 432,-357.6 436,-357.5 436,-357.5 436,-357.5 432,-357.6 435.91,-353.9 428,-357.69 428,-357.69"/>
<ellipse fill="none" stroke="black" cx="424.8" cy="-357.77" rx="3.2" ry="3.2"/>
</g>
</g>
</svg>
