<?xml version="1.0" encoding="UTF-8" standalone="no"?>
<!DOCTYPE svg PUBLIC "-//W3C//DTD SVG 1.1//EN"
 "http://www.w3.org/Graphics/SVG/1.1/DTD/svg11.dtd">
<!-- Generated by graphviz version 2.50.0 (20211204.2007)
 -->
<!-- Title: oneDegreeRelationshipsDiagram Pages: 1 -->
<svg width="436pt" height="335pt"
 viewBox="0.00 0.00 436.00 335.00" xmlns="http://www.w3.org/2000/svg" xmlns:xlink="http://www.w3.org/1999/xlink">
<g id="graph0" class="graph" transform="scale(1 1) rotate(0) translate(4 331)">
<title>oneDegreeRelationshipsDiagram</title>
<polygon fill="#ffffff" stroke="transparent" points="-4,4 -4,-331 432,-331 432,4 -4,4"/>
<text text-anchor="middle" x="72.5" y="-7.2" font-family="Helvetica,sans-Serif" font-size="11.00">Generated by SchemaSpy</text>
<!-- aggregate_impacts -->
<g id="node1" class="node">
<title>aggregate_impacts</title>
<g id="a_node1"><a xlink:href="../../tables/aggregate_impacts.html" xlink:title="aggregate_impacts" target="_top">
<polygon fill="#ffffff" stroke="transparent" points="196,-37 196,-323 420,-323 420,-37 196,-37"/>
<polygon fill="#f5f5f5" stroke="transparent" points="198,-299 198,-321 418,-321 418,-299 198,-299"/>
<polygon fill="none" stroke="black" points="198,-299 198,-321 418,-321 418,-299 198,-299"/>
<text text-anchor="start" x="203" y="-308.2" font-family="Helvetica,sans-Serif" font-weight="bold" font-size="11.00">aggregate_impacts</text>
<text text-anchor="start" x="383" y="-307.2" font-family="Helvetica,sans-Serif" font-size="11.00">[table]</text>
<polygon fill="none" stroke="black" points="198,-277 198,-299 328,-299 328,-277 198,-277"/>
<image xlink:href="../../images/primaryKeys.png" width="11px" height="12px" preserveAspectRatio="xMinYMin meet" x="203" y="-294"/>
<text text-anchor="start" x="218" y="-285.2" font-family="Helvetica,sans-Serif" font-size="11.00">id</text>
<polygon fill="none" stroke="black" points="328,-277 328,-299 418,-299 418,-277 328,-277"/>
<text text-anchor="start" x="331" y="-285.2" font-family="Helvetica,sans-Serif" font-size="11.00">bigserial[19]</text>
<polygon fill="#ffffff" stroke="transparent" points="198,-255 198,-277 328,-277 328,-255 198,-255"/>
<polygon fill="none" stroke="black" points="198,-255 198,-277 328,-277 328,-255 198,-255"/>
<text text-anchor="start" x="218" y="-263.2" font-family="Helvetica,sans-Serif" font-size="11.00">aggregate_level</text>
<polygon fill="none" stroke="black" points="328,-255 328,-277 418,-277 418,-255 328,-255"/>
<text text-anchor="start" x="331" y="-263.2" font-family="Helvetica,sans-Serif" font-size="11.00">int4[10]</text>
<polygon fill="#ffffff" stroke="transparent" points="198,-233 198,-255 328,-255 328,-233 198,-233"/>
<polygon fill="none" stroke="black" points="198,-233 198,-255 328,-255 328,-233 198,-233"/>
<text text-anchor="start" x="218" y="-241.2" font-family="Helvetica,sans-Serif" font-size="11.00">entity_id</text>
<polygon fill="none" stroke="black" points="328,-233 328,-255 418,-255 418,-233 328,-233"/>
<text text-anchor="start" x="331" y="-241.2" font-family="Helvetica,sans-Serif" font-size="11.00">int4[10]</text>
<polygon fill="#ffffff" stroke="transparent" points="198,-211 198,-233 328,-233 328,-211 198,-211"/>
<polygon fill="none" stroke="black" points="198,-211 198,-233 328,-233 328,-211 198,-211"/>
<text text-anchor="start" x="218" y="-219.2" font-family="Helvetica,sans-Serif" font-size="11.00">tags_hash_md5</text>
<polygon fill="none" stroke="black" points="328,-211 328,-233 418,-233 418,-211 328,-211"/>
<text text-anchor="start" x="331" y="-219.2" font-family="Helvetica,sans-Serif" font-size="11.00">text[2147483647]</text>
<polygon fill="#ffffff" stroke="transparent" points="198,-189 198,-211 328,-211 328,-189 198,-189"/>
<polygon fill="none" stroke="black" points="198,-189 198,-211 328,-211 328,-189 198,-189"/>
<image xlink:href="../../images/foreignKeys.png" width="11px" height="12px" preserveAspectRatio="xMinYMin meet" x="203" y="-206"/>
<text text-anchor="start" x="218" y="-197.2" font-family="Helvetica,sans-Serif" font-size="11.00">risk_factor_id</text>
<polygon fill="none" stroke="black" points="328,-189 328,-211 418,-211 418,-189 328,-189"/>
<text text-anchor="start" x="331" y="-197.2" font-family="Helvetica,sans-Serif" font-size="11.00">int4[10]</text>
<polygon fill="#ffffff" stroke="transparent" points="198,-167 198,-189 328,-189 328,-167 198,-167"/>
<polygon fill="none" stroke="black" points="198,-167 198,-189 328,-189 328,-167 198,-167"/>
<image xlink:href="../../images/foreignKeys.png" width="11px" height="12px" preserveAspectRatio="xMinYMin meet" x="203" y="-184"/>
<text text-anchor="start" x="218" y="-175.2" font-family="Helvetica,sans-Serif" font-size="11.00">scenario_id</text>
<polygon fill="none" stroke="black" points="328,-167 328,-189 418,-189 418,-167 328,-167"/>
<text text-anchor="start" x="331" y="-175.2" font-family="Helvetica,sans-Serif" font-size="11.00">int4[10]</text>
<polygon fill="#ffffff" stroke="transparent" points="198,-145 198,-167 328,-167 328,-145 198,-145"/>
<polygon fill="none" stroke="black" points="198,-145 198,-167 328,-167 328,-145 198,-145"/>
<text text-anchor="start" x="218" y="-153.2" font-family="Helvetica,sans-Serif" font-size="11.00">yr</text>
<polygon fill="none" stroke="black" points="328,-145 328,-167 418,-167 418,-145 328,-145"/>
<text text-anchor="start" x="331" y="-153.2" font-family="Helvetica,sans-Serif" font-size="11.00">int4[10]</text>
<polygon fill="none" stroke="black" points="198,-123 198,-145 328,-145 328,-123 198,-123"/>
<text text-anchor="start" x="218" y="-131.2" font-family="Helvetica,sans-Serif" font-size="11.00">impact_abs</text>
<polygon fill="none" stroke="black" points="328,-123 328,-145 418,-145 418,-123 328,-123"/>
<text text-anchor="start" x="331" y="-131.2" font-family="Helvetica,sans-Serif" font-size="11.00">float8[17,17]</text>
<polygon fill="none" stroke="black" points="198,-101 198,-123 328,-123 328,-101 198,-101"/>
<text text-anchor="start" x="218" y="-109.2" font-family="Helvetica,sans-Serif" font-size="11.00">created_at</text>
<polygon fill="none" stroke="black" points="328,-101 328,-123 418,-123 418,-101 328,-101"/>
<text text-anchor="start" x="331" y="-109.2" font-family="Helvetica,sans-Serif" font-size="11.00">timestamp[29,6]</text>
<polygon fill="none" stroke="black" points="198,-79 198,-101 328,-101 328,-79 198,-79"/>
<text text-anchor="start" x="218" y="-87.2" font-family="Helvetica,sans-Serif" font-size="11.00">updated_at</text>
<polygon fill="none" stroke="black" points="328,-79 328,-101 418,-101 418,-79 328,-79"/>
<text text-anchor="start" x="331" y="-87.2" font-family="Helvetica,sans-Serif" font-size="11.00">timestamp[29,6]</text>
<polygon fill="none" stroke="black" points="198,-57 198,-79 328,-79 328,-57 198,-57"/>
<text text-anchor="start" x="218" y="-65.2" font-family="Helvetica,sans-Serif" font-size="11.00">batch_id</text>
<polygon fill="none" stroke="black" points="328,-57 328,-79 418,-79 418,-57 328,-57"/>
<text text-anchor="start" x="331" y="-65.2" font-family="Helvetica,sans-Serif" font-size="11.00">text[2147483647]</text>
<polygon fill="#ffffff" stroke="transparent" points="198,-39 198,-57 233,-57 233,-39 198,-39"/>
<polygon fill="none" stroke="black" points="198,-39 198,-57 233,-57 233,-39 198,-39"/>
<text text-anchor="start" x="201" y="-45.2" font-family="Helvetica,sans-Serif" font-size="11.00">&lt; 2</text>
<polygon fill="#ffffff" stroke="transparent" points="233,-39 233,-57 328,-57 328,-39 233,-39"/>
<polygon fill="none" stroke="black" points="233,-39 233,-57 328,-57 328,-39 233,-39"/>
<text text-anchor="start" x="249" y="-45.2" font-family="Helvetica,sans-Serif" font-size="11.00">7,901,926 rows</text>
<polygon fill="#ffffff" stroke="transparent" points="328,-39 328,-57 418,-57 418,-39 328,-39"/>
<polygon fill="none" stroke="black" points="328,-39 328,-57 418,-57 418,-39 328,-39"/>
<text text-anchor="start" x="399" y="-45.2" font-family="Helvetica,sans-Serif" font-size="11.00">0 &gt;</text>
<polygon fill="none" stroke="black" stroke-width="2" points="197,-38 197,-322 419,-322 419,-38 197,-38"/>
</a>
</g>
</g>
<!-- risk_factors -->
<g id="node2" class="node">
<title>risk_factors</title>
<g id="a_node2"><a xlink:href="../../tables/risk_factors.html" xlink:title="risk_factors" target="_top">
<polygon fill="#ffffff" stroke="transparent" points="24,-182 24,-284 131,-284 131,-182 24,-182"/>
<polygon fill="#f5f5f5" stroke="transparent" points="24.5,-262 24.5,-284 131.5,-284 131.5,-262 24.5,-262"/>
<polygon fill="none" stroke="black" points="24.5,-262 24.5,-284 131.5,-284 131.5,-262 24.5,-262"/>
<text text-anchor="start" x="29.5" y="-271.2" font-family="Helvetica,sans-Serif" font-weight="bold" font-size="11.00">risk_factors</text>
<text text-anchor="start" x="96.5" y="-270.2" font-family="Helvetica,sans-Serif" font-size="11.00">[table]</text>
<polygon fill="none" stroke="black" points="24.5,-240 24.5,-262 131.5,-262 131.5,-240 24.5,-240"/>
<image xlink:href="../../images/primaryKeys.png" width="11px" height="12px" preserveAspectRatio="xMinYMin meet" x="29.5" y="-257"/>
<text text-anchor="start" x="53.5" y="-248.2" font-family="Helvetica,sans-Serif" font-size="11.00">id</text>
<polygon fill="#ffffff" stroke="transparent" points="24.5,-218 24.5,-240 131.5,-240 131.5,-218 24.5,-218"/>
<polygon fill="none" stroke="black" points="24.5,-218 24.5,-240 131.5,-240 131.5,-218 24.5,-218"/>
<text text-anchor="start" x="53.5" y="-226.2" font-family="Helvetica,sans-Serif" font-size="11.00">name</text>
<polygon fill="none" stroke="black" points="24.5,-200 24.5,-218 131.5,-218 131.5,-200 24.5,-200"/>
<text text-anchor="start" x="27.5" y="-206.2" font-family="Helvetica,sans-Serif" font-size="11.00">...</text>
<polygon fill="#ffffff" stroke="transparent" points="24.5,-182 24.5,-200 50.5,-200 50.5,-182 24.5,-182"/>
<polygon fill="none" stroke="black" points="24.5,-182 24.5,-200 50.5,-200 50.5,-182 24.5,-182"/>
<text text-anchor="start" x="27.5" y="-188.2" font-family="Helvetica,sans-Serif" font-size="11.00"> &#160;</text>
<polygon fill="#ffffff" stroke="transparent" points="50.5,-182 50.5,-200 102.5,-200 102.5,-182 50.5,-182"/>
<polygon fill="none" stroke="black" points="50.5,-182 50.5,-200 102.5,-200 102.5,-182 50.5,-182"/>
<text text-anchor="start" x="59.5" y="-188.2" font-family="Helvetica,sans-Serif" font-size="11.00">17 rows</text>
<polygon fill="#ffffff" stroke="transparent" points="102.5,-182 102.5,-200 131.5,-200 131.5,-182 102.5,-182"/>
<polygon fill="none" stroke="black" points="102.5,-182 102.5,-200 131.5,-200 131.5,-182 102.5,-182"/>
<text text-anchor="start" x="112.5" y="-188.2" font-family="Helvetica,sans-Serif" font-size="11.00">7 &gt;</text>
</a>
</g>
</g>
<!-- aggregate_impacts&#45;&gt;risk_factors -->
<g id="edge1" class="edge">
<title>aggregate_impacts:w&#45;&gt;risk_factors:e</title>
<path fill="none" stroke="black" d="M182.83,-203.35C162.04,-214.69 163.34,-251 132.5,-251"/>
<polygon fill="black" stroke="black" points="189.21,-201.84 197.83,-203.5 193.11,-200.92 197,-200 197,-200 197,-200 193.11,-200.92 196.17,-196.5 189.21,-201.84 189.21,-201.84"/>
<ellipse fill="none" stroke="black" cx="186.1" cy="-202.57" rx="3.2" ry="3.2"/>
</g>
<!-- scenarios -->
<g id="node3" class="node">
<title>scenarios</title>
<g id="a_node3"><a xlink:href="../../tables/scenarios.html" xlink:title="scenarios" target="_top">
<polygon fill="#ffffff" stroke="transparent" points="8,-37 8,-161 147,-161 147,-37 8,-37"/>
<polygon fill="#f5f5f5" stroke="transparent" points="8.5,-139 8.5,-161 147.5,-161 147.5,-139 8.5,-139"/>
<polygon fill="none" stroke="black" points="8.5,-139 8.5,-161 147.5,-161 147.5,-139 8.5,-139"/>
<text text-anchor="start" x="13.5" y="-148.2" font-family="Helvetica,sans-Serif" font-weight="bold" font-size="11.00">scenarios</text>
<text text-anchor="start" x="112.5" y="-147.2" font-family="Helvetica,sans-Serif" font-size="11.00">[table]</text>
<polygon fill="none" stroke="black" points="8.5,-117 8.5,-139 147.5,-139 147.5,-117 8.5,-117"/>
<image xlink:href="../../images/primaryKeys.png" width="11px" height="12px" preserveAspectRatio="xMinYMin meet" x="13.5" y="-134"/>
<text text-anchor="start" x="28.5" y="-125.2" font-family="Helvetica,sans-Serif" font-size="11.00">id</text>
<polygon fill="#ffffff" stroke="transparent" points="8.5,-95 8.5,-117 147.5,-117 147.5,-95 8.5,-95"/>
<polygon fill="none" stroke="black" points="8.5,-95 8.5,-117 147.5,-117 147.5,-95 8.5,-95"/>
<text text-anchor="start" x="28.5" y="-103.2" font-family="Helvetica,sans-Serif" font-size="11.00">name</text>
<polygon fill="#ffffff" stroke="transparent" points="8.5,-73 8.5,-95 147.5,-95 147.5,-73 8.5,-73"/>
<polygon fill="none" stroke="black" points="8.5,-73 8.5,-95 147.5,-95 147.5,-73 8.5,-73"/>
<text text-anchor="start" x="28.5" y="-81.2" font-family="Helvetica,sans-Serif" font-size="11.00">name_etl</text>
<polygon fill="none" stroke="black" points="8.5,-55 8.5,-73 147.5,-73 147.5,-55 8.5,-55"/>
<text text-anchor="start" x="11.5" y="-61.2" font-family="Helvetica,sans-Serif" font-size="11.00">...</text>
<polygon fill="#ffffff" stroke="transparent" points="8.5,-37 8.5,-55 53.5,-55 53.5,-37 8.5,-37"/>
<polygon fill="none" stroke="black" points="8.5,-37 8.5,-55 53.5,-55 53.5,-37 8.5,-37"/>
<text text-anchor="start" x="11.5" y="-43.2" font-family="Helvetica,sans-Serif" font-size="11.00"> &#160;</text>
<polygon fill="#ffffff" stroke="transparent" points="53.5,-37 53.5,-55 109.5,-55 109.5,-37 53.5,-37"/>
<polygon fill="none" stroke="black" points="53.5,-37 53.5,-55 109.5,-55 109.5,-37 53.5,-37"/>
<text text-anchor="start" x="72.5" y="-43.2" font-family="Helvetica,sans-Serif" font-size="11.00">4 rows</text>
<polygon fill="#ffffff" stroke="transparent" points="109.5,-37 109.5,-55 147.5,-55 147.5,-37 109.5,-37"/>
<polygon fill="none" stroke="black" points="109.5,-37 109.5,-55 147.5,-55 147.5,-37 109.5,-37"/>
<text text-anchor="start" x="128.5" y="-43.2" font-family="Helvetica,sans-Serif" font-size="11.00">4 &gt;</text>
</a>
</g>
</g>
<!-- aggregate_impacts&#45;&gt;scenarios -->
<g id="edge2" class="edge">
<title>aggregate_impacts:w&#45;&gt;scenarios:e</title>
<path fill="none" stroke="black" d="M183.28,-173.02C169.59,-160.38 173.41,-128 148.5,-128"/>
<polygon fill="black" stroke="black" points="189.48,-175.27 195.77,-181.38 193.24,-176.64 197,-178 197,-178 197,-178 193.24,-176.64 198.23,-174.62 189.48,-175.27 189.48,-175.27"/>
<ellipse fill="none" stroke="black" cx="186.47" cy="-174.18" rx="3.2" ry="3.2"/>
</g>
</g>
</svg>
