<?xml version="1.0" encoding="UTF-8" standalone="no"?>
<!DOCTYPE svg PUBLIC "-//W3C//DTD SVG 1.1//EN"
 "http://www.w3.org/Graphics/SVG/1.1/DTD/svg11.dtd">
<!-- Generated by graphviz version 2.50.0 (20211204.2007)
 -->
<!-- Title: twoDegreesRelationshipsDiagram Pages: 1 -->
<svg width="709pt" height="287pt"
 viewBox="0.00 0.00 709.00 287.00" xmlns="http://www.w3.org/2000/svg" xmlns:xlink="http://www.w3.org/1999/xlink">
<g id="graph0" class="graph" transform="scale(1 1) rotate(0) translate(4 283)">
<title>twoDegreesRelationshipsDiagram</title>
<polygon fill="#ffffff" stroke="transparent" points="-4,4 -4,-283 705,-283 705,4 -4,4"/>
<text text-anchor="middle" x="72.5" y="-7.2" font-family="Helvetica,sans-Serif" font-size="11.00">Generated by SchemaSpy</text>
<!-- allowed_configuration_values -->
<g id="node1" class="node">
<title>allowed_configuration_values</title>
<g id="a_node1"><a xlink:href="../../tables/allowed_configuration_values.html" xlink:title="allowed_configuration_values" target="_top">
<polygon fill="#ffffff" stroke="transparent" points="178,-37 178,-169 441,-169 441,-37 178,-37"/>
<polygon fill="#f5f5f5" stroke="transparent" points="180.5,-145 180.5,-167 439.5,-167 439.5,-145 180.5,-145"/>
<polygon fill="none" stroke="black" points="180.5,-145 180.5,-167 439.5,-167 439.5,-145 180.5,-145"/>
<text text-anchor="start" x="185.5" y="-154.2" font-family="Helvetica,sans-Serif" font-weight="bold" font-size="11.00">allowed_configuration_values</text>
<text text-anchor="start" x="404.5" y="-153.2" font-family="Helvetica,sans-Serif" font-size="11.00">[table]</text>
<polygon fill="none" stroke="black" points="180.5,-123 180.5,-145 372.5,-145 372.5,-123 180.5,-123"/>
<image xlink:href="../../images/primaryKeys.png" width="11px" height="12px" preserveAspectRatio="xMinYMin meet" x="185.5" y="-140"/>
<text text-anchor="start" x="200.5" y="-131.2" font-family="Helvetica,sans-Serif" font-size="11.00">id</text>
<polygon fill="none" stroke="black" points="372.5,-123 372.5,-145 439.5,-145 439.5,-123 372.5,-123"/>
<text text-anchor="start" x="375.5" y="-131.2" font-family="Helvetica,sans-Serif" font-size="11.00">serial[10]</text>
<polygon fill="none" stroke="black" points="180.5,-101 180.5,-123 372.5,-123 372.5,-101 180.5,-101"/>
<image xlink:href="../../images/foreignKeys.png" width="11px" height="12px" preserveAspectRatio="xMinYMin meet" x="185.5" y="-118"/>
<text text-anchor="start" x="200.5" y="-109.2" font-family="Helvetica,sans-Serif" font-size="11.00">configuration_id</text>
<polygon fill="none" stroke="black" points="372.5,-101 372.5,-123 439.5,-123 439.5,-101 372.5,-101"/>
<text text-anchor="start" x="375.5" y="-109.2" font-family="Helvetica,sans-Serif" font-size="11.00">int4[10]</text>
<polygon fill="none" stroke="black" points="180.5,-79 180.5,-101 372.5,-101 372.5,-79 180.5,-79"/>
<text text-anchor="start" x="200.5" y="-87.2" font-family="Helvetica,sans-Serif" font-size="11.00">value</text>
<polygon fill="none" stroke="black" points="372.5,-79 372.5,-101 439.5,-101 439.5,-79 372.5,-79"/>
<text text-anchor="start" x="375.5" y="-87.2" font-family="Helvetica,sans-Serif" font-size="11.00">varchar[32]</text>
<polygon fill="none" stroke="black" points="180.5,-57 180.5,-79 372.5,-79 372.5,-57 180.5,-57"/>
<text text-anchor="start" x="200.5" y="-65.2" font-family="Helvetica,sans-Serif" font-size="11.00">description</text>
<polygon fill="none" stroke="black" points="372.5,-57 372.5,-79 439.5,-79 439.5,-57 372.5,-57"/>
<text text-anchor="start" x="375.5" y="-65.2" font-family="Helvetica,sans-Serif" font-size="11.00">varchar[128]</text>
<polygon fill="#ffffff" stroke="transparent" points="180.5,-39 180.5,-57 270.5,-57 270.5,-39 180.5,-39"/>
<polygon fill="none" stroke="black" points="180.5,-39 180.5,-57 270.5,-57 270.5,-39 180.5,-39"/>
<text text-anchor="start" x="183.5" y="-45.2" font-family="Helvetica,sans-Serif" font-size="11.00">&lt; 1</text>
<polygon fill="#ffffff" stroke="transparent" points="270.5,-39 270.5,-57 372.5,-57 372.5,-39 270.5,-39"/>
<polygon fill="none" stroke="black" points="270.5,-39 270.5,-57 372.5,-57 372.5,-39 270.5,-39"/>
<text text-anchor="start" x="341.5" y="-45.2" font-family="Helvetica,sans-Serif" font-size="11.00">1 row</text>
<polygon fill="#ffffff" stroke="transparent" points="372.5,-39 372.5,-57 439.5,-57 439.5,-39 372.5,-39"/>
<polygon fill="none" stroke="black" points="372.5,-39 372.5,-57 439.5,-57 439.5,-39 372.5,-39"/>
<text text-anchor="start" x="420.5" y="-45.2" font-family="Helvetica,sans-Serif" font-size="11.00">1 &gt;</text>
<polygon fill="none" stroke="black" stroke-width="2" points="179,-38 179,-168 440,-168 440,-38 179,-38"/>
</a>
</g>
</g>
<!-- configurations -->
<g id="node2" class="node">
<title>configurations</title>
<g id="a_node2"><a xlink:href="../../tables/configurations.html" xlink:title="configurations" target="_top">
<polygon fill="#ffffff" stroke="transparent" points="8,-83 8,-185 129,-185 129,-83 8,-83"/>
<polygon fill="#f5f5f5" stroke="transparent" points="8.5,-163 8.5,-185 129.5,-185 129.5,-163 8.5,-163"/>
<polygon fill="none" stroke="black" points="8.5,-163 8.5,-185 129.5,-185 129.5,-163 8.5,-163"/>
<text text-anchor="start" x="13.5" y="-172.2" font-family="Helvetica,sans-Serif" font-weight="bold" font-size="11.00">configurations</text>
<text text-anchor="start" x="94.5" y="-171.2" font-family="Helvetica,sans-Serif" font-size="11.00">[table]</text>
<polygon fill="none" stroke="black" points="8.5,-141 8.5,-163 129.5,-163 129.5,-141 8.5,-141"/>
<image xlink:href="../../images/primaryKeys.png" width="11px" height="12px" preserveAspectRatio="xMinYMin meet" x="13.5" y="-158"/>
<text text-anchor="start" x="37.5" y="-149.2" font-family="Helvetica,sans-Serif" font-size="11.00">id</text>
<polygon fill="#ffffff" stroke="transparent" points="8.5,-119 8.5,-141 129.5,-141 129.5,-119 8.5,-119"/>
<polygon fill="none" stroke="black" points="8.5,-119 8.5,-141 129.5,-141 129.5,-119 8.5,-119"/>
<text text-anchor="start" x="37.5" y="-127.2" font-family="Helvetica,sans-Serif" font-size="11.00">name</text>
<polygon fill="none" stroke="black" points="8.5,-101 8.5,-119 129.5,-119 129.5,-101 8.5,-101"/>
<text text-anchor="start" x="11.5" y="-107.2" font-family="Helvetica,sans-Serif" font-size="11.00">...</text>
<polygon fill="#ffffff" stroke="transparent" points="8.5,-83 8.5,-101 41.5,-101 41.5,-83 8.5,-83"/>
<polygon fill="none" stroke="black" points="8.5,-83 8.5,-101 41.5,-101 41.5,-83 8.5,-83"/>
<text text-anchor="start" x="11.5" y="-89.2" font-family="Helvetica,sans-Serif" font-size="11.00"> &#160;</text>
<polygon fill="#ffffff" stroke="transparent" points="41.5,-83 41.5,-101 97.5,-101 97.5,-83 41.5,-83"/>
<polygon fill="none" stroke="black" points="41.5,-83 41.5,-101 97.5,-101 97.5,-83 41.5,-83"/>
<text text-anchor="start" x="54.5" y="-89.2" font-family="Helvetica,sans-Serif" font-size="11.00">18 rows</text>
<polygon fill="#ffffff" stroke="transparent" points="97.5,-83 97.5,-101 129.5,-101 129.5,-83 97.5,-83"/>
<polygon fill="none" stroke="black" points="97.5,-83 97.5,-101 129.5,-101 129.5,-83 97.5,-83"/>
<text text-anchor="start" x="110.5" y="-89.2" font-family="Helvetica,sans-Serif" font-size="11.00">2 &gt;</text>
</a>
</g>
</g>
<!-- allowed_configuration_values&#45;&gt;configurations -->
<g id="edge1" class="edge">
<title>allowed_configuration_values:w&#45;&gt;configurations:e</title>
<path fill="none" stroke="black" d="M165.76,-116.59C152.86,-127.1 152.68,-152 130.5,-152"/>
<polygon fill="black" stroke="black" points="171.91,-114.53 180.64,-115.41 175.71,-113.27 179.5,-112 179.5,-112 179.5,-112 175.71,-113.27 178.36,-108.59 171.91,-114.53 171.91,-114.53"/>
<ellipse fill="none" stroke="black" cx="168.88" cy="-115.55" rx="3.2" ry="3.2"/>
</g>
<!-- users_configurations -->
<g id="node3" class="node">
<title>users_configurations</title>
<g id="a_node3"><a xlink:href="../../tables/users_configurations.html" xlink:title="users_configurations" target="_top">
<polygon fill="#ffffff" stroke="transparent" points="490,-124 490,-270 693,-270 693,-124 490,-124"/>
<polygon fill="#f5f5f5" stroke="transparent" points="490.5,-248 490.5,-270 693.5,-270 693.5,-248 490.5,-248"/>
<polygon fill="none" stroke="black" points="490.5,-248 490.5,-270 693.5,-270 693.5,-248 490.5,-248"/>
<text text-anchor="start" x="495.5" y="-257.2" font-family="Helvetica,sans-Serif" font-weight="bold" font-size="11.00">users_configurations</text>
<text text-anchor="start" x="658.5" y="-256.2" font-family="Helvetica,sans-Serif" font-size="11.00">[table]</text>
<polygon fill="none" stroke="black" points="490.5,-226 490.5,-248 693.5,-248 693.5,-226 490.5,-226"/>
<image xlink:href="../../images/primaryKeys.png" width="11px" height="12px" preserveAspectRatio="xMinYMin meet" x="495.5" y="-243"/>
<text text-anchor="start" x="510.5" y="-234.2" font-family="Helvetica,sans-Serif" font-size="11.00">id</text>
<polygon fill="none" stroke="black" points="490.5,-204 490.5,-226 693.5,-226 693.5,-204 490.5,-204"/>
<image xlink:href="../../images/foreignKeys.png" width="11px" height="12px" preserveAspectRatio="xMinYMin meet" x="495.5" y="-221"/>
<text text-anchor="start" x="510.5" y="-212.2" font-family="Helvetica,sans-Serif" font-size="11.00">user_id</text>
<polygon fill="none" stroke="black" points="490.5,-182 490.5,-204 693.5,-204 693.5,-182 490.5,-182"/>
<image xlink:href="../../images/foreignKeys.png" width="11px" height="12px" preserveAspectRatio="xMinYMin meet" x="495.5" y="-199"/>
<text text-anchor="start" x="510.5" y="-190.2" font-family="Helvetica,sans-Serif" font-size="11.00">configuration_id</text>
<polygon fill="none" stroke="black" points="490.5,-160 490.5,-182 693.5,-182 693.5,-160 490.5,-160"/>
<image xlink:href="../../images/foreignKeys.png" width="11px" height="12px" preserveAspectRatio="xMinYMin meet" x="495.5" y="-177"/>
<text text-anchor="start" x="510.5" y="-168.2" font-family="Helvetica,sans-Serif" font-size="11.00">allowed_configuration_value_id</text>
<polygon fill="none" stroke="black" points="490.5,-142 490.5,-160 693.5,-160 693.5,-142 490.5,-142"/>
<text text-anchor="start" x="493.5" y="-148.2" font-family="Helvetica,sans-Serif" font-size="11.00">...</text>
<polygon fill="#ffffff" stroke="transparent" points="490.5,-124 490.5,-142 573.5,-142 573.5,-124 490.5,-124"/>
<polygon fill="none" stroke="black" points="490.5,-124 490.5,-142 573.5,-142 573.5,-124 490.5,-124"/>
<text text-anchor="start" x="493.5" y="-130.2" font-family="Helvetica,sans-Serif" font-size="11.00">&lt; 3</text>
<polygon fill="#ffffff" stroke="transparent" points="573.5,-124 573.5,-142 649.5,-142 649.5,-124 573.5,-124"/>
<polygon fill="none" stroke="black" points="573.5,-124 573.5,-142 649.5,-142 649.5,-124 573.5,-124"/>
<text text-anchor="start" x="606.5" y="-130.2" font-family="Helvetica,sans-Serif" font-size="11.00">11 rows</text>
<polygon fill="#ffffff" stroke="transparent" points="649.5,-124 649.5,-142 693.5,-142 693.5,-124 649.5,-124"/>
<polygon fill="none" stroke="black" points="649.5,-124 649.5,-142 693.5,-142 693.5,-124 649.5,-124"/>
<text text-anchor="start" x="683.5" y="-130.2" font-family="Helvetica,sans-Serif" font-size="11.00"> &#160;</text>
</a>
</g>
</g>
<!-- users_configurations&#45;&gt;allowed_configuration_values -->
<g id="edge2" class="edge">
<title>users_configurations:w&#45;&gt;allowed_configuration_values:e</title>
<path fill="none" stroke="black" d="M475.62,-166.46C463.08,-156.58 461.82,-134 440.5,-134"/>
<polygon fill="black" stroke="black" points="481.9,-168.51 488.38,-174.42 485.7,-169.76 489.5,-171 489.5,-171 489.5,-171 485.7,-169.76 490.62,-167.58 481.9,-168.51 481.9,-168.51"/>
<ellipse fill="none" stroke="black" cx="478.85" cy="-167.52" rx="3.2" ry="3.2"/>
</g>
<!-- users_configurations&#45;&gt;configurations -->
<g id="edge3" class="edge">
<title>users_configurations:w&#45;&gt;configurations:e</title>
<path fill="none" stroke="black" d="M474.87,-193.12C344.25,-195.21 299.78,-224.26 170,-180 149.63,-173.05 152.02,-152 130.5,-152"/>
<polygon fill="black" stroke="black" points="481.5,-193.06 489.53,-196.6 485.5,-193.03 489.5,-193 489.5,-193 489.5,-193 485.5,-193.03 489.47,-189.4 481.5,-193.06 481.5,-193.06"/>
<ellipse fill="none" stroke="black" cx="478.3" cy="-193.09" rx="3.2" ry="3.2"/>
</g>
<!-- users -->
<g id="node4" class="node">
<title>users</title>
<g id="a_node4"><a xlink:href="../../tables/users.html" xlink:title="users" target="_top">
<polygon fill="#ffffff" stroke="transparent" points="269,-217 269,-275 350,-275 350,-217 269,-217"/>
<polygon fill="#f5f5f5" stroke="transparent" points="269.5,-253 269.5,-275 350.5,-275 350.5,-253 269.5,-253"/>
<polygon fill="none" stroke="black" points="269.5,-253 269.5,-275 350.5,-275 350.5,-253 269.5,-253"/>
<text text-anchor="start" x="274.5" y="-262.2" font-family="Helvetica,sans-Serif" font-weight="bold" font-size="11.00">users</text>
<text text-anchor="start" x="315.5" y="-261.2" font-family="Helvetica,sans-Serif" font-size="11.00">[table]</text>
<polygon fill="none" stroke="black" points="269.5,-235 269.5,-253 350.5,-253 350.5,-235 269.5,-235"/>
<text text-anchor="start" x="272.5" y="-241.2" font-family="Helvetica,sans-Serif" font-size="11.00">...</text>
<polygon fill="#ffffff" stroke="transparent" points="269.5,-217 269.5,-235 282.5,-235 282.5,-217 269.5,-217"/>
<polygon fill="none" stroke="black" points="269.5,-217 269.5,-235 282.5,-235 282.5,-217 269.5,-217"/>
<text text-anchor="start" x="272.5" y="-223.2" font-family="Helvetica,sans-Serif" font-size="11.00"> &#160;</text>
<polygon fill="#ffffff" stroke="transparent" points="282.5,-217 282.5,-235 328.5,-235 328.5,-217 282.5,-217"/>
<polygon fill="none" stroke="black" points="282.5,-217 282.5,-235 328.5,-235 328.5,-217 282.5,-217"/>
<text text-anchor="start" x="285.5" y="-223.2" font-family="Helvetica,sans-Serif" font-size="11.00">11 rows</text>
<polygon fill="#ffffff" stroke="transparent" points="328.5,-217 328.5,-235 350.5,-235 350.5,-217 328.5,-217"/>
<polygon fill="none" stroke="black" points="328.5,-217 328.5,-235 350.5,-235 350.5,-217 328.5,-217"/>
<text text-anchor="start" x="331.5" y="-223.2" font-family="Helvetica,sans-Serif" font-size="11.00">2 &gt;</text>
</a>
</g>
</g>
<!-- users_configurations&#45;&gt;users -->
<g id="edge4" class="edge">
<title>users_configurations:w&#45;&gt;users:e</title>
<path fill="none" stroke="black" d="M475.03,-215.55C424.41,-219.56 409.03,-244 351.5,-244"/>
<polygon fill="black" stroke="black" points="481.51,-215.31 489.64,-218.6 485.5,-215.15 489.5,-215 489.5,-215 489.5,-215 485.5,-215.15 489.36,-211.4 481.51,-215.31 481.51,-215.31"/>
<ellipse fill="none" stroke="black" cx="478.31" cy="-215.43" rx="3.2" ry="3.2"/>
</g>
</g>
</svg>
