<?xml version="1.0" encoding="UTF-8" standalone="no"?>
<!DOCTYPE svg PUBLIC "-//W3C//DTD SVG 1.1//EN"
 "http://www.w3.org/Graphics/SVG/1.1/DTD/svg11.dtd">
<!-- Generated by graphviz version 2.50.0 (20211204.2007)
 -->
<!-- Title: oneDegreeRelationshipsDiagram Pages: 1 -->
<svg width="709pt" height="263pt"
 viewBox="0.00 0.00 709.00 263.00" xmlns="http://www.w3.org/2000/svg" xmlns:xlink="http://www.w3.org/1999/xlink">
<g id="graph0" class="graph" transform="scale(1 1) rotate(0) translate(4 259)">
<title>oneDegreeRelationshipsDiagram</title>
<polygon fill="#ffffff" stroke="transparent" points="-4,4 -4,-259 705,-259 705,4 -4,4"/>
<text text-anchor="middle" x="72.5" y="-7.2" font-family="Helvetica,sans-Serif" font-size="11.00">Generated by SchemaSpy</text>
<!-- allowed_configuration_values -->
<g id="node1" class="node">
<title>allowed_configuration_values</title>
<g id="a_node1"><a xlink:href="../../tables/allowed_configuration_values.html" xlink:title="allowed_configuration_values" target="_top">
<polygon fill="#ffffff" stroke="transparent" points="178,-37 178,-169 441,-169 441,-37 178,-37"/>
<polygon fill="#f5f5f5" stroke="transparent" points="180.5,-145 180.5,-167 439.5,-167 439.5,-145 180.5,-145"/>
<polygon fill="none" stroke="black" points="180.5,-145 180.5,-167 439.5,-167 439.5,-145 180.5,-145"/>
<text text-anchor="start" x="185.5" y="-154.2" font-family="Helvetica,sans-Serif" font-weight="bold" font-size="11.00">allowed_configuration_values</text>
<text text-anchor="start" x="404.5" y="-153.2" font-family="Helvetica,sans-Serif" font-size="11.00">[table]</text>
<polygon fill="none" stroke="black" points="180.5,-123 180.5,-145 372.5,-145 372.5,-123 180.5,-123"/>
<image xlink:href="../../images/primaryKeys.png" width="11px" height="12px" preserveAspectRatio="xMinYMin meet" x="185.5" y="-140"/>
<text text-anchor="start" x="200.5" y="-131.2" font-family="Helvetica,sans-Serif" font-size="11.00">id</text>
<polygon fill="none" stroke="black" points="372.5,-123 372.5,-145 439.5,-145 439.5,-123 372.5,-123"/>
<text text-anchor="start" x="375.5" y="-131.2" font-family="Helvetica,sans-Serif" font-size="11.00">serial[10]</text>
<polygon fill="none" stroke="black" points="180.5,-101 180.5,-123 372.5,-123 372.5,-101 180.5,-101"/>
<image xlink:href="../../images/foreignKeys.png" width="11px" height="12px" preserveAspectRatio="xMinYMin meet" x="185.5" y="-118"/>
<text text-anchor="start" x="200.5" y="-109.2" font-family="Helvetica,sans-Serif" font-size="11.00">configuration_id</text>
<polygon fill="none" stroke="black" points="372.5,-101 372.5,-123 439.5,-123 439.5,-101 372.5,-101"/>
<text text-anchor="start" x="375.5" y="-109.2" font-family="Helvetica,sans-Serif" font-size="11.00">int4[10]</text>
<polygon fill="none" stroke="black" points="180.5,-79 180.5,-101 372.5,-101 372.5,-79 180.5,-79"/>
<text text-anchor="start" x="200.5" y="-87.2" font-family="Helvetica,sans-Serif" font-size="11.00">value</text>
<polygon fill="none" stroke="black" points="372.5,-79 372.5,-101 439.5,-101 439.5,-79 372.5,-79"/>
<text text-anchor="start" x="375.5" y="-87.2" font-family="Helvetica,sans-Serif" font-size="11.00">varchar[32]</text>
<polygon fill="none" stroke="black" points="180.5,-57 180.5,-79 372.5,-79 372.5,-57 180.5,-57"/>
<text text-anchor="start" x="200.5" y="-65.2" font-family="Helvetica,sans-Serif" font-size="11.00">description</text>
<polygon fill="none" stroke="black" points="372.5,-57 372.5,-79 439.5,-79 439.5,-57 372.5,-57"/>
<text text-anchor="start" x="375.5" y="-65.2" font-family="Helvetica,sans-Serif" font-size="11.00">varchar[128]</text>
<polygon fill="#ffffff" stroke="transparent" points="180.5,-39 180.5,-57 270.5,-57 270.5,-39 180.5,-39"/>
<polygon fill="none" stroke="black" points="180.5,-39 180.5,-57 270.5,-57 270.5,-39 180.5,-39"/>
<text text-anchor="start" x="183.5" y="-45.2" font-family="Helvetica,sans-Serif" font-size="11.00">&lt; 1</text>
<polygon fill="#ffffff" stroke="transparent" points="270.5,-39 270.5,-57 372.5,-57 372.5,-39 270.5,-39"/>
<polygon fill="none" stroke="black" points="270.5,-39 270.5,-57 372.5,-57 372.5,-39 270.5,-39"/>
<text text-anchor="start" x="341.5" y="-45.2" font-family="Helvetica,sans-Serif" font-size="11.00">1 row</text>
<polygon fill="#ffffff" stroke="transparent" points="372.5,-39 372.5,-57 439.5,-57 439.5,-39 372.5,-39"/>
<polygon fill="none" stroke="black" points="372.5,-39 372.5,-57 439.5,-57 439.5,-39 372.5,-39"/>
<text text-anchor="start" x="420.5" y="-45.2" font-family="Helvetica,sans-Serif" font-size="11.00">1 &gt;</text>
<polygon fill="none" stroke="black" stroke-width="2" points="179,-38 179,-168 440,-168 440,-38 179,-38"/>
</a>
</g>
</g>
<!-- configurations -->
<g id="node2" class="node">
<title>configurations</title>
<g id="a_node2"><a xlink:href="../../tables/configurations.html" xlink:title="configurations" target="_top">
<polygon fill="#ffffff" stroke="transparent" points="8,-83 8,-185 129,-185 129,-83 8,-83"/>
<polygon fill="#f5f5f5" stroke="transparent" points="8.5,-163 8.5,-185 129.5,-185 129.5,-163 8.5,-163"/>
<polygon fill="none" stroke="black" points="8.5,-163 8.5,-185 129.5,-185 129.5,-163 8.5,-163"/>
<text text-anchor="start" x="13.5" y="-172.2" font-family="Helvetica,sans-Serif" font-weight="bold" font-size="11.00">configurations</text>
<text text-anchor="start" x="94.5" y="-171.2" font-family="Helvetica,sans-Serif" font-size="11.00">[table]</text>
<polygon fill="none" stroke="black" points="8.5,-141 8.5,-163 129.5,-163 129.5,-141 8.5,-141"/>
<image xlink:href="../../images/primaryKeys.png" width="11px" height="12px" preserveAspectRatio="xMinYMin meet" x="13.5" y="-158"/>
<text text-anchor="start" x="37.5" y="-149.2" font-family="Helvetica,sans-Serif" font-size="11.00">id</text>
<polygon fill="#ffffff" stroke="transparent" points="8.5,-119 8.5,-141 129.5,-141 129.5,-119 8.5,-119"/>
<polygon fill="none" stroke="black" points="8.5,-119 8.5,-141 129.5,-141 129.5,-119 8.5,-119"/>
<text text-anchor="start" x="37.5" y="-127.2" font-family="Helvetica,sans-Serif" font-size="11.00">name</text>
<polygon fill="none" stroke="black" points="8.5,-101 8.5,-119 129.5,-119 129.5,-101 8.5,-101"/>
<text text-anchor="start" x="11.5" y="-107.2" font-family="Helvetica,sans-Serif" font-size="11.00">...</text>
<polygon fill="#ffffff" stroke="transparent" points="8.5,-83 8.5,-101 41.5,-101 41.5,-83 8.5,-83"/>
<polygon fill="none" stroke="black" points="8.5,-83 8.5,-101 41.5,-101 41.5,-83 8.5,-83"/>
<text text-anchor="start" x="11.5" y="-89.2" font-family="Helvetica,sans-Serif" font-size="11.00"> &#160;</text>
<polygon fill="#ffffff" stroke="transparent" points="41.5,-83 41.5,-101 97.5,-101 97.5,-83 41.5,-83"/>
<polygon fill="none" stroke="black" points="41.5,-83 41.5,-101 97.5,-101 97.5,-83 41.5,-83"/>
<text text-anchor="start" x="54.5" y="-89.2" font-family="Helvetica,sans-Serif" font-size="11.00">18 rows</text>
<polygon fill="#ffffff" stroke="transparent" points="97.5,-83 97.5,-101 129.5,-101 129.5,-83 97.5,-83"/>
<polygon fill="none" stroke="black" points="97.5,-83 97.5,-101 129.5,-101 129.5,-83 97.5,-83"/>
<text text-anchor="start" x="110.5" y="-89.2" font-family="Helvetica,sans-Serif" font-size="11.00">2 &gt;</text>
</a>
</g>
</g>
<!-- allowed_configuration_values&#45;&gt;configurations -->
<g id="edge1" class="edge">
<title>allowed_configuration_values:w&#45;&gt;configurations:e</title>
<path fill="none" stroke="black" d="M165.76,-116.59C152.86,-127.1 152.68,-152 130.5,-152"/>
<polygon fill="black" stroke="black" points="171.91,-114.53 180.64,-115.41 175.71,-113.27 179.5,-112 179.5,-112 179.5,-112 175.71,-113.27 178.36,-108.59 171.91,-114.53 171.91,-114.53"/>
<ellipse fill="none" stroke="black" cx="168.88" cy="-115.55" rx="3.2" ry="3.2"/>
</g>
<!-- users_configurations -->
<g id="node3" class="node">
<title>users_configurations</title>
<g id="a_node3"><a xlink:href="../../tables/users_configurations.html" xlink:title="users_configurations" target="_top">
<polygon fill="#ffffff" stroke="transparent" points="490,-105 490,-251 693,-251 693,-105 490,-105"/>
<polygon fill="#f5f5f5" stroke="transparent" points="490.5,-229 490.5,-251 693.5,-251 693.5,-229 490.5,-229"/>
<polygon fill="none" stroke="black" points="490.5,-229 490.5,-251 693.5,-251 693.5,-229 490.5,-229"/>
<text text-anchor="start" x="495.5" y="-238.2" font-family="Helvetica,sans-Serif" font-weight="bold" font-size="11.00">users_configurations</text>
<text text-anchor="start" x="658.5" y="-237.2" font-family="Helvetica,sans-Serif" font-size="11.00">[table]</text>
<polygon fill="none" stroke="black" points="490.5,-207 490.5,-229 693.5,-229 693.5,-207 490.5,-207"/>
<image xlink:href="../../images/primaryKeys.png" width="11px" height="12px" preserveAspectRatio="xMinYMin meet" x="495.5" y="-224"/>
<text text-anchor="start" x="510.5" y="-215.2" font-family="Helvetica,sans-Serif" font-size="11.00">id</text>
<polygon fill="none" stroke="black" points="490.5,-185 490.5,-207 693.5,-207 693.5,-185 490.5,-185"/>
<image xlink:href="../../images/foreignKeys.png" width="11px" height="12px" preserveAspectRatio="xMinYMin meet" x="495.5" y="-202"/>
<text text-anchor="start" x="510.5" y="-193.2" font-family="Helvetica,sans-Serif" font-size="11.00">user_id</text>
<polygon fill="none" stroke="black" points="490.5,-163 490.5,-185 693.5,-185 693.5,-163 490.5,-163"/>
<image xlink:href="../../images/foreignKeys.png" width="11px" height="12px" preserveAspectRatio="xMinYMin meet" x="495.5" y="-180"/>
<text text-anchor="start" x="510.5" y="-171.2" font-family="Helvetica,sans-Serif" font-size="11.00">configuration_id</text>
<polygon fill="none" stroke="black" points="490.5,-141 490.5,-163 693.5,-163 693.5,-141 490.5,-141"/>
<image xlink:href="../../images/foreignKeys.png" width="11px" height="12px" preserveAspectRatio="xMinYMin meet" x="495.5" y="-158"/>
<text text-anchor="start" x="510.5" y="-149.2" font-family="Helvetica,sans-Serif" font-size="11.00">allowed_configuration_value_id</text>
<polygon fill="none" stroke="black" points="490.5,-123 490.5,-141 693.5,-141 693.5,-123 490.5,-123"/>
<text text-anchor="start" x="493.5" y="-129.2" font-family="Helvetica,sans-Serif" font-size="11.00">...</text>
<polygon fill="#ffffff" stroke="transparent" points="490.5,-105 490.5,-123 573.5,-123 573.5,-105 490.5,-105"/>
<polygon fill="none" stroke="black" points="490.5,-105 490.5,-123 573.5,-123 573.5,-105 490.5,-105"/>
<text text-anchor="start" x="493.5" y="-111.2" font-family="Helvetica,sans-Serif" font-size="11.00">&lt; 3</text>
<polygon fill="#ffffff" stroke="transparent" points="573.5,-105 573.5,-123 649.5,-123 649.5,-105 573.5,-105"/>
<polygon fill="none" stroke="black" points="573.5,-105 573.5,-123 649.5,-123 649.5,-105 573.5,-105"/>
<text text-anchor="start" x="606.5" y="-111.2" font-family="Helvetica,sans-Serif" font-size="11.00">11 rows</text>
<polygon fill="#ffffff" stroke="transparent" points="649.5,-105 649.5,-123 693.5,-123 693.5,-105 649.5,-105"/>
<polygon fill="none" stroke="black" points="649.5,-105 649.5,-123 693.5,-123 693.5,-105 649.5,-105"/>
<text text-anchor="start" x="683.5" y="-111.2" font-family="Helvetica,sans-Serif" font-size="11.00"> &#160;</text>
</a>
</g>
</g>
<!-- users_configurations&#45;&gt;allowed_configuration_values -->
<g id="edge2" class="edge">
<title>users_configurations:w&#45;&gt;allowed_configuration_values:e</title>
<path fill="none" stroke="black" d="M475.32,-149.19C463.71,-144.12 457.9,-134 440.5,-134"/>
<polygon fill="black" stroke="black" points="481.65,-150.44 488.8,-155.53 485.58,-151.22 489.5,-152 489.5,-152 489.5,-152 485.58,-151.22 490.2,-148.47 481.65,-150.44 481.65,-150.44"/>
<ellipse fill="none" stroke="black" cx="478.51" cy="-149.82" rx="3.2" ry="3.2"/>
</g>
<!-- users_configurations&#45;&gt;configurations -->
<g id="edge3" class="edge">
<title>users_configurations:w&#45;&gt;configurations:e</title>
<path fill="none" stroke="black" d="M475.13,-175.22C467.07,-176.7 461.19,-179.1 449,-180 325.34,-189.11 288.15,-217.63 170,-180 149.5,-173.47 152.02,-152 130.5,-152"/>
<polygon fill="black" stroke="black" points="481.53,-174.68 489.81,-177.59 485.51,-174.34 489.5,-174 489.5,-174 489.5,-174 485.51,-174.34 489.19,-170.41 481.53,-174.68 481.53,-174.68"/>
<ellipse fill="none" stroke="black" cx="478.34" cy="-174.95" rx="3.2" ry="3.2"/>
</g>
</g>
</svg>
