<?xml version="1.0" encoding="UTF-8" standalone="no"?>
<!DOCTYPE svg PUBLIC "-//W3C//DTD SVG 1.1//EN"
 "http://www.w3.org/Graphics/SVG/1.1/DTD/svg11.dtd">
<!-- Generated by graphviz version 2.50.0 (20211204.2007)
 -->
<!-- Title: twoDegreesRelationshipsDiagram Pages: 1 -->
<svg width="843pt" height="659pt"
 viewBox="0.00 0.00 843.00 659.23" xmlns="http://www.w3.org/2000/svg" xmlns:xlink="http://www.w3.org/1999/xlink">
<g id="graph0" class="graph" transform="scale(1 1) rotate(0) translate(4 655.23)">
<title>twoDegreesRelationshipsDiagram</title>
<polygon fill="#ffffff" stroke="transparent" points="-4,4 -4,-655.23 839,-655.23 839,4 -4,4"/>
<text text-anchor="middle" x="72.5" y="-7.2" font-family="Helvetica,sans-Serif" font-size="11.00">Generated by SchemaSpy</text>
<!-- aggregate_impacts -->
<g id="node1" class="node">
<title>aggregate_impacts</title>
<g id="a_node1"><a xlink:href="../../tables/aggregate_impacts.html" xlink:title="aggregate_impacts" target="_top">
<polygon fill="#ffffff" stroke="transparent" points="178,-241 178,-299 323,-299 323,-241 178,-241"/>
<polygon fill="#f5f5f5" stroke="transparent" points="178.5,-277 178.5,-299 323.5,-299 323.5,-277 178.5,-277"/>
<polygon fill="none" stroke="black" points="178.5,-277 178.5,-299 323.5,-299 323.5,-277 178.5,-277"/>
<text text-anchor="start" x="183.5" y="-286.2" font-family="Helvetica,sans-Serif" font-weight="bold" font-size="11.00">aggregate_impacts</text>
<text text-anchor="start" x="288.5" y="-285.2" font-family="Helvetica,sans-Serif" font-size="11.00">[table]</text>
<polygon fill="none" stroke="black" points="178.5,-259 178.5,-277 323.5,-277 323.5,-259 178.5,-259"/>
<text text-anchor="start" x="181.5" y="-265.2" font-family="Helvetica,sans-Serif" font-size="11.00">...</text>
<polygon fill="#ffffff" stroke="transparent" points="178.5,-241 178.5,-259 214.5,-259 214.5,-241 178.5,-241"/>
<polygon fill="none" stroke="black" points="178.5,-241 178.5,-259 214.5,-259 214.5,-241 178.5,-241"/>
<text text-anchor="start" x="181.5" y="-247.2" font-family="Helvetica,sans-Serif" font-size="11.00">&lt; 2</text>
<polygon fill="#ffffff" stroke="transparent" points="214.5,-241 214.5,-259 303.5,-259 303.5,-241 214.5,-241"/>
<polygon fill="none" stroke="black" points="214.5,-241 214.5,-259 303.5,-259 303.5,-241 214.5,-241"/>
<text text-anchor="start" x="224.5" y="-247.2" font-family="Helvetica,sans-Serif" font-size="11.00">7,901,926 rows</text>
<polygon fill="#ffffff" stroke="transparent" points="303.5,-241 303.5,-259 323.5,-259 323.5,-241 303.5,-241"/>
<polygon fill="none" stroke="black" points="303.5,-241 303.5,-259 323.5,-259 323.5,-241 303.5,-241"/>
<text text-anchor="start" x="313.5" y="-247.2" font-family="Helvetica,sans-Serif" font-size="11.00"> &#160;</text>
</a>
</g>
</g>
<!-- risk_factors -->
<g id="node2" class="node">
<title>risk_factors</title>
<g id="a_node2"><a xlink:href="../../tables/risk_factors.html" xlink:title="risk_factors" target="_top">
<polygon fill="#ffffff" stroke="transparent" points="8,-439 8,-541 115,-541 115,-439 8,-439"/>
<polygon fill="#f5f5f5" stroke="transparent" points="8.5,-519 8.5,-541 115.5,-541 115.5,-519 8.5,-519"/>
<polygon fill="none" stroke="black" points="8.5,-519 8.5,-541 115.5,-541 115.5,-519 8.5,-519"/>
<text text-anchor="start" x="13.5" y="-528.2" font-family="Helvetica,sans-Serif" font-weight="bold" font-size="11.00">risk_factors</text>
<text text-anchor="start" x="80.5" y="-527.2" font-family="Helvetica,sans-Serif" font-size="11.00">[table]</text>
<polygon fill="none" stroke="black" points="8.5,-497 8.5,-519 115.5,-519 115.5,-497 8.5,-497"/>
<image xlink:href="../../images/primaryKeys.png" width="11px" height="12px" preserveAspectRatio="xMinYMin meet" x="13.5" y="-514"/>
<text text-anchor="start" x="37.5" y="-505.2" font-family="Helvetica,sans-Serif" font-size="11.00">id</text>
<polygon fill="#ffffff" stroke="transparent" points="8.5,-475 8.5,-497 115.5,-497 115.5,-475 8.5,-475"/>
<polygon fill="none" stroke="black" points="8.5,-475 8.5,-497 115.5,-497 115.5,-475 8.5,-475"/>
<text text-anchor="start" x="37.5" y="-483.2" font-family="Helvetica,sans-Serif" font-size="11.00">name</text>
<polygon fill="none" stroke="black" points="8.5,-457 8.5,-475 115.5,-475 115.5,-457 8.5,-457"/>
<text text-anchor="start" x="11.5" y="-463.2" font-family="Helvetica,sans-Serif" font-size="11.00">...</text>
<polygon fill="#ffffff" stroke="transparent" points="8.5,-439 8.5,-457 34.5,-457 34.5,-439 8.5,-439"/>
<polygon fill="none" stroke="black" points="8.5,-439 8.5,-457 34.5,-457 34.5,-439 8.5,-439"/>
<text text-anchor="start" x="11.5" y="-445.2" font-family="Helvetica,sans-Serif" font-size="11.00"> &#160;</text>
<polygon fill="#ffffff" stroke="transparent" points="34.5,-439 34.5,-457 86.5,-457 86.5,-439 34.5,-439"/>
<polygon fill="none" stroke="black" points="34.5,-439 34.5,-457 86.5,-457 86.5,-439 34.5,-439"/>
<text text-anchor="start" x="43.5" y="-445.2" font-family="Helvetica,sans-Serif" font-size="11.00">17 rows</text>
<polygon fill="#ffffff" stroke="transparent" points="86.5,-439 86.5,-457 115.5,-457 115.5,-439 86.5,-439"/>
<polygon fill="none" stroke="black" points="86.5,-439 86.5,-457 115.5,-457 115.5,-439 86.5,-439"/>
<text text-anchor="start" x="96.5" y="-445.2" font-family="Helvetica,sans-Serif" font-size="11.00">7 &gt;</text>
</a>
</g>
</g>
<!-- aggregate_impacts&#45;&gt;risk_factors -->
<g id="edge1" class="edge">
<title>aggregate_impacts:w&#45;&gt;risk_factors:e</title>
<path fill="none" stroke="black" d="M164.38,-274.17C130.91,-311.74 166.26,-508 116.5,-508"/>
<polygon fill="black" stroke="black" points="170.26,-271.41 179.03,-271.26 173.88,-269.7 177.5,-268 177.5,-268 177.5,-268 173.88,-269.7 175.97,-264.74 170.26,-271.41 170.26,-271.41"/>
<ellipse fill="none" stroke="black" cx="167.37" cy="-272.77" rx="3.2" ry="3.2"/>
</g>
<!-- aggregate_risks -->
<g id="node3" class="node">
<title>aggregate_risks</title>
<g id="a_node3"><a xlink:href="../../tables/aggregate_risks.html" xlink:title="aggregate_risks" target="_top">
<polygon fill="#ffffff" stroke="transparent" points="390.5,-565 390.5,-623 520.5,-623 520.5,-565 390.5,-565"/>
<polygon fill="#f5f5f5" stroke="transparent" points="390.5,-601 390.5,-623 520.5,-623 520.5,-601 390.5,-601"/>
<polygon fill="none" stroke="black" points="390.5,-601 390.5,-623 520.5,-623 520.5,-601 390.5,-601"/>
<text text-anchor="start" x="395.5" y="-610.2" font-family="Helvetica,sans-Serif" font-weight="bold" font-size="11.00">aggregate_risks</text>
<text text-anchor="start" x="485.5" y="-609.2" font-family="Helvetica,sans-Serif" font-size="11.00">[table]</text>
<polygon fill="none" stroke="black" points="390.5,-583 390.5,-601 520.5,-601 520.5,-583 390.5,-583"/>
<text text-anchor="start" x="393.5" y="-589.2" font-family="Helvetica,sans-Serif" font-size="11.00">...</text>
<polygon fill="#ffffff" stroke="transparent" points="390.5,-565 390.5,-583 423.5,-583 423.5,-565 390.5,-565"/>
<polygon fill="none" stroke="black" points="390.5,-565 390.5,-583 423.5,-583 423.5,-565 390.5,-565"/>
<text text-anchor="start" x="393.5" y="-571.2" font-family="Helvetica,sans-Serif" font-size="11.00">&lt; 4</text>
<polygon fill="#ffffff" stroke="transparent" points="423.5,-565 423.5,-583 501.5,-583 501.5,-565 423.5,-565"/>
<polygon fill="none" stroke="black" points="423.5,-565 423.5,-583 501.5,-583 501.5,-565 423.5,-565"/>
<text text-anchor="start" x="431.5" y="-571.2" font-family="Helvetica,sans-Serif" font-size="11.00">133,008 rows</text>
<polygon fill="#ffffff" stroke="transparent" points="501.5,-565 501.5,-583 520.5,-583 520.5,-565 501.5,-565"/>
<polygon fill="none" stroke="black" points="501.5,-565 501.5,-583 520.5,-583 520.5,-565 501.5,-565"/>
<text text-anchor="start" x="510.5" y="-571.2" font-family="Helvetica,sans-Serif" font-size="11.00"> &#160;</text>
</a>
</g>
</g>
<!-- aggregate_risks&#45;&gt;risk_factors -->
<g id="edge3" class="edge">
<title>aggregate_risks:w&#45;&gt;risk_factors:e</title>
<path fill="none" stroke="black" d="M374.91,-593.53C365.41,-595.71 359.12,-599.59 345,-601 261.42,-609.37 226.05,-647.36 156,-601 118.55,-576.22 161.41,-508 116.5,-508"/>
<polygon fill="black" stroke="black" points="381.54,-592.84 389.88,-595.58 385.52,-592.42 389.5,-592 389.5,-592 389.5,-592 385.52,-592.42 389.12,-588.42 381.54,-592.84 381.54,-592.84"/>
<ellipse fill="none" stroke="black" cx="378.36" cy="-593.17" rx="3.2" ry="3.2"/>
</g>
<!-- hazard_metrics -->
<g id="node4" class="node">
<title>hazard_metrics</title>
<g id="a_node4"><a xlink:href="../../tables/hazard_metrics.html" xlink:title="hazard_metrics" target="_top">
<polygon fill="#ffffff" stroke="transparent" points="187.5,-532 187.5,-590 313.5,-590 313.5,-532 187.5,-532"/>
<polygon fill="#f5f5f5" stroke="transparent" points="187.5,-568 187.5,-590 313.5,-590 313.5,-568 187.5,-568"/>
<polygon fill="none" stroke="black" points="187.5,-568 187.5,-590 313.5,-590 313.5,-568 187.5,-568"/>
<text text-anchor="start" x="192.5" y="-577.2" font-family="Helvetica,sans-Serif" font-weight="bold" font-size="11.00">hazard_metrics</text>
<text text-anchor="start" x="278.5" y="-576.2" font-family="Helvetica,sans-Serif" font-size="11.00">[table]</text>
<polygon fill="none" stroke="black" points="187.5,-550 187.5,-568 313.5,-568 313.5,-550 187.5,-550"/>
<text text-anchor="start" x="190.5" y="-556.2" font-family="Helvetica,sans-Serif" font-size="11.00">...</text>
<polygon fill="#ffffff" stroke="transparent" points="187.5,-532 187.5,-550 227.5,-550 227.5,-532 187.5,-532"/>
<polygon fill="none" stroke="black" points="187.5,-532 187.5,-550 227.5,-550 227.5,-532 187.5,-532"/>
<text text-anchor="start" x="190.5" y="-538.2" font-family="Helvetica,sans-Serif" font-size="11.00">&lt; 1</text>
<polygon fill="#ffffff" stroke="transparent" points="227.5,-532 227.5,-550 282.5,-550 282.5,-532 227.5,-532"/>
<polygon fill="none" stroke="black" points="227.5,-532 227.5,-550 282.5,-550 282.5,-532 227.5,-532"/>
<text text-anchor="start" x="239.5" y="-538.2" font-family="Helvetica,sans-Serif" font-size="11.00">15 rows</text>
<polygon fill="#ffffff" stroke="transparent" points="282.5,-532 282.5,-550 313.5,-550 313.5,-532 282.5,-532"/>
<polygon fill="none" stroke="black" points="282.5,-532 282.5,-550 313.5,-550 313.5,-532 282.5,-532"/>
<text text-anchor="start" x="294.5" y="-538.2" font-family="Helvetica,sans-Serif" font-size="11.00">3 &gt;</text>
</a>
</g>
</g>
<!-- aggregate_risks&#45;&gt;hazard_metrics -->
<g id="edge2" class="edge">
<title>aggregate_risks:w&#45;&gt;hazard_metrics:e</title>
<path fill="none" stroke="black" d="M375,-589.94C351.63,-582.71 345.37,-559 314.5,-559"/>
<polygon fill="black" stroke="black" points="381.58,-590.87 388.99,-595.56 385.54,-591.44 389.5,-592 389.5,-592 389.5,-592 385.54,-591.44 390.01,-588.44 381.58,-590.87 381.58,-590.87"/>
<ellipse fill="none" stroke="black" cx="378.41" cy="-590.42" rx="3.2" ry="3.2"/>
</g>
<!-- hazard_metrics&#45;&gt;risk_factors -->
<g id="edge15" class="edge">
<title>hazard_metrics:w&#45;&gt;risk_factors:e</title>
<path fill="none" stroke="black" d="M172.39,-556.11C149.08,-545.32 149.43,-508 116.5,-508"/>
<polygon fill="black" stroke="black" points="178.66,-557.4 185.78,-562.53 182.58,-558.2 186.5,-559 186.5,-559 186.5,-559 182.58,-558.2 187.22,-555.47 178.66,-557.4 178.66,-557.4"/>
<ellipse fill="none" stroke="black" cx="175.53" cy="-556.75" rx="3.2" ry="3.2"/>
</g>
<!-- asset_types_impact_functions -->
<g id="node5" class="node">
<title>asset_types_impact_functions</title>
<g id="a_node5"><a xlink:href="../../tables/asset_types_impact_functions.html" xlink:title="asset_types_impact_functions" target="_top">
<polygon fill="#ffffff" stroke="transparent" points="598.5,-484 598.5,-542 802.5,-542 802.5,-484 598.5,-484"/>
<polygon fill="#f5f5f5" stroke="transparent" points="598.5,-520 598.5,-542 802.5,-542 802.5,-520 598.5,-520"/>
<polygon fill="none" stroke="black" points="598.5,-520 598.5,-542 802.5,-542 802.5,-520 598.5,-520"/>
<text text-anchor="start" x="603.5" y="-529.2" font-family="Helvetica,sans-Serif" font-weight="bold" font-size="11.00">asset_types_impact_functions</text>
<text text-anchor="start" x="767.5" y="-528.2" font-family="Helvetica,sans-Serif" font-size="11.00">[table]</text>
<polygon fill="none" stroke="black" points="598.5,-502 598.5,-520 802.5,-520 802.5,-502 598.5,-502"/>
<text text-anchor="start" x="601.5" y="-508.2" font-family="Helvetica,sans-Serif" font-size="11.00">...</text>
<polygon fill="#ffffff" stroke="transparent" points="598.5,-484 598.5,-502 678.5,-502 678.5,-484 598.5,-484"/>
<polygon fill="none" stroke="black" points="598.5,-484 598.5,-502 678.5,-502 678.5,-484 598.5,-484"/>
<text text-anchor="start" x="601.5" y="-490.2" font-family="Helvetica,sans-Serif" font-size="11.00">&lt; 3</text>
<polygon fill="#ffffff" stroke="transparent" points="678.5,-484 678.5,-502 759.5,-502 759.5,-484 678.5,-484"/>
<polygon fill="none" stroke="black" points="678.5,-484 678.5,-502 759.5,-502 759.5,-484 678.5,-484"/>
<text text-anchor="start" x="710.5" y="-490.2" font-family="Helvetica,sans-Serif" font-size="11.00">625 rows</text>
<polygon fill="#ffffff" stroke="transparent" points="759.5,-484 759.5,-502 802.5,-502 802.5,-484 759.5,-484"/>
<polygon fill="none" stroke="black" points="759.5,-484 759.5,-502 802.5,-502 802.5,-484 759.5,-484"/>
<text text-anchor="start" x="792.5" y="-490.2" font-family="Helvetica,sans-Serif" font-size="11.00"> &#160;</text>
</a>
</g>
</g>
<!-- asset_types_impact_functions&#45;&gt;risk_factors -->
<g id="edge6" class="edge">
<title>asset_types_impact_functions:w&#45;&gt;risk_factors:e</title>
<path fill="none" stroke="black" d="M583.16,-513.19C544.09,-527.22 580.97,-604.99 533,-634 474.05,-669.65 446.86,-635.86 378,-634 279.23,-631.33 234.92,-681.45 156,-622 113.17,-589.74 170.12,-508 116.5,-508"/>
<polygon fill="black" stroke="black" points="589.59,-512.21 598.04,-514.56 593.55,-511.6 597.5,-511 597.5,-511 597.5,-511 593.55,-511.6 596.96,-507.44 589.59,-512.21 589.59,-512.21"/>
<ellipse fill="none" stroke="black" cx="586.43" cy="-512.69" rx="3.2" ry="3.2"/>
</g>
<!-- asset_types -->
<g id="node6" class="node">
<title>asset_types</title>
<g id="a_node6"><a xlink:href="../../tables/asset_types.html" xlink:title="asset_types" target="_top">
<polygon fill="#ffffff" stroke="transparent" points="196.5,-347 196.5,-405 304.5,-405 304.5,-347 196.5,-347"/>
<polygon fill="#f5f5f5" stroke="transparent" points="196.5,-383 196.5,-405 304.5,-405 304.5,-383 196.5,-383"/>
<polygon fill="none" stroke="black" points="196.5,-383 196.5,-405 304.5,-405 304.5,-383 196.5,-383"/>
<text text-anchor="start" x="201.5" y="-392.2" font-family="Helvetica,sans-Serif" font-weight="bold" font-size="11.00">asset_types</text>
<text text-anchor="start" x="269.5" y="-391.2" font-family="Helvetica,sans-Serif" font-size="11.00">[table]</text>
<polygon fill="none" stroke="black" points="196.5,-365 196.5,-383 304.5,-383 304.5,-365 196.5,-365"/>
<text text-anchor="start" x="199.5" y="-371.2" font-family="Helvetica,sans-Serif" font-size="11.00">...</text>
<polygon fill="#ffffff" stroke="transparent" points="196.5,-347 196.5,-365 215.5,-365 215.5,-347 196.5,-347"/>
<polygon fill="none" stroke="black" points="196.5,-347 196.5,-365 215.5,-365 215.5,-347 196.5,-347"/>
<text text-anchor="start" x="199.5" y="-353.2" font-family="Helvetica,sans-Serif" font-size="11.00"> &#160;</text>
<polygon fill="#ffffff" stroke="transparent" points="215.5,-347 215.5,-365 279.5,-365 279.5,-347 215.5,-347"/>
<polygon fill="none" stroke="black" points="215.5,-347 215.5,-365 279.5,-365 279.5,-347 215.5,-347"/>
<text text-anchor="start" x="221.5" y="-353.2" font-family="Helvetica,sans-Serif" font-size="11.00">1,156 rows</text>
<polygon fill="#ffffff" stroke="transparent" points="279.5,-347 279.5,-365 304.5,-365 304.5,-347 279.5,-347"/>
<polygon fill="none" stroke="black" points="279.5,-347 279.5,-365 304.5,-365 304.5,-347 279.5,-347"/>
<text text-anchor="start" x="285.5" y="-353.2" font-family="Helvetica,sans-Serif" font-size="11.00">3 &gt;</text>
</a>
</g>
</g>
<!-- asset_types_impact_functions&#45;&gt;asset_types -->
<g id="edge4" class="edge">
<title>asset_types_impact_functions:w&#45;&gt;asset_types:e</title>
<path fill="none" stroke="black" d="M583.69,-506.81C573.74,-498.5 575.33,-479.26 566,-462 548.88,-430.32 562.59,-408.52 533,-388 449.76,-330.27 406.8,-374 305.5,-374"/>
<polygon fill="black" stroke="black" points="589.85,-508.68 596.45,-514.44 593.67,-509.84 597.5,-511 597.5,-511 597.5,-511 593.67,-509.84 598.55,-507.56 589.85,-508.68 589.85,-508.68"/>
<ellipse fill="none" stroke="black" cx="586.78" cy="-507.75" rx="3.2" ry="3.2"/>
</g>
<!-- impact_functions -->
<g id="node7" class="node">
<title>impact_functions</title>
<g id="a_node7"><a xlink:href="../../tables/impact_functions.html" xlink:title="impact_functions" target="_top">
<polygon fill="#ffffff" stroke="transparent" points="386,-398 386,-544 525,-544 525,-398 386,-398"/>
<polygon fill="#f5f5f5" stroke="transparent" points="386.5,-522 386.5,-544 525.5,-544 525.5,-522 386.5,-522"/>
<polygon fill="none" stroke="black" points="386.5,-522 386.5,-544 525.5,-544 525.5,-522 386.5,-522"/>
<text text-anchor="start" x="391.5" y="-531.2" font-family="Helvetica,sans-Serif" font-weight="bold" font-size="11.00">impact_functions</text>
<text text-anchor="start" x="490.5" y="-530.2" font-family="Helvetica,sans-Serif" font-size="11.00">[table]</text>
<polygon fill="none" stroke="black" points="386.5,-500 386.5,-522 525.5,-522 525.5,-500 386.5,-500"/>
<image xlink:href="../../images/primaryKeys.png" width="11px" height="12px" preserveAspectRatio="xMinYMin meet" x="391.5" y="-517"/>
<text text-anchor="start" x="406.5" y="-508.2" font-family="Helvetica,sans-Serif" font-size="11.00">id</text>
<polygon fill="#ffffff" stroke="transparent" points="386.5,-478 386.5,-500 525.5,-500 525.5,-478 386.5,-478"/>
<polygon fill="none" stroke="black" points="386.5,-478 386.5,-500 525.5,-500 525.5,-478 386.5,-478"/>
<text text-anchor="start" x="406.5" y="-486.2" font-family="Helvetica,sans-Serif" font-size="11.00">name</text>
<polygon fill="none" stroke="black" points="386.5,-456 386.5,-478 525.5,-478 525.5,-456 386.5,-456"/>
<image xlink:href="../../images/foreignKeys.png" width="11px" height="12px" preserveAspectRatio="xMinYMin meet" x="391.5" y="-473"/>
<text text-anchor="start" x="406.5" y="-464.2" font-family="Helvetica,sans-Serif" font-size="11.00">hazard_metric_id</text>
<polygon fill="none" stroke="black" points="386.5,-434 386.5,-456 525.5,-456 525.5,-434 386.5,-434"/>
<image xlink:href="../../images/foreignKeys.png" width="11px" height="12px" preserveAspectRatio="xMinYMin meet" x="391.5" y="-451"/>
<text text-anchor="start" x="406.5" y="-442.2" font-family="Helvetica,sans-Serif" font-size="11.00">risk_factor_id</text>
<polygon fill="none" stroke="black" points="386.5,-416 386.5,-434 525.5,-434 525.5,-416 386.5,-416"/>
<text text-anchor="start" x="389.5" y="-422.2" font-family="Helvetica,sans-Serif" font-size="11.00">...</text>
<polygon fill="#ffffff" stroke="transparent" points="386.5,-398 386.5,-416 425.5,-416 425.5,-398 386.5,-398"/>
<polygon fill="none" stroke="black" points="386.5,-398 386.5,-416 425.5,-416 425.5,-398 386.5,-398"/>
<text text-anchor="start" x="389.5" y="-404.2" font-family="Helvetica,sans-Serif" font-size="11.00">&lt; 2</text>
<polygon fill="#ffffff" stroke="transparent" points="425.5,-398 425.5,-416 494.5,-416 494.5,-398 425.5,-398"/>
<polygon fill="none" stroke="black" points="425.5,-398 425.5,-416 494.5,-416 494.5,-398 425.5,-398"/>
<text text-anchor="start" x="436.5" y="-404.2" font-family="Helvetica,sans-Serif" font-size="11.00">3,261 rows</text>
<polygon fill="#ffffff" stroke="transparent" points="494.5,-398 494.5,-416 525.5,-416 525.5,-398 494.5,-398"/>
<polygon fill="none" stroke="black" points="494.5,-398 494.5,-416 525.5,-416 525.5,-398 494.5,-398"/>
<text text-anchor="start" x="506.5" y="-404.2" font-family="Helvetica,sans-Serif" font-size="11.00">2 &gt;</text>
</a>
</g>
</g>
<!-- asset_types_impact_functions&#45;&gt;impact_functions -->
<g id="edge5" class="edge">
<title>asset_types_impact_functions:w&#45;&gt;impact_functions:e</title>
<path fill="none" stroke="black" d="M583.09,-511C562.53,-511 552.63,-511 526.5,-511"/>
<polygon fill="black" stroke="black" points="589.5,-511 597.5,-514.6 593.5,-511 597.5,-511 597.5,-511 597.5,-511 593.5,-511 597.5,-507.4 589.5,-511 589.5,-511"/>
<ellipse fill="none" stroke="black" cx="586.3" cy="-511" rx="3.2" ry="3.2"/>
</g>
<!-- impact_functions&#45;&gt;risk_factors -->
<g id="edge17" class="edge">
<title>impact_functions:w&#45;&gt;risk_factors:e</title>
<path fill="none" stroke="black" d="M371.61,-449.98C361.04,-460.52 364.69,-484.92 345,-495 254.47,-541.38 218.22,-508 116.5,-508"/>
<polygon fill="black" stroke="black" points="377.97,-447.7 386.72,-448.39 381.73,-446.35 385.5,-445 385.5,-445 385.5,-445 381.73,-446.35 384.28,-441.61 377.97,-447.7 377.97,-447.7"/>
<ellipse fill="none" stroke="black" cx="374.96" cy="-448.78" rx="3.2" ry="3.2"/>
</g>
<!-- impact_functions&#45;&gt;hazard_metrics -->
<g id="edge16" class="edge">
<title>impact_functions:w&#45;&gt;hazard_metrics:e</title>
<path fill="none" stroke="black" d="M371.35,-470.06C339.91,-486.02 360.5,-559 314.5,-559"/>
<polygon fill="black" stroke="black" points="377.68,-468.69 386.26,-470.52 381.59,-467.85 385.5,-467 385.5,-467 385.5,-467 381.59,-467.85 384.74,-463.48 377.68,-468.69 377.68,-468.69"/>
<ellipse fill="none" stroke="black" cx="374.55" cy="-469.37" rx="3.2" ry="3.2"/>
</g>
<!-- asset_values -->
<g id="node8" class="node">
<title>asset_values</title>
<g id="a_node8"><a xlink:href="../../tables/asset_values.html" xlink:title="asset_values" target="_top">
<polygon fill="#ffffff" stroke="transparent" points="643.5,-196 643.5,-254 757.5,-254 757.5,-196 643.5,-196"/>
<polygon fill="#f5f5f5" stroke="transparent" points="643.5,-232 643.5,-254 757.5,-254 757.5,-232 643.5,-232"/>
<polygon fill="none" stroke="black" points="643.5,-232 643.5,-254 757.5,-254 757.5,-232 643.5,-232"/>
<text text-anchor="start" x="648.5" y="-241.2" font-family="Helvetica,sans-Serif" font-weight="bold" font-size="11.00">asset_values</text>
<text text-anchor="start" x="722.5" y="-240.2" font-family="Helvetica,sans-Serif" font-size="11.00">[table]</text>
<polygon fill="none" stroke="black" points="643.5,-214 643.5,-232 757.5,-232 757.5,-214 643.5,-214"/>
<text text-anchor="start" x="646.5" y="-220.2" font-family="Helvetica,sans-Serif" font-size="11.00">...</text>
<polygon fill="#ffffff" stroke="transparent" points="643.5,-196 643.5,-214 684.5,-214 684.5,-196 643.5,-196"/>
<polygon fill="none" stroke="black" points="643.5,-196 643.5,-214 684.5,-214 684.5,-196 643.5,-196"/>
<text text-anchor="start" x="646.5" y="-202.2" font-family="Helvetica,sans-Serif" font-size="11.00">&lt; 2</text>
<polygon fill="#ffffff" stroke="transparent" points="684.5,-196 684.5,-214 734.5,-214 734.5,-196 684.5,-196"/>
<polygon fill="none" stroke="black" points="684.5,-196 684.5,-214 734.5,-214 734.5,-196 684.5,-196"/>
<text text-anchor="start" x="697.5" y="-202.2" font-family="Helvetica,sans-Serif" font-size="11.00">8 rows</text>
<polygon fill="#ffffff" stroke="transparent" points="734.5,-196 734.5,-214 757.5,-214 757.5,-196 734.5,-196"/>
<polygon fill="none" stroke="black" points="734.5,-196 734.5,-214 757.5,-214 757.5,-196 734.5,-196"/>
<text text-anchor="start" x="747.5" y="-202.2" font-family="Helvetica,sans-Serif" font-size="11.00"> &#160;</text>
</a>
</g>
</g>
<!-- assets -->
<g id="node9" class="node">
<title>assets</title>
<g id="a_node9"><a xlink:href="../../tables/assets.html" xlink:title="assets" target="_top">
<polygon fill="#ffffff" stroke="transparent" points="393,-88 393,-256 518,-256 518,-88 393,-88"/>
<polygon fill="#f5f5f5" stroke="transparent" points="393.5,-234 393.5,-256 518.5,-256 518.5,-234 393.5,-234"/>
<polygon fill="none" stroke="black" points="393.5,-234 393.5,-256 518.5,-256 518.5,-234 393.5,-234"/>
<text text-anchor="start" x="398.5" y="-243.2" font-family="Helvetica,sans-Serif" font-weight="bold" font-size="11.00">assets</text>
<text text-anchor="start" x="483.5" y="-242.2" font-family="Helvetica,sans-Serif" font-size="11.00">[table]</text>
<polygon fill="none" stroke="black" points="393.5,-212 393.5,-234 518.5,-234 518.5,-212 393.5,-212"/>
<image xlink:href="../../images/primaryKeys.png" width="11px" height="12px" preserveAspectRatio="xMinYMin meet" x="398.5" y="-229"/>
<text text-anchor="start" x="413.5" y="-220.2" font-family="Helvetica,sans-Serif" font-size="11.00">id</text>
<polygon fill="none" stroke="black" points="393.5,-190 393.5,-212 518.5,-212 518.5,-190 393.5,-190"/>
<image xlink:href="../../images/foreignKeys.png" width="11px" height="12px" preserveAspectRatio="xMinYMin meet" x="398.5" y="-207"/>
<text text-anchor="start" x="413.5" y="-198.2" font-family="Helvetica,sans-Serif" font-size="11.00">investment_id</text>
<polygon fill="none" stroke="black" points="393.5,-168 393.5,-190 518.5,-190 518.5,-168 393.5,-168"/>
<image xlink:href="../../images/foreignKeys.png" width="11px" height="12px" preserveAspectRatio="xMinYMin meet" x="398.5" y="-185"/>
<text text-anchor="start" x="413.5" y="-176.2" font-family="Helvetica,sans-Serif" font-size="11.00">asset_type_id</text>
<polygon fill="#ffffff" stroke="transparent" points="393.5,-146 393.5,-168 518.5,-168 518.5,-146 393.5,-146"/>
<polygon fill="none" stroke="black" points="393.5,-146 393.5,-168 518.5,-168 518.5,-146 393.5,-146"/>
<text text-anchor="start" x="413.5" y="-154.2" font-family="Helvetica,sans-Serif" font-size="11.00">is_active</text>
<polygon fill="#ffffff" stroke="transparent" points="393.5,-124 393.5,-146 518.5,-146 518.5,-124 393.5,-124"/>
<polygon fill="none" stroke="black" points="393.5,-124 393.5,-146 518.5,-146 518.5,-124 393.5,-124"/>
<image xlink:href="../../images/foreignKeys.png" width="11px" height="12px" preserveAspectRatio="xMinYMin meet" x="398.5" y="-141"/>
<text text-anchor="start" x="413.5" y="-132.2" font-family="Helvetica,sans-Serif" font-size="11.00">ref_id</text>
<polygon fill="none" stroke="black" points="393.5,-106 393.5,-124 518.5,-124 518.5,-106 393.5,-106"/>
<text text-anchor="start" x="396.5" y="-112.2" font-family="Helvetica,sans-Serif" font-size="11.00">...</text>
<polygon fill="#ffffff" stroke="transparent" points="393.5,-88 393.5,-106 422.5,-106 422.5,-88 393.5,-88"/>
<polygon fill="none" stroke="black" points="393.5,-88 393.5,-106 422.5,-106 422.5,-88 393.5,-88"/>
<text text-anchor="start" x="396.5" y="-94.2" font-family="Helvetica,sans-Serif" font-size="11.00">&lt; 3</text>
<polygon fill="#ffffff" stroke="transparent" points="422.5,-88 422.5,-106 492.5,-106 492.5,-88 422.5,-88"/>
<polygon fill="none" stroke="black" points="422.5,-88 422.5,-106 492.5,-106 492.5,-88 422.5,-88"/>
<text text-anchor="start" x="428.5" y="-94.2" font-family="Helvetica,sans-Serif" font-size="11.00">78,452 rows</text>
<polygon fill="#ffffff" stroke="transparent" points="492.5,-88 492.5,-106 518.5,-106 518.5,-88 492.5,-88"/>
<polygon fill="none" stroke="black" points="492.5,-88 492.5,-106 518.5,-106 518.5,-88 492.5,-88"/>
<text text-anchor="start" x="499.5" y="-94.2" font-family="Helvetica,sans-Serif" font-size="11.00">4 &gt;</text>
</a>
</g>
</g>
<!-- asset_values&#45;&gt;assets -->
<g id="edge7" class="edge">
<title>asset_values:w&#45;&gt;assets:e</title>
<path fill="none" stroke="black" d="M627.86,-223C584.84,-223 568.93,-223 519.5,-223"/>
<polygon fill="black" stroke="black" points="634.5,-223 642.5,-226.6 638.5,-223 642.5,-223 642.5,-223 642.5,-223 638.5,-223 642.5,-219.4 634.5,-223 634.5,-223"/>
<ellipse fill="none" stroke="black" cx="631.3" cy="-223" rx="3.2" ry="3.2"/>
</g>
<!-- assets&#45;&gt;asset_types -->
<g id="edge8" class="edge">
<title>assets:w&#45;&gt;asset_types:e</title>
<path fill="none" stroke="black" d="M378.21,-180.81C308.61,-200.46 395.03,-374 305.5,-374"/>
<polygon fill="black" stroke="black" points="384.56,-180 392.95,-182.57 388.53,-179.5 392.5,-179 392.5,-179 392.5,-179 388.53,-179.5 392.05,-175.43 384.56,-180 384.56,-180"/>
<ellipse fill="none" stroke="black" cx="381.39" cy="-180.4" rx="3.2" ry="3.2"/>
</g>
<!-- investments -->
<g id="node10" class="node">
<title>investments</title>
<g id="a_node10"><a xlink:href="../../tables/investments.html" xlink:title="investments" target="_top">
<polygon fill="#ffffff" stroke="transparent" points="195.5,-162 195.5,-220 305.5,-220 305.5,-162 195.5,-162"/>
<polygon fill="#f5f5f5" stroke="transparent" points="195.5,-198 195.5,-220 305.5,-220 305.5,-198 195.5,-198"/>
<polygon fill="none" stroke="black" points="195.5,-198 195.5,-220 305.5,-220 305.5,-198 195.5,-198"/>
<text text-anchor="start" x="200.5" y="-207.2" font-family="Helvetica,sans-Serif" font-weight="bold" font-size="11.00">investments</text>
<text text-anchor="start" x="270.5" y="-206.2" font-family="Helvetica,sans-Serif" font-size="11.00">[table]</text>
<polygon fill="none" stroke="black" points="195.5,-180 195.5,-198 305.5,-198 305.5,-180 195.5,-180"/>
<text text-anchor="start" x="198.5" y="-186.2" font-family="Helvetica,sans-Serif" font-size="11.00">...</text>
<polygon fill="#ffffff" stroke="transparent" points="195.5,-162 195.5,-180 219.5,-180 219.5,-162 195.5,-162"/>
<polygon fill="none" stroke="black" points="195.5,-162 195.5,-180 219.5,-180 219.5,-162 195.5,-162"/>
<text text-anchor="start" x="198.5" y="-168.2" font-family="Helvetica,sans-Serif" font-size="11.00">&lt; 1</text>
<polygon fill="#ffffff" stroke="transparent" points="219.5,-162 219.5,-180 281.5,-180 281.5,-162 219.5,-162"/>
<polygon fill="none" stroke="black" points="219.5,-162 219.5,-180 281.5,-180 281.5,-162 219.5,-162"/>
<text text-anchor="start" x="223.5" y="-168.2" font-family="Helvetica,sans-Serif" font-size="11.00">2,996 rows</text>
<polygon fill="#ffffff" stroke="transparent" points="281.5,-162 281.5,-180 305.5,-180 305.5,-162 281.5,-162"/>
<polygon fill="none" stroke="black" points="281.5,-162 281.5,-180 305.5,-180 305.5,-162 281.5,-162"/>
<text text-anchor="start" x="286.5" y="-168.2" font-family="Helvetica,sans-Serif" font-size="11.00">2 &gt;</text>
</a>
</g>
</g>
<!-- assets&#45;&gt;investments -->
<g id="edge9" class="edge">
<title>assets:w&#45;&gt;investments:e</title>
<path fill="none" stroke="black" d="M377.82,-200.35C350.84,-197.86 339.67,-189 306.5,-189"/>
<polygon fill="black" stroke="black" points="384.51,-200.65 392.34,-204.6 388.5,-200.82 392.5,-201 392.5,-201 392.5,-201 388.5,-200.82 392.66,-197.4 384.51,-200.65 384.51,-200.65"/>
<ellipse fill="none" stroke="black" cx="381.31" cy="-200.51" rx="3.2" ry="3.2"/>
</g>
<!-- ref_id -->
<g id="node11" class="node">
<title>ref_id</title>
<g id="a_node11"><a xlink:href="../../tables/ref_id.html" xlink:title="ref_id" target="_top">
<polygon fill="#ffffff" stroke="transparent" points="192,-60 192,-118 309,-118 309,-60 192,-60"/>
<polygon fill="#f5f5f5" stroke="transparent" points="192.5,-96 192.5,-118 309.5,-118 309.5,-96 192.5,-96"/>
<polygon fill="none" stroke="black" points="192.5,-96 192.5,-118 309.5,-118 309.5,-96 192.5,-96"/>
<text text-anchor="start" x="197.5" y="-105.2" font-family="Helvetica,sans-Serif" font-weight="bold" font-size="11.00">ref_id</text>
<text text-anchor="start" x="274.5" y="-104.2" font-family="Helvetica,sans-Serif" font-size="11.00">[table]</text>
<polygon fill="none" stroke="black" points="192.5,-78 192.5,-96 309.5,-96 309.5,-78 192.5,-78"/>
<text text-anchor="start" x="195.5" y="-84.2" font-family="Helvetica,sans-Serif" font-size="11.00">...</text>
<polygon fill="#ffffff" stroke="transparent" points="192.5,-60 192.5,-78 214.5,-78 214.5,-60 192.5,-60"/>
<polygon fill="none" stroke="black" points="192.5,-60 192.5,-78 214.5,-78 214.5,-60 192.5,-60"/>
<text text-anchor="start" x="195.5" y="-66.2" font-family="Helvetica,sans-Serif" font-size="11.00">&lt; 1</text>
<polygon fill="#ffffff" stroke="transparent" points="214.5,-60 214.5,-78 287.5,-78 287.5,-60 214.5,-60"/>
<polygon fill="none" stroke="black" points="214.5,-60 214.5,-78 287.5,-78 287.5,-60 214.5,-60"/>
<text text-anchor="start" x="217.5" y="-66.2" font-family="Helvetica,sans-Serif" font-size="11.00">140,067 rows</text>
<polygon fill="#ffffff" stroke="transparent" points="287.5,-60 287.5,-78 309.5,-78 309.5,-60 287.5,-60"/>
<polygon fill="none" stroke="black" points="287.5,-60 287.5,-78 309.5,-78 309.5,-60 287.5,-60"/>
<text text-anchor="start" x="290.5" y="-66.2" font-family="Helvetica,sans-Serif" font-size="11.00">2 &gt;</text>
</a>
</g>
</g>
<!-- assets&#45;&gt;ref_id -->
<g id="edge10" class="edge">
<title>assets:w&#45;&gt;ref_id:e</title>
<path fill="none" stroke="black" d="M382.14,-133.91C350.35,-126.76 348.94,-87 310.5,-87"/>
<polygon fill="black" stroke="black" points="392.12,-130.94 391.28,-138.89 389.69,-138.73 390.53,-130.77 392.12,-130.94"/>
<polyline fill="none" stroke="black" points="392.5,-135 388.52,-134.58 "/>
<ellipse fill="none" stroke="black" cx="385.34" cy="-134.25" rx="3.2" ry="3.2"/>
</g>
<!-- assets_impact_functions -->
<g id="node12" class="node">
<title>assets_impact_functions</title>
<g id="a_node12"><a xlink:href="../../tables/assets_impact_functions.html" xlink:title="assets_impact_functions" target="_top">
<polygon fill="#ffffff" stroke="transparent" points="574,-275 574,-451 827,-451 827,-275 574,-275"/>
<polygon fill="#f5f5f5" stroke="transparent" points="576.5,-427 576.5,-449 825.5,-449 825.5,-427 576.5,-427"/>
<polygon fill="none" stroke="black" points="576.5,-427 576.5,-449 825.5,-449 825.5,-427 576.5,-427"/>
<text text-anchor="start" x="581.5" y="-436.2" font-family="Helvetica,sans-Serif" font-weight="bold" font-size="11.00">assets_impact_functions</text>
<text text-anchor="start" x="790.5" y="-435.2" font-family="Helvetica,sans-Serif" font-size="11.00">[table]</text>
<polygon fill="none" stroke="black" points="576.5,-405 576.5,-427 740.5,-427 740.5,-405 576.5,-405"/>
<image xlink:href="../../images/primaryKeys.png" width="11px" height="12px" preserveAspectRatio="xMinYMin meet" x="581.5" y="-422"/>
<text text-anchor="start" x="596.5" y="-413.2" font-family="Helvetica,sans-Serif" font-size="11.00">id</text>
<polygon fill="none" stroke="black" points="740.5,-405 740.5,-427 825.5,-427 825.5,-405 740.5,-405"/>
<text text-anchor="start" x="743.5" y="-413.2" font-family="Helvetica,sans-Serif" font-size="11.00">serial[10]</text>
<polygon fill="#ffffff" stroke="transparent" points="576.5,-383 576.5,-405 740.5,-405 740.5,-383 576.5,-383"/>
<polygon fill="none" stroke="black" points="576.5,-383 576.5,-405 740.5,-405 740.5,-383 576.5,-383"/>
<image xlink:href="../../images/foreignKeys.png" width="11px" height="12px" preserveAspectRatio="xMinYMin meet" x="581.5" y="-400"/>
<text text-anchor="start" x="596.5" y="-391.2" font-family="Helvetica,sans-Serif" font-size="11.00">asset_id</text>
<polygon fill="none" stroke="black" points="740.5,-383 740.5,-405 825.5,-405 825.5,-383 740.5,-383"/>
<text text-anchor="start" x="743.5" y="-391.2" font-family="Helvetica,sans-Serif" font-size="11.00">int4[10]</text>
<polygon fill="none" stroke="black" points="576.5,-361 576.5,-383 740.5,-383 740.5,-361 576.5,-361"/>
<image xlink:href="../../images/foreignKeys.png" width="11px" height="12px" preserveAspectRatio="xMinYMin meet" x="581.5" y="-378"/>
<text text-anchor="start" x="596.5" y="-369.2" font-family="Helvetica,sans-Serif" font-size="11.00">impact_function_id</text>
<polygon fill="none" stroke="black" points="740.5,-361 740.5,-383 825.5,-383 825.5,-361 740.5,-361"/>
<text text-anchor="start" x="743.5" y="-369.2" font-family="Helvetica,sans-Serif" font-size="11.00">int4[10]</text>
<polygon fill="#ffffff" stroke="transparent" points="576.5,-339 576.5,-361 740.5,-361 740.5,-339 576.5,-339"/>
<polygon fill="none" stroke="black" points="576.5,-339 576.5,-361 740.5,-361 740.5,-339 576.5,-339"/>
<image xlink:href="../../images/foreignKeys.png" width="11px" height="12px" preserveAspectRatio="xMinYMin meet" x="581.5" y="-356"/>
<text text-anchor="start" x="596.5" y="-347.2" font-family="Helvetica,sans-Serif" font-size="11.00">risk_factor_id</text>
<polygon fill="none" stroke="black" points="740.5,-339 740.5,-361 825.5,-361 825.5,-339 740.5,-339"/>
<text text-anchor="start" x="743.5" y="-347.2" font-family="Helvetica,sans-Serif" font-size="11.00">int4[10]</text>
<polygon fill="none" stroke="black" points="576.5,-317 576.5,-339 740.5,-339 740.5,-317 576.5,-317"/>
<text text-anchor="start" x="596.5" y="-325.2" font-family="Helvetica,sans-Serif" font-size="11.00">created_at</text>
<polygon fill="none" stroke="black" points="740.5,-317 740.5,-339 825.5,-339 825.5,-317 740.5,-317"/>
<text text-anchor="start" x="743.5" y="-325.2" font-family="Helvetica,sans-Serif" font-size="11.00">timestamp[29,6]</text>
<polygon fill="none" stroke="black" points="576.5,-295 576.5,-317 740.5,-317 740.5,-295 576.5,-295"/>
<text text-anchor="start" x="596.5" y="-303.2" font-family="Helvetica,sans-Serif" font-size="11.00">updated_at</text>
<polygon fill="none" stroke="black" points="740.5,-295 740.5,-317 825.5,-317 825.5,-295 740.5,-295"/>
<text text-anchor="start" x="743.5" y="-303.2" font-family="Helvetica,sans-Serif" font-size="11.00">timestamp[29,6]</text>
<polygon fill="#ffffff" stroke="transparent" points="576.5,-277 576.5,-295 632.5,-295 632.5,-277 576.5,-277"/>
<polygon fill="none" stroke="black" points="576.5,-277 576.5,-295 632.5,-295 632.5,-277 576.5,-277"/>
<text text-anchor="start" x="579.5" y="-283.2" font-family="Helvetica,sans-Serif" font-size="11.00">&lt; 3</text>
<polygon fill="#ffffff" stroke="transparent" points="632.5,-277 632.5,-295 740.5,-295 740.5,-277 632.5,-277"/>
<polygon fill="none" stroke="black" points="632.5,-277 632.5,-295 740.5,-295 740.5,-277 632.5,-277"/>
<text text-anchor="start" x="670.5" y="-283.2" font-family="Helvetica,sans-Serif" font-size="11.00">654,369 rows</text>
<polygon fill="#ffffff" stroke="transparent" points="740.5,-277 740.5,-295 825.5,-295 825.5,-277 740.5,-277"/>
<polygon fill="none" stroke="black" points="740.5,-277 740.5,-295 825.5,-295 825.5,-277 740.5,-277"/>
<text text-anchor="start" x="806.5" y="-283.2" font-family="Helvetica,sans-Serif" font-size="11.00">0 &gt;</text>
<polygon fill="none" stroke="black" stroke-width="2" points="575,-276 575,-450 826,-450 826,-276 575,-276"/>
</a>
</g>
</g>
<!-- assets_impact_functions&#45;&gt;risk_factors -->
<g id="edge13" class="edge">
<title>assets_impact_functions:w&#45;&gt;risk_factors:e</title>
<path fill="none" stroke="black" d="M561.05,-349.53C458.41,-343.5 225.5,-281.72 156,-337 94.95,-385.55 194.5,-508 116.5,-508"/>
<polygon fill="black" stroke="black" points="567.5,-349.74 575.38,-353.6 571.5,-349.87 575.5,-350 575.5,-350 575.5,-350 571.5,-349.87 575.62,-346.4 567.5,-349.74 567.5,-349.74"/>
<ellipse fill="none" stroke="black" cx="564.31" cy="-349.64" rx="3.2" ry="3.2"/>
</g>
<!-- assets_impact_functions&#45;&gt;impact_functions -->
<g id="edge12" class="edge">
<title>assets_impact_functions:w&#45;&gt;impact_functions:e</title>
<path fill="none" stroke="black" d="M561.2,-375.16C523.54,-395.85 586.12,-511 526.5,-511"/>
<polygon fill="black" stroke="black" points="567.69,-373.73 576.28,-375.51 571.59,-372.86 575.5,-372 575.5,-372 575.5,-372 571.59,-372.86 574.72,-368.49 567.69,-373.73 567.69,-373.73"/>
<ellipse fill="none" stroke="black" cx="564.56" cy="-374.42" rx="3.2" ry="3.2"/>
</g>
<!-- assets_impact_functions&#45;&gt;assets -->
<g id="edge11" class="edge">
<title>assets_impact_functions:w&#45;&gt;assets:e</title>
<path fill="none" stroke="black" d="M561.23,-391.58C509.24,-370.8 593.85,-223 519.5,-223"/>
<polygon fill="black" stroke="black" points="567.61,-392.66 574.9,-397.55 571.56,-393.33 575.5,-394 575.5,-394 575.5,-394 571.56,-393.33 576.1,-390.45 567.61,-392.66 567.61,-392.66"/>
<ellipse fill="none" stroke="black" cx="564.46" cy="-392.13" rx="3.2" ry="3.2"/>
</g>
<!-- assets_tags -->
<g id="node13" class="node">
<title>assets_tags</title>
<g id="a_node13"><a xlink:href="../../tables/assets_tags.html" xlink:title="assets_tags" target="_top">
<polygon fill="#ffffff" stroke="transparent" points="646.5,-117 646.5,-175 754.5,-175 754.5,-117 646.5,-117"/>
<polygon fill="#f5f5f5" stroke="transparent" points="646.5,-153 646.5,-175 754.5,-175 754.5,-153 646.5,-153"/>
<polygon fill="none" stroke="black" points="646.5,-153 646.5,-175 754.5,-175 754.5,-153 646.5,-153"/>
<text text-anchor="start" x="651.5" y="-162.2" font-family="Helvetica,sans-Serif" font-weight="bold" font-size="11.00">assets_tags</text>
<text text-anchor="start" x="719.5" y="-161.2" font-family="Helvetica,sans-Serif" font-size="11.00">[table]</text>
<polygon fill="none" stroke="black" points="646.5,-135 646.5,-153 754.5,-153 754.5,-135 646.5,-135"/>
<text text-anchor="start" x="649.5" y="-141.2" font-family="Helvetica,sans-Serif" font-size="11.00">...</text>
<polygon fill="#ffffff" stroke="transparent" points="646.5,-117 646.5,-135 671.5,-135 671.5,-117 646.5,-117"/>
<polygon fill="none" stroke="black" points="646.5,-117 646.5,-135 671.5,-135 671.5,-117 646.5,-117"/>
<text text-anchor="start" x="649.5" y="-123.2" font-family="Helvetica,sans-Serif" font-size="11.00">&lt; 2</text>
<polygon fill="#ffffff" stroke="transparent" points="671.5,-117 671.5,-135 739.5,-135 739.5,-117 671.5,-117"/>
<polygon fill="none" stroke="black" points="671.5,-117 671.5,-135 739.5,-135 739.5,-117 671.5,-117"/>
<text text-anchor="start" x="675.5" y="-123.2" font-family="Helvetica,sans-Serif" font-size="11.00">22,144 rows</text>
<polygon fill="#ffffff" stroke="transparent" points="739.5,-117 739.5,-135 754.5,-135 754.5,-117 739.5,-117"/>
<polygon fill="none" stroke="black" points="739.5,-117 739.5,-135 754.5,-135 754.5,-117 739.5,-117"/>
<text text-anchor="start" x="744.5" y="-123.2" font-family="Helvetica,sans-Serif" font-size="11.00"> &#160;</text>
</a>
</g>
</g>
<!-- assets_tags&#45;&gt;assets -->
<g id="edge14" class="edge">
<title>assets_tags:w&#45;&gt;assets:e</title>
<path fill="none" stroke="black" d="M630.91,-145.03C603.47,-149.3 594.7,-166.17 566,-185 543.68,-199.64 546.19,-223 519.5,-223"/>
<polygon fill="black" stroke="black" points="637.52,-144.57 645.75,-147.59 641.51,-144.28 645.5,-144 645.5,-144 645.5,-144 641.51,-144.28 645.25,-140.41 637.52,-144.57 637.52,-144.57"/>
<ellipse fill="none" stroke="black" cx="634.33" cy="-144.79" rx="3.2" ry="3.2"/>
</g>
<!-- locations -->
<g id="node14" class="node">
<title>locations</title>
<g id="a_node14"><a xlink:href="../../tables/locations.html" xlink:title="locations" target="_top">
<polygon fill="#ffffff" stroke="transparent" points="645,-37 645,-95 756,-95 756,-37 645,-37"/>
<polygon fill="#f5f5f5" stroke="transparent" points="645.5,-73 645.5,-95 756.5,-95 756.5,-73 645.5,-73"/>
<polygon fill="none" stroke="black" points="645.5,-73 645.5,-95 756.5,-95 756.5,-73 645.5,-73"/>
<text text-anchor="start" x="650.5" y="-82.2" font-family="Helvetica,sans-Serif" font-weight="bold" font-size="11.00">locations</text>
<text text-anchor="start" x="721.5" y="-81.2" font-family="Helvetica,sans-Serif" font-size="11.00">[table]</text>
<polygon fill="none" stroke="black" points="645.5,-55 645.5,-73 756.5,-73 756.5,-55 645.5,-55"/>
<text text-anchor="start" x="648.5" y="-61.2" font-family="Helvetica,sans-Serif" font-size="11.00">...</text>
<polygon fill="#ffffff" stroke="transparent" points="645.5,-37 645.5,-55 667.5,-55 667.5,-37 645.5,-37"/>
<polygon fill="none" stroke="black" points="645.5,-37 645.5,-55 667.5,-55 667.5,-37 645.5,-37"/>
<text text-anchor="start" x="648.5" y="-43.2" font-family="Helvetica,sans-Serif" font-size="11.00">&lt; 2</text>
<polygon fill="#ffffff" stroke="transparent" points="667.5,-37 667.5,-55 734.5,-55 734.5,-37 667.5,-37"/>
<polygon fill="none" stroke="black" points="667.5,-37 667.5,-55 734.5,-55 734.5,-37 667.5,-37"/>
<text text-anchor="start" x="670.5" y="-43.2" font-family="Helvetica,sans-Serif" font-size="11.00">81,629 rows</text>
<polygon fill="#ffffff" stroke="transparent" points="734.5,-37 734.5,-55 756.5,-55 756.5,-37 734.5,-37"/>
<polygon fill="none" stroke="black" points="734.5,-37 734.5,-55 756.5,-55 756.5,-37 734.5,-37"/>
<text text-anchor="start" x="737.5" y="-43.2" font-family="Helvetica,sans-Serif" font-size="11.00">3 &gt;</text>
</a>
</g>
</g>
<!-- locations&#45;&gt;assets -->
<g id="edge18" class="edge">
<title>locations:w&#45;&gt;assets:e</title>
<path fill="none" stroke="black" d="M630.07,-64.67C601.35,-67.62 588.85,-80.41 566,-106 528.73,-147.74 575.46,-223 519.5,-223"/>
<polygon fill="black" stroke="black" points="636.51,-64.37 644.67,-67.6 640.5,-64.19 644.5,-64 644.5,-64 644.5,-64 640.5,-64.19 644.33,-60.4 636.51,-64.37 636.51,-64.37"/>
<ellipse fill="none" stroke="black" cx="633.31" cy="-64.52" rx="3.2" ry="3.2"/>
</g>
<!-- locations&#45;&gt;ref_id -->
<g id="edge19" class="edge">
<title>locations:w&#45;&gt;ref_id:e</title>
<path fill="none" stroke="black" d="M630.02,-64.01C523.25,-64.14 491.06,-65.89 378,-77 347.82,-79.96 340.83,-87 310.5,-87"/>
<polygon fill="black" stroke="black" points="636.5,-64 644.5,-67.6 640.5,-64 644.5,-64 644.5,-64 644.5,-64 640.5,-64 644.5,-60.4 636.5,-64 636.5,-64"/>
<ellipse fill="none" stroke="black" cx="633.3" cy="-64.01" rx="3.2" ry="3.2"/>
</g>
<!-- rf_category_risk_factors -->
<g id="node15" class="node">
<title>rf_category_risk_factors</title>
<g id="a_node15"><a xlink:href="../../tables/rf_category_risk_factors.html" xlink:title="rf_category_risk_factors" target="_top">
<polygon fill="#ffffff" stroke="transparent" points="164,-426 164,-484 337,-484 337,-426 164,-426"/>
<polygon fill="#f5f5f5" stroke="transparent" points="164.5,-462 164.5,-484 337.5,-484 337.5,-462 164.5,-462"/>
<polygon fill="none" stroke="black" points="164.5,-462 164.5,-484 337.5,-484 337.5,-462 164.5,-462"/>
<text text-anchor="start" x="169.5" y="-471.2" font-family="Helvetica,sans-Serif" font-weight="bold" font-size="11.00">rf_category_risk_factors</text>
<text text-anchor="start" x="302.5" y="-470.2" font-family="Helvetica,sans-Serif" font-size="11.00">[table]</text>
<polygon fill="none" stroke="black" points="164.5,-444 164.5,-462 337.5,-462 337.5,-444 164.5,-444"/>
<text text-anchor="start" x="167.5" y="-450.2" font-family="Helvetica,sans-Serif" font-size="11.00">...</text>
<polygon fill="#ffffff" stroke="transparent" points="164.5,-426 164.5,-444 232.5,-444 232.5,-426 164.5,-426"/>
<polygon fill="none" stroke="black" points="164.5,-426 164.5,-444 232.5,-444 232.5,-426 164.5,-426"/>
<text text-anchor="start" x="167.5" y="-432.2" font-family="Helvetica,sans-Serif" font-size="11.00">&lt; 2</text>
<polygon fill="#ffffff" stroke="transparent" points="232.5,-426 232.5,-444 301.5,-444 301.5,-426 232.5,-426"/>
<polygon fill="none" stroke="black" points="232.5,-426 232.5,-444 301.5,-444 301.5,-426 232.5,-426"/>
<text text-anchor="start" x="258.5" y="-432.2" font-family="Helvetica,sans-Serif" font-size="11.00">17 rows</text>
<polygon fill="#ffffff" stroke="transparent" points="301.5,-426 301.5,-444 337.5,-444 337.5,-426 301.5,-426"/>
<polygon fill="none" stroke="black" points="301.5,-426 301.5,-444 337.5,-444 337.5,-426 301.5,-426"/>
<text text-anchor="start" x="327.5" y="-432.2" font-family="Helvetica,sans-Serif" font-size="11.00"> &#160;</text>
</a>
</g>
</g>
<!-- rf_category_risk_factors&#45;&gt;risk_factors -->
<g id="edge20" class="edge">
<title>rf_category_risk_factors:w&#45;&gt;risk_factors:e</title>
<path fill="none" stroke="black" d="M149.98,-458.08C136.1,-471.69 142.63,-508 116.5,-508"/>
<polygon fill="black" stroke="black" points="156.01,-455.81 164.77,-456.37 159.76,-454.41 163.5,-453 163.5,-453 163.5,-453 159.76,-454.41 162.23,-449.63 156.01,-455.81 156.01,-455.81"/>
<ellipse fill="none" stroke="black" cx="153.01" cy="-456.94" rx="3.2" ry="3.2"/>
</g>
</g>
</svg>
