<?xml version="1.0" encoding="UTF-8" standalone="no"?>
<!DOCTYPE svg PUBLIC "-//W3C//DTD SVG 1.1//EN"
 "http://www.w3.org/Graphics/SVG/1.1/DTD/svg11.dtd">
<!-- Generated by graphviz version 2.50.0 (20211204.2007)
 -->
<!-- Title: twoDegreesRelationshipsDiagram Pages: 1 -->
<svg width="666pt" height="605pt"
 viewBox="0.00 0.00 666.00 605.00" xmlns="http://www.w3.org/2000/svg" xmlns:xlink="http://www.w3.org/1999/xlink">
<g id="graph0" class="graph" transform="scale(1 1) rotate(0) translate(4 601)">
<title>twoDegreesRelationshipsDiagram</title>
<polygon fill="#ffffff" stroke="transparent" points="-4,4 -4,-601 662,-601 662,4 -4,4"/>
<text text-anchor="middle" x="72.5" y="-7.2" font-family="Helvetica,sans-Serif" font-size="11.00">Generated by SchemaSpy</text>
<!-- asset_types_impact_functions -->
<g id="node1" class="node">
<title>asset_types_impact_functions</title>
<g id="a_node1"><a xlink:href="../../tables/asset_types_impact_functions.html" xlink:title="asset_types_impact_functions" target="_top">
<polygon fill="#ffffff" stroke="transparent" points="446,-37 446,-161 650,-161 650,-37 446,-37"/>
<polygon fill="#f5f5f5" stroke="transparent" points="446,-139 446,-161 650,-161 650,-139 446,-139"/>
<polygon fill="none" stroke="black" points="446,-139 446,-161 650,-161 650,-139 446,-139"/>
<text text-anchor="start" x="451" y="-148.2" font-family="Helvetica,sans-Serif" font-weight="bold" font-size="11.00">asset_types_impact_functions</text>
<text text-anchor="start" x="615" y="-147.2" font-family="Helvetica,sans-Serif" font-size="11.00">[table]</text>
<polygon fill="none" stroke="black" points="446,-117 446,-139 650,-139 650,-117 446,-117"/>
<image xlink:href="../../images/primaryKeys.png" width="11px" height="12px" preserveAspectRatio="xMinYMin meet" x="451" y="-134"/>
<text text-anchor="start" x="471" y="-125.2" font-family="Helvetica,sans-Serif" font-size="11.00">asset_type_id</text>
<polygon fill="none" stroke="black" points="446,-95 446,-117 650,-117 650,-95 446,-95"/>
<image xlink:href="../../images/primaryKeys.png" width="11px" height="12px" preserveAspectRatio="xMinYMin meet" x="451" y="-112"/>
<text text-anchor="start" x="471" y="-103.2" font-family="Helvetica,sans-Serif" font-size="11.00">impact_function_id</text>
<polygon fill="none" stroke="black" points="446,-73 446,-95 650,-95 650,-73 446,-73"/>
<image xlink:href="../../images/foreignKeys.png" width="11px" height="12px" preserveAspectRatio="xMinYMin meet" x="451" y="-90"/>
<text text-anchor="start" x="471" y="-81.2" font-family="Helvetica,sans-Serif" font-size="11.00">risk_factor_id</text>
<polygon fill="none" stroke="black" points="446,-55 446,-73 650,-73 650,-55 446,-55"/>
<text text-anchor="start" x="449" y="-61.2" font-family="Helvetica,sans-Serif" font-size="11.00">...</text>
<polygon fill="#ffffff" stroke="transparent" points="446,-37 446,-55 526,-55 526,-37 446,-37"/>
<polygon fill="none" stroke="black" points="446,-37 446,-55 526,-55 526,-37 446,-37"/>
<text text-anchor="start" x="449" y="-43.2" font-family="Helvetica,sans-Serif" font-size="11.00">&lt; 3</text>
<polygon fill="#ffffff" stroke="transparent" points="526,-37 526,-55 607,-55 607,-37 526,-37"/>
<polygon fill="none" stroke="black" points="526,-37 526,-55 607,-55 607,-37 526,-37"/>
<text text-anchor="start" x="558" y="-43.2" font-family="Helvetica,sans-Serif" font-size="11.00">625 rows</text>
<polygon fill="#ffffff" stroke="transparent" points="607,-37 607,-55 650,-55 650,-37 607,-37"/>
<polygon fill="none" stroke="black" points="607,-37 607,-55 650,-55 650,-37 607,-37"/>
<text text-anchor="start" x="640" y="-43.2" font-family="Helvetica,sans-Serif" font-size="11.00"> &#160;</text>
</a>
</g>
</g>
<!-- asset_types -->
<g id="node2" class="node">
<title>asset_types</title>
<g id="a_node2"><a xlink:href="../../tables/asset_types.html" xlink:title="asset_types" target="_top">
<polygon fill="#ffffff" stroke="transparent" points="8,-226 8,-402 186,-402 186,-226 8,-226"/>
<polygon fill="#f5f5f5" stroke="transparent" points="10,-378 10,-400 184,-400 184,-378 10,-378"/>
<polygon fill="none" stroke="black" points="10,-378 10,-400 184,-400 184,-378 10,-378"/>
<text text-anchor="start" x="15" y="-387.2" font-family="Helvetica,sans-Serif" font-weight="bold" font-size="11.00">asset_types</text>
<text text-anchor="start" x="149" y="-386.2" font-family="Helvetica,sans-Serif" font-size="11.00">[table]</text>
<polygon fill="none" stroke="black" points="10,-356 10,-378 99,-378 99,-356 10,-356"/>
<image xlink:href="../../images/primaryKeys.png" width="11px" height="12px" preserveAspectRatio="xMinYMin meet" x="15" y="-373"/>
<text text-anchor="start" x="30" y="-364.2" font-family="Helvetica,sans-Serif" font-size="11.00">id</text>
<polygon fill="none" stroke="black" points="99,-356 99,-378 184,-378 184,-356 99,-356"/>
<text text-anchor="start" x="102" y="-364.2" font-family="Helvetica,sans-Serif" font-size="11.00">serial[10]</text>
<polygon fill="#ffffff" stroke="transparent" points="10,-334 10,-356 99,-356 99,-334 10,-334"/>
<polygon fill="none" stroke="black" points="10,-334 10,-356 99,-356 99,-334 10,-334"/>
<text text-anchor="start" x="30" y="-342.2" font-family="Helvetica,sans-Serif" font-size="11.00">name</text>
<polygon fill="none" stroke="black" points="99,-334 99,-356 184,-356 184,-334 99,-334"/>
<text text-anchor="start" x="102" y="-342.2" font-family="Helvetica,sans-Serif" font-size="11.00">varchar[128]</text>
<polygon fill="none" stroke="black" points="10,-312 10,-334 99,-334 99,-312 10,-312"/>
<text text-anchor="start" x="30" y="-320.2" font-family="Helvetica,sans-Serif" font-size="11.00">descr</text>
<polygon fill="none" stroke="black" points="99,-312 99,-334 184,-334 184,-312 99,-312"/>
<text text-anchor="start" x="102" y="-320.2" font-family="Helvetica,sans-Serif" font-size="11.00">varchar[256]</text>
<polygon fill="none" stroke="black" points="10,-290 10,-312 99,-312 99,-290 10,-290"/>
<text text-anchor="start" x="30" y="-298.2" font-family="Helvetica,sans-Serif" font-size="11.00">created_at</text>
<polygon fill="none" stroke="black" points="99,-290 99,-312 184,-312 184,-290 99,-290"/>
<text text-anchor="start" x="102" y="-298.2" font-family="Helvetica,sans-Serif" font-size="11.00">timestamp[29,6]</text>
<polygon fill="none" stroke="black" points="10,-268 10,-290 99,-290 99,-268 10,-268"/>
<text text-anchor="start" x="30" y="-276.2" font-family="Helvetica,sans-Serif" font-size="11.00">updated_at</text>
<polygon fill="none" stroke="black" points="99,-268 99,-290 184,-290 184,-268 99,-268"/>
<text text-anchor="start" x="102" y="-276.2" font-family="Helvetica,sans-Serif" font-size="11.00">timestamp[29,6]</text>
<polygon fill="#ffffff" stroke="transparent" points="10,-246 10,-268 99,-268 99,-246 10,-246"/>
<polygon fill="none" stroke="black" points="10,-246 10,-268 99,-268 99,-246 10,-246"/>
<text text-anchor="start" x="30" y="-254.2" font-family="Helvetica,sans-Serif" font-size="11.00">is_active</text>
<polygon fill="none" stroke="black" points="99,-246 99,-268 184,-268 184,-246 99,-246"/>
<text text-anchor="start" x="102" y="-254.2" font-family="Helvetica,sans-Serif" font-size="11.00">bool[1]</text>
<polygon fill="#ffffff" stroke="transparent" points="10,-228 10,-246 35,-246 35,-228 10,-228"/>
<polygon fill="none" stroke="black" points="10,-228 10,-246 35,-246 35,-228 10,-228"/>
<text text-anchor="start" x="13" y="-234.2" font-family="Helvetica,sans-Serif" font-size="11.00">&lt; 0</text>
<polygon fill="#ffffff" stroke="transparent" points="35,-228 35,-246 99,-246 99,-228 35,-228"/>
<polygon fill="none" stroke="black" points="35,-228 35,-246 99,-246 99,-228 35,-228"/>
<text text-anchor="start" x="41" y="-234.2" font-family="Helvetica,sans-Serif" font-size="11.00">1,156 rows</text>
<polygon fill="#ffffff" stroke="transparent" points="99,-228 99,-246 184,-246 184,-228 99,-228"/>
<polygon fill="none" stroke="black" points="99,-228 99,-246 184,-246 184,-228 99,-228"/>
<text text-anchor="start" x="165" y="-234.2" font-family="Helvetica,sans-Serif" font-size="11.00">3 &gt;</text>
<polygon fill="none" stroke="black" stroke-width="2" points="9,-227 9,-401 185,-401 185,-227 9,-227"/>
</a>
</g>
</g>
<!-- asset_types_impact_functions&#45;&gt;asset_types -->
<g id="edge1" class="edge">
<title>asset_types_impact_functions:w&#45;&gt;asset_types:e</title>
<path fill="none" stroke="black" d="M430.36,-129.66C372.77,-144.96 463.3,-261.99 405,-317 346.8,-371.91 302.81,-318.39 227,-344 206.84,-350.81 206.28,-367 185,-367"/>
<polygon fill="black" stroke="black" points="437.05,-128.9 445.41,-131.58 441.03,-128.45 445,-128 445,-128 445,-128 441.03,-128.45 444.59,-124.42 437.05,-128.9 437.05,-128.9"/>
<ellipse fill="none" stroke="black" cx="433.87" cy="-129.26" rx="3.2" ry="3.2"/>
</g>
<!-- impact_functions -->
<g id="node3" class="node">
<title>impact_functions</title>
<g id="a_node3"><a xlink:href="../../tables/impact_functions.html" xlink:title="impact_functions" target="_top">
<polygon fill="#ffffff" stroke="transparent" points="248.5,-94 248.5,-152 383.5,-152 383.5,-94 248.5,-94"/>
<polygon fill="#f5f5f5" stroke="transparent" points="249,-130 249,-152 384,-152 384,-130 249,-130"/>
<polygon fill="none" stroke="black" points="249,-130 249,-152 384,-152 384,-130 249,-130"/>
<text text-anchor="start" x="254" y="-139.2" font-family="Helvetica,sans-Serif" font-weight="bold" font-size="11.00">impact_functions</text>
<text text-anchor="start" x="349" y="-138.2" font-family="Helvetica,sans-Serif" font-size="11.00">[table]</text>
<polygon fill="none" stroke="black" points="249,-112 249,-130 384,-130 384,-112 249,-112"/>
<text text-anchor="start" x="252" y="-118.2" font-family="Helvetica,sans-Serif" font-size="11.00">...</text>
<polygon fill="#ffffff" stroke="transparent" points="249,-94 249,-112 286,-112 286,-94 249,-94"/>
<polygon fill="none" stroke="black" points="249,-94 249,-112 286,-112 286,-94 249,-94"/>
<text text-anchor="start" x="252" y="-100.2" font-family="Helvetica,sans-Serif" font-size="11.00">&lt; 2</text>
<polygon fill="#ffffff" stroke="transparent" points="286,-94 286,-112 354,-112 354,-94 286,-94"/>
<polygon fill="none" stroke="black" points="286,-94 286,-112 354,-112 354,-94 286,-94"/>
<text text-anchor="start" x="296" y="-100.2" font-family="Helvetica,sans-Serif" font-size="11.00">3,261 rows</text>
<polygon fill="#ffffff" stroke="transparent" points="354,-94 354,-112 384,-112 384,-94 354,-94"/>
<polygon fill="none" stroke="black" points="354,-94 354,-112 384,-112 384,-94 354,-94"/>
<text text-anchor="start" x="365" y="-100.2" font-family="Helvetica,sans-Serif" font-size="11.00">2 &gt;</text>
</a>
</g>
</g>
<!-- asset_types_impact_functions&#45;&gt;impact_functions -->
<g id="edge2" class="edge">
<title>asset_types_impact_functions:w&#45;&gt;impact_functions:e</title>
<path fill="none" stroke="black" d="M430.65,-107.61C414.54,-111.47 406.9,-121 385,-121"/>
<polygon fill="black" stroke="black" points="437.05,-106.89 445.4,-109.58 441.02,-106.44 445,-106 445,-106 445,-106 441.02,-106.44 444.6,-102.42 437.05,-106.89 437.05,-106.89"/>
<ellipse fill="none" stroke="black" cx="433.87" cy="-107.25" rx="3.2" ry="3.2"/>
</g>
<!-- risk_factors -->
<g id="node4" class="node">
<title>risk_factors</title>
<g id="a_node4"><a xlink:href="../../tables/risk_factors.html" xlink:title="risk_factors" target="_top">
<polygon fill="#ffffff" stroke="transparent" points="43.5,-68 43.5,-126 150.5,-126 150.5,-68 43.5,-68"/>
<polygon fill="#f5f5f5" stroke="transparent" points="44,-104 44,-126 151,-126 151,-104 44,-104"/>
<polygon fill="none" stroke="black" points="44,-104 44,-126 151,-126 151,-104 44,-104"/>
<text text-anchor="start" x="49" y="-113.2" font-family="Helvetica,sans-Serif" font-weight="bold" font-size="11.00">risk_factors</text>
<text text-anchor="start" x="116" y="-112.2" font-family="Helvetica,sans-Serif" font-size="11.00">[table]</text>
<polygon fill="none" stroke="black" points="44,-86 44,-104 151,-104 151,-86 44,-86"/>
<text text-anchor="start" x="47" y="-92.2" font-family="Helvetica,sans-Serif" font-size="11.00">...</text>
<polygon fill="#ffffff" stroke="transparent" points="44,-68 44,-86 70,-86 70,-68 44,-68"/>
<polygon fill="none" stroke="black" points="44,-68 44,-86 70,-86 70,-68 44,-68"/>
<text text-anchor="start" x="47" y="-74.2" font-family="Helvetica,sans-Serif" font-size="11.00"> &#160;</text>
<polygon fill="#ffffff" stroke="transparent" points="70,-68 70,-86 122,-86 122,-68 70,-68"/>
<polygon fill="none" stroke="black" points="70,-68 70,-86 122,-86 122,-68 70,-68"/>
<text text-anchor="start" x="79" y="-74.2" font-family="Helvetica,sans-Serif" font-size="11.00">17 rows</text>
<polygon fill="#ffffff" stroke="transparent" points="122,-68 122,-86 151,-86 151,-68 122,-68"/>
<polygon fill="none" stroke="black" points="122,-68 122,-86 151,-86 151,-68 122,-68"/>
<text text-anchor="start" x="132" y="-74.2" font-family="Helvetica,sans-Serif" font-size="11.00">7 &gt;</text>
</a>
</g>
</g>
<!-- asset_types_impact_functions&#45;&gt;risk_factors -->
<g id="edge3" class="edge">
<title>asset_types_impact_functions:w&#45;&gt;risk_factors:e</title>
<path fill="none" stroke="black" d="M430.58,-83.79C422.73,-83.54 416.81,-83.15 405,-83 325.9,-82.01 305.86,-76.73 227,-83 193.35,-85.68 185.76,-95 152,-95"/>
<polygon fill="black" stroke="black" points="437,-83.88 444.95,-87.6 441,-83.94 445,-84 445,-84 445,-84 441,-83.94 445.05,-80.4 437,-83.88 437,-83.88"/>
<ellipse fill="none" stroke="black" cx="433.8" cy="-83.83" rx="3.2" ry="3.2"/>
</g>
<!-- impact_functions&#45;&gt;risk_factors -->
<g id="edge14" class="edge">
<title>impact_functions:w&#45;&gt;risk_factors:e</title>
<path fill="none" stroke="black" d="M233.42,-119.95C201.42,-115.08 190.85,-95 152,-95"/>
<polygon fill="black" stroke="black" points="240.02,-120.42 247.74,-124.59 244.01,-120.71 248,-121 248,-121 248,-121 244.01,-120.71 248.26,-117.41 240.02,-120.42 240.02,-120.42"/>
<ellipse fill="none" stroke="black" cx="236.83" cy="-120.19" rx="3.2" ry="3.2"/>
</g>
<!-- asset_types_metadata -->
<g id="node5" class="node">
<title>asset_types_metadata</title>
<g id="a_node5"><a xlink:href="../../tables/asset_types_metadata.html" xlink:title="asset_types_metadata" target="_top">
<polygon fill="#ffffff" stroke="transparent" points="235,-200 235,-306 397,-306 397,-200 235,-200"/>
<polygon fill="#f5f5f5" stroke="transparent" points="235,-284 235,-306 397,-306 397,-284 235,-284"/>
<polygon fill="none" stroke="black" points="235,-284 235,-306 397,-306 397,-284 235,-284"/>
<text text-anchor="start" x="240" y="-293.2" font-family="Helvetica,sans-Serif" font-weight="bold" font-size="11.00">asset_types_metadata</text>
<text text-anchor="start" x="362" y="-292.2" font-family="Helvetica,sans-Serif" font-size="11.00">[table]</text>
<polygon fill="none" stroke="black" points="235,-262 235,-284 397,-284 397,-262 235,-262"/>
<image xlink:href="../../images/primaryKeys.png" width="11px" height="12px" preserveAspectRatio="xMinYMin meet" x="240" y="-279"/>
<text text-anchor="start" x="262" y="-270.2" font-family="Helvetica,sans-Serif" font-size="11.00">asset_type_id</text>
<polygon fill="none" stroke="black" points="235,-240 235,-262 397,-262 397,-240 235,-240"/>
<image xlink:href="../../images/primaryKeys.png" width="11px" height="12px" preserveAspectRatio="xMinYMin meet" x="240" y="-257"/>
<text text-anchor="start" x="262" y="-248.2" font-family="Helvetica,sans-Serif" font-size="11.00">metadata_category_id</text>
<polygon fill="none" stroke="black" points="235,-218 235,-240 397,-240 397,-218 235,-218"/>
<image xlink:href="../../images/foreignKeys.png" width="11px" height="12px" preserveAspectRatio="xMinYMin meet" x="240" y="-235"/>
<text text-anchor="start" x="262" y="-226.2" font-family="Helvetica,sans-Serif" font-size="11.00">metadata_id</text>
<polygon fill="#ffffff" stroke="transparent" points="235,-200 235,-218 290,-218 290,-200 235,-200"/>
<polygon fill="none" stroke="black" points="235,-200 235,-218 290,-218 290,-200 235,-200"/>
<text text-anchor="start" x="238" y="-206.2" font-family="Helvetica,sans-Serif" font-size="11.00">&lt; 2</text>
<polygon fill="#ffffff" stroke="transparent" points="290,-200 290,-218 367,-218 367,-200 290,-200"/>
<polygon fill="none" stroke="black" points="290,-200 290,-218 367,-218 367,-200 290,-200"/>
<text text-anchor="start" x="309" y="-206.2" font-family="Helvetica,sans-Serif" font-size="11.00">4,002 rows</text>
<polygon fill="#ffffff" stroke="transparent" points="367,-200 367,-218 397,-218 397,-200 367,-200"/>
<polygon fill="none" stroke="black" points="367,-200 367,-218 397,-218 397,-200 367,-200"/>
<text text-anchor="start" x="387" y="-206.2" font-family="Helvetica,sans-Serif" font-size="11.00"> &#160;</text>
</a>
</g>
</g>
<!-- asset_types_metadata&#45;&gt;asset_types -->
<g id="edge4" class="edge">
<title>asset_types_metadata:w&#45;&gt;asset_types:e</title>
<path fill="none" stroke="black" d="M219.99,-277.28C197.01,-295.67 226.04,-367 185,-367"/>
<polygon fill="black" stroke="black" points="226.35,-275.34 235.05,-276.44 230.17,-274.17 234,-273 234,-273 234,-273 230.17,-274.17 232.95,-269.56 226.35,-275.34 226.35,-275.34"/>
<ellipse fill="none" stroke="black" cx="223.29" cy="-276.27" rx="3.2" ry="3.2"/>
</g>
<!-- tcs_metadata -->
<g id="node6" class="node">
<title>tcs_metadata</title>
<g id="a_node6"><a xlink:href="../../tables/tcs_metadata.html" xlink:title="tcs_metadata" target="_top">
<polygon fill="#ffffff" stroke="transparent" points="40,-147 40,-205 154,-205 154,-147 40,-147"/>
<polygon fill="#f5f5f5" stroke="transparent" points="40,-183 40,-205 154,-205 154,-183 40,-183"/>
<polygon fill="none" stroke="black" points="40,-183 40,-205 154,-205 154,-183 40,-183"/>
<text text-anchor="start" x="45" y="-192.2" font-family="Helvetica,sans-Serif" font-weight="bold" font-size="11.00">tcs_metadata</text>
<text text-anchor="start" x="119" y="-191.2" font-family="Helvetica,sans-Serif" font-size="11.00">[table]</text>
<polygon fill="none" stroke="black" points="40,-165 40,-183 154,-183 154,-165 40,-165"/>
<text text-anchor="start" x="43" y="-171.2" font-family="Helvetica,sans-Serif" font-size="11.00">...</text>
<polygon fill="#ffffff" stroke="transparent" points="40,-147 40,-165 69,-165 69,-147 40,-147"/>
<polygon fill="none" stroke="black" points="40,-147 40,-165 69,-165 69,-147 40,-147"/>
<text text-anchor="start" x="43" y="-153.2" font-family="Helvetica,sans-Serif" font-size="11.00"> &#160;</text>
<polygon fill="#ffffff" stroke="transparent" points="69,-147 69,-165 123,-165 123,-147 69,-147"/>
<polygon fill="none" stroke="black" points="69,-147 69,-165 123,-165 123,-147 69,-147"/>
<text text-anchor="start" x="80" y="-153.2" font-family="Helvetica,sans-Serif" font-size="11.00">31 rows</text>
<polygon fill="#ffffff" stroke="transparent" points="123,-147 123,-165 154,-165 154,-147 123,-147"/>
<polygon fill="none" stroke="black" points="123,-147 123,-165 154,-165 154,-147 123,-147"/>
<text text-anchor="start" x="135" y="-153.2" font-family="Helvetica,sans-Serif" font-size="11.00">1 &gt;</text>
</a>
</g>
</g>
<!-- asset_types_metadata&#45;&gt;tcs_metadata -->
<g id="edge5" class="edge">
<title>asset_types_metadata:w&#45;&gt;tcs_metadata:e</title>
<path fill="none" stroke="black" d="M219.7,-226.49C192.09,-215.73 192.27,-174 155,-174"/>
<polygon fill="black" stroke="black" points="226.12,-227.62 233.38,-232.55 230.06,-228.31 234,-229 234,-229 234,-229 230.06,-228.31 234.62,-225.45 226.12,-227.62 226.12,-227.62"/>
<ellipse fill="none" stroke="black" cx="222.97" cy="-227.07" rx="3.2" ry="3.2"/>
</g>
<!-- asset_values -->
<g id="node7" class="node">
<title>asset_values</title>
<g id="a_node7"><a xlink:href="../../tables/asset_values.html" xlink:title="asset_values" target="_top">
<polygon fill="#ffffff" stroke="transparent" points="491,-377 491,-435 605,-435 605,-377 491,-377"/>
<polygon fill="#f5f5f5" stroke="transparent" points="491,-413 491,-435 605,-435 605,-413 491,-413"/>
<polygon fill="none" stroke="black" points="491,-413 491,-435 605,-435 605,-413 491,-413"/>
<text text-anchor="start" x="496" y="-422.2" font-family="Helvetica,sans-Serif" font-weight="bold" font-size="11.00">asset_values</text>
<text text-anchor="start" x="570" y="-421.2" font-family="Helvetica,sans-Serif" font-size="11.00">[table]</text>
<polygon fill="none" stroke="black" points="491,-395 491,-413 605,-413 605,-395 491,-395"/>
<text text-anchor="start" x="494" y="-401.2" font-family="Helvetica,sans-Serif" font-size="11.00">...</text>
<polygon fill="#ffffff" stroke="transparent" points="491,-377 491,-395 532,-395 532,-377 491,-377"/>
<polygon fill="none" stroke="black" points="491,-377 491,-395 532,-395 532,-377 491,-377"/>
<text text-anchor="start" x="494" y="-383.2" font-family="Helvetica,sans-Serif" font-size="11.00">&lt; 2</text>
<polygon fill="#ffffff" stroke="transparent" points="532,-377 532,-395 582,-395 582,-377 532,-377"/>
<polygon fill="none" stroke="black" points="532,-377 532,-395 582,-395 582,-377 532,-377"/>
<text text-anchor="start" x="545" y="-383.2" font-family="Helvetica,sans-Serif" font-size="11.00">8 rows</text>
<polygon fill="#ffffff" stroke="transparent" points="582,-377 582,-395 605,-395 605,-377 582,-377"/>
<polygon fill="none" stroke="black" points="582,-377 582,-395 605,-395 605,-377 582,-377"/>
<text text-anchor="start" x="595" y="-383.2" font-family="Helvetica,sans-Serif" font-size="11.00"> &#160;</text>
</a>
</g>
</g>
<!-- assets -->
<g id="node8" class="node">
<title>assets</title>
<g id="a_node8"><a xlink:href="../../tables/assets.html" xlink:title="assets" target="_top">
<polygon fill="#ffffff" stroke="transparent" points="253.5,-354 253.5,-522 378.5,-522 378.5,-354 253.5,-354"/>
<polygon fill="#f5f5f5" stroke="transparent" points="254,-500 254,-522 379,-522 379,-500 254,-500"/>
<polygon fill="none" stroke="black" points="254,-500 254,-522 379,-522 379,-500 254,-500"/>
<text text-anchor="start" x="259" y="-509.2" font-family="Helvetica,sans-Serif" font-weight="bold" font-size="11.00">assets</text>
<text text-anchor="start" x="344" y="-508.2" font-family="Helvetica,sans-Serif" font-size="11.00">[table]</text>
<polygon fill="none" stroke="black" points="254,-478 254,-500 379,-500 379,-478 254,-478"/>
<image xlink:href="../../images/primaryKeys.png" width="11px" height="12px" preserveAspectRatio="xMinYMin meet" x="259" y="-495"/>
<text text-anchor="start" x="274" y="-486.2" font-family="Helvetica,sans-Serif" font-size="11.00">id</text>
<polygon fill="none" stroke="black" points="254,-456 254,-478 379,-478 379,-456 254,-456"/>
<image xlink:href="../../images/foreignKeys.png" width="11px" height="12px" preserveAspectRatio="xMinYMin meet" x="259" y="-473"/>
<text text-anchor="start" x="274" y="-464.2" font-family="Helvetica,sans-Serif" font-size="11.00">investment_id</text>
<polygon fill="none" stroke="black" points="254,-434 254,-456 379,-456 379,-434 254,-434"/>
<image xlink:href="../../images/foreignKeys.png" width="11px" height="12px" preserveAspectRatio="xMinYMin meet" x="259" y="-451"/>
<text text-anchor="start" x="274" y="-442.2" font-family="Helvetica,sans-Serif" font-size="11.00">asset_type_id</text>
<polygon fill="#ffffff" stroke="transparent" points="254,-412 254,-434 379,-434 379,-412 254,-412"/>
<polygon fill="none" stroke="black" points="254,-412 254,-434 379,-434 379,-412 254,-412"/>
<text text-anchor="start" x="274" y="-420.2" font-family="Helvetica,sans-Serif" font-size="11.00">is_active</text>
<polygon fill="#ffffff" stroke="transparent" points="254,-390 254,-412 379,-412 379,-390 254,-390"/>
<polygon fill="none" stroke="black" points="254,-390 254,-412 379,-412 379,-390 254,-390"/>
<image xlink:href="../../images/foreignKeys.png" width="11px" height="12px" preserveAspectRatio="xMinYMin meet" x="259" y="-407"/>
<text text-anchor="start" x="274" y="-398.2" font-family="Helvetica,sans-Serif" font-size="11.00">ref_id</text>
<polygon fill="none" stroke="black" points="254,-372 254,-390 379,-390 379,-372 254,-372"/>
<text text-anchor="start" x="257" y="-378.2" font-family="Helvetica,sans-Serif" font-size="11.00">...</text>
<polygon fill="#ffffff" stroke="transparent" points="254,-354 254,-372 283,-372 283,-354 254,-354"/>
<polygon fill="none" stroke="black" points="254,-354 254,-372 283,-372 283,-354 254,-354"/>
<text text-anchor="start" x="257" y="-360.2" font-family="Helvetica,sans-Serif" font-size="11.00">&lt; 3</text>
<polygon fill="#ffffff" stroke="transparent" points="283,-354 283,-372 353,-372 353,-354 283,-354"/>
<polygon fill="none" stroke="black" points="283,-354 283,-372 353,-372 353,-354 283,-354"/>
<text text-anchor="start" x="289" y="-360.2" font-family="Helvetica,sans-Serif" font-size="11.00">78,452 rows</text>
<polygon fill="#ffffff" stroke="transparent" points="353,-354 353,-372 379,-372 379,-354 353,-354"/>
<polygon fill="none" stroke="black" points="353,-354 353,-372 379,-372 379,-354 353,-354"/>
<text text-anchor="start" x="360" y="-360.2" font-family="Helvetica,sans-Serif" font-size="11.00">4 &gt;</text>
</a>
</g>
</g>
<!-- asset_values&#45;&gt;assets -->
<g id="edge6" class="edge">
<title>asset_values:w&#45;&gt;assets:e</title>
<path fill="none" stroke="black" d="M475.65,-405.78C429.99,-417.98 436.47,-489 380,-489"/>
<polygon fill="black" stroke="black" points="482.06,-404.98 490.44,-407.57 486.03,-404.49 490,-404 490,-404 490,-404 486.03,-404.49 489.56,-400.43 482.06,-404.98 482.06,-404.98"/>
<ellipse fill="none" stroke="black" cx="478.88" cy="-405.37" rx="3.2" ry="3.2"/>
</g>
<!-- assets&#45;&gt;asset_types -->
<g id="edge7" class="edge">
<title>assets:w&#45;&gt;asset_types:e</title>
<path fill="none" stroke="black" d="M238.76,-441.65C211.91,-426.72 225.24,-367 185,-367"/>
<polygon fill="black" stroke="black" points="245.21,-443.17 252.18,-448.5 249.11,-444.08 253,-445 253,-445 253,-445 249.11,-444.08 253.82,-441.5 245.21,-443.17 245.21,-443.17"/>
<ellipse fill="none" stroke="black" cx="242.1" cy="-442.43" rx="3.2" ry="3.2"/>
</g>
<!-- investments -->
<g id="node9" class="node">
<title>investments</title>
<g id="a_node9"><a xlink:href="../../tables/investments.html" xlink:title="investments" target="_top">
<polygon fill="#ffffff" stroke="transparent" points="42,-502 42,-560 152,-560 152,-502 42,-502"/>
<polygon fill="#f5f5f5" stroke="transparent" points="42,-538 42,-560 152,-560 152,-538 42,-538"/>
<polygon fill="none" stroke="black" points="42,-538 42,-560 152,-560 152,-538 42,-538"/>
<text text-anchor="start" x="47" y="-547.2" font-family="Helvetica,sans-Serif" font-weight="bold" font-size="11.00">investments</text>
<text text-anchor="start" x="117" y="-546.2" font-family="Helvetica,sans-Serif" font-size="11.00">[table]</text>
<polygon fill="none" stroke="black" points="42,-520 42,-538 152,-538 152,-520 42,-520"/>
<text text-anchor="start" x="45" y="-526.2" font-family="Helvetica,sans-Serif" font-size="11.00">...</text>
<polygon fill="#ffffff" stroke="transparent" points="42,-502 42,-520 66,-520 66,-502 42,-502"/>
<polygon fill="none" stroke="black" points="42,-502 42,-520 66,-520 66,-502 42,-502"/>
<text text-anchor="start" x="45" y="-508.2" font-family="Helvetica,sans-Serif" font-size="11.00">&lt; 1</text>
<polygon fill="#ffffff" stroke="transparent" points="66,-502 66,-520 128,-520 128,-502 66,-502"/>
<polygon fill="none" stroke="black" points="66,-502 66,-520 128,-520 128,-502 66,-502"/>
<text text-anchor="start" x="70" y="-508.2" font-family="Helvetica,sans-Serif" font-size="11.00">2,996 rows</text>
<polygon fill="#ffffff" stroke="transparent" points="128,-502 128,-520 152,-520 152,-502 128,-502"/>
<polygon fill="none" stroke="black" points="128,-502 128,-520 152,-520 152,-502 128,-502"/>
<text text-anchor="start" x="133" y="-508.2" font-family="Helvetica,sans-Serif" font-size="11.00">2 &gt;</text>
</a>
</g>
</g>
<!-- assets&#45;&gt;investments -->
<g id="edge8" class="edge">
<title>assets:w&#45;&gt;investments:e</title>
<path fill="none" stroke="black" d="M238.71,-468.79C201.05,-478.95 199.98,-529 153,-529"/>
<polygon fill="black" stroke="black" points="245.06,-467.99 253.45,-470.57 249.03,-467.5 253,-467 253,-467 253,-467 249.03,-467.5 252.55,-463.43 245.06,-467.99 245.06,-467.99"/>
<ellipse fill="none" stroke="black" cx="241.89" cy="-468.39" rx="3.2" ry="3.2"/>
</g>
<!-- ref_id -->
<g id="node10" class="node">
<title>ref_id</title>
<g id="a_node10"><a xlink:href="../../tables/ref_id.html" xlink:title="ref_id" target="_top">
<polygon fill="#ffffff" stroke="transparent" points="38.5,-423 38.5,-481 155.5,-481 155.5,-423 38.5,-423"/>
<polygon fill="#f5f5f5" stroke="transparent" points="39,-459 39,-481 156,-481 156,-459 39,-459"/>
<polygon fill="none" stroke="black" points="39,-459 39,-481 156,-481 156,-459 39,-459"/>
<text text-anchor="start" x="44" y="-468.2" font-family="Helvetica,sans-Serif" font-weight="bold" font-size="11.00">ref_id</text>
<text text-anchor="start" x="121" y="-467.2" font-family="Helvetica,sans-Serif" font-size="11.00">[table]</text>
<polygon fill="none" stroke="black" points="39,-441 39,-459 156,-459 156,-441 39,-441"/>
<text text-anchor="start" x="42" y="-447.2" font-family="Helvetica,sans-Serif" font-size="11.00">...</text>
<polygon fill="#ffffff" stroke="transparent" points="39,-423 39,-441 61,-441 61,-423 39,-423"/>
<polygon fill="none" stroke="black" points="39,-423 39,-441 61,-441 61,-423 39,-423"/>
<text text-anchor="start" x="42" y="-429.2" font-family="Helvetica,sans-Serif" font-size="11.00">&lt; 1</text>
<polygon fill="#ffffff" stroke="transparent" points="61,-423 61,-441 134,-441 134,-423 61,-423"/>
<polygon fill="none" stroke="black" points="61,-423 61,-441 134,-441 134,-423 61,-423"/>
<text text-anchor="start" x="64" y="-429.2" font-family="Helvetica,sans-Serif" font-size="11.00">140,067 rows</text>
<polygon fill="#ffffff" stroke="transparent" points="134,-423 134,-441 156,-441 156,-423 134,-423"/>
<polygon fill="none" stroke="black" points="134,-423 134,-441 156,-441 156,-423 134,-423"/>
<text text-anchor="start" x="137" y="-429.2" font-family="Helvetica,sans-Serif" font-size="11.00">2 &gt;</text>
</a>
</g>
</g>
<!-- assets&#45;&gt;ref_id -->
<g id="edge9" class="edge">
<title>assets:w&#45;&gt;ref_id:e</title>
<path fill="none" stroke="black" d="M242.6,-401.85C204.78,-408.36 201.16,-450 157,-450"/>
<polygon fill="black" stroke="black" points="251.88,-397.08 252.53,-405.05 250.93,-405.18 250.28,-397.21 251.88,-397.08"/>
<polyline fill="none" stroke="black" points="253,-401 249.01,-401.33 "/>
<ellipse fill="none" stroke="black" cx="245.82" cy="-401.59" rx="3.2" ry="3.2"/>
</g>
<!-- assets_impact_functions -->
<g id="node11" class="node">
<title>assets_impact_functions</title>
<g id="a_node11"><a xlink:href="../../tables/assets_impact_functions.html" xlink:title="assets_impact_functions" target="_top">
<polygon fill="#ffffff" stroke="transparent" points="460.5,-182 460.5,-240 635.5,-240 635.5,-182 460.5,-182"/>
<polygon fill="#f5f5f5" stroke="transparent" points="461,-218 461,-240 636,-240 636,-218 461,-218"/>
<polygon fill="none" stroke="black" points="461,-218 461,-240 636,-240 636,-218 461,-218"/>
<text text-anchor="start" x="466" y="-227.2" font-family="Helvetica,sans-Serif" font-weight="bold" font-size="11.00">assets_impact_functions</text>
<text text-anchor="start" x="601" y="-226.2" font-family="Helvetica,sans-Serif" font-size="11.00">[table]</text>
<polygon fill="none" stroke="black" points="461,-200 461,-218 636,-218 636,-200 461,-200"/>
<text text-anchor="start" x="464" y="-206.2" font-family="Helvetica,sans-Serif" font-size="11.00">...</text>
<polygon fill="#ffffff" stroke="transparent" points="461,-182 461,-200 516,-200 516,-182 461,-182"/>
<polygon fill="none" stroke="black" points="461,-182 461,-200 516,-200 516,-182 461,-182"/>
<text text-anchor="start" x="464" y="-188.2" font-family="Helvetica,sans-Serif" font-size="11.00">&lt; 3</text>
<polygon fill="#ffffff" stroke="transparent" points="516,-182 516,-200 606,-200 606,-182 516,-182"/>
<polygon fill="none" stroke="black" points="516,-182 516,-200 606,-200 606,-182 516,-182"/>
<text text-anchor="start" x="536" y="-188.2" font-family="Helvetica,sans-Serif" font-size="11.00">654,369 rows</text>
<polygon fill="#ffffff" stroke="transparent" points="606,-182 606,-200 636,-200 636,-182 606,-182"/>
<polygon fill="none" stroke="black" points="606,-182 606,-200 636,-200 636,-182 606,-182"/>
<text text-anchor="start" x="626" y="-188.2" font-family="Helvetica,sans-Serif" font-size="11.00"> &#160;</text>
</a>
</g>
</g>
<!-- assets_impact_functions&#45;&gt;impact_functions -->
<g id="edge11" class="edge">
<title>assets_impact_functions:w&#45;&gt;impact_functions:e</title>
<path fill="none" stroke="black" d="M445.77,-206.07C413.74,-190.8 430.77,-121 385,-121"/>
<polygon fill="black" stroke="black" points="452.16,-207.39 459.27,-212.53 456.08,-208.19 460,-209 460,-209 460,-209 456.08,-208.19 460.73,-205.47 452.16,-207.39 452.16,-207.39"/>
<ellipse fill="none" stroke="black" cx="449.03" cy="-206.74" rx="3.2" ry="3.2"/>
</g>
<!-- assets_impact_functions&#45;&gt;risk_factors -->
<g id="edge12" class="edge">
<title>assets_impact_functions:w&#45;&gt;risk_factors:e</title>
<path fill="none" stroke="black" d="M445.66,-207.27C431.31,-203.4 424.69,-194.02 405,-189 327.46,-169.23 299.4,-196.07 227,-162 186.56,-142.97 196.7,-95 152,-95"/>
<polygon fill="black" stroke="black" points="452.06,-208.04 459.57,-212.57 456.03,-208.52 460,-209 460,-209 460,-209 456.03,-208.52 460.43,-205.43 452.06,-208.04 452.06,-208.04"/>
<ellipse fill="none" stroke="black" cx="448.88" cy="-207.66" rx="3.2" ry="3.2"/>
</g>
<!-- assets_impact_functions&#45;&gt;assets -->
<g id="edge10" class="edge">
<title>assets_impact_functions:w&#45;&gt;assets:e</title>
<path fill="none" stroke="black" d="M445.59,-210.37C344.73,-231.5 504.12,-489 380,-489"/>
<polygon fill="black" stroke="black" points="452.04,-209.76 460.34,-212.58 456.02,-209.38 460,-209 460,-209 460,-209 456.02,-209.38 459.66,-205.42 452.04,-209.76 452.04,-209.76"/>
<ellipse fill="none" stroke="black" cx="448.85" cy="-210.06" rx="3.2" ry="3.2"/>
</g>
<!-- assets_tags -->
<g id="node12" class="node">
<title>assets_tags</title>
<g id="a_node12"><a xlink:href="../../tables/assets_tags.html" xlink:title="assets_tags" target="_top">
<polygon fill="#ffffff" stroke="transparent" points="494,-456 494,-514 602,-514 602,-456 494,-456"/>
<polygon fill="#f5f5f5" stroke="transparent" points="494,-492 494,-514 602,-514 602,-492 494,-492"/>
<polygon fill="none" stroke="black" points="494,-492 494,-514 602,-514 602,-492 494,-492"/>
<text text-anchor="start" x="499" y="-501.2" font-family="Helvetica,sans-Serif" font-weight="bold" font-size="11.00">assets_tags</text>
<text text-anchor="start" x="567" y="-500.2" font-family="Helvetica,sans-Serif" font-size="11.00">[table]</text>
<polygon fill="none" stroke="black" points="494,-474 494,-492 602,-492 602,-474 494,-474"/>
<text text-anchor="start" x="497" y="-480.2" font-family="Helvetica,sans-Serif" font-size="11.00">...</text>
<polygon fill="#ffffff" stroke="transparent" points="494,-456 494,-474 519,-474 519,-456 494,-456"/>
<polygon fill="none" stroke="black" points="494,-456 494,-474 519,-474 519,-456 494,-456"/>
<text text-anchor="start" x="497" y="-462.2" font-family="Helvetica,sans-Serif" font-size="11.00">&lt; 2</text>
<polygon fill="#ffffff" stroke="transparent" points="519,-456 519,-474 587,-474 587,-456 519,-456"/>
<polygon fill="none" stroke="black" points="519,-456 519,-474 587,-474 587,-456 519,-456"/>
<text text-anchor="start" x="523" y="-462.2" font-family="Helvetica,sans-Serif" font-size="11.00">22,144 rows</text>
<polygon fill="#ffffff" stroke="transparent" points="587,-456 587,-474 602,-474 602,-456 587,-456"/>
<polygon fill="none" stroke="black" points="587,-456 587,-474 602,-474 602,-456 587,-456"/>
<text text-anchor="start" x="592" y="-462.2" font-family="Helvetica,sans-Serif" font-size="11.00"> &#160;</text>
</a>
</g>
</g>
<!-- assets_tags&#45;&gt;assets -->
<g id="edge13" class="edge">
<title>assets_tags:w&#45;&gt;assets:e</title>
<path fill="none" stroke="black" d="M478.52,-483.18C439.73,-484.18 425.09,-489 380,-489"/>
<polygon fill="black" stroke="black" points="485,-483.1 493.04,-486.6 489,-483.05 493,-483 493,-483 493,-483 489,-483.05 492.96,-479.4 485,-483.1 485,-483.1"/>
<ellipse fill="none" stroke="black" cx="481.8" cy="-483.14" rx="3.2" ry="3.2"/>
</g>
<!-- locations -->
<g id="node13" class="node">
<title>locations</title>
<g id="a_node13"><a xlink:href="../../tables/locations.html" xlink:title="locations" target="_top">
<polygon fill="#ffffff" stroke="transparent" points="492.5,-535 492.5,-593 603.5,-593 603.5,-535 492.5,-535"/>
<polygon fill="#f5f5f5" stroke="transparent" points="493,-571 493,-593 604,-593 604,-571 493,-571"/>
<polygon fill="none" stroke="black" points="493,-571 493,-593 604,-593 604,-571 493,-571"/>
<text text-anchor="start" x="498" y="-580.2" font-family="Helvetica,sans-Serif" font-weight="bold" font-size="11.00">locations</text>
<text text-anchor="start" x="569" y="-579.2" font-family="Helvetica,sans-Serif" font-size="11.00">[table]</text>
<polygon fill="none" stroke="black" points="493,-553 493,-571 604,-571 604,-553 493,-553"/>
<text text-anchor="start" x="496" y="-559.2" font-family="Helvetica,sans-Serif" font-size="11.00">...</text>
<polygon fill="#ffffff" stroke="transparent" points="493,-535 493,-553 515,-553 515,-535 493,-535"/>
<polygon fill="none" stroke="black" points="493,-535 493,-553 515,-553 515,-535 493,-535"/>
<text text-anchor="start" x="496" y="-541.2" font-family="Helvetica,sans-Serif" font-size="11.00">&lt; 2</text>
<polygon fill="#ffffff" stroke="transparent" points="515,-535 515,-553 582,-553 582,-535 515,-535"/>
<polygon fill="none" stroke="black" points="515,-535 515,-553 582,-553 582,-535 515,-535"/>
<text text-anchor="start" x="518" y="-541.2" font-family="Helvetica,sans-Serif" font-size="11.00">81,629 rows</text>
<polygon fill="#ffffff" stroke="transparent" points="582,-535 582,-553 604,-553 604,-535 582,-535"/>
<polygon fill="none" stroke="black" points="582,-535 582,-553 604,-553 604,-535 582,-535"/>
<text text-anchor="start" x="585" y="-541.2" font-family="Helvetica,sans-Serif" font-size="11.00">3 &gt;</text>
</a>
</g>
</g>
<!-- locations&#45;&gt;assets -->
<g id="edge15" class="edge">
<title>locations:w&#45;&gt;assets:e</title>
<path fill="none" stroke="black" d="M477.49,-560.34C433.28,-549.47 434.08,-489 380,-489"/>
<polygon fill="black" stroke="black" points="484.05,-561.09 491.59,-565.58 488.03,-561.54 492,-562 492,-562 492,-562 488.03,-561.54 492.41,-558.42 484.05,-561.09 484.05,-561.09"/>
<ellipse fill="none" stroke="black" cx="480.87" cy="-560.73" rx="3.2" ry="3.2"/>
</g>
<!-- locations&#45;&gt;ref_id -->
<g id="edge16" class="edge">
<title>locations:w&#45;&gt;ref_id:e</title>
<path fill="none" stroke="black" d="M477.47,-562.14C369.83,-564.19 326.55,-587.52 227,-533 184.68,-509.82 205.26,-450 157,-450"/>
<polygon fill="black" stroke="black" points="484,-562.08 492.03,-565.6 488,-562.04 492,-562 492,-562 492,-562 488,-562.04 491.97,-558.4 484,-562.08 484,-562.08"/>
<ellipse fill="none" stroke="black" cx="480.8" cy="-562.11" rx="3.2" ry="3.2"/>
</g>
</g>
</svg>
