<?xml version="1.0" encoding="UTF-8" standalone="no"?>
<!DOCTYPE svg PUBLIC "-//W3C//DTD SVG 1.1//EN"
 "http://www.w3.org/Graphics/SVG/1.1/DTD/svg11.dtd">
<!-- Generated by graphviz version 2.50.0 (20211204.2007)
 -->
<!-- Title: oneDegreeRelationshipsDiagram Pages: 1 -->
<svg width="455pt" height="489pt"
 viewBox="0.00 0.00 455.00 489.00" xmlns="http://www.w3.org/2000/svg" xmlns:xlink="http://www.w3.org/1999/xlink">
<g id="graph0" class="graph" transform="scale(1 1) rotate(0) translate(4 485)">
<title>oneDegreeRelationshipsDiagram</title>
<polygon fill="#ffffff" stroke="transparent" points="-4,4 -4,-485 451,-485 451,4 -4,4"/>
<text text-anchor="middle" x="72.5" y="-7.2" font-family="Helvetica,sans-Serif" font-size="11.00">Generated by SchemaSpy</text>
<!-- asset_types_impact_functions -->
<g id="node1" class="node">
<title>asset_types_impact_functions</title>
<g id="a_node1"><a xlink:href="../../tables/asset_types_impact_functions.html" xlink:title="asset_types_impact_functions" target="_top">
<polygon fill="#ffffff" stroke="transparent" points="235,-353 235,-477 439,-477 439,-353 235,-353"/>
<polygon fill="#f5f5f5" stroke="transparent" points="235,-455 235,-477 439,-477 439,-455 235,-455"/>
<polygon fill="none" stroke="black" points="235,-455 235,-477 439,-477 439,-455 235,-455"/>
<text text-anchor="start" x="240" y="-464.2" font-family="Helvetica,sans-Serif" font-weight="bold" font-size="11.00">asset_types_impact_functions</text>
<text text-anchor="start" x="404" y="-463.2" font-family="Helvetica,sans-Serif" font-size="11.00">[table]</text>
<polygon fill="none" stroke="black" points="235,-433 235,-455 439,-455 439,-433 235,-433"/>
<image xlink:href="../../images/primaryKeys.png" width="11px" height="12px" preserveAspectRatio="xMinYMin meet" x="240" y="-450"/>
<text text-anchor="start" x="260" y="-441.2" font-family="Helvetica,sans-Serif" font-size="11.00">asset_type_id</text>
<polygon fill="none" stroke="black" points="235,-411 235,-433 439,-433 439,-411 235,-411"/>
<image xlink:href="../../images/primaryKeys.png" width="11px" height="12px" preserveAspectRatio="xMinYMin meet" x="240" y="-428"/>
<text text-anchor="start" x="260" y="-419.2" font-family="Helvetica,sans-Serif" font-size="11.00">impact_function_id</text>
<polygon fill="none" stroke="black" points="235,-389 235,-411 439,-411 439,-389 235,-389"/>
<image xlink:href="../../images/foreignKeys.png" width="11px" height="12px" preserveAspectRatio="xMinYMin meet" x="240" y="-406"/>
<text text-anchor="start" x="260" y="-397.2" font-family="Helvetica,sans-Serif" font-size="11.00">risk_factor_id</text>
<polygon fill="none" stroke="black" points="235,-371 235,-389 439,-389 439,-371 235,-371"/>
<text text-anchor="start" x="238" y="-377.2" font-family="Helvetica,sans-Serif" font-size="11.00">...</text>
<polygon fill="#ffffff" stroke="transparent" points="235,-353 235,-371 315,-371 315,-353 235,-353"/>
<polygon fill="none" stroke="black" points="235,-353 235,-371 315,-371 315,-353 235,-353"/>
<text text-anchor="start" x="238" y="-359.2" font-family="Helvetica,sans-Serif" font-size="11.00">&lt; 3</text>
<polygon fill="#ffffff" stroke="transparent" points="315,-353 315,-371 396,-371 396,-353 315,-353"/>
<polygon fill="none" stroke="black" points="315,-353 315,-371 396,-371 396,-353 315,-353"/>
<text text-anchor="start" x="347" y="-359.2" font-family="Helvetica,sans-Serif" font-size="11.00">625 rows</text>
<polygon fill="#ffffff" stroke="transparent" points="396,-353 396,-371 439,-371 439,-353 396,-353"/>
<polygon fill="none" stroke="black" points="396,-353 396,-371 439,-371 439,-353 396,-353"/>
<text text-anchor="start" x="429" y="-359.2" font-family="Helvetica,sans-Serif" font-size="11.00"> &#160;</text>
</a>
</g>
</g>
<!-- asset_types -->
<g id="node2" class="node">
<title>asset_types</title>
<g id="a_node2"><a xlink:href="../../tables/asset_types.html" xlink:title="asset_types" target="_top">
<polygon fill="#ffffff" stroke="transparent" points="8,-158 8,-334 186,-334 186,-158 8,-158"/>
<polygon fill="#f5f5f5" stroke="transparent" points="10,-310 10,-332 184,-332 184,-310 10,-310"/>
<polygon fill="none" stroke="black" points="10,-310 10,-332 184,-332 184,-310 10,-310"/>
<text text-anchor="start" x="15" y="-319.2" font-family="Helvetica,sans-Serif" font-weight="bold" font-size="11.00">asset_types</text>
<text text-anchor="start" x="149" y="-318.2" font-family="Helvetica,sans-Serif" font-size="11.00">[table]</text>
<polygon fill="none" stroke="black" points="10,-288 10,-310 99,-310 99,-288 10,-288"/>
<image xlink:href="../../images/primaryKeys.png" width="11px" height="12px" preserveAspectRatio="xMinYMin meet" x="15" y="-305"/>
<text text-anchor="start" x="30" y="-296.2" font-family="Helvetica,sans-Serif" font-size="11.00">id</text>
<polygon fill="none" stroke="black" points="99,-288 99,-310 184,-310 184,-288 99,-288"/>
<text text-anchor="start" x="102" y="-296.2" font-family="Helvetica,sans-Serif" font-size="11.00">serial[10]</text>
<polygon fill="#ffffff" stroke="transparent" points="10,-266 10,-288 99,-288 99,-266 10,-266"/>
<polygon fill="none" stroke="black" points="10,-266 10,-288 99,-288 99,-266 10,-266"/>
<text text-anchor="start" x="30" y="-274.2" font-family="Helvetica,sans-Serif" font-size="11.00">name</text>
<polygon fill="none" stroke="black" points="99,-266 99,-288 184,-288 184,-266 99,-266"/>
<text text-anchor="start" x="102" y="-274.2" font-family="Helvetica,sans-Serif" font-size="11.00">varchar[128]</text>
<polygon fill="none" stroke="black" points="10,-244 10,-266 99,-266 99,-244 10,-244"/>
<text text-anchor="start" x="30" y="-252.2" font-family="Helvetica,sans-Serif" font-size="11.00">descr</text>
<polygon fill="none" stroke="black" points="99,-244 99,-266 184,-266 184,-244 99,-244"/>
<text text-anchor="start" x="102" y="-252.2" font-family="Helvetica,sans-Serif" font-size="11.00">varchar[256]</text>
<polygon fill="none" stroke="black" points="10,-222 10,-244 99,-244 99,-222 10,-222"/>
<text text-anchor="start" x="30" y="-230.2" font-family="Helvetica,sans-Serif" font-size="11.00">created_at</text>
<polygon fill="none" stroke="black" points="99,-222 99,-244 184,-244 184,-222 99,-222"/>
<text text-anchor="start" x="102" y="-230.2" font-family="Helvetica,sans-Serif" font-size="11.00">timestamp[29,6]</text>
<polygon fill="none" stroke="black" points="10,-200 10,-222 99,-222 99,-200 10,-200"/>
<text text-anchor="start" x="30" y="-208.2" font-family="Helvetica,sans-Serif" font-size="11.00">updated_at</text>
<polygon fill="none" stroke="black" points="99,-200 99,-222 184,-222 184,-200 99,-200"/>
<text text-anchor="start" x="102" y="-208.2" font-family="Helvetica,sans-Serif" font-size="11.00">timestamp[29,6]</text>
<polygon fill="#ffffff" stroke="transparent" points="10,-178 10,-200 99,-200 99,-178 10,-178"/>
<polygon fill="none" stroke="black" points="10,-178 10,-200 99,-200 99,-178 10,-178"/>
<text text-anchor="start" x="30" y="-186.2" font-family="Helvetica,sans-Serif" font-size="11.00">is_active</text>
<polygon fill="none" stroke="black" points="99,-178 99,-200 184,-200 184,-178 99,-178"/>
<text text-anchor="start" x="102" y="-186.2" font-family="Helvetica,sans-Serif" font-size="11.00">bool[1]</text>
<polygon fill="#ffffff" stroke="transparent" points="10,-160 10,-178 35,-178 35,-160 10,-160"/>
<polygon fill="none" stroke="black" points="10,-160 10,-178 35,-178 35,-160 10,-160"/>
<text text-anchor="start" x="13" y="-166.2" font-family="Helvetica,sans-Serif" font-size="11.00">&lt; 0</text>
<polygon fill="#ffffff" stroke="transparent" points="35,-160 35,-178 99,-178 99,-160 35,-160"/>
<polygon fill="none" stroke="black" points="35,-160 35,-178 99,-178 99,-160 35,-160"/>
<text text-anchor="start" x="41" y="-166.2" font-family="Helvetica,sans-Serif" font-size="11.00">1,156 rows</text>
<polygon fill="#ffffff" stroke="transparent" points="99,-160 99,-178 184,-178 184,-160 99,-160"/>
<polygon fill="none" stroke="black" points="99,-160 99,-178 184,-178 184,-160 99,-160"/>
<text text-anchor="start" x="165" y="-166.2" font-family="Helvetica,sans-Serif" font-size="11.00">3 &gt;</text>
<polygon fill="none" stroke="black" stroke-width="2" points="9,-159 9,-333 185,-333 185,-159 9,-159"/>
</a>
</g>
</g>
<!-- asset_types_impact_functions&#45;&gt;asset_types -->
<g id="edge1" class="edge">
<title>asset_types_impact_functions:w&#45;&gt;asset_types:e</title>
<path fill="none" stroke="black" d="M219.7,-440.97C179.79,-420.15 247.18,-299 185,-299"/>
<polygon fill="black" stroke="black" points="226.17,-442.34 233.25,-447.52 230.09,-443.17 234,-444 234,-444 234,-444 230.09,-443.17 234.75,-440.48 226.17,-442.34 226.17,-442.34"/>
<ellipse fill="none" stroke="black" cx="223.04" cy="-441.68" rx="3.2" ry="3.2"/>
</g>
<!-- asset_types_metadata -->
<g id="node3" class="node">
<title>asset_types_metadata</title>
<g id="a_node3"><a xlink:href="../../tables/asset_types_metadata.html" xlink:title="asset_types_metadata" target="_top">
<polygon fill="#ffffff" stroke="transparent" points="256,-226 256,-332 418,-332 418,-226 256,-226"/>
<polygon fill="#f5f5f5" stroke="transparent" points="256,-310 256,-332 418,-332 418,-310 256,-310"/>
<polygon fill="none" stroke="black" points="256,-310 256,-332 418,-332 418,-310 256,-310"/>
<text text-anchor="start" x="261" y="-319.2" font-family="Helvetica,sans-Serif" font-weight="bold" font-size="11.00">asset_types_metadata</text>
<text text-anchor="start" x="383" y="-318.2" font-family="Helvetica,sans-Serif" font-size="11.00">[table]</text>
<polygon fill="none" stroke="black" points="256,-288 256,-310 418,-310 418,-288 256,-288"/>
<image xlink:href="../../images/primaryKeys.png" width="11px" height="12px" preserveAspectRatio="xMinYMin meet" x="261" y="-305"/>
<text text-anchor="start" x="283" y="-296.2" font-family="Helvetica,sans-Serif" font-size="11.00">asset_type_id</text>
<polygon fill="none" stroke="black" points="256,-266 256,-288 418,-288 418,-266 256,-266"/>
<image xlink:href="../../images/primaryKeys.png" width="11px" height="12px" preserveAspectRatio="xMinYMin meet" x="261" y="-283"/>
<text text-anchor="start" x="283" y="-274.2" font-family="Helvetica,sans-Serif" font-size="11.00">metadata_category_id</text>
<polygon fill="none" stroke="black" points="256,-244 256,-266 418,-266 418,-244 256,-244"/>
<image xlink:href="../../images/foreignKeys.png" width="11px" height="12px" preserveAspectRatio="xMinYMin meet" x="261" y="-261"/>
<text text-anchor="start" x="283" y="-252.2" font-family="Helvetica,sans-Serif" font-size="11.00">metadata_id</text>
<polygon fill="#ffffff" stroke="transparent" points="256,-226 256,-244 311,-244 311,-226 256,-226"/>
<polygon fill="none" stroke="black" points="256,-226 256,-244 311,-244 311,-226 256,-226"/>
<text text-anchor="start" x="259" y="-232.2" font-family="Helvetica,sans-Serif" font-size="11.00">&lt; 2</text>
<polygon fill="#ffffff" stroke="transparent" points="311,-226 311,-244 388,-244 388,-226 311,-226"/>
<polygon fill="none" stroke="black" points="311,-226 311,-244 388,-244 388,-226 311,-226"/>
<text text-anchor="start" x="330" y="-232.2" font-family="Helvetica,sans-Serif" font-size="11.00">4,002 rows</text>
<polygon fill="#ffffff" stroke="transparent" points="388,-226 388,-244 418,-244 418,-226 388,-226"/>
<polygon fill="none" stroke="black" points="388,-226 388,-244 418,-244 418,-226 388,-226"/>
<text text-anchor="start" x="408" y="-232.2" font-family="Helvetica,sans-Serif" font-size="11.00"> &#160;</text>
</a>
</g>
</g>
<!-- asset_types_metadata&#45;&gt;asset_types -->
<g id="edge2" class="edge">
<title>asset_types_metadata:w&#45;&gt;asset_types:e</title>
<path fill="none" stroke="black" d="M240.5,-299C220.43,-299 210.64,-299 185,-299"/>
<polygon fill="black" stroke="black" points="247,-299 255,-302.6 251,-299 255,-299 255,-299 255,-299 251,-299 255,-295.4 247,-299 247,-299"/>
<ellipse fill="none" stroke="black" cx="243.8" cy="-299" rx="3.2" ry="3.2"/>
</g>
<!-- assets -->
<g id="node4" class="node">
<title>assets</title>
<g id="a_node4"><a xlink:href="../../tables/assets.html" xlink:title="assets" target="_top">
<polygon fill="#ffffff" stroke="transparent" points="274.5,-37 274.5,-205 399.5,-205 399.5,-37 274.5,-37"/>
<polygon fill="#f5f5f5" stroke="transparent" points="275,-183 275,-205 400,-205 400,-183 275,-183"/>
<polygon fill="none" stroke="black" points="275,-183 275,-205 400,-205 400,-183 275,-183"/>
<text text-anchor="start" x="280" y="-192.2" font-family="Helvetica,sans-Serif" font-weight="bold" font-size="11.00">assets</text>
<text text-anchor="start" x="365" y="-191.2" font-family="Helvetica,sans-Serif" font-size="11.00">[table]</text>
<polygon fill="none" stroke="black" points="275,-161 275,-183 400,-183 400,-161 275,-161"/>
<image xlink:href="../../images/primaryKeys.png" width="11px" height="12px" preserveAspectRatio="xMinYMin meet" x="280" y="-178"/>
<text text-anchor="start" x="295" y="-169.2" font-family="Helvetica,sans-Serif" font-size="11.00">id</text>
<polygon fill="none" stroke="black" points="275,-139 275,-161 400,-161 400,-139 275,-139"/>
<image xlink:href="../../images/foreignKeys.png" width="11px" height="12px" preserveAspectRatio="xMinYMin meet" x="280" y="-156"/>
<text text-anchor="start" x="295" y="-147.2" font-family="Helvetica,sans-Serif" font-size="11.00">investment_id</text>
<polygon fill="none" stroke="black" points="275,-117 275,-139 400,-139 400,-117 275,-117"/>
<image xlink:href="../../images/foreignKeys.png" width="11px" height="12px" preserveAspectRatio="xMinYMin meet" x="280" y="-134"/>
<text text-anchor="start" x="295" y="-125.2" font-family="Helvetica,sans-Serif" font-size="11.00">asset_type_id</text>
<polygon fill="#ffffff" stroke="transparent" points="275,-95 275,-117 400,-117 400,-95 275,-95"/>
<polygon fill="none" stroke="black" points="275,-95 275,-117 400,-117 400,-95 275,-95"/>
<text text-anchor="start" x="295" y="-103.2" font-family="Helvetica,sans-Serif" font-size="11.00">is_active</text>
<polygon fill="#ffffff" stroke="transparent" points="275,-73 275,-95 400,-95 400,-73 275,-73"/>
<polygon fill="none" stroke="black" points="275,-73 275,-95 400,-95 400,-73 275,-73"/>
<image xlink:href="../../images/foreignKeys.png" width="11px" height="12px" preserveAspectRatio="xMinYMin meet" x="280" y="-90"/>
<text text-anchor="start" x="295" y="-81.2" font-family="Helvetica,sans-Serif" font-size="11.00">ref_id</text>
<polygon fill="none" stroke="black" points="275,-55 275,-73 400,-73 400,-55 275,-55"/>
<text text-anchor="start" x="278" y="-61.2" font-family="Helvetica,sans-Serif" font-size="11.00">...</text>
<polygon fill="#ffffff" stroke="transparent" points="275,-37 275,-55 304,-55 304,-37 275,-37"/>
<polygon fill="none" stroke="black" points="275,-37 275,-55 304,-55 304,-37 275,-37"/>
<text text-anchor="start" x="278" y="-43.2" font-family="Helvetica,sans-Serif" font-size="11.00">&lt; 3</text>
<polygon fill="#ffffff" stroke="transparent" points="304,-37 304,-55 374,-55 374,-37 304,-37"/>
<polygon fill="none" stroke="black" points="304,-37 304,-55 374,-55 374,-37 304,-37"/>
<text text-anchor="start" x="310" y="-43.2" font-family="Helvetica,sans-Serif" font-size="11.00">78,452 rows</text>
<polygon fill="#ffffff" stroke="transparent" points="374,-37 374,-55 400,-55 400,-37 374,-37"/>
<polygon fill="none" stroke="black" points="374,-37 374,-55 400,-55 400,-37 374,-37"/>
<text text-anchor="start" x="381" y="-43.2" font-family="Helvetica,sans-Serif" font-size="11.00">4 &gt;</text>
</a>
</g>
</g>
<!-- assets&#45;&gt;asset_types -->
<g id="edge3" class="edge">
<title>assets:w&#45;&gt;asset_types:e</title>
<path fill="none" stroke="black" d="M259.74,-130.3C233.61,-140.39 244.82,-181.73 227,-216 207.93,-252.68 226.34,-299 185,-299"/>
<polygon fill="black" stroke="black" points="266.1,-129.27 274.57,-131.55 270.05,-128.64 274,-128 274,-128 274,-128 270.05,-128.64 273.43,-124.45 266.1,-129.27 266.1,-129.27"/>
<ellipse fill="none" stroke="black" cx="262.94" cy="-129.78" rx="3.2" ry="3.2"/>
</g>
</g>
</svg>
