<?xml version="1.0" encoding="UTF-8" standalone="no"?>
<!DOCTYPE svg PUBLIC "-//W3C//DTD SVG 1.1//EN"
 "http://www.w3.org/Graphics/SVG/1.1/DTD/svg11.dtd">
<!-- Generated by graphviz version 2.50.0 (20211204.2007)
 -->
<!-- Title: oneDegreeRelationshipsDiagram Pages: 1 -->
<svg width="333pt" height="362pt"
 viewBox="0.00 0.00 333.00 362.00" xmlns="http://www.w3.org/2000/svg" xmlns:xlink="http://www.w3.org/1999/xlink">
<g id="graph0" class="graph" transform="scale(1 1) rotate(0) translate(4 358)">
<title>oneDegreeRelationshipsDiagram</title>
<polygon fill="#ffffff" stroke="transparent" points="-4,4 -4,-358 329,-358 329,4 -4,4"/>
<text text-anchor="middle" x="72.5" y="-7.2" font-family="Helvetica,sans-Serif" font-size="11.00">Generated by SchemaSpy</text>
<!-- assets_tags -->
<g id="node1" class="node">
<title>assets_tags</title>
<g id="a_node1"><a xlink:href="../../tables/assets_tags.html" xlink:title="assets_tags" target="_top">
<polygon fill="#ffffff" stroke="transparent" points="182,-180 182,-268 317,-268 317,-180 182,-180"/>
<polygon fill="#f5f5f5" stroke="transparent" points="184.5,-244 184.5,-266 315.5,-266 315.5,-244 184.5,-244"/>
<polygon fill="none" stroke="black" points="184.5,-244 184.5,-266 315.5,-266 315.5,-244 184.5,-244"/>
<text text-anchor="start" x="189.5" y="-253.2" font-family="Helvetica,sans-Serif" font-weight="bold" font-size="11.00">assets_tags</text>
<text text-anchor="start" x="280.5" y="-252.2" font-family="Helvetica,sans-Serif" font-size="11.00">[table]</text>
<polygon fill="none" stroke="black" points="184.5,-222 184.5,-244 273.5,-244 273.5,-222 184.5,-222"/>
<image xlink:href="../../images/primaryKeys.png" width="11px" height="12px" preserveAspectRatio="xMinYMin meet" x="189.5" y="-239"/>
<text text-anchor="start" x="204.5" y="-230.2" font-family="Helvetica,sans-Serif" font-size="11.00">asset_id</text>
<polygon fill="none" stroke="black" points="273.5,-222 273.5,-244 315.5,-244 315.5,-222 273.5,-222"/>
<text text-anchor="start" x="276.5" y="-230.2" font-family="Helvetica,sans-Serif" font-size="11.00">int4[10]</text>
<polygon fill="none" stroke="black" points="184.5,-200 184.5,-222 273.5,-222 273.5,-200 184.5,-200"/>
<image xlink:href="../../images/primaryKeys.png" width="11px" height="12px" preserveAspectRatio="xMinYMin meet" x="189.5" y="-217"/>
<text text-anchor="start" x="204.5" y="-208.2" font-family="Helvetica,sans-Serif" font-size="11.00">tag_id</text>
<polygon fill="none" stroke="black" points="273.5,-200 273.5,-222 315.5,-222 315.5,-200 273.5,-200"/>
<text text-anchor="start" x="276.5" y="-208.2" font-family="Helvetica,sans-Serif" font-size="11.00">int4[10]</text>
<polygon fill="#ffffff" stroke="transparent" points="184.5,-182 184.5,-200 206.5,-200 206.5,-182 184.5,-182"/>
<polygon fill="none" stroke="black" points="184.5,-182 184.5,-200 206.5,-200 206.5,-182 184.5,-182"/>
<text text-anchor="start" x="187.5" y="-188.2" font-family="Helvetica,sans-Serif" font-size="11.00">&lt; 2</text>
<polygon fill="#ffffff" stroke="transparent" points="206.5,-182 206.5,-200 273.5,-200 273.5,-182 206.5,-182"/>
<polygon fill="none" stroke="black" points="206.5,-182 206.5,-200 273.5,-200 273.5,-182 206.5,-182"/>
<text text-anchor="start" x="209.5" y="-188.2" font-family="Helvetica,sans-Serif" font-size="11.00">22,144 rows</text>
<polygon fill="#ffffff" stroke="transparent" points="273.5,-182 273.5,-200 315.5,-200 315.5,-182 273.5,-182"/>
<polygon fill="none" stroke="black" points="273.5,-182 273.5,-200 315.5,-200 315.5,-182 273.5,-182"/>
<text text-anchor="start" x="296.5" y="-188.2" font-family="Helvetica,sans-Serif" font-size="11.00">0 &gt;</text>
<polygon fill="none" stroke="black" stroke-width="2" points="183,-181 183,-267 316,-267 316,-181 183,-181"/>
</a>
</g>
</g>
<!-- assets -->
<g id="node2" class="node">
<title>assets</title>
<g id="a_node2"><a xlink:href="../../tables/assets.html" xlink:title="assets" target="_top">
<polygon fill="#ffffff" stroke="transparent" points="8,-182 8,-350 133,-350 133,-182 8,-182"/>
<polygon fill="#f5f5f5" stroke="transparent" points="8.5,-328 8.5,-350 133.5,-350 133.5,-328 8.5,-328"/>
<polygon fill="none" stroke="black" points="8.5,-328 8.5,-350 133.5,-350 133.5,-328 8.5,-328"/>
<text text-anchor="start" x="13.5" y="-337.2" font-family="Helvetica,sans-Serif" font-weight="bold" font-size="11.00">assets</text>
<text text-anchor="start" x="98.5" y="-336.2" font-family="Helvetica,sans-Serif" font-size="11.00">[table]</text>
<polygon fill="none" stroke="black" points="8.5,-306 8.5,-328 133.5,-328 133.5,-306 8.5,-306"/>
<image xlink:href="../../images/primaryKeys.png" width="11px" height="12px" preserveAspectRatio="xMinYMin meet" x="13.5" y="-323"/>
<text text-anchor="start" x="28.5" y="-314.2" font-family="Helvetica,sans-Serif" font-size="11.00">id</text>
<polygon fill="none" stroke="black" points="8.5,-284 8.5,-306 133.5,-306 133.5,-284 8.5,-284"/>
<image xlink:href="../../images/foreignKeys.png" width="11px" height="12px" preserveAspectRatio="xMinYMin meet" x="13.5" y="-301"/>
<text text-anchor="start" x="28.5" y="-292.2" font-family="Helvetica,sans-Serif" font-size="11.00">investment_id</text>
<polygon fill="none" stroke="black" points="8.5,-262 8.5,-284 133.5,-284 133.5,-262 8.5,-262"/>
<image xlink:href="../../images/foreignKeys.png" width="11px" height="12px" preserveAspectRatio="xMinYMin meet" x="13.5" y="-279"/>
<text text-anchor="start" x="28.5" y="-270.2" font-family="Helvetica,sans-Serif" font-size="11.00">asset_type_id</text>
<polygon fill="#ffffff" stroke="transparent" points="8.5,-240 8.5,-262 133.5,-262 133.5,-240 8.5,-240"/>
<polygon fill="none" stroke="black" points="8.5,-240 8.5,-262 133.5,-262 133.5,-240 8.5,-240"/>
<text text-anchor="start" x="28.5" y="-248.2" font-family="Helvetica,sans-Serif" font-size="11.00">is_active</text>
<polygon fill="#ffffff" stroke="transparent" points="8.5,-218 8.5,-240 133.5,-240 133.5,-218 8.5,-218"/>
<polygon fill="none" stroke="black" points="8.5,-218 8.5,-240 133.5,-240 133.5,-218 8.5,-218"/>
<image xlink:href="../../images/foreignKeys.png" width="11px" height="12px" preserveAspectRatio="xMinYMin meet" x="13.5" y="-235"/>
<text text-anchor="start" x="28.5" y="-226.2" font-family="Helvetica,sans-Serif" font-size="11.00">ref_id</text>
<polygon fill="none" stroke="black" points="8.5,-200 8.5,-218 133.5,-218 133.5,-200 8.5,-200"/>
<text text-anchor="start" x="11.5" y="-206.2" font-family="Helvetica,sans-Serif" font-size="11.00">...</text>
<polygon fill="#ffffff" stroke="transparent" points="8.5,-182 8.5,-200 37.5,-200 37.5,-182 8.5,-182"/>
<polygon fill="none" stroke="black" points="8.5,-182 8.5,-200 37.5,-200 37.5,-182 8.5,-182"/>
<text text-anchor="start" x="11.5" y="-188.2" font-family="Helvetica,sans-Serif" font-size="11.00">&lt; 3</text>
<polygon fill="#ffffff" stroke="transparent" points="37.5,-182 37.5,-200 107.5,-200 107.5,-182 37.5,-182"/>
<polygon fill="none" stroke="black" points="37.5,-182 37.5,-200 107.5,-200 107.5,-182 37.5,-182"/>
<text text-anchor="start" x="43.5" y="-188.2" font-family="Helvetica,sans-Serif" font-size="11.00">78,452 rows</text>
<polygon fill="#ffffff" stroke="transparent" points="107.5,-182 107.5,-200 133.5,-200 133.5,-182 107.5,-182"/>
<polygon fill="none" stroke="black" points="107.5,-182 107.5,-200 133.5,-200 133.5,-182 107.5,-182"/>
<text text-anchor="start" x="114.5" y="-188.2" font-family="Helvetica,sans-Serif" font-size="11.00">4 &gt;</text>
</a>
</g>
</g>
<!-- assets_tags&#45;&gt;assets -->
<g id="edge1" class="edge">
<title>assets_tags:w&#45;&gt;assets:e</title>
<path fill="none" stroke="black" d="M169.6,-237.52C149.21,-254.96 171.64,-317 134.5,-317"/>
<polygon fill="black" stroke="black" points="175.89,-235.47 184.61,-236.42 179.7,-234.24 183.5,-233 183.5,-233 183.5,-233 179.7,-234.24 182.39,-229.58 175.89,-235.47 175.89,-235.47"/>
<ellipse fill="none" stroke="black" cx="172.85" cy="-236.46" rx="3.2" ry="3.2"/>
</g>
<!-- tags -->
<g id="node3" class="node">
<title>tags</title>
<g id="a_node3"><a xlink:href="../../tables/tags.html" xlink:title="tags" target="_top">
<polygon fill="#ffffff" stroke="transparent" points="22.5,-37 22.5,-161 118.5,-161 118.5,-37 22.5,-37"/>
<polygon fill="#f5f5f5" stroke="transparent" points="22.5,-139 22.5,-161 118.5,-161 118.5,-139 22.5,-139"/>
<polygon fill="none" stroke="black" points="22.5,-139 22.5,-161 118.5,-161 118.5,-139 22.5,-139"/>
<text text-anchor="start" x="27.5" y="-148.2" font-family="Helvetica,sans-Serif" font-weight="bold" font-size="11.00">tags</text>
<text text-anchor="start" x="83.5" y="-147.2" font-family="Helvetica,sans-Serif" font-size="11.00">[table]</text>
<polygon fill="none" stroke="black" points="22.5,-117 22.5,-139 118.5,-139 118.5,-117 22.5,-117"/>
<image xlink:href="../../images/primaryKeys.png" width="11px" height="12px" preserveAspectRatio="xMinYMin meet" x="27.5" y="-134"/>
<text text-anchor="start" x="44.5" y="-125.2" font-family="Helvetica,sans-Serif" font-size="11.00">id</text>
<polygon fill="#ffffff" stroke="transparent" points="22.5,-95 22.5,-117 118.5,-117 118.5,-95 22.5,-95"/>
<polygon fill="none" stroke="black" points="22.5,-95 22.5,-117 118.5,-117 118.5,-95 22.5,-95"/>
<image xlink:href="../../images/foreignKeys.png" width="11px" height="12px" preserveAspectRatio="xMinYMin meet" x="27.5" y="-112"/>
<text text-anchor="start" x="44.5" y="-103.2" font-family="Helvetica,sans-Serif" font-size="11.00">customer_id</text>
<polygon fill="#ffffff" stroke="transparent" points="22.5,-73 22.5,-95 118.5,-95 118.5,-73 22.5,-73"/>
<polygon fill="none" stroke="black" points="22.5,-73 22.5,-95 118.5,-95 118.5,-73 22.5,-73"/>
<text text-anchor="start" x="44.5" y="-81.2" font-family="Helvetica,sans-Serif" font-size="11.00">name</text>
<polygon fill="none" stroke="black" points="22.5,-55 22.5,-73 118.5,-73 118.5,-55 22.5,-55"/>
<text text-anchor="start" x="25.5" y="-61.2" font-family="Helvetica,sans-Serif" font-size="11.00">...</text>
<polygon fill="#ffffff" stroke="transparent" points="22.5,-37 22.5,-55 44.5,-55 44.5,-37 22.5,-37"/>
<polygon fill="none" stroke="black" points="22.5,-37 22.5,-55 44.5,-55 44.5,-37 22.5,-37"/>
<text text-anchor="start" x="25.5" y="-43.2" font-family="Helvetica,sans-Serif" font-size="11.00">&lt; 1</text>
<polygon fill="#ffffff" stroke="transparent" points="44.5,-37 44.5,-55 96.5,-55 96.5,-37 44.5,-37"/>
<polygon fill="none" stroke="black" points="44.5,-37 44.5,-55 96.5,-55 96.5,-37 44.5,-37"/>
<text text-anchor="start" x="47.5" y="-43.2" font-family="Helvetica,sans-Serif" font-size="11.00">339 rows</text>
<polygon fill="#ffffff" stroke="transparent" points="96.5,-37 96.5,-55 118.5,-55 118.5,-37 96.5,-37"/>
<polygon fill="none" stroke="black" points="96.5,-37 96.5,-55 118.5,-55 118.5,-37 96.5,-37"/>
<text text-anchor="start" x="99.5" y="-43.2" font-family="Helvetica,sans-Serif" font-size="11.00">1 &gt;</text>
</a>
</g>
</g>
<!-- assets_tags&#45;&gt;tags -->
<g id="edge2" class="edge">
<title>assets_tags:w&#45;&gt;tags:e</title>
<path fill="none" stroke="black" d="M169.29,-207.43C143.03,-191.55 160.26,-128 119.5,-128"/>
<polygon fill="black" stroke="black" points="175.74,-209.05 182.62,-214.49 179.62,-210.03 183.5,-211 183.5,-211 183.5,-211 179.62,-210.03 184.38,-207.51 175.74,-209.05 175.74,-209.05"/>
<ellipse fill="none" stroke="black" cx="172.64" cy="-208.27" rx="3.2" ry="3.2"/>
</g>
</g>
</svg>
