<?xml version="1.0" encoding="UTF-8" standalone="no"?>
<!DOCTYPE svg PUBLIC "-//W3C//DTD SVG 1.1//EN"
 "http://www.w3.org/Graphics/SVG/1.1/DTD/svg11.dtd">
<!-- Generated by graphviz version 2.50.0 (20211204.2007)
 -->
<!-- Title: oneDegreeRelationshipsDiagram Pages: 1 -->
<svg width="423pt" height="340pt"
 viewBox="0.00 0.00 423.00 340.00" xmlns="http://www.w3.org/2000/svg" xmlns:xlink="http://www.w3.org/1999/xlink">
<g id="graph0" class="graph" transform="scale(1 1) rotate(0) translate(4 336)">
<title>oneDegreeRelationshipsDiagram</title>
<polygon fill="#ffffff" stroke="transparent" points="-4,4 -4,-336 419,-336 419,4 -4,4"/>
<text text-anchor="middle" x="72.5" y="-7.2" font-family="Helvetica,sans-Serif" font-size="11.00">Generated by SchemaSpy</text>
<!-- asset_values -->
<g id="node1" class="node">
<title>asset_values</title>
<g id="a_node1"><a xlink:href="../../tables/asset_values.html" xlink:title="asset_values" target="_top">
<polygon fill="#ffffff" stroke="transparent" points="200,-114 200,-268 407,-268 407,-114 200,-114"/>
<polygon fill="#f5f5f5" stroke="transparent" points="202.5,-244 202.5,-266 405.5,-266 405.5,-244 202.5,-244"/>
<polygon fill="none" stroke="black" points="202.5,-244 202.5,-266 405.5,-266 405.5,-244 202.5,-244"/>
<text text-anchor="start" x="207.5" y="-253.2" font-family="Helvetica,sans-Serif" font-weight="bold" font-size="11.00">asset_values</text>
<text text-anchor="start" x="370.5" y="-252.2" font-family="Helvetica,sans-Serif" font-size="11.00">[table]</text>
<polygon fill="none" stroke="black" points="202.5,-222 202.5,-244 339.5,-244 339.5,-222 202.5,-222"/>
<image xlink:href="../../images/primaryKeys.png" width="11px" height="12px" preserveAspectRatio="xMinYMin meet" x="207.5" y="-239"/>
<text text-anchor="start" x="222.5" y="-230.2" font-family="Helvetica,sans-Serif" font-size="11.00">id</text>
<polygon fill="none" stroke="black" points="339.5,-222 339.5,-244 405.5,-244 405.5,-222 339.5,-222"/>
<text text-anchor="start" x="342.5" y="-230.2" font-family="Helvetica,sans-Serif" font-size="11.00">serial[10]</text>
<polygon fill="#ffffff" stroke="transparent" points="202.5,-200 202.5,-222 339.5,-222 339.5,-200 202.5,-200"/>
<polygon fill="none" stroke="black" points="202.5,-200 202.5,-222 339.5,-222 339.5,-200 202.5,-200"/>
<image xlink:href="../../images/foreignKeys.png" width="11px" height="12px" preserveAspectRatio="xMinYMin meet" x="207.5" y="-217"/>
<text text-anchor="start" x="222.5" y="-208.2" font-family="Helvetica,sans-Serif" font-size="11.00">asset_id</text>
<polygon fill="none" stroke="black" points="339.5,-200 339.5,-222 405.5,-222 405.5,-200 339.5,-200"/>
<text text-anchor="start" x="342.5" y="-208.2" font-family="Helvetica,sans-Serif" font-size="11.00">int4[10]</text>
<polygon fill="#ffffff" stroke="transparent" points="202.5,-178 202.5,-200 339.5,-200 339.5,-178 202.5,-178"/>
<polygon fill="none" stroke="black" points="202.5,-178 202.5,-200 339.5,-200 339.5,-178 202.5,-178"/>
<image xlink:href="../../images/foreignKeys.png" width="11px" height="12px" preserveAspectRatio="xMinYMin meet" x="207.5" y="-195"/>
<text text-anchor="start" x="222.5" y="-186.2" font-family="Helvetica,sans-Serif" font-size="11.00">asset_value_type_id</text>
<polygon fill="none" stroke="black" points="339.5,-178 339.5,-200 405.5,-200 405.5,-178 339.5,-178"/>
<text text-anchor="start" x="342.5" y="-186.2" font-family="Helvetica,sans-Serif" font-size="11.00">int4[10]</text>
<polygon fill="none" stroke="black" points="202.5,-156 202.5,-178 339.5,-178 339.5,-156 202.5,-156"/>
<text text-anchor="start" x="222.5" y="-164.2" font-family="Helvetica,sans-Serif" font-size="11.00">val_nonmonitary</text>
<polygon fill="none" stroke="black" points="339.5,-156 339.5,-178 405.5,-178 405.5,-156 339.5,-156"/>
<text text-anchor="start" x="342.5" y="-164.2" font-family="Helvetica,sans-Serif" font-size="11.00">float8[17,17]</text>
<polygon fill="none" stroke="black" points="202.5,-134 202.5,-156 339.5,-156 339.5,-134 202.5,-134"/>
<text text-anchor="start" x="222.5" y="-142.2" font-family="Helvetica,sans-Serif" font-size="11.00">val_monitary</text>
<polygon fill="none" stroke="black" points="339.5,-134 339.5,-156 405.5,-156 405.5,-134 339.5,-134"/>
<text text-anchor="start" x="342.5" y="-142.2" font-family="Helvetica,sans-Serif" font-size="11.00">float8[17,17]</text>
<polygon fill="#ffffff" stroke="transparent" points="202.5,-116 202.5,-134 261.5,-134 261.5,-116 202.5,-116"/>
<polygon fill="none" stroke="black" points="202.5,-116 202.5,-134 261.5,-134 261.5,-116 202.5,-116"/>
<text text-anchor="start" x="205.5" y="-122.2" font-family="Helvetica,sans-Serif" font-size="11.00">&lt; 2</text>
<polygon fill="#ffffff" stroke="transparent" points="261.5,-116 261.5,-134 339.5,-134 339.5,-116 261.5,-116"/>
<polygon fill="none" stroke="black" points="261.5,-116 261.5,-134 339.5,-134 339.5,-116 261.5,-116"/>
<text text-anchor="start" x="302.5" y="-122.2" font-family="Helvetica,sans-Serif" font-size="11.00">8 rows</text>
<polygon fill="#ffffff" stroke="transparent" points="339.5,-116 339.5,-134 405.5,-134 405.5,-116 339.5,-116"/>
<polygon fill="none" stroke="black" points="339.5,-116 339.5,-134 405.5,-134 405.5,-116 339.5,-116"/>
<text text-anchor="start" x="386.5" y="-122.2" font-family="Helvetica,sans-Serif" font-size="11.00">0 &gt;</text>
<polygon fill="none" stroke="black" stroke-width="2" points="201,-115 201,-267 406,-267 406,-115 201,-115"/>
</a>
</g>
</g>
<!-- assets -->
<g id="node2" class="node">
<title>assets</title>
<g id="a_node2"><a xlink:href="../../tables/assets.html" xlink:title="assets" target="_top">
<polygon fill="#ffffff" stroke="transparent" points="17,-160 17,-328 142,-328 142,-160 17,-160"/>
<polygon fill="#f5f5f5" stroke="transparent" points="17.5,-306 17.5,-328 142.5,-328 142.5,-306 17.5,-306"/>
<polygon fill="none" stroke="black" points="17.5,-306 17.5,-328 142.5,-328 142.5,-306 17.5,-306"/>
<text text-anchor="start" x="22.5" y="-315.2" font-family="Helvetica,sans-Serif" font-weight="bold" font-size="11.00">assets</text>
<text text-anchor="start" x="107.5" y="-314.2" font-family="Helvetica,sans-Serif" font-size="11.00">[table]</text>
<polygon fill="none" stroke="black" points="17.5,-284 17.5,-306 142.5,-306 142.5,-284 17.5,-284"/>
<image xlink:href="../../images/primaryKeys.png" width="11px" height="12px" preserveAspectRatio="xMinYMin meet" x="22.5" y="-301"/>
<text text-anchor="start" x="37.5" y="-292.2" font-family="Helvetica,sans-Serif" font-size="11.00">id</text>
<polygon fill="none" stroke="black" points="17.5,-262 17.5,-284 142.5,-284 142.5,-262 17.5,-262"/>
<image xlink:href="../../images/foreignKeys.png" width="11px" height="12px" preserveAspectRatio="xMinYMin meet" x="22.5" y="-279"/>
<text text-anchor="start" x="37.5" y="-270.2" font-family="Helvetica,sans-Serif" font-size="11.00">investment_id</text>
<polygon fill="none" stroke="black" points="17.5,-240 17.5,-262 142.5,-262 142.5,-240 17.5,-240"/>
<image xlink:href="../../images/foreignKeys.png" width="11px" height="12px" preserveAspectRatio="xMinYMin meet" x="22.5" y="-257"/>
<text text-anchor="start" x="37.5" y="-248.2" font-family="Helvetica,sans-Serif" font-size="11.00">asset_type_id</text>
<polygon fill="#ffffff" stroke="transparent" points="17.5,-218 17.5,-240 142.5,-240 142.5,-218 17.5,-218"/>
<polygon fill="none" stroke="black" points="17.5,-218 17.5,-240 142.5,-240 142.5,-218 17.5,-218"/>
<text text-anchor="start" x="37.5" y="-226.2" font-family="Helvetica,sans-Serif" font-size="11.00">is_active</text>
<polygon fill="#ffffff" stroke="transparent" points="17.5,-196 17.5,-218 142.5,-218 142.5,-196 17.5,-196"/>
<polygon fill="none" stroke="black" points="17.5,-196 17.5,-218 142.5,-218 142.5,-196 17.5,-196"/>
<image xlink:href="../../images/foreignKeys.png" width="11px" height="12px" preserveAspectRatio="xMinYMin meet" x="22.5" y="-213"/>
<text text-anchor="start" x="37.5" y="-204.2" font-family="Helvetica,sans-Serif" font-size="11.00">ref_id</text>
<polygon fill="none" stroke="black" points="17.5,-178 17.5,-196 142.5,-196 142.5,-178 17.5,-178"/>
<text text-anchor="start" x="20.5" y="-184.2" font-family="Helvetica,sans-Serif" font-size="11.00">...</text>
<polygon fill="#ffffff" stroke="transparent" points="17.5,-160 17.5,-178 46.5,-178 46.5,-160 17.5,-160"/>
<polygon fill="none" stroke="black" points="17.5,-160 17.5,-178 46.5,-178 46.5,-160 17.5,-160"/>
<text text-anchor="start" x="20.5" y="-166.2" font-family="Helvetica,sans-Serif" font-size="11.00">&lt; 3</text>
<polygon fill="#ffffff" stroke="transparent" points="46.5,-160 46.5,-178 116.5,-178 116.5,-160 46.5,-160"/>
<polygon fill="none" stroke="black" points="46.5,-160 46.5,-178 116.5,-178 116.5,-160 46.5,-160"/>
<text text-anchor="start" x="52.5" y="-166.2" font-family="Helvetica,sans-Serif" font-size="11.00">78,452 rows</text>
<polygon fill="#ffffff" stroke="transparent" points="116.5,-160 116.5,-178 142.5,-178 142.5,-160 116.5,-160"/>
<polygon fill="none" stroke="black" points="116.5,-160 116.5,-178 142.5,-178 142.5,-160 116.5,-160"/>
<text text-anchor="start" x="123.5" y="-166.2" font-family="Helvetica,sans-Serif" font-size="11.00">4 &gt;</text>
</a>
</g>
</g>
<!-- asset_values&#45;&gt;assets -->
<g id="edge1" class="edge">
<title>asset_values:w&#45;&gt;assets:e</title>
<path fill="none" stroke="black" d="M187.51,-214.83C163.27,-231.26 183.02,-295 143.5,-295"/>
<polygon fill="black" stroke="black" points="193.78,-213.11 202.45,-214.47 197.64,-212.06 201.5,-211 201.5,-211 201.5,-211 197.64,-212.06 200.55,-207.53 193.78,-213.11 193.78,-213.11"/>
<ellipse fill="none" stroke="black" cx="190.7" cy="-213.96" rx="3.2" ry="3.2"/>
</g>
<!-- asset_value_types -->
<g id="node3" class="node">
<title>asset_value_types</title>
<g id="a_node3"><a xlink:href="../../tables/asset_value_types.html" xlink:title="asset_value_types" target="_top">
<polygon fill="#ffffff" stroke="transparent" points="8,-37 8,-139 151,-139 151,-37 8,-37"/>
<polygon fill="#f5f5f5" stroke="transparent" points="8.5,-117 8.5,-139 151.5,-139 151.5,-117 8.5,-117"/>
<polygon fill="none" stroke="black" points="8.5,-117 8.5,-139 151.5,-139 151.5,-117 8.5,-117"/>
<text text-anchor="start" x="13.5" y="-126.2" font-family="Helvetica,sans-Serif" font-weight="bold" font-size="11.00">asset_value_types</text>
<text text-anchor="start" x="116.5" y="-125.2" font-family="Helvetica,sans-Serif" font-size="11.00">[table]</text>
<polygon fill="none" stroke="black" points="8.5,-95 8.5,-117 151.5,-117 151.5,-95 8.5,-95"/>
<image xlink:href="../../images/primaryKeys.png" width="11px" height="12px" preserveAspectRatio="xMinYMin meet" x="13.5" y="-112"/>
<text text-anchor="start" x="36.5" y="-103.2" font-family="Helvetica,sans-Serif" font-size="11.00">id</text>
<polygon fill="#ffffff" stroke="transparent" points="8.5,-73 8.5,-95 151.5,-95 151.5,-73 8.5,-73"/>
<polygon fill="none" stroke="black" points="8.5,-73 8.5,-95 151.5,-95 151.5,-73 8.5,-73"/>
<text text-anchor="start" x="36.5" y="-81.2" font-family="Helvetica,sans-Serif" font-size="11.00">name</text>
<polygon fill="none" stroke="black" points="8.5,-55 8.5,-73 151.5,-73 151.5,-55 8.5,-55"/>
<text text-anchor="start" x="11.5" y="-61.2" font-family="Helvetica,sans-Serif" font-size="11.00">...</text>
<polygon fill="#ffffff" stroke="transparent" points="8.5,-37 8.5,-55 55.5,-55 55.5,-37 8.5,-37"/>
<polygon fill="none" stroke="black" points="8.5,-37 8.5,-55 55.5,-55 55.5,-37 8.5,-37"/>
<text text-anchor="start" x="11.5" y="-43.2" font-family="Helvetica,sans-Serif" font-size="11.00"> &#160;</text>
<polygon fill="#ffffff" stroke="transparent" points="55.5,-37 55.5,-55 112.5,-55 112.5,-37 55.5,-37"/>
<polygon fill="none" stroke="black" points="55.5,-37 55.5,-55 112.5,-55 112.5,-37 55.5,-37"/>
<text text-anchor="start" x="75.5" y="-43.2" font-family="Helvetica,sans-Serif" font-size="11.00">3 rows</text>
<polygon fill="#ffffff" stroke="transparent" points="112.5,-37 112.5,-55 151.5,-55 151.5,-37 112.5,-37"/>
<polygon fill="none" stroke="black" points="112.5,-37 112.5,-55 151.5,-55 151.5,-37 112.5,-37"/>
<text text-anchor="start" x="132.5" y="-43.2" font-family="Helvetica,sans-Serif" font-size="11.00">2 &gt;</text>
</a>
</g>
</g>
<!-- asset_values&#45;&gt;asset_value_types -->
<g id="edge2" class="edge">
<title>asset_values:w&#45;&gt;asset_value_types:e</title>
<path fill="none" stroke="black" d="M187.7,-184.54C167.4,-167.3 189.31,-106 152.5,-106"/>
<polygon fill="black" stroke="black" points="193.89,-186.54 200.39,-192.43 197.69,-187.77 201.5,-189 201.5,-189 201.5,-189 197.69,-187.77 202.61,-185.57 193.89,-186.54 193.89,-186.54"/>
<ellipse fill="none" stroke="black" cx="190.84" cy="-185.55" rx="3.2" ry="3.2"/>
</g>
</g>
</svg>
