<?xml version="1.0" encoding="UTF-8" standalone="no"?>
<!DOCTYPE svg PUBLIC "-//W3C//DTD SVG 1.1//EN"
 "http://www.w3.org/Graphics/SVG/1.1/DTD/svg11.dtd">
<!-- Generated by graphviz version 2.50.0 (20211204.2007)
 -->
<!-- Title: oneDegreeRelationshipsDiagram Pages: 1 -->
<svg width="411pt" height="339pt"
 viewBox="0.00 0.00 411.00 339.00" xmlns="http://www.w3.org/2000/svg" xmlns:xlink="http://www.w3.org/1999/xlink">
<g id="graph0" class="graph" transform="scale(1 1) rotate(0) translate(4 335)">
<title>oneDegreeRelationshipsDiagram</title>
<polygon fill="#ffffff" stroke="transparent" points="-4,4 -4,-335 407,-335 407,4 -4,4"/>
<text text-anchor="middle" x="72.5" y="-7.2" font-family="Helvetica,sans-Serif" font-size="11.00">Generated by SchemaSpy</text>
<!-- asset_values -->
<g id="node1" class="node">
<title>asset_values</title>
<g id="a_node1"><a xlink:href="../../tables/asset_values.html" xlink:title="asset_values" target="_top">
<polygon fill="#ffffff" stroke="transparent" points="253.5,-203 253.5,-327 390.5,-327 390.5,-203 253.5,-203"/>
<polygon fill="#f5f5f5" stroke="transparent" points="254,-305 254,-327 391,-327 391,-305 254,-305"/>
<polygon fill="none" stroke="black" points="254,-305 254,-327 391,-327 391,-305 254,-305"/>
<text text-anchor="start" x="259" y="-314.2" font-family="Helvetica,sans-Serif" font-weight="bold" font-size="11.00">asset_values</text>
<text text-anchor="start" x="356" y="-313.2" font-family="Helvetica,sans-Serif" font-size="11.00">[table]</text>
<polygon fill="none" stroke="black" points="254,-283 254,-305 391,-305 391,-283 254,-283"/>
<image xlink:href="../../images/primaryKeys.png" width="11px" height="12px" preserveAspectRatio="xMinYMin meet" x="259" y="-300"/>
<text text-anchor="start" x="274" y="-291.2" font-family="Helvetica,sans-Serif" font-size="11.00">id</text>
<polygon fill="#ffffff" stroke="transparent" points="254,-261 254,-283 391,-283 391,-261 254,-261"/>
<polygon fill="none" stroke="black" points="254,-261 254,-283 391,-283 391,-261 254,-261"/>
<image xlink:href="../../images/foreignKeys.png" width="11px" height="12px" preserveAspectRatio="xMinYMin meet" x="259" y="-278"/>
<text text-anchor="start" x="274" y="-269.2" font-family="Helvetica,sans-Serif" font-size="11.00">asset_id</text>
<polygon fill="#ffffff" stroke="transparent" points="254,-239 254,-261 391,-261 391,-239 254,-239"/>
<polygon fill="none" stroke="black" points="254,-239 254,-261 391,-261 391,-239 254,-239"/>
<image xlink:href="../../images/foreignKeys.png" width="11px" height="12px" preserveAspectRatio="xMinYMin meet" x="259" y="-256"/>
<text text-anchor="start" x="274" y="-247.2" font-family="Helvetica,sans-Serif" font-size="11.00">asset_value_type_id</text>
<polygon fill="none" stroke="black" points="254,-221 254,-239 391,-239 391,-221 254,-221"/>
<text text-anchor="start" x="257" y="-227.2" font-family="Helvetica,sans-Serif" font-size="11.00">...</text>
<polygon fill="#ffffff" stroke="transparent" points="254,-203 254,-221 307,-221 307,-203 254,-203"/>
<polygon fill="none" stroke="black" points="254,-203 254,-221 307,-221 307,-203 254,-203"/>
<text text-anchor="start" x="257" y="-209.2" font-family="Helvetica,sans-Serif" font-size="11.00">&lt; 2</text>
<polygon fill="#ffffff" stroke="transparent" points="307,-203 307,-221 362,-221 362,-203 307,-203"/>
<polygon fill="none" stroke="black" points="307,-203 307,-221 362,-221 362,-203 307,-203"/>
<text text-anchor="start" x="325" y="-209.2" font-family="Helvetica,sans-Serif" font-size="11.00">8 rows</text>
<polygon fill="#ffffff" stroke="transparent" points="362,-203 362,-221 391,-221 391,-203 362,-203"/>
<polygon fill="none" stroke="black" points="362,-203 362,-221 391,-221 391,-203 362,-203"/>
<text text-anchor="start" x="381" y="-209.2" font-family="Helvetica,sans-Serif" font-size="11.00"> &#160;</text>
</a>
</g>
</g>
<!-- asset_value_types -->
<g id="node2" class="node">
<title>asset_value_types</title>
<g id="a_node2"><a xlink:href="../../tables/asset_value_types.html" xlink:title="asset_value_types" target="_top">
<polygon fill="#ffffff" stroke="transparent" points="8,-37 8,-213 200,-213 200,-37 8,-37"/>
<polygon fill="#f5f5f5" stroke="transparent" points="10,-189 10,-211 198,-211 198,-189 10,-189"/>
<polygon fill="none" stroke="black" points="10,-189 10,-211 198,-211 198,-189 10,-189"/>
<text text-anchor="start" x="15" y="-198.2" font-family="Helvetica,sans-Serif" font-weight="bold" font-size="11.00">asset_value_types</text>
<text text-anchor="start" x="163" y="-197.2" font-family="Helvetica,sans-Serif" font-size="11.00">[table]</text>
<polygon fill="none" stroke="black" points="10,-167 10,-189 137,-189 137,-167 10,-167"/>
<image xlink:href="../../images/primaryKeys.png" width="11px" height="12px" preserveAspectRatio="xMinYMin meet" x="15" y="-184"/>
<text text-anchor="start" x="30" y="-175.2" font-family="Helvetica,sans-Serif" font-size="11.00">id</text>
<polygon fill="none" stroke="black" points="137,-167 137,-189 198,-189 198,-167 137,-167"/>
<text text-anchor="start" x="140" y="-175.2" font-family="Helvetica,sans-Serif" font-size="11.00">serial[10]</text>
<polygon fill="#ffffff" stroke="transparent" points="10,-145 10,-167 137,-167 137,-145 10,-145"/>
<polygon fill="none" stroke="black" points="10,-145 10,-167 137,-167 137,-145 10,-145"/>
<text text-anchor="start" x="30" y="-153.2" font-family="Helvetica,sans-Serif" font-size="11.00">name</text>
<polygon fill="none" stroke="black" points="137,-145 137,-167 198,-167 198,-145 137,-145"/>
<text text-anchor="start" x="140" y="-153.2" font-family="Helvetica,sans-Serif" font-size="11.00">varchar[64]</text>
<polygon fill="none" stroke="black" points="10,-123 10,-145 137,-145 137,-123 10,-123"/>
<text text-anchor="start" x="30" y="-131.2" font-family="Helvetica,sans-Serif" font-size="11.00">system</text>
<polygon fill="none" stroke="black" points="137,-123 137,-145 198,-145 198,-123 137,-123"/>
<text text-anchor="start" x="140" y="-131.2" font-family="Helvetica,sans-Serif" font-size="11.00">int4[10]</text>
<polygon fill="none" stroke="black" points="10,-101 10,-123 137,-123 137,-101 10,-101"/>
<text text-anchor="start" x="30" y="-109.2" font-family="Helvetica,sans-Serif" font-size="11.00">class</text>
<polygon fill="none" stroke="black" points="137,-101 137,-123 198,-123 198,-101 137,-101"/>
<text text-anchor="start" x="140" y="-109.2" font-family="Helvetica,sans-Serif" font-size="11.00">int4[10]</text>
<polygon fill="none" stroke="black" points="10,-79 10,-101 137,-101 137,-79 10,-79"/>
<text text-anchor="start" x="30" y="-87.2" font-family="Helvetica,sans-Serif" font-size="11.00">scale</text>
<polygon fill="none" stroke="black" points="137,-79 137,-101 198,-101 198,-79 137,-79"/>
<text text-anchor="start" x="140" y="-87.2" font-family="Helvetica,sans-Serif" font-size="11.00">int4[10]</text>
<polygon fill="none" stroke="black" points="10,-57 10,-79 137,-79 137,-57 10,-57"/>
<text text-anchor="start" x="30" y="-65.2" font-family="Helvetica,sans-Serif" font-size="11.00">uom</text>
<polygon fill="none" stroke="black" points="137,-57 137,-79 198,-79 198,-57 137,-57"/>
<text text-anchor="start" x="140" y="-65.2" font-family="Helvetica,sans-Serif" font-size="11.00">varchar[32]</text>
<polygon fill="#ffffff" stroke="transparent" points="10,-39 10,-57 64,-57 64,-39 10,-39"/>
<polygon fill="none" stroke="black" points="10,-39 10,-57 64,-57 64,-39 10,-39"/>
<text text-anchor="start" x="13" y="-45.2" font-family="Helvetica,sans-Serif" font-size="11.00">&lt; 0</text>
<polygon fill="#ffffff" stroke="transparent" points="64,-39 64,-57 137,-57 137,-39 64,-39"/>
<polygon fill="none" stroke="black" points="64,-39 64,-57 137,-57 137,-39 64,-39"/>
<text text-anchor="start" x="100" y="-45.2" font-family="Helvetica,sans-Serif" font-size="11.00">3 rows</text>
<polygon fill="#ffffff" stroke="transparent" points="137,-39 137,-57 198,-57 198,-39 137,-39"/>
<polygon fill="none" stroke="black" points="137,-39 137,-57 198,-57 198,-39 137,-39"/>
<text text-anchor="start" x="179" y="-45.2" font-family="Helvetica,sans-Serif" font-size="11.00">2 &gt;</text>
<polygon fill="none" stroke="black" stroke-width="2" points="9,-38 9,-212 199,-212 199,-38 9,-38"/>
</a>
</g>
</g>
<!-- asset_values&#45;&gt;asset_value_types -->
<g id="edge1" class="edge">
<title>asset_values:w&#45;&gt;asset_value_types:e</title>
<path fill="none" stroke="black" d="M239.12,-245.71C219.26,-230.21 233.06,-178 199,-178"/>
<polygon fill="black" stroke="black" points="245.36,-247.64 251.94,-253.44 249.18,-248.82 253,-250 253,-250 253,-250 249.18,-248.82 254.06,-246.56 245.36,-247.64 245.36,-247.64"/>
<ellipse fill="none" stroke="black" cx="242.3" cy="-246.69" rx="3.2" ry="3.2"/>
</g>
<!-- group_value_types -->
<g id="node3" class="node">
<title>group_value_types</title>
<g id="a_node3"><a xlink:href="../../tables/group_value_types.html" xlink:title="group_value_types" target="_top">
<polygon fill="#ffffff" stroke="transparent" points="249,-76 249,-182 395,-182 395,-76 249,-76"/>
<polygon fill="#f5f5f5" stroke="transparent" points="249,-160 249,-182 395,-182 395,-160 249,-160"/>
<polygon fill="none" stroke="black" points="249,-160 249,-182 395,-182 395,-160 249,-160"/>
<text text-anchor="start" x="254" y="-169.2" font-family="Helvetica,sans-Serif" font-weight="bold" font-size="11.00">group_value_types</text>
<text text-anchor="start" x="360" y="-168.2" font-family="Helvetica,sans-Serif" font-size="11.00">[table]</text>
<polygon fill="none" stroke="black" points="249,-138 249,-160 395,-160 395,-138 249,-138"/>
<image xlink:href="../../images/primaryKeys.png" width="11px" height="12px" preserveAspectRatio="xMinYMin meet" x="254" y="-155"/>
<text text-anchor="start" x="277" y="-146.2" font-family="Helvetica,sans-Serif" font-size="11.00">id</text>
<polygon fill="#ffffff" stroke="transparent" points="249,-116 249,-138 395,-138 395,-116 249,-116"/>
<polygon fill="none" stroke="black" points="249,-116 249,-138 395,-138 395,-116 249,-116"/>
<image xlink:href="../../images/foreignKeys.png" width="11px" height="12px" preserveAspectRatio="xMinYMin meet" x="254" y="-133"/>
<text text-anchor="start" x="277" y="-124.2" font-family="Helvetica,sans-Serif" font-size="11.00">group_id</text>
<polygon fill="#ffffff" stroke="transparent" points="249,-94 249,-116 395,-116 395,-94 249,-94"/>
<polygon fill="none" stroke="black" points="249,-94 249,-116 395,-116 395,-94 249,-94"/>
<image xlink:href="../../images/foreignKeys.png" width="11px" height="12px" preserveAspectRatio="xMinYMin meet" x="254" y="-111"/>
<text text-anchor="start" x="277" y="-102.2" font-family="Helvetica,sans-Serif" font-size="11.00">value_type_id</text>
<polygon fill="#ffffff" stroke="transparent" points="249,-76 249,-94 306,-94 306,-76 249,-76"/>
<polygon fill="none" stroke="black" points="249,-76 249,-94 306,-94 306,-76 249,-76"/>
<text text-anchor="start" x="252" y="-82.2" font-family="Helvetica,sans-Serif" font-size="11.00">&lt; 2</text>
<polygon fill="#ffffff" stroke="transparent" points="306,-76 306,-94 364,-94 364,-76 306,-76"/>
<polygon fill="none" stroke="black" points="306,-76 306,-94 364,-94 364,-76 306,-76"/>
<text text-anchor="start" x="327" y="-82.2" font-family="Helvetica,sans-Serif" font-size="11.00">0 rows</text>
<polygon fill="#ffffff" stroke="transparent" points="364,-76 364,-94 395,-94 395,-76 364,-76"/>
<polygon fill="none" stroke="black" points="364,-76 364,-94 395,-94 395,-76 364,-76"/>
<text text-anchor="start" x="385" y="-82.2" font-family="Helvetica,sans-Serif" font-size="11.00"> &#160;</text>
</a>
</g>
</g>
<!-- group_value_types&#45;&gt;asset_value_types -->
<g id="edge2" class="edge">
<title>group_value_types:w&#45;&gt;asset_value_types:e</title>
<path fill="none" stroke="black" d="M234.16,-109.79C216.37,-126.03 231.97,-178 199,-178"/>
<polygon fill="black" stroke="black" points="240.44,-107.62 249.18,-108.4 244.22,-106.31 248,-105 248,-105 248,-105 244.22,-106.31 246.82,-101.6 240.44,-107.62 240.44,-107.62"/>
<ellipse fill="none" stroke="black" cx="237.42" cy="-108.66" rx="3.2" ry="3.2"/>
</g>
</g>
</svg>
