<?xml version="1.0" encoding="UTF-8" standalone="no"?>
<!DOCTYPE svg PUBLIC "-//W3C//DTD SVG 1.1//EN"
 "http://www.w3.org/Graphics/SVG/1.1/DTD/svg11.dtd">
<!-- Generated by graphviz version 2.50.0 (20211204.2007)
 -->
<!-- Title: oneDegreeRelationshipsDiagram Pages: 1 -->
<svg width="652pt" height="398pt"
 viewBox="0.00 0.00 652.00 398.00" xmlns="http://www.w3.org/2000/svg" xmlns:xlink="http://www.w3.org/1999/xlink">
<g id="graph0" class="graph" transform="scale(1 1) rotate(0) translate(4 394)">
<title>oneDegreeRelationshipsDiagram</title>
<polygon fill="#ffffff" stroke="transparent" points="-4,4 -4,-394 648,-394 648,4 -4,4"/>
<text text-anchor="middle" x="72.5" y="-7.2" font-family="Helvetica,sans-Serif" font-size="11.00">Generated by SchemaSpy</text>
<!-- asset_types_impact_functions -->
<g id="node1" class="node">
<title>asset_types_impact_functions</title>
<g id="a_node1"><a xlink:href="../../tables/asset_types_impact_functions.html" xlink:title="asset_types_impact_functions" target="_top">
<polygon fill="#ffffff" stroke="transparent" points="352,-89 352,-265 636,-265 636,-89 352,-89"/>
<polygon fill="#f5f5f5" stroke="transparent" points="354,-241 354,-263 634,-263 634,-241 354,-241"/>
<polygon fill="none" stroke="black" points="354,-241 354,-263 634,-263 634,-241 354,-241"/>
<text text-anchor="start" x="359" y="-250.2" font-family="Helvetica,sans-Serif" font-weight="bold" font-size="11.00">asset_types_impact_functions</text>
<text text-anchor="start" x="599" y="-249.2" font-family="Helvetica,sans-Serif" font-size="11.00">[table]</text>
<polygon fill="none" stroke="black" points="354,-219 354,-241 549,-241 549,-219 354,-219"/>
<image xlink:href="../../images/primaryKeys.png" width="11px" height="12px" preserveAspectRatio="xMinYMin meet" x="359" y="-236"/>
<text text-anchor="start" x="374" y="-227.2" font-family="Helvetica,sans-Serif" font-size="11.00">asset_type_id</text>
<polygon fill="none" stroke="black" points="549,-219 549,-241 634,-241 634,-219 549,-219"/>
<text text-anchor="start" x="552" y="-227.2" font-family="Helvetica,sans-Serif" font-size="11.00">int4[10]</text>
<polygon fill="none" stroke="black" points="354,-197 354,-219 549,-219 549,-197 354,-197"/>
<image xlink:href="../../images/primaryKeys.png" width="11px" height="12px" preserveAspectRatio="xMinYMin meet" x="359" y="-214"/>
<text text-anchor="start" x="374" y="-205.2" font-family="Helvetica,sans-Serif" font-size="11.00">impact_function_id</text>
<polygon fill="none" stroke="black" points="549,-197 549,-219 634,-219 634,-197 549,-197"/>
<text text-anchor="start" x="552" y="-205.2" font-family="Helvetica,sans-Serif" font-size="11.00">int4[10]</text>
<polygon fill="none" stroke="black" points="354,-175 354,-197 549,-197 549,-175 354,-175"/>
<image xlink:href="../../images/foreignKeys.png" width="11px" height="12px" preserveAspectRatio="xMinYMin meet" x="359" y="-192"/>
<text text-anchor="start" x="374" y="-183.2" font-family="Helvetica,sans-Serif" font-size="11.00">risk_factor_id</text>
<polygon fill="none" stroke="black" points="549,-175 549,-197 634,-197 634,-175 549,-175"/>
<text text-anchor="start" x="552" y="-183.2" font-family="Helvetica,sans-Serif" font-size="11.00">int4[10]</text>
<polygon fill="none" stroke="black" points="354,-153 354,-175 549,-175 549,-153 354,-153"/>
<text text-anchor="start" x="374" y="-161.2" font-family="Helvetica,sans-Serif" font-size="11.00">is_default</text>
<polygon fill="none" stroke="black" points="549,-153 549,-175 634,-175 634,-153 549,-153"/>
<text text-anchor="start" x="552" y="-161.2" font-family="Helvetica,sans-Serif" font-size="11.00">int4[10]</text>
<polygon fill="none" stroke="black" points="354,-131 354,-153 549,-153 549,-131 354,-131"/>
<text text-anchor="start" x="374" y="-139.2" font-family="Helvetica,sans-Serif" font-size="11.00">created_at</text>
<polygon fill="none" stroke="black" points="549,-131 549,-153 634,-153 634,-131 549,-131"/>
<text text-anchor="start" x="552" y="-139.2" font-family="Helvetica,sans-Serif" font-size="11.00">timestamp[29,6]</text>
<polygon fill="none" stroke="black" points="354,-109 354,-131 549,-131 549,-109 354,-109"/>
<text text-anchor="start" x="374" y="-117.2" font-family="Helvetica,sans-Serif" font-size="11.00">updated_at</text>
<polygon fill="none" stroke="black" points="549,-109 549,-131 634,-131 634,-109 549,-109"/>
<text text-anchor="start" x="552" y="-117.2" font-family="Helvetica,sans-Serif" font-size="11.00">timestamp[29,6]</text>
<polygon fill="#ffffff" stroke="transparent" points="354,-91 354,-109 436,-109 436,-91 354,-91"/>
<polygon fill="none" stroke="black" points="354,-91 354,-109 436,-109 436,-91 354,-91"/>
<text text-anchor="start" x="357" y="-97.2" font-family="Helvetica,sans-Serif" font-size="11.00">&lt; 3</text>
<polygon fill="#ffffff" stroke="transparent" points="436,-91 436,-109 549,-109 549,-91 436,-91"/>
<polygon fill="none" stroke="black" points="436,-91 436,-109 549,-109 549,-91 436,-91"/>
<text text-anchor="start" x="500" y="-97.2" font-family="Helvetica,sans-Serif" font-size="11.00">625 rows</text>
<polygon fill="#ffffff" stroke="transparent" points="549,-91 549,-109 634,-109 634,-91 549,-91"/>
<polygon fill="none" stroke="black" points="549,-91 549,-109 634,-109 634,-91 549,-91"/>
<text text-anchor="start" x="615" y="-97.2" font-family="Helvetica,sans-Serif" font-size="11.00">0 &gt;</text>
<polygon fill="none" stroke="black" stroke-width="2" points="353,-90 353,-264 635,-264 635,-90 353,-90"/>
</a>
</g>
</g>
<!-- asset_types -->
<g id="node2" class="node">
<title>asset_types</title>
<g id="a_node2"><a xlink:href="../../tables/asset_types.html" xlink:title="asset_types" target="_top">
<polygon fill="#ffffff" stroke="transparent" points="179.5,-262 179.5,-386 287.5,-386 287.5,-262 179.5,-262"/>
<polygon fill="#f5f5f5" stroke="transparent" points="179.5,-364 179.5,-386 287.5,-386 287.5,-364 179.5,-364"/>
<polygon fill="none" stroke="black" points="179.5,-364 179.5,-386 287.5,-386 287.5,-364 179.5,-364"/>
<text text-anchor="start" x="184.5" y="-373.2" font-family="Helvetica,sans-Serif" font-weight="bold" font-size="11.00">asset_types</text>
<text text-anchor="start" x="252.5" y="-372.2" font-family="Helvetica,sans-Serif" font-size="11.00">[table]</text>
<polygon fill="none" stroke="black" points="179.5,-342 179.5,-364 287.5,-364 287.5,-342 179.5,-342"/>
<image xlink:href="../../images/primaryKeys.png" width="11px" height="12px" preserveAspectRatio="xMinYMin meet" x="184.5" y="-359"/>
<text text-anchor="start" x="209.5" y="-350.2" font-family="Helvetica,sans-Serif" font-size="11.00">id</text>
<polygon fill="#ffffff" stroke="transparent" points="179.5,-320 179.5,-342 287.5,-342 287.5,-320 179.5,-320"/>
<polygon fill="none" stroke="black" points="179.5,-320 179.5,-342 287.5,-342 287.5,-320 179.5,-320"/>
<text text-anchor="start" x="209.5" y="-328.2" font-family="Helvetica,sans-Serif" font-size="11.00">name</text>
<polygon fill="#ffffff" stroke="transparent" points="179.5,-298 179.5,-320 287.5,-320 287.5,-298 179.5,-298"/>
<polygon fill="none" stroke="black" points="179.5,-298 179.5,-320 287.5,-320 287.5,-298 179.5,-298"/>
<text text-anchor="start" x="209.5" y="-306.2" font-family="Helvetica,sans-Serif" font-size="11.00">is_active</text>
<polygon fill="none" stroke="black" points="179.5,-280 179.5,-298 287.5,-298 287.5,-280 179.5,-280"/>
<text text-anchor="start" x="182.5" y="-286.2" font-family="Helvetica,sans-Serif" font-size="11.00">...</text>
<polygon fill="#ffffff" stroke="transparent" points="179.5,-262 179.5,-280 198.5,-280 198.5,-262 179.5,-262"/>
<polygon fill="none" stroke="black" points="179.5,-262 179.5,-280 198.5,-280 198.5,-262 179.5,-262"/>
<text text-anchor="start" x="182.5" y="-268.2" font-family="Helvetica,sans-Serif" font-size="11.00"> &#160;</text>
<polygon fill="#ffffff" stroke="transparent" points="198.5,-262 198.5,-280 262.5,-280 262.5,-262 198.5,-262"/>
<polygon fill="none" stroke="black" points="198.5,-262 198.5,-280 262.5,-280 262.5,-262 198.5,-262"/>
<text text-anchor="start" x="204.5" y="-268.2" font-family="Helvetica,sans-Serif" font-size="11.00">1,156 rows</text>
<polygon fill="#ffffff" stroke="transparent" points="262.5,-262 262.5,-280 287.5,-280 287.5,-262 262.5,-262"/>
<polygon fill="none" stroke="black" points="262.5,-262 262.5,-280 287.5,-280 287.5,-262 262.5,-262"/>
<text text-anchor="start" x="268.5" y="-268.2" font-family="Helvetica,sans-Serif" font-size="11.00">3 &gt;</text>
</a>
</g>
</g>
<!-- asset_types_impact_functions&#45;&gt;asset_types -->
<g id="edge1" class="edge">
<title>asset_types_impact_functions:w&#45;&gt;asset_types:e</title>
<path fill="none" stroke="black" d="M338.62,-233.04C301.27,-251.98 344.44,-353 288.5,-353"/>
<polygon fill="black" stroke="black" points="345.17,-231.66 353.74,-233.52 349.09,-230.83 353,-230 353,-230 353,-230 349.09,-230.83 352.26,-226.48 345.17,-231.66 345.17,-231.66"/>
<ellipse fill="none" stroke="black" cx="342.04" cy="-232.32" rx="3.2" ry="3.2"/>
</g>
<!-- impact_functions -->
<g id="node3" class="node">
<title>impact_functions</title>
<g id="a_node3"><a xlink:href="../../tables/impact_functions.html" xlink:title="impact_functions" target="_top">
<polygon fill="#ffffff" stroke="transparent" points="164,-95 164,-241 303,-241 303,-95 164,-95"/>
<polygon fill="#f5f5f5" stroke="transparent" points="164.5,-219 164.5,-241 303.5,-241 303.5,-219 164.5,-219"/>
<polygon fill="none" stroke="black" points="164.5,-219 164.5,-241 303.5,-241 303.5,-219 164.5,-219"/>
<text text-anchor="start" x="169.5" y="-228.2" font-family="Helvetica,sans-Serif" font-weight="bold" font-size="11.00">impact_functions</text>
<text text-anchor="start" x="268.5" y="-227.2" font-family="Helvetica,sans-Serif" font-size="11.00">[table]</text>
<polygon fill="none" stroke="black" points="164.5,-197 164.5,-219 303.5,-219 303.5,-197 164.5,-197"/>
<image xlink:href="../../images/primaryKeys.png" width="11px" height="12px" preserveAspectRatio="xMinYMin meet" x="169.5" y="-214"/>
<text text-anchor="start" x="184.5" y="-205.2" font-family="Helvetica,sans-Serif" font-size="11.00">id</text>
<polygon fill="#ffffff" stroke="transparent" points="164.5,-175 164.5,-197 303.5,-197 303.5,-175 164.5,-175"/>
<polygon fill="none" stroke="black" points="164.5,-175 164.5,-197 303.5,-197 303.5,-175 164.5,-175"/>
<text text-anchor="start" x="184.5" y="-183.2" font-family="Helvetica,sans-Serif" font-size="11.00">name</text>
<polygon fill="none" stroke="black" points="164.5,-153 164.5,-175 303.5,-175 303.5,-153 164.5,-153"/>
<image xlink:href="../../images/foreignKeys.png" width="11px" height="12px" preserveAspectRatio="xMinYMin meet" x="169.5" y="-170"/>
<text text-anchor="start" x="184.5" y="-161.2" font-family="Helvetica,sans-Serif" font-size="11.00">hazard_metric_id</text>
<polygon fill="none" stroke="black" points="164.5,-131 164.5,-153 303.5,-153 303.5,-131 164.5,-131"/>
<image xlink:href="../../images/foreignKeys.png" width="11px" height="12px" preserveAspectRatio="xMinYMin meet" x="169.5" y="-148"/>
<text text-anchor="start" x="184.5" y="-139.2" font-family="Helvetica,sans-Serif" font-size="11.00">risk_factor_id</text>
<polygon fill="none" stroke="black" points="164.5,-113 164.5,-131 303.5,-131 303.5,-113 164.5,-113"/>
<text text-anchor="start" x="167.5" y="-119.2" font-family="Helvetica,sans-Serif" font-size="11.00">...</text>
<polygon fill="#ffffff" stroke="transparent" points="164.5,-95 164.5,-113 203.5,-113 203.5,-95 164.5,-95"/>
<polygon fill="none" stroke="black" points="164.5,-95 164.5,-113 203.5,-113 203.5,-95 164.5,-95"/>
<text text-anchor="start" x="167.5" y="-101.2" font-family="Helvetica,sans-Serif" font-size="11.00">&lt; 2</text>
<polygon fill="#ffffff" stroke="transparent" points="203.5,-95 203.5,-113 272.5,-113 272.5,-95 203.5,-95"/>
<polygon fill="none" stroke="black" points="203.5,-95 203.5,-113 272.5,-113 272.5,-95 203.5,-95"/>
<text text-anchor="start" x="214.5" y="-101.2" font-family="Helvetica,sans-Serif" font-size="11.00">3,261 rows</text>
<polygon fill="#ffffff" stroke="transparent" points="272.5,-95 272.5,-113 303.5,-113 303.5,-95 272.5,-95"/>
<polygon fill="none" stroke="black" points="272.5,-95 272.5,-113 303.5,-113 303.5,-95 272.5,-95"/>
<text text-anchor="start" x="284.5" y="-101.2" font-family="Helvetica,sans-Serif" font-size="11.00">2 &gt;</text>
</a>
</g>
</g>
<!-- asset_types_impact_functions&#45;&gt;impact_functions -->
<g id="edge2" class="edge">
<title>asset_types_impact_functions:w&#45;&gt;impact_functions:e</title>
<path fill="none" stroke="black" d="M338.28,-208C327.29,-208 320.16,-208 304.5,-208"/>
<polygon fill="black" stroke="black" points="345,-208 353,-211.6 349,-208 353,-208 353,-208 353,-208 349,-208 353,-204.4 345,-208 345,-208"/>
<ellipse fill="none" stroke="black" cx="341.8" cy="-208" rx="3.2" ry="3.2"/>
</g>
<!-- risk_factors -->
<g id="node4" class="node">
<title>risk_factors</title>
<g id="a_node4"><a xlink:href="../../tables/risk_factors.html" xlink:title="risk_factors" target="_top">
<polygon fill="#ffffff" stroke="transparent" points="8,-37 8,-139 115,-139 115,-37 8,-37"/>
<polygon fill="#f5f5f5" stroke="transparent" points="8.5,-117 8.5,-139 115.5,-139 115.5,-117 8.5,-117"/>
<polygon fill="none" stroke="black" points="8.5,-117 8.5,-139 115.5,-139 115.5,-117 8.5,-117"/>
<text text-anchor="start" x="13.5" y="-126.2" font-family="Helvetica,sans-Serif" font-weight="bold" font-size="11.00">risk_factors</text>
<text text-anchor="start" x="80.5" y="-125.2" font-family="Helvetica,sans-Serif" font-size="11.00">[table]</text>
<polygon fill="none" stroke="black" points="8.5,-95 8.5,-117 115.5,-117 115.5,-95 8.5,-95"/>
<image xlink:href="../../images/primaryKeys.png" width="11px" height="12px" preserveAspectRatio="xMinYMin meet" x="13.5" y="-112"/>
<text text-anchor="start" x="37.5" y="-103.2" font-family="Helvetica,sans-Serif" font-size="11.00">id</text>
<polygon fill="#ffffff" stroke="transparent" points="8.5,-73 8.5,-95 115.5,-95 115.5,-73 8.5,-73"/>
<polygon fill="none" stroke="black" points="8.5,-73 8.5,-95 115.5,-95 115.5,-73 8.5,-73"/>
<text text-anchor="start" x="37.5" y="-81.2" font-family="Helvetica,sans-Serif" font-size="11.00">name</text>
<polygon fill="none" stroke="black" points="8.5,-55 8.5,-73 115.5,-73 115.5,-55 8.5,-55"/>
<text text-anchor="start" x="11.5" y="-61.2" font-family="Helvetica,sans-Serif" font-size="11.00">...</text>
<polygon fill="#ffffff" stroke="transparent" points="8.5,-37 8.5,-55 34.5,-55 34.5,-37 8.5,-37"/>
<polygon fill="none" stroke="black" points="8.5,-37 8.5,-55 34.5,-55 34.5,-37 8.5,-37"/>
<text text-anchor="start" x="11.5" y="-43.2" font-family="Helvetica,sans-Serif" font-size="11.00"> &#160;</text>
<polygon fill="#ffffff" stroke="transparent" points="34.5,-37 34.5,-55 86.5,-55 86.5,-37 34.5,-37"/>
<polygon fill="none" stroke="black" points="34.5,-37 34.5,-55 86.5,-55 86.5,-37 34.5,-37"/>
<text text-anchor="start" x="43.5" y="-43.2" font-family="Helvetica,sans-Serif" font-size="11.00">17 rows</text>
<polygon fill="#ffffff" stroke="transparent" points="86.5,-37 86.5,-55 115.5,-55 115.5,-37 86.5,-37"/>
<polygon fill="none" stroke="black" points="86.5,-37 86.5,-55 115.5,-55 115.5,-37 86.5,-37"/>
<text text-anchor="start" x="96.5" y="-43.2" font-family="Helvetica,sans-Serif" font-size="11.00">7 &gt;</text>
</a>
</g>
</g>
<!-- asset_types_impact_functions&#45;&gt;risk_factors -->
<g id="edge3" class="edge">
<title>asset_types_impact_functions:w&#45;&gt;risk_factors:e</title>
<path fill="none" stroke="black" d="M338.9,-182.77C314.78,-168.23 346.39,-108.61 311,-85 253.69,-46.77 222.84,-68.34 156,-85 136.71,-89.81 136.38,-106 116.5,-106"/>
<polygon fill="black" stroke="black" points="345.2,-184.21 352.2,-189.51 349.1,-185.11 353,-186 353,-186 353,-186 349.1,-185.11 353.8,-182.49 345.2,-184.21 345.2,-184.21"/>
<ellipse fill="none" stroke="black" cx="342.08" cy="-183.5" rx="3.2" ry="3.2"/>
</g>
<!-- impact_functions&#45;&gt;risk_factors -->
<g id="edge4" class="edge">
<title>impact_functions:w&#45;&gt;risk_factors:e</title>
<path fill="none" stroke="black" d="M149.79,-137.29C138.1,-127.54 136.85,-106 116.5,-106"/>
<polygon fill="black" stroke="black" points="155.93,-139.4 162.33,-145.4 159.72,-140.7 163.5,-142 163.5,-142 163.5,-142 159.72,-140.7 164.67,-138.6 155.93,-139.4 155.93,-139.4"/>
<ellipse fill="none" stroke="black" cx="152.91" cy="-138.36" rx="3.2" ry="3.2"/>
</g>
</g>
</svg>
