<?xml version="1.0" encoding="UTF-8" standalone="no"?>
<!DOCTYPE svg PUBLIC "-//W3C//DTD SVG 1.1//EN"
 "http://www.w3.org/Graphics/SVG/1.1/DTD/svg11.dtd">
<!-- Generated by graphviz version 2.50.0 (20211204.2007)
 -->
<!-- Title: oneDegreeRelationshipsDiagram Pages: 1 -->
<svg width="382pt" height="296pt"
 viewBox="0.00 0.00 382.00 296.00" xmlns="http://www.w3.org/2000/svg" xmlns:xlink="http://www.w3.org/1999/xlink">
<g id="graph0" class="graph" transform="scale(1 1) rotate(0) translate(4 292)">
<title>oneDegreeRelationshipsDiagram</title>
<polygon fill="#ffffff" stroke="transparent" points="-4,4 -4,-292 378,-292 378,4 -4,4"/>
<text text-anchor="middle" x="72.5" y="-7.2" font-family="Helvetica,sans-Serif" font-size="11.00">Generated by SchemaSpy</text>
<!-- asset_types_metadata -->
<g id="node1" class="node">
<title>asset_types_metadata</title>
<g id="a_node1"><a xlink:href="../../tables/asset_types_metadata.html" xlink:title="asset_types_metadata" target="_top">
<polygon fill="#ffffff" stroke="transparent" points="171,-125 171,-235 366,-235 366,-125 171,-125"/>
<polygon fill="#f5f5f5" stroke="transparent" points="173.5,-211 173.5,-233 364.5,-233 364.5,-211 173.5,-211"/>
<polygon fill="none" stroke="black" points="173.5,-211 173.5,-233 364.5,-233 364.5,-211 173.5,-211"/>
<text text-anchor="start" x="178.5" y="-220.2" font-family="Helvetica,sans-Serif" font-weight="bold" font-size="11.00">asset_types_metadata</text>
<text text-anchor="start" x="329.5" y="-219.2" font-family="Helvetica,sans-Serif" font-size="11.00">[table]</text>
<polygon fill="none" stroke="black" points="173.5,-189 173.5,-211 322.5,-211 322.5,-189 173.5,-189"/>
<image xlink:href="../../images/primaryKeys.png" width="11px" height="12px" preserveAspectRatio="xMinYMin meet" x="178.5" y="-206"/>
<text text-anchor="start" x="193.5" y="-197.2" font-family="Helvetica,sans-Serif" font-size="11.00">asset_type_id</text>
<polygon fill="none" stroke="black" points="322.5,-189 322.5,-211 364.5,-211 364.5,-189 322.5,-189"/>
<text text-anchor="start" x="325.5" y="-197.2" font-family="Helvetica,sans-Serif" font-size="11.00">int4[10]</text>
<polygon fill="none" stroke="black" points="173.5,-167 173.5,-189 322.5,-189 322.5,-167 173.5,-167"/>
<image xlink:href="../../images/primaryKeys.png" width="11px" height="12px" preserveAspectRatio="xMinYMin meet" x="178.5" y="-184"/>
<text text-anchor="start" x="193.5" y="-175.2" font-family="Helvetica,sans-Serif" font-size="11.00">metadata_category_id</text>
<polygon fill="none" stroke="black" points="322.5,-167 322.5,-189 364.5,-189 364.5,-167 322.5,-167"/>
<text text-anchor="start" x="325.5" y="-175.2" font-family="Helvetica,sans-Serif" font-size="11.00">int4[10]</text>
<polygon fill="none" stroke="black" points="173.5,-145 173.5,-167 322.5,-167 322.5,-145 173.5,-145"/>
<image xlink:href="../../images/foreignKeys.png" width="11px" height="12px" preserveAspectRatio="xMinYMin meet" x="178.5" y="-162"/>
<text text-anchor="start" x="193.5" y="-153.2" font-family="Helvetica,sans-Serif" font-size="11.00">metadata_id</text>
<polygon fill="none" stroke="black" points="322.5,-145 322.5,-167 364.5,-167 364.5,-145 322.5,-145"/>
<text text-anchor="start" x="325.5" y="-153.2" font-family="Helvetica,sans-Serif" font-size="11.00">int4[10]</text>
<polygon fill="#ffffff" stroke="transparent" points="173.5,-127 173.5,-145 228.5,-145 228.5,-127 173.5,-127"/>
<polygon fill="none" stroke="black" points="173.5,-127 173.5,-145 228.5,-145 228.5,-127 173.5,-127"/>
<text text-anchor="start" x="176.5" y="-133.2" font-family="Helvetica,sans-Serif" font-size="11.00">&lt; 2</text>
<polygon fill="#ffffff" stroke="transparent" points="228.5,-127 228.5,-145 322.5,-145 322.5,-127 228.5,-127"/>
<polygon fill="none" stroke="black" points="228.5,-127 228.5,-145 322.5,-145 322.5,-127 228.5,-127"/>
<text text-anchor="start" x="264.5" y="-133.2" font-family="Helvetica,sans-Serif" font-size="11.00">4,002 rows</text>
<polygon fill="#ffffff" stroke="transparent" points="322.5,-127 322.5,-145 364.5,-145 364.5,-127 322.5,-127"/>
<polygon fill="none" stroke="black" points="322.5,-127 322.5,-145 364.5,-145 364.5,-127 322.5,-127"/>
<text text-anchor="start" x="345.5" y="-133.2" font-family="Helvetica,sans-Serif" font-size="11.00">0 &gt;</text>
<polygon fill="none" stroke="black" stroke-width="2" points="172,-126 172,-234 365,-234 365,-126 172,-126"/>
</a>
</g>
</g>
<!-- asset_types -->
<g id="node2" class="node">
<title>asset_types</title>
<g id="a_node2"><a xlink:href="../../tables/asset_types.html" xlink:title="asset_types" target="_top">
<polygon fill="#ffffff" stroke="transparent" points="11,-160 11,-284 119,-284 119,-160 11,-160"/>
<polygon fill="#f5f5f5" stroke="transparent" points="11,-262 11,-284 119,-284 119,-262 11,-262"/>
<polygon fill="none" stroke="black" points="11,-262 11,-284 119,-284 119,-262 11,-262"/>
<text text-anchor="start" x="16" y="-271.2" font-family="Helvetica,sans-Serif" font-weight="bold" font-size="11.00">asset_types</text>
<text text-anchor="start" x="84" y="-270.2" font-family="Helvetica,sans-Serif" font-size="11.00">[table]</text>
<polygon fill="none" stroke="black" points="11,-240 11,-262 119,-262 119,-240 11,-240"/>
<image xlink:href="../../images/primaryKeys.png" width="11px" height="12px" preserveAspectRatio="xMinYMin meet" x="16" y="-257"/>
<text text-anchor="start" x="41" y="-248.2" font-family="Helvetica,sans-Serif" font-size="11.00">id</text>
<polygon fill="#ffffff" stroke="transparent" points="11,-218 11,-240 119,-240 119,-218 11,-218"/>
<polygon fill="none" stroke="black" points="11,-218 11,-240 119,-240 119,-218 11,-218"/>
<text text-anchor="start" x="41" y="-226.2" font-family="Helvetica,sans-Serif" font-size="11.00">name</text>
<polygon fill="#ffffff" stroke="transparent" points="11,-196 11,-218 119,-218 119,-196 11,-196"/>
<polygon fill="none" stroke="black" points="11,-196 11,-218 119,-218 119,-196 11,-196"/>
<text text-anchor="start" x="41" y="-204.2" font-family="Helvetica,sans-Serif" font-size="11.00">is_active</text>
<polygon fill="none" stroke="black" points="11,-178 11,-196 119,-196 119,-178 11,-178"/>
<text text-anchor="start" x="14" y="-184.2" font-family="Helvetica,sans-Serif" font-size="11.00">...</text>
<polygon fill="#ffffff" stroke="transparent" points="11,-160 11,-178 30,-178 30,-160 11,-160"/>
<polygon fill="none" stroke="black" points="11,-160 11,-178 30,-178 30,-160 11,-160"/>
<text text-anchor="start" x="14" y="-166.2" font-family="Helvetica,sans-Serif" font-size="11.00"> &#160;</text>
<polygon fill="#ffffff" stroke="transparent" points="30,-160 30,-178 94,-178 94,-160 30,-160"/>
<polygon fill="none" stroke="black" points="30,-160 30,-178 94,-178 94,-160 30,-160"/>
<text text-anchor="start" x="36" y="-166.2" font-family="Helvetica,sans-Serif" font-size="11.00">1,156 rows</text>
<polygon fill="#ffffff" stroke="transparent" points="94,-160 94,-178 119,-178 119,-160 94,-160"/>
<polygon fill="none" stroke="black" points="94,-160 94,-178 119,-178 119,-160 94,-160"/>
<text text-anchor="start" x="100" y="-166.2" font-family="Helvetica,sans-Serif" font-size="11.00">3 &gt;</text>
</a>
</g>
</g>
<!-- asset_types_metadata&#45;&gt;asset_types -->
<g id="edge1" class="edge">
<title>asset_types_metadata:w&#45;&gt;asset_types:e</title>
<path fill="none" stroke="black" d="M158.36,-204.71C143.09,-217.33 146.43,-251 120,-251"/>
<polygon fill="black" stroke="black" points="164.91,-202.53 173.64,-203.42 168.7,-201.26 172.5,-200 172.5,-200 172.5,-200 168.7,-201.26 171.36,-196.58 164.91,-202.53 164.91,-202.53"/>
<ellipse fill="none" stroke="black" cx="161.87" cy="-203.54" rx="3.2" ry="3.2"/>
</g>
<!-- tcs_metadata -->
<g id="node3" class="node">
<title>tcs_metadata</title>
<g id="a_node3"><a xlink:href="../../tables/tcs_metadata.html" xlink:title="tcs_metadata" target="_top">
<polygon fill="#ffffff" stroke="transparent" points="8,-37 8,-139 122,-139 122,-37 8,-37"/>
<polygon fill="#f5f5f5" stroke="transparent" points="8,-117 8,-139 122,-139 122,-117 8,-117"/>
<polygon fill="none" stroke="black" points="8,-117 8,-139 122,-139 122,-117 8,-117"/>
<text text-anchor="start" x="13" y="-126.2" font-family="Helvetica,sans-Serif" font-weight="bold" font-size="11.00">tcs_metadata</text>
<text text-anchor="start" x="87" y="-125.2" font-family="Helvetica,sans-Serif" font-size="11.00">[table]</text>
<polygon fill="none" stroke="black" points="8,-95 8,-117 122,-117 122,-95 8,-95"/>
<image xlink:href="../../images/primaryKeys.png" width="11px" height="12px" preserveAspectRatio="xMinYMin meet" x="13" y="-112"/>
<text text-anchor="start" x="31" y="-103.2" font-family="Helvetica,sans-Serif" font-size="11.00">id</text>
<polygon fill="#ffffff" stroke="transparent" points="8,-73 8,-95 122,-95 122,-73 8,-73"/>
<polygon fill="none" stroke="black" points="8,-73 8,-95 122,-95 122,-73 8,-73"/>
<text text-anchor="start" x="31" y="-81.2" font-family="Helvetica,sans-Serif" font-size="11.00">value</text>
<polygon fill="none" stroke="black" points="8,-55 8,-73 122,-73 122,-55 8,-55"/>
<text text-anchor="start" x="11" y="-61.2" font-family="Helvetica,sans-Serif" font-size="11.00">...</text>
<polygon fill="#ffffff" stroke="transparent" points="8,-37 8,-55 37,-55 37,-37 8,-37"/>
<polygon fill="none" stroke="black" points="8,-37 8,-55 37,-55 37,-37 8,-37"/>
<text text-anchor="start" x="11" y="-43.2" font-family="Helvetica,sans-Serif" font-size="11.00"> &#160;</text>
<polygon fill="#ffffff" stroke="transparent" points="37,-37 37,-55 91,-55 91,-37 37,-37"/>
<polygon fill="none" stroke="black" points="37,-37 37,-55 91,-55 91,-37 37,-37"/>
<text text-anchor="start" x="48" y="-43.2" font-family="Helvetica,sans-Serif" font-size="11.00">31 rows</text>
<polygon fill="#ffffff" stroke="transparent" points="91,-37 91,-55 122,-55 122,-37 91,-37"/>
<polygon fill="none" stroke="black" points="91,-37 91,-55 122,-55 122,-37 91,-37"/>
<text text-anchor="start" x="103" y="-43.2" font-family="Helvetica,sans-Serif" font-size="11.00">1 &gt;</text>
</a>
</g>
</g>
<!-- asset_types_metadata&#45;&gt;tcs_metadata -->
<g id="edge2" class="edge">
<title>asset_types_metadata:w&#45;&gt;tcs_metadata:e</title>
<path fill="none" stroke="black" d="M158.59,-151.02C144.63,-138.38 148.16,-106 123,-106"/>
<polygon fill="black" stroke="black" points="164.97,-153.31 171.29,-159.39 168.73,-154.65 172.5,-156 172.5,-156 172.5,-156 168.73,-154.65 173.71,-152.61 164.97,-153.31 164.97,-153.31"/>
<ellipse fill="none" stroke="black" cx="161.95" cy="-152.23" rx="3.2" ry="3.2"/>
</g>
</g>
</svg>
