<?xml version="1.0" encoding="UTF-8" standalone="no"?>
<!DOCTYPE svg PUBLIC "-//W3C//DTD SVG 1.1//EN"
 "http://www.w3.org/Graphics/SVG/1.1/DTD/svg11.dtd">
<!-- Generated by graphviz version 2.50.0 (20211204.2007)
 -->
<!-- Title: twoDegreesRelationshipsDiagram Pages: 1 -->
<svg width="411pt" height="383pt"
 viewBox="0.00 0.00 411.00 383.00" xmlns="http://www.w3.org/2000/svg" xmlns:xlink="http://www.w3.org/1999/xlink">
<g id="graph0" class="graph" transform="scale(1 1) rotate(0) translate(4 379)">
<title>twoDegreesRelationshipsDiagram</title>
<polygon fill="#ffffff" stroke="transparent" points="-4,4 -4,-379 407,-379 407,4 -4,4"/>
<text text-anchor="middle" x="72.5" y="-7.2" font-family="Helvetica,sans-Serif" font-size="11.00">Generated by SchemaSpy</text>
<!-- asset_values -->
<g id="node1" class="node">
<title>asset_values</title>
<g id="a_node1"><a xlink:href="../../tables/asset_values.html" xlink:title="asset_values" target="_top">
<polygon fill="#ffffff" stroke="transparent" points="253.5,-240 253.5,-364 390.5,-364 390.5,-240 253.5,-240"/>
<polygon fill="#f5f5f5" stroke="transparent" points="254,-342 254,-364 391,-364 391,-342 254,-342"/>
<polygon fill="none" stroke="black" points="254,-342 254,-364 391,-364 391,-342 254,-342"/>
<text text-anchor="start" x="259" y="-351.2" font-family="Helvetica,sans-Serif" font-weight="bold" font-size="11.00">asset_values</text>
<text text-anchor="start" x="356" y="-350.2" font-family="Helvetica,sans-Serif" font-size="11.00">[table]</text>
<polygon fill="none" stroke="black" points="254,-320 254,-342 391,-342 391,-320 254,-320"/>
<image xlink:href="../../images/primaryKeys.png" width="11px" height="12px" preserveAspectRatio="xMinYMin meet" x="259" y="-337"/>
<text text-anchor="start" x="274" y="-328.2" font-family="Helvetica,sans-Serif" font-size="11.00">id</text>
<polygon fill="#ffffff" stroke="transparent" points="254,-298 254,-320 391,-320 391,-298 254,-298"/>
<polygon fill="none" stroke="black" points="254,-298 254,-320 391,-320 391,-298 254,-298"/>
<image xlink:href="../../images/foreignKeys.png" width="11px" height="12px" preserveAspectRatio="xMinYMin meet" x="259" y="-315"/>
<text text-anchor="start" x="274" y="-306.2" font-family="Helvetica,sans-Serif" font-size="11.00">asset_id</text>
<polygon fill="#ffffff" stroke="transparent" points="254,-276 254,-298 391,-298 391,-276 254,-276"/>
<polygon fill="none" stroke="black" points="254,-276 254,-298 391,-298 391,-276 254,-276"/>
<image xlink:href="../../images/foreignKeys.png" width="11px" height="12px" preserveAspectRatio="xMinYMin meet" x="259" y="-293"/>
<text text-anchor="start" x="274" y="-284.2" font-family="Helvetica,sans-Serif" font-size="11.00">asset_value_type_id</text>
<polygon fill="none" stroke="black" points="254,-258 254,-276 391,-276 391,-258 254,-258"/>
<text text-anchor="start" x="257" y="-264.2" font-family="Helvetica,sans-Serif" font-size="11.00">...</text>
<polygon fill="#ffffff" stroke="transparent" points="254,-240 254,-258 307,-258 307,-240 254,-240"/>
<polygon fill="none" stroke="black" points="254,-240 254,-258 307,-258 307,-240 254,-240"/>
<text text-anchor="start" x="257" y="-246.2" font-family="Helvetica,sans-Serif" font-size="11.00">&lt; 2</text>
<polygon fill="#ffffff" stroke="transparent" points="307,-240 307,-258 362,-258 362,-240 307,-240"/>
<polygon fill="none" stroke="black" points="307,-240 307,-258 362,-258 362,-240 307,-240"/>
<text text-anchor="start" x="325" y="-246.2" font-family="Helvetica,sans-Serif" font-size="11.00">8 rows</text>
<polygon fill="#ffffff" stroke="transparent" points="362,-240 362,-258 391,-258 391,-240 362,-240"/>
<polygon fill="none" stroke="black" points="362,-240 362,-258 391,-258 391,-240 362,-240"/>
<text text-anchor="start" x="381" y="-246.2" font-family="Helvetica,sans-Serif" font-size="11.00"> &#160;</text>
</a>
</g>
</g>
<!-- assets -->
<g id="node2" class="node">
<title>assets</title>
<g id="a_node2"><a xlink:href="../../tables/assets.html" xlink:title="assets" target="_top">
<polygon fill="#ffffff" stroke="transparent" points="48.5,-313 48.5,-371 159.5,-371 159.5,-313 48.5,-313"/>
<polygon fill="#f5f5f5" stroke="transparent" points="49,-349 49,-371 160,-371 160,-349 49,-349"/>
<polygon fill="none" stroke="black" points="49,-349 49,-371 160,-371 160,-349 49,-349"/>
<text text-anchor="start" x="54" y="-358.2" font-family="Helvetica,sans-Serif" font-weight="bold" font-size="11.00">assets</text>
<text text-anchor="start" x="125" y="-357.2" font-family="Helvetica,sans-Serif" font-size="11.00">[table]</text>
<polygon fill="none" stroke="black" points="49,-331 49,-349 160,-349 160,-331 49,-331"/>
<text text-anchor="start" x="52" y="-337.2" font-family="Helvetica,sans-Serif" font-size="11.00">...</text>
<polygon fill="#ffffff" stroke="transparent" points="49,-313 49,-331 71,-331 71,-313 49,-313"/>
<polygon fill="none" stroke="black" points="49,-313 49,-331 71,-331 71,-313 49,-313"/>
<text text-anchor="start" x="52" y="-319.2" font-family="Helvetica,sans-Serif" font-size="11.00">&lt; 3</text>
<polygon fill="#ffffff" stroke="transparent" points="71,-313 71,-331 138,-331 138,-313 71,-313"/>
<polygon fill="none" stroke="black" points="71,-313 71,-331 138,-331 138,-313 71,-313"/>
<text text-anchor="start" x="74" y="-319.2" font-family="Helvetica,sans-Serif" font-size="11.00">78,452 rows</text>
<polygon fill="#ffffff" stroke="transparent" points="138,-313 138,-331 160,-331 160,-313 138,-313"/>
<polygon fill="none" stroke="black" points="138,-313 138,-331 160,-331 160,-313 138,-313"/>
<text text-anchor="start" x="141" y="-319.2" font-family="Helvetica,sans-Serif" font-size="11.00">4 &gt;</text>
</a>
</g>
</g>
<!-- asset_values&#45;&gt;assets -->
<g id="edge1" class="edge">
<title>asset_values:w&#45;&gt;assets:e</title>
<path fill="none" stroke="black" d="M238.43,-310.33C207.84,-316.27 198.75,-340 161,-340"/>
<polygon fill="black" stroke="black" points="245.03,-309.73 253.33,-312.59 249.02,-309.36 253,-309 253,-309 253,-309 249.02,-309.36 252.67,-305.41 245.03,-309.73 245.03,-309.73"/>
<ellipse fill="none" stroke="black" cx="241.85" cy="-310.02" rx="3.2" ry="3.2"/>
</g>
<!-- asset_value_types -->
<g id="node3" class="node">
<title>asset_value_types</title>
<g id="a_node3"><a xlink:href="../../tables/asset_value_types.html" xlink:title="asset_value_types" target="_top">
<polygon fill="#ffffff" stroke="transparent" points="8,-116 8,-292 200,-292 200,-116 8,-116"/>
<polygon fill="#f5f5f5" stroke="transparent" points="10,-268 10,-290 198,-290 198,-268 10,-268"/>
<polygon fill="none" stroke="black" points="10,-268 10,-290 198,-290 198,-268 10,-268"/>
<text text-anchor="start" x="15" y="-277.2" font-family="Helvetica,sans-Serif" font-weight="bold" font-size="11.00">asset_value_types</text>
<text text-anchor="start" x="163" y="-276.2" font-family="Helvetica,sans-Serif" font-size="11.00">[table]</text>
<polygon fill="none" stroke="black" points="10,-246 10,-268 137,-268 137,-246 10,-246"/>
<image xlink:href="../../images/primaryKeys.png" width="11px" height="12px" preserveAspectRatio="xMinYMin meet" x="15" y="-263"/>
<text text-anchor="start" x="30" y="-254.2" font-family="Helvetica,sans-Serif" font-size="11.00">id</text>
<polygon fill="none" stroke="black" points="137,-246 137,-268 198,-268 198,-246 137,-246"/>
<text text-anchor="start" x="140" y="-254.2" font-family="Helvetica,sans-Serif" font-size="11.00">serial[10]</text>
<polygon fill="#ffffff" stroke="transparent" points="10,-224 10,-246 137,-246 137,-224 10,-224"/>
<polygon fill="none" stroke="black" points="10,-224 10,-246 137,-246 137,-224 10,-224"/>
<text text-anchor="start" x="30" y="-232.2" font-family="Helvetica,sans-Serif" font-size="11.00">name</text>
<polygon fill="none" stroke="black" points="137,-224 137,-246 198,-246 198,-224 137,-224"/>
<text text-anchor="start" x="140" y="-232.2" font-family="Helvetica,sans-Serif" font-size="11.00">varchar[64]</text>
<polygon fill="none" stroke="black" points="10,-202 10,-224 137,-224 137,-202 10,-202"/>
<text text-anchor="start" x="30" y="-210.2" font-family="Helvetica,sans-Serif" font-size="11.00">system</text>
<polygon fill="none" stroke="black" points="137,-202 137,-224 198,-224 198,-202 137,-202"/>
<text text-anchor="start" x="140" y="-210.2" font-family="Helvetica,sans-Serif" font-size="11.00">int4[10]</text>
<polygon fill="none" stroke="black" points="10,-180 10,-202 137,-202 137,-180 10,-180"/>
<text text-anchor="start" x="30" y="-188.2" font-family="Helvetica,sans-Serif" font-size="11.00">class</text>
<polygon fill="none" stroke="black" points="137,-180 137,-202 198,-202 198,-180 137,-180"/>
<text text-anchor="start" x="140" y="-188.2" font-family="Helvetica,sans-Serif" font-size="11.00">int4[10]</text>
<polygon fill="none" stroke="black" points="10,-158 10,-180 137,-180 137,-158 10,-158"/>
<text text-anchor="start" x="30" y="-166.2" font-family="Helvetica,sans-Serif" font-size="11.00">scale</text>
<polygon fill="none" stroke="black" points="137,-158 137,-180 198,-180 198,-158 137,-158"/>
<text text-anchor="start" x="140" y="-166.2" font-family="Helvetica,sans-Serif" font-size="11.00">int4[10]</text>
<polygon fill="none" stroke="black" points="10,-136 10,-158 137,-158 137,-136 10,-136"/>
<text text-anchor="start" x="30" y="-144.2" font-family="Helvetica,sans-Serif" font-size="11.00">uom</text>
<polygon fill="none" stroke="black" points="137,-136 137,-158 198,-158 198,-136 137,-136"/>
<text text-anchor="start" x="140" y="-144.2" font-family="Helvetica,sans-Serif" font-size="11.00">varchar[32]</text>
<polygon fill="#ffffff" stroke="transparent" points="10,-118 10,-136 64,-136 64,-118 10,-118"/>
<polygon fill="none" stroke="black" points="10,-118 10,-136 64,-136 64,-118 10,-118"/>
<text text-anchor="start" x="13" y="-124.2" font-family="Helvetica,sans-Serif" font-size="11.00">&lt; 0</text>
<polygon fill="#ffffff" stroke="transparent" points="64,-118 64,-136 137,-136 137,-118 64,-118"/>
<polygon fill="none" stroke="black" points="64,-118 64,-136 137,-136 137,-118 64,-118"/>
<text text-anchor="start" x="100" y="-124.2" font-family="Helvetica,sans-Serif" font-size="11.00">3 rows</text>
<polygon fill="#ffffff" stroke="transparent" points="137,-118 137,-136 198,-136 198,-118 137,-118"/>
<polygon fill="none" stroke="black" points="137,-118 137,-136 198,-136 198,-118 137,-118"/>
<text text-anchor="start" x="179" y="-124.2" font-family="Helvetica,sans-Serif" font-size="11.00">2 &gt;</text>
<polygon fill="none" stroke="black" stroke-width="2" points="9,-117 9,-291 199,-291 199,-117 9,-117"/>
</a>
</g>
</g>
<!-- asset_values&#45;&gt;asset_value_types -->
<g id="edge2" class="edge">
<title>asset_values:w&#45;&gt;asset_value_types:e</title>
<path fill="none" stroke="black" d="M238.88,-283.56C224.67,-275.68 220.66,-257 199,-257"/>
<polygon fill="black" stroke="black" points="245.23,-285.11 252.15,-290.5 249.11,-286.05 253,-287 253,-287 253,-287 249.11,-286.05 253.85,-283.5 245.23,-285.11 245.23,-285.11"/>
<ellipse fill="none" stroke="black" cx="242.12" cy="-284.35" rx="3.2" ry="3.2"/>
</g>
<!-- group_value_types -->
<g id="node4" class="node">
<title>group_value_types</title>
<g id="a_node4"><a xlink:href="../../tables/group_value_types.html" xlink:title="group_value_types" target="_top">
<polygon fill="#ffffff" stroke="transparent" points="249,-78 249,-184 395,-184 395,-78 249,-78"/>
<polygon fill="#f5f5f5" stroke="transparent" points="249,-162 249,-184 395,-184 395,-162 249,-162"/>
<polygon fill="none" stroke="black" points="249,-162 249,-184 395,-184 395,-162 249,-162"/>
<text text-anchor="start" x="254" y="-171.2" font-family="Helvetica,sans-Serif" font-weight="bold" font-size="11.00">group_value_types</text>
<text text-anchor="start" x="360" y="-170.2" font-family="Helvetica,sans-Serif" font-size="11.00">[table]</text>
<polygon fill="none" stroke="black" points="249,-140 249,-162 395,-162 395,-140 249,-140"/>
<image xlink:href="../../images/primaryKeys.png" width="11px" height="12px" preserveAspectRatio="xMinYMin meet" x="254" y="-157"/>
<text text-anchor="start" x="277" y="-148.2" font-family="Helvetica,sans-Serif" font-size="11.00">id</text>
<polygon fill="#ffffff" stroke="transparent" points="249,-118 249,-140 395,-140 395,-118 249,-118"/>
<polygon fill="none" stroke="black" points="249,-118 249,-140 395,-140 395,-118 249,-118"/>
<image xlink:href="../../images/foreignKeys.png" width="11px" height="12px" preserveAspectRatio="xMinYMin meet" x="254" y="-135"/>
<text text-anchor="start" x="277" y="-126.2" font-family="Helvetica,sans-Serif" font-size="11.00">group_id</text>
<polygon fill="#ffffff" stroke="transparent" points="249,-96 249,-118 395,-118 395,-96 249,-96"/>
<polygon fill="none" stroke="black" points="249,-96 249,-118 395,-118 395,-96 249,-96"/>
<image xlink:href="../../images/foreignKeys.png" width="11px" height="12px" preserveAspectRatio="xMinYMin meet" x="254" y="-113"/>
<text text-anchor="start" x="277" y="-104.2" font-family="Helvetica,sans-Serif" font-size="11.00">value_type_id</text>
<polygon fill="#ffffff" stroke="transparent" points="249,-78 249,-96 306,-96 306,-78 249,-78"/>
<polygon fill="none" stroke="black" points="249,-78 249,-96 306,-96 306,-78 249,-78"/>
<text text-anchor="start" x="252" y="-84.2" font-family="Helvetica,sans-Serif" font-size="11.00">&lt; 2</text>
<polygon fill="#ffffff" stroke="transparent" points="306,-78 306,-96 364,-96 364,-78 306,-78"/>
<polygon fill="none" stroke="black" points="306,-78 306,-96 364,-96 364,-78 306,-78"/>
<text text-anchor="start" x="327" y="-84.2" font-family="Helvetica,sans-Serif" font-size="11.00">0 rows</text>
<polygon fill="#ffffff" stroke="transparent" points="364,-78 364,-96 395,-96 395,-78 364,-78"/>
<polygon fill="none" stroke="black" points="364,-78 364,-96 395,-96 395,-78 364,-78"/>
<text text-anchor="start" x="385" y="-84.2" font-family="Helvetica,sans-Serif" font-size="11.00"> &#160;</text>
</a>
</g>
</g>
<!-- group_value_types&#45;&gt;asset_value_types -->
<g id="edge4" class="edge">
<title>group_value_types:w&#45;&gt;asset_value_types:e</title>
<path fill="none" stroke="black" d="M233.82,-109.86C191.75,-130.6 263.38,-257 199,-257"/>
<polygon fill="black" stroke="black" points="240.16,-108.58 248.71,-110.53 244.08,-107.79 248,-107 248,-107 248,-107 244.08,-107.79 247.29,-103.47 240.16,-108.58 240.16,-108.58"/>
<ellipse fill="none" stroke="black" cx="237.02" cy="-109.22" rx="3.2" ry="3.2"/>
</g>
<!-- groups -->
<g id="node5" class="node">
<title>groups</title>
<g id="a_node5"><a xlink:href="../../tables/groups.html" xlink:title="groups" target="_top">
<polygon fill="#ffffff" stroke="transparent" points="56,-37 56,-95 152,-95 152,-37 56,-37"/>
<polygon fill="#f5f5f5" stroke="transparent" points="56,-73 56,-95 152,-95 152,-73 56,-73"/>
<polygon fill="none" stroke="black" points="56,-73 56,-95 152,-95 152,-73 56,-73"/>
<text text-anchor="start" x="61" y="-82.2" font-family="Helvetica,sans-Serif" font-weight="bold" font-size="11.00">groups</text>
<text text-anchor="start" x="117" y="-81.2" font-family="Helvetica,sans-Serif" font-size="11.00">[table]</text>
<polygon fill="none" stroke="black" points="56,-55 56,-73 152,-73 152,-55 56,-55"/>
<text text-anchor="start" x="59" y="-61.2" font-family="Helvetica,sans-Serif" font-size="11.00">...</text>
<polygon fill="#ffffff" stroke="transparent" points="56,-37 56,-55 78,-55 78,-37 56,-37"/>
<polygon fill="none" stroke="black" points="56,-37 56,-55 78,-55 78,-37 56,-37"/>
<text text-anchor="start" x="59" y="-43.2" font-family="Helvetica,sans-Serif" font-size="11.00">&lt; 1</text>
<polygon fill="#ffffff" stroke="transparent" points="78,-37 78,-55 130,-55 130,-37 78,-37"/>
<polygon fill="none" stroke="black" points="78,-37 78,-55 130,-55 130,-37 78,-37"/>
<text text-anchor="start" x="81" y="-43.2" font-family="Helvetica,sans-Serif" font-size="11.00">150 rows</text>
<polygon fill="#ffffff" stroke="transparent" points="130,-37 130,-55 152,-55 152,-37 130,-37"/>
<polygon fill="none" stroke="black" points="130,-37 130,-55 152,-55 152,-37 130,-37"/>
<text text-anchor="start" x="133" y="-43.2" font-family="Helvetica,sans-Serif" font-size="11.00">2 &gt;</text>
</a>
</g>
</g>
<!-- group_value_types&#45;&gt;groups -->
<g id="edge3" class="edge">
<title>group_value_types:w&#45;&gt;groups:e</title>
<path fill="none" stroke="black" d="M234.1,-124.33C208.53,-109.42 174.38,-64 153,-64"/>
<polygon fill="black" stroke="black" points="240.42,-126.45 246.85,-132.41 244.21,-127.73 248,-129 248,-129 248,-129 244.21,-127.73 249.15,-125.59 240.42,-126.45 240.42,-126.45"/>
<ellipse fill="none" stroke="black" cx="237.38" cy="-125.43" rx="3.2" ry="3.2"/>
</g>
</g>
</svg>
