<?xml version="1.0" encoding="UTF-8" standalone="no"?>
<!DOCTYPE svg PUBLIC "-//W3C//DTD SVG 1.1//EN"
 "http://www.w3.org/Graphics/SVG/1.1/DTD/svg11.dtd">
<!-- Generated by graphviz version 2.50.0 (20211204.2007)
 -->
<!-- Title: twoDegreesRelationshipsDiagram Pages: 1 -->
<svg width="391pt" height="368pt"
 viewBox="0.00 0.00 391.00 368.00" xmlns="http://www.w3.org/2000/svg" xmlns:xlink="http://www.w3.org/1999/xlink">
<g id="graph0" class="graph" transform="scale(1 1) rotate(0) translate(4 364)">
<title>twoDegreesRelationshipsDiagram</title>
<polygon fill="#ffffff" stroke="transparent" points="-4,4 -4,-364 387,-364 387,4 -4,4"/>
<text text-anchor="middle" x="72.5" y="-7.2" font-family="Helvetica,sans-Serif" font-size="11.00">Generated by SchemaSpy</text>
<!-- asset_types_impact_functions -->
<g id="node1" class="node">
<title>asset_types_impact_functions</title>
<g id="a_node1"><a xlink:href="../../tables/asset_types_impact_functions.html" xlink:title="asset_types_impact_functions" target="_top">
<polygon fill="#ffffff" stroke="transparent" points="171,-298 171,-356 375,-356 375,-298 171,-298"/>
<polygon fill="#f5f5f5" stroke="transparent" points="171,-334 171,-356 375,-356 375,-334 171,-334"/>
<polygon fill="none" stroke="black" points="171,-334 171,-356 375,-356 375,-334 171,-334"/>
<text text-anchor="start" x="176" y="-343.2" font-family="Helvetica,sans-Serif" font-weight="bold" font-size="11.00">asset_types_impact_functions</text>
<text text-anchor="start" x="340" y="-342.2" font-family="Helvetica,sans-Serif" font-size="11.00">[table]</text>
<polygon fill="none" stroke="black" points="171,-316 171,-334 375,-334 375,-316 171,-316"/>
<text text-anchor="start" x="174" y="-322.2" font-family="Helvetica,sans-Serif" font-size="11.00">...</text>
<polygon fill="#ffffff" stroke="transparent" points="171,-298 171,-316 251,-316 251,-298 171,-298"/>
<polygon fill="none" stroke="black" points="171,-298 171,-316 251,-316 251,-298 171,-298"/>
<text text-anchor="start" x="174" y="-304.2" font-family="Helvetica,sans-Serif" font-size="11.00">&lt; 3</text>
<polygon fill="#ffffff" stroke="transparent" points="251,-298 251,-316 332,-316 332,-298 251,-298"/>
<polygon fill="none" stroke="black" points="251,-298 251,-316 332,-316 332,-298 251,-298"/>
<text text-anchor="start" x="283" y="-304.2" font-family="Helvetica,sans-Serif" font-size="11.00">625 rows</text>
<polygon fill="#ffffff" stroke="transparent" points="332,-298 332,-316 375,-316 375,-298 332,-298"/>
<polygon fill="none" stroke="black" points="332,-298 332,-316 375,-316 375,-298 332,-298"/>
<text text-anchor="start" x="365" y="-304.2" font-family="Helvetica,sans-Serif" font-size="11.00"> &#160;</text>
</a>
</g>
</g>
<!-- asset_types -->
<g id="node2" class="node">
<title>asset_types</title>
<g id="a_node2"><a xlink:href="../../tables/asset_types.html" xlink:title="asset_types" target="_top">
<polygon fill="#ffffff" stroke="transparent" points="11,-160 11,-284 119,-284 119,-160 11,-160"/>
<polygon fill="#f5f5f5" stroke="transparent" points="11,-262 11,-284 119,-284 119,-262 11,-262"/>
<polygon fill="none" stroke="black" points="11,-262 11,-284 119,-284 119,-262 11,-262"/>
<text text-anchor="start" x="16" y="-271.2" font-family="Helvetica,sans-Serif" font-weight="bold" font-size="11.00">asset_types</text>
<text text-anchor="start" x="84" y="-270.2" font-family="Helvetica,sans-Serif" font-size="11.00">[table]</text>
<polygon fill="none" stroke="black" points="11,-240 11,-262 119,-262 119,-240 11,-240"/>
<image xlink:href="../../images/primaryKeys.png" width="11px" height="12px" preserveAspectRatio="xMinYMin meet" x="16" y="-257"/>
<text text-anchor="start" x="41" y="-248.2" font-family="Helvetica,sans-Serif" font-size="11.00">id</text>
<polygon fill="#ffffff" stroke="transparent" points="11,-218 11,-240 119,-240 119,-218 11,-218"/>
<polygon fill="none" stroke="black" points="11,-218 11,-240 119,-240 119,-218 11,-218"/>
<text text-anchor="start" x="41" y="-226.2" font-family="Helvetica,sans-Serif" font-size="11.00">name</text>
<polygon fill="#ffffff" stroke="transparent" points="11,-196 11,-218 119,-218 119,-196 11,-196"/>
<polygon fill="none" stroke="black" points="11,-196 11,-218 119,-218 119,-196 11,-196"/>
<text text-anchor="start" x="41" y="-204.2" font-family="Helvetica,sans-Serif" font-size="11.00">is_active</text>
<polygon fill="none" stroke="black" points="11,-178 11,-196 119,-196 119,-178 11,-178"/>
<text text-anchor="start" x="14" y="-184.2" font-family="Helvetica,sans-Serif" font-size="11.00">...</text>
<polygon fill="#ffffff" stroke="transparent" points="11,-160 11,-178 30,-178 30,-160 11,-160"/>
<polygon fill="none" stroke="black" points="11,-160 11,-178 30,-178 30,-160 11,-160"/>
<text text-anchor="start" x="14" y="-166.2" font-family="Helvetica,sans-Serif" font-size="11.00"> &#160;</text>
<polygon fill="#ffffff" stroke="transparent" points="30,-160 30,-178 94,-178 94,-160 30,-160"/>
<polygon fill="none" stroke="black" points="30,-160 30,-178 94,-178 94,-160 30,-160"/>
<text text-anchor="start" x="36" y="-166.2" font-family="Helvetica,sans-Serif" font-size="11.00">1,156 rows</text>
<polygon fill="#ffffff" stroke="transparent" points="94,-160 94,-178 119,-178 119,-160 94,-160"/>
<polygon fill="none" stroke="black" points="94,-160 94,-178 119,-178 119,-160 94,-160"/>
<text text-anchor="start" x="100" y="-166.2" font-family="Helvetica,sans-Serif" font-size="11.00">3 &gt;</text>
</a>
</g>
</g>
<!-- asset_types_impact_functions&#45;&gt;asset_types -->
<g id="edge1" class="edge">
<title>asset_types_impact_functions:w&#45;&gt;asset_types:e</title>
<path fill="none" stroke="black" d="M156.18,-320.37C137.66,-304.17 153.65,-251 120,-251"/>
<polygon fill="black" stroke="black" points="162.41,-322.46 168.86,-328.41 166.21,-323.73 170,-325 170,-325 170,-325 166.21,-323.73 171.14,-321.59 162.41,-322.46 162.41,-322.46"/>
<ellipse fill="none" stroke="black" cx="159.38" cy="-321.44" rx="3.2" ry="3.2"/>
</g>
<!-- asset_types_metadata -->
<g id="node3" class="node">
<title>asset_types_metadata</title>
<g id="a_node3"><a xlink:href="../../tables/asset_types_metadata.html" xlink:title="asset_types_metadata" target="_top">
<polygon fill="#ffffff" stroke="transparent" points="175.5,-79 175.5,-189 370.5,-189 370.5,-79 175.5,-79"/>
<polygon fill="#f5f5f5" stroke="transparent" points="178,-165 178,-187 369,-187 369,-165 178,-165"/>
<polygon fill="none" stroke="black" points="178,-165 178,-187 369,-187 369,-165 178,-165"/>
<text text-anchor="start" x="183" y="-174.2" font-family="Helvetica,sans-Serif" font-weight="bold" font-size="11.00">asset_types_metadata</text>
<text text-anchor="start" x="334" y="-173.2" font-family="Helvetica,sans-Serif" font-size="11.00">[table]</text>
<polygon fill="none" stroke="black" points="178,-143 178,-165 327,-165 327,-143 178,-143"/>
<image xlink:href="../../images/primaryKeys.png" width="11px" height="12px" preserveAspectRatio="xMinYMin meet" x="183" y="-160"/>
<text text-anchor="start" x="198" y="-151.2" font-family="Helvetica,sans-Serif" font-size="11.00">asset_type_id</text>
<polygon fill="none" stroke="black" points="327,-143 327,-165 369,-165 369,-143 327,-143"/>
<text text-anchor="start" x="330" y="-151.2" font-family="Helvetica,sans-Serif" font-size="11.00">int4[10]</text>
<polygon fill="none" stroke="black" points="178,-121 178,-143 327,-143 327,-121 178,-121"/>
<image xlink:href="../../images/primaryKeys.png" width="11px" height="12px" preserveAspectRatio="xMinYMin meet" x="183" y="-138"/>
<text text-anchor="start" x="198" y="-129.2" font-family="Helvetica,sans-Serif" font-size="11.00">metadata_category_id</text>
<polygon fill="none" stroke="black" points="327,-121 327,-143 369,-143 369,-121 327,-121"/>
<text text-anchor="start" x="330" y="-129.2" font-family="Helvetica,sans-Serif" font-size="11.00">int4[10]</text>
<polygon fill="none" stroke="black" points="178,-99 178,-121 327,-121 327,-99 178,-99"/>
<image xlink:href="../../images/foreignKeys.png" width="11px" height="12px" preserveAspectRatio="xMinYMin meet" x="183" y="-116"/>
<text text-anchor="start" x="198" y="-107.2" font-family="Helvetica,sans-Serif" font-size="11.00">metadata_id</text>
<polygon fill="none" stroke="black" points="327,-99 327,-121 369,-121 369,-99 327,-99"/>
<text text-anchor="start" x="330" y="-107.2" font-family="Helvetica,sans-Serif" font-size="11.00">int4[10]</text>
<polygon fill="#ffffff" stroke="transparent" points="178,-81 178,-99 233,-99 233,-81 178,-81"/>
<polygon fill="none" stroke="black" points="178,-81 178,-99 233,-99 233,-81 178,-81"/>
<text text-anchor="start" x="181" y="-87.2" font-family="Helvetica,sans-Serif" font-size="11.00">&lt; 2</text>
<polygon fill="#ffffff" stroke="transparent" points="233,-81 233,-99 327,-99 327,-81 233,-81"/>
<polygon fill="none" stroke="black" points="233,-81 233,-99 327,-99 327,-81 233,-81"/>
<text text-anchor="start" x="269" y="-87.2" font-family="Helvetica,sans-Serif" font-size="11.00">4,002 rows</text>
<polygon fill="#ffffff" stroke="transparent" points="327,-81 327,-99 369,-99 369,-81 327,-81"/>
<polygon fill="none" stroke="black" points="327,-81 327,-99 369,-99 369,-81 327,-81"/>
<text text-anchor="start" x="350" y="-87.2" font-family="Helvetica,sans-Serif" font-size="11.00">0 &gt;</text>
<polygon fill="none" stroke="black" stroke-width="2" points="176.5,-80 176.5,-188 369.5,-188 369.5,-80 176.5,-80"/>
</a>
</g>
</g>
<!-- asset_types_metadata&#45;&gt;asset_types -->
<g id="edge2" class="edge">
<title>asset_types_metadata:w&#45;&gt;asset_types:e</title>
<path fill="none" stroke="black" d="M162.95,-157.68C135.8,-175.4 164.14,-251 120,-251"/>
<polygon fill="black" stroke="black" points="169.26,-156.03 177.91,-157.48 173.13,-155.01 177,-154 177,-154 177,-154 173.13,-155.01 176.09,-150.52 169.26,-156.03 169.26,-156.03"/>
<ellipse fill="none" stroke="black" cx="166.17" cy="-156.84" rx="3.2" ry="3.2"/>
</g>
<!-- tcs_metadata -->
<g id="node4" class="node">
<title>tcs_metadata</title>
<g id="a_node4"><a xlink:href="../../tables/tcs_metadata.html" xlink:title="tcs_metadata" target="_top">
<polygon fill="#ffffff" stroke="transparent" points="8,-37 8,-139 122,-139 122,-37 8,-37"/>
<polygon fill="#f5f5f5" stroke="transparent" points="8,-117 8,-139 122,-139 122,-117 8,-117"/>
<polygon fill="none" stroke="black" points="8,-117 8,-139 122,-139 122,-117 8,-117"/>
<text text-anchor="start" x="13" y="-126.2" font-family="Helvetica,sans-Serif" font-weight="bold" font-size="11.00">tcs_metadata</text>
<text text-anchor="start" x="87" y="-125.2" font-family="Helvetica,sans-Serif" font-size="11.00">[table]</text>
<polygon fill="none" stroke="black" points="8,-95 8,-117 122,-117 122,-95 8,-95"/>
<image xlink:href="../../images/primaryKeys.png" width="11px" height="12px" preserveAspectRatio="xMinYMin meet" x="13" y="-112"/>
<text text-anchor="start" x="31" y="-103.2" font-family="Helvetica,sans-Serif" font-size="11.00">id</text>
<polygon fill="#ffffff" stroke="transparent" points="8,-73 8,-95 122,-95 122,-73 8,-73"/>
<polygon fill="none" stroke="black" points="8,-73 8,-95 122,-95 122,-73 8,-73"/>
<text text-anchor="start" x="31" y="-81.2" font-family="Helvetica,sans-Serif" font-size="11.00">value</text>
<polygon fill="none" stroke="black" points="8,-55 8,-73 122,-73 122,-55 8,-55"/>
<text text-anchor="start" x="11" y="-61.2" font-family="Helvetica,sans-Serif" font-size="11.00">...</text>
<polygon fill="#ffffff" stroke="transparent" points="8,-37 8,-55 37,-55 37,-37 8,-37"/>
<polygon fill="none" stroke="black" points="8,-37 8,-55 37,-55 37,-37 8,-37"/>
<text text-anchor="start" x="11" y="-43.2" font-family="Helvetica,sans-Serif" font-size="11.00"> &#160;</text>
<polygon fill="#ffffff" stroke="transparent" points="37,-37 37,-55 91,-55 91,-37 37,-37"/>
<polygon fill="none" stroke="black" points="37,-37 37,-55 91,-55 91,-37 37,-37"/>
<text text-anchor="start" x="48" y="-43.2" font-family="Helvetica,sans-Serif" font-size="11.00">31 rows</text>
<polygon fill="#ffffff" stroke="transparent" points="91,-37 91,-55 122,-55 122,-37 91,-37"/>
<polygon fill="none" stroke="black" points="91,-37 91,-55 122,-55 122,-37 91,-37"/>
<text text-anchor="start" x="103" y="-43.2" font-family="Helvetica,sans-Serif" font-size="11.00">1 &gt;</text>
</a>
</g>
</g>
<!-- asset_types_metadata&#45;&gt;tcs_metadata -->
<g id="edge3" class="edge">
<title>asset_types_metadata:w&#45;&gt;tcs_metadata:e</title>
<path fill="none" stroke="black" d="M162.61,-109.44C149.18,-108.34 141.43,-106 123,-106"/>
<polygon fill="black" stroke="black" points="169.01,-109.69 176.86,-113.6 173,-109.85 177,-110 177,-110 177,-110 173,-109.85 177.14,-106.4 169.01,-109.69 169.01,-109.69"/>
<ellipse fill="none" stroke="black" cx="165.81" cy="-109.57" rx="3.2" ry="3.2"/>
</g>
<!-- assets -->
<g id="node5" class="node">
<title>assets</title>
<g id="a_node5"><a xlink:href="../../tables/assets.html" xlink:title="assets" target="_top">
<polygon fill="#ffffff" stroke="transparent" points="217.5,-219 217.5,-277 328.5,-277 328.5,-219 217.5,-219"/>
<polygon fill="#f5f5f5" stroke="transparent" points="218,-255 218,-277 329,-277 329,-255 218,-255"/>
<polygon fill="none" stroke="black" points="218,-255 218,-277 329,-277 329,-255 218,-255"/>
<text text-anchor="start" x="223" y="-264.2" font-family="Helvetica,sans-Serif" font-weight="bold" font-size="11.00">assets</text>
<text text-anchor="start" x="294" y="-263.2" font-family="Helvetica,sans-Serif" font-size="11.00">[table]</text>
<polygon fill="none" stroke="black" points="218,-237 218,-255 329,-255 329,-237 218,-237"/>
<text text-anchor="start" x="221" y="-243.2" font-family="Helvetica,sans-Serif" font-size="11.00">...</text>
<polygon fill="#ffffff" stroke="transparent" points="218,-219 218,-237 240,-237 240,-219 218,-219"/>
<polygon fill="none" stroke="black" points="218,-219 218,-237 240,-237 240,-219 218,-219"/>
<text text-anchor="start" x="221" y="-225.2" font-family="Helvetica,sans-Serif" font-size="11.00">&lt; 3</text>
<polygon fill="#ffffff" stroke="transparent" points="240,-219 240,-237 307,-237 307,-219 240,-219"/>
<polygon fill="none" stroke="black" points="240,-219 240,-237 307,-237 307,-219 240,-219"/>
<text text-anchor="start" x="243" y="-225.2" font-family="Helvetica,sans-Serif" font-size="11.00">78,452 rows</text>
<polygon fill="#ffffff" stroke="transparent" points="307,-219 307,-237 329,-237 329,-219 307,-219"/>
<polygon fill="none" stroke="black" points="307,-219 307,-237 329,-237 329,-219 307,-219"/>
<text text-anchor="start" x="310" y="-225.2" font-family="Helvetica,sans-Serif" font-size="11.00">4 &gt;</text>
</a>
</g>
</g>
<!-- assets&#45;&gt;asset_types -->
<g id="edge4" class="edge">
<title>assets:w&#45;&gt;asset_types:e</title>
<path fill="none" stroke="black" d="M202.21,-246.21C170.66,-247.17 157.77,-251 120,-251"/>
<polygon fill="black" stroke="black" points="209,-246.12 217.05,-249.6 213,-246.06 217,-246 217,-246 217,-246 213,-246.06 216.95,-242.4 209,-246.12 209,-246.12"/>
<ellipse fill="none" stroke="black" cx="205.8" cy="-246.16" rx="3.2" ry="3.2"/>
</g>
</g>
</svg>
