<?xml version="1.0" encoding="UTF-8" standalone="no"?>
<!DOCTYPE svg PUBLIC "-//W3C//DTD SVG 1.1//EN"
 "http://www.w3.org/Graphics/SVG/1.1/DTD/svg11.dtd">
<!-- Generated by graphviz version 2.50.0 (20211204.2007)
 -->
<!-- Title: twoDegreesRelationshipsDiagram Pages: 1 -->
<svg width="897pt" height="641pt"
 viewBox="0.00 0.00 897.00 641.10" xmlns="http://www.w3.org/2000/svg" xmlns:xlink="http://www.w3.org/1999/xlink">
<g id="graph0" class="graph" transform="scale(1 1) rotate(0) translate(4 637.1)">
<title>twoDegreesRelationshipsDiagram</title>
<polygon fill="#ffffff" stroke="transparent" points="-4,4 -4,-637.1 893,-637.1 893,4 -4,4"/>
<text text-anchor="middle" x="72.5" y="-7.2" font-family="Helvetica,sans-Serif" font-size="11.00">Generated by SchemaSpy</text>
<!-- aggregate_impacts -->
<g id="node1" class="node">
<title>aggregate_impacts</title>
<g id="a_node1"><a xlink:href="../../tables/aggregate_impacts.html" xlink:title="aggregate_impacts" target="_top">
<polygon fill="#ffffff" stroke="transparent" points="178,-437 178,-495 323,-495 323,-437 178,-437"/>
<polygon fill="#f5f5f5" stroke="transparent" points="178.5,-473 178.5,-495 323.5,-495 323.5,-473 178.5,-473"/>
<polygon fill="none" stroke="black" points="178.5,-473 178.5,-495 323.5,-495 323.5,-473 178.5,-473"/>
<text text-anchor="start" x="183.5" y="-482.2" font-family="Helvetica,sans-Serif" font-weight="bold" font-size="11.00">aggregate_impacts</text>
<text text-anchor="start" x="288.5" y="-481.2" font-family="Helvetica,sans-Serif" font-size="11.00">[table]</text>
<polygon fill="none" stroke="black" points="178.5,-455 178.5,-473 323.5,-473 323.5,-455 178.5,-455"/>
<text text-anchor="start" x="181.5" y="-461.2" font-family="Helvetica,sans-Serif" font-size="11.00">...</text>
<polygon fill="#ffffff" stroke="transparent" points="178.5,-437 178.5,-455 214.5,-455 214.5,-437 178.5,-437"/>
<polygon fill="none" stroke="black" points="178.5,-437 178.5,-455 214.5,-455 214.5,-437 178.5,-437"/>
<text text-anchor="start" x="181.5" y="-443.2" font-family="Helvetica,sans-Serif" font-size="11.00">&lt; 2</text>
<polygon fill="#ffffff" stroke="transparent" points="214.5,-437 214.5,-455 303.5,-455 303.5,-437 214.5,-437"/>
<polygon fill="none" stroke="black" points="214.5,-437 214.5,-455 303.5,-455 303.5,-437 214.5,-437"/>
<text text-anchor="start" x="224.5" y="-443.2" font-family="Helvetica,sans-Serif" font-size="11.00">7,901,926 rows</text>
<polygon fill="#ffffff" stroke="transparent" points="303.5,-437 303.5,-455 323.5,-455 323.5,-437 303.5,-437"/>
<polygon fill="none" stroke="black" points="303.5,-437 303.5,-455 323.5,-455 323.5,-437 303.5,-437"/>
<text text-anchor="start" x="313.5" y="-443.2" font-family="Helvetica,sans-Serif" font-size="11.00"> &#160;</text>
</a>
</g>
</g>
<!-- risk_factors -->
<g id="node2" class="node">
<title>risk_factors</title>
<g id="a_node2"><a xlink:href="../../tables/risk_factors.html" xlink:title="risk_factors" target="_top">
<polygon fill="#ffffff" stroke="transparent" points="8,-395 8,-497 115,-497 115,-395 8,-395"/>
<polygon fill="#f5f5f5" stroke="transparent" points="8.5,-475 8.5,-497 115.5,-497 115.5,-475 8.5,-475"/>
<polygon fill="none" stroke="black" points="8.5,-475 8.5,-497 115.5,-497 115.5,-475 8.5,-475"/>
<text text-anchor="start" x="13.5" y="-484.2" font-family="Helvetica,sans-Serif" font-weight="bold" font-size="11.00">risk_factors</text>
<text text-anchor="start" x="80.5" y="-483.2" font-family="Helvetica,sans-Serif" font-size="11.00">[table]</text>
<polygon fill="none" stroke="black" points="8.5,-453 8.5,-475 115.5,-475 115.5,-453 8.5,-453"/>
<image xlink:href="../../images/primaryKeys.png" width="11px" height="12px" preserveAspectRatio="xMinYMin meet" x="13.5" y="-470"/>
<text text-anchor="start" x="37.5" y="-461.2" font-family="Helvetica,sans-Serif" font-size="11.00">id</text>
<polygon fill="#ffffff" stroke="transparent" points="8.5,-431 8.5,-453 115.5,-453 115.5,-431 8.5,-431"/>
<polygon fill="none" stroke="black" points="8.5,-431 8.5,-453 115.5,-453 115.5,-431 8.5,-431"/>
<text text-anchor="start" x="37.5" y="-439.2" font-family="Helvetica,sans-Serif" font-size="11.00">name</text>
<polygon fill="none" stroke="black" points="8.5,-413 8.5,-431 115.5,-431 115.5,-413 8.5,-413"/>
<text text-anchor="start" x="11.5" y="-419.2" font-family="Helvetica,sans-Serif" font-size="11.00">...</text>
<polygon fill="#ffffff" stroke="transparent" points="8.5,-395 8.5,-413 34.5,-413 34.5,-395 8.5,-395"/>
<polygon fill="none" stroke="black" points="8.5,-395 8.5,-413 34.5,-413 34.5,-395 8.5,-395"/>
<text text-anchor="start" x="11.5" y="-401.2" font-family="Helvetica,sans-Serif" font-size="11.00"> &#160;</text>
<polygon fill="#ffffff" stroke="transparent" points="34.5,-395 34.5,-413 86.5,-413 86.5,-395 34.5,-395"/>
<polygon fill="none" stroke="black" points="34.5,-395 34.5,-413 86.5,-413 86.5,-395 34.5,-395"/>
<text text-anchor="start" x="43.5" y="-401.2" font-family="Helvetica,sans-Serif" font-size="11.00">17 rows</text>
<polygon fill="#ffffff" stroke="transparent" points="86.5,-395 86.5,-413 115.5,-413 115.5,-395 86.5,-395"/>
<polygon fill="none" stroke="black" points="86.5,-395 86.5,-413 115.5,-413 115.5,-395 86.5,-395"/>
<text text-anchor="start" x="96.5" y="-401.2" font-family="Helvetica,sans-Serif" font-size="11.00">7 &gt;</text>
</a>
</g>
</g>
<!-- aggregate_impacts&#45;&gt;risk_factors -->
<g id="edge1" class="edge">
<title>aggregate_impacts:w&#45;&gt;risk_factors:e</title>
<path fill="none" stroke="black" d="M162.68,-464C146.62,-464 137.89,-464 116.5,-464"/>
<polygon fill="black" stroke="black" points="169.5,-464 177.5,-467.6 173.5,-464 177.5,-464 177.5,-464 177.5,-464 173.5,-464 177.5,-460.4 169.5,-464 169.5,-464"/>
<ellipse fill="none" stroke="black" cx="166.3" cy="-464" rx="3.2" ry="3.2"/>
</g>
<!-- aggregate_risks -->
<g id="node3" class="node">
<title>aggregate_risks</title>
<g id="a_node3"><a xlink:href="../../tables/aggregate_risks.html" xlink:title="aggregate_risks" target="_top">
<polygon fill="#ffffff" stroke="transparent" points="402,-513 402,-571 532,-571 532,-513 402,-513"/>
<polygon fill="#f5f5f5" stroke="transparent" points="402,-549 402,-571 532,-571 532,-549 402,-549"/>
<polygon fill="none" stroke="black" points="402,-549 402,-571 532,-571 532,-549 402,-549"/>
<text text-anchor="start" x="407" y="-558.2" font-family="Helvetica,sans-Serif" font-weight="bold" font-size="11.00">aggregate_risks</text>
<text text-anchor="start" x="497" y="-557.2" font-family="Helvetica,sans-Serif" font-size="11.00">[table]</text>
<polygon fill="none" stroke="black" points="402,-531 402,-549 532,-549 532,-531 402,-531"/>
<text text-anchor="start" x="405" y="-537.2" font-family="Helvetica,sans-Serif" font-size="11.00">...</text>
<polygon fill="#ffffff" stroke="transparent" points="402,-513 402,-531 435,-531 435,-513 402,-513"/>
<polygon fill="none" stroke="black" points="402,-513 402,-531 435,-531 435,-513 402,-513"/>
<text text-anchor="start" x="405" y="-519.2" font-family="Helvetica,sans-Serif" font-size="11.00">&lt; 4</text>
<polygon fill="#ffffff" stroke="transparent" points="435,-513 435,-531 513,-531 513,-513 435,-513"/>
<polygon fill="none" stroke="black" points="435,-513 435,-531 513,-531 513,-513 435,-513"/>
<text text-anchor="start" x="443" y="-519.2" font-family="Helvetica,sans-Serif" font-size="11.00">133,008 rows</text>
<polygon fill="#ffffff" stroke="transparent" points="513,-513 513,-531 532,-531 532,-513 513,-513"/>
<polygon fill="none" stroke="black" points="513,-513 513,-531 532,-531 532,-513 513,-513"/>
<text text-anchor="start" x="522" y="-519.2" font-family="Helvetica,sans-Serif" font-size="11.00"> &#160;</text>
</a>
</g>
</g>
<!-- aggregate_risks&#45;&gt;risk_factors -->
<g id="edge3" class="edge">
<title>aggregate_risks:w&#45;&gt;risk_factors:e</title>
<path fill="none" stroke="black" d="M386.56,-543.24C370.07,-552.06 369.47,-576.39 345,-585 265.77,-612.89 223.99,-634.33 156,-585 110.21,-551.78 173.07,-464 116.5,-464"/>
<polygon fill="black" stroke="black" points="393.19,-541.75 401.79,-543.51 397.1,-540.88 401,-540 401,-540 401,-540 397.1,-540.88 400.21,-536.49 393.19,-541.75 393.19,-541.75"/>
<ellipse fill="none" stroke="black" cx="390.07" cy="-542.45" rx="3.2" ry="3.2"/>
</g>
<!-- hazard_metrics -->
<g id="node4" class="node">
<title>hazard_metrics</title>
<g id="a_node4"><a xlink:href="../../tables/hazard_metrics.html" xlink:title="hazard_metrics" target="_top">
<polygon fill="#ffffff" stroke="transparent" points="187.5,-358 187.5,-416 313.5,-416 313.5,-358 187.5,-358"/>
<polygon fill="#f5f5f5" stroke="transparent" points="187.5,-394 187.5,-416 313.5,-416 313.5,-394 187.5,-394"/>
<polygon fill="none" stroke="black" points="187.5,-394 187.5,-416 313.5,-416 313.5,-394 187.5,-394"/>
<text text-anchor="start" x="192.5" y="-403.2" font-family="Helvetica,sans-Serif" font-weight="bold" font-size="11.00">hazard_metrics</text>
<text text-anchor="start" x="278.5" y="-402.2" font-family="Helvetica,sans-Serif" font-size="11.00">[table]</text>
<polygon fill="none" stroke="black" points="187.5,-376 187.5,-394 313.5,-394 313.5,-376 187.5,-376"/>
<text text-anchor="start" x="190.5" y="-382.2" font-family="Helvetica,sans-Serif" font-size="11.00">...</text>
<polygon fill="#ffffff" stroke="transparent" points="187.5,-358 187.5,-376 227.5,-376 227.5,-358 187.5,-358"/>
<polygon fill="none" stroke="black" points="187.5,-358 187.5,-376 227.5,-376 227.5,-358 187.5,-358"/>
<text text-anchor="start" x="190.5" y="-364.2" font-family="Helvetica,sans-Serif" font-size="11.00">&lt; 1</text>
<polygon fill="#ffffff" stroke="transparent" points="227.5,-358 227.5,-376 282.5,-376 282.5,-358 227.5,-358"/>
<polygon fill="none" stroke="black" points="227.5,-358 227.5,-376 282.5,-376 282.5,-358 227.5,-358"/>
<text text-anchor="start" x="239.5" y="-364.2" font-family="Helvetica,sans-Serif" font-size="11.00">15 rows</text>
<polygon fill="#ffffff" stroke="transparent" points="282.5,-358 282.5,-376 313.5,-376 313.5,-358 282.5,-358"/>
<polygon fill="none" stroke="black" points="282.5,-358 282.5,-376 313.5,-376 313.5,-358 282.5,-358"/>
<text text-anchor="start" x="294.5" y="-364.2" font-family="Helvetica,sans-Serif" font-size="11.00">3 &gt;</text>
</a>
</g>
</g>
<!-- aggregate_risks&#45;&gt;hazard_metrics -->
<g id="edge2" class="edge">
<title>aggregate_risks:w&#45;&gt;hazard_metrics:e</title>
<path fill="none" stroke="black" d="M386.48,-537.81C331.39,-518.97 387.84,-385 314.5,-385"/>
<polygon fill="black" stroke="black" points="393.09,-538.81 400.46,-543.56 397.04,-539.4 401,-540 401,-540 401,-540 397.04,-539.4 401.54,-536.44 393.09,-538.81 393.09,-538.81"/>
<ellipse fill="none" stroke="black" cx="389.93" cy="-538.33" rx="3.2" ry="3.2"/>
</g>
<!-- hazard_metrics&#45;&gt;risk_factors -->
<g id="edge12" class="edge">
<title>hazard_metrics:w&#45;&gt;risk_factors:e</title>
<path fill="none" stroke="black" d="M172.32,-388.19C144.32,-402.97 157.73,-464 116.5,-464"/>
<polygon fill="black" stroke="black" points="178.7,-386.76 187.29,-388.51 182.6,-385.88 186.5,-385 186.5,-385 186.5,-385 182.6,-385.88 185.71,-381.49 178.7,-386.76 178.7,-386.76"/>
<ellipse fill="none" stroke="black" cx="175.57" cy="-387.46" rx="3.2" ry="3.2"/>
</g>
<!-- asset_types_impact_functions -->
<g id="node5" class="node">
<title>asset_types_impact_functions</title>
<g id="a_node5"><a xlink:href="../../tables/asset_types_impact_functions.html" xlink:title="asset_types_impact_functions" target="_top">
<polygon fill="#ffffff" stroke="transparent" points="597,-37 597,-213 881,-213 881,-37 597,-37"/>
<polygon fill="#f5f5f5" stroke="transparent" points="599,-189 599,-211 879,-211 879,-189 599,-189"/>
<polygon fill="none" stroke="black" points="599,-189 599,-211 879,-211 879,-189 599,-189"/>
<text text-anchor="start" x="604" y="-198.2" font-family="Helvetica,sans-Serif" font-weight="bold" font-size="11.00">asset_types_impact_functions</text>
<text text-anchor="start" x="844" y="-197.2" font-family="Helvetica,sans-Serif" font-size="11.00">[table]</text>
<polygon fill="none" stroke="black" points="599,-167 599,-189 794,-189 794,-167 599,-167"/>
<image xlink:href="../../images/primaryKeys.png" width="11px" height="12px" preserveAspectRatio="xMinYMin meet" x="604" y="-184"/>
<text text-anchor="start" x="619" y="-175.2" font-family="Helvetica,sans-Serif" font-size="11.00">asset_type_id</text>
<polygon fill="none" stroke="black" points="794,-167 794,-189 879,-189 879,-167 794,-167"/>
<text text-anchor="start" x="797" y="-175.2" font-family="Helvetica,sans-Serif" font-size="11.00">int4[10]</text>
<polygon fill="none" stroke="black" points="599,-145 599,-167 794,-167 794,-145 599,-145"/>
<image xlink:href="../../images/primaryKeys.png" width="11px" height="12px" preserveAspectRatio="xMinYMin meet" x="604" y="-162"/>
<text text-anchor="start" x="619" y="-153.2" font-family="Helvetica,sans-Serif" font-size="11.00">impact_function_id</text>
<polygon fill="none" stroke="black" points="794,-145 794,-167 879,-167 879,-145 794,-145"/>
<text text-anchor="start" x="797" y="-153.2" font-family="Helvetica,sans-Serif" font-size="11.00">int4[10]</text>
<polygon fill="none" stroke="black" points="599,-123 599,-145 794,-145 794,-123 599,-123"/>
<image xlink:href="../../images/foreignKeys.png" width="11px" height="12px" preserveAspectRatio="xMinYMin meet" x="604" y="-140"/>
<text text-anchor="start" x="619" y="-131.2" font-family="Helvetica,sans-Serif" font-size="11.00">risk_factor_id</text>
<polygon fill="none" stroke="black" points="794,-123 794,-145 879,-145 879,-123 794,-123"/>
<text text-anchor="start" x="797" y="-131.2" font-family="Helvetica,sans-Serif" font-size="11.00">int4[10]</text>
<polygon fill="none" stroke="black" points="599,-101 599,-123 794,-123 794,-101 599,-101"/>
<text text-anchor="start" x="619" y="-109.2" font-family="Helvetica,sans-Serif" font-size="11.00">is_default</text>
<polygon fill="none" stroke="black" points="794,-101 794,-123 879,-123 879,-101 794,-101"/>
<text text-anchor="start" x="797" y="-109.2" font-family="Helvetica,sans-Serif" font-size="11.00">int4[10]</text>
<polygon fill="none" stroke="black" points="599,-79 599,-101 794,-101 794,-79 599,-79"/>
<text text-anchor="start" x="619" y="-87.2" font-family="Helvetica,sans-Serif" font-size="11.00">created_at</text>
<polygon fill="none" stroke="black" points="794,-79 794,-101 879,-101 879,-79 794,-79"/>
<text text-anchor="start" x="797" y="-87.2" font-family="Helvetica,sans-Serif" font-size="11.00">timestamp[29,6]</text>
<polygon fill="none" stroke="black" points="599,-57 599,-79 794,-79 794,-57 599,-57"/>
<text text-anchor="start" x="619" y="-65.2" font-family="Helvetica,sans-Serif" font-size="11.00">updated_at</text>
<polygon fill="none" stroke="black" points="794,-57 794,-79 879,-79 879,-57 794,-57"/>
<text text-anchor="start" x="797" y="-65.2" font-family="Helvetica,sans-Serif" font-size="11.00">timestamp[29,6]</text>
<polygon fill="#ffffff" stroke="transparent" points="599,-39 599,-57 681,-57 681,-39 599,-39"/>
<polygon fill="none" stroke="black" points="599,-39 599,-57 681,-57 681,-39 599,-39"/>
<text text-anchor="start" x="602" y="-45.2" font-family="Helvetica,sans-Serif" font-size="11.00">&lt; 3</text>
<polygon fill="#ffffff" stroke="transparent" points="681,-39 681,-57 794,-57 794,-39 681,-39"/>
<polygon fill="none" stroke="black" points="681,-39 681,-57 794,-57 794,-39 681,-39"/>
<text text-anchor="start" x="745" y="-45.2" font-family="Helvetica,sans-Serif" font-size="11.00">625 rows</text>
<polygon fill="#ffffff" stroke="transparent" points="794,-39 794,-57 879,-57 879,-39 794,-39"/>
<polygon fill="none" stroke="black" points="794,-39 794,-57 879,-57 879,-39 794,-39"/>
<text text-anchor="start" x="860" y="-45.2" font-family="Helvetica,sans-Serif" font-size="11.00">0 &gt;</text>
<polygon fill="none" stroke="black" stroke-width="2" points="598,-38 598,-212 880,-212 880,-38 598,-38"/>
</a>
</g>
</g>
<!-- asset_types_impact_functions&#45;&gt;risk_factors -->
<g id="edge6" class="edge">
<title>asset_types_impact_functions:w&#45;&gt;risk_factors:e</title>
<path fill="none" stroke="black" d="M583.5,-133.78C396.46,-128.22 297.76,-18.05 156,-147 103.49,-194.77 187.49,-464 116.5,-464"/>
<polygon fill="black" stroke="black" points="590,-133.88 597.95,-137.6 594,-133.94 598,-134 598,-134 598,-134 594,-133.94 598.05,-130.4 590,-133.88 590,-133.88"/>
<ellipse fill="none" stroke="black" cx="586.8" cy="-133.83" rx="3.2" ry="3.2"/>
</g>
<!-- asset_types -->
<g id="node6" class="node">
<title>asset_types</title>
<g id="a_node6"><a xlink:href="../../tables/asset_types.html" xlink:title="asset_types" target="_top">
<polygon fill="#ffffff" stroke="transparent" points="196.5,-158 196.5,-282 304.5,-282 304.5,-158 196.5,-158"/>
<polygon fill="#f5f5f5" stroke="transparent" points="196.5,-260 196.5,-282 304.5,-282 304.5,-260 196.5,-260"/>
<polygon fill="none" stroke="black" points="196.5,-260 196.5,-282 304.5,-282 304.5,-260 196.5,-260"/>
<text text-anchor="start" x="201.5" y="-269.2" font-family="Helvetica,sans-Serif" font-weight="bold" font-size="11.00">asset_types</text>
<text text-anchor="start" x="269.5" y="-268.2" font-family="Helvetica,sans-Serif" font-size="11.00">[table]</text>
<polygon fill="none" stroke="black" points="196.5,-238 196.5,-260 304.5,-260 304.5,-238 196.5,-238"/>
<image xlink:href="../../images/primaryKeys.png" width="11px" height="12px" preserveAspectRatio="xMinYMin meet" x="201.5" y="-255"/>
<text text-anchor="start" x="226.5" y="-246.2" font-family="Helvetica,sans-Serif" font-size="11.00">id</text>
<polygon fill="#ffffff" stroke="transparent" points="196.5,-216 196.5,-238 304.5,-238 304.5,-216 196.5,-216"/>
<polygon fill="none" stroke="black" points="196.5,-216 196.5,-238 304.5,-238 304.5,-216 196.5,-216"/>
<text text-anchor="start" x="226.5" y="-224.2" font-family="Helvetica,sans-Serif" font-size="11.00">name</text>
<polygon fill="#ffffff" stroke="transparent" points="196.5,-194 196.5,-216 304.5,-216 304.5,-194 196.5,-194"/>
<polygon fill="none" stroke="black" points="196.5,-194 196.5,-216 304.5,-216 304.5,-194 196.5,-194"/>
<text text-anchor="start" x="226.5" y="-202.2" font-family="Helvetica,sans-Serif" font-size="11.00">is_active</text>
<polygon fill="none" stroke="black" points="196.5,-176 196.5,-194 304.5,-194 304.5,-176 196.5,-176"/>
<text text-anchor="start" x="199.5" y="-182.2" font-family="Helvetica,sans-Serif" font-size="11.00">...</text>
<polygon fill="#ffffff" stroke="transparent" points="196.5,-158 196.5,-176 215.5,-176 215.5,-158 196.5,-158"/>
<polygon fill="none" stroke="black" points="196.5,-158 196.5,-176 215.5,-176 215.5,-158 196.5,-158"/>
<text text-anchor="start" x="199.5" y="-164.2" font-family="Helvetica,sans-Serif" font-size="11.00"> &#160;</text>
<polygon fill="#ffffff" stroke="transparent" points="215.5,-158 215.5,-176 279.5,-176 279.5,-158 215.5,-158"/>
<polygon fill="none" stroke="black" points="215.5,-158 215.5,-176 279.5,-176 279.5,-158 215.5,-158"/>
<text text-anchor="start" x="221.5" y="-164.2" font-family="Helvetica,sans-Serif" font-size="11.00">1,156 rows</text>
<polygon fill="#ffffff" stroke="transparent" points="279.5,-158 279.5,-176 304.5,-176 304.5,-158 279.5,-158"/>
<polygon fill="none" stroke="black" points="279.5,-158 279.5,-176 304.5,-176 304.5,-158 279.5,-158"/>
<text text-anchor="start" x="285.5" y="-164.2" font-family="Helvetica,sans-Serif" font-size="11.00">3 &gt;</text>
</a>
</g>
</g>
<!-- asset_types_impact_functions&#45;&gt;asset_types -->
<g id="edge4" class="edge">
<title>asset_types_impact_functions:w&#45;&gt;asset_types:e</title>
<path fill="none" stroke="black" d="M583.44,-177.41C574.9,-176.68 568.71,-175.45 556,-175 476.94,-172.18 450.93,-144.35 378,-175 335.55,-192.84 351.54,-249 305.5,-249"/>
<polygon fill="black" stroke="black" points="590.01,-177.68 597.86,-181.6 594,-177.84 598,-178 598,-178 598,-178 594,-177.84 598.14,-174.4 590.01,-177.68 590.01,-177.68"/>
<ellipse fill="none" stroke="black" cx="586.81" cy="-177.55" rx="3.2" ry="3.2"/>
</g>
<!-- impact_functions -->
<g id="node7" class="node">
<title>impact_functions</title>
<g id="a_node7"><a xlink:href="../../tables/impact_functions.html" xlink:title="impact_functions" target="_top">
<polygon fill="#ffffff" stroke="transparent" points="397.5,-344 397.5,-490 536.5,-490 536.5,-344 397.5,-344"/>
<polygon fill="#f5f5f5" stroke="transparent" points="398,-468 398,-490 537,-490 537,-468 398,-468"/>
<polygon fill="none" stroke="black" points="398,-468 398,-490 537,-490 537,-468 398,-468"/>
<text text-anchor="start" x="403" y="-477.2" font-family="Helvetica,sans-Serif" font-weight="bold" font-size="11.00">impact_functions</text>
<text text-anchor="start" x="502" y="-476.2" font-family="Helvetica,sans-Serif" font-size="11.00">[table]</text>
<polygon fill="none" stroke="black" points="398,-446 398,-468 537,-468 537,-446 398,-446"/>
<image xlink:href="../../images/primaryKeys.png" width="11px" height="12px" preserveAspectRatio="xMinYMin meet" x="403" y="-463"/>
<text text-anchor="start" x="418" y="-454.2" font-family="Helvetica,sans-Serif" font-size="11.00">id</text>
<polygon fill="#ffffff" stroke="transparent" points="398,-424 398,-446 537,-446 537,-424 398,-424"/>
<polygon fill="none" stroke="black" points="398,-424 398,-446 537,-446 537,-424 398,-424"/>
<text text-anchor="start" x="418" y="-432.2" font-family="Helvetica,sans-Serif" font-size="11.00">name</text>
<polygon fill="none" stroke="black" points="398,-402 398,-424 537,-424 537,-402 398,-402"/>
<image xlink:href="../../images/foreignKeys.png" width="11px" height="12px" preserveAspectRatio="xMinYMin meet" x="403" y="-419"/>
<text text-anchor="start" x="418" y="-410.2" font-family="Helvetica,sans-Serif" font-size="11.00">hazard_metric_id</text>
<polygon fill="none" stroke="black" points="398,-380 398,-402 537,-402 537,-380 398,-380"/>
<image xlink:href="../../images/foreignKeys.png" width="11px" height="12px" preserveAspectRatio="xMinYMin meet" x="403" y="-397"/>
<text text-anchor="start" x="418" y="-388.2" font-family="Helvetica,sans-Serif" font-size="11.00">risk_factor_id</text>
<polygon fill="none" stroke="black" points="398,-362 398,-380 537,-380 537,-362 398,-362"/>
<text text-anchor="start" x="401" y="-368.2" font-family="Helvetica,sans-Serif" font-size="11.00">...</text>
<polygon fill="#ffffff" stroke="transparent" points="398,-344 398,-362 437,-362 437,-344 398,-344"/>
<polygon fill="none" stroke="black" points="398,-344 398,-362 437,-362 437,-344 398,-344"/>
<text text-anchor="start" x="401" y="-350.2" font-family="Helvetica,sans-Serif" font-size="11.00">&lt; 2</text>
<polygon fill="#ffffff" stroke="transparent" points="437,-344 437,-362 506,-362 506,-344 437,-344"/>
<polygon fill="none" stroke="black" points="437,-344 437,-362 506,-362 506,-344 437,-344"/>
<text text-anchor="start" x="448" y="-350.2" font-family="Helvetica,sans-Serif" font-size="11.00">3,261 rows</text>
<polygon fill="#ffffff" stroke="transparent" points="506,-344 506,-362 537,-362 537,-344 506,-344"/>
<polygon fill="none" stroke="black" points="506,-344 506,-362 537,-362 537,-344 506,-344"/>
<text text-anchor="start" x="518" y="-350.2" font-family="Helvetica,sans-Serif" font-size="11.00">2 &gt;</text>
</a>
</g>
</g>
<!-- asset_types_impact_functions&#45;&gt;impact_functions -->
<g id="edge5" class="edge">
<title>asset_types_impact_functions:w&#45;&gt;impact_functions:e</title>
<path fill="none" stroke="black" d="M584.52,-161.22C540.85,-201.19 600.88,-457 538,-457"/>
<polygon fill="black" stroke="black" points="590.54,-158.89 599.3,-159.36 594.27,-157.45 598,-156 598,-156 598,-156 594.27,-157.45 596.7,-152.64 590.54,-158.89 590.54,-158.89"/>
<ellipse fill="none" stroke="black" cx="587.56" cy="-160.05" rx="3.2" ry="3.2"/>
</g>
<!-- impact_functions&#45;&gt;risk_factors -->
<g id="edge14" class="edge">
<title>impact_functions:w&#45;&gt;risk_factors:e</title>
<path fill="none" stroke="black" d="M382.96,-387.58C368,-378.76 367.88,-355.38 345,-347 266.13,-318.11 224.24,-298.02 156,-347 111.41,-379.01 171.38,-464 116.5,-464"/>
<polygon fill="black" stroke="black" points="389.23,-389.11 396.15,-394.5 393.11,-390.05 397,-391 397,-391 397,-391 393.11,-390.05 397.85,-387.5 389.23,-389.11 389.23,-389.11"/>
<ellipse fill="none" stroke="black" cx="386.12" cy="-388.35" rx="3.2" ry="3.2"/>
</g>
<!-- impact_functions&#45;&gt;hazard_metrics -->
<g id="edge13" class="edge">
<title>impact_functions:w&#45;&gt;hazard_metrics:e</title>
<path fill="none" stroke="black" d="M382.47,-411.49C356.19,-405.68 347.78,-385 314.5,-385"/>
<polygon fill="black" stroke="black" points="389.04,-412.18 396.63,-416.58 393.02,-412.59 397,-413 397,-413 397,-413 393.02,-412.59 397.37,-409.42 389.04,-412.18 389.04,-412.18"/>
<ellipse fill="none" stroke="black" cx="385.86" cy="-411.85" rx="3.2" ry="3.2"/>
</g>
<!-- asset_types_metadata -->
<g id="node8" class="node">
<title>asset_types_metadata</title>
<g id="a_node8"><a xlink:href="../../tables/asset_types_metadata.html" xlink:title="asset_types_metadata" target="_top">
<polygon fill="#ffffff" stroke="transparent" points="386,-186 386,-244 548,-244 548,-186 386,-186"/>
<polygon fill="#f5f5f5" stroke="transparent" points="386,-222 386,-244 548,-244 548,-222 386,-222"/>
<polygon fill="none" stroke="black" points="386,-222 386,-244 548,-244 548,-222 386,-222"/>
<text text-anchor="start" x="391" y="-231.2" font-family="Helvetica,sans-Serif" font-weight="bold" font-size="11.00">asset_types_metadata</text>
<text text-anchor="start" x="513" y="-230.2" font-family="Helvetica,sans-Serif" font-size="11.00">[table]</text>
<polygon fill="none" stroke="black" points="386,-204 386,-222 548,-222 548,-204 386,-204"/>
<text text-anchor="start" x="389" y="-210.2" font-family="Helvetica,sans-Serif" font-size="11.00">...</text>
<polygon fill="#ffffff" stroke="transparent" points="386,-186 386,-204 441,-204 441,-186 386,-186"/>
<polygon fill="none" stroke="black" points="386,-186 386,-204 441,-204 441,-186 386,-186"/>
<text text-anchor="start" x="389" y="-192.2" font-family="Helvetica,sans-Serif" font-size="11.00">&lt; 2</text>
<polygon fill="#ffffff" stroke="transparent" points="441,-186 441,-204 518,-204 518,-186 441,-186"/>
<polygon fill="none" stroke="black" points="441,-186 441,-204 518,-204 518,-186 441,-186"/>
<text text-anchor="start" x="460" y="-192.2" font-family="Helvetica,sans-Serif" font-size="11.00">4,002 rows</text>
<polygon fill="#ffffff" stroke="transparent" points="518,-186 518,-204 548,-204 548,-186 518,-186"/>
<polygon fill="none" stroke="black" points="518,-186 518,-204 548,-204 548,-186 518,-186"/>
<text text-anchor="start" x="538" y="-192.2" font-family="Helvetica,sans-Serif" font-size="11.00"> &#160;</text>
</a>
</g>
</g>
<!-- asset_types_metadata&#45;&gt;asset_types -->
<g id="edge7" class="edge">
<title>asset_types_metadata:w&#45;&gt;asset_types:e</title>
<path fill="none" stroke="black" d="M370.62,-214.94C344.94,-222.41 338.83,-249 305.5,-249"/>
<polygon fill="black" stroke="black" points="377.07,-214.07 385.48,-216.57 381.04,-213.53 385,-213 385,-213 385,-213 381.04,-213.53 384.52,-209.43 377.07,-214.07 377.07,-214.07"/>
<ellipse fill="none" stroke="black" cx="373.9" cy="-214.49" rx="3.2" ry="3.2"/>
</g>
<!-- assets -->
<g id="node9" class="node">
<title>assets</title>
<g id="a_node9"><a xlink:href="../../tables/assets.html" xlink:title="assets" target="_top">
<polygon fill="#ffffff" stroke="transparent" points="411.5,-265 411.5,-323 522.5,-323 522.5,-265 411.5,-265"/>
<polygon fill="#f5f5f5" stroke="transparent" points="412,-301 412,-323 523,-323 523,-301 412,-301"/>
<polygon fill="none" stroke="black" points="412,-301 412,-323 523,-323 523,-301 412,-301"/>
<text text-anchor="start" x="417" y="-310.2" font-family="Helvetica,sans-Serif" font-weight="bold" font-size="11.00">assets</text>
<text text-anchor="start" x="488" y="-309.2" font-family="Helvetica,sans-Serif" font-size="11.00">[table]</text>
<polygon fill="none" stroke="black" points="412,-283 412,-301 523,-301 523,-283 412,-283"/>
<text text-anchor="start" x="415" y="-289.2" font-family="Helvetica,sans-Serif" font-size="11.00">...</text>
<polygon fill="#ffffff" stroke="transparent" points="412,-265 412,-283 434,-283 434,-265 412,-265"/>
<polygon fill="none" stroke="black" points="412,-265 412,-283 434,-283 434,-265 412,-265"/>
<text text-anchor="start" x="415" y="-271.2" font-family="Helvetica,sans-Serif" font-size="11.00">&lt; 3</text>
<polygon fill="#ffffff" stroke="transparent" points="434,-265 434,-283 501,-283 501,-265 434,-265"/>
<polygon fill="none" stroke="black" points="434,-265 434,-283 501,-283 501,-265 434,-265"/>
<text text-anchor="start" x="437" y="-271.2" font-family="Helvetica,sans-Serif" font-size="11.00">78,452 rows</text>
<polygon fill="#ffffff" stroke="transparent" points="501,-265 501,-283 523,-283 523,-265 501,-265"/>
<polygon fill="none" stroke="black" points="501,-265 501,-283 523,-283 523,-265 501,-265"/>
<text text-anchor="start" x="504" y="-271.2" font-family="Helvetica,sans-Serif" font-size="11.00">4 &gt;</text>
</a>
</g>
</g>
<!-- assets&#45;&gt;asset_types -->
<g id="edge8" class="edge">
<title>assets:w&#45;&gt;asset_types:e</title>
<path fill="none" stroke="black" d="M396.42,-290.67C358.96,-283.41 350.79,-249 305.5,-249"/>
<polygon fill="black" stroke="black" points="403.03,-291.27 410.67,-295.59 407.02,-291.64 411,-292 411,-292 411,-292 407.02,-291.64 411.33,-288.41 403.03,-291.27 403.03,-291.27"/>
<ellipse fill="none" stroke="black" cx="399.85" cy="-290.98" rx="3.2" ry="3.2"/>
</g>
<!-- assets_impact_functions -->
<g id="node10" class="node">
<title>assets_impact_functions</title>
<g id="a_node10"><a xlink:href="../../tables/assets_impact_functions.html" xlink:title="assets_impact_functions" target="_top">
<polygon fill="#ffffff" stroke="transparent" points="651.5,-430 651.5,-488 826.5,-488 826.5,-430 651.5,-430"/>
<polygon fill="#f5f5f5" stroke="transparent" points="652,-466 652,-488 827,-488 827,-466 652,-466"/>
<polygon fill="none" stroke="black" points="652,-466 652,-488 827,-488 827,-466 652,-466"/>
<text text-anchor="start" x="657" y="-475.2" font-family="Helvetica,sans-Serif" font-weight="bold" font-size="11.00">assets_impact_functions</text>
<text text-anchor="start" x="792" y="-474.2" font-family="Helvetica,sans-Serif" font-size="11.00">[table]</text>
<polygon fill="none" stroke="black" points="652,-448 652,-466 827,-466 827,-448 652,-448"/>
<text text-anchor="start" x="655" y="-454.2" font-family="Helvetica,sans-Serif" font-size="11.00">...</text>
<polygon fill="#ffffff" stroke="transparent" points="652,-430 652,-448 707,-448 707,-430 652,-430"/>
<polygon fill="none" stroke="black" points="652,-430 652,-448 707,-448 707,-430 652,-430"/>
<text text-anchor="start" x="655" y="-436.2" font-family="Helvetica,sans-Serif" font-size="11.00">&lt; 3</text>
<polygon fill="#ffffff" stroke="transparent" points="707,-430 707,-448 797,-448 797,-430 707,-430"/>
<polygon fill="none" stroke="black" points="707,-430 707,-448 797,-448 797,-430 707,-430"/>
<text text-anchor="start" x="727" y="-436.2" font-family="Helvetica,sans-Serif" font-size="11.00">654,369 rows</text>
<polygon fill="#ffffff" stroke="transparent" points="797,-430 797,-448 827,-448 827,-430 797,-430"/>
<polygon fill="none" stroke="black" points="797,-430 797,-448 827,-448 827,-430 797,-430"/>
<text text-anchor="start" x="817" y="-436.2" font-family="Helvetica,sans-Serif" font-size="11.00"> &#160;</text>
</a>
</g>
</g>
<!-- assets_impact_functions&#45;&gt;risk_factors -->
<g id="edge11" class="edge">
<title>assets_impact_functions:w&#45;&gt;risk_factors:e</title>
<path fill="none" stroke="black" d="M636.47,-458.58C586.14,-470.74 611.69,-549.81 556,-582 474.15,-629.31 439.35,-602.99 345,-609 261.17,-614.34 222.75,-660 156,-609 102.93,-568.45 183.29,-464 116.5,-464"/>
<polygon fill="black" stroke="black" points="643.05,-457.87 651.39,-460.58 647.02,-457.43 651,-457 651,-457 651,-457 647.02,-457.43 650.61,-453.42 643.05,-457.87 643.05,-457.87"/>
<ellipse fill="none" stroke="black" cx="639.87" cy="-458.21" rx="3.2" ry="3.2"/>
</g>
<!-- assets_impact_functions&#45;&gt;impact_functions -->
<g id="edge10" class="edge">
<title>assets_impact_functions:w&#45;&gt;impact_functions:e</title>
<path fill="none" stroke="black" d="M636.53,-457C597.77,-457 583.02,-457 538,-457"/>
<polygon fill="black" stroke="black" points="643,-457 651,-460.6 647,-457 651,-457 651,-457 651,-457 647,-457 651,-453.4 643,-457 643,-457"/>
<ellipse fill="none" stroke="black" cx="639.8" cy="-457" rx="3.2" ry="3.2"/>
</g>
<!-- assets_impact_functions&#45;&gt;assets -->
<g id="edge9" class="edge">
<title>assets_impact_functions:w&#45;&gt;assets:e</title>
<path fill="none" stroke="black" d="M636.67,-455.47C564.56,-438.84 611.3,-292 524,-292"/>
<polygon fill="black" stroke="black" points="643.05,-456.15 650.62,-460.58 647.02,-456.58 651,-457 651,-457 651,-457 647.02,-456.58 651.38,-453.42 643.05,-456.15 643.05,-456.15"/>
<ellipse fill="none" stroke="black" cx="639.86" cy="-455.81" rx="3.2" ry="3.2"/>
</g>
<!-- rf_category_risk_factors -->
<g id="node11" class="node">
<title>rf_category_risk_factors</title>
<g id="a_node11"><a xlink:href="../../tables/rf_category_risk_factors.html" xlink:title="rf_category_risk_factors" target="_top">
<polygon fill="#ffffff" stroke="transparent" points="164,-516 164,-574 337,-574 337,-516 164,-516"/>
<polygon fill="#f5f5f5" stroke="transparent" points="164.5,-552 164.5,-574 337.5,-574 337.5,-552 164.5,-552"/>
<polygon fill="none" stroke="black" points="164.5,-552 164.5,-574 337.5,-574 337.5,-552 164.5,-552"/>
<text text-anchor="start" x="169.5" y="-561.2" font-family="Helvetica,sans-Serif" font-weight="bold" font-size="11.00">rf_category_risk_factors</text>
<text text-anchor="start" x="302.5" y="-560.2" font-family="Helvetica,sans-Serif" font-size="11.00">[table]</text>
<polygon fill="none" stroke="black" points="164.5,-534 164.5,-552 337.5,-552 337.5,-534 164.5,-534"/>
<text text-anchor="start" x="167.5" y="-540.2" font-family="Helvetica,sans-Serif" font-size="11.00">...</text>
<polygon fill="#ffffff" stroke="transparent" points="164.5,-516 164.5,-534 232.5,-534 232.5,-516 164.5,-516"/>
<polygon fill="none" stroke="black" points="164.5,-516 164.5,-534 232.5,-534 232.5,-516 164.5,-516"/>
<text text-anchor="start" x="167.5" y="-522.2" font-family="Helvetica,sans-Serif" font-size="11.00">&lt; 2</text>
<polygon fill="#ffffff" stroke="transparent" points="232.5,-516 232.5,-534 301.5,-534 301.5,-516 232.5,-516"/>
<polygon fill="none" stroke="black" points="232.5,-516 232.5,-534 301.5,-534 301.5,-516 232.5,-516"/>
<text text-anchor="start" x="258.5" y="-522.2" font-family="Helvetica,sans-Serif" font-size="11.00">17 rows</text>
<polygon fill="#ffffff" stroke="transparent" points="301.5,-516 301.5,-534 337.5,-534 337.5,-516 301.5,-516"/>
<polygon fill="none" stroke="black" points="301.5,-516 301.5,-534 337.5,-534 337.5,-516 301.5,-516"/>
<text text-anchor="start" x="327.5" y="-522.2" font-family="Helvetica,sans-Serif" font-size="11.00"> &#160;</text>
</a>
</g>
</g>
<!-- rf_category_risk_factors&#45;&gt;risk_factors -->
<g id="edge15" class="edge">
<title>rf_category_risk_factors:w&#45;&gt;risk_factors:e</title>
<path fill="none" stroke="black" d="M149.81,-538.29C131.28,-521.29 151.29,-464 116.5,-464"/>
<polygon fill="black" stroke="black" points="155.93,-540.4 162.33,-546.4 159.72,-541.7 163.5,-543 163.5,-543 163.5,-543 159.72,-541.7 164.67,-539.6 155.93,-540.4 155.93,-540.4"/>
<ellipse fill="none" stroke="black" cx="152.91" cy="-539.36" rx="3.2" ry="3.2"/>
</g>
</g>
</svg>
