<?xml version="1.0" encoding="UTF-8" standalone="no"?>
<!DOCTYPE svg PUBLIC "-//W3C//DTD SVG 1.1//EN"
 "http://www.w3.org/Graphics/SVG/1.1/DTD/svg11.dtd">
<!-- Generated by graphviz version 2.50.0 (20211204.2007)
 -->
<!-- Title: oneDegreeRelationshipsDiagram Pages: 1 -->
<svg width="621pt" height="442pt"
 viewBox="0.00 0.00 621.00 442.00" xmlns="http://www.w3.org/2000/svg" xmlns:xlink="http://www.w3.org/1999/xlink">
<g id="graph0" class="graph" transform="scale(1 1) rotate(0) translate(4 438)">
<title>oneDegreeRelationshipsDiagram</title>
<polygon fill="#ffffff" stroke="transparent" points="-4,4 -4,-438 617,-438 617,4 -4,4"/>
<text text-anchor="middle" x="72.5" y="-7.2" font-family="Helvetica,sans-Serif" font-size="11.00">Generated by SchemaSpy</text>
<!-- assets_impact_functions -->
<g id="node1" class="node">
<title>assets_impact_functions</title>
<g id="a_node1"><a xlink:href="../../tables/assets_impact_functions.html" xlink:title="assets_impact_functions" target="_top">
<polygon fill="#ffffff" stroke="transparent" points="352,-111 352,-287 605,-287 605,-111 352,-111"/>
<polygon fill="#f5f5f5" stroke="transparent" points="354.5,-263 354.5,-285 603.5,-285 603.5,-263 354.5,-263"/>
<polygon fill="none" stroke="black" points="354.5,-263 354.5,-285 603.5,-285 603.5,-263 354.5,-263"/>
<text text-anchor="start" x="359.5" y="-272.2" font-family="Helvetica,sans-Serif" font-weight="bold" font-size="11.00">assets_impact_functions</text>
<text text-anchor="start" x="568.5" y="-271.2" font-family="Helvetica,sans-Serif" font-size="11.00">[table]</text>
<polygon fill="none" stroke="black" points="354.5,-241 354.5,-263 518.5,-263 518.5,-241 354.5,-241"/>
<image xlink:href="../../images/primaryKeys.png" width="11px" height="12px" preserveAspectRatio="xMinYMin meet" x="359.5" y="-258"/>
<text text-anchor="start" x="374.5" y="-249.2" font-family="Helvetica,sans-Serif" font-size="11.00">id</text>
<polygon fill="none" stroke="black" points="518.5,-241 518.5,-263 603.5,-263 603.5,-241 518.5,-241"/>
<text text-anchor="start" x="521.5" y="-249.2" font-family="Helvetica,sans-Serif" font-size="11.00">serial[10]</text>
<polygon fill="#ffffff" stroke="transparent" points="354.5,-219 354.5,-241 518.5,-241 518.5,-219 354.5,-219"/>
<polygon fill="none" stroke="black" points="354.5,-219 354.5,-241 518.5,-241 518.5,-219 354.5,-219"/>
<image xlink:href="../../images/foreignKeys.png" width="11px" height="12px" preserveAspectRatio="xMinYMin meet" x="359.5" y="-236"/>
<text text-anchor="start" x="374.5" y="-227.2" font-family="Helvetica,sans-Serif" font-size="11.00">asset_id</text>
<polygon fill="none" stroke="black" points="518.5,-219 518.5,-241 603.5,-241 603.5,-219 518.5,-219"/>
<text text-anchor="start" x="521.5" y="-227.2" font-family="Helvetica,sans-Serif" font-size="11.00">int4[10]</text>
<polygon fill="none" stroke="black" points="354.5,-197 354.5,-219 518.5,-219 518.5,-197 354.5,-197"/>
<image xlink:href="../../images/foreignKeys.png" width="11px" height="12px" preserveAspectRatio="xMinYMin meet" x="359.5" y="-214"/>
<text text-anchor="start" x="374.5" y="-205.2" font-family="Helvetica,sans-Serif" font-size="11.00">impact_function_id</text>
<polygon fill="none" stroke="black" points="518.5,-197 518.5,-219 603.5,-219 603.5,-197 518.5,-197"/>
<text text-anchor="start" x="521.5" y="-205.2" font-family="Helvetica,sans-Serif" font-size="11.00">int4[10]</text>
<polygon fill="#ffffff" stroke="transparent" points="354.5,-175 354.5,-197 518.5,-197 518.5,-175 354.5,-175"/>
<polygon fill="none" stroke="black" points="354.5,-175 354.5,-197 518.5,-197 518.5,-175 354.5,-175"/>
<image xlink:href="../../images/foreignKeys.png" width="11px" height="12px" preserveAspectRatio="xMinYMin meet" x="359.5" y="-192"/>
<text text-anchor="start" x="374.5" y="-183.2" font-family="Helvetica,sans-Serif" font-size="11.00">risk_factor_id</text>
<polygon fill="none" stroke="black" points="518.5,-175 518.5,-197 603.5,-197 603.5,-175 518.5,-175"/>
<text text-anchor="start" x="521.5" y="-183.2" font-family="Helvetica,sans-Serif" font-size="11.00">int4[10]</text>
<polygon fill="none" stroke="black" points="354.5,-153 354.5,-175 518.5,-175 518.5,-153 354.5,-153"/>
<text text-anchor="start" x="374.5" y="-161.2" font-family="Helvetica,sans-Serif" font-size="11.00">created_at</text>
<polygon fill="none" stroke="black" points="518.5,-153 518.5,-175 603.5,-175 603.5,-153 518.5,-153"/>
<text text-anchor="start" x="521.5" y="-161.2" font-family="Helvetica,sans-Serif" font-size="11.00">timestamp[29,6]</text>
<polygon fill="none" stroke="black" points="354.5,-131 354.5,-153 518.5,-153 518.5,-131 354.5,-131"/>
<text text-anchor="start" x="374.5" y="-139.2" font-family="Helvetica,sans-Serif" font-size="11.00">updated_at</text>
<polygon fill="none" stroke="black" points="518.5,-131 518.5,-153 603.5,-153 603.5,-131 518.5,-131"/>
<text text-anchor="start" x="521.5" y="-139.2" font-family="Helvetica,sans-Serif" font-size="11.00">timestamp[29,6]</text>
<polygon fill="#ffffff" stroke="transparent" points="354.5,-113 354.5,-131 410.5,-131 410.5,-113 354.5,-113"/>
<polygon fill="none" stroke="black" points="354.5,-113 354.5,-131 410.5,-131 410.5,-113 354.5,-113"/>
<text text-anchor="start" x="357.5" y="-119.2" font-family="Helvetica,sans-Serif" font-size="11.00">&lt; 3</text>
<polygon fill="#ffffff" stroke="transparent" points="410.5,-113 410.5,-131 518.5,-131 518.5,-113 410.5,-113"/>
<polygon fill="none" stroke="black" points="410.5,-113 410.5,-131 518.5,-131 518.5,-113 410.5,-113"/>
<text text-anchor="start" x="448.5" y="-119.2" font-family="Helvetica,sans-Serif" font-size="11.00">654,369 rows</text>
<polygon fill="#ffffff" stroke="transparent" points="518.5,-113 518.5,-131 603.5,-131 603.5,-113 518.5,-113"/>
<polygon fill="none" stroke="black" points="518.5,-113 518.5,-131 603.5,-131 603.5,-113 518.5,-113"/>
<text text-anchor="start" x="584.5" y="-119.2" font-family="Helvetica,sans-Serif" font-size="11.00">0 &gt;</text>
<polygon fill="none" stroke="black" stroke-width="2" points="353,-112 353,-286 604,-286 604,-112 353,-112"/>
</a>
</g>
</g>
<!-- assets -->
<g id="node2" class="node">
<title>assets</title>
<g id="a_node2"><a xlink:href="../../tables/assets.html" xlink:title="assets" target="_top">
<polygon fill="#ffffff" stroke="transparent" points="171,-262 171,-430 296,-430 296,-262 171,-262"/>
<polygon fill="#f5f5f5" stroke="transparent" points="171.5,-408 171.5,-430 296.5,-430 296.5,-408 171.5,-408"/>
<polygon fill="none" stroke="black" points="171.5,-408 171.5,-430 296.5,-430 296.5,-408 171.5,-408"/>
<text text-anchor="start" x="176.5" y="-417.2" font-family="Helvetica,sans-Serif" font-weight="bold" font-size="11.00">assets</text>
<text text-anchor="start" x="261.5" y="-416.2" font-family="Helvetica,sans-Serif" font-size="11.00">[table]</text>
<polygon fill="none" stroke="black" points="171.5,-386 171.5,-408 296.5,-408 296.5,-386 171.5,-386"/>
<image xlink:href="../../images/primaryKeys.png" width="11px" height="12px" preserveAspectRatio="xMinYMin meet" x="176.5" y="-403"/>
<text text-anchor="start" x="191.5" y="-394.2" font-family="Helvetica,sans-Serif" font-size="11.00">id</text>
<polygon fill="none" stroke="black" points="171.5,-364 171.5,-386 296.5,-386 296.5,-364 171.5,-364"/>
<image xlink:href="../../images/foreignKeys.png" width="11px" height="12px" preserveAspectRatio="xMinYMin meet" x="176.5" y="-381"/>
<text text-anchor="start" x="191.5" y="-372.2" font-family="Helvetica,sans-Serif" font-size="11.00">investment_id</text>
<polygon fill="none" stroke="black" points="171.5,-342 171.5,-364 296.5,-364 296.5,-342 171.5,-342"/>
<image xlink:href="../../images/foreignKeys.png" width="11px" height="12px" preserveAspectRatio="xMinYMin meet" x="176.5" y="-359"/>
<text text-anchor="start" x="191.5" y="-350.2" font-family="Helvetica,sans-Serif" font-size="11.00">asset_type_id</text>
<polygon fill="#ffffff" stroke="transparent" points="171.5,-320 171.5,-342 296.5,-342 296.5,-320 171.5,-320"/>
<polygon fill="none" stroke="black" points="171.5,-320 171.5,-342 296.5,-342 296.5,-320 171.5,-320"/>
<text text-anchor="start" x="191.5" y="-328.2" font-family="Helvetica,sans-Serif" font-size="11.00">is_active</text>
<polygon fill="#ffffff" stroke="transparent" points="171.5,-298 171.5,-320 296.5,-320 296.5,-298 171.5,-298"/>
<polygon fill="none" stroke="black" points="171.5,-298 171.5,-320 296.5,-320 296.5,-298 171.5,-298"/>
<image xlink:href="../../images/foreignKeys.png" width="11px" height="12px" preserveAspectRatio="xMinYMin meet" x="176.5" y="-315"/>
<text text-anchor="start" x="191.5" y="-306.2" font-family="Helvetica,sans-Serif" font-size="11.00">ref_id</text>
<polygon fill="none" stroke="black" points="171.5,-280 171.5,-298 296.5,-298 296.5,-280 171.5,-280"/>
<text text-anchor="start" x="174.5" y="-286.2" font-family="Helvetica,sans-Serif" font-size="11.00">...</text>
<polygon fill="#ffffff" stroke="transparent" points="171.5,-262 171.5,-280 200.5,-280 200.5,-262 171.5,-262"/>
<polygon fill="none" stroke="black" points="171.5,-262 171.5,-280 200.5,-280 200.5,-262 171.5,-262"/>
<text text-anchor="start" x="174.5" y="-268.2" font-family="Helvetica,sans-Serif" font-size="11.00">&lt; 3</text>
<polygon fill="#ffffff" stroke="transparent" points="200.5,-262 200.5,-280 270.5,-280 270.5,-262 200.5,-262"/>
<polygon fill="none" stroke="black" points="200.5,-262 200.5,-280 270.5,-280 270.5,-262 200.5,-262"/>
<text text-anchor="start" x="206.5" y="-268.2" font-family="Helvetica,sans-Serif" font-size="11.00">78,452 rows</text>
<polygon fill="#ffffff" stroke="transparent" points="270.5,-262 270.5,-280 296.5,-280 296.5,-262 270.5,-262"/>
<polygon fill="none" stroke="black" points="270.5,-262 270.5,-280 296.5,-280 296.5,-262 270.5,-262"/>
<text text-anchor="start" x="277.5" y="-268.2" font-family="Helvetica,sans-Serif" font-size="11.00">4 &gt;</text>
</a>
</g>
</g>
<!-- assets_impact_functions&#45;&gt;assets -->
<g id="edge1" class="edge">
<title>assets_impact_functions:w&#45;&gt;assets:e</title>
<path fill="none" stroke="black" d="M339.2,-232.49C288.82,-253.26 370.13,-397 297.5,-397"/>
<polygon fill="black" stroke="black" points="345.62,-231.37 354.12,-233.55 349.56,-230.69 353.5,-230 353.5,-230 353.5,-230 349.56,-230.69 352.88,-226.45 345.62,-231.37 345.62,-231.37"/>
<ellipse fill="none" stroke="black" cx="342.47" cy="-231.92" rx="3.2" ry="3.2"/>
</g>
<!-- impact_functions -->
<g id="node3" class="node">
<title>impact_functions</title>
<g id="a_node3"><a xlink:href="../../tables/impact_functions.html" xlink:title="impact_functions" target="_top">
<polygon fill="#ffffff" stroke="transparent" points="164,-95 164,-241 303,-241 303,-95 164,-95"/>
<polygon fill="#f5f5f5" stroke="transparent" points="164.5,-219 164.5,-241 303.5,-241 303.5,-219 164.5,-219"/>
<polygon fill="none" stroke="black" points="164.5,-219 164.5,-241 303.5,-241 303.5,-219 164.5,-219"/>
<text text-anchor="start" x="169.5" y="-228.2" font-family="Helvetica,sans-Serif" font-weight="bold" font-size="11.00">impact_functions</text>
<text text-anchor="start" x="268.5" y="-227.2" font-family="Helvetica,sans-Serif" font-size="11.00">[table]</text>
<polygon fill="none" stroke="black" points="164.5,-197 164.5,-219 303.5,-219 303.5,-197 164.5,-197"/>
<image xlink:href="../../images/primaryKeys.png" width="11px" height="12px" preserveAspectRatio="xMinYMin meet" x="169.5" y="-214"/>
<text text-anchor="start" x="184.5" y="-205.2" font-family="Helvetica,sans-Serif" font-size="11.00">id</text>
<polygon fill="#ffffff" stroke="transparent" points="164.5,-175 164.5,-197 303.5,-197 303.5,-175 164.5,-175"/>
<polygon fill="none" stroke="black" points="164.5,-175 164.5,-197 303.5,-197 303.5,-175 164.5,-175"/>
<text text-anchor="start" x="184.5" y="-183.2" font-family="Helvetica,sans-Serif" font-size="11.00">name</text>
<polygon fill="none" stroke="black" points="164.5,-153 164.5,-175 303.5,-175 303.5,-153 164.5,-153"/>
<image xlink:href="../../images/foreignKeys.png" width="11px" height="12px" preserveAspectRatio="xMinYMin meet" x="169.5" y="-170"/>
<text text-anchor="start" x="184.5" y="-161.2" font-family="Helvetica,sans-Serif" font-size="11.00">hazard_metric_id</text>
<polygon fill="none" stroke="black" points="164.5,-131 164.5,-153 303.5,-153 303.5,-131 164.5,-131"/>
<image xlink:href="../../images/foreignKeys.png" width="11px" height="12px" preserveAspectRatio="xMinYMin meet" x="169.5" y="-148"/>
<text text-anchor="start" x="184.5" y="-139.2" font-family="Helvetica,sans-Serif" font-size="11.00">risk_factor_id</text>
<polygon fill="none" stroke="black" points="164.5,-113 164.5,-131 303.5,-131 303.5,-113 164.5,-113"/>
<text text-anchor="start" x="167.5" y="-119.2" font-family="Helvetica,sans-Serif" font-size="11.00">...</text>
<polygon fill="#ffffff" stroke="transparent" points="164.5,-95 164.5,-113 203.5,-113 203.5,-95 164.5,-95"/>
<polygon fill="none" stroke="black" points="164.5,-95 164.5,-113 203.5,-113 203.5,-95 164.5,-95"/>
<text text-anchor="start" x="167.5" y="-101.2" font-family="Helvetica,sans-Serif" font-size="11.00">&lt; 2</text>
<polygon fill="#ffffff" stroke="transparent" points="203.5,-95 203.5,-113 272.5,-113 272.5,-95 203.5,-95"/>
<polygon fill="none" stroke="black" points="203.5,-95 203.5,-113 272.5,-113 272.5,-95 203.5,-95"/>
<text text-anchor="start" x="214.5" y="-101.2" font-family="Helvetica,sans-Serif" font-size="11.00">3,261 rows</text>
<polygon fill="#ffffff" stroke="transparent" points="272.5,-95 272.5,-113 303.5,-113 303.5,-95 272.5,-95"/>
<polygon fill="none" stroke="black" points="272.5,-95 272.5,-113 303.5,-113 303.5,-95 272.5,-95"/>
<text text-anchor="start" x="284.5" y="-101.2" font-family="Helvetica,sans-Serif" font-size="11.00">2 &gt;</text>
</a>
</g>
</g>
<!-- assets_impact_functions&#45;&gt;impact_functions -->
<g id="edge2" class="edge">
<title>assets_impact_functions:w&#45;&gt;impact_functions:e</title>
<path fill="none" stroke="black" d="M338.99,-208C327.68,-208 320.49,-208 304.5,-208"/>
<polygon fill="black" stroke="black" points="345.5,-208 353.5,-211.6 349.5,-208 353.5,-208 353.5,-208 353.5,-208 349.5,-208 353.5,-204.4 345.5,-208 345.5,-208"/>
<ellipse fill="none" stroke="black" cx="342.3" cy="-208" rx="3.2" ry="3.2"/>
</g>
<!-- risk_factors -->
<g id="node4" class="node">
<title>risk_factors</title>
<g id="a_node4"><a xlink:href="../../tables/risk_factors.html" xlink:title="risk_factors" target="_top">
<polygon fill="#ffffff" stroke="transparent" points="8,-37 8,-139 115,-139 115,-37 8,-37"/>
<polygon fill="#f5f5f5" stroke="transparent" points="8.5,-117 8.5,-139 115.5,-139 115.5,-117 8.5,-117"/>
<polygon fill="none" stroke="black" points="8.5,-117 8.5,-139 115.5,-139 115.5,-117 8.5,-117"/>
<text text-anchor="start" x="13.5" y="-126.2" font-family="Helvetica,sans-Serif" font-weight="bold" font-size="11.00">risk_factors</text>
<text text-anchor="start" x="80.5" y="-125.2" font-family="Helvetica,sans-Serif" font-size="11.00">[table]</text>
<polygon fill="none" stroke="black" points="8.5,-95 8.5,-117 115.5,-117 115.5,-95 8.5,-95"/>
<image xlink:href="../../images/primaryKeys.png" width="11px" height="12px" preserveAspectRatio="xMinYMin meet" x="13.5" y="-112"/>
<text text-anchor="start" x="37.5" y="-103.2" font-family="Helvetica,sans-Serif" font-size="11.00">id</text>
<polygon fill="#ffffff" stroke="transparent" points="8.5,-73 8.5,-95 115.5,-95 115.5,-73 8.5,-73"/>
<polygon fill="none" stroke="black" points="8.5,-73 8.5,-95 115.5,-95 115.5,-73 8.5,-73"/>
<text text-anchor="start" x="37.5" y="-81.2" font-family="Helvetica,sans-Serif" font-size="11.00">name</text>
<polygon fill="none" stroke="black" points="8.5,-55 8.5,-73 115.5,-73 115.5,-55 8.5,-55"/>
<text text-anchor="start" x="11.5" y="-61.2" font-family="Helvetica,sans-Serif" font-size="11.00">...</text>
<polygon fill="#ffffff" stroke="transparent" points="8.5,-37 8.5,-55 34.5,-55 34.5,-37 8.5,-37"/>
<polygon fill="none" stroke="black" points="8.5,-37 8.5,-55 34.5,-55 34.5,-37 8.5,-37"/>
<text text-anchor="start" x="11.5" y="-43.2" font-family="Helvetica,sans-Serif" font-size="11.00"> &#160;</text>
<polygon fill="#ffffff" stroke="transparent" points="34.5,-37 34.5,-55 86.5,-55 86.5,-37 34.5,-37"/>
<polygon fill="none" stroke="black" points="34.5,-37 34.5,-55 86.5,-55 86.5,-37 34.5,-37"/>
<text text-anchor="start" x="43.5" y="-43.2" font-family="Helvetica,sans-Serif" font-size="11.00">17 rows</text>
<polygon fill="#ffffff" stroke="transparent" points="86.5,-37 86.5,-55 115.5,-55 115.5,-37 86.5,-37"/>
<polygon fill="none" stroke="black" points="86.5,-37 86.5,-55 115.5,-55 115.5,-37 86.5,-37"/>
<text text-anchor="start" x="96.5" y="-43.2" font-family="Helvetica,sans-Serif" font-size="11.00">7 &gt;</text>
</a>
</g>
</g>
<!-- assets_impact_functions&#45;&gt;risk_factors -->
<g id="edge3" class="edge">
<title>assets_impact_functions:w&#45;&gt;risk_factors:e</title>
<path fill="none" stroke="black" d="M339.36,-182.77C315.13,-168.22 346.5,-108.58 311,-85 253.61,-46.89 222.84,-68.34 156,-85 136.71,-89.81 136.38,-106 116.5,-106"/>
<polygon fill="black" stroke="black" points="345.7,-184.22 352.7,-189.51 349.6,-185.11 353.5,-186 353.5,-186 353.5,-186 349.6,-185.11 354.3,-182.49 345.7,-184.22 345.7,-184.22"/>
<ellipse fill="none" stroke="black" cx="342.58" cy="-183.5" rx="3.2" ry="3.2"/>
</g>
<!-- impact_functions&#45;&gt;risk_factors -->
<g id="edge4" class="edge">
<title>impact_functions:w&#45;&gt;risk_factors:e</title>
<path fill="none" stroke="black" d="M149.79,-137.29C138.1,-127.54 136.85,-106 116.5,-106"/>
<polygon fill="black" stroke="black" points="155.93,-139.4 162.33,-145.4 159.72,-140.7 163.5,-142 163.5,-142 163.5,-142 159.72,-140.7 164.67,-138.6 155.93,-139.4 155.93,-139.4"/>
<ellipse fill="none" stroke="black" cx="152.91" cy="-138.36" rx="3.2" ry="3.2"/>
</g>
</g>
</svg>
