<?xml version="1.0" encoding="UTF-8" standalone="no"?>
<!DOCTYPE svg PUBLIC "-//W3C//DTD SVG 1.1//EN"
 "http://www.w3.org/Graphics/SVG/1.1/DTD/svg11.dtd">
<!-- Generated by graphviz version 2.50.0 (20211204.2007)
 -->
<!-- Title: twoDegreesRelationshipsDiagram Pages: 1 -->
<svg width="589pt" height="519pt"
 viewBox="0.00 0.00 589.00 519.00" xmlns="http://www.w3.org/2000/svg" xmlns:xlink="http://www.w3.org/1999/xlink">
<g id="graph0" class="graph" transform="scale(1 1) rotate(0) translate(4 515)">
<title>twoDegreesRelationshipsDiagram</title>
<polygon fill="#ffffff" stroke="transparent" points="-4,4 -4,-515 585,-515 585,4 -4,4"/>
<text text-anchor="middle" x="72.5" y="-7.2" font-family="Helvetica,sans-Serif" font-size="11.00">Generated by SchemaSpy</text>
<!-- asset_values -->
<g id="node1" class="node">
<title>asset_values</title>
<g id="a_node1"><a xlink:href="../../tables/asset_values.html" xlink:title="asset_values" target="_top">
<polygon fill="#ffffff" stroke="transparent" points="366,-116 366,-270 573,-270 573,-116 366,-116"/>
<polygon fill="#f5f5f5" stroke="transparent" points="368.5,-246 368.5,-268 571.5,-268 571.5,-246 368.5,-246"/>
<polygon fill="none" stroke="black" points="368.5,-246 368.5,-268 571.5,-268 571.5,-246 368.5,-246"/>
<text text-anchor="start" x="373.5" y="-255.2" font-family="Helvetica,sans-Serif" font-weight="bold" font-size="11.00">asset_values</text>
<text text-anchor="start" x="536.5" y="-254.2" font-family="Helvetica,sans-Serif" font-size="11.00">[table]</text>
<polygon fill="none" stroke="black" points="368.5,-224 368.5,-246 505.5,-246 505.5,-224 368.5,-224"/>
<image xlink:href="../../images/primaryKeys.png" width="11px" height="12px" preserveAspectRatio="xMinYMin meet" x="373.5" y="-241"/>
<text text-anchor="start" x="388.5" y="-232.2" font-family="Helvetica,sans-Serif" font-size="11.00">id</text>
<polygon fill="none" stroke="black" points="505.5,-224 505.5,-246 571.5,-246 571.5,-224 505.5,-224"/>
<text text-anchor="start" x="508.5" y="-232.2" font-family="Helvetica,sans-Serif" font-size="11.00">serial[10]</text>
<polygon fill="#ffffff" stroke="transparent" points="368.5,-202 368.5,-224 505.5,-224 505.5,-202 368.5,-202"/>
<polygon fill="none" stroke="black" points="368.5,-202 368.5,-224 505.5,-224 505.5,-202 368.5,-202"/>
<image xlink:href="../../images/foreignKeys.png" width="11px" height="12px" preserveAspectRatio="xMinYMin meet" x="373.5" y="-219"/>
<text text-anchor="start" x="388.5" y="-210.2" font-family="Helvetica,sans-Serif" font-size="11.00">asset_id</text>
<polygon fill="none" stroke="black" points="505.5,-202 505.5,-224 571.5,-224 571.5,-202 505.5,-202"/>
<text text-anchor="start" x="508.5" y="-210.2" font-family="Helvetica,sans-Serif" font-size="11.00">int4[10]</text>
<polygon fill="#ffffff" stroke="transparent" points="368.5,-180 368.5,-202 505.5,-202 505.5,-180 368.5,-180"/>
<polygon fill="none" stroke="black" points="368.5,-180 368.5,-202 505.5,-202 505.5,-180 368.5,-180"/>
<image xlink:href="../../images/foreignKeys.png" width="11px" height="12px" preserveAspectRatio="xMinYMin meet" x="373.5" y="-197"/>
<text text-anchor="start" x="388.5" y="-188.2" font-family="Helvetica,sans-Serif" font-size="11.00">asset_value_type_id</text>
<polygon fill="none" stroke="black" points="505.5,-180 505.5,-202 571.5,-202 571.5,-180 505.5,-180"/>
<text text-anchor="start" x="508.5" y="-188.2" font-family="Helvetica,sans-Serif" font-size="11.00">int4[10]</text>
<polygon fill="none" stroke="black" points="368.5,-158 368.5,-180 505.5,-180 505.5,-158 368.5,-158"/>
<text text-anchor="start" x="388.5" y="-166.2" font-family="Helvetica,sans-Serif" font-size="11.00">val_nonmonitary</text>
<polygon fill="none" stroke="black" points="505.5,-158 505.5,-180 571.5,-180 571.5,-158 505.5,-158"/>
<text text-anchor="start" x="508.5" y="-166.2" font-family="Helvetica,sans-Serif" font-size="11.00">float8[17,17]</text>
<polygon fill="none" stroke="black" points="368.5,-136 368.5,-158 505.5,-158 505.5,-136 368.5,-136"/>
<text text-anchor="start" x="388.5" y="-144.2" font-family="Helvetica,sans-Serif" font-size="11.00">val_monitary</text>
<polygon fill="none" stroke="black" points="505.5,-136 505.5,-158 571.5,-158 571.5,-136 505.5,-136"/>
<text text-anchor="start" x="508.5" y="-144.2" font-family="Helvetica,sans-Serif" font-size="11.00">float8[17,17]</text>
<polygon fill="#ffffff" stroke="transparent" points="368.5,-118 368.5,-136 427.5,-136 427.5,-118 368.5,-118"/>
<polygon fill="none" stroke="black" points="368.5,-118 368.5,-136 427.5,-136 427.5,-118 368.5,-118"/>
<text text-anchor="start" x="371.5" y="-124.2" font-family="Helvetica,sans-Serif" font-size="11.00">&lt; 2</text>
<polygon fill="#ffffff" stroke="transparent" points="427.5,-118 427.5,-136 505.5,-136 505.5,-118 427.5,-118"/>
<polygon fill="none" stroke="black" points="427.5,-118 427.5,-136 505.5,-136 505.5,-118 427.5,-118"/>
<text text-anchor="start" x="468.5" y="-124.2" font-family="Helvetica,sans-Serif" font-size="11.00">8 rows</text>
<polygon fill="#ffffff" stroke="transparent" points="505.5,-118 505.5,-136 571.5,-136 571.5,-118 505.5,-118"/>
<polygon fill="none" stroke="black" points="505.5,-118 505.5,-136 571.5,-136 571.5,-118 505.5,-118"/>
<text text-anchor="start" x="552.5" y="-124.2" font-family="Helvetica,sans-Serif" font-size="11.00">0 &gt;</text>
<polygon fill="none" stroke="black" stroke-width="2" points="367,-117 367,-269 572,-269 572,-117 367,-117"/>
</a>
</g>
</g>
<!-- assets -->
<g id="node2" class="node">
<title>assets</title>
<g id="a_node2"><a xlink:href="../../tables/assets.html" xlink:title="assets" target="_top">
<polygon fill="#ffffff" stroke="transparent" points="183,-262 183,-430 308,-430 308,-262 183,-262"/>
<polygon fill="#f5f5f5" stroke="transparent" points="183.5,-408 183.5,-430 308.5,-430 308.5,-408 183.5,-408"/>
<polygon fill="none" stroke="black" points="183.5,-408 183.5,-430 308.5,-430 308.5,-408 183.5,-408"/>
<text text-anchor="start" x="188.5" y="-417.2" font-family="Helvetica,sans-Serif" font-weight="bold" font-size="11.00">assets</text>
<text text-anchor="start" x="273.5" y="-416.2" font-family="Helvetica,sans-Serif" font-size="11.00">[table]</text>
<polygon fill="none" stroke="black" points="183.5,-386 183.5,-408 308.5,-408 308.5,-386 183.5,-386"/>
<image xlink:href="../../images/primaryKeys.png" width="11px" height="12px" preserveAspectRatio="xMinYMin meet" x="188.5" y="-403"/>
<text text-anchor="start" x="203.5" y="-394.2" font-family="Helvetica,sans-Serif" font-size="11.00">id</text>
<polygon fill="none" stroke="black" points="183.5,-364 183.5,-386 308.5,-386 308.5,-364 183.5,-364"/>
<image xlink:href="../../images/foreignKeys.png" width="11px" height="12px" preserveAspectRatio="xMinYMin meet" x="188.5" y="-381"/>
<text text-anchor="start" x="203.5" y="-372.2" font-family="Helvetica,sans-Serif" font-size="11.00">investment_id</text>
<polygon fill="none" stroke="black" points="183.5,-342 183.5,-364 308.5,-364 308.5,-342 183.5,-342"/>
<image xlink:href="../../images/foreignKeys.png" width="11px" height="12px" preserveAspectRatio="xMinYMin meet" x="188.5" y="-359"/>
<text text-anchor="start" x="203.5" y="-350.2" font-family="Helvetica,sans-Serif" font-size="11.00">asset_type_id</text>
<polygon fill="#ffffff" stroke="transparent" points="183.5,-320 183.5,-342 308.5,-342 308.5,-320 183.5,-320"/>
<polygon fill="none" stroke="black" points="183.5,-320 183.5,-342 308.5,-342 308.5,-320 183.5,-320"/>
<text text-anchor="start" x="203.5" y="-328.2" font-family="Helvetica,sans-Serif" font-size="11.00">is_active</text>
<polygon fill="#ffffff" stroke="transparent" points="183.5,-298 183.5,-320 308.5,-320 308.5,-298 183.5,-298"/>
<polygon fill="none" stroke="black" points="183.5,-298 183.5,-320 308.5,-320 308.5,-298 183.5,-298"/>
<image xlink:href="../../images/foreignKeys.png" width="11px" height="12px" preserveAspectRatio="xMinYMin meet" x="188.5" y="-315"/>
<text text-anchor="start" x="203.5" y="-306.2" font-family="Helvetica,sans-Serif" font-size="11.00">ref_id</text>
<polygon fill="none" stroke="black" points="183.5,-280 183.5,-298 308.5,-298 308.5,-280 183.5,-280"/>
<text text-anchor="start" x="186.5" y="-286.2" font-family="Helvetica,sans-Serif" font-size="11.00">...</text>
<polygon fill="#ffffff" stroke="transparent" points="183.5,-262 183.5,-280 212.5,-280 212.5,-262 183.5,-262"/>
<polygon fill="none" stroke="black" points="183.5,-262 183.5,-280 212.5,-280 212.5,-262 183.5,-262"/>
<text text-anchor="start" x="186.5" y="-268.2" font-family="Helvetica,sans-Serif" font-size="11.00">&lt; 3</text>
<polygon fill="#ffffff" stroke="transparent" points="212.5,-262 212.5,-280 282.5,-280 282.5,-262 212.5,-262"/>
<polygon fill="none" stroke="black" points="212.5,-262 212.5,-280 282.5,-280 282.5,-262 212.5,-262"/>
<text text-anchor="start" x="218.5" y="-268.2" font-family="Helvetica,sans-Serif" font-size="11.00">78,452 rows</text>
<polygon fill="#ffffff" stroke="transparent" points="282.5,-262 282.5,-280 308.5,-280 308.5,-262 282.5,-262"/>
<polygon fill="none" stroke="black" points="282.5,-262 282.5,-280 308.5,-280 308.5,-262 282.5,-262"/>
<text text-anchor="start" x="289.5" y="-268.2" font-family="Helvetica,sans-Serif" font-size="11.00">4 &gt;</text>
</a>
</g>
</g>
<!-- asset_values&#45;&gt;assets -->
<g id="edge1" class="edge">
<title>asset_values:w&#45;&gt;assets:e</title>
<path fill="none" stroke="black" d="M352.94,-215.33C295.95,-236.63 389.55,-397 309.5,-397"/>
<polygon fill="black" stroke="black" points="359.6,-214.26 368.07,-216.55 363.55,-213.63 367.5,-213 367.5,-213 367.5,-213 363.55,-213.63 366.93,-209.45 359.6,-214.26 359.6,-214.26"/>
<ellipse fill="none" stroke="black" cx="356.44" cy="-214.77" rx="3.2" ry="3.2"/>
</g>
<!-- asset_value_types -->
<g id="node3" class="node">
<title>asset_value_types</title>
<g id="a_node3"><a xlink:href="../../tables/asset_value_types.html" xlink:title="asset_value_types" target="_top">
<polygon fill="#ffffff" stroke="transparent" points="174,-54 174,-156 317,-156 317,-54 174,-54"/>
<polygon fill="#f5f5f5" stroke="transparent" points="174.5,-134 174.5,-156 317.5,-156 317.5,-134 174.5,-134"/>
<polygon fill="none" stroke="black" points="174.5,-134 174.5,-156 317.5,-156 317.5,-134 174.5,-134"/>
<text text-anchor="start" x="179.5" y="-143.2" font-family="Helvetica,sans-Serif" font-weight="bold" font-size="11.00">asset_value_types</text>
<text text-anchor="start" x="282.5" y="-142.2" font-family="Helvetica,sans-Serif" font-size="11.00">[table]</text>
<polygon fill="none" stroke="black" points="174.5,-112 174.5,-134 317.5,-134 317.5,-112 174.5,-112"/>
<image xlink:href="../../images/primaryKeys.png" width="11px" height="12px" preserveAspectRatio="xMinYMin meet" x="179.5" y="-129"/>
<text text-anchor="start" x="202.5" y="-120.2" font-family="Helvetica,sans-Serif" font-size="11.00">id</text>
<polygon fill="#ffffff" stroke="transparent" points="174.5,-90 174.5,-112 317.5,-112 317.5,-90 174.5,-90"/>
<polygon fill="none" stroke="black" points="174.5,-90 174.5,-112 317.5,-112 317.5,-90 174.5,-90"/>
<text text-anchor="start" x="202.5" y="-98.2" font-family="Helvetica,sans-Serif" font-size="11.00">name</text>
<polygon fill="none" stroke="black" points="174.5,-72 174.5,-90 317.5,-90 317.5,-72 174.5,-72"/>
<text text-anchor="start" x="177.5" y="-78.2" font-family="Helvetica,sans-Serif" font-size="11.00">...</text>
<polygon fill="#ffffff" stroke="transparent" points="174.5,-54 174.5,-72 221.5,-72 221.5,-54 174.5,-54"/>
<polygon fill="none" stroke="black" points="174.5,-54 174.5,-72 221.5,-72 221.5,-54 174.5,-54"/>
<text text-anchor="start" x="177.5" y="-60.2" font-family="Helvetica,sans-Serif" font-size="11.00"> &#160;</text>
<polygon fill="#ffffff" stroke="transparent" points="221.5,-54 221.5,-72 278.5,-72 278.5,-54 221.5,-54"/>
<polygon fill="none" stroke="black" points="221.5,-54 221.5,-72 278.5,-72 278.5,-54 221.5,-54"/>
<text text-anchor="start" x="241.5" y="-60.2" font-family="Helvetica,sans-Serif" font-size="11.00">3 rows</text>
<polygon fill="#ffffff" stroke="transparent" points="278.5,-54 278.5,-72 317.5,-72 317.5,-54 278.5,-54"/>
<polygon fill="none" stroke="black" points="278.5,-54 278.5,-72 317.5,-72 317.5,-54 278.5,-54"/>
<text text-anchor="start" x="298.5" y="-60.2" font-family="Helvetica,sans-Serif" font-size="11.00">2 &gt;</text>
</a>
</g>
</g>
<!-- asset_values&#45;&gt;asset_value_types -->
<g id="edge2" class="edge">
<title>asset_values:w&#45;&gt;asset_value_types:e</title>
<path fill="none" stroke="black" d="M353.68,-186.11C336.93,-170.52 349.64,-123 318.5,-123"/>
<polygon fill="black" stroke="black" points="359.96,-188.33 366.3,-194.39 363.73,-189.67 367.5,-191 367.5,-191 367.5,-191 363.73,-189.67 368.7,-187.61 359.96,-188.33 359.96,-188.33"/>
<ellipse fill="none" stroke="black" cx="356.94" cy="-187.26" rx="3.2" ry="3.2"/>
</g>
<!-- asset_types -->
<g id="node4" class="node">
<title>asset_types</title>
<g id="a_node4"><a xlink:href="../../tables/asset_types.html" xlink:title="asset_types" target="_top">
<polygon fill="#ffffff" stroke="transparent" points="12.5,-317 12.5,-375 120.5,-375 120.5,-317 12.5,-317"/>
<polygon fill="#f5f5f5" stroke="transparent" points="12.5,-353 12.5,-375 120.5,-375 120.5,-353 12.5,-353"/>
<polygon fill="none" stroke="black" points="12.5,-353 12.5,-375 120.5,-375 120.5,-353 12.5,-353"/>
<text text-anchor="start" x="17.5" y="-362.2" font-family="Helvetica,sans-Serif" font-weight="bold" font-size="11.00">asset_types</text>
<text text-anchor="start" x="85.5" y="-361.2" font-family="Helvetica,sans-Serif" font-size="11.00">[table]</text>
<polygon fill="none" stroke="black" points="12.5,-335 12.5,-353 120.5,-353 120.5,-335 12.5,-335"/>
<text text-anchor="start" x="15.5" y="-341.2" font-family="Helvetica,sans-Serif" font-size="11.00">...</text>
<polygon fill="#ffffff" stroke="transparent" points="12.5,-317 12.5,-335 31.5,-335 31.5,-317 12.5,-317"/>
<polygon fill="none" stroke="black" points="12.5,-317 12.5,-335 31.5,-335 31.5,-317 12.5,-317"/>
<text text-anchor="start" x="15.5" y="-323.2" font-family="Helvetica,sans-Serif" font-size="11.00"> &#160;</text>
<polygon fill="#ffffff" stroke="transparent" points="31.5,-317 31.5,-335 95.5,-335 95.5,-317 31.5,-317"/>
<polygon fill="none" stroke="black" points="31.5,-317 31.5,-335 95.5,-335 95.5,-317 31.5,-317"/>
<text text-anchor="start" x="37.5" y="-323.2" font-family="Helvetica,sans-Serif" font-size="11.00">1,156 rows</text>
<polygon fill="#ffffff" stroke="transparent" points="95.5,-317 95.5,-335 120.5,-335 120.5,-317 95.5,-317"/>
<polygon fill="none" stroke="black" points="95.5,-317 95.5,-335 120.5,-335 120.5,-317 95.5,-317"/>
<text text-anchor="start" x="101.5" y="-323.2" font-family="Helvetica,sans-Serif" font-size="11.00">3 &gt;</text>
</a>
</g>
</g>
<!-- assets&#45;&gt;asset_types -->
<g id="edge3" class="edge">
<title>assets:w&#45;&gt;asset_types:e</title>
<path fill="none" stroke="black" d="M168.07,-352.04C151.71,-349.72 143.34,-344 121.5,-344"/>
<polygon fill="black" stroke="black" points="174.52,-352.47 182.26,-356.59 178.51,-352.73 182.5,-353 182.5,-353 182.5,-353 178.51,-352.73 182.74,-349.41 174.52,-352.47 174.52,-352.47"/>
<ellipse fill="none" stroke="black" cx="171.32" cy="-352.25" rx="3.2" ry="3.2"/>
</g>
<!-- investments -->
<g id="node5" class="node">
<title>investments</title>
<g id="a_node5"><a xlink:href="../../tables/investments.html" xlink:title="investments" target="_top">
<polygon fill="#ffffff" stroke="transparent" points="11.5,-396 11.5,-454 121.5,-454 121.5,-396 11.5,-396"/>
<polygon fill="#f5f5f5" stroke="transparent" points="11.5,-432 11.5,-454 121.5,-454 121.5,-432 11.5,-432"/>
<polygon fill="none" stroke="black" points="11.5,-432 11.5,-454 121.5,-454 121.5,-432 11.5,-432"/>
<text text-anchor="start" x="16.5" y="-441.2" font-family="Helvetica,sans-Serif" font-weight="bold" font-size="11.00">investments</text>
<text text-anchor="start" x="86.5" y="-440.2" font-family="Helvetica,sans-Serif" font-size="11.00">[table]</text>
<polygon fill="none" stroke="black" points="11.5,-414 11.5,-432 121.5,-432 121.5,-414 11.5,-414"/>
<text text-anchor="start" x="14.5" y="-420.2" font-family="Helvetica,sans-Serif" font-size="11.00">...</text>
<polygon fill="#ffffff" stroke="transparent" points="11.5,-396 11.5,-414 35.5,-414 35.5,-396 11.5,-396"/>
<polygon fill="none" stroke="black" points="11.5,-396 11.5,-414 35.5,-414 35.5,-396 11.5,-396"/>
<text text-anchor="start" x="14.5" y="-402.2" font-family="Helvetica,sans-Serif" font-size="11.00">&lt; 1</text>
<polygon fill="#ffffff" stroke="transparent" points="35.5,-396 35.5,-414 97.5,-414 97.5,-396 35.5,-396"/>
<polygon fill="none" stroke="black" points="35.5,-396 35.5,-414 97.5,-414 97.5,-396 35.5,-396"/>
<text text-anchor="start" x="39.5" y="-402.2" font-family="Helvetica,sans-Serif" font-size="11.00">2,996 rows</text>
<polygon fill="#ffffff" stroke="transparent" points="97.5,-396 97.5,-414 121.5,-414 121.5,-396 97.5,-396"/>
<polygon fill="none" stroke="black" points="97.5,-396 97.5,-414 121.5,-414 121.5,-396 97.5,-396"/>
<text text-anchor="start" x="102.5" y="-402.2" font-family="Helvetica,sans-Serif" font-size="11.00">2 &gt;</text>
</a>
</g>
</g>
<!-- assets&#45;&gt;investments -->
<g id="edge4" class="edge">
<title>assets:w&#45;&gt;investments:e</title>
<path fill="none" stroke="black" d="M168.48,-378.61C149.94,-389.77 150.91,-423 122.5,-423"/>
<polygon fill="black" stroke="black" points="174.75,-376.99 183.4,-378.49 178.63,-376 182.5,-375 182.5,-375 182.5,-375 178.63,-376 181.6,-371.51 174.75,-376.99 174.75,-376.99"/>
<ellipse fill="none" stroke="black" cx="171.65" cy="-377.79" rx="3.2" ry="3.2"/>
</g>
<!-- ref_id -->
<g id="node6" class="node">
<title>ref_id</title>
<g id="a_node6"><a xlink:href="../../tables/ref_id.html" xlink:title="ref_id" target="_top">
<polygon fill="#ffffff" stroke="transparent" points="8,-229 8,-287 125,-287 125,-229 8,-229"/>
<polygon fill="#f5f5f5" stroke="transparent" points="8.5,-265 8.5,-287 125.5,-287 125.5,-265 8.5,-265"/>
<polygon fill="none" stroke="black" points="8.5,-265 8.5,-287 125.5,-287 125.5,-265 8.5,-265"/>
<text text-anchor="start" x="13.5" y="-274.2" font-family="Helvetica,sans-Serif" font-weight="bold" font-size="11.00">ref_id</text>
<text text-anchor="start" x="90.5" y="-273.2" font-family="Helvetica,sans-Serif" font-size="11.00">[table]</text>
<polygon fill="none" stroke="black" points="8.5,-247 8.5,-265 125.5,-265 125.5,-247 8.5,-247"/>
<text text-anchor="start" x="11.5" y="-253.2" font-family="Helvetica,sans-Serif" font-size="11.00">...</text>
<polygon fill="#ffffff" stroke="transparent" points="8.5,-229 8.5,-247 30.5,-247 30.5,-229 8.5,-229"/>
<polygon fill="none" stroke="black" points="8.5,-229 8.5,-247 30.5,-247 30.5,-229 8.5,-229"/>
<text text-anchor="start" x="11.5" y="-235.2" font-family="Helvetica,sans-Serif" font-size="11.00">&lt; 1</text>
<polygon fill="#ffffff" stroke="transparent" points="30.5,-229 30.5,-247 103.5,-247 103.5,-229 30.5,-229"/>
<polygon fill="none" stroke="black" points="30.5,-229 30.5,-247 103.5,-247 103.5,-229 30.5,-229"/>
<text text-anchor="start" x="33.5" y="-235.2" font-family="Helvetica,sans-Serif" font-size="11.00">140,067 rows</text>
<polygon fill="#ffffff" stroke="transparent" points="103.5,-229 103.5,-247 125.5,-247 125.5,-229 103.5,-229"/>
<polygon fill="none" stroke="black" points="103.5,-229 103.5,-247 125.5,-247 125.5,-229 103.5,-229"/>
<text text-anchor="start" x="106.5" y="-235.2" font-family="Helvetica,sans-Serif" font-size="11.00">2 &gt;</text>
</a>
</g>
</g>
<!-- assets&#45;&gt;ref_id -->
<g id="edge5" class="edge">
<title>assets:w&#45;&gt;ref_id:e</title>
<path fill="none" stroke="black" d="M172.23,-306.99C150.53,-297.31 156.75,-256 126.5,-256"/>
<polygon fill="black" stroke="black" points="182.48,-304.92 180.95,-312.77 179.38,-312.46 180.91,-304.61 182.48,-304.92"/>
<polyline fill="none" stroke="black" points="182.5,-309 178.57,-308.23 "/>
<ellipse fill="none" stroke="black" cx="175.43" cy="-307.62" rx="3.2" ry="3.2"/>
</g>
<!-- assets_impact_functions -->
<g id="node7" class="node">
<title>assets_impact_functions</title>
<g id="a_node7"><a xlink:href="../../tables/assets_impact_functions.html" xlink:title="assets_impact_functions" target="_top">
<polygon fill="#ffffff" stroke="transparent" points="382,-370 382,-428 557,-428 557,-370 382,-370"/>
<polygon fill="#f5f5f5" stroke="transparent" points="382.5,-406 382.5,-428 557.5,-428 557.5,-406 382.5,-406"/>
<polygon fill="none" stroke="black" points="382.5,-406 382.5,-428 557.5,-428 557.5,-406 382.5,-406"/>
<text text-anchor="start" x="387.5" y="-415.2" font-family="Helvetica,sans-Serif" font-weight="bold" font-size="11.00">assets_impact_functions</text>
<text text-anchor="start" x="522.5" y="-414.2" font-family="Helvetica,sans-Serif" font-size="11.00">[table]</text>
<polygon fill="none" stroke="black" points="382.5,-388 382.5,-406 557.5,-406 557.5,-388 382.5,-388"/>
<text text-anchor="start" x="385.5" y="-394.2" font-family="Helvetica,sans-Serif" font-size="11.00">...</text>
<polygon fill="#ffffff" stroke="transparent" points="382.5,-370 382.5,-388 437.5,-388 437.5,-370 382.5,-370"/>
<polygon fill="none" stroke="black" points="382.5,-370 382.5,-388 437.5,-388 437.5,-370 382.5,-370"/>
<text text-anchor="start" x="385.5" y="-376.2" font-family="Helvetica,sans-Serif" font-size="11.00">&lt; 3</text>
<polygon fill="#ffffff" stroke="transparent" points="437.5,-370 437.5,-388 527.5,-388 527.5,-370 437.5,-370"/>
<polygon fill="none" stroke="black" points="437.5,-370 437.5,-388 527.5,-388 527.5,-370 437.5,-370"/>
<text text-anchor="start" x="457.5" y="-376.2" font-family="Helvetica,sans-Serif" font-size="11.00">654,369 rows</text>
<polygon fill="#ffffff" stroke="transparent" points="527.5,-370 527.5,-388 557.5,-388 557.5,-370 527.5,-370"/>
<polygon fill="none" stroke="black" points="527.5,-370 527.5,-388 557.5,-388 557.5,-370 527.5,-370"/>
<text text-anchor="start" x="547.5" y="-376.2" font-family="Helvetica,sans-Serif" font-size="11.00"> &#160;</text>
</a>
</g>
</g>
<!-- assets_impact_functions&#45;&gt;assets -->
<g id="edge6" class="edge">
<title>assets_impact_functions:w&#45;&gt;assets:e</title>
<path fill="none" stroke="black" d="M366.88,-397C346.04,-397 336,-397 309.5,-397"/>
<polygon fill="black" stroke="black" points="373.5,-397 381.5,-400.6 377.5,-397 381.5,-397 381.5,-397 381.5,-397 377.5,-397 381.5,-393.4 373.5,-397 373.5,-397"/>
<ellipse fill="none" stroke="black" cx="370.3" cy="-397" rx="3.2" ry="3.2"/>
</g>
<!-- assets_tags -->
<g id="node8" class="node">
<title>assets_tags</title>
<g id="a_node8"><a xlink:href="../../tables/assets_tags.html" xlink:title="assets_tags" target="_top">
<polygon fill="#ffffff" stroke="transparent" points="415.5,-449 415.5,-507 523.5,-507 523.5,-449 415.5,-449"/>
<polygon fill="#f5f5f5" stroke="transparent" points="415.5,-485 415.5,-507 523.5,-507 523.5,-485 415.5,-485"/>
<polygon fill="none" stroke="black" points="415.5,-485 415.5,-507 523.5,-507 523.5,-485 415.5,-485"/>
<text text-anchor="start" x="420.5" y="-494.2" font-family="Helvetica,sans-Serif" font-weight="bold" font-size="11.00">assets_tags</text>
<text text-anchor="start" x="488.5" y="-493.2" font-family="Helvetica,sans-Serif" font-size="11.00">[table]</text>
<polygon fill="none" stroke="black" points="415.5,-467 415.5,-485 523.5,-485 523.5,-467 415.5,-467"/>
<text text-anchor="start" x="418.5" y="-473.2" font-family="Helvetica,sans-Serif" font-size="11.00">...</text>
<polygon fill="#ffffff" stroke="transparent" points="415.5,-449 415.5,-467 440.5,-467 440.5,-449 415.5,-449"/>
<polygon fill="none" stroke="black" points="415.5,-449 415.5,-467 440.5,-467 440.5,-449 415.5,-449"/>
<text text-anchor="start" x="418.5" y="-455.2" font-family="Helvetica,sans-Serif" font-size="11.00">&lt; 2</text>
<polygon fill="#ffffff" stroke="transparent" points="440.5,-449 440.5,-467 508.5,-467 508.5,-449 440.5,-449"/>
<polygon fill="none" stroke="black" points="440.5,-449 440.5,-467 508.5,-467 508.5,-449 440.5,-449"/>
<text text-anchor="start" x="444.5" y="-455.2" font-family="Helvetica,sans-Serif" font-size="11.00">22,144 rows</text>
<polygon fill="#ffffff" stroke="transparent" points="508.5,-449 508.5,-467 523.5,-467 523.5,-449 508.5,-449"/>
<polygon fill="none" stroke="black" points="508.5,-449 508.5,-467 523.5,-467 523.5,-449 508.5,-449"/>
<text text-anchor="start" x="513.5" y="-455.2" font-family="Helvetica,sans-Serif" font-size="11.00"> &#160;</text>
</a>
</g>
</g>
<!-- assets_tags&#45;&gt;assets -->
<g id="edge7" class="edge">
<title>assets_tags:w&#45;&gt;assets:e</title>
<path fill="none" stroke="black" d="M400.19,-474.14C382.78,-468.94 377.46,-453.7 358,-439 335.24,-421.82 338.01,-397 309.5,-397"/>
<polygon fill="black" stroke="black" points="406.57,-474.97 414.03,-479.57 410.53,-475.48 414.5,-476 414.5,-476 414.5,-476 410.53,-475.48 414.97,-472.43 406.57,-474.97 406.57,-474.97"/>
<ellipse fill="none" stroke="black" cx="403.39" cy="-474.55" rx="3.2" ry="3.2"/>
</g>
<!-- group_value_types -->
<g id="node9" class="node">
<title>group_value_types</title>
<g id="a_node9"><a xlink:href="../../tables/group_value_types.html" xlink:title="group_value_types" target="_top">
<polygon fill="#ffffff" stroke="transparent" points="396.5,-37 396.5,-95 542.5,-95 542.5,-37 396.5,-37"/>
<polygon fill="#f5f5f5" stroke="transparent" points="396.5,-73 396.5,-95 542.5,-95 542.5,-73 396.5,-73"/>
<polygon fill="none" stroke="black" points="396.5,-73 396.5,-95 542.5,-95 542.5,-73 396.5,-73"/>
<text text-anchor="start" x="401.5" y="-82.2" font-family="Helvetica,sans-Serif" font-weight="bold" font-size="11.00">group_value_types</text>
<text text-anchor="start" x="507.5" y="-81.2" font-family="Helvetica,sans-Serif" font-size="11.00">[table]</text>
<polygon fill="none" stroke="black" points="396.5,-55 396.5,-73 542.5,-73 542.5,-55 396.5,-55"/>
<text text-anchor="start" x="399.5" y="-61.2" font-family="Helvetica,sans-Serif" font-size="11.00">...</text>
<polygon fill="#ffffff" stroke="transparent" points="396.5,-37 396.5,-55 453.5,-55 453.5,-37 396.5,-37"/>
<polygon fill="none" stroke="black" points="396.5,-37 396.5,-55 453.5,-55 453.5,-37 396.5,-37"/>
<text text-anchor="start" x="399.5" y="-43.2" font-family="Helvetica,sans-Serif" font-size="11.00">&lt; 2</text>
<polygon fill="#ffffff" stroke="transparent" points="453.5,-37 453.5,-55 511.5,-55 511.5,-37 453.5,-37"/>
<polygon fill="none" stroke="black" points="453.5,-37 453.5,-55 511.5,-55 511.5,-37 453.5,-37"/>
<text text-anchor="start" x="474.5" y="-43.2" font-family="Helvetica,sans-Serif" font-size="11.00">0 rows</text>
<polygon fill="#ffffff" stroke="transparent" points="511.5,-37 511.5,-55 542.5,-55 542.5,-37 511.5,-37"/>
<polygon fill="none" stroke="black" points="511.5,-37 511.5,-55 542.5,-55 542.5,-37 511.5,-37"/>
<text text-anchor="start" x="532.5" y="-43.2" font-family="Helvetica,sans-Serif" font-size="11.00"> &#160;</text>
</a>
</g>
</g>
<!-- group_value_types&#45;&gt;asset_value_types -->
<g id="edge8" class="edge">
<title>group_value_types:w&#45;&gt;asset_value_types:e</title>
<path fill="none" stroke="black" d="M381.21,-66.69C353.9,-78.23 356.06,-123 318.5,-123"/>
<polygon fill="black" stroke="black" points="387.64,-65.48 396.17,-67.54 391.57,-64.74 395.5,-64 395.5,-64 395.5,-64 391.57,-64.74 394.83,-60.46 387.64,-65.48 387.64,-65.48"/>
<ellipse fill="none" stroke="black" cx="384.49" cy="-66.07" rx="3.2" ry="3.2"/>
</g>
<!-- locations -->
<g id="node10" class="node">
<title>locations</title>
<g id="a_node10"><a xlink:href="../../tables/locations.html" xlink:title="locations" target="_top">
<polygon fill="#ffffff" stroke="transparent" points="414,-291 414,-349 525,-349 525,-291 414,-291"/>
<polygon fill="#f5f5f5" stroke="transparent" points="414.5,-327 414.5,-349 525.5,-349 525.5,-327 414.5,-327"/>
<polygon fill="none" stroke="black" points="414.5,-327 414.5,-349 525.5,-349 525.5,-327 414.5,-327"/>
<text text-anchor="start" x="419.5" y="-336.2" font-family="Helvetica,sans-Serif" font-weight="bold" font-size="11.00">locations</text>
<text text-anchor="start" x="490.5" y="-335.2" font-family="Helvetica,sans-Serif" font-size="11.00">[table]</text>
<polygon fill="none" stroke="black" points="414.5,-309 414.5,-327 525.5,-327 525.5,-309 414.5,-309"/>
<text text-anchor="start" x="417.5" y="-315.2" font-family="Helvetica,sans-Serif" font-size="11.00">...</text>
<polygon fill="#ffffff" stroke="transparent" points="414.5,-291 414.5,-309 436.5,-309 436.5,-291 414.5,-291"/>
<polygon fill="none" stroke="black" points="414.5,-291 414.5,-309 436.5,-309 436.5,-291 414.5,-291"/>
<text text-anchor="start" x="417.5" y="-297.2" font-family="Helvetica,sans-Serif" font-size="11.00">&lt; 2</text>
<polygon fill="#ffffff" stroke="transparent" points="436.5,-291 436.5,-309 503.5,-309 503.5,-291 436.5,-291"/>
<polygon fill="none" stroke="black" points="436.5,-291 436.5,-309 503.5,-309 503.5,-291 436.5,-291"/>
<text text-anchor="start" x="439.5" y="-297.2" font-family="Helvetica,sans-Serif" font-size="11.00">81,629 rows</text>
<polygon fill="#ffffff" stroke="transparent" points="503.5,-291 503.5,-309 525.5,-309 525.5,-291 503.5,-291"/>
<polygon fill="none" stroke="black" points="503.5,-291 503.5,-309 525.5,-309 525.5,-291 503.5,-291"/>
<text text-anchor="start" x="506.5" y="-297.2" font-family="Helvetica,sans-Serif" font-size="11.00">3 &gt;</text>
</a>
</g>
</g>
<!-- locations&#45;&gt;assets -->
<g id="edge9" class="edge">
<title>locations:w&#45;&gt;assets:e</title>
<path fill="none" stroke="black" d="M399.25,-320.18C381.76,-326.4 378.11,-344.72 358,-360 336.41,-376.4 336.61,-397 309.5,-397"/>
<polygon fill="black" stroke="black" points="405.59,-319.21 414.05,-321.56 409.55,-318.61 413.5,-318 413.5,-318 413.5,-318 409.55,-318.61 412.95,-314.44 405.59,-319.21 405.59,-319.21"/>
<ellipse fill="none" stroke="black" cx="402.43" cy="-319.7" rx="3.2" ry="3.2"/>
</g>
<!-- locations&#45;&gt;ref_id -->
<g id="edge10" class="edge">
<title>locations:w&#45;&gt;ref_id:e</title>
<path fill="none" stroke="black" d="M398.89,-315.98C382.13,-310.63 376.93,-295.52 358,-281 342.51,-269.11 343.27,-258.89 325,-252 258.88,-227.07 236.58,-248.44 166,-252 148.38,-252.89 144.15,-256 126.5,-256"/>
<polygon fill="black" stroke="black" points="405.58,-316.9 413.01,-321.57 409.54,-317.45 413.5,-318 413.5,-318 413.5,-318 409.54,-317.45 413.99,-314.43 405.58,-316.9 405.58,-316.9"/>
<ellipse fill="none" stroke="black" cx="402.41" cy="-316.46" rx="3.2" ry="3.2"/>
</g>
</g>
</svg>
