<?xml version="1.0" encoding="UTF-8" standalone="no"?>
<!DOCTYPE svg PUBLIC "-//W3C//DTD SVG 1.1//EN"
 "http://www.w3.org/Graphics/SVG/1.1/DTD/svg11.dtd">
<!-- Generated by graphviz version 2.50.0 (20211204.2007)
 -->
<!-- Title: oneDegreeRelationshipsDiagram Pages: 1 -->
<svg width="686pt" height="788pt"
 viewBox="0.00 0.00 686.00 788.00" xmlns="http://www.w3.org/2000/svg" xmlns:xlink="http://www.w3.org/1999/xlink">
<g id="graph0" class="graph" transform="scale(1 1) rotate(0) translate(4 784)">
<title>oneDegreeRelationshipsDiagram</title>
<polygon fill="#ffffff" stroke="transparent" points="-4,4 -4,-784 682,-784 682,4 -4,4"/>
<text text-anchor="middle" x="72.5" y="-7.2" font-family="Helvetica,sans-Serif" font-size="11.00">Generated by SchemaSpy</text>
<!-- asset_values -->
<g id="node1" class="node">
<title>asset_values</title>
<g id="a_node1"><a xlink:href="../../tables/asset_values.html" xlink:title="asset_values" target="_top">
<polygon fill="#ffffff" stroke="transparent" points="495,-652 495,-776 632,-776 632,-652 495,-652"/>
<polygon fill="#f5f5f5" stroke="transparent" points="495.5,-754 495.5,-776 632.5,-776 632.5,-754 495.5,-754"/>
<polygon fill="none" stroke="black" points="495.5,-754 495.5,-776 632.5,-776 632.5,-754 495.5,-754"/>
<text text-anchor="start" x="500.5" y="-763.2" font-family="Helvetica,sans-Serif" font-weight="bold" font-size="11.00">asset_values</text>
<text text-anchor="start" x="597.5" y="-762.2" font-family="Helvetica,sans-Serif" font-size="11.00">[table]</text>
<polygon fill="none" stroke="black" points="495.5,-732 495.5,-754 632.5,-754 632.5,-732 495.5,-732"/>
<image xlink:href="../../images/primaryKeys.png" width="11px" height="12px" preserveAspectRatio="xMinYMin meet" x="500.5" y="-749"/>
<text text-anchor="start" x="515.5" y="-740.2" font-family="Helvetica,sans-Serif" font-size="11.00">id</text>
<polygon fill="#ffffff" stroke="transparent" points="495.5,-710 495.5,-732 632.5,-732 632.5,-710 495.5,-710"/>
<polygon fill="none" stroke="black" points="495.5,-710 495.5,-732 632.5,-732 632.5,-710 495.5,-710"/>
<image xlink:href="../../images/foreignKeys.png" width="11px" height="12px" preserveAspectRatio="xMinYMin meet" x="500.5" y="-727"/>
<text text-anchor="start" x="515.5" y="-718.2" font-family="Helvetica,sans-Serif" font-size="11.00">asset_id</text>
<polygon fill="#ffffff" stroke="transparent" points="495.5,-688 495.5,-710 632.5,-710 632.5,-688 495.5,-688"/>
<polygon fill="none" stroke="black" points="495.5,-688 495.5,-710 632.5,-710 632.5,-688 495.5,-688"/>
<image xlink:href="../../images/foreignKeys.png" width="11px" height="12px" preserveAspectRatio="xMinYMin meet" x="500.5" y="-705"/>
<text text-anchor="start" x="515.5" y="-696.2" font-family="Helvetica,sans-Serif" font-size="11.00">asset_value_type_id</text>
<polygon fill="none" stroke="black" points="495.5,-670 495.5,-688 632.5,-688 632.5,-670 495.5,-670"/>
<text text-anchor="start" x="498.5" y="-676.2" font-family="Helvetica,sans-Serif" font-size="11.00">...</text>
<polygon fill="#ffffff" stroke="transparent" points="495.5,-652 495.5,-670 548.5,-670 548.5,-652 495.5,-652"/>
<polygon fill="none" stroke="black" points="495.5,-652 495.5,-670 548.5,-670 548.5,-652 495.5,-652"/>
<text text-anchor="start" x="498.5" y="-658.2" font-family="Helvetica,sans-Serif" font-size="11.00">&lt; 2</text>
<polygon fill="#ffffff" stroke="transparent" points="548.5,-652 548.5,-670 603.5,-670 603.5,-652 548.5,-652"/>
<polygon fill="none" stroke="black" points="548.5,-652 548.5,-670 603.5,-670 603.5,-652 548.5,-652"/>
<text text-anchor="start" x="566.5" y="-658.2" font-family="Helvetica,sans-Serif" font-size="11.00">8 rows</text>
<polygon fill="#ffffff" stroke="transparent" points="603.5,-652 603.5,-670 632.5,-670 632.5,-652 603.5,-652"/>
<polygon fill="none" stroke="black" points="603.5,-652 603.5,-670 632.5,-670 632.5,-652 603.5,-652"/>
<text text-anchor="start" x="622.5" y="-658.2" font-family="Helvetica,sans-Serif" font-size="11.00"> &#160;</text>
</a>
</g>
</g>
<!-- assets -->
<g id="node2" class="node">
<title>assets</title>
<g id="a_node2"><a xlink:href="../../tables/assets.html" xlink:title="assets" target="_top">
<polygon fill="#ffffff" stroke="transparent" points="194,-158 194,-466 408,-466 408,-158 194,-158"/>
<polygon fill="#f5f5f5" stroke="transparent" points="196,-442 196,-464 406,-464 406,-442 196,-442"/>
<polygon fill="none" stroke="black" points="196,-442 196,-464 406,-464 406,-442 196,-442"/>
<text text-anchor="start" x="201" y="-451.2" font-family="Helvetica,sans-Serif" font-weight="bold" font-size="11.00">assets</text>
<text text-anchor="start" x="371" y="-450.2" font-family="Helvetica,sans-Serif" font-size="11.00">[table]</text>
<polygon fill="none" stroke="black" points="196,-420 196,-442 321,-442 321,-420 196,-420"/>
<image xlink:href="../../images/primaryKeys.png" width="11px" height="12px" preserveAspectRatio="xMinYMin meet" x="201" y="-437"/>
<text text-anchor="start" x="216" y="-428.2" font-family="Helvetica,sans-Serif" font-size="11.00">id</text>
<polygon fill="none" stroke="black" points="321,-420 321,-442 406,-442 406,-420 321,-420"/>
<text text-anchor="start" x="324" y="-428.2" font-family="Helvetica,sans-Serif" font-size="11.00">serial[10]</text>
<polygon fill="none" stroke="black" points="196,-398 196,-420 321,-420 321,-398 196,-398"/>
<image xlink:href="../../images/foreignKeys.png" width="11px" height="12px" preserveAspectRatio="xMinYMin meet" x="201" y="-415"/>
<text text-anchor="start" x="216" y="-406.2" font-family="Helvetica,sans-Serif" font-size="11.00">investment_id</text>
<polygon fill="none" stroke="black" points="321,-398 321,-420 406,-420 406,-398 321,-398"/>
<text text-anchor="start" x="324" y="-406.2" font-family="Helvetica,sans-Serif" font-size="11.00">int4[10]</text>
<polygon fill="none" stroke="black" points="196,-376 196,-398 321,-398 321,-376 196,-376"/>
<image xlink:href="../../images/foreignKeys.png" width="11px" height="12px" preserveAspectRatio="xMinYMin meet" x="201" y="-393"/>
<text text-anchor="start" x="216" y="-384.2" font-family="Helvetica,sans-Serif" font-size="11.00">asset_type_id</text>
<polygon fill="none" stroke="black" points="321,-376 321,-398 406,-398 406,-376 321,-376"/>
<text text-anchor="start" x="324" y="-384.2" font-family="Helvetica,sans-Serif" font-size="11.00">int4[10]</text>
<polygon fill="none" stroke="black" points="196,-354 196,-376 321,-376 321,-354 196,-354"/>
<text text-anchor="start" x="216" y="-362.2" font-family="Helvetica,sans-Serif" font-size="11.00">name</text>
<polygon fill="none" stroke="black" points="321,-354 321,-376 406,-376 406,-354 321,-354"/>
<text text-anchor="start" x="324" y="-362.2" font-family="Helvetica,sans-Serif" font-size="11.00">varchar[128]</text>
<polygon fill="none" stroke="black" points="196,-332 196,-354 321,-354 321,-332 196,-332"/>
<text text-anchor="start" x="216" y="-340.2" font-family="Helvetica,sans-Serif" font-size="11.00">emissions</text>
<polygon fill="none" stroke="black" points="321,-332 321,-354 406,-354 406,-332 321,-332"/>
<text text-anchor="start" x="324" y="-340.2" font-family="Helvetica,sans-Serif" font-size="11.00">float8[17,17]</text>
<polygon fill="none" stroke="black" points="196,-310 196,-332 321,-332 321,-310 196,-310"/>
<text text-anchor="start" x="216" y="-318.2" font-family="Helvetica,sans-Serif" font-size="11.00">notes</text>
<polygon fill="none" stroke="black" points="321,-310 321,-332 406,-332 406,-310 321,-310"/>
<text text-anchor="start" x="324" y="-318.2" font-family="Helvetica,sans-Serif" font-size="11.00">varchar[256]</text>
<polygon fill="none" stroke="black" points="196,-288 196,-310 321,-310 321,-288 196,-288"/>
<text text-anchor="start" x="216" y="-296.2" font-family="Helvetica,sans-Serif" font-size="11.00">ownership_weight</text>
<polygon fill="none" stroke="black" points="321,-288 321,-310 406,-310 406,-288 321,-288"/>
<text text-anchor="start" x="324" y="-296.2" font-family="Helvetica,sans-Serif" font-size="11.00">int4[10]</text>
<polygon fill="none" stroke="black" points="196,-266 196,-288 321,-288 321,-266 196,-266"/>
<text text-anchor="start" x="216" y="-274.2" font-family="Helvetica,sans-Serif" font-size="11.00">asset_value</text>
<polygon fill="none" stroke="black" points="321,-266 321,-288 406,-288 406,-266 321,-266"/>
<text text-anchor="start" x="324" y="-274.2" font-family="Helvetica,sans-Serif" font-size="11.00">float8[17,17]</text>
<polygon fill="none" stroke="black" points="196,-244 196,-266 321,-266 321,-244 196,-244"/>
<text text-anchor="start" x="216" y="-252.2" font-family="Helvetica,sans-Serif" font-size="11.00">created_at</text>
<polygon fill="none" stroke="black" points="321,-244 321,-266 406,-266 406,-244 321,-244"/>
<text text-anchor="start" x="324" y="-252.2" font-family="Helvetica,sans-Serif" font-size="11.00">timestamp[29,6]</text>
<polygon fill="none" stroke="black" points="196,-222 196,-244 321,-244 321,-222 196,-222"/>
<text text-anchor="start" x="216" y="-230.2" font-family="Helvetica,sans-Serif" font-size="11.00">updated_at</text>
<polygon fill="none" stroke="black" points="321,-222 321,-244 406,-244 406,-222 321,-222"/>
<text text-anchor="start" x="324" y="-230.2" font-family="Helvetica,sans-Serif" font-size="11.00">timestamp[29,6]</text>
<polygon fill="#ffffff" stroke="transparent" points="196,-200 196,-222 321,-222 321,-200 196,-200"/>
<polygon fill="none" stroke="black" points="196,-200 196,-222 321,-222 321,-200 196,-200"/>
<text text-anchor="start" x="216" y="-208.2" font-family="Helvetica,sans-Serif" font-size="11.00">is_active</text>
<polygon fill="none" stroke="black" points="321,-200 321,-222 406,-222 406,-200 321,-200"/>
<text text-anchor="start" x="324" y="-208.2" font-family="Helvetica,sans-Serif" font-size="11.00">int4[10]</text>
<polygon fill="#ffffff" stroke="transparent" points="196,-178 196,-200 321,-200 321,-178 196,-178"/>
<polygon fill="none" stroke="black" points="196,-178 196,-200 321,-200 321,-178 196,-178"/>
<image xlink:href="../../images/foreignKeys.png" width="11px" height="12px" preserveAspectRatio="xMinYMin meet" x="201" y="-195"/>
<text text-anchor="start" x="216" y="-186.2" font-family="Helvetica,sans-Serif" font-size="11.00">ref_id</text>
<polygon fill="none" stroke="black" points="321,-178 321,-200 406,-200 406,-178 321,-178"/>
<text text-anchor="start" x="324" y="-186.2" font-family="Helvetica,sans-Serif" font-size="11.00">int4[10]</text>
<polygon fill="#ffffff" stroke="transparent" points="196,-160 196,-178 236,-178 236,-160 196,-160"/>
<polygon fill="none" stroke="black" points="196,-160 196,-178 236,-178 236,-160 196,-160"/>
<text text-anchor="start" x="199" y="-166.2" font-family="Helvetica,sans-Serif" font-size="11.00">&lt; 3</text>
<polygon fill="#ffffff" stroke="transparent" points="236,-160 236,-178 321,-178 321,-160 236,-160"/>
<polygon fill="none" stroke="black" points="236,-160 236,-178 321,-178 321,-160 236,-160"/>
<text text-anchor="start" x="257" y="-166.2" font-family="Helvetica,sans-Serif" font-size="11.00">78,452 rows</text>
<polygon fill="#ffffff" stroke="transparent" points="321,-160 321,-178 406,-178 406,-160 321,-160"/>
<polygon fill="none" stroke="black" points="321,-160 321,-178 406,-178 406,-160 321,-160"/>
<text text-anchor="start" x="387" y="-166.2" font-family="Helvetica,sans-Serif" font-size="11.00">4 &gt;</text>
<polygon fill="none" stroke="black" stroke-width="2" points="195,-159 195,-465 407,-465 407,-159 195,-159"/>
</a>
</g>
</g>
<!-- asset_values&#45;&gt;assets -->
<g id="edge1" class="edge">
<title>asset_values:w&#45;&gt;assets:e</title>
<path fill="none" stroke="black" d="M480.16,-718.69C456.12,-709.51 461.25,-674.59 449,-642 432.18,-597.25 454.81,-431 407,-431"/>
<polygon fill="black" stroke="black" points="486.6,-719.73 493.93,-724.55 490.55,-720.36 494.5,-721 494.5,-721 494.5,-721 490.55,-720.36 495.07,-717.45 486.6,-719.73 486.6,-719.73"/>
<ellipse fill="none" stroke="black" cx="483.44" cy="-719.22" rx="3.2" ry="3.2"/>
</g>
<!-- asset_types -->
<g id="node3" class="node">
<title>asset_types</title>
<g id="a_node3"><a xlink:href="../../tables/asset_types.html" xlink:title="asset_types" target="_top">
<polygon fill="#ffffff" stroke="transparent" points="22.5,-227 22.5,-351 130.5,-351 130.5,-227 22.5,-227"/>
<polygon fill="#f5f5f5" stroke="transparent" points="22.5,-329 22.5,-351 130.5,-351 130.5,-329 22.5,-329"/>
<polygon fill="none" stroke="black" points="22.5,-329 22.5,-351 130.5,-351 130.5,-329 22.5,-329"/>
<text text-anchor="start" x="27.5" y="-338.2" font-family="Helvetica,sans-Serif" font-weight="bold" font-size="11.00">asset_types</text>
<text text-anchor="start" x="95.5" y="-337.2" font-family="Helvetica,sans-Serif" font-size="11.00">[table]</text>
<polygon fill="none" stroke="black" points="22.5,-307 22.5,-329 130.5,-329 130.5,-307 22.5,-307"/>
<image xlink:href="../../images/primaryKeys.png" width="11px" height="12px" preserveAspectRatio="xMinYMin meet" x="27.5" y="-324"/>
<text text-anchor="start" x="52.5" y="-315.2" font-family="Helvetica,sans-Serif" font-size="11.00">id</text>
<polygon fill="#ffffff" stroke="transparent" points="22.5,-285 22.5,-307 130.5,-307 130.5,-285 22.5,-285"/>
<polygon fill="none" stroke="black" points="22.5,-285 22.5,-307 130.5,-307 130.5,-285 22.5,-285"/>
<text text-anchor="start" x="52.5" y="-293.2" font-family="Helvetica,sans-Serif" font-size="11.00">name</text>
<polygon fill="#ffffff" stroke="transparent" points="22.5,-263 22.5,-285 130.5,-285 130.5,-263 22.5,-263"/>
<polygon fill="none" stroke="black" points="22.5,-263 22.5,-285 130.5,-285 130.5,-263 22.5,-263"/>
<text text-anchor="start" x="52.5" y="-271.2" font-family="Helvetica,sans-Serif" font-size="11.00">is_active</text>
<polygon fill="none" stroke="black" points="22.5,-245 22.5,-263 130.5,-263 130.5,-245 22.5,-245"/>
<text text-anchor="start" x="25.5" y="-251.2" font-family="Helvetica,sans-Serif" font-size="11.00">...</text>
<polygon fill="#ffffff" stroke="transparent" points="22.5,-227 22.5,-245 41.5,-245 41.5,-227 22.5,-227"/>
<polygon fill="none" stroke="black" points="22.5,-227 22.5,-245 41.5,-245 41.5,-227 22.5,-227"/>
<text text-anchor="start" x="25.5" y="-233.2" font-family="Helvetica,sans-Serif" font-size="11.00"> &#160;</text>
<polygon fill="#ffffff" stroke="transparent" points="41.5,-227 41.5,-245 105.5,-245 105.5,-227 41.5,-227"/>
<polygon fill="none" stroke="black" points="41.5,-227 41.5,-245 105.5,-245 105.5,-227 41.5,-227"/>
<text text-anchor="start" x="47.5" y="-233.2" font-family="Helvetica,sans-Serif" font-size="11.00">1,156 rows</text>
<polygon fill="#ffffff" stroke="transparent" points="105.5,-227 105.5,-245 130.5,-245 130.5,-227 105.5,-227"/>
<polygon fill="none" stroke="black" points="105.5,-227 105.5,-245 130.5,-245 130.5,-227 105.5,-227"/>
<text text-anchor="start" x="111.5" y="-233.2" font-family="Helvetica,sans-Serif" font-size="11.00">3 &gt;</text>
</a>
</g>
</g>
<!-- assets&#45;&gt;asset_types -->
<g id="edge2" class="edge">
<title>assets:w&#45;&gt;asset_types:e</title>
<path fill="none" stroke="black" d="M180.73,-383.29C157.69,-368.96 167.32,-318 131.5,-318"/>
<polygon fill="black" stroke="black" points="187.26,-384.99 194.09,-390.48 191.13,-385.99 195,-387 195,-387 195,-387 191.13,-385.99 195.91,-383.52 187.26,-384.99 187.26,-384.99"/>
<ellipse fill="none" stroke="black" cx="184.16" cy="-384.18" rx="3.2" ry="3.2"/>
</g>
<!-- investments -->
<g id="node4" class="node">
<title>investments</title>
<g id="a_node4"><a xlink:href="../../tables/investments.html" xlink:title="investments" target="_top">
<polygon fill="#ffffff" stroke="transparent" points="8,-372 8,-474 145,-474 145,-372 8,-372"/>
<polygon fill="#f5f5f5" stroke="transparent" points="8.5,-452 8.5,-474 145.5,-474 145.5,-452 8.5,-452"/>
<polygon fill="none" stroke="black" points="8.5,-452 8.5,-474 145.5,-474 145.5,-452 8.5,-452"/>
<text text-anchor="start" x="13.5" y="-461.2" font-family="Helvetica,sans-Serif" font-weight="bold" font-size="11.00">investments</text>
<text text-anchor="start" x="110.5" y="-460.2" font-family="Helvetica,sans-Serif" font-size="11.00">[table]</text>
<polygon fill="none" stroke="black" points="8.5,-430 8.5,-452 145.5,-452 145.5,-430 8.5,-430"/>
<image xlink:href="../../images/primaryKeys.png" width="11px" height="12px" preserveAspectRatio="xMinYMin meet" x="13.5" y="-447"/>
<text text-anchor="start" x="28.5" y="-438.2" font-family="Helvetica,sans-Serif" font-size="11.00">id</text>
<polygon fill="none" stroke="black" points="8.5,-408 8.5,-430 145.5,-430 145.5,-408 8.5,-408"/>
<image xlink:href="../../images/foreignKeys.png" width="11px" height="12px" preserveAspectRatio="xMinYMin meet" x="13.5" y="-425"/>
<text text-anchor="start" x="28.5" y="-416.2" font-family="Helvetica,sans-Serif" font-size="11.00">sector_id</text>
<polygon fill="none" stroke="black" points="8.5,-390 8.5,-408 145.5,-408 145.5,-390 8.5,-390"/>
<text text-anchor="start" x="11.5" y="-396.2" font-family="Helvetica,sans-Serif" font-size="11.00">...</text>
<polygon fill="#ffffff" stroke="transparent" points="8.5,-372 8.5,-390 46.5,-390 46.5,-372 8.5,-372"/>
<polygon fill="none" stroke="black" points="8.5,-372 8.5,-390 46.5,-390 46.5,-372 8.5,-372"/>
<text text-anchor="start" x="11.5" y="-378.2" font-family="Helvetica,sans-Serif" font-size="11.00">&lt; 1</text>
<polygon fill="#ffffff" stroke="transparent" points="46.5,-372 46.5,-390 115.5,-390 115.5,-372 46.5,-372"/>
<polygon fill="none" stroke="black" points="46.5,-372 46.5,-390 115.5,-390 115.5,-372 46.5,-372"/>
<text text-anchor="start" x="57.5" y="-378.2" font-family="Helvetica,sans-Serif" font-size="11.00">2,996 rows</text>
<polygon fill="#ffffff" stroke="transparent" points="115.5,-372 115.5,-390 145.5,-390 145.5,-372 115.5,-372"/>
<polygon fill="none" stroke="black" points="115.5,-372 115.5,-390 145.5,-390 145.5,-372 115.5,-372"/>
<text text-anchor="start" x="126.5" y="-378.2" font-family="Helvetica,sans-Serif" font-size="11.00">2 &gt;</text>
</a>
</g>
</g>
<!-- assets&#45;&gt;investments -->
<g id="edge3" class="edge">
<title>assets:w&#45;&gt;investments:e</title>
<path fill="none" stroke="black" d="M180.87,-413.45C169.06,-422.24 166.27,-441 146.5,-441"/>
<polygon fill="black" stroke="black" points="187.37,-411.4 196.08,-412.43 191.18,-410.2 195,-409 195,-409 195,-409 191.18,-410.2 193.92,-405.57 187.37,-411.4 187.37,-411.4"/>
<ellipse fill="none" stroke="black" cx="184.32" cy="-412.36" rx="3.2" ry="3.2"/>
</g>
<!-- ref_id -->
<g id="node5" class="node">
<title>ref_id</title>
<g id="a_node5"><a xlink:href="../../tables/ref_id.html" xlink:title="ref_id" target="_top">
<polygon fill="#ffffff" stroke="transparent" points="18,-66 18,-190 135,-190 135,-66 18,-66"/>
<polygon fill="#f5f5f5" stroke="transparent" points="18.5,-168 18.5,-190 135.5,-190 135.5,-168 18.5,-168"/>
<polygon fill="none" stroke="black" points="18.5,-168 18.5,-190 135.5,-190 135.5,-168 18.5,-168"/>
<text text-anchor="start" x="23.5" y="-177.2" font-family="Helvetica,sans-Serif" font-weight="bold" font-size="11.00">ref_id</text>
<text text-anchor="start" x="100.5" y="-176.2" font-family="Helvetica,sans-Serif" font-size="11.00">[table]</text>
<polygon fill="none" stroke="black" points="18.5,-146 18.5,-168 135.5,-168 135.5,-146 18.5,-146"/>
<image xlink:href="../../images/primaryKeys.png" width="11px" height="12px" preserveAspectRatio="xMinYMin meet" x="23.5" y="-163"/>
<text text-anchor="start" x="51.5" y="-154.2" font-family="Helvetica,sans-Serif" font-size="11.00">id</text>
<polygon fill="none" stroke="black" points="18.5,-124 18.5,-146 135.5,-146 135.5,-124 18.5,-124"/>
<image xlink:href="../../images/foreignKeys.png" width="11px" height="12px" preserveAspectRatio="xMinYMin meet" x="23.5" y="-141"/>
<text text-anchor="start" x="51.5" y="-132.2" font-family="Helvetica,sans-Serif" font-size="11.00">customer_id</text>
<polygon fill="#ffffff" stroke="transparent" points="18.5,-102 18.5,-124 135.5,-124 135.5,-102 18.5,-102"/>
<polygon fill="none" stroke="black" points="18.5,-102 18.5,-124 135.5,-124 135.5,-102 18.5,-102"/>
<text text-anchor="start" x="51.5" y="-110.2" font-family="Helvetica,sans-Serif" font-size="11.00">is_active</text>
<polygon fill="none" stroke="black" points="18.5,-84 18.5,-102 135.5,-102 135.5,-84 18.5,-84"/>
<text text-anchor="start" x="21.5" y="-90.2" font-family="Helvetica,sans-Serif" font-size="11.00">...</text>
<polygon fill="#ffffff" stroke="transparent" points="18.5,-66 18.5,-84 40.5,-84 40.5,-66 18.5,-66"/>
<polygon fill="none" stroke="black" points="18.5,-66 18.5,-84 40.5,-84 40.5,-66 18.5,-66"/>
<text text-anchor="start" x="21.5" y="-72.2" font-family="Helvetica,sans-Serif" font-size="11.00">&lt; 1</text>
<polygon fill="#ffffff" stroke="transparent" points="40.5,-66 40.5,-84 113.5,-84 113.5,-66 40.5,-66"/>
<polygon fill="none" stroke="black" points="40.5,-66 40.5,-84 113.5,-84 113.5,-66 40.5,-66"/>
<text text-anchor="start" x="43.5" y="-72.2" font-family="Helvetica,sans-Serif" font-size="11.00">140,067 rows</text>
<polygon fill="#ffffff" stroke="transparent" points="113.5,-66 113.5,-84 135.5,-84 135.5,-66 113.5,-66"/>
<polygon fill="none" stroke="black" points="113.5,-66 113.5,-84 135.5,-84 135.5,-66 113.5,-66"/>
<text text-anchor="start" x="116.5" y="-72.2" font-family="Helvetica,sans-Serif" font-size="11.00">2 &gt;</text>
</a>
</g>
</g>
<!-- assets&#45;&gt;ref_id -->
<g id="edge4" class="edge">
<title>assets:w&#45;&gt;ref_id:e</title>
<path fill="none" stroke="black" d="M184.66,-187.46C165.03,-181.06 162.2,-157 136.5,-157"/>
<polygon fill="black" stroke="black" points="194.8,-184.93 193.62,-192.84 192.04,-192.6 193.22,-184.69 194.8,-184.93"/>
<polyline fill="none" stroke="black" points="195,-189 191.04,-188.41 "/>
<ellipse fill="none" stroke="black" cx="187.88" cy="-187.94" rx="3.2" ry="3.2"/>
</g>
<!-- assets_impact_functions -->
<g id="node6" class="node">
<title>assets_impact_functions</title>
<g id="a_node6"><a xlink:href="../../tables/assets_impact_functions.html" xlink:title="assets_impact_functions" target="_top">
<polygon fill="#ffffff" stroke="transparent" points="476,-485 476,-631 651,-631 651,-485 476,-485"/>
<polygon fill="#f5f5f5" stroke="transparent" points="476.5,-609 476.5,-631 651.5,-631 651.5,-609 476.5,-609"/>
<polygon fill="none" stroke="black" points="476.5,-609 476.5,-631 651.5,-631 651.5,-609 476.5,-609"/>
<text text-anchor="start" x="481.5" y="-618.2" font-family="Helvetica,sans-Serif" font-weight="bold" font-size="11.00">assets_impact_functions</text>
<text text-anchor="start" x="616.5" y="-617.2" font-family="Helvetica,sans-Serif" font-size="11.00">[table]</text>
<polygon fill="none" stroke="black" points="476.5,-587 476.5,-609 651.5,-609 651.5,-587 476.5,-587"/>
<image xlink:href="../../images/primaryKeys.png" width="11px" height="12px" preserveAspectRatio="xMinYMin meet" x="481.5" y="-604"/>
<text text-anchor="start" x="502.5" y="-595.2" font-family="Helvetica,sans-Serif" font-size="11.00">id</text>
<polygon fill="#ffffff" stroke="transparent" points="476.5,-565 476.5,-587 651.5,-587 651.5,-565 476.5,-565"/>
<polygon fill="none" stroke="black" points="476.5,-565 476.5,-587 651.5,-587 651.5,-565 476.5,-565"/>
<image xlink:href="../../images/foreignKeys.png" width="11px" height="12px" preserveAspectRatio="xMinYMin meet" x="481.5" y="-582"/>
<text text-anchor="start" x="502.5" y="-573.2" font-family="Helvetica,sans-Serif" font-size="11.00">asset_id</text>
<polygon fill="none" stroke="black" points="476.5,-543 476.5,-565 651.5,-565 651.5,-543 476.5,-543"/>
<image xlink:href="../../images/foreignKeys.png" width="11px" height="12px" preserveAspectRatio="xMinYMin meet" x="481.5" y="-560"/>
<text text-anchor="start" x="502.5" y="-551.2" font-family="Helvetica,sans-Serif" font-size="11.00">impact_function_id</text>
<polygon fill="#ffffff" stroke="transparent" points="476.5,-521 476.5,-543 651.5,-543 651.5,-521 476.5,-521"/>
<polygon fill="none" stroke="black" points="476.5,-521 476.5,-543 651.5,-543 651.5,-521 476.5,-521"/>
<image xlink:href="../../images/foreignKeys.png" width="11px" height="12px" preserveAspectRatio="xMinYMin meet" x="481.5" y="-538"/>
<text text-anchor="start" x="502.5" y="-529.2" font-family="Helvetica,sans-Serif" font-size="11.00">risk_factor_id</text>
<polygon fill="none" stroke="black" points="476.5,-503 476.5,-521 651.5,-521 651.5,-503 476.5,-503"/>
<text text-anchor="start" x="479.5" y="-509.2" font-family="Helvetica,sans-Serif" font-size="11.00">...</text>
<polygon fill="#ffffff" stroke="transparent" points="476.5,-485 476.5,-503 531.5,-503 531.5,-485 476.5,-485"/>
<polygon fill="none" stroke="black" points="476.5,-485 476.5,-503 531.5,-503 531.5,-485 476.5,-485"/>
<text text-anchor="start" x="479.5" y="-491.2" font-family="Helvetica,sans-Serif" font-size="11.00">&lt; 3</text>
<polygon fill="#ffffff" stroke="transparent" points="531.5,-485 531.5,-503 621.5,-503 621.5,-485 531.5,-485"/>
<polygon fill="none" stroke="black" points="531.5,-485 531.5,-503 621.5,-503 621.5,-485 531.5,-485"/>
<text text-anchor="start" x="551.5" y="-491.2" font-family="Helvetica,sans-Serif" font-size="11.00">654,369 rows</text>
<polygon fill="#ffffff" stroke="transparent" points="621.5,-485 621.5,-503 651.5,-503 651.5,-485 621.5,-485"/>
<polygon fill="none" stroke="black" points="621.5,-485 621.5,-503 651.5,-503 651.5,-485 621.5,-485"/>
<text text-anchor="start" x="641.5" y="-491.2" font-family="Helvetica,sans-Serif" font-size="11.00"> &#160;</text>
</a>
</g>
</g>
<!-- assets_impact_functions&#45;&gt;assets -->
<g id="edge5" class="edge">
<title>assets_impact_functions:w&#45;&gt;assets:e</title>
<path fill="none" stroke="black" d="M461.32,-573.48C414.91,-554.23 472.71,-431 407,-431"/>
<polygon fill="black" stroke="black" points="467.62,-574.6 474.87,-579.54 471.56,-575.3 475.5,-576 475.5,-576 475.5,-576 471.56,-575.3 476.13,-572.46 467.62,-574.6 467.62,-574.6"/>
<ellipse fill="none" stroke="black" cx="464.47" cy="-574.04" rx="3.2" ry="3.2"/>
</g>
<!-- assets_tags -->
<g id="node7" class="node">
<title>assets_tags</title>
<g id="a_node7"><a xlink:href="../../tables/assets_tags.html" xlink:title="assets_tags" target="_top">
<polygon fill="#ffffff" stroke="transparent" points="509.5,-380 509.5,-464 617.5,-464 617.5,-380 509.5,-380"/>
<polygon fill="#f5f5f5" stroke="transparent" points="509.5,-442 509.5,-464 617.5,-464 617.5,-442 509.5,-442"/>
<polygon fill="none" stroke="black" points="509.5,-442 509.5,-464 617.5,-464 617.5,-442 509.5,-442"/>
<text text-anchor="start" x="514.5" y="-451.2" font-family="Helvetica,sans-Serif" font-weight="bold" font-size="11.00">assets_tags</text>
<text text-anchor="start" x="582.5" y="-450.2" font-family="Helvetica,sans-Serif" font-size="11.00">[table]</text>
<polygon fill="none" stroke="black" points="509.5,-420 509.5,-442 617.5,-442 617.5,-420 509.5,-420"/>
<image xlink:href="../../images/primaryKeys.png" width="11px" height="12px" preserveAspectRatio="xMinYMin meet" x="514.5" y="-437"/>
<text text-anchor="start" x="539.5" y="-428.2" font-family="Helvetica,sans-Serif" font-size="11.00">asset_id</text>
<polygon fill="none" stroke="black" points="509.5,-398 509.5,-420 617.5,-420 617.5,-398 509.5,-398"/>
<image xlink:href="../../images/primaryKeys.png" width="11px" height="12px" preserveAspectRatio="xMinYMin meet" x="514.5" y="-415"/>
<text text-anchor="start" x="539.5" y="-406.2" font-family="Helvetica,sans-Serif" font-size="11.00">tag_id</text>
<polygon fill="#ffffff" stroke="transparent" points="509.5,-380 509.5,-398 534.5,-398 534.5,-380 509.5,-380"/>
<polygon fill="none" stroke="black" points="509.5,-380 509.5,-398 534.5,-398 534.5,-380 509.5,-380"/>
<text text-anchor="start" x="512.5" y="-386.2" font-family="Helvetica,sans-Serif" font-size="11.00">&lt; 2</text>
<polygon fill="#ffffff" stroke="transparent" points="534.5,-380 534.5,-398 602.5,-398 602.5,-380 534.5,-380"/>
<polygon fill="none" stroke="black" points="534.5,-380 534.5,-398 602.5,-398 602.5,-380 534.5,-380"/>
<text text-anchor="start" x="538.5" y="-386.2" font-family="Helvetica,sans-Serif" font-size="11.00">22,144 rows</text>
<polygon fill="#ffffff" stroke="transparent" points="602.5,-380 602.5,-398 617.5,-398 617.5,-380 602.5,-380"/>
<polygon fill="none" stroke="black" points="602.5,-380 602.5,-398 617.5,-398 617.5,-380 602.5,-380"/>
<text text-anchor="start" x="607.5" y="-386.2" font-family="Helvetica,sans-Serif" font-size="11.00"> &#160;</text>
</a>
</g>
</g>
<!-- assets_tags&#45;&gt;assets -->
<g id="edge6" class="edge">
<title>assets_tags:w&#45;&gt;assets:e</title>
<path fill="none" stroke="black" d="M493.93,-431C460.28,-431 446.82,-431 407,-431"/>
<polygon fill="black" stroke="black" points="500.5,-431 508.5,-434.6 504.5,-431 508.5,-431 508.5,-431 508.5,-431 504.5,-431 508.5,-427.4 500.5,-431 500.5,-431"/>
<ellipse fill="none" stroke="black" cx="497.3" cy="-431" rx="3.2" ry="3.2"/>
</g>
<!-- locations -->
<g id="node8" class="node">
<title>locations</title>
<g id="a_node8"><a xlink:href="../../tables/locations.html" xlink:title="locations" target="_top">
<polygon fill="#ffffff" stroke="transparent" points="457,-37 457,-359 670,-359 670,-37 457,-37"/>
<polygon fill="#f5f5f5" stroke="transparent" points="457.5,-337 457.5,-359 670.5,-359 670.5,-337 457.5,-337"/>
<polygon fill="none" stroke="black" points="457.5,-337 457.5,-359 670.5,-359 670.5,-337 457.5,-337"/>
<text text-anchor="start" x="462.5" y="-346.2" font-family="Helvetica,sans-Serif" font-weight="bold" font-size="11.00">locations</text>
<text text-anchor="start" x="635.5" y="-345.2" font-family="Helvetica,sans-Serif" font-size="11.00">[table]</text>
<polygon fill="none" stroke="black" points="457.5,-315 457.5,-337 670.5,-337 670.5,-315 457.5,-315"/>
<image xlink:href="../../images/primaryKeys.png" width="11px" height="12px" preserveAspectRatio="xMinYMin meet" x="462.5" y="-332"/>
<text text-anchor="start" x="477.5" y="-323.2" font-family="Helvetica,sans-Serif" font-size="11.00">id</text>
<polygon fill="#ffffff" stroke="transparent" points="457.5,-293 457.5,-315 670.5,-315 670.5,-293 457.5,-293"/>
<polygon fill="none" stroke="black" points="457.5,-293 457.5,-315 670.5,-315 670.5,-293 457.5,-293"/>
<image xlink:href="../../images/foreignKeys.png" width="11px" height="12px" preserveAspectRatio="xMinYMin meet" x="462.5" y="-310"/>
<text text-anchor="start" x="477.5" y="-301.2" font-family="Helvetica,sans-Serif" font-size="11.00">asset_id</text>
<polygon fill="#ffffff" stroke="transparent" points="457.5,-271 457.5,-293 670.5,-293 670.5,-271 457.5,-271"/>
<polygon fill="none" stroke="black" points="457.5,-271 457.5,-293 670.5,-293 670.5,-271 457.5,-271"/>
<text text-anchor="start" x="477.5" y="-279.2" font-family="Helvetica,sans-Serif" font-size="11.00">name</text>
<polygon fill="#ffffff" stroke="transparent" points="457.5,-249 457.5,-271 670.5,-271 670.5,-249 457.5,-249"/>
<polygon fill="none" stroke="black" points="457.5,-249 457.5,-271 670.5,-271 670.5,-249 457.5,-249"/>
<text text-anchor="start" x="477.5" y="-257.2" font-family="Helvetica,sans-Serif" font-size="11.00">admin_area_level0</text>
<polygon fill="#ffffff" stroke="transparent" points="457.5,-227 457.5,-249 670.5,-249 670.5,-227 457.5,-227"/>
<polygon fill="none" stroke="black" points="457.5,-227 457.5,-249 670.5,-249 670.5,-227 457.5,-227"/>
<text text-anchor="start" x="477.5" y="-235.2" font-family="Helvetica,sans-Serif" font-size="11.00">admin_area_level1</text>
<polygon fill="#ffffff" stroke="transparent" points="457.5,-205 457.5,-227 670.5,-227 670.5,-205 457.5,-205"/>
<polygon fill="none" stroke="black" points="457.5,-205 457.5,-227 670.5,-227 670.5,-205 457.5,-205"/>
<text text-anchor="start" x="477.5" y="-213.2" font-family="Helvetica,sans-Serif" font-size="11.00">admin_area_level2</text>
<polygon fill="#ffffff" stroke="transparent" points="457.5,-183 457.5,-205 670.5,-205 670.5,-183 457.5,-183"/>
<polygon fill="none" stroke="black" points="457.5,-183 457.5,-205 670.5,-205 670.5,-183 457.5,-183"/>
<text text-anchor="start" x="477.5" y="-191.2" font-family="Helvetica,sans-Serif" font-size="11.00">proc_flag_loc_eval_risks</text>
<polygon fill="#ffffff" stroke="transparent" points="457.5,-161 457.5,-183 670.5,-183 670.5,-161 457.5,-161"/>
<polygon fill="none" stroke="black" points="457.5,-161 457.5,-183 670.5,-183 670.5,-161 457.5,-161"/>
<text text-anchor="start" x="477.5" y="-169.2" font-family="Helvetica,sans-Serif" font-size="11.00">proc_flag_loc_assign_gridded</text>
<polygon fill="#ffffff" stroke="transparent" points="457.5,-139 457.5,-161 670.5,-161 670.5,-139 457.5,-139"/>
<polygon fill="none" stroke="black" points="457.5,-139 457.5,-161 670.5,-161 670.5,-139 457.5,-139"/>
<text text-anchor="start" x="477.5" y="-147.2" font-family="Helvetica,sans-Serif" font-size="11.00">proc_flag_loc_assign_segmented</text>
<polygon fill="#ffffff" stroke="transparent" points="457.5,-117 457.5,-139 670.5,-139 670.5,-117 457.5,-117"/>
<polygon fill="none" stroke="black" points="457.5,-117 457.5,-139 670.5,-139 670.5,-117 457.5,-117"/>
<text text-anchor="start" x="477.5" y="-125.2" font-family="Helvetica,sans-Serif" font-size="11.00">proc_flag_loc_assign_point</text>
<polygon fill="#ffffff" stroke="transparent" points="457.5,-95 457.5,-117 670.5,-117 670.5,-95 457.5,-95"/>
<polygon fill="none" stroke="black" points="457.5,-95 457.5,-117 670.5,-117 670.5,-95 457.5,-95"/>
<text text-anchor="start" x="477.5" y="-103.2" font-family="Helvetica,sans-Serif" font-size="11.00">proc_flag_loc_assign_regional</text>
<polygon fill="#ffffff" stroke="transparent" points="457.5,-73 457.5,-95 670.5,-95 670.5,-73 457.5,-73"/>
<polygon fill="none" stroke="black" points="457.5,-73 457.5,-95 670.5,-95 670.5,-73 457.5,-73"/>
<image xlink:href="../../images/foreignKeys.png" width="11px" height="12px" preserveAspectRatio="xMinYMin meet" x="462.5" y="-90"/>
<text text-anchor="start" x="477.5" y="-81.2" font-family="Helvetica,sans-Serif" font-size="11.00">ref_id</text>
<polygon fill="none" stroke="black" points="457.5,-55 457.5,-73 670.5,-73 670.5,-55 457.5,-55"/>
<text text-anchor="start" x="460.5" y="-61.2" font-family="Helvetica,sans-Serif" font-size="11.00">...</text>
<polygon fill="#ffffff" stroke="transparent" points="457.5,-37 457.5,-55 530.5,-55 530.5,-37 457.5,-37"/>
<polygon fill="none" stroke="black" points="457.5,-37 457.5,-55 530.5,-55 530.5,-37 457.5,-37"/>
<text text-anchor="start" x="460.5" y="-43.2" font-family="Helvetica,sans-Serif" font-size="11.00">&lt; 2</text>
<polygon fill="#ffffff" stroke="transparent" points="530.5,-37 530.5,-55 622.5,-55 622.5,-37 530.5,-37"/>
<polygon fill="none" stroke="black" points="530.5,-37 530.5,-55 622.5,-55 622.5,-37 530.5,-37"/>
<text text-anchor="start" x="558.5" y="-43.2" font-family="Helvetica,sans-Serif" font-size="11.00">81,629 rows</text>
<polygon fill="#ffffff" stroke="transparent" points="622.5,-37 622.5,-55 670.5,-55 670.5,-37 622.5,-37"/>
<polygon fill="none" stroke="black" points="622.5,-37 622.5,-55 670.5,-55 670.5,-37 622.5,-37"/>
<text text-anchor="start" x="651.5" y="-43.2" font-family="Helvetica,sans-Serif" font-size="11.00">3 &gt;</text>
</a>
</g>
</g>
<!-- locations&#45;&gt;assets -->
<g id="edge7" class="edge">
<title>locations:w&#45;&gt;assets:e</title>
<path fill="none" stroke="black" d="M442.29,-307.4C408.65,-327.59 461.66,-431 407,-431"/>
<polygon fill="black" stroke="black" points="448.72,-305.86 457.34,-307.5 452.61,-304.93 456.5,-304 456.5,-304 456.5,-304 452.61,-304.93 455.66,-300.5 448.72,-305.86 448.72,-305.86"/>
<ellipse fill="none" stroke="black" cx="445.61" cy="-306.6" rx="3.2" ry="3.2"/>
</g>
<!-- locations&#45;&gt;ref_id -->
<g id="edge8" class="edge">
<title>locations:w&#45;&gt;ref_id:e</title>
<path fill="none" stroke="black" d="M442.1,-86.35C380.41,-98.84 152.78,-157 136.5,-157"/>
<polygon fill="black" stroke="black" points="448.6,-85.29 457.08,-87.55 452.55,-84.64 456.5,-84 456.5,-84 456.5,-84 452.55,-84.64 455.92,-80.45 448.6,-85.29 448.6,-85.29"/>
<ellipse fill="none" stroke="black" cx="445.45" cy="-85.8" rx="3.2" ry="3.2"/>
</g>
</g>
</svg>
