<?xml version="1.0" encoding="UTF-8" standalone="no"?>
<!DOCTYPE svg PUBLIC "-//W3C//DTD SVG 1.1//EN"
 "http://www.w3.org/Graphics/SVG/1.1/DTD/svg11.dtd">
<!-- Generated by graphviz version 2.50.0 (20211204.2007)
 -->
<!-- Title: twoDegreesRelationshipsDiagram Pages: 1 -->
<svg width="688pt" height="462pt"
 viewBox="0.00 0.00 688.00 462.00" xmlns="http://www.w3.org/2000/svg" xmlns:xlink="http://www.w3.org/1999/xlink">
<g id="graph0" class="graph" transform="scale(1 1) rotate(0) translate(4 458)">
<title>twoDegreesRelationshipsDiagram</title>
<polygon fill="#ffffff" stroke="transparent" points="-4,4 -4,-458 684,-458 684,4 -4,4"/>
<text text-anchor="middle" x="72.5" y="-7.2" font-family="Helvetica,sans-Serif" font-size="11.00">Generated by SchemaSpy</text>
<!-- asset_values -->
<g id="node1" class="node">
<title>asset_values</title>
<g id="a_node1"><a xlink:href="../../tables/asset_values.html" xlink:title="asset_values" target="_top">
<polygon fill="#ffffff" stroke="transparent" points="527.5,-392 527.5,-450 641.5,-450 641.5,-392 527.5,-392"/>
<polygon fill="#f5f5f5" stroke="transparent" points="527.5,-428 527.5,-450 641.5,-450 641.5,-428 527.5,-428"/>
<polygon fill="none" stroke="black" points="527.5,-428 527.5,-450 641.5,-450 641.5,-428 527.5,-428"/>
<text text-anchor="start" x="532.5" y="-437.2" font-family="Helvetica,sans-Serif" font-weight="bold" font-size="11.00">asset_values</text>
<text text-anchor="start" x="606.5" y="-436.2" font-family="Helvetica,sans-Serif" font-size="11.00">[table]</text>
<polygon fill="none" stroke="black" points="527.5,-410 527.5,-428 641.5,-428 641.5,-410 527.5,-410"/>
<text text-anchor="start" x="530.5" y="-416.2" font-family="Helvetica,sans-Serif" font-size="11.00">...</text>
<polygon fill="#ffffff" stroke="transparent" points="527.5,-392 527.5,-410 568.5,-410 568.5,-392 527.5,-392"/>
<polygon fill="none" stroke="black" points="527.5,-392 527.5,-410 568.5,-410 568.5,-392 527.5,-392"/>
<text text-anchor="start" x="530.5" y="-398.2" font-family="Helvetica,sans-Serif" font-size="11.00">&lt; 2</text>
<polygon fill="#ffffff" stroke="transparent" points="568.5,-392 568.5,-410 618.5,-410 618.5,-392 568.5,-392"/>
<polygon fill="none" stroke="black" points="568.5,-392 568.5,-410 618.5,-410 618.5,-392 568.5,-392"/>
<text text-anchor="start" x="581.5" y="-398.2" font-family="Helvetica,sans-Serif" font-size="11.00">8 rows</text>
<polygon fill="#ffffff" stroke="transparent" points="618.5,-392 618.5,-410 641.5,-410 641.5,-392 618.5,-392"/>
<polygon fill="none" stroke="black" points="618.5,-392 618.5,-410 641.5,-410 641.5,-392 618.5,-392"/>
<text text-anchor="start" x="631.5" y="-398.2" font-family="Helvetica,sans-Serif" font-size="11.00"> &#160;</text>
</a>
</g>
</g>
<!-- assets -->
<g id="node2" class="node">
<title>assets</title>
<g id="a_node2"><a xlink:href="../../tables/assets.html" xlink:title="assets" target="_top">
<polygon fill="#ffffff" stroke="transparent" points="323,-209 323,-377 448,-377 448,-209 323,-209"/>
<polygon fill="#f5f5f5" stroke="transparent" points="323.5,-355 323.5,-377 448.5,-377 448.5,-355 323.5,-355"/>
<polygon fill="none" stroke="black" points="323.5,-355 323.5,-377 448.5,-377 448.5,-355 323.5,-355"/>
<text text-anchor="start" x="328.5" y="-364.2" font-family="Helvetica,sans-Serif" font-weight="bold" font-size="11.00">assets</text>
<text text-anchor="start" x="413.5" y="-363.2" font-family="Helvetica,sans-Serif" font-size="11.00">[table]</text>
<polygon fill="none" stroke="black" points="323.5,-333 323.5,-355 448.5,-355 448.5,-333 323.5,-333"/>
<image xlink:href="../../images/primaryKeys.png" width="11px" height="12px" preserveAspectRatio="xMinYMin meet" x="328.5" y="-350"/>
<text text-anchor="start" x="343.5" y="-341.2" font-family="Helvetica,sans-Serif" font-size="11.00">id</text>
<polygon fill="none" stroke="black" points="323.5,-311 323.5,-333 448.5,-333 448.5,-311 323.5,-311"/>
<image xlink:href="../../images/foreignKeys.png" width="11px" height="12px" preserveAspectRatio="xMinYMin meet" x="328.5" y="-328"/>
<text text-anchor="start" x="343.5" y="-319.2" font-family="Helvetica,sans-Serif" font-size="11.00">investment_id</text>
<polygon fill="none" stroke="black" points="323.5,-289 323.5,-311 448.5,-311 448.5,-289 323.5,-289"/>
<image xlink:href="../../images/foreignKeys.png" width="11px" height="12px" preserveAspectRatio="xMinYMin meet" x="328.5" y="-306"/>
<text text-anchor="start" x="343.5" y="-297.2" font-family="Helvetica,sans-Serif" font-size="11.00">asset_type_id</text>
<polygon fill="#ffffff" stroke="transparent" points="323.5,-267 323.5,-289 448.5,-289 448.5,-267 323.5,-267"/>
<polygon fill="none" stroke="black" points="323.5,-267 323.5,-289 448.5,-289 448.5,-267 323.5,-267"/>
<text text-anchor="start" x="343.5" y="-275.2" font-family="Helvetica,sans-Serif" font-size="11.00">is_active</text>
<polygon fill="#ffffff" stroke="transparent" points="323.5,-245 323.5,-267 448.5,-267 448.5,-245 323.5,-245"/>
<polygon fill="none" stroke="black" points="323.5,-245 323.5,-267 448.5,-267 448.5,-245 323.5,-245"/>
<image xlink:href="../../images/foreignKeys.png" width="11px" height="12px" preserveAspectRatio="xMinYMin meet" x="328.5" y="-262"/>
<text text-anchor="start" x="343.5" y="-253.2" font-family="Helvetica,sans-Serif" font-size="11.00">ref_id</text>
<polygon fill="none" stroke="black" points="323.5,-227 323.5,-245 448.5,-245 448.5,-227 323.5,-227"/>
<text text-anchor="start" x="326.5" y="-233.2" font-family="Helvetica,sans-Serif" font-size="11.00">...</text>
<polygon fill="#ffffff" stroke="transparent" points="323.5,-209 323.5,-227 352.5,-227 352.5,-209 323.5,-209"/>
<polygon fill="none" stroke="black" points="323.5,-209 323.5,-227 352.5,-227 352.5,-209 323.5,-209"/>
<text text-anchor="start" x="326.5" y="-215.2" font-family="Helvetica,sans-Serif" font-size="11.00">&lt; 3</text>
<polygon fill="#ffffff" stroke="transparent" points="352.5,-209 352.5,-227 422.5,-227 422.5,-209 352.5,-209"/>
<polygon fill="none" stroke="black" points="352.5,-209 352.5,-227 422.5,-227 422.5,-209 352.5,-209"/>
<text text-anchor="start" x="358.5" y="-215.2" font-family="Helvetica,sans-Serif" font-size="11.00">78,452 rows</text>
<polygon fill="#ffffff" stroke="transparent" points="422.5,-209 422.5,-227 448.5,-227 448.5,-209 422.5,-209"/>
<polygon fill="none" stroke="black" points="422.5,-209 422.5,-227 448.5,-227 448.5,-209 422.5,-209"/>
<text text-anchor="start" x="429.5" y="-215.2" font-family="Helvetica,sans-Serif" font-size="11.00">4 &gt;</text>
</a>
</g>
</g>
<!-- asset_values&#45;&gt;assets -->
<g id="edge1" class="edge">
<title>asset_values:w&#45;&gt;assets:e</title>
<path fill="none" stroke="black" d="M512.22,-416.15C482.16,-402.45 491.67,-344 449.5,-344"/>
<polygon fill="black" stroke="black" points="518.65,-417.43 525.8,-422.53 522.58,-418.22 526.5,-419 526.5,-419 526.5,-419 522.58,-418.22 527.2,-415.47 518.65,-417.43 518.65,-417.43"/>
<ellipse fill="none" stroke="black" cx="515.52" cy="-416.81" rx="3.2" ry="3.2"/>
</g>
<!-- asset_types -->
<g id="node3" class="node">
<title>asset_types</title>
<g id="a_node3"><a xlink:href="../../tables/asset_types.html" xlink:title="asset_types" target="_top">
<polygon fill="#ffffff" stroke="transparent" points="161.5,-255 161.5,-313 269.5,-313 269.5,-255 161.5,-255"/>
<polygon fill="#f5f5f5" stroke="transparent" points="161.5,-291 161.5,-313 269.5,-313 269.5,-291 161.5,-291"/>
<polygon fill="none" stroke="black" points="161.5,-291 161.5,-313 269.5,-313 269.5,-291 161.5,-291"/>
<text text-anchor="start" x="166.5" y="-300.2" font-family="Helvetica,sans-Serif" font-weight="bold" font-size="11.00">asset_types</text>
<text text-anchor="start" x="234.5" y="-299.2" font-family="Helvetica,sans-Serif" font-size="11.00">[table]</text>
<polygon fill="none" stroke="black" points="161.5,-273 161.5,-291 269.5,-291 269.5,-273 161.5,-273"/>
<text text-anchor="start" x="164.5" y="-279.2" font-family="Helvetica,sans-Serif" font-size="11.00">...</text>
<polygon fill="#ffffff" stroke="transparent" points="161.5,-255 161.5,-273 180.5,-273 180.5,-255 161.5,-255"/>
<polygon fill="none" stroke="black" points="161.5,-255 161.5,-273 180.5,-273 180.5,-255 161.5,-255"/>
<text text-anchor="start" x="164.5" y="-261.2" font-family="Helvetica,sans-Serif" font-size="11.00"> &#160;</text>
<polygon fill="#ffffff" stroke="transparent" points="180.5,-255 180.5,-273 244.5,-273 244.5,-255 180.5,-255"/>
<polygon fill="none" stroke="black" points="180.5,-255 180.5,-273 244.5,-273 244.5,-255 180.5,-255"/>
<text text-anchor="start" x="186.5" y="-261.2" font-family="Helvetica,sans-Serif" font-size="11.00">1,156 rows</text>
<polygon fill="#ffffff" stroke="transparent" points="244.5,-255 244.5,-273 269.5,-273 269.5,-255 244.5,-255"/>
<polygon fill="none" stroke="black" points="244.5,-255 244.5,-273 269.5,-273 269.5,-255 244.5,-255"/>
<text text-anchor="start" x="250.5" y="-261.2" font-family="Helvetica,sans-Serif" font-size="11.00">3 &gt;</text>
</a>
</g>
</g>
<!-- assets&#45;&gt;asset_types -->
<g id="edge2" class="edge">
<title>assets:w&#45;&gt;asset_types:e</title>
<path fill="none" stroke="black" d="M308.28,-297.5C295.42,-292.55 289.22,-282 270.5,-282"/>
<polygon fill="black" stroke="black" points="314.62,-298.61 321.88,-303.55 318.56,-299.31 322.5,-300 322.5,-300 322.5,-300 318.56,-299.31 323.12,-296.45 314.62,-298.61 314.62,-298.61"/>
<ellipse fill="none" stroke="black" cx="311.47" cy="-298.06" rx="3.2" ry="3.2"/>
</g>
<!-- investments -->
<g id="node4" class="node">
<title>investments</title>
<g id="a_node4"><a xlink:href="../../tables/investments.html" xlink:title="investments" target="_top">
<polygon fill="#ffffff" stroke="transparent" points="160.5,-334 160.5,-392 270.5,-392 270.5,-334 160.5,-334"/>
<polygon fill="#f5f5f5" stroke="transparent" points="160.5,-370 160.5,-392 270.5,-392 270.5,-370 160.5,-370"/>
<polygon fill="none" stroke="black" points="160.5,-370 160.5,-392 270.5,-392 270.5,-370 160.5,-370"/>
<text text-anchor="start" x="165.5" y="-379.2" font-family="Helvetica,sans-Serif" font-weight="bold" font-size="11.00">investments</text>
<text text-anchor="start" x="235.5" y="-378.2" font-family="Helvetica,sans-Serif" font-size="11.00">[table]</text>
<polygon fill="none" stroke="black" points="160.5,-352 160.5,-370 270.5,-370 270.5,-352 160.5,-352"/>
<text text-anchor="start" x="163.5" y="-358.2" font-family="Helvetica,sans-Serif" font-size="11.00">...</text>
<polygon fill="#ffffff" stroke="transparent" points="160.5,-334 160.5,-352 184.5,-352 184.5,-334 160.5,-334"/>
<polygon fill="none" stroke="black" points="160.5,-334 160.5,-352 184.5,-352 184.5,-334 160.5,-334"/>
<text text-anchor="start" x="163.5" y="-340.2" font-family="Helvetica,sans-Serif" font-size="11.00">&lt; 1</text>
<polygon fill="#ffffff" stroke="transparent" points="184.5,-334 184.5,-352 246.5,-352 246.5,-334 184.5,-334"/>
<polygon fill="none" stroke="black" points="184.5,-334 184.5,-352 246.5,-352 246.5,-334 184.5,-334"/>
<text text-anchor="start" x="188.5" y="-340.2" font-family="Helvetica,sans-Serif" font-size="11.00">2,996 rows</text>
<polygon fill="#ffffff" stroke="transparent" points="246.5,-334 246.5,-352 270.5,-352 270.5,-334 246.5,-334"/>
<polygon fill="none" stroke="black" points="246.5,-334 246.5,-352 270.5,-352 270.5,-334 246.5,-334"/>
<text text-anchor="start" x="251.5" y="-340.2" font-family="Helvetica,sans-Serif" font-size="11.00">2 &gt;</text>
</a>
</g>
</g>
<!-- assets&#45;&gt;investments -->
<g id="edge3" class="edge">
<title>assets:w&#45;&gt;investments:e</title>
<path fill="none" stroke="black" d="M308.41,-326.47C294.99,-336.72 294.02,-361 271.5,-361"/>
<polygon fill="black" stroke="black" points="314.88,-324.42 323.59,-325.43 318.69,-323.21 322.5,-322 322.5,-322 322.5,-322 318.69,-323.21 321.41,-318.57 314.88,-324.42 314.88,-324.42"/>
<ellipse fill="none" stroke="black" cx="311.83" cy="-325.39" rx="3.2" ry="3.2"/>
</g>
<!-- ref_id -->
<g id="node5" class="node">
<title>ref_id</title>
<g id="a_node5"><a xlink:href="../../tables/ref_id.html" xlink:title="ref_id" target="_top">
<polygon fill="#ffffff" stroke="transparent" points="157,-158 157,-216 274,-216 274,-158 157,-158"/>
<polygon fill="#f5f5f5" stroke="transparent" points="157.5,-194 157.5,-216 274.5,-216 274.5,-194 157.5,-194"/>
<polygon fill="none" stroke="black" points="157.5,-194 157.5,-216 274.5,-216 274.5,-194 157.5,-194"/>
<text text-anchor="start" x="162.5" y="-203.2" font-family="Helvetica,sans-Serif" font-weight="bold" font-size="11.00">ref_id</text>
<text text-anchor="start" x="239.5" y="-202.2" font-family="Helvetica,sans-Serif" font-size="11.00">[table]</text>
<polygon fill="none" stroke="black" points="157.5,-176 157.5,-194 274.5,-194 274.5,-176 157.5,-176"/>
<text text-anchor="start" x="160.5" y="-182.2" font-family="Helvetica,sans-Serif" font-size="11.00">...</text>
<polygon fill="#ffffff" stroke="transparent" points="157.5,-158 157.5,-176 179.5,-176 179.5,-158 157.5,-158"/>
<polygon fill="none" stroke="black" points="157.5,-158 157.5,-176 179.5,-176 179.5,-158 157.5,-158"/>
<text text-anchor="start" x="160.5" y="-164.2" font-family="Helvetica,sans-Serif" font-size="11.00">&lt; 1</text>
<polygon fill="#ffffff" stroke="transparent" points="179.5,-158 179.5,-176 252.5,-176 252.5,-158 179.5,-158"/>
<polygon fill="none" stroke="black" points="179.5,-158 179.5,-176 252.5,-176 252.5,-158 179.5,-158"/>
<text text-anchor="start" x="182.5" y="-164.2" font-family="Helvetica,sans-Serif" font-size="11.00">140,067 rows</text>
<polygon fill="#ffffff" stroke="transparent" points="252.5,-158 252.5,-176 274.5,-176 274.5,-158 252.5,-158"/>
<polygon fill="none" stroke="black" points="252.5,-158 252.5,-176 274.5,-176 274.5,-158 252.5,-158"/>
<text text-anchor="start" x="255.5" y="-164.2" font-family="Helvetica,sans-Serif" font-size="11.00">2 &gt;</text>
</a>
</g>
</g>
<!-- assets&#45;&gt;ref_id -->
<g id="edge4" class="edge">
<title>assets:w&#45;&gt;ref_id:e</title>
<path fill="none" stroke="black" d="M312.3,-253.64C290.14,-241.32 309.2,-185 275.5,-185"/>
<polygon fill="black" stroke="black" points="322.62,-251.92 320.82,-259.72 319.26,-259.36 321.06,-251.56 322.62,-251.92"/>
<polyline fill="none" stroke="black" points="322.5,-256 318.6,-255.1 "/>
<ellipse fill="none" stroke="black" cx="315.49" cy="-254.38" rx="3.2" ry="3.2"/>
</g>
<!-- customers -->
<g id="node10" class="node">
<title>customers</title>
<g id="a_node10"><a xlink:href="../../tables/customers.html" xlink:title="customers" target="_top">
<polygon fill="#ffffff" stroke="transparent" points="8,-125 8,-183 108,-183 108,-125 8,-125"/>
<polygon fill="#f5f5f5" stroke="transparent" points="8,-161 8,-183 108,-183 108,-161 8,-161"/>
<polygon fill="none" stroke="black" points="8,-161 8,-183 108,-183 108,-161 8,-161"/>
<text text-anchor="start" x="13" y="-170.2" font-family="Helvetica,sans-Serif" font-weight="bold" font-size="11.00">customers</text>
<text text-anchor="start" x="73" y="-169.2" font-family="Helvetica,sans-Serif" font-size="11.00">[table]</text>
<polygon fill="none" stroke="black" points="8,-143 8,-161 108,-161 108,-143 8,-143"/>
<text text-anchor="start" x="11" y="-149.2" font-family="Helvetica,sans-Serif" font-size="11.00">...</text>
<polygon fill="#ffffff" stroke="transparent" points="8,-125 8,-143 27,-143 27,-125 8,-125"/>
<polygon fill="none" stroke="black" points="8,-125 8,-143 27,-143 27,-125 8,-125"/>
<text text-anchor="start" x="11" y="-131.2" font-family="Helvetica,sans-Serif" font-size="11.00"> &#160;</text>
<polygon fill="#ffffff" stroke="transparent" points="27,-125 27,-143 82,-143 82,-125 27,-125"/>
<polygon fill="none" stroke="black" points="27,-125 27,-143 82,-143 82,-125 27,-125"/>
<text text-anchor="start" x="33" y="-131.2" font-family="Helvetica,sans-Serif" font-size="11.00">938 rows</text>
<polygon fill="#ffffff" stroke="transparent" points="82,-125 82,-143 108,-143 108,-125 82,-125"/>
<polygon fill="none" stroke="black" points="82,-125 82,-143 108,-143 108,-125 82,-125"/>
<text text-anchor="start" x="89" y="-131.2" font-family="Helvetica,sans-Serif" font-size="11.00">5 &gt;</text>
</a>
</g>
</g>
<!-- ref_id&#45;&gt;customers -->
<g id="edge10" class="edge">
<title>ref_id:w&#45;&gt;customers:e</title>
<path fill="none" stroke="black" d="M142.54,-180.41C131,-171.34 128.68,-152 109,-152"/>
<polygon fill="black" stroke="black" points="148.9,-182.5 155.38,-188.42 152.7,-183.75 156.5,-185 156.5,-185 156.5,-185 152.7,-183.75 157.62,-181.58 148.9,-182.5 148.9,-182.5"/>
<ellipse fill="none" stroke="black" cx="145.86" cy="-181.5" rx="3.2" ry="3.2"/>
</g>
<!-- assets_impact_functions -->
<g id="node6" class="node">
<title>assets_impact_functions</title>
<g id="a_node6"><a xlink:href="../../tables/assets_impact_functions.html" xlink:title="assets_impact_functions" target="_top">
<polygon fill="#ffffff" stroke="transparent" points="497,-313 497,-371 672,-371 672,-313 497,-313"/>
<polygon fill="#f5f5f5" stroke="transparent" points="497.5,-349 497.5,-371 672.5,-371 672.5,-349 497.5,-349"/>
<polygon fill="none" stroke="black" points="497.5,-349 497.5,-371 672.5,-371 672.5,-349 497.5,-349"/>
<text text-anchor="start" x="502.5" y="-358.2" font-family="Helvetica,sans-Serif" font-weight="bold" font-size="11.00">assets_impact_functions</text>
<text text-anchor="start" x="637.5" y="-357.2" font-family="Helvetica,sans-Serif" font-size="11.00">[table]</text>
<polygon fill="none" stroke="black" points="497.5,-331 497.5,-349 672.5,-349 672.5,-331 497.5,-331"/>
<text text-anchor="start" x="500.5" y="-337.2" font-family="Helvetica,sans-Serif" font-size="11.00">...</text>
<polygon fill="#ffffff" stroke="transparent" points="497.5,-313 497.5,-331 552.5,-331 552.5,-313 497.5,-313"/>
<polygon fill="none" stroke="black" points="497.5,-313 497.5,-331 552.5,-331 552.5,-313 497.5,-313"/>
<text text-anchor="start" x="500.5" y="-319.2" font-family="Helvetica,sans-Serif" font-size="11.00">&lt; 3</text>
<polygon fill="#ffffff" stroke="transparent" points="552.5,-313 552.5,-331 642.5,-331 642.5,-313 552.5,-313"/>
<polygon fill="none" stroke="black" points="552.5,-313 552.5,-331 642.5,-331 642.5,-313 552.5,-313"/>
<text text-anchor="start" x="572.5" y="-319.2" font-family="Helvetica,sans-Serif" font-size="11.00">654,369 rows</text>
<polygon fill="#ffffff" stroke="transparent" points="642.5,-313 642.5,-331 672.5,-331 672.5,-313 642.5,-313"/>
<polygon fill="none" stroke="black" points="642.5,-313 642.5,-331 672.5,-331 672.5,-313 642.5,-313"/>
<text text-anchor="start" x="662.5" y="-319.2" font-family="Helvetica,sans-Serif" font-size="11.00"> &#160;</text>
</a>
</g>
</g>
<!-- assets_impact_functions&#45;&gt;assets -->
<g id="edge5" class="edge">
<title>assets_impact_functions:w&#45;&gt;assets:e</title>
<path fill="none" stroke="black" d="M481.88,-340.77C471.43,-341.93 464.57,-344 449.5,-344"/>
<polygon fill="black" stroke="black" points="488.51,-340.42 496.69,-343.6 492.51,-340.21 496.5,-340 496.5,-340 496.5,-340 492.51,-340.21 496.31,-336.4 488.51,-340.42 488.51,-340.42"/>
<ellipse fill="none" stroke="black" cx="485.32" cy="-340.59" rx="3.2" ry="3.2"/>
</g>
<!-- assets_tags -->
<g id="node7" class="node">
<title>assets_tags</title>
<g id="a_node7"><a xlink:href="../../tables/assets_tags.html" xlink:title="assets_tags" target="_top">
<polygon fill="#ffffff" stroke="transparent" points="517,-101 517,-189 652,-189 652,-101 517,-101"/>
<polygon fill="#f5f5f5" stroke="transparent" points="519.5,-165 519.5,-187 650.5,-187 650.5,-165 519.5,-165"/>
<polygon fill="none" stroke="black" points="519.5,-165 519.5,-187 650.5,-187 650.5,-165 519.5,-165"/>
<text text-anchor="start" x="524.5" y="-174.2" font-family="Helvetica,sans-Serif" font-weight="bold" font-size="11.00">assets_tags</text>
<text text-anchor="start" x="615.5" y="-173.2" font-family="Helvetica,sans-Serif" font-size="11.00">[table]</text>
<polygon fill="none" stroke="black" points="519.5,-143 519.5,-165 608.5,-165 608.5,-143 519.5,-143"/>
<image xlink:href="../../images/primaryKeys.png" width="11px" height="12px" preserveAspectRatio="xMinYMin meet" x="524.5" y="-160"/>
<text text-anchor="start" x="539.5" y="-151.2" font-family="Helvetica,sans-Serif" font-size="11.00">asset_id</text>
<polygon fill="none" stroke="black" points="608.5,-143 608.5,-165 650.5,-165 650.5,-143 608.5,-143"/>
<text text-anchor="start" x="611.5" y="-151.2" font-family="Helvetica,sans-Serif" font-size="11.00">int4[10]</text>
<polygon fill="none" stroke="black" points="519.5,-121 519.5,-143 608.5,-143 608.5,-121 519.5,-121"/>
<image xlink:href="../../images/primaryKeys.png" width="11px" height="12px" preserveAspectRatio="xMinYMin meet" x="524.5" y="-138"/>
<text text-anchor="start" x="539.5" y="-129.2" font-family="Helvetica,sans-Serif" font-size="11.00">tag_id</text>
<polygon fill="none" stroke="black" points="608.5,-121 608.5,-143 650.5,-143 650.5,-121 608.5,-121"/>
<text text-anchor="start" x="611.5" y="-129.2" font-family="Helvetica,sans-Serif" font-size="11.00">int4[10]</text>
<polygon fill="#ffffff" stroke="transparent" points="519.5,-103 519.5,-121 541.5,-121 541.5,-103 519.5,-103"/>
<polygon fill="none" stroke="black" points="519.5,-103 519.5,-121 541.5,-121 541.5,-103 519.5,-103"/>
<text text-anchor="start" x="522.5" y="-109.2" font-family="Helvetica,sans-Serif" font-size="11.00">&lt; 2</text>
<polygon fill="#ffffff" stroke="transparent" points="541.5,-103 541.5,-121 608.5,-121 608.5,-103 541.5,-103"/>
<polygon fill="none" stroke="black" points="541.5,-103 541.5,-121 608.5,-121 608.5,-103 541.5,-103"/>
<text text-anchor="start" x="544.5" y="-109.2" font-family="Helvetica,sans-Serif" font-size="11.00">22,144 rows</text>
<polygon fill="#ffffff" stroke="transparent" points="608.5,-103 608.5,-121 650.5,-121 650.5,-103 608.5,-103"/>
<polygon fill="none" stroke="black" points="608.5,-103 608.5,-121 650.5,-121 650.5,-103 608.5,-103"/>
<text text-anchor="start" x="631.5" y="-109.2" font-family="Helvetica,sans-Serif" font-size="11.00">0 &gt;</text>
<polygon fill="none" stroke="black" stroke-width="2" points="518,-102 518,-188 651,-188 651,-102 518,-102"/>
</a>
</g>
</g>
<!-- assets_tags&#45;&gt;assets -->
<g id="edge6" class="edge">
<title>assets_tags:w&#45;&gt;assets:e</title>
<path fill="none" stroke="black" d="M503.91,-156.13C441.71,-177.01 533.73,-344 449.5,-344"/>
<polygon fill="black" stroke="black" points="510.58,-155.16 519.02,-157.56 514.54,-154.58 518.5,-154 518.5,-154 518.5,-154 514.54,-154.58 517.98,-150.44 510.58,-155.16 510.58,-155.16"/>
<ellipse fill="none" stroke="black" cx="507.42" cy="-155.62" rx="3.2" ry="3.2"/>
</g>
<!-- tags -->
<g id="node8" class="node">
<title>tags</title>
<g id="a_node8"><a xlink:href="../../tables/tags.html" xlink:title="tags" target="_top">
<polygon fill="#ffffff" stroke="transparent" points="337.5,-37 337.5,-161 433.5,-161 433.5,-37 337.5,-37"/>
<polygon fill="#f5f5f5" stroke="transparent" points="337.5,-139 337.5,-161 433.5,-161 433.5,-139 337.5,-139"/>
<polygon fill="none" stroke="black" points="337.5,-139 337.5,-161 433.5,-161 433.5,-139 337.5,-139"/>
<text text-anchor="start" x="342.5" y="-148.2" font-family="Helvetica,sans-Serif" font-weight="bold" font-size="11.00">tags</text>
<text text-anchor="start" x="398.5" y="-147.2" font-family="Helvetica,sans-Serif" font-size="11.00">[table]</text>
<polygon fill="none" stroke="black" points="337.5,-117 337.5,-139 433.5,-139 433.5,-117 337.5,-117"/>
<image xlink:href="../../images/primaryKeys.png" width="11px" height="12px" preserveAspectRatio="xMinYMin meet" x="342.5" y="-134"/>
<text text-anchor="start" x="359.5" y="-125.2" font-family="Helvetica,sans-Serif" font-size="11.00">id</text>
<polygon fill="#ffffff" stroke="transparent" points="337.5,-95 337.5,-117 433.5,-117 433.5,-95 337.5,-95"/>
<polygon fill="none" stroke="black" points="337.5,-95 337.5,-117 433.5,-117 433.5,-95 337.5,-95"/>
<image xlink:href="../../images/foreignKeys.png" width="11px" height="12px" preserveAspectRatio="xMinYMin meet" x="342.5" y="-112"/>
<text text-anchor="start" x="359.5" y="-103.2" font-family="Helvetica,sans-Serif" font-size="11.00">customer_id</text>
<polygon fill="#ffffff" stroke="transparent" points="337.5,-73 337.5,-95 433.5,-95 433.5,-73 337.5,-73"/>
<polygon fill="none" stroke="black" points="337.5,-73 337.5,-95 433.5,-95 433.5,-73 337.5,-73"/>
<text text-anchor="start" x="359.5" y="-81.2" font-family="Helvetica,sans-Serif" font-size="11.00">name</text>
<polygon fill="none" stroke="black" points="337.5,-55 337.5,-73 433.5,-73 433.5,-55 337.5,-55"/>
<text text-anchor="start" x="340.5" y="-61.2" font-family="Helvetica,sans-Serif" font-size="11.00">...</text>
<polygon fill="#ffffff" stroke="transparent" points="337.5,-37 337.5,-55 359.5,-55 359.5,-37 337.5,-37"/>
<polygon fill="none" stroke="black" points="337.5,-37 337.5,-55 359.5,-55 359.5,-37 337.5,-37"/>
<text text-anchor="start" x="340.5" y="-43.2" font-family="Helvetica,sans-Serif" font-size="11.00">&lt; 1</text>
<polygon fill="#ffffff" stroke="transparent" points="359.5,-37 359.5,-55 411.5,-55 411.5,-37 359.5,-37"/>
<polygon fill="none" stroke="black" points="359.5,-37 359.5,-55 411.5,-55 411.5,-37 359.5,-37"/>
<text text-anchor="start" x="362.5" y="-43.2" font-family="Helvetica,sans-Serif" font-size="11.00">339 rows</text>
<polygon fill="#ffffff" stroke="transparent" points="411.5,-37 411.5,-55 433.5,-55 433.5,-37 411.5,-37"/>
<polygon fill="none" stroke="black" points="411.5,-37 411.5,-55 433.5,-55 433.5,-37 411.5,-37"/>
<text text-anchor="start" x="414.5" y="-43.2" font-family="Helvetica,sans-Serif" font-size="11.00">1 &gt;</text>
</a>
</g>
</g>
<!-- assets_tags&#45;&gt;tags -->
<g id="edge7" class="edge">
<title>assets_tags:w&#45;&gt;tags:e</title>
<path fill="none" stroke="black" d="M503.89,-131.77C477.86,-130.93 466.47,-128 434.5,-128"/>
<polygon fill="black" stroke="black" points="510.5,-131.88 518.44,-135.6 514.5,-131.94 518.5,-132 518.5,-132 518.5,-132 514.5,-131.94 518.56,-128.4 510.5,-131.88 510.5,-131.88"/>
<ellipse fill="none" stroke="black" cx="507.3" cy="-131.83" rx="3.2" ry="3.2"/>
</g>
<!-- tags&#45;&gt;customers -->
<g id="edge11" class="edge">
<title>tags:w&#45;&gt;customers:e</title>
<path fill="none" stroke="black" d="M322.05,-106.92C264.55,-113.4 156.25,-152 109,-152"/>
<polygon fill="black" stroke="black" points="328.52,-106.51 336.73,-109.59 332.51,-106.25 336.5,-106 336.5,-106 336.5,-106 332.51,-106.25 336.27,-102.41 328.52,-106.51 328.52,-106.51"/>
<ellipse fill="none" stroke="black" cx="325.32" cy="-106.71" rx="3.2" ry="3.2"/>
</g>
<!-- locations -->
<g id="node9" class="node">
<title>locations</title>
<g id="a_node9"><a xlink:href="../../tables/locations.html" xlink:title="locations" target="_top">
<polygon fill="#ffffff" stroke="transparent" points="529,-218 529,-276 640,-276 640,-218 529,-218"/>
<polygon fill="#f5f5f5" stroke="transparent" points="529.5,-254 529.5,-276 640.5,-276 640.5,-254 529.5,-254"/>
<polygon fill="none" stroke="black" points="529.5,-254 529.5,-276 640.5,-276 640.5,-254 529.5,-254"/>
<text text-anchor="start" x="534.5" y="-263.2" font-family="Helvetica,sans-Serif" font-weight="bold" font-size="11.00">locations</text>
<text text-anchor="start" x="605.5" y="-262.2" font-family="Helvetica,sans-Serif" font-size="11.00">[table]</text>
<polygon fill="none" stroke="black" points="529.5,-236 529.5,-254 640.5,-254 640.5,-236 529.5,-236"/>
<text text-anchor="start" x="532.5" y="-242.2" font-family="Helvetica,sans-Serif" font-size="11.00">...</text>
<polygon fill="#ffffff" stroke="transparent" points="529.5,-218 529.5,-236 551.5,-236 551.5,-218 529.5,-218"/>
<polygon fill="none" stroke="black" points="529.5,-218 529.5,-236 551.5,-236 551.5,-218 529.5,-218"/>
<text text-anchor="start" x="532.5" y="-224.2" font-family="Helvetica,sans-Serif" font-size="11.00">&lt; 2</text>
<polygon fill="#ffffff" stroke="transparent" points="551.5,-218 551.5,-236 618.5,-236 618.5,-218 551.5,-218"/>
<polygon fill="none" stroke="black" points="551.5,-218 551.5,-236 618.5,-236 618.5,-218 551.5,-218"/>
<text text-anchor="start" x="554.5" y="-224.2" font-family="Helvetica,sans-Serif" font-size="11.00">81,629 rows</text>
<polygon fill="#ffffff" stroke="transparent" points="618.5,-218 618.5,-236 640.5,-236 640.5,-218 618.5,-218"/>
<polygon fill="none" stroke="black" points="618.5,-218 618.5,-236 640.5,-236 640.5,-218 618.5,-218"/>
<text text-anchor="start" x="621.5" y="-224.2" font-family="Helvetica,sans-Serif" font-size="11.00">3 &gt;</text>
</a>
</g>
</g>
<!-- locations&#45;&gt;assets -->
<g id="edge8" class="edge">
<title>locations:w&#45;&gt;assets:e</title>
<path fill="none" stroke="black" d="M513.94,-247.86C478.1,-264.09 500.07,-344 449.5,-344"/>
<polygon fill="black" stroke="black" points="520.65,-246.54 529.19,-248.53 524.57,-245.77 528.5,-245 528.5,-245 528.5,-245 524.57,-245.77 527.81,-241.47 520.65,-246.54 520.65,-246.54"/>
<ellipse fill="none" stroke="black" cx="517.51" cy="-247.16" rx="3.2" ry="3.2"/>
</g>
<!-- locations&#45;&gt;ref_id -->
<g id="edge9" class="edge">
<title>locations:w&#45;&gt;ref_id:e</title>
<path fill="none" stroke="black" d="M514.23,-243.04C490.08,-235.64 486.97,-209.31 456,-199 379.66,-173.58 355.96,-185 275.5,-185"/>
<polygon fill="black" stroke="black" points="520.57,-243.91 528.01,-248.57 524.54,-244.46 528.5,-245 528.5,-245 528.5,-245 524.54,-244.46 528.99,-241.43 520.57,-243.91 520.57,-243.91"/>
<ellipse fill="none" stroke="black" cx="517.4" cy="-243.48" rx="3.2" ry="3.2"/>
</g>
</g>
</svg>
