<?xml version="1.0" encoding="UTF-8" standalone="no"?>
<!DOCTYPE svg PUBLIC "-//W3C//DTD SVG 1.1//EN"
 "http://www.w3.org/Graphics/SVG/1.1/DTD/svg11.dtd">
<!-- Generated by graphviz version 2.50.0 (20211204.2007)
 -->
<!-- Title: twoDegreesRelationshipsDiagram Pages: 1 -->
<svg width="697pt" height="311pt"
 viewBox="0.00 0.00 697.00 311.00" xmlns="http://www.w3.org/2000/svg" xmlns:xlink="http://www.w3.org/1999/xlink">
<g id="graph0" class="graph" transform="scale(1 1) rotate(0) translate(4 307)">
<title>twoDegreesRelationshipsDiagram</title>
<polygon fill="#ffffff" stroke="transparent" points="-4,4 -4,-307 693,-307 693,4 -4,4"/>
<text text-anchor="middle" x="72.5" y="-7.2" font-family="Helvetica,sans-Serif" font-size="11.00">Generated by SchemaSpy</text>
<!-- allowed_configuration_values -->
<g id="node1" class="node">
<title>allowed_configuration_values</title>
<g id="a_node1"><a xlink:href="../../tables/allowed_configuration_values.html" xlink:title="allowed_configuration_values" target="_top">
<polygon fill="#ffffff" stroke="transparent" points="226,-91 226,-193 429,-193 429,-91 226,-91"/>
<polygon fill="#f5f5f5" stroke="transparent" points="226.5,-171 226.5,-193 429.5,-193 429.5,-171 226.5,-171"/>
<polygon fill="none" stroke="black" points="226.5,-171 226.5,-193 429.5,-193 429.5,-171 226.5,-171"/>
<text text-anchor="start" x="231.5" y="-180.2" font-family="Helvetica,sans-Serif" font-weight="bold" font-size="11.00">allowed_configuration_values</text>
<text text-anchor="start" x="394.5" y="-179.2" font-family="Helvetica,sans-Serif" font-size="11.00">[table]</text>
<polygon fill="none" stroke="black" points="226.5,-149 226.5,-171 429.5,-171 429.5,-149 226.5,-149"/>
<image xlink:href="../../images/primaryKeys.png" width="11px" height="12px" preserveAspectRatio="xMinYMin meet" x="231.5" y="-166"/>
<text text-anchor="start" x="252.5" y="-157.2" font-family="Helvetica,sans-Serif" font-size="11.00">id</text>
<polygon fill="none" stroke="black" points="226.5,-127 226.5,-149 429.5,-149 429.5,-127 226.5,-127"/>
<image xlink:href="../../images/foreignKeys.png" width="11px" height="12px" preserveAspectRatio="xMinYMin meet" x="231.5" y="-144"/>
<text text-anchor="start" x="252.5" y="-135.2" font-family="Helvetica,sans-Serif" font-size="11.00">configuration_id</text>
<polygon fill="none" stroke="black" points="226.5,-109 226.5,-127 429.5,-127 429.5,-109 226.5,-109"/>
<text text-anchor="start" x="229.5" y="-115.2" font-family="Helvetica,sans-Serif" font-size="11.00">...</text>
<polygon fill="#ffffff" stroke="transparent" points="226.5,-91 226.5,-109 310.5,-109 310.5,-91 226.5,-91"/>
<polygon fill="none" stroke="black" points="226.5,-91 226.5,-109 310.5,-109 310.5,-91 226.5,-91"/>
<text text-anchor="start" x="229.5" y="-97.2" font-family="Helvetica,sans-Serif" font-size="11.00">&lt; 1</text>
<polygon fill="#ffffff" stroke="transparent" points="310.5,-91 310.5,-109 375.5,-109 375.5,-91 310.5,-91"/>
<polygon fill="none" stroke="black" points="310.5,-91 310.5,-109 375.5,-109 375.5,-91 310.5,-91"/>
<text text-anchor="start" x="344.5" y="-97.2" font-family="Helvetica,sans-Serif" font-size="11.00">1 row</text>
<polygon fill="#ffffff" stroke="transparent" points="375.5,-91 375.5,-109 429.5,-109 429.5,-91 375.5,-91"/>
<polygon fill="none" stroke="black" points="375.5,-91 375.5,-109 429.5,-109 429.5,-91 375.5,-91"/>
<text text-anchor="start" x="410.5" y="-97.2" font-family="Helvetica,sans-Serif" font-size="11.00">1 &gt;</text>
</a>
</g>
</g>
<!-- configurations -->
<g id="node2" class="node">
<title>configurations</title>
<g id="a_node2"><a xlink:href="../../tables/configurations.html" xlink:title="configurations" target="_top">
<polygon fill="#ffffff" stroke="transparent" points="8,-37 8,-213 177,-213 177,-37 8,-37"/>
<polygon fill="#f5f5f5" stroke="transparent" points="10.5,-189 10.5,-211 175.5,-211 175.5,-189 10.5,-189"/>
<polygon fill="none" stroke="black" points="10.5,-189 10.5,-211 175.5,-211 175.5,-189 10.5,-189"/>
<text text-anchor="start" x="15.5" y="-198.2" font-family="Helvetica,sans-Serif" font-weight="bold" font-size="11.00">configurations</text>
<text text-anchor="start" x="140.5" y="-197.2" font-family="Helvetica,sans-Serif" font-size="11.00">[table]</text>
<polygon fill="none" stroke="black" points="10.5,-167 10.5,-189 114.5,-189 114.5,-167 10.5,-167"/>
<image xlink:href="../../images/primaryKeys.png" width="11px" height="12px" preserveAspectRatio="xMinYMin meet" x="15.5" y="-184"/>
<text text-anchor="start" x="30.5" y="-175.2" font-family="Helvetica,sans-Serif" font-size="11.00">id</text>
<polygon fill="none" stroke="black" points="114.5,-167 114.5,-189 175.5,-189 175.5,-167 114.5,-167"/>
<text text-anchor="start" x="117.5" y="-175.2" font-family="Helvetica,sans-Serif" font-size="11.00">serial[10]</text>
<polygon fill="#ffffff" stroke="transparent" points="10.5,-145 10.5,-167 114.5,-167 114.5,-145 10.5,-145"/>
<polygon fill="none" stroke="black" points="10.5,-145 10.5,-167 114.5,-167 114.5,-145 10.5,-145"/>
<text text-anchor="start" x="30.5" y="-153.2" font-family="Helvetica,sans-Serif" font-size="11.00">name</text>
<polygon fill="none" stroke="black" points="114.5,-145 114.5,-167 175.5,-167 175.5,-145 114.5,-145"/>
<text text-anchor="start" x="117.5" y="-153.2" font-family="Helvetica,sans-Serif" font-size="11.00">varchar[32]</text>
<polygon fill="none" stroke="black" points="10.5,-123 10.5,-145 114.5,-145 114.5,-123 10.5,-123"/>
<text text-anchor="start" x="30.5" y="-131.2" font-family="Helvetica,sans-Serif" font-size="11.00">constrained</text>
<polygon fill="none" stroke="black" points="114.5,-123 114.5,-145 175.5,-145 175.5,-123 114.5,-123"/>
<text text-anchor="start" x="117.5" y="-131.2" font-family="Helvetica,sans-Serif" font-size="11.00">bool[1]</text>
<polygon fill="none" stroke="black" points="10.5,-101 10.5,-123 114.5,-123 114.5,-101 10.5,-101"/>
<text text-anchor="start" x="30.5" y="-109.2" font-family="Helvetica,sans-Serif" font-size="11.00">data_type</text>
<polygon fill="none" stroke="black" points="114.5,-101 114.5,-123 175.5,-123 175.5,-101 114.5,-101"/>
<text text-anchor="start" x="117.5" y="-109.2" font-family="Helvetica,sans-Serif" font-size="11.00">varchar[12]</text>
<polygon fill="none" stroke="black" points="10.5,-79 10.5,-101 114.5,-101 114.5,-79 10.5,-79"/>
<text text-anchor="start" x="30.5" y="-87.2" font-family="Helvetica,sans-Serif" font-size="11.00">min_value</text>
<polygon fill="none" stroke="black" points="114.5,-79 114.5,-101 175.5,-101 175.5,-79 114.5,-79"/>
<text text-anchor="start" x="117.5" y="-87.2" font-family="Helvetica,sans-Serif" font-size="11.00">varchar[8]</text>
<polygon fill="none" stroke="black" points="10.5,-57 10.5,-79 114.5,-79 114.5,-57 10.5,-57"/>
<text text-anchor="start" x="30.5" y="-65.2" font-family="Helvetica,sans-Serif" font-size="11.00">max_value</text>
<polygon fill="none" stroke="black" points="114.5,-57 114.5,-79 175.5,-79 175.5,-57 114.5,-57"/>
<text text-anchor="start" x="117.5" y="-65.2" font-family="Helvetica,sans-Serif" font-size="11.00">varchar[8]</text>
<polygon fill="#ffffff" stroke="transparent" points="10.5,-39 10.5,-57 50.5,-57 50.5,-39 10.5,-39"/>
<polygon fill="none" stroke="black" points="10.5,-39 10.5,-57 50.5,-57 50.5,-39 10.5,-39"/>
<text text-anchor="start" x="13.5" y="-45.2" font-family="Helvetica,sans-Serif" font-size="11.00">&lt; 0</text>
<polygon fill="#ffffff" stroke="transparent" points="50.5,-39 50.5,-57 114.5,-57 114.5,-39 50.5,-39"/>
<polygon fill="none" stroke="black" points="50.5,-39 50.5,-57 114.5,-57 114.5,-39 50.5,-39"/>
<text text-anchor="start" x="71.5" y="-45.2" font-family="Helvetica,sans-Serif" font-size="11.00">18 rows</text>
<polygon fill="#ffffff" stroke="transparent" points="114.5,-39 114.5,-57 175.5,-57 175.5,-39 114.5,-39"/>
<polygon fill="none" stroke="black" points="114.5,-39 114.5,-57 175.5,-57 175.5,-39 114.5,-39"/>
<text text-anchor="start" x="156.5" y="-45.2" font-family="Helvetica,sans-Serif" font-size="11.00">2 &gt;</text>
<polygon fill="none" stroke="black" stroke-width="2" points="9,-38 9,-212 176,-212 176,-38 9,-38"/>
</a>
</g>
</g>
<!-- allowed_configuration_values&#45;&gt;configurations -->
<g id="edge1" class="edge">
<title>allowed_configuration_values:w&#45;&gt;configurations:e</title>
<path fill="none" stroke="black" d="M211.76,-142.59C198.86,-153.1 198.68,-178 176.5,-178"/>
<polygon fill="black" stroke="black" points="217.91,-140.53 226.64,-141.41 221.71,-139.27 225.5,-138 225.5,-138 225.5,-138 221.71,-139.27 224.36,-134.59 217.91,-140.53 217.91,-140.53"/>
<ellipse fill="none" stroke="black" cx="214.88" cy="-141.55" rx="3.2" ry="3.2"/>
</g>
<!-- users_configurations -->
<g id="node3" class="node">
<title>users_configurations</title>
<g id="a_node3"><a xlink:href="../../tables/users_configurations.html" xlink:title="users_configurations" target="_top">
<polygon fill="#ffffff" stroke="transparent" points="478,-148 478,-294 681,-294 681,-148 478,-148"/>
<polygon fill="#f5f5f5" stroke="transparent" points="478.5,-272 478.5,-294 681.5,-294 681.5,-272 478.5,-272"/>
<polygon fill="none" stroke="black" points="478.5,-272 478.5,-294 681.5,-294 681.5,-272 478.5,-272"/>
<text text-anchor="start" x="483.5" y="-281.2" font-family="Helvetica,sans-Serif" font-weight="bold" font-size="11.00">users_configurations</text>
<text text-anchor="start" x="646.5" y="-280.2" font-family="Helvetica,sans-Serif" font-size="11.00">[table]</text>
<polygon fill="none" stroke="black" points="478.5,-250 478.5,-272 681.5,-272 681.5,-250 478.5,-250"/>
<image xlink:href="../../images/primaryKeys.png" width="11px" height="12px" preserveAspectRatio="xMinYMin meet" x="483.5" y="-267"/>
<text text-anchor="start" x="498.5" y="-258.2" font-family="Helvetica,sans-Serif" font-size="11.00">id</text>
<polygon fill="none" stroke="black" points="478.5,-228 478.5,-250 681.5,-250 681.5,-228 478.5,-228"/>
<image xlink:href="../../images/foreignKeys.png" width="11px" height="12px" preserveAspectRatio="xMinYMin meet" x="483.5" y="-245"/>
<text text-anchor="start" x="498.5" y="-236.2" font-family="Helvetica,sans-Serif" font-size="11.00">user_id</text>
<polygon fill="none" stroke="black" points="478.5,-206 478.5,-228 681.5,-228 681.5,-206 478.5,-206"/>
<image xlink:href="../../images/foreignKeys.png" width="11px" height="12px" preserveAspectRatio="xMinYMin meet" x="483.5" y="-223"/>
<text text-anchor="start" x="498.5" y="-214.2" font-family="Helvetica,sans-Serif" font-size="11.00">configuration_id</text>
<polygon fill="none" stroke="black" points="478.5,-184 478.5,-206 681.5,-206 681.5,-184 478.5,-184"/>
<image xlink:href="../../images/foreignKeys.png" width="11px" height="12px" preserveAspectRatio="xMinYMin meet" x="483.5" y="-201"/>
<text text-anchor="start" x="498.5" y="-192.2" font-family="Helvetica,sans-Serif" font-size="11.00">allowed_configuration_value_id</text>
<polygon fill="none" stroke="black" points="478.5,-166 478.5,-184 681.5,-184 681.5,-166 478.5,-166"/>
<text text-anchor="start" x="481.5" y="-172.2" font-family="Helvetica,sans-Serif" font-size="11.00">...</text>
<polygon fill="#ffffff" stroke="transparent" points="478.5,-148 478.5,-166 561.5,-166 561.5,-148 478.5,-148"/>
<polygon fill="none" stroke="black" points="478.5,-148 478.5,-166 561.5,-166 561.5,-148 478.5,-148"/>
<text text-anchor="start" x="481.5" y="-154.2" font-family="Helvetica,sans-Serif" font-size="11.00">&lt; 3</text>
<polygon fill="#ffffff" stroke="transparent" points="561.5,-148 561.5,-166 637.5,-166 637.5,-148 561.5,-148"/>
<polygon fill="none" stroke="black" points="561.5,-148 561.5,-166 637.5,-166 637.5,-148 561.5,-148"/>
<text text-anchor="start" x="594.5" y="-154.2" font-family="Helvetica,sans-Serif" font-size="11.00">11 rows</text>
<polygon fill="#ffffff" stroke="transparent" points="637.5,-148 637.5,-166 681.5,-166 681.5,-148 637.5,-148"/>
<polygon fill="none" stroke="black" points="637.5,-148 637.5,-166 681.5,-166 681.5,-148 637.5,-148"/>
<text text-anchor="start" x="671.5" y="-154.2" font-family="Helvetica,sans-Serif" font-size="11.00"> &#160;</text>
</a>
</g>
</g>
<!-- users_configurations&#45;&gt;allowed_configuration_values -->
<g id="edge2" class="edge">
<title>users_configurations:w&#45;&gt;allowed_configuration_values:e</title>
<path fill="none" stroke="black" d="M463.52,-190.13C452.13,-180.52 450.44,-160 430.5,-160"/>
<polygon fill="black" stroke="black" points="469.94,-192.37 476.32,-198.4 473.72,-193.69 477.5,-195 477.5,-195 477.5,-195 473.72,-193.69 478.68,-191.6 469.94,-192.37 469.94,-192.37"/>
<ellipse fill="none" stroke="black" cx="466.92" cy="-191.32" rx="3.2" ry="3.2"/>
</g>
<!-- users_configurations&#45;&gt;configurations -->
<g id="edge3" class="edge">
<title>users_configurations:w&#45;&gt;configurations:e</title>
<path fill="none" stroke="black" d="M463.05,-217.11C358.97,-218.76 323.42,-237.17 218,-204 197.24,-197.47 198.27,-178 176.5,-178"/>
<polygon fill="black" stroke="black" points="469.5,-217.06 477.53,-220.6 473.5,-217.03 477.5,-217 477.5,-217 477.5,-217 473.5,-217.03 477.47,-213.4 469.5,-217.06 469.5,-217.06"/>
<ellipse fill="none" stroke="black" cx="466.3" cy="-217.09" rx="3.2" ry="3.2"/>
</g>
<!-- users -->
<g id="node4" class="node">
<title>users</title>
<g id="a_node4"><a xlink:href="../../tables/users.html" xlink:title="users" target="_top">
<polygon fill="#ffffff" stroke="transparent" points="287,-241 287,-299 368,-299 368,-241 287,-241"/>
<polygon fill="#f5f5f5" stroke="transparent" points="287.5,-277 287.5,-299 368.5,-299 368.5,-277 287.5,-277"/>
<polygon fill="none" stroke="black" points="287.5,-277 287.5,-299 368.5,-299 368.5,-277 287.5,-277"/>
<text text-anchor="start" x="292.5" y="-286.2" font-family="Helvetica,sans-Serif" font-weight="bold" font-size="11.00">users</text>
<text text-anchor="start" x="333.5" y="-285.2" font-family="Helvetica,sans-Serif" font-size="11.00">[table]</text>
<polygon fill="none" stroke="black" points="287.5,-259 287.5,-277 368.5,-277 368.5,-259 287.5,-259"/>
<text text-anchor="start" x="290.5" y="-265.2" font-family="Helvetica,sans-Serif" font-size="11.00">...</text>
<polygon fill="#ffffff" stroke="transparent" points="287.5,-241 287.5,-259 300.5,-259 300.5,-241 287.5,-241"/>
<polygon fill="none" stroke="black" points="287.5,-241 287.5,-259 300.5,-259 300.5,-241 287.5,-241"/>
<text text-anchor="start" x="290.5" y="-247.2" font-family="Helvetica,sans-Serif" font-size="11.00"> &#160;</text>
<polygon fill="#ffffff" stroke="transparent" points="300.5,-241 300.5,-259 346.5,-259 346.5,-241 300.5,-241"/>
<polygon fill="none" stroke="black" points="300.5,-241 300.5,-259 346.5,-259 346.5,-241 300.5,-241"/>
<text text-anchor="start" x="303.5" y="-247.2" font-family="Helvetica,sans-Serif" font-size="11.00">11 rows</text>
<polygon fill="#ffffff" stroke="transparent" points="346.5,-241 346.5,-259 368.5,-259 368.5,-241 346.5,-241"/>
<polygon fill="none" stroke="black" points="346.5,-241 346.5,-259 368.5,-259 368.5,-241 346.5,-241"/>
<text text-anchor="start" x="349.5" y="-247.2" font-family="Helvetica,sans-Serif" font-size="11.00">2 &gt;</text>
</a>
</g>
</g>
<!-- users_configurations&#45;&gt;users -->
<g id="edge4" class="edge">
<title>users_configurations:w&#45;&gt;users:e</title>
<path fill="none" stroke="black" d="M463.05,-239.9C425.53,-244.79 413.96,-268 369.5,-268"/>
<polygon fill="black" stroke="black" points="469.52,-239.5 477.72,-242.59 473.51,-239.25 477.5,-239 477.5,-239 477.5,-239 473.51,-239.25 477.28,-235.41 469.52,-239.5 469.52,-239.5"/>
<ellipse fill="none" stroke="black" cx="466.32" cy="-239.7" rx="3.2" ry="3.2"/>
</g>
</g>
</svg>
