<?xml version="1.0" encoding="UTF-8" standalone="no"?>
<!DOCTYPE svg PUBLIC "-//W3C//DTD SVG 1.1//EN"
 "http://www.w3.org/Graphics/SVG/1.1/DTD/svg11.dtd">
<!-- Generated by graphviz version 2.50.0 (20211204.2007)
 -->
<!-- Title: oneDegreeRelationshipsDiagram Pages: 1 -->
<svg width="697pt" height="288pt"
 viewBox="0.00 0.00 697.00 288.00" xmlns="http://www.w3.org/2000/svg" xmlns:xlink="http://www.w3.org/1999/xlink">
<g id="graph0" class="graph" transform="scale(1 1) rotate(0) translate(4 284)">
<title>oneDegreeRelationshipsDiagram</title>
<polygon fill="#ffffff" stroke="transparent" points="-4,4 -4,-284 693,-284 693,4 -4,4"/>
<text text-anchor="middle" x="72.5" y="-7.2" font-family="Helvetica,sans-Serif" font-size="11.00">Generated by SchemaSpy</text>
<!-- allowed_configuration_values -->
<g id="node1" class="node">
<title>allowed_configuration_values</title>
<g id="a_node1"><a xlink:href="../../tables/allowed_configuration_values.html" xlink:title="allowed_configuration_values" target="_top">
<polygon fill="#ffffff" stroke="transparent" points="226,-91 226,-193 429,-193 429,-91 226,-91"/>
<polygon fill="#f5f5f5" stroke="transparent" points="226.5,-171 226.5,-193 429.5,-193 429.5,-171 226.5,-171"/>
<polygon fill="none" stroke="black" points="226.5,-171 226.5,-193 429.5,-193 429.5,-171 226.5,-171"/>
<text text-anchor="start" x="231.5" y="-180.2" font-family="Helvetica,sans-Serif" font-weight="bold" font-size="11.00">allowed_configuration_values</text>
<text text-anchor="start" x="394.5" y="-179.2" font-family="Helvetica,sans-Serif" font-size="11.00">[table]</text>
<polygon fill="none" stroke="black" points="226.5,-149 226.5,-171 429.5,-171 429.5,-149 226.5,-149"/>
<image xlink:href="../../images/primaryKeys.png" width="11px" height="12px" preserveAspectRatio="xMinYMin meet" x="231.5" y="-166"/>
<text text-anchor="start" x="252.5" y="-157.2" font-family="Helvetica,sans-Serif" font-size="11.00">id</text>
<polygon fill="none" stroke="black" points="226.5,-127 226.5,-149 429.5,-149 429.5,-127 226.5,-127"/>
<image xlink:href="../../images/foreignKeys.png" width="11px" height="12px" preserveAspectRatio="xMinYMin meet" x="231.5" y="-144"/>
<text text-anchor="start" x="252.5" y="-135.2" font-family="Helvetica,sans-Serif" font-size="11.00">configuration_id</text>
<polygon fill="none" stroke="black" points="226.5,-109 226.5,-127 429.5,-127 429.5,-109 226.5,-109"/>
<text text-anchor="start" x="229.5" y="-115.2" font-family="Helvetica,sans-Serif" font-size="11.00">...</text>
<polygon fill="#ffffff" stroke="transparent" points="226.5,-91 226.5,-109 310.5,-109 310.5,-91 226.5,-91"/>
<polygon fill="none" stroke="black" points="226.5,-91 226.5,-109 310.5,-109 310.5,-91 226.5,-91"/>
<text text-anchor="start" x="229.5" y="-97.2" font-family="Helvetica,sans-Serif" font-size="11.00">&lt; 1</text>
<polygon fill="#ffffff" stroke="transparent" points="310.5,-91 310.5,-109 375.5,-109 375.5,-91 310.5,-91"/>
<polygon fill="none" stroke="black" points="310.5,-91 310.5,-109 375.5,-109 375.5,-91 310.5,-91"/>
<text text-anchor="start" x="344.5" y="-97.2" font-family="Helvetica,sans-Serif" font-size="11.00">1 row</text>
<polygon fill="#ffffff" stroke="transparent" points="375.5,-91 375.5,-109 429.5,-109 429.5,-91 375.5,-91"/>
<polygon fill="none" stroke="black" points="375.5,-91 375.5,-109 429.5,-109 429.5,-91 375.5,-91"/>
<text text-anchor="start" x="410.5" y="-97.2" font-family="Helvetica,sans-Serif" font-size="11.00">1 &gt;</text>
</a>
</g>
</g>
<!-- configurations -->
<g id="node2" class="node">
<title>configurations</title>
<g id="a_node2"><a xlink:href="../../tables/configurations.html" xlink:title="configurations" target="_top">
<polygon fill="#ffffff" stroke="transparent" points="8,-37 8,-213 177,-213 177,-37 8,-37"/>
<polygon fill="#f5f5f5" stroke="transparent" points="10.5,-189 10.5,-211 175.5,-211 175.5,-189 10.5,-189"/>
<polygon fill="none" stroke="black" points="10.5,-189 10.5,-211 175.5,-211 175.5,-189 10.5,-189"/>
<text text-anchor="start" x="15.5" y="-198.2" font-family="Helvetica,sans-Serif" font-weight="bold" font-size="11.00">configurations</text>
<text text-anchor="start" x="140.5" y="-197.2" font-family="Helvetica,sans-Serif" font-size="11.00">[table]</text>
<polygon fill="none" stroke="black" points="10.5,-167 10.5,-189 114.5,-189 114.5,-167 10.5,-167"/>
<image xlink:href="../../images/primaryKeys.png" width="11px" height="12px" preserveAspectRatio="xMinYMin meet" x="15.5" y="-184"/>
<text text-anchor="start" x="30.5" y="-175.2" font-family="Helvetica,sans-Serif" font-size="11.00">id</text>
<polygon fill="none" stroke="black" points="114.5,-167 114.5,-189 175.5,-189 175.5,-167 114.5,-167"/>
<text text-anchor="start" x="117.5" y="-175.2" font-family="Helvetica,sans-Serif" font-size="11.00">serial[10]</text>
<polygon fill="#ffffff" stroke="transparent" points="10.5,-145 10.5,-167 114.5,-167 114.5,-145 10.5,-145"/>
<polygon fill="none" stroke="black" points="10.5,-145 10.5,-167 114.5,-167 114.5,-145 10.5,-145"/>
<text text-anchor="start" x="30.5" y="-153.2" font-family="Helvetica,sans-Serif" font-size="11.00">name</text>
<polygon fill="none" stroke="black" points="114.5,-145 114.5,-167 175.5,-167 175.5,-145 114.5,-145"/>
<text text-anchor="start" x="117.5" y="-153.2" font-family="Helvetica,sans-Serif" font-size="11.00">varchar[32]</text>
<polygon fill="none" stroke="black" points="10.5,-123 10.5,-145 114.5,-145 114.5,-123 10.5,-123"/>
<text text-anchor="start" x="30.5" y="-131.2" font-family="Helvetica,sans-Serif" font-size="11.00">constrained</text>
<polygon fill="none" stroke="black" points="114.5,-123 114.5,-145 175.5,-145 175.5,-123 114.5,-123"/>
<text text-anchor="start" x="117.5" y="-131.2" font-family="Helvetica,sans-Serif" font-size="11.00">bool[1]</text>
<polygon fill="none" stroke="black" points="10.5,-101 10.5,-123 114.5,-123 114.5,-101 10.5,-101"/>
<text text-anchor="start" x="30.5" y="-109.2" font-family="Helvetica,sans-Serif" font-size="11.00">data_type</text>
<polygon fill="none" stroke="black" points="114.5,-101 114.5,-123 175.5,-123 175.5,-101 114.5,-101"/>
<text text-anchor="start" x="117.5" y="-109.2" font-family="Helvetica,sans-Serif" font-size="11.00">varchar[12]</text>
<polygon fill="none" stroke="black" points="10.5,-79 10.5,-101 114.5,-101 114.5,-79 10.5,-79"/>
<text text-anchor="start" x="30.5" y="-87.2" font-family="Helvetica,sans-Serif" font-size="11.00">min_value</text>
<polygon fill="none" stroke="black" points="114.5,-79 114.5,-101 175.5,-101 175.5,-79 114.5,-79"/>
<text text-anchor="start" x="117.5" y="-87.2" font-family="Helvetica,sans-Serif" font-size="11.00">varchar[8]</text>
<polygon fill="none" stroke="black" points="10.5,-57 10.5,-79 114.5,-79 114.5,-57 10.5,-57"/>
<text text-anchor="start" x="30.5" y="-65.2" font-family="Helvetica,sans-Serif" font-size="11.00">max_value</text>
<polygon fill="none" stroke="black" points="114.5,-57 114.5,-79 175.5,-79 175.5,-57 114.5,-57"/>
<text text-anchor="start" x="117.5" y="-65.2" font-family="Helvetica,sans-Serif" font-size="11.00">varchar[8]</text>
<polygon fill="#ffffff" stroke="transparent" points="10.5,-39 10.5,-57 50.5,-57 50.5,-39 10.5,-39"/>
<polygon fill="none" stroke="black" points="10.5,-39 10.5,-57 50.5,-57 50.5,-39 10.5,-39"/>
<text text-anchor="start" x="13.5" y="-45.2" font-family="Helvetica,sans-Serif" font-size="11.00">&lt; 0</text>
<polygon fill="#ffffff" stroke="transparent" points="50.5,-39 50.5,-57 114.5,-57 114.5,-39 50.5,-39"/>
<polygon fill="none" stroke="black" points="50.5,-39 50.5,-57 114.5,-57 114.5,-39 50.5,-39"/>
<text text-anchor="start" x="71.5" y="-45.2" font-family="Helvetica,sans-Serif" font-size="11.00">18 rows</text>
<polygon fill="#ffffff" stroke="transparent" points="114.5,-39 114.5,-57 175.5,-57 175.5,-39 114.5,-39"/>
<polygon fill="none" stroke="black" points="114.5,-39 114.5,-57 175.5,-57 175.5,-39 114.5,-39"/>
<text text-anchor="start" x="156.5" y="-45.2" font-family="Helvetica,sans-Serif" font-size="11.00">2 &gt;</text>
<polygon fill="none" stroke="black" stroke-width="2" points="9,-38 9,-212 176,-212 176,-38 9,-38"/>
</a>
</g>
</g>
<!-- allowed_configuration_values&#45;&gt;configurations -->
<g id="edge1" class="edge">
<title>allowed_configuration_values:w&#45;&gt;configurations:e</title>
<path fill="none" stroke="black" d="M211.76,-142.59C198.86,-153.1 198.68,-178 176.5,-178"/>
<polygon fill="black" stroke="black" points="217.91,-140.53 226.64,-141.41 221.71,-139.27 225.5,-138 225.5,-138 225.5,-138 221.71,-139.27 224.36,-134.59 217.91,-140.53 217.91,-140.53"/>
<ellipse fill="none" stroke="black" cx="214.88" cy="-141.55" rx="3.2" ry="3.2"/>
</g>
<!-- users_configurations -->
<g id="node3" class="node">
<title>users_configurations</title>
<g id="a_node3"><a xlink:href="../../tables/users_configurations.html" xlink:title="users_configurations" target="_top">
<polygon fill="#ffffff" stroke="transparent" points="478,-130 478,-276 681,-276 681,-130 478,-130"/>
<polygon fill="#f5f5f5" stroke="transparent" points="478.5,-254 478.5,-276 681.5,-276 681.5,-254 478.5,-254"/>
<polygon fill="none" stroke="black" points="478.5,-254 478.5,-276 681.5,-276 681.5,-254 478.5,-254"/>
<text text-anchor="start" x="483.5" y="-263.2" font-family="Helvetica,sans-Serif" font-weight="bold" font-size="11.00">users_configurations</text>
<text text-anchor="start" x="646.5" y="-262.2" font-family="Helvetica,sans-Serif" font-size="11.00">[table]</text>
<polygon fill="none" stroke="black" points="478.5,-232 478.5,-254 681.5,-254 681.5,-232 478.5,-232"/>
<image xlink:href="../../images/primaryKeys.png" width="11px" height="12px" preserveAspectRatio="xMinYMin meet" x="483.5" y="-249"/>
<text text-anchor="start" x="498.5" y="-240.2" font-family="Helvetica,sans-Serif" font-size="11.00">id</text>
<polygon fill="none" stroke="black" points="478.5,-210 478.5,-232 681.5,-232 681.5,-210 478.5,-210"/>
<image xlink:href="../../images/foreignKeys.png" width="11px" height="12px" preserveAspectRatio="xMinYMin meet" x="483.5" y="-227"/>
<text text-anchor="start" x="498.5" y="-218.2" font-family="Helvetica,sans-Serif" font-size="11.00">user_id</text>
<polygon fill="none" stroke="black" points="478.5,-188 478.5,-210 681.5,-210 681.5,-188 478.5,-188"/>
<image xlink:href="../../images/foreignKeys.png" width="11px" height="12px" preserveAspectRatio="xMinYMin meet" x="483.5" y="-205"/>
<text text-anchor="start" x="498.5" y="-196.2" font-family="Helvetica,sans-Serif" font-size="11.00">configuration_id</text>
<polygon fill="none" stroke="black" points="478.5,-166 478.5,-188 681.5,-188 681.5,-166 478.5,-166"/>
<image xlink:href="../../images/foreignKeys.png" width="11px" height="12px" preserveAspectRatio="xMinYMin meet" x="483.5" y="-183"/>
<text text-anchor="start" x="498.5" y="-174.2" font-family="Helvetica,sans-Serif" font-size="11.00">allowed_configuration_value_id</text>
<polygon fill="none" stroke="black" points="478.5,-148 478.5,-166 681.5,-166 681.5,-148 478.5,-148"/>
<text text-anchor="start" x="481.5" y="-154.2" font-family="Helvetica,sans-Serif" font-size="11.00">...</text>
<polygon fill="#ffffff" stroke="transparent" points="478.5,-130 478.5,-148 561.5,-148 561.5,-130 478.5,-130"/>
<polygon fill="none" stroke="black" points="478.5,-130 478.5,-148 561.5,-148 561.5,-130 478.5,-130"/>
<text text-anchor="start" x="481.5" y="-136.2" font-family="Helvetica,sans-Serif" font-size="11.00">&lt; 3</text>
<polygon fill="#ffffff" stroke="transparent" points="561.5,-130 561.5,-148 637.5,-148 637.5,-130 561.5,-130"/>
<polygon fill="none" stroke="black" points="561.5,-130 561.5,-148 637.5,-148 637.5,-130 561.5,-130"/>
<text text-anchor="start" x="594.5" y="-136.2" font-family="Helvetica,sans-Serif" font-size="11.00">11 rows</text>
<polygon fill="#ffffff" stroke="transparent" points="637.5,-130 637.5,-148 681.5,-148 681.5,-130 637.5,-130"/>
<polygon fill="none" stroke="black" points="637.5,-130 637.5,-148 681.5,-148 681.5,-130 637.5,-130"/>
<text text-anchor="start" x="671.5" y="-136.2" font-family="Helvetica,sans-Serif" font-size="11.00"> &#160;</text>
</a>
</g>
</g>
<!-- users_configurations&#45;&gt;allowed_configuration_values -->
<g id="edge2" class="edge">
<title>users_configurations:w&#45;&gt;allowed_configuration_values:e</title>
<path fill="none" stroke="black" d="M463.22,-174.04C452.53,-169.17 446.81,-160 430.5,-160"/>
<polygon fill="black" stroke="black" points="469.67,-175.38 476.77,-180.53 473.58,-176.19 477.5,-177 477.5,-177 477.5,-177 473.58,-176.19 478.23,-173.47 469.67,-175.38 469.67,-175.38"/>
<ellipse fill="none" stroke="black" cx="466.53" cy="-174.73" rx="3.2" ry="3.2"/>
</g>
<!-- users_configurations&#45;&gt;configurations -->
<g id="edge3" class="edge">
<title>users_configurations:w&#45;&gt;configurations:e</title>
<path fill="none" stroke="black" d="M462.87,-200.06C454.94,-201.3 449.02,-203.26 437,-204 339.85,-209.97 311.55,-230.88 218,-204 197.08,-197.99 198.27,-178 176.5,-178"/>
<polygon fill="black" stroke="black" points="469.52,-199.58 477.76,-202.59 473.51,-199.29 477.5,-199 477.5,-199 477.5,-199 473.51,-199.29 477.24,-195.41 469.52,-199.58 469.52,-199.58"/>
<ellipse fill="none" stroke="black" cx="466.33" cy="-199.81" rx="3.2" ry="3.2"/>
</g>
</g>
</svg>
