<?xml version="1.0" encoding="UTF-8" standalone="no"?>
<!DOCTYPE svg PUBLIC "-//W3C//DTD SVG 1.1//EN"
 "http://www.w3.org/Graphics/SVG/1.1/DTD/svg11.dtd">
<!-- Generated by graphviz version 2.50.0 (20211204.2007)
 -->
<!-- Title: twoDegreesRelationshipsDiagram Pages: 1 -->
<svg width="967pt" height="813pt"
 viewBox="0.00 0.00 967.00 813.00" xmlns="http://www.w3.org/2000/svg" xmlns:xlink="http://www.w3.org/1999/xlink">
<g id="graph0" class="graph" transform="scale(1 1) rotate(0) translate(4 809)">
<title>twoDegreesRelationshipsDiagram</title>
<polygon fill="#ffffff" stroke="transparent" points="-4,4 -4,-809 963,-809 963,4 -4,4"/>
<text text-anchor="middle" x="72.5" y="-7.2" font-family="Helvetica,sans-Serif" font-size="11.00">Generated by SchemaSpy</text>
<!-- aggregate_risks -->
<g id="node1" class="node">
<title>aggregate_risks</title>
<g id="a_node1"><a xlink:href="../../tables/aggregate_risks.html" xlink:title="aggregate_risks" target="_top">
<polygon fill="#ffffff" stroke="transparent" points="419,-208 419,-420 596,-420 596,-208 419,-208"/>
<polygon fill="#f5f5f5" stroke="transparent" points="419.5,-398 419.5,-420 596.5,-420 596.5,-398 419.5,-398"/>
<polygon fill="none" stroke="black" points="419.5,-398 419.5,-420 596.5,-420 596.5,-398 419.5,-398"/>
<text text-anchor="start" x="424.5" y="-407.2" font-family="Helvetica,sans-Serif" font-weight="bold" font-size="11.00">aggregate_risks</text>
<text text-anchor="start" x="561.5" y="-406.2" font-family="Helvetica,sans-Serif" font-size="11.00">[table]</text>
<polygon fill="none" stroke="black" points="419.5,-376 419.5,-398 596.5,-398 596.5,-376 419.5,-376"/>
<image xlink:href="../../images/primaryKeys.png" width="11px" height="12px" preserveAspectRatio="xMinYMin meet" x="424.5" y="-393"/>
<text text-anchor="start" x="439.5" y="-384.2" font-family="Helvetica,sans-Serif" font-size="11.00">customer_id</text>
<polygon fill="none" stroke="black" points="419.5,-354 419.5,-376 596.5,-376 596.5,-354 419.5,-354"/>
<image xlink:href="../../images/primaryKeys.png" width="11px" height="12px" preserveAspectRatio="xMinYMin meet" x="424.5" y="-371"/>
<text text-anchor="start" x="439.5" y="-362.2" font-family="Helvetica,sans-Serif" font-size="11.00">entity_type</text>
<polygon fill="none" stroke="black" points="419.5,-332 419.5,-354 596.5,-354 596.5,-332 419.5,-332"/>
<image xlink:href="../../images/primaryKeys.png" width="11px" height="12px" preserveAspectRatio="xMinYMin meet" x="424.5" y="-349"/>
<text text-anchor="start" x="439.5" y="-340.2" font-family="Helvetica,sans-Serif" font-size="11.00">entity_id</text>
<polygon fill="none" stroke="black" points="419.5,-310 419.5,-332 596.5,-332 596.5,-310 419.5,-310"/>
<image xlink:href="../../images/primaryKeys.png" width="11px" height="12px" preserveAspectRatio="xMinYMin meet" x="424.5" y="-327"/>
<text text-anchor="start" x="439.5" y="-318.2" font-family="Helvetica,sans-Serif" font-size="11.00">scenario_id</text>
<polygon fill="none" stroke="black" points="419.5,-288 419.5,-310 596.5,-310 596.5,-288 419.5,-288"/>
<image xlink:href="../../images/primaryKeys.png" width="11px" height="12px" preserveAspectRatio="xMinYMin meet" x="424.5" y="-305"/>
<text text-anchor="start" x="439.5" y="-296.2" font-family="Helvetica,sans-Serif" font-size="11.00">decade</text>
<polygon fill="none" stroke="black" points="419.5,-266 419.5,-288 596.5,-288 596.5,-266 419.5,-266"/>
<image xlink:href="../../images/primaryKeys.png" width="11px" height="12px" preserveAspectRatio="xMinYMin meet" x="424.5" y="-283"/>
<text text-anchor="start" x="439.5" y="-274.2" font-family="Helvetica,sans-Serif" font-size="11.00">hazard_metric_id</text>
<polygon fill="none" stroke="black" points="419.5,-244 419.5,-266 596.5,-266 596.5,-244 419.5,-244"/>
<image xlink:href="../../images/primaryKeys.png" width="11px" height="12px" preserveAspectRatio="xMinYMin meet" x="424.5" y="-261"/>
<text text-anchor="start" x="439.5" y="-252.2" font-family="Helvetica,sans-Serif" font-size="11.00">risk_factor_id</text>
<polygon fill="none" stroke="black" points="419.5,-226 419.5,-244 596.5,-244 596.5,-226 419.5,-226"/>
<text text-anchor="start" x="422.5" y="-232.2" font-family="Helvetica,sans-Serif" font-size="11.00">...</text>
<polygon fill="#ffffff" stroke="transparent" points="419.5,-208 419.5,-226 475.5,-226 475.5,-208 419.5,-208"/>
<polygon fill="none" stroke="black" points="419.5,-208 419.5,-226 475.5,-226 475.5,-208 419.5,-208"/>
<text text-anchor="start" x="422.5" y="-214.2" font-family="Helvetica,sans-Serif" font-size="11.00">&lt; 4</text>
<polygon fill="#ffffff" stroke="transparent" points="475.5,-208 475.5,-226 565.5,-226 565.5,-208 475.5,-208"/>
<polygon fill="none" stroke="black" points="475.5,-208 475.5,-226 565.5,-226 565.5,-208 475.5,-208"/>
<text text-anchor="start" x="495.5" y="-214.2" font-family="Helvetica,sans-Serif" font-size="11.00">133,008 rows</text>
<polygon fill="#ffffff" stroke="transparent" points="565.5,-208 565.5,-226 596.5,-226 596.5,-208 565.5,-208"/>
<polygon fill="none" stroke="black" points="565.5,-208 565.5,-226 596.5,-226 596.5,-208 565.5,-208"/>
<text text-anchor="start" x="586.5" y="-214.2" font-family="Helvetica,sans-Serif" font-size="11.00"> &#160;</text>
</a>
</g>
</g>
<!-- customers -->
<g id="node2" class="node">
<title>customers</title>
<g id="a_node2"><a xlink:href="../../tables/customers.html" xlink:title="customers" target="_top">
<polygon fill="#ffffff" stroke="transparent" points="164,-391 164,-567 370,-567 370,-391 164,-391"/>
<polygon fill="#f5f5f5" stroke="transparent" points="166,-543 166,-565 368,-565 368,-543 166,-543"/>
<polygon fill="none" stroke="black" points="166,-543 166,-565 368,-565 368,-543 166,-543"/>
<text text-anchor="start" x="171" y="-552.2" font-family="Helvetica,sans-Serif" font-weight="bold" font-size="11.00">customers</text>
<text text-anchor="start" x="333" y="-551.2" font-family="Helvetica,sans-Serif" font-size="11.00">[table]</text>
<polygon fill="none" stroke="black" points="166,-521 166,-543 283,-543 283,-521 166,-521"/>
<image xlink:href="../../images/primaryKeys.png" width="11px" height="12px" preserveAspectRatio="xMinYMin meet" x="171" y="-538"/>
<text text-anchor="start" x="186" y="-529.2" font-family="Helvetica,sans-Serif" font-size="11.00">id</text>
<polygon fill="none" stroke="black" points="283,-521 283,-543 368,-543 368,-521 283,-521"/>
<text text-anchor="start" x="286" y="-529.2" font-family="Helvetica,sans-Serif" font-size="11.00">serial[10]</text>
<polygon fill="#ffffff" stroke="transparent" points="166,-499 166,-521 283,-521 283,-499 166,-499"/>
<polygon fill="none" stroke="black" points="166,-499 166,-521 283,-521 283,-499 166,-499"/>
<text text-anchor="start" x="186" y="-507.2" font-family="Helvetica,sans-Serif" font-size="11.00">name</text>
<polygon fill="none" stroke="black" points="283,-499 283,-521 368,-521 368,-499 283,-499"/>
<text text-anchor="start" x="286" y="-507.2" font-family="Helvetica,sans-Serif" font-size="11.00">varchar[256]</text>
<polygon fill="none" stroke="black" points="166,-477 166,-499 283,-499 283,-477 166,-477"/>
<text text-anchor="start" x="186" y="-485.2" font-family="Helvetica,sans-Serif" font-size="11.00">customer_status</text>
<polygon fill="none" stroke="black" points="283,-477 283,-499 368,-499 368,-477 283,-477"/>
<text text-anchor="start" x="286" y="-485.2" font-family="Helvetica,sans-Serif" font-size="11.00">int4[10]</text>
<polygon fill="none" stroke="black" points="166,-455 166,-477 283,-477 283,-455 166,-455"/>
<text text-anchor="start" x="186" y="-463.2" font-family="Helvetica,sans-Serif" font-size="11.00">notes</text>
<polygon fill="none" stroke="black" points="283,-455 283,-477 368,-477 368,-455 283,-455"/>
<text text-anchor="start" x="286" y="-463.2" font-family="Helvetica,sans-Serif" font-size="11.00">varchar[256]</text>
<polygon fill="none" stroke="black" points="166,-433 166,-455 283,-455 283,-433 166,-433"/>
<text text-anchor="start" x="186" y="-441.2" font-family="Helvetica,sans-Serif" font-size="11.00">created_at</text>
<polygon fill="none" stroke="black" points="283,-433 283,-455 368,-455 368,-433 283,-433"/>
<text text-anchor="start" x="286" y="-441.2" font-family="Helvetica,sans-Serif" font-size="11.00">timestamp[29,6]</text>
<polygon fill="none" stroke="black" points="166,-411 166,-433 283,-433 283,-411 166,-411"/>
<text text-anchor="start" x="186" y="-419.2" font-family="Helvetica,sans-Serif" font-size="11.00">updated_at</text>
<polygon fill="none" stroke="black" points="283,-411 283,-433 368,-433 368,-411 283,-411"/>
<text text-anchor="start" x="286" y="-419.2" font-family="Helvetica,sans-Serif" font-size="11.00">timestamp[29,6]</text>
<polygon fill="#ffffff" stroke="transparent" points="166,-393 166,-411 209,-411 209,-393 166,-393"/>
<polygon fill="none" stroke="black" points="166,-393 166,-411 209,-411 209,-393 166,-393"/>
<text text-anchor="start" x="169" y="-399.2" font-family="Helvetica,sans-Serif" font-size="11.00">&lt; 0</text>
<polygon fill="#ffffff" stroke="transparent" points="209,-393 209,-411 283,-411 283,-393 209,-393"/>
<polygon fill="none" stroke="black" points="209,-393 209,-411 283,-411 283,-393 209,-393"/>
<text text-anchor="start" x="234" y="-399.2" font-family="Helvetica,sans-Serif" font-size="11.00">938 rows</text>
<polygon fill="#ffffff" stroke="transparent" points="283,-393 283,-411 368,-411 368,-393 283,-393"/>
<polygon fill="none" stroke="black" points="283,-393 283,-411 368,-411 368,-393 283,-393"/>
<text text-anchor="start" x="349" y="-399.2" font-family="Helvetica,sans-Serif" font-size="11.00">5 &gt;</text>
<polygon fill="none" stroke="black" stroke-width="2" points="165,-392 165,-566 369,-566 369,-392 165,-392"/>
</a>
</g>
</g>
<!-- aggregate_risks&#45;&gt;customers -->
<g id="edge1" class="edge">
<title>aggregate_risks:w&#45;&gt;customers:e</title>
<path fill="none" stroke="black" d="M404.18,-390.03C364.16,-410.85 431.24,-532 369,-532"/>
<polygon fill="black" stroke="black" points="410.67,-388.66 419.24,-390.52 414.59,-387.83 418.5,-387 418.5,-387 418.5,-387 414.59,-387.83 417.76,-383.48 410.67,-388.66 410.67,-388.66"/>
<ellipse fill="none" stroke="black" cx="407.54" cy="-389.32" rx="3.2" ry="3.2"/>
</g>
<!-- hazard_metrics -->
<g id="node3" class="node">
<title>hazard_metrics</title>
<g id="a_node3"><a xlink:href="../../tables/hazard_metrics.html" xlink:title="hazard_metrics" target="_top">
<polygon fill="#ffffff" stroke="transparent" points="204,-233 204,-291 330,-291 330,-233 204,-233"/>
<polygon fill="#f5f5f5" stroke="transparent" points="204,-269 204,-291 330,-291 330,-269 204,-269"/>
<polygon fill="none" stroke="black" points="204,-269 204,-291 330,-291 330,-269 204,-269"/>
<text text-anchor="start" x="209" y="-278.2" font-family="Helvetica,sans-Serif" font-weight="bold" font-size="11.00">hazard_metrics</text>
<text text-anchor="start" x="295" y="-277.2" font-family="Helvetica,sans-Serif" font-size="11.00">[table]</text>
<polygon fill="none" stroke="black" points="204,-251 204,-269 330,-269 330,-251 204,-251"/>
<text text-anchor="start" x="207" y="-257.2" font-family="Helvetica,sans-Serif" font-size="11.00">...</text>
<polygon fill="#ffffff" stroke="transparent" points="204,-233 204,-251 244,-251 244,-233 204,-233"/>
<polygon fill="none" stroke="black" points="204,-233 204,-251 244,-251 244,-233 204,-233"/>
<text text-anchor="start" x="207" y="-239.2" font-family="Helvetica,sans-Serif" font-size="11.00">&lt; 1</text>
<polygon fill="#ffffff" stroke="transparent" points="244,-233 244,-251 299,-251 299,-233 244,-233"/>
<polygon fill="none" stroke="black" points="244,-233 244,-251 299,-251 299,-233 244,-233"/>
<text text-anchor="start" x="256" y="-239.2" font-family="Helvetica,sans-Serif" font-size="11.00">15 rows</text>
<polygon fill="#ffffff" stroke="transparent" points="299,-233 299,-251 330,-251 330,-233 299,-233"/>
<polygon fill="none" stroke="black" points="299,-233 299,-251 330,-251 330,-233 299,-233"/>
<text text-anchor="start" x="311" y="-239.2" font-family="Helvetica,sans-Serif" font-size="11.00">3 &gt;</text>
</a>
</g>
</g>
<!-- aggregate_risks&#45;&gt;hazard_metrics -->
<g id="edge2" class="edge">
<title>aggregate_risks:w&#45;&gt;hazard_metrics:e</title>
<path fill="none" stroke="black" d="M403.85,-276.13C376.04,-272.67 365.2,-260 331,-260"/>
<polygon fill="black" stroke="black" points="410.51,-276.53 418.29,-280.59 414.51,-276.76 418.5,-277 418.5,-277 418.5,-277 414.51,-276.76 418.71,-273.41 410.51,-276.53 410.51,-276.53"/>
<ellipse fill="none" stroke="black" cx="407.32" cy="-276.34" rx="3.2" ry="3.2"/>
</g>
<!-- risk_factors -->
<g id="node4" class="node">
<title>risk_factors</title>
<g id="a_node4"><a xlink:href="../../tables/risk_factors.html" xlink:title="risk_factors" target="_top">
<polygon fill="#ffffff" stroke="transparent" points="8,-207 8,-265 115,-265 115,-207 8,-207"/>
<polygon fill="#f5f5f5" stroke="transparent" points="8.5,-243 8.5,-265 115.5,-265 115.5,-243 8.5,-243"/>
<polygon fill="none" stroke="black" points="8.5,-243 8.5,-265 115.5,-265 115.5,-243 8.5,-243"/>
<text text-anchor="start" x="13.5" y="-252.2" font-family="Helvetica,sans-Serif" font-weight="bold" font-size="11.00">risk_factors</text>
<text text-anchor="start" x="80.5" y="-251.2" font-family="Helvetica,sans-Serif" font-size="11.00">[table]</text>
<polygon fill="none" stroke="black" points="8.5,-225 8.5,-243 115.5,-243 115.5,-225 8.5,-225"/>
<text text-anchor="start" x="11.5" y="-231.2" font-family="Helvetica,sans-Serif" font-size="11.00">...</text>
<polygon fill="#ffffff" stroke="transparent" points="8.5,-207 8.5,-225 34.5,-225 34.5,-207 8.5,-207"/>
<polygon fill="none" stroke="black" points="8.5,-207 8.5,-225 34.5,-225 34.5,-207 8.5,-207"/>
<text text-anchor="start" x="11.5" y="-213.2" font-family="Helvetica,sans-Serif" font-size="11.00"> &#160;</text>
<polygon fill="#ffffff" stroke="transparent" points="34.5,-207 34.5,-225 86.5,-225 86.5,-207 34.5,-207"/>
<polygon fill="none" stroke="black" points="34.5,-207 34.5,-225 86.5,-225 86.5,-207 34.5,-207"/>
<text text-anchor="start" x="43.5" y="-213.2" font-family="Helvetica,sans-Serif" font-size="11.00">17 rows</text>
<polygon fill="#ffffff" stroke="transparent" points="86.5,-207 86.5,-225 115.5,-225 115.5,-207 86.5,-207"/>
<polygon fill="none" stroke="black" points="86.5,-207 86.5,-225 115.5,-225 115.5,-207 86.5,-207"/>
<text text-anchor="start" x="96.5" y="-213.2" font-family="Helvetica,sans-Serif" font-size="11.00">7 &gt;</text>
</a>
</g>
</g>
<!-- aggregate_risks&#45;&gt;risk_factors -->
<g id="edge3" class="edge">
<title>aggregate_risks:w&#45;&gt;risk_factors:e</title>
<path fill="none" stroke="black" d="M404.67,-250.36C395.88,-242.88 393.74,-228.47 378,-223 284.8,-190.62 253.76,-209.64 156,-223 137.94,-225.47 134.72,-234 116.5,-234"/>
<polygon fill="black" stroke="black" points="410.92,-252.45 417.35,-258.41 414.71,-253.73 418.5,-255 418.5,-255 418.5,-255 414.71,-253.73 419.65,-251.59 410.92,-252.45 410.92,-252.45"/>
<ellipse fill="none" stroke="black" cx="407.88" cy="-251.44" rx="3.2" ry="3.2"/>
</g>
<!-- scenarios -->
<g id="node5" class="node">
<title>scenarios</title>
<g id="a_node5"><a xlink:href="../../tables/scenarios.html" xlink:title="scenarios" target="_top">
<polygon fill="#ffffff" stroke="transparent" points="219,-312 219,-370 315,-370 315,-312 219,-312"/>
<polygon fill="#f5f5f5" stroke="transparent" points="219,-348 219,-370 315,-370 315,-348 219,-348"/>
<polygon fill="none" stroke="black" points="219,-348 219,-370 315,-370 315,-348 219,-348"/>
<text text-anchor="start" x="224" y="-357.2" font-family="Helvetica,sans-Serif" font-weight="bold" font-size="11.00">scenarios</text>
<text text-anchor="start" x="280" y="-356.2" font-family="Helvetica,sans-Serif" font-size="11.00">[table]</text>
<polygon fill="none" stroke="black" points="219,-330 219,-348 315,-348 315,-330 219,-330"/>
<text text-anchor="start" x="222" y="-336.2" font-family="Helvetica,sans-Serif" font-size="11.00">...</text>
<polygon fill="#ffffff" stroke="transparent" points="219,-312 219,-330 242,-330 242,-312 219,-312"/>
<polygon fill="none" stroke="black" points="219,-312 219,-330 242,-330 242,-312 219,-312"/>
<text text-anchor="start" x="222" y="-318.2" font-family="Helvetica,sans-Serif" font-size="11.00"> &#160;</text>
<polygon fill="#ffffff" stroke="transparent" points="242,-312 242,-330 287,-330 287,-312 242,-312"/>
<polygon fill="none" stroke="black" points="242,-312 242,-330 287,-330 287,-312 242,-312"/>
<text text-anchor="start" x="250" y="-318.2" font-family="Helvetica,sans-Serif" font-size="11.00">4 rows</text>
<polygon fill="#ffffff" stroke="transparent" points="287,-312 287,-330 315,-330 315,-312 287,-312"/>
<polygon fill="none" stroke="black" points="287,-312 287,-330 315,-330 315,-312 287,-312"/>
<text text-anchor="start" x="296" y="-318.2" font-family="Helvetica,sans-Serif" font-size="11.00">4 &gt;</text>
</a>
</g>
</g>
<!-- aggregate_risks&#45;&gt;scenarios -->
<g id="edge4" class="edge">
<title>aggregate_risks:w&#45;&gt;scenarios:e</title>
<path fill="none" stroke="black" d="M404.07,-321.64C369.52,-324.85 357.01,-339 316,-339"/>
<polygon fill="black" stroke="black" points="410.51,-321.35 418.66,-324.6 414.5,-321.18 418.5,-321 418.5,-321 418.5,-321 414.5,-321.18 418.34,-317.4 410.51,-321.35 410.51,-321.35"/>
<ellipse fill="none" stroke="black" cx="407.31" cy="-321.5" rx="3.2" ry="3.2"/>
</g>
<!-- hazard_metrics&#45;&gt;risk_factors -->
<g id="edge11" class="edge">
<title>hazard_metrics:w&#45;&gt;risk_factors:e</title>
<path fill="none" stroke="black" d="M188.64,-258.75C160.61,-253.55 151.31,-234 116.5,-234"/>
<polygon fill="black" stroke="black" points="195.03,-259.3 202.69,-263.59 199.02,-259.65 203,-260 203,-260 203,-260 199.02,-259.65 203.31,-256.41 195.03,-259.3 195.03,-259.3"/>
<ellipse fill="none" stroke="black" cx="191.84" cy="-259.03" rx="3.2" ry="3.2"/>
</g>
<!-- assets -->
<g id="node6" class="node">
<title>assets</title>
<g id="a_node6"><a xlink:href="../../tables/assets.html" xlink:title="assets" target="_top">
<polygon fill="#ffffff" stroke="transparent" points="662.5,-716 662.5,-774 773.5,-774 773.5,-716 662.5,-716"/>
<polygon fill="#f5f5f5" stroke="transparent" points="663,-752 663,-774 774,-774 774,-752 663,-752"/>
<polygon fill="none" stroke="black" points="663,-752 663,-774 774,-774 774,-752 663,-752"/>
<text text-anchor="start" x="668" y="-761.2" font-family="Helvetica,sans-Serif" font-weight="bold" font-size="11.00">assets</text>
<text text-anchor="start" x="739" y="-760.2" font-family="Helvetica,sans-Serif" font-size="11.00">[table]</text>
<polygon fill="none" stroke="black" points="663,-734 663,-752 774,-752 774,-734 663,-734"/>
<text text-anchor="start" x="666" y="-740.2" font-family="Helvetica,sans-Serif" font-size="11.00">...</text>
<polygon fill="#ffffff" stroke="transparent" points="663,-716 663,-734 685,-734 685,-716 663,-716"/>
<polygon fill="none" stroke="black" points="663,-716 663,-734 685,-734 685,-716 663,-716"/>
<text text-anchor="start" x="666" y="-722.2" font-family="Helvetica,sans-Serif" font-size="11.00">&lt; 3</text>
<polygon fill="#ffffff" stroke="transparent" points="685,-716 685,-734 752,-734 752,-716 685,-716"/>
<polygon fill="none" stroke="black" points="685,-716 685,-734 752,-734 752,-716 685,-716"/>
<text text-anchor="start" x="688" y="-722.2" font-family="Helvetica,sans-Serif" font-size="11.00">78,452 rows</text>
<polygon fill="#ffffff" stroke="transparent" points="752,-716 752,-734 774,-734 774,-716 752,-716"/>
<polygon fill="none" stroke="black" points="752,-716 752,-734 774,-734 774,-716 752,-716"/>
<text text-anchor="start" x="755" y="-722.2" font-family="Helvetica,sans-Serif" font-size="11.00">4 &gt;</text>
</a>
</g>
</g>
<!-- ref_id -->
<g id="node7" class="node">
<title>ref_id</title>
<g id="a_node7"><a xlink:href="../../tables/ref_id.html" xlink:title="ref_id" target="_top">
<polygon fill="#ffffff" stroke="transparent" points="449,-652 449,-776 566,-776 566,-652 449,-652"/>
<polygon fill="#f5f5f5" stroke="transparent" points="449.5,-754 449.5,-776 566.5,-776 566.5,-754 449.5,-754"/>
<polygon fill="none" stroke="black" points="449.5,-754 449.5,-776 566.5,-776 566.5,-754 449.5,-754"/>
<text text-anchor="start" x="454.5" y="-763.2" font-family="Helvetica,sans-Serif" font-weight="bold" font-size="11.00">ref_id</text>
<text text-anchor="start" x="531.5" y="-762.2" font-family="Helvetica,sans-Serif" font-size="11.00">[table]</text>
<polygon fill="none" stroke="black" points="449.5,-732 449.5,-754 566.5,-754 566.5,-732 449.5,-732"/>
<image xlink:href="../../images/primaryKeys.png" width="11px" height="12px" preserveAspectRatio="xMinYMin meet" x="454.5" y="-749"/>
<text text-anchor="start" x="482.5" y="-740.2" font-family="Helvetica,sans-Serif" font-size="11.00">id</text>
<polygon fill="none" stroke="black" points="449.5,-710 449.5,-732 566.5,-732 566.5,-710 449.5,-710"/>
<image xlink:href="../../images/foreignKeys.png" width="11px" height="12px" preserveAspectRatio="xMinYMin meet" x="454.5" y="-727"/>
<text text-anchor="start" x="482.5" y="-718.2" font-family="Helvetica,sans-Serif" font-size="11.00">customer_id</text>
<polygon fill="#ffffff" stroke="transparent" points="449.5,-688 449.5,-710 566.5,-710 566.5,-688 449.5,-688"/>
<polygon fill="none" stroke="black" points="449.5,-688 449.5,-710 566.5,-710 566.5,-688 449.5,-688"/>
<text text-anchor="start" x="482.5" y="-696.2" font-family="Helvetica,sans-Serif" font-size="11.00">is_active</text>
<polygon fill="none" stroke="black" points="449.5,-670 449.5,-688 566.5,-688 566.5,-670 449.5,-670"/>
<text text-anchor="start" x="452.5" y="-676.2" font-family="Helvetica,sans-Serif" font-size="11.00">...</text>
<polygon fill="#ffffff" stroke="transparent" points="449.5,-652 449.5,-670 471.5,-670 471.5,-652 449.5,-652"/>
<polygon fill="none" stroke="black" points="449.5,-652 449.5,-670 471.5,-670 471.5,-652 449.5,-652"/>
<text text-anchor="start" x="452.5" y="-658.2" font-family="Helvetica,sans-Serif" font-size="11.00">&lt; 1</text>
<polygon fill="#ffffff" stroke="transparent" points="471.5,-652 471.5,-670 544.5,-670 544.5,-652 471.5,-652"/>
<polygon fill="none" stroke="black" points="471.5,-652 471.5,-670 544.5,-670 544.5,-652 471.5,-652"/>
<text text-anchor="start" x="474.5" y="-658.2" font-family="Helvetica,sans-Serif" font-size="11.00">140,067 rows</text>
<polygon fill="#ffffff" stroke="transparent" points="544.5,-652 544.5,-670 566.5,-670 566.5,-652 544.5,-652"/>
<polygon fill="none" stroke="black" points="544.5,-652 544.5,-670 566.5,-670 566.5,-652 544.5,-652"/>
<text text-anchor="start" x="547.5" y="-658.2" font-family="Helvetica,sans-Serif" font-size="11.00">2 &gt;</text>
</a>
</g>
</g>
<!-- assets&#45;&gt;ref_id -->
<g id="edge5" class="edge">
<title>assets:w&#45;&gt;ref_id:e</title>
<path fill="none" stroke="black" d="M651.4,-743C617.86,-743 605.73,-743 567.5,-743"/>
<polygon fill="black" stroke="black" points="661.2,-739 661.2,-747 659.6,-747 659.6,-739 661.2,-739"/>
<polyline fill="none" stroke="black" points="662,-743 658,-743 "/>
<ellipse fill="none" stroke="black" cx="654.8" cy="-743" rx="3.2" ry="3.2"/>
</g>
<!-- ref_id&#45;&gt;customers -->
<g id="edge14" class="edge">
<title>ref_id:w&#45;&gt;customers:e</title>
<path fill="none" stroke="black" d="M433.99,-719.01C369.1,-698.81 454.61,-532 369,-532"/>
<polygon fill="black" stroke="black" points="440.57,-719.91 448.01,-724.57 444.54,-720.46 448.5,-721 448.5,-721 448.5,-721 444.54,-720.46 448.99,-717.43 440.57,-719.91 440.57,-719.91"/>
<ellipse fill="none" stroke="black" cx="437.4" cy="-719.47" rx="3.2" ry="3.2"/>
</g>
<!-- assets_tags -->
<g id="node8" class="node">
<title>assets_tags</title>
<g id="a_node8"><a xlink:href="../../tables/assets_tags.html" xlink:title="assets_tags" target="_top">
<polygon fill="#ffffff" stroke="transparent" points="841.5,-636 841.5,-694 949.5,-694 949.5,-636 841.5,-636"/>
<polygon fill="#f5f5f5" stroke="transparent" points="841.5,-672 841.5,-694 949.5,-694 949.5,-672 841.5,-672"/>
<polygon fill="none" stroke="black" points="841.5,-672 841.5,-694 949.5,-694 949.5,-672 841.5,-672"/>
<text text-anchor="start" x="846.5" y="-681.2" font-family="Helvetica,sans-Serif" font-weight="bold" font-size="11.00">assets_tags</text>
<text text-anchor="start" x="914.5" y="-680.2" font-family="Helvetica,sans-Serif" font-size="11.00">[table]</text>
<polygon fill="none" stroke="black" points="841.5,-654 841.5,-672 949.5,-672 949.5,-654 841.5,-654"/>
<text text-anchor="start" x="844.5" y="-660.2" font-family="Helvetica,sans-Serif" font-size="11.00">...</text>
<polygon fill="#ffffff" stroke="transparent" points="841.5,-636 841.5,-654 866.5,-654 866.5,-636 841.5,-636"/>
<polygon fill="none" stroke="black" points="841.5,-636 841.5,-654 866.5,-654 866.5,-636 841.5,-636"/>
<text text-anchor="start" x="844.5" y="-642.2" font-family="Helvetica,sans-Serif" font-size="11.00">&lt; 2</text>
<polygon fill="#ffffff" stroke="transparent" points="866.5,-636 866.5,-654 934.5,-654 934.5,-636 866.5,-636"/>
<polygon fill="none" stroke="black" points="866.5,-636 866.5,-654 934.5,-654 934.5,-636 866.5,-636"/>
<text text-anchor="start" x="870.5" y="-642.2" font-family="Helvetica,sans-Serif" font-size="11.00">22,144 rows</text>
<polygon fill="#ffffff" stroke="transparent" points="934.5,-636 934.5,-654 949.5,-654 949.5,-636 934.5,-636"/>
<polygon fill="none" stroke="black" points="934.5,-636 934.5,-654 949.5,-654 949.5,-636 934.5,-636"/>
<text text-anchor="start" x="939.5" y="-642.2" font-family="Helvetica,sans-Serif" font-size="11.00"> &#160;</text>
</a>
</g>
</g>
<!-- assets_tags&#45;&gt;assets -->
<g id="edge6" class="edge">
<title>assets_tags:w&#45;&gt;assets:e</title>
<path fill="none" stroke="black" d="M826.38,-666.44C800.02,-681.75 815.21,-743 775,-743"/>
<polygon fill="black" stroke="black" points="832.73,-664.89 841.35,-666.5 836.61,-663.95 840.5,-663 840.5,-663 840.5,-663 836.61,-663.95 839.65,-659.5 832.73,-664.89 832.73,-664.89"/>
<ellipse fill="none" stroke="black" cx="829.62" cy="-665.65" rx="3.2" ry="3.2"/>
</g>
<!-- tags -->
<g id="node9" class="node">
<title>tags</title>
<g id="a_node9"><a xlink:href="../../tables/tags.html" xlink:title="tags" target="_top">
<polygon fill="#ffffff" stroke="transparent" points="670,-571 670,-695 766,-695 766,-571 670,-571"/>
<polygon fill="#f5f5f5" stroke="transparent" points="670,-673 670,-695 766,-695 766,-673 670,-673"/>
<polygon fill="none" stroke="black" points="670,-673 670,-695 766,-695 766,-673 670,-673"/>
<text text-anchor="start" x="675" y="-682.2" font-family="Helvetica,sans-Serif" font-weight="bold" font-size="11.00">tags</text>
<text text-anchor="start" x="731" y="-681.2" font-family="Helvetica,sans-Serif" font-size="11.00">[table]</text>
<polygon fill="none" stroke="black" points="670,-651 670,-673 766,-673 766,-651 670,-651"/>
<image xlink:href="../../images/primaryKeys.png" width="11px" height="12px" preserveAspectRatio="xMinYMin meet" x="675" y="-668"/>
<text text-anchor="start" x="692" y="-659.2" font-family="Helvetica,sans-Serif" font-size="11.00">id</text>
<polygon fill="#ffffff" stroke="transparent" points="670,-629 670,-651 766,-651 766,-629 670,-629"/>
<polygon fill="none" stroke="black" points="670,-629 670,-651 766,-651 766,-629 670,-629"/>
<image xlink:href="../../images/foreignKeys.png" width="11px" height="12px" preserveAspectRatio="xMinYMin meet" x="675" y="-646"/>
<text text-anchor="start" x="692" y="-637.2" font-family="Helvetica,sans-Serif" font-size="11.00">customer_id</text>
<polygon fill="#ffffff" stroke="transparent" points="670,-607 670,-629 766,-629 766,-607 670,-607"/>
<polygon fill="none" stroke="black" points="670,-607 670,-629 766,-629 766,-607 670,-607"/>
<text text-anchor="start" x="692" y="-615.2" font-family="Helvetica,sans-Serif" font-size="11.00">name</text>
<polygon fill="none" stroke="black" points="670,-589 670,-607 766,-607 766,-589 670,-589"/>
<text text-anchor="start" x="673" y="-595.2" font-family="Helvetica,sans-Serif" font-size="11.00">...</text>
<polygon fill="#ffffff" stroke="transparent" points="670,-571 670,-589 692,-589 692,-571 670,-571"/>
<polygon fill="none" stroke="black" points="670,-571 670,-589 692,-589 692,-571 670,-571"/>
<text text-anchor="start" x="673" y="-577.2" font-family="Helvetica,sans-Serif" font-size="11.00">&lt; 1</text>
<polygon fill="#ffffff" stroke="transparent" points="692,-571 692,-589 744,-589 744,-571 692,-571"/>
<polygon fill="none" stroke="black" points="692,-571 692,-589 744,-589 744,-571 692,-571"/>
<text text-anchor="start" x="695" y="-577.2" font-family="Helvetica,sans-Serif" font-size="11.00">339 rows</text>
<polygon fill="#ffffff" stroke="transparent" points="744,-571 744,-589 766,-589 766,-571 744,-571"/>
<polygon fill="none" stroke="black" points="744,-571 744,-589 766,-589 766,-571 744,-571"/>
<text text-anchor="start" x="747" y="-577.2" font-family="Helvetica,sans-Serif" font-size="11.00">1 &gt;</text>
</a>
</g>
</g>
<!-- assets_tags&#45;&gt;tags -->
<g id="edge7" class="edge">
<title>assets_tags:w&#45;&gt;tags:e</title>
<path fill="none" stroke="black" d="M825.88,-662.92C804.4,-662.69 794.18,-662 767,-662"/>
<polygon fill="black" stroke="black" points="832.5,-662.96 840.48,-666.6 836.5,-662.98 840.5,-663 840.5,-663 840.5,-663 836.5,-662.98 840.52,-659.4 832.5,-662.96 832.5,-662.96"/>
<ellipse fill="none" stroke="black" cx="829.3" cy="-662.94" rx="3.2" ry="3.2"/>
</g>
<!-- tags&#45;&gt;customers -->
<g id="edge15" class="edge">
<title>tags:w&#45;&gt;customers:e</title>
<path fill="none" stroke="black" d="M654.53,-639.97C547.58,-639.51 508.89,-632.82 411,-576 387.62,-562.43 396.03,-532 369,-532"/>
<polygon fill="black" stroke="black" points="661,-639.98 668.99,-643.6 665,-639.99 669,-640 669,-640 669,-640 665,-639.99 669.01,-636.4 661,-639.98 661,-639.98"/>
<ellipse fill="none" stroke="black" cx="657.8" cy="-639.98" rx="3.2" ry="3.2"/>
</g>
<!-- folders -->
<g id="node10" class="node">
<title>folders</title>
<g id="a_node10"><a xlink:href="../../tables/folders.html" xlink:title="folders" target="_top">
<polygon fill="#ffffff" stroke="transparent" points="670,-492 670,-550 766,-550 766,-492 670,-492"/>
<polygon fill="#f5f5f5" stroke="transparent" points="670,-528 670,-550 766,-550 766,-528 670,-528"/>
<polygon fill="none" stroke="black" points="670,-528 670,-550 766,-550 766,-528 670,-528"/>
<text text-anchor="start" x="675" y="-537.2" font-family="Helvetica,sans-Serif" font-weight="bold" font-size="11.00">folders</text>
<text text-anchor="start" x="731" y="-536.2" font-family="Helvetica,sans-Serif" font-size="11.00">[table]</text>
<polygon fill="none" stroke="black" points="670,-510 670,-528 766,-528 766,-510 670,-510"/>
<text text-anchor="start" x="673" y="-516.2" font-family="Helvetica,sans-Serif" font-size="11.00">...</text>
<polygon fill="#ffffff" stroke="transparent" points="670,-492 670,-510 692,-510 692,-492 670,-492"/>
<polygon fill="none" stroke="black" points="670,-492 670,-510 692,-510 692,-492 670,-492"/>
<text text-anchor="start" x="673" y="-498.2" font-family="Helvetica,sans-Serif" font-size="11.00">&lt; 1</text>
<polygon fill="#ffffff" stroke="transparent" points="692,-492 692,-510 744,-510 744,-492 692,-492"/>
<polygon fill="none" stroke="black" points="692,-492 692,-510 744,-510 744,-492 692,-492"/>
<text text-anchor="start" x="695" y="-498.2" font-family="Helvetica,sans-Serif" font-size="11.00">311 rows</text>
<polygon fill="#ffffff" stroke="transparent" points="744,-492 744,-510 766,-510 766,-492 744,-492"/>
<polygon fill="none" stroke="black" points="744,-492 744,-510 766,-510 766,-492 744,-492"/>
<text text-anchor="start" x="747" y="-498.2" font-family="Helvetica,sans-Serif" font-size="11.00">1 &gt;</text>
</a>
</g>
</g>
<!-- groups -->
<g id="node11" class="node">
<title>groups</title>
<g id="a_node11"><a xlink:href="../../tables/groups.html" xlink:title="groups" target="_top">
<polygon fill="#ffffff" stroke="transparent" points="459.5,-441 459.5,-565 555.5,-565 555.5,-441 459.5,-441"/>
<polygon fill="#f5f5f5" stroke="transparent" points="459.5,-543 459.5,-565 555.5,-565 555.5,-543 459.5,-543"/>
<polygon fill="none" stroke="black" points="459.5,-543 459.5,-565 555.5,-565 555.5,-543 459.5,-543"/>
<text text-anchor="start" x="464.5" y="-552.2" font-family="Helvetica,sans-Serif" font-weight="bold" font-size="11.00">groups</text>
<text text-anchor="start" x="520.5" y="-551.2" font-family="Helvetica,sans-Serif" font-size="11.00">[table]</text>
<polygon fill="none" stroke="black" points="459.5,-521 459.5,-543 555.5,-543 555.5,-521 459.5,-521"/>
<image xlink:href="../../images/primaryKeys.png" width="11px" height="12px" preserveAspectRatio="xMinYMin meet" x="464.5" y="-538"/>
<text text-anchor="start" x="481.5" y="-529.2" font-family="Helvetica,sans-Serif" font-size="11.00">id</text>
<polygon fill="#ffffff" stroke="transparent" points="459.5,-499 459.5,-521 555.5,-521 555.5,-499 459.5,-499"/>
<polygon fill="none" stroke="black" points="459.5,-499 459.5,-521 555.5,-521 555.5,-499 459.5,-499"/>
<image xlink:href="../../images/foreignKeys.png" width="11px" height="12px" preserveAspectRatio="xMinYMin meet" x="464.5" y="-516"/>
<text text-anchor="start" x="481.5" y="-507.2" font-family="Helvetica,sans-Serif" font-size="11.00">customer_id</text>
<polygon fill="#ffffff" stroke="transparent" points="459.5,-477 459.5,-499 555.5,-499 555.5,-477 459.5,-477"/>
<polygon fill="none" stroke="black" points="459.5,-477 459.5,-499 555.5,-499 555.5,-477 459.5,-477"/>
<text text-anchor="start" x="481.5" y="-485.2" font-family="Helvetica,sans-Serif" font-size="11.00">name</text>
<polygon fill="none" stroke="black" points="459.5,-459 459.5,-477 555.5,-477 555.5,-459 459.5,-459"/>
<text text-anchor="start" x="462.5" y="-465.2" font-family="Helvetica,sans-Serif" font-size="11.00">...</text>
<polygon fill="#ffffff" stroke="transparent" points="459.5,-441 459.5,-459 481.5,-459 481.5,-441 459.5,-441"/>
<polygon fill="none" stroke="black" points="459.5,-441 459.5,-459 481.5,-459 481.5,-441 459.5,-441"/>
<text text-anchor="start" x="462.5" y="-447.2" font-family="Helvetica,sans-Serif" font-size="11.00">&lt; 1</text>
<polygon fill="#ffffff" stroke="transparent" points="481.5,-441 481.5,-459 533.5,-459 533.5,-441 481.5,-441"/>
<polygon fill="none" stroke="black" points="481.5,-441 481.5,-459 533.5,-459 533.5,-441 481.5,-441"/>
<text text-anchor="start" x="484.5" y="-447.2" font-family="Helvetica,sans-Serif" font-size="11.00">150 rows</text>
<polygon fill="#ffffff" stroke="transparent" points="533.5,-441 533.5,-459 555.5,-459 555.5,-441 533.5,-441"/>
<polygon fill="none" stroke="black" points="533.5,-441 533.5,-459 555.5,-459 555.5,-441 533.5,-441"/>
<text text-anchor="start" x="536.5" y="-447.2" font-family="Helvetica,sans-Serif" font-size="11.00">2 &gt;</text>
</a>
</g>
</g>
<!-- folders&#45;&gt;groups -->
<g id="edge8" class="edge">
<title>folders:w&#45;&gt;groups:e</title>
<path fill="none" stroke="black" d="M654.52,-519.39C615.8,-521.55 601.62,-532 556.5,-532"/>
<polygon fill="black" stroke="black" points="661,-519.21 669.1,-522.6 665,-519.11 669,-519 669,-519 669,-519 665,-519.11 668.9,-515.4 661,-519.21 661,-519.21"/>
<ellipse fill="none" stroke="black" cx="657.8" cy="-519.3" rx="3.2" ry="3.2"/>
</g>
<!-- groups&#45;&gt;customers -->
<g id="edge10" class="edge">
<title>groups:w&#45;&gt;customers:e</title>
<path fill="none" stroke="black" d="M443.79,-511.06C414.94,-515.46 404.52,-532 369,-532"/>
<polygon fill="black" stroke="black" points="450.52,-510.58 458.76,-513.59 454.51,-510.29 458.5,-510 458.5,-510 458.5,-510 454.51,-510.29 458.24,-506.41 450.52,-510.58 450.52,-510.58"/>
<ellipse fill="none" stroke="black" cx="447.33" cy="-510.81" rx="3.2" ry="3.2"/>
</g>
<!-- group_value_types -->
<g id="node12" class="node">
<title>group_value_types</title>
<g id="a_node12"><a xlink:href="../../tables/group_value_types.html" xlink:title="group_value_types" target="_top">
<polygon fill="#ffffff" stroke="transparent" points="645,-413 645,-471 791,-471 791,-413 645,-413"/>
<polygon fill="#f5f5f5" stroke="transparent" points="645,-449 645,-471 791,-471 791,-449 645,-449"/>
<polygon fill="none" stroke="black" points="645,-449 645,-471 791,-471 791,-449 645,-449"/>
<text text-anchor="start" x="650" y="-458.2" font-family="Helvetica,sans-Serif" font-weight="bold" font-size="11.00">group_value_types</text>
<text text-anchor="start" x="756" y="-457.2" font-family="Helvetica,sans-Serif" font-size="11.00">[table]</text>
<polygon fill="none" stroke="black" points="645,-431 645,-449 791,-449 791,-431 645,-431"/>
<text text-anchor="start" x="648" y="-437.2" font-family="Helvetica,sans-Serif" font-size="11.00">...</text>
<polygon fill="#ffffff" stroke="transparent" points="645,-413 645,-431 702,-431 702,-413 645,-413"/>
<polygon fill="none" stroke="black" points="645,-413 645,-431 702,-431 702,-413 645,-413"/>
<text text-anchor="start" x="648" y="-419.2" font-family="Helvetica,sans-Serif" font-size="11.00">&lt; 2</text>
<polygon fill="#ffffff" stroke="transparent" points="702,-413 702,-431 760,-431 760,-413 702,-413"/>
<polygon fill="none" stroke="black" points="702,-413 702,-431 760,-431 760,-413 702,-413"/>
<text text-anchor="start" x="723" y="-419.2" font-family="Helvetica,sans-Serif" font-size="11.00">0 rows</text>
<polygon fill="#ffffff" stroke="transparent" points="760,-413 760,-431 791,-431 791,-413 760,-413"/>
<polygon fill="none" stroke="black" points="760,-413 760,-431 791,-431 791,-413 760,-413"/>
<text text-anchor="start" x="781" y="-419.2" font-family="Helvetica,sans-Serif" font-size="11.00"> &#160;</text>
</a>
</g>
</g>
<!-- group_value_types&#45;&gt;groups -->
<g id="edge9" class="edge">
<title>group_value_types:w&#45;&gt;groups:e</title>
<path fill="none" stroke="black" d="M629.66,-442.46C591.74,-457.09 607.42,-532 556.5,-532"/>
<polygon fill="black" stroke="black" points="636.12,-441.35 644.61,-443.55 640.06,-440.68 644,-440 644,-440 644,-440 640.06,-440.68 643.39,-436.45 636.12,-441.35 636.12,-441.35"/>
<ellipse fill="none" stroke="black" cx="632.96" cy="-441.89" rx="3.2" ry="3.2"/>
</g>
<!-- locations -->
<g id="node13" class="node">
<title>locations</title>
<g id="a_node13"><a xlink:href="../../tables/locations.html" xlink:title="locations" target="_top">
<polygon fill="#ffffff" stroke="transparent" points="840,-743 840,-801 951,-801 951,-743 840,-743"/>
<polygon fill="#f5f5f5" stroke="transparent" points="840.5,-779 840.5,-801 951.5,-801 951.5,-779 840.5,-779"/>
<polygon fill="none" stroke="black" points="840.5,-779 840.5,-801 951.5,-801 951.5,-779 840.5,-779"/>
<text text-anchor="start" x="845.5" y="-788.2" font-family="Helvetica,sans-Serif" font-weight="bold" font-size="11.00">locations</text>
<text text-anchor="start" x="916.5" y="-787.2" font-family="Helvetica,sans-Serif" font-size="11.00">[table]</text>
<polygon fill="none" stroke="black" points="840.5,-761 840.5,-779 951.5,-779 951.5,-761 840.5,-761"/>
<text text-anchor="start" x="843.5" y="-767.2" font-family="Helvetica,sans-Serif" font-size="11.00">...</text>
<polygon fill="#ffffff" stroke="transparent" points="840.5,-743 840.5,-761 862.5,-761 862.5,-743 840.5,-743"/>
<polygon fill="none" stroke="black" points="840.5,-743 840.5,-761 862.5,-761 862.5,-743 840.5,-743"/>
<text text-anchor="start" x="843.5" y="-749.2" font-family="Helvetica,sans-Serif" font-size="11.00">&lt; 2</text>
<polygon fill="#ffffff" stroke="transparent" points="862.5,-743 862.5,-761 929.5,-761 929.5,-743 862.5,-743"/>
<polygon fill="none" stroke="black" points="862.5,-743 862.5,-761 929.5,-761 929.5,-743 862.5,-743"/>
<text text-anchor="start" x="865.5" y="-749.2" font-family="Helvetica,sans-Serif" font-size="11.00">81,629 rows</text>
<polygon fill="#ffffff" stroke="transparent" points="929.5,-743 929.5,-761 951.5,-761 951.5,-743 929.5,-743"/>
<polygon fill="none" stroke="black" points="929.5,-743 929.5,-761 951.5,-761 951.5,-743 929.5,-743"/>
<text text-anchor="start" x="932.5" y="-749.2" font-family="Helvetica,sans-Serif" font-size="11.00">3 &gt;</text>
</a>
</g>
</g>
<!-- locations&#45;&gt;assets -->
<g id="edge12" class="edge">
<title>locations:w&#45;&gt;assets:e</title>
<path fill="none" stroke="black" d="M825.2,-767.7C806.65,-761.17 800.49,-743 775,-743"/>
<polygon fill="black" stroke="black" points="831.6,-768.73 838.93,-773.55 835.55,-769.36 839.5,-770 839.5,-770 839.5,-770 835.55,-769.36 840.07,-766.45 831.6,-768.73 831.6,-768.73"/>
<ellipse fill="none" stroke="black" cx="828.44" cy="-768.22" rx="3.2" ry="3.2"/>
</g>
<!-- locations&#45;&gt;ref_id -->
<g id="edge13" class="edge">
<title>locations:w&#45;&gt;ref_id:e</title>
<path fill="none" stroke="black" d="M825.13,-772.92C817.07,-776.6 811.84,-782.7 799,-785 728.13,-797.7 706.36,-804.33 637,-785 602.23,-775.31 603.59,-743 567.5,-743"/>
<polygon fill="black" stroke="black" points="831.66,-771.59 840.22,-773.53 835.58,-770.8 839.5,-770 839.5,-770 839.5,-770 835.58,-770.8 838.78,-766.47 831.66,-771.59 831.66,-771.59"/>
<ellipse fill="none" stroke="black" cx="828.52" cy="-772.23" rx="3.2" ry="3.2"/>
</g>
<!-- users_roles_customers -->
<g id="node14" class="node">
<title>users_roles_customers</title>
<g id="a_node14"><a xlink:href="../../tables/users_roles_customers.html" xlink:title="users_roles_customers" target="_top">
<polygon fill="#ffffff" stroke="transparent" points="423,-41 423,-187 592,-187 592,-41 423,-41"/>
<polygon fill="#f5f5f5" stroke="transparent" points="423.5,-165 423.5,-187 592.5,-187 592.5,-165 423.5,-165"/>
<polygon fill="none" stroke="black" points="423.5,-165 423.5,-187 592.5,-187 592.5,-165 423.5,-165"/>
<text text-anchor="start" x="428.5" y="-174.2" font-family="Helvetica,sans-Serif" font-weight="bold" font-size="11.00">users_roles_customers</text>
<text text-anchor="start" x="557.5" y="-173.2" font-family="Helvetica,sans-Serif" font-size="11.00">[table]</text>
<polygon fill="none" stroke="black" points="423.5,-143 423.5,-165 592.5,-165 592.5,-143 423.5,-143"/>
<image xlink:href="../../images/primaryKeys.png" width="11px" height="12px" preserveAspectRatio="xMinYMin meet" x="428.5" y="-160"/>
<text text-anchor="start" x="450.5" y="-151.2" font-family="Helvetica,sans-Serif" font-size="11.00">id</text>
<polygon fill="#ffffff" stroke="transparent" points="423.5,-121 423.5,-143 592.5,-143 592.5,-121 423.5,-121"/>
<polygon fill="none" stroke="black" points="423.5,-121 423.5,-143 592.5,-143 592.5,-121 423.5,-121"/>
<image xlink:href="../../images/foreignKeys.png" width="11px" height="12px" preserveAspectRatio="xMinYMin meet" x="428.5" y="-138"/>
<text text-anchor="start" x="450.5" y="-129.2" font-family="Helvetica,sans-Serif" font-size="11.00">user_id</text>
<polygon fill="none" stroke="black" points="423.5,-99 423.5,-121 592.5,-121 592.5,-99 423.5,-99"/>
<image xlink:href="../../images/foreignKeys.png" width="11px" height="12px" preserveAspectRatio="xMinYMin meet" x="428.5" y="-116"/>
<text text-anchor="start" x="450.5" y="-107.2" font-family="Helvetica,sans-Serif" font-size="11.00">role_id</text>
<polygon fill="#ffffff" stroke="transparent" points="423.5,-77 423.5,-99 592.5,-99 592.5,-77 423.5,-77"/>
<polygon fill="none" stroke="black" points="423.5,-77 423.5,-99 592.5,-99 592.5,-77 423.5,-77"/>
<image xlink:href="../../images/foreignKeys.png" width="11px" height="12px" preserveAspectRatio="xMinYMin meet" x="428.5" y="-94"/>
<text text-anchor="start" x="450.5" y="-85.2" font-family="Helvetica,sans-Serif" font-size="11.00">customer_id</text>
<polygon fill="none" stroke="black" points="423.5,-59 423.5,-77 592.5,-77 592.5,-59 423.5,-59"/>
<text text-anchor="start" x="426.5" y="-65.2" font-family="Helvetica,sans-Serif" font-size="11.00">...</text>
<polygon fill="#ffffff" stroke="transparent" points="423.5,-41 423.5,-59 489.5,-59 489.5,-41 423.5,-41"/>
<polygon fill="none" stroke="black" points="423.5,-41 423.5,-59 489.5,-59 489.5,-41 423.5,-41"/>
<text text-anchor="start" x="426.5" y="-47.2" font-family="Helvetica,sans-Serif" font-size="11.00">&lt; 3</text>
<polygon fill="#ffffff" stroke="transparent" points="489.5,-41 489.5,-59 557.5,-59 557.5,-41 489.5,-41"/>
<polygon fill="none" stroke="black" points="489.5,-41 489.5,-59 557.5,-59 557.5,-41 489.5,-41"/>
<text text-anchor="start" x="514.5" y="-47.2" font-family="Helvetica,sans-Serif" font-size="11.00">12 rows</text>
<polygon fill="#ffffff" stroke="transparent" points="557.5,-41 557.5,-59 592.5,-59 592.5,-41 557.5,-41"/>
<polygon fill="none" stroke="black" points="557.5,-41 557.5,-59 592.5,-59 592.5,-41 557.5,-41"/>
<text text-anchor="start" x="582.5" y="-47.2" font-family="Helvetica,sans-Serif" font-size="11.00"> &#160;</text>
</a>
</g>
</g>
<!-- users_roles_customers&#45;&gt;customers -->
<g id="edge16" class="edge">
<title>users_roles_customers:w&#45;&gt;customers:e</title>
<path fill="none" stroke="black" d="M408.31,-91.84C338.28,-135.23 462.95,-532 369,-532"/>
<polygon fill="black" stroke="black" points="414.78,-90.09 423.44,-91.48 418.64,-89.04 422.5,-88 422.5,-88 422.5,-88 418.64,-89.04 421.56,-84.52 414.78,-90.09 414.78,-90.09"/>
<ellipse fill="none" stroke="black" cx="411.69" cy="-90.92" rx="3.2" ry="3.2"/>
</g>
<!-- roles -->
<g id="node15" class="node">
<title>roles</title>
<g id="a_node15"><a xlink:href="../../tables/roles.html" xlink:title="roles" target="_top">
<polygon fill="#ffffff" stroke="transparent" points="229.5,-37 229.5,-95 304.5,-95 304.5,-37 229.5,-37"/>
<polygon fill="#f5f5f5" stroke="transparent" points="230,-73 230,-95 305,-95 305,-73 230,-73"/>
<polygon fill="none" stroke="black" points="230,-73 230,-95 305,-95 305,-73 230,-73"/>
<text text-anchor="start" x="235" y="-82.2" font-family="Helvetica,sans-Serif" font-weight="bold" font-size="11.00">roles</text>
<text text-anchor="start" x="270" y="-81.2" font-family="Helvetica,sans-Serif" font-size="11.00">[table]</text>
<polygon fill="none" stroke="black" points="230,-55 230,-73 305,-73 305,-55 230,-55"/>
<text text-anchor="start" x="233" y="-61.2" font-family="Helvetica,sans-Serif" font-size="11.00">...</text>
<polygon fill="#ffffff" stroke="transparent" points="230,-37 230,-55 243,-55 243,-37 230,-37"/>
<polygon fill="none" stroke="black" points="230,-37 230,-55 243,-55 243,-37 230,-37"/>
<text text-anchor="start" x="233" y="-43.2" font-family="Helvetica,sans-Serif" font-size="11.00"> &#160;</text>
<polygon fill="#ffffff" stroke="transparent" points="243,-37 243,-55 283,-55 283,-37 243,-37"/>
<polygon fill="none" stroke="black" points="243,-37 243,-55 283,-55 283,-37 243,-37"/>
<text text-anchor="start" x="246" y="-43.2" font-family="Helvetica,sans-Serif" font-size="11.00">3 rows</text>
<polygon fill="#ffffff" stroke="transparent" points="283,-37 283,-55 305,-55 305,-37 283,-37"/>
<polygon fill="none" stroke="black" points="283,-37 283,-55 305,-55 305,-37 283,-37"/>
<text text-anchor="start" x="286" y="-43.2" font-family="Helvetica,sans-Serif" font-size="11.00">2 &gt;</text>
</a>
</g>
</g>
<!-- users_roles_customers&#45;&gt;roles -->
<g id="edge17" class="edge">
<title>users_roles_customers:w&#45;&gt;roles:e</title>
<path fill="none" stroke="black" d="M408.09,-108.86C365.42,-101.78 356.45,-64 306,-64"/>
<polygon fill="black" stroke="black" points="414.52,-109.37 422.22,-113.59 418.51,-109.69 422.5,-110 422.5,-110 422.5,-110 418.51,-109.69 422.78,-106.41 414.52,-109.37 414.52,-109.37"/>
<ellipse fill="none" stroke="black" cx="411.33" cy="-109.12" rx="3.2" ry="3.2"/>
</g>
<!-- users -->
<g id="node16" class="node">
<title>users</title>
<g id="a_node16"><a xlink:href="../../tables/users.html" xlink:title="users" target="_top">
<polygon fill="#ffffff" stroke="transparent" points="226.5,-116 226.5,-174 307.5,-174 307.5,-116 226.5,-116"/>
<polygon fill="#f5f5f5" stroke="transparent" points="227,-152 227,-174 308,-174 308,-152 227,-152"/>
<polygon fill="none" stroke="black" points="227,-152 227,-174 308,-174 308,-152 227,-152"/>
<text text-anchor="start" x="232" y="-161.2" font-family="Helvetica,sans-Serif" font-weight="bold" font-size="11.00">users</text>
<text text-anchor="start" x="273" y="-160.2" font-family="Helvetica,sans-Serif" font-size="11.00">[table]</text>
<polygon fill="none" stroke="black" points="227,-134 227,-152 308,-152 308,-134 227,-134"/>
<text text-anchor="start" x="230" y="-140.2" font-family="Helvetica,sans-Serif" font-size="11.00">...</text>
<polygon fill="#ffffff" stroke="transparent" points="227,-116 227,-134 240,-134 240,-116 227,-116"/>
<polygon fill="none" stroke="black" points="227,-116 227,-134 240,-134 240,-116 227,-116"/>
<text text-anchor="start" x="230" y="-122.2" font-family="Helvetica,sans-Serif" font-size="11.00"> &#160;</text>
<polygon fill="#ffffff" stroke="transparent" points="240,-116 240,-134 286,-134 286,-116 240,-116"/>
<polygon fill="none" stroke="black" points="240,-116 240,-134 286,-134 286,-116 240,-116"/>
<text text-anchor="start" x="243" y="-122.2" font-family="Helvetica,sans-Serif" font-size="11.00">11 rows</text>
<polygon fill="#ffffff" stroke="transparent" points="286,-116 286,-134 308,-134 308,-116 286,-116"/>
<polygon fill="none" stroke="black" points="286,-116 286,-134 308,-134 308,-116 286,-116"/>
<text text-anchor="start" x="289" y="-122.2" font-family="Helvetica,sans-Serif" font-size="11.00">2 &gt;</text>
</a>
</g>
</g>
<!-- users_roles_customers&#45;&gt;users -->
<g id="edge18" class="edge">
<title>users_roles_customers:w&#45;&gt;users:e</title>
<path fill="none" stroke="black" d="M407.91,-132.33C368.89,-134.16 354.43,-143 309,-143"/>
<polygon fill="black" stroke="black" points="414.5,-132.18 422.58,-135.6 418.5,-132.09 422.5,-132 422.5,-132 422.5,-132 418.5,-132.09 422.42,-128.4 414.5,-132.18 414.5,-132.18"/>
<ellipse fill="none" stroke="black" cx="411.3" cy="-132.25" rx="3.2" ry="3.2"/>
</g>
</g>
</svg>
