<?xml version="1.0" encoding="UTF-8" standalone="no"?>
<!DOCTYPE svg PUBLIC "-//W3C//DTD SVG 1.1//EN"
 "http://www.w3.org/Graphics/SVG/1.1/DTD/svg11.dtd">
<!-- Generated by graphviz version 2.50.0 (20211204.2007)
 -->
<!-- Title: oneDegreeRelationshipsDiagram Pages: 1 -->
<svg width="456pt" height="863pt"
 viewBox="0.00 0.00 456.00 863.00" xmlns="http://www.w3.org/2000/svg" xmlns:xlink="http://www.w3.org/1999/xlink">
<g id="graph0" class="graph" transform="scale(1 1) rotate(0) translate(4 859)">
<title>oneDegreeRelationshipsDiagram</title>
<polygon fill="#ffffff" stroke="transparent" points="-4,4 -4,-859 452,-859 452,4 -4,4"/>
<text text-anchor="middle" x="72.5" y="-7.2" font-family="Helvetica,sans-Serif" font-size="11.00">Generated by SchemaSpy</text>
<!-- aggregate_risks -->
<g id="node1" class="node">
<title>aggregate_risks</title>
<g id="a_node1"><a xlink:href="../../tables/aggregate_risks.html" xlink:title="aggregate_risks" target="_top">
<polygon fill="#ffffff" stroke="transparent" points="263,-639 263,-851 440,-851 440,-639 263,-639"/>
<polygon fill="#f5f5f5" stroke="transparent" points="263.5,-829 263.5,-851 440.5,-851 440.5,-829 263.5,-829"/>
<polygon fill="none" stroke="black" points="263.5,-829 263.5,-851 440.5,-851 440.5,-829 263.5,-829"/>
<text text-anchor="start" x="268.5" y="-838.2" font-family="Helvetica,sans-Serif" font-weight="bold" font-size="11.00">aggregate_risks</text>
<text text-anchor="start" x="405.5" y="-837.2" font-family="Helvetica,sans-Serif" font-size="11.00">[table]</text>
<polygon fill="none" stroke="black" points="263.5,-807 263.5,-829 440.5,-829 440.5,-807 263.5,-807"/>
<image xlink:href="../../images/primaryKeys.png" width="11px" height="12px" preserveAspectRatio="xMinYMin meet" x="268.5" y="-824"/>
<text text-anchor="start" x="283.5" y="-815.2" font-family="Helvetica,sans-Serif" font-size="11.00">customer_id</text>
<polygon fill="none" stroke="black" points="263.5,-785 263.5,-807 440.5,-807 440.5,-785 263.5,-785"/>
<image xlink:href="../../images/primaryKeys.png" width="11px" height="12px" preserveAspectRatio="xMinYMin meet" x="268.5" y="-802"/>
<text text-anchor="start" x="283.5" y="-793.2" font-family="Helvetica,sans-Serif" font-size="11.00">entity_type</text>
<polygon fill="none" stroke="black" points="263.5,-763 263.5,-785 440.5,-785 440.5,-763 263.5,-763"/>
<image xlink:href="../../images/primaryKeys.png" width="11px" height="12px" preserveAspectRatio="xMinYMin meet" x="268.5" y="-780"/>
<text text-anchor="start" x="283.5" y="-771.2" font-family="Helvetica,sans-Serif" font-size="11.00">entity_id</text>
<polygon fill="none" stroke="black" points="263.5,-741 263.5,-763 440.5,-763 440.5,-741 263.5,-741"/>
<image xlink:href="../../images/primaryKeys.png" width="11px" height="12px" preserveAspectRatio="xMinYMin meet" x="268.5" y="-758"/>
<text text-anchor="start" x="283.5" y="-749.2" font-family="Helvetica,sans-Serif" font-size="11.00">scenario_id</text>
<polygon fill="none" stroke="black" points="263.5,-719 263.5,-741 440.5,-741 440.5,-719 263.5,-719"/>
<image xlink:href="../../images/primaryKeys.png" width="11px" height="12px" preserveAspectRatio="xMinYMin meet" x="268.5" y="-736"/>
<text text-anchor="start" x="283.5" y="-727.2" font-family="Helvetica,sans-Serif" font-size="11.00">decade</text>
<polygon fill="none" stroke="black" points="263.5,-697 263.5,-719 440.5,-719 440.5,-697 263.5,-697"/>
<image xlink:href="../../images/primaryKeys.png" width="11px" height="12px" preserveAspectRatio="xMinYMin meet" x="268.5" y="-714"/>
<text text-anchor="start" x="283.5" y="-705.2" font-family="Helvetica,sans-Serif" font-size="11.00">hazard_metric_id</text>
<polygon fill="none" stroke="black" points="263.5,-675 263.5,-697 440.5,-697 440.5,-675 263.5,-675"/>
<image xlink:href="../../images/primaryKeys.png" width="11px" height="12px" preserveAspectRatio="xMinYMin meet" x="268.5" y="-692"/>
<text text-anchor="start" x="283.5" y="-683.2" font-family="Helvetica,sans-Serif" font-size="11.00">risk_factor_id</text>
<polygon fill="none" stroke="black" points="263.5,-657 263.5,-675 440.5,-675 440.5,-657 263.5,-657"/>
<text text-anchor="start" x="266.5" y="-663.2" font-family="Helvetica,sans-Serif" font-size="11.00">...</text>
<polygon fill="#ffffff" stroke="transparent" points="263.5,-639 263.5,-657 319.5,-657 319.5,-639 263.5,-639"/>
<polygon fill="none" stroke="black" points="263.5,-639 263.5,-657 319.5,-657 319.5,-639 263.5,-639"/>
<text text-anchor="start" x="266.5" y="-645.2" font-family="Helvetica,sans-Serif" font-size="11.00">&lt; 4</text>
<polygon fill="#ffffff" stroke="transparent" points="319.5,-639 319.5,-657 409.5,-657 409.5,-639 319.5,-639"/>
<polygon fill="none" stroke="black" points="319.5,-639 319.5,-657 409.5,-657 409.5,-639 319.5,-639"/>
<text text-anchor="start" x="339.5" y="-645.2" font-family="Helvetica,sans-Serif" font-size="11.00">133,008 rows</text>
<polygon fill="#ffffff" stroke="transparent" points="409.5,-639 409.5,-657 440.5,-657 440.5,-639 409.5,-639"/>
<polygon fill="none" stroke="black" points="409.5,-639 409.5,-657 440.5,-657 440.5,-639 409.5,-639"/>
<text text-anchor="start" x="430.5" y="-645.2" font-family="Helvetica,sans-Serif" font-size="11.00"> &#160;</text>
</a>
</g>
</g>
<!-- customers -->
<g id="node2" class="node">
<title>customers</title>
<g id="a_node2"><a xlink:href="../../tables/customers.html" xlink:title="customers" target="_top">
<polygon fill="#ffffff" stroke="transparent" points="8,-277 8,-453 214,-453 214,-277 8,-277"/>
<polygon fill="#f5f5f5" stroke="transparent" points="10,-429 10,-451 212,-451 212,-429 10,-429"/>
<polygon fill="none" stroke="black" points="10,-429 10,-451 212,-451 212,-429 10,-429"/>
<text text-anchor="start" x="15" y="-438.2" font-family="Helvetica,sans-Serif" font-weight="bold" font-size="11.00">customers</text>
<text text-anchor="start" x="177" y="-437.2" font-family="Helvetica,sans-Serif" font-size="11.00">[table]</text>
<polygon fill="none" stroke="black" points="10,-407 10,-429 127,-429 127,-407 10,-407"/>
<image xlink:href="../../images/primaryKeys.png" width="11px" height="12px" preserveAspectRatio="xMinYMin meet" x="15" y="-424"/>
<text text-anchor="start" x="30" y="-415.2" font-family="Helvetica,sans-Serif" font-size="11.00">id</text>
<polygon fill="none" stroke="black" points="127,-407 127,-429 212,-429 212,-407 127,-407"/>
<text text-anchor="start" x="130" y="-415.2" font-family="Helvetica,sans-Serif" font-size="11.00">serial[10]</text>
<polygon fill="#ffffff" stroke="transparent" points="10,-385 10,-407 127,-407 127,-385 10,-385"/>
<polygon fill="none" stroke="black" points="10,-385 10,-407 127,-407 127,-385 10,-385"/>
<text text-anchor="start" x="30" y="-393.2" font-family="Helvetica,sans-Serif" font-size="11.00">name</text>
<polygon fill="none" stroke="black" points="127,-385 127,-407 212,-407 212,-385 127,-385"/>
<text text-anchor="start" x="130" y="-393.2" font-family="Helvetica,sans-Serif" font-size="11.00">varchar[256]</text>
<polygon fill="none" stroke="black" points="10,-363 10,-385 127,-385 127,-363 10,-363"/>
<text text-anchor="start" x="30" y="-371.2" font-family="Helvetica,sans-Serif" font-size="11.00">customer_status</text>
<polygon fill="none" stroke="black" points="127,-363 127,-385 212,-385 212,-363 127,-363"/>
<text text-anchor="start" x="130" y="-371.2" font-family="Helvetica,sans-Serif" font-size="11.00">int4[10]</text>
<polygon fill="none" stroke="black" points="10,-341 10,-363 127,-363 127,-341 10,-341"/>
<text text-anchor="start" x="30" y="-349.2" font-family="Helvetica,sans-Serif" font-size="11.00">notes</text>
<polygon fill="none" stroke="black" points="127,-341 127,-363 212,-363 212,-341 127,-341"/>
<text text-anchor="start" x="130" y="-349.2" font-family="Helvetica,sans-Serif" font-size="11.00">varchar[256]</text>
<polygon fill="none" stroke="black" points="10,-319 10,-341 127,-341 127,-319 10,-319"/>
<text text-anchor="start" x="30" y="-327.2" font-family="Helvetica,sans-Serif" font-size="11.00">created_at</text>
<polygon fill="none" stroke="black" points="127,-319 127,-341 212,-341 212,-319 127,-319"/>
<text text-anchor="start" x="130" y="-327.2" font-family="Helvetica,sans-Serif" font-size="11.00">timestamp[29,6]</text>
<polygon fill="none" stroke="black" points="10,-297 10,-319 127,-319 127,-297 10,-297"/>
<text text-anchor="start" x="30" y="-305.2" font-family="Helvetica,sans-Serif" font-size="11.00">updated_at</text>
<polygon fill="none" stroke="black" points="127,-297 127,-319 212,-319 212,-297 127,-297"/>
<text text-anchor="start" x="130" y="-305.2" font-family="Helvetica,sans-Serif" font-size="11.00">timestamp[29,6]</text>
<polygon fill="#ffffff" stroke="transparent" points="10,-279 10,-297 53,-297 53,-279 10,-279"/>
<polygon fill="none" stroke="black" points="10,-279 10,-297 53,-297 53,-279 10,-279"/>
<text text-anchor="start" x="13" y="-285.2" font-family="Helvetica,sans-Serif" font-size="11.00">&lt; 0</text>
<polygon fill="#ffffff" stroke="transparent" points="53,-279 53,-297 127,-297 127,-279 53,-279"/>
<polygon fill="none" stroke="black" points="53,-279 53,-297 127,-297 127,-279 53,-279"/>
<text text-anchor="start" x="78" y="-285.2" font-family="Helvetica,sans-Serif" font-size="11.00">938 rows</text>
<polygon fill="#ffffff" stroke="transparent" points="127,-279 127,-297 212,-297 212,-279 127,-279"/>
<polygon fill="none" stroke="black" points="127,-279 127,-297 212,-297 212,-279 127,-279"/>
<text text-anchor="start" x="193" y="-285.2" font-family="Helvetica,sans-Serif" font-size="11.00">5 &gt;</text>
<polygon fill="none" stroke="black" stroke-width="2" points="9,-278 9,-452 213,-452 213,-278 9,-278"/>
</a>
</g>
</g>
<!-- aggregate_risks&#45;&gt;customers -->
<g id="edge1" class="edge">
<title>aggregate_risks:w&#45;&gt;customers:e</title>
<path fill="none" stroke="black" d="M248.54,-813.78C187.83,-771.03 297.14,-418 213,-418"/>
<polygon fill="black" stroke="black" points="254.84,-815.68 261.46,-821.45 258.67,-816.84 262.5,-818 262.5,-818 262.5,-818 258.67,-816.84 263.54,-814.55 254.84,-815.68 254.84,-815.68"/>
<ellipse fill="none" stroke="black" cx="251.78" cy="-814.76" rx="3.2" ry="3.2"/>
</g>
<!-- groups -->
<g id="node3" class="node">
<title>groups</title>
<g id="a_node3"><a xlink:href="../../tables/groups.html" xlink:title="groups" target="_top">
<polygon fill="#ffffff" stroke="transparent" points="303.5,-494 303.5,-618 399.5,-618 399.5,-494 303.5,-494"/>
<polygon fill="#f5f5f5" stroke="transparent" points="303.5,-596 303.5,-618 399.5,-618 399.5,-596 303.5,-596"/>
<polygon fill="none" stroke="black" points="303.5,-596 303.5,-618 399.5,-618 399.5,-596 303.5,-596"/>
<text text-anchor="start" x="308.5" y="-605.2" font-family="Helvetica,sans-Serif" font-weight="bold" font-size="11.00">groups</text>
<text text-anchor="start" x="364.5" y="-604.2" font-family="Helvetica,sans-Serif" font-size="11.00">[table]</text>
<polygon fill="none" stroke="black" points="303.5,-574 303.5,-596 399.5,-596 399.5,-574 303.5,-574"/>
<image xlink:href="../../images/primaryKeys.png" width="11px" height="12px" preserveAspectRatio="xMinYMin meet" x="308.5" y="-591"/>
<text text-anchor="start" x="325.5" y="-582.2" font-family="Helvetica,sans-Serif" font-size="11.00">id</text>
<polygon fill="#ffffff" stroke="transparent" points="303.5,-552 303.5,-574 399.5,-574 399.5,-552 303.5,-552"/>
<polygon fill="none" stroke="black" points="303.5,-552 303.5,-574 399.5,-574 399.5,-552 303.5,-552"/>
<image xlink:href="../../images/foreignKeys.png" width="11px" height="12px" preserveAspectRatio="xMinYMin meet" x="308.5" y="-569"/>
<text text-anchor="start" x="325.5" y="-560.2" font-family="Helvetica,sans-Serif" font-size="11.00">customer_id</text>
<polygon fill="#ffffff" stroke="transparent" points="303.5,-530 303.5,-552 399.5,-552 399.5,-530 303.5,-530"/>
<polygon fill="none" stroke="black" points="303.5,-530 303.5,-552 399.5,-552 399.5,-530 303.5,-530"/>
<text text-anchor="start" x="325.5" y="-538.2" font-family="Helvetica,sans-Serif" font-size="11.00">name</text>
<polygon fill="none" stroke="black" points="303.5,-512 303.5,-530 399.5,-530 399.5,-512 303.5,-512"/>
<text text-anchor="start" x="306.5" y="-518.2" font-family="Helvetica,sans-Serif" font-size="11.00">...</text>
<polygon fill="#ffffff" stroke="transparent" points="303.5,-494 303.5,-512 325.5,-512 325.5,-494 303.5,-494"/>
<polygon fill="none" stroke="black" points="303.5,-494 303.5,-512 325.5,-512 325.5,-494 303.5,-494"/>
<text text-anchor="start" x="306.5" y="-500.2" font-family="Helvetica,sans-Serif" font-size="11.00">&lt; 1</text>
<polygon fill="#ffffff" stroke="transparent" points="325.5,-494 325.5,-512 377.5,-512 377.5,-494 325.5,-494"/>
<polygon fill="none" stroke="black" points="325.5,-494 325.5,-512 377.5,-512 377.5,-494 325.5,-494"/>
<text text-anchor="start" x="328.5" y="-500.2" font-family="Helvetica,sans-Serif" font-size="11.00">150 rows</text>
<polygon fill="#ffffff" stroke="transparent" points="377.5,-494 377.5,-512 399.5,-512 399.5,-494 377.5,-494"/>
<polygon fill="none" stroke="black" points="377.5,-494 377.5,-512 399.5,-512 399.5,-494 377.5,-494"/>
<text text-anchor="start" x="380.5" y="-500.2" font-family="Helvetica,sans-Serif" font-size="11.00">2 &gt;</text>
</a>
</g>
</g>
<!-- groups&#45;&gt;customers -->
<g id="edge2" class="edge">
<title>groups:w&#45;&gt;customers:e</title>
<path fill="none" stroke="black" d="M291.48,-553.49C268.23,-521.23 228.97,-418 213,-418"/>
<polygon fill="black" stroke="black" points="296.44,-557.77 300.15,-565.73 299.47,-560.39 302.5,-563 302.5,-563 302.5,-563 299.47,-560.39 304.85,-560.27 296.44,-557.77 296.44,-557.77"/>
<ellipse fill="none" stroke="black" cx="294.02" cy="-555.68" rx="3.2" ry="3.2"/>
</g>
<!-- ref_id -->
<g id="node4" class="node">
<title>ref_id</title>
<g id="a_node4"><a xlink:href="../../tables/ref_id.html" xlink:title="ref_id" target="_top">
<polygon fill="#ffffff" stroke="transparent" points="293,-349 293,-473 410,-473 410,-349 293,-349"/>
<polygon fill="#f5f5f5" stroke="transparent" points="293.5,-451 293.5,-473 410.5,-473 410.5,-451 293.5,-451"/>
<polygon fill="none" stroke="black" points="293.5,-451 293.5,-473 410.5,-473 410.5,-451 293.5,-451"/>
<text text-anchor="start" x="298.5" y="-460.2" font-family="Helvetica,sans-Serif" font-weight="bold" font-size="11.00">ref_id</text>
<text text-anchor="start" x="375.5" y="-459.2" font-family="Helvetica,sans-Serif" font-size="11.00">[table]</text>
<polygon fill="none" stroke="black" points="293.5,-429 293.5,-451 410.5,-451 410.5,-429 293.5,-429"/>
<image xlink:href="../../images/primaryKeys.png" width="11px" height="12px" preserveAspectRatio="xMinYMin meet" x="298.5" y="-446"/>
<text text-anchor="start" x="326.5" y="-437.2" font-family="Helvetica,sans-Serif" font-size="11.00">id</text>
<polygon fill="none" stroke="black" points="293.5,-407 293.5,-429 410.5,-429 410.5,-407 293.5,-407"/>
<image xlink:href="../../images/foreignKeys.png" width="11px" height="12px" preserveAspectRatio="xMinYMin meet" x="298.5" y="-424"/>
<text text-anchor="start" x="326.5" y="-415.2" font-family="Helvetica,sans-Serif" font-size="11.00">customer_id</text>
<polygon fill="#ffffff" stroke="transparent" points="293.5,-385 293.5,-407 410.5,-407 410.5,-385 293.5,-385"/>
<polygon fill="none" stroke="black" points="293.5,-385 293.5,-407 410.5,-407 410.5,-385 293.5,-385"/>
<text text-anchor="start" x="326.5" y="-393.2" font-family="Helvetica,sans-Serif" font-size="11.00">is_active</text>
<polygon fill="none" stroke="black" points="293.5,-367 293.5,-385 410.5,-385 410.5,-367 293.5,-367"/>
<text text-anchor="start" x="296.5" y="-373.2" font-family="Helvetica,sans-Serif" font-size="11.00">...</text>
<polygon fill="#ffffff" stroke="transparent" points="293.5,-349 293.5,-367 315.5,-367 315.5,-349 293.5,-349"/>
<polygon fill="none" stroke="black" points="293.5,-349 293.5,-367 315.5,-367 315.5,-349 293.5,-349"/>
<text text-anchor="start" x="296.5" y="-355.2" font-family="Helvetica,sans-Serif" font-size="11.00">&lt; 1</text>
<polygon fill="#ffffff" stroke="transparent" points="315.5,-349 315.5,-367 388.5,-367 388.5,-349 315.5,-349"/>
<polygon fill="none" stroke="black" points="315.5,-349 315.5,-367 388.5,-367 388.5,-349 315.5,-349"/>
<text text-anchor="start" x="318.5" y="-355.2" font-family="Helvetica,sans-Serif" font-size="11.00">140,067 rows</text>
<polygon fill="#ffffff" stroke="transparent" points="388.5,-349 388.5,-367 410.5,-367 410.5,-349 388.5,-349"/>
<polygon fill="none" stroke="black" points="388.5,-349 388.5,-367 410.5,-367 410.5,-349 388.5,-349"/>
<text text-anchor="start" x="391.5" y="-355.2" font-family="Helvetica,sans-Serif" font-size="11.00">2 &gt;</text>
</a>
</g>
</g>
<!-- ref_id&#45;&gt;customers -->
<g id="edge3" class="edge">
<title>ref_id:w&#45;&gt;customers:e</title>
<path fill="none" stroke="black" d="M278.01,-418C253.86,-418 242.95,-418 213,-418"/>
<polygon fill="black" stroke="black" points="284.5,-418 292.5,-421.6 288.5,-418 292.5,-418 292.5,-418 292.5,-418 288.5,-418 292.5,-414.4 284.5,-418 284.5,-418"/>
<ellipse fill="none" stroke="black" cx="281.3" cy="-418" rx="3.2" ry="3.2"/>
</g>
<!-- tags -->
<g id="node5" class="node">
<title>tags</title>
<g id="a_node5"><a xlink:href="../../tables/tags.html" xlink:title="tags" target="_top">
<polygon fill="#ffffff" stroke="transparent" points="303.5,-204 303.5,-328 399.5,-328 399.5,-204 303.5,-204"/>
<polygon fill="#f5f5f5" stroke="transparent" points="303.5,-306 303.5,-328 399.5,-328 399.5,-306 303.5,-306"/>
<polygon fill="none" stroke="black" points="303.5,-306 303.5,-328 399.5,-328 399.5,-306 303.5,-306"/>
<text text-anchor="start" x="308.5" y="-315.2" font-family="Helvetica,sans-Serif" font-weight="bold" font-size="11.00">tags</text>
<text text-anchor="start" x="364.5" y="-314.2" font-family="Helvetica,sans-Serif" font-size="11.00">[table]</text>
<polygon fill="none" stroke="black" points="303.5,-284 303.5,-306 399.5,-306 399.5,-284 303.5,-284"/>
<image xlink:href="../../images/primaryKeys.png" width="11px" height="12px" preserveAspectRatio="xMinYMin meet" x="308.5" y="-301"/>
<text text-anchor="start" x="325.5" y="-292.2" font-family="Helvetica,sans-Serif" font-size="11.00">id</text>
<polygon fill="#ffffff" stroke="transparent" points="303.5,-262 303.5,-284 399.5,-284 399.5,-262 303.5,-262"/>
<polygon fill="none" stroke="black" points="303.5,-262 303.5,-284 399.5,-284 399.5,-262 303.5,-262"/>
<image xlink:href="../../images/foreignKeys.png" width="11px" height="12px" preserveAspectRatio="xMinYMin meet" x="308.5" y="-279"/>
<text text-anchor="start" x="325.5" y="-270.2" font-family="Helvetica,sans-Serif" font-size="11.00">customer_id</text>
<polygon fill="#ffffff" stroke="transparent" points="303.5,-240 303.5,-262 399.5,-262 399.5,-240 303.5,-240"/>
<polygon fill="none" stroke="black" points="303.5,-240 303.5,-262 399.5,-262 399.5,-240 303.5,-240"/>
<text text-anchor="start" x="325.5" y="-248.2" font-family="Helvetica,sans-Serif" font-size="11.00">name</text>
<polygon fill="none" stroke="black" points="303.5,-222 303.5,-240 399.5,-240 399.5,-222 303.5,-222"/>
<text text-anchor="start" x="306.5" y="-228.2" font-family="Helvetica,sans-Serif" font-size="11.00">...</text>
<polygon fill="#ffffff" stroke="transparent" points="303.5,-204 303.5,-222 325.5,-222 325.5,-204 303.5,-204"/>
<polygon fill="none" stroke="black" points="303.5,-204 303.5,-222 325.5,-222 325.5,-204 303.5,-204"/>
<text text-anchor="start" x="306.5" y="-210.2" font-family="Helvetica,sans-Serif" font-size="11.00">&lt; 1</text>
<polygon fill="#ffffff" stroke="transparent" points="325.5,-204 325.5,-222 377.5,-222 377.5,-204 325.5,-204"/>
<polygon fill="none" stroke="black" points="325.5,-204 325.5,-222 377.5,-222 377.5,-204 325.5,-204"/>
<text text-anchor="start" x="328.5" y="-210.2" font-family="Helvetica,sans-Serif" font-size="11.00">339 rows</text>
<polygon fill="#ffffff" stroke="transparent" points="377.5,-204 377.5,-222 399.5,-222 399.5,-204 377.5,-204"/>
<polygon fill="none" stroke="black" points="377.5,-204 377.5,-222 399.5,-222 399.5,-204 377.5,-204"/>
<text text-anchor="start" x="380.5" y="-210.2" font-family="Helvetica,sans-Serif" font-size="11.00">1 &gt;</text>
</a>
</g>
</g>
<!-- tags&#45;&gt;customers -->
<g id="edge4" class="edge">
<title>tags:w&#45;&gt;customers:e</title>
<path fill="none" stroke="black" d="M288.22,-275.55C268.15,-284.19 271.03,-313.22 255,-339 234,-372.77 252.76,-418 213,-418"/>
<polygon fill="black" stroke="black" points="294.62,-274.41 303.13,-276.54 298.56,-273.7 302.5,-273 302.5,-273 302.5,-273 298.56,-273.7 301.87,-269.46 294.62,-274.41 294.62,-274.41"/>
<ellipse fill="none" stroke="black" cx="291.47" cy="-274.97" rx="3.2" ry="3.2"/>
</g>
<!-- users_roles_customers -->
<g id="node6" class="node">
<title>users_roles_customers</title>
<g id="a_node6"><a xlink:href="../../tables/users_roles_customers.html" xlink:title="users_roles_customers" target="_top">
<polygon fill="#ffffff" stroke="transparent" points="267,-37 267,-183 436,-183 436,-37 267,-37"/>
<polygon fill="#f5f5f5" stroke="transparent" points="267.5,-161 267.5,-183 436.5,-183 436.5,-161 267.5,-161"/>
<polygon fill="none" stroke="black" points="267.5,-161 267.5,-183 436.5,-183 436.5,-161 267.5,-161"/>
<text text-anchor="start" x="272.5" y="-170.2" font-family="Helvetica,sans-Serif" font-weight="bold" font-size="11.00">users_roles_customers</text>
<text text-anchor="start" x="401.5" y="-169.2" font-family="Helvetica,sans-Serif" font-size="11.00">[table]</text>
<polygon fill="none" stroke="black" points="267.5,-139 267.5,-161 436.5,-161 436.5,-139 267.5,-139"/>
<image xlink:href="../../images/primaryKeys.png" width="11px" height="12px" preserveAspectRatio="xMinYMin meet" x="272.5" y="-156"/>
<text text-anchor="start" x="294.5" y="-147.2" font-family="Helvetica,sans-Serif" font-size="11.00">id</text>
<polygon fill="#ffffff" stroke="transparent" points="267.5,-117 267.5,-139 436.5,-139 436.5,-117 267.5,-117"/>
<polygon fill="none" stroke="black" points="267.5,-117 267.5,-139 436.5,-139 436.5,-117 267.5,-117"/>
<image xlink:href="../../images/foreignKeys.png" width="11px" height="12px" preserveAspectRatio="xMinYMin meet" x="272.5" y="-134"/>
<text text-anchor="start" x="294.5" y="-125.2" font-family="Helvetica,sans-Serif" font-size="11.00">user_id</text>
<polygon fill="none" stroke="black" points="267.5,-95 267.5,-117 436.5,-117 436.5,-95 267.5,-95"/>
<image xlink:href="../../images/foreignKeys.png" width="11px" height="12px" preserveAspectRatio="xMinYMin meet" x="272.5" y="-112"/>
<text text-anchor="start" x="294.5" y="-103.2" font-family="Helvetica,sans-Serif" font-size="11.00">role_id</text>
<polygon fill="#ffffff" stroke="transparent" points="267.5,-73 267.5,-95 436.5,-95 436.5,-73 267.5,-73"/>
<polygon fill="none" stroke="black" points="267.5,-73 267.5,-95 436.5,-95 436.5,-73 267.5,-73"/>
<image xlink:href="../../images/foreignKeys.png" width="11px" height="12px" preserveAspectRatio="xMinYMin meet" x="272.5" y="-90"/>
<text text-anchor="start" x="294.5" y="-81.2" font-family="Helvetica,sans-Serif" font-size="11.00">customer_id</text>
<polygon fill="none" stroke="black" points="267.5,-55 267.5,-73 436.5,-73 436.5,-55 267.5,-55"/>
<text text-anchor="start" x="270.5" y="-61.2" font-family="Helvetica,sans-Serif" font-size="11.00">...</text>
<polygon fill="#ffffff" stroke="transparent" points="267.5,-37 267.5,-55 333.5,-55 333.5,-37 267.5,-37"/>
<polygon fill="none" stroke="black" points="267.5,-37 267.5,-55 333.5,-55 333.5,-37 267.5,-37"/>
<text text-anchor="start" x="270.5" y="-43.2" font-family="Helvetica,sans-Serif" font-size="11.00">&lt; 3</text>
<polygon fill="#ffffff" stroke="transparent" points="333.5,-37 333.5,-55 401.5,-55 401.5,-37 333.5,-37"/>
<polygon fill="none" stroke="black" points="333.5,-37 333.5,-55 401.5,-55 401.5,-37 333.5,-37"/>
<text text-anchor="start" x="358.5" y="-43.2" font-family="Helvetica,sans-Serif" font-size="11.00">12 rows</text>
<polygon fill="#ffffff" stroke="transparent" points="401.5,-37 401.5,-55 436.5,-55 436.5,-37 401.5,-37"/>
<polygon fill="none" stroke="black" points="401.5,-37 401.5,-55 436.5,-55 436.5,-37 401.5,-37"/>
<text text-anchor="start" x="426.5" y="-43.2" font-family="Helvetica,sans-Serif" font-size="11.00"> &#160;</text>
</a>
</g>
</g>
<!-- users_roles_customers&#45;&gt;customers -->
<g id="edge5" class="edge">
<title>users_roles_customers:w&#45;&gt;customers:e</title>
<path fill="none" stroke="black" d="M252.77,-88.98C204.43,-130.53 282.74,-418 213,-418"/>
<polygon fill="black" stroke="black" points="258.98,-86.73 267.73,-87.38 262.74,-85.36 266.5,-84 266.5,-84 266.5,-84 262.74,-85.36 265.27,-80.62 258.98,-86.73 258.98,-86.73"/>
<ellipse fill="none" stroke="black" cx="255.97" cy="-87.82" rx="3.2" ry="3.2"/>
</g>
</g>
</svg>
