<?xml version="1.0" encoding="UTF-8" standalone="no"?>
<!DOCTYPE svg PUBLIC "-//W3C//DTD SVG 1.1//EN"
 "http://www.w3.org/Graphics/SVG/1.1/DTD/svg11.dtd">
<!-- Generated by graphviz version 2.50.0 (20211204.2007)
 -->
<!-- Title: twoDegreesRelationshipsDiagram Pages: 1 -->
<svg width="705pt" height="985pt"
 viewBox="0.00 0.00 705.00 985.00" xmlns="http://www.w3.org/2000/svg" xmlns:xlink="http://www.w3.org/1999/xlink">
<g id="graph0" class="graph" transform="scale(1 1) rotate(0) translate(4 981)">
<title>twoDegreesRelationshipsDiagram</title>
<polygon fill="#ffffff" stroke="transparent" points="-4,4 -4,-981 701,-981 701,4 -4,4"/>
<text text-anchor="middle" x="72.5" y="-7.2" font-family="Helvetica,sans-Serif" font-size="11.00">Generated by SchemaSpy</text>
<!-- aggregate_impacts -->
<g id="node1" class="node">
<title>aggregate_impacts</title>
<g id="a_node1"><a xlink:href="../../tables/aggregate_impacts.html" xlink:title="aggregate_impacts" target="_top">
<polygon fill="#ffffff" stroke="transparent" points="456,-195 456,-253 601,-253 601,-195 456,-195"/>
<polygon fill="#f5f5f5" stroke="transparent" points="456.5,-231 456.5,-253 601.5,-253 601.5,-231 456.5,-231"/>
<polygon fill="none" stroke="black" points="456.5,-231 456.5,-253 601.5,-253 601.5,-231 456.5,-231"/>
<text text-anchor="start" x="461.5" y="-240.2" font-family="Helvetica,sans-Serif" font-weight="bold" font-size="11.00">aggregate_impacts</text>
<text text-anchor="start" x="566.5" y="-239.2" font-family="Helvetica,sans-Serif" font-size="11.00">[table]</text>
<polygon fill="none" stroke="black" points="456.5,-213 456.5,-231 601.5,-231 601.5,-213 456.5,-213"/>
<text text-anchor="start" x="459.5" y="-219.2" font-family="Helvetica,sans-Serif" font-size="11.00">...</text>
<polygon fill="#ffffff" stroke="transparent" points="456.5,-195 456.5,-213 492.5,-213 492.5,-195 456.5,-195"/>
<polygon fill="none" stroke="black" points="456.5,-195 456.5,-213 492.5,-213 492.5,-195 456.5,-195"/>
<text text-anchor="start" x="459.5" y="-201.2" font-family="Helvetica,sans-Serif" font-size="11.00">&lt; 2</text>
<polygon fill="#ffffff" stroke="transparent" points="492.5,-195 492.5,-213 581.5,-213 581.5,-195 492.5,-195"/>
<polygon fill="none" stroke="black" points="492.5,-195 492.5,-213 581.5,-213 581.5,-195 492.5,-195"/>
<text text-anchor="start" x="502.5" y="-201.2" font-family="Helvetica,sans-Serif" font-size="11.00">7,901,926 rows</text>
<polygon fill="#ffffff" stroke="transparent" points="581.5,-195 581.5,-213 601.5,-213 601.5,-195 581.5,-195"/>
<polygon fill="none" stroke="black" points="581.5,-195 581.5,-213 601.5,-213 601.5,-195 581.5,-195"/>
<text text-anchor="start" x="591.5" y="-201.2" font-family="Helvetica,sans-Serif" font-size="11.00"> &#160;</text>
</a>
</g>
</g>
<!-- risk_factors -->
<g id="node2" class="node">
<title>risk_factors</title>
<g id="a_node2"><a xlink:href="../../tables/risk_factors.html" xlink:title="risk_factors" target="_top">
<polygon fill="#ffffff" stroke="transparent" points="8,-800 8,-858 115,-858 115,-800 8,-800"/>
<polygon fill="#f5f5f5" stroke="transparent" points="8.5,-836 8.5,-858 115.5,-858 115.5,-836 8.5,-836"/>
<polygon fill="none" stroke="black" points="8.5,-836 8.5,-858 115.5,-858 115.5,-836 8.5,-836"/>
<text text-anchor="start" x="13.5" y="-845.2" font-family="Helvetica,sans-Serif" font-weight="bold" font-size="11.00">risk_factors</text>
<text text-anchor="start" x="80.5" y="-844.2" font-family="Helvetica,sans-Serif" font-size="11.00">[table]</text>
<polygon fill="none" stroke="black" points="8.5,-818 8.5,-836 115.5,-836 115.5,-818 8.5,-818"/>
<text text-anchor="start" x="11.5" y="-824.2" font-family="Helvetica,sans-Serif" font-size="11.00">...</text>
<polygon fill="#ffffff" stroke="transparent" points="8.5,-800 8.5,-818 34.5,-818 34.5,-800 8.5,-800"/>
<polygon fill="none" stroke="black" points="8.5,-800 8.5,-818 34.5,-818 34.5,-800 8.5,-800"/>
<text text-anchor="start" x="11.5" y="-806.2" font-family="Helvetica,sans-Serif" font-size="11.00"> &#160;</text>
<polygon fill="#ffffff" stroke="transparent" points="34.5,-800 34.5,-818 86.5,-818 86.5,-800 34.5,-800"/>
<polygon fill="none" stroke="black" points="34.5,-800 34.5,-818 86.5,-818 86.5,-800 34.5,-800"/>
<text text-anchor="start" x="43.5" y="-806.2" font-family="Helvetica,sans-Serif" font-size="11.00">17 rows</text>
<polygon fill="#ffffff" stroke="transparent" points="86.5,-800 86.5,-818 115.5,-818 115.5,-800 86.5,-800"/>
<polygon fill="none" stroke="black" points="86.5,-800 86.5,-818 115.5,-818 115.5,-800 86.5,-800"/>
<text text-anchor="start" x="96.5" y="-806.2" font-family="Helvetica,sans-Serif" font-size="11.00">7 &gt;</text>
</a>
</g>
</g>
<!-- aggregate_impacts&#45;&gt;risk_factors -->
<g id="edge1" class="edge">
<title>aggregate_impacts:w&#45;&gt;risk_factors:e</title>
<path fill="none" stroke="black" d="M440.91,-222.24C274.51,-227.87 227.7,-331.16 156,-489 124.72,-557.85 192.12,-827 116.5,-827"/>
<polygon fill="black" stroke="black" points="447.5,-222.13 455.56,-225.6 451.5,-222.07 455.5,-222 455.5,-222 455.5,-222 451.5,-222.07 455.44,-218.4 447.5,-222.13 447.5,-222.13"/>
<ellipse fill="none" stroke="black" cx="444.3" cy="-222.19" rx="3.2" ry="3.2"/>
</g>
<!-- scenarios -->
<g id="node3" class="node">
<title>scenarios</title>
<g id="a_node3"><a xlink:href="../../tables/scenarios.html" xlink:title="scenarios" target="_top">
<polygon fill="#ffffff" stroke="transparent" points="172,-499 172,-623 311,-623 311,-499 172,-499"/>
<polygon fill="#f5f5f5" stroke="transparent" points="172.5,-601 172.5,-623 311.5,-623 311.5,-601 172.5,-601"/>
<polygon fill="none" stroke="black" points="172.5,-601 172.5,-623 311.5,-623 311.5,-601 172.5,-601"/>
<text text-anchor="start" x="177.5" y="-610.2" font-family="Helvetica,sans-Serif" font-weight="bold" font-size="11.00">scenarios</text>
<text text-anchor="start" x="276.5" y="-609.2" font-family="Helvetica,sans-Serif" font-size="11.00">[table]</text>
<polygon fill="none" stroke="black" points="172.5,-579 172.5,-601 311.5,-601 311.5,-579 172.5,-579"/>
<image xlink:href="../../images/primaryKeys.png" width="11px" height="12px" preserveAspectRatio="xMinYMin meet" x="177.5" y="-596"/>
<text text-anchor="start" x="192.5" y="-587.2" font-family="Helvetica,sans-Serif" font-size="11.00">id</text>
<polygon fill="#ffffff" stroke="transparent" points="172.5,-557 172.5,-579 311.5,-579 311.5,-557 172.5,-557"/>
<polygon fill="none" stroke="black" points="172.5,-557 172.5,-579 311.5,-579 311.5,-557 172.5,-557"/>
<text text-anchor="start" x="192.5" y="-565.2" font-family="Helvetica,sans-Serif" font-size="11.00">name</text>
<polygon fill="#ffffff" stroke="transparent" points="172.5,-535 172.5,-557 311.5,-557 311.5,-535 172.5,-535"/>
<polygon fill="none" stroke="black" points="172.5,-535 172.5,-557 311.5,-557 311.5,-535 172.5,-535"/>
<text text-anchor="start" x="192.5" y="-543.2" font-family="Helvetica,sans-Serif" font-size="11.00">name_etl</text>
<polygon fill="none" stroke="black" points="172.5,-517 172.5,-535 311.5,-535 311.5,-517 172.5,-517"/>
<text text-anchor="start" x="175.5" y="-523.2" font-family="Helvetica,sans-Serif" font-size="11.00">...</text>
<polygon fill="#ffffff" stroke="transparent" points="172.5,-499 172.5,-517 217.5,-517 217.5,-499 172.5,-499"/>
<polygon fill="none" stroke="black" points="172.5,-499 172.5,-517 217.5,-517 217.5,-499 172.5,-499"/>
<text text-anchor="start" x="175.5" y="-505.2" font-family="Helvetica,sans-Serif" font-size="11.00"> &#160;</text>
<polygon fill="#ffffff" stroke="transparent" points="217.5,-499 217.5,-517 273.5,-517 273.5,-499 217.5,-499"/>
<polygon fill="none" stroke="black" points="217.5,-499 217.5,-517 273.5,-517 273.5,-499 217.5,-499"/>
<text text-anchor="start" x="236.5" y="-505.2" font-family="Helvetica,sans-Serif" font-size="11.00">4 rows</text>
<polygon fill="#ffffff" stroke="transparent" points="273.5,-499 273.5,-517 311.5,-517 311.5,-499 273.5,-499"/>
<polygon fill="none" stroke="black" points="273.5,-499 273.5,-517 311.5,-517 311.5,-499 273.5,-499"/>
<text text-anchor="start" x="292.5" y="-505.2" font-family="Helvetica,sans-Serif" font-size="11.00">4 &gt;</text>
</a>
</g>
</g>
<!-- aggregate_impacts&#45;&gt;scenarios -->
<g id="edge2" class="edge">
<title>aggregate_impacts:w&#45;&gt;scenarios:e</title>
<path fill="none" stroke="black" d="M440.67,-222.24C404.27,-223.56 384.9,-231.28 360,-264 315.66,-322.26 385.71,-590 312.5,-590"/>
<polygon fill="black" stroke="black" points="447.5,-222.13 455.56,-225.6 451.5,-222.06 455.5,-222 455.5,-222 455.5,-222 451.5,-222.06 455.44,-218.4 447.5,-222.13 447.5,-222.13"/>
<ellipse fill="none" stroke="black" cx="444.3" cy="-222.18" rx="3.2" ry="3.2"/>
</g>
<!-- aggregate_risks -->
<g id="node4" class="node">
<title>aggregate_risks</title>
<g id="a_node4"><a xlink:href="../../tables/aggregate_risks.html" xlink:title="aggregate_risks" target="_top">
<polygon fill="#ffffff" stroke="transparent" points="463.5,-836 463.5,-894 593.5,-894 593.5,-836 463.5,-836"/>
<polygon fill="#f5f5f5" stroke="transparent" points="463.5,-872 463.5,-894 593.5,-894 593.5,-872 463.5,-872"/>
<polygon fill="none" stroke="black" points="463.5,-872 463.5,-894 593.5,-894 593.5,-872 463.5,-872"/>
<text text-anchor="start" x="468.5" y="-881.2" font-family="Helvetica,sans-Serif" font-weight="bold" font-size="11.00">aggregate_risks</text>
<text text-anchor="start" x="558.5" y="-880.2" font-family="Helvetica,sans-Serif" font-size="11.00">[table]</text>
<polygon fill="none" stroke="black" points="463.5,-854 463.5,-872 593.5,-872 593.5,-854 463.5,-854"/>
<text text-anchor="start" x="466.5" y="-860.2" font-family="Helvetica,sans-Serif" font-size="11.00">...</text>
<polygon fill="#ffffff" stroke="transparent" points="463.5,-836 463.5,-854 496.5,-854 496.5,-836 463.5,-836"/>
<polygon fill="none" stroke="black" points="463.5,-836 463.5,-854 496.5,-854 496.5,-836 463.5,-836"/>
<text text-anchor="start" x="466.5" y="-842.2" font-family="Helvetica,sans-Serif" font-size="11.00">&lt; 4</text>
<polygon fill="#ffffff" stroke="transparent" points="496.5,-836 496.5,-854 574.5,-854 574.5,-836 496.5,-836"/>
<polygon fill="none" stroke="black" points="496.5,-836 496.5,-854 574.5,-854 574.5,-836 496.5,-836"/>
<text text-anchor="start" x="504.5" y="-842.2" font-family="Helvetica,sans-Serif" font-size="11.00">133,008 rows</text>
<polygon fill="#ffffff" stroke="transparent" points="574.5,-836 574.5,-854 593.5,-854 593.5,-836 574.5,-836"/>
<polygon fill="none" stroke="black" points="574.5,-836 574.5,-854 593.5,-854 593.5,-836 574.5,-836"/>
<text text-anchor="start" x="583.5" y="-842.2" font-family="Helvetica,sans-Serif" font-size="11.00"> &#160;</text>
</a>
</g>
</g>
<!-- aggregate_risks&#45;&gt;risk_factors -->
<g id="edge4" class="edge">
<title>aggregate_risks:w&#45;&gt;risk_factors:e</title>
<path fill="none" stroke="black" d="M448.06,-863.27C322.65,-868.02 274.55,-932.71 156,-876 130.77,-863.93 144.47,-827 116.5,-827"/>
<polygon fill="black" stroke="black" points="454.5,-863.15 462.57,-866.6 458.5,-863.08 462.5,-863 462.5,-863 462.5,-863 458.5,-863.08 462.43,-859.4 454.5,-863.15 454.5,-863.15"/>
<ellipse fill="none" stroke="black" cx="451.3" cy="-863.21" rx="3.2" ry="3.2"/>
</g>
<!-- aggregate_risks&#45;&gt;scenarios -->
<g id="edge5" class="edge">
<title>aggregate_risks:w&#45;&gt;scenarios:e</title>
<path fill="none" stroke="black" d="M448,-862.95C409.23,-862.53 388.29,-858.81 360,-826 290.14,-744.97 419.49,-590 312.5,-590"/>
<polygon fill="black" stroke="black" points="454.5,-862.97 462.49,-866.6 458.5,-862.99 462.5,-863 462.5,-863 462.5,-863 458.5,-862.99 462.51,-859.4 454.5,-862.97 454.5,-862.97"/>
<ellipse fill="none" stroke="black" cx="451.3" cy="-862.96" rx="3.2" ry="3.2"/>
</g>
<!-- hazard_metrics -->
<g id="node5" class="node">
<title>hazard_metrics</title>
<g id="a_node5"><a xlink:href="../../tables/hazard_metrics.html" xlink:title="hazard_metrics" target="_top">
<polygon fill="#ffffff" stroke="transparent" points="164,-719 164,-865 319,-865 319,-719 164,-719"/>
<polygon fill="#f5f5f5" stroke="transparent" points="164.5,-843 164.5,-865 319.5,-865 319.5,-843 164.5,-843"/>
<polygon fill="none" stroke="black" points="164.5,-843 164.5,-865 319.5,-865 319.5,-843 164.5,-843"/>
<text text-anchor="start" x="169.5" y="-852.2" font-family="Helvetica,sans-Serif" font-weight="bold" font-size="11.00">hazard_metrics</text>
<text text-anchor="start" x="284.5" y="-851.2" font-family="Helvetica,sans-Serif" font-size="11.00">[table]</text>
<polygon fill="none" stroke="black" points="164.5,-821 164.5,-843 319.5,-843 319.5,-821 164.5,-821"/>
<image xlink:href="../../images/primaryKeys.png" width="11px" height="12px" preserveAspectRatio="xMinYMin meet" x="169.5" y="-838"/>
<text text-anchor="start" x="184.5" y="-829.2" font-family="Helvetica,sans-Serif" font-size="11.00">id</text>
<polygon fill="#ffffff" stroke="transparent" points="164.5,-799 164.5,-821 319.5,-821 319.5,-799 164.5,-799"/>
<polygon fill="none" stroke="black" points="164.5,-799 164.5,-821 319.5,-821 319.5,-799 164.5,-799"/>
<text text-anchor="start" x="184.5" y="-807.2" font-family="Helvetica,sans-Serif" font-size="11.00">name</text>
<polygon fill="#ffffff" stroke="transparent" points="164.5,-777 164.5,-799 319.5,-799 319.5,-777 164.5,-777"/>
<polygon fill="none" stroke="black" points="164.5,-777 164.5,-799 319.5,-799 319.5,-777 164.5,-777"/>
<text text-anchor="start" x="184.5" y="-785.2" font-family="Helvetica,sans-Serif" font-size="11.00">name_etl</text>
<polygon fill="none" stroke="black" points="164.5,-755 164.5,-777 319.5,-777 319.5,-755 164.5,-755"/>
<image xlink:href="../../images/foreignKeys.png" width="11px" height="12px" preserveAspectRatio="xMinYMin meet" x="169.5" y="-772"/>
<text text-anchor="start" x="184.5" y="-763.2" font-family="Helvetica,sans-Serif" font-size="11.00">risk_factor_id</text>
<polygon fill="none" stroke="black" points="164.5,-737 164.5,-755 319.5,-755 319.5,-737 164.5,-737"/>
<text text-anchor="start" x="167.5" y="-743.2" font-family="Helvetica,sans-Serif" font-size="11.00">...</text>
<polygon fill="#ffffff" stroke="transparent" points="164.5,-719 164.5,-737 218.5,-737 218.5,-719 164.5,-719"/>
<polygon fill="none" stroke="black" points="164.5,-719 164.5,-737 218.5,-737 218.5,-719 164.5,-719"/>
<text text-anchor="start" x="167.5" y="-725.2" font-family="Helvetica,sans-Serif" font-size="11.00">&lt; 1</text>
<polygon fill="#ffffff" stroke="transparent" points="218.5,-719 218.5,-737 280.5,-737 280.5,-719 218.5,-719"/>
<polygon fill="none" stroke="black" points="218.5,-719 218.5,-737 280.5,-737 280.5,-719 218.5,-719"/>
<text text-anchor="start" x="237.5" y="-725.2" font-family="Helvetica,sans-Serif" font-size="11.00">15 rows</text>
<polygon fill="#ffffff" stroke="transparent" points="280.5,-719 280.5,-737 319.5,-737 319.5,-719 280.5,-719"/>
<polygon fill="none" stroke="black" points="280.5,-719 280.5,-737 319.5,-737 319.5,-719 280.5,-719"/>
<text text-anchor="start" x="300.5" y="-725.2" font-family="Helvetica,sans-Serif" font-size="11.00">3 &gt;</text>
</a>
</g>
</g>
<!-- aggregate_risks&#45;&gt;hazard_metrics -->
<g id="edge3" class="edge">
<title>aggregate_risks:w&#45;&gt;hazard_metrics:e</title>
<path fill="none" stroke="black" d="M447.92,-862.44C395.52,-858.23 379.92,-832 320.5,-832"/>
<polygon fill="black" stroke="black" points="454.51,-862.69 462.36,-866.6 458.5,-862.85 462.5,-863 462.5,-863 462.5,-863 458.5,-862.85 462.64,-859.4 454.51,-862.69 454.51,-862.69"/>
<ellipse fill="none" stroke="black" cx="451.31" cy="-862.57" rx="3.2" ry="3.2"/>
</g>
<!-- hazard_metrics&#45;&gt;risk_factors -->
<g id="edge9" class="edge">
<title>hazard_metrics:w&#45;&gt;risk_factors:e</title>
<path fill="none" stroke="black" d="M149.8,-771.2C135.19,-785.95 144.58,-827 116.5,-827"/>
<polygon fill="black" stroke="black" points="156.02,-768.84 164.78,-769.37 159.76,-767.42 163.5,-766 163.5,-766 163.5,-766 159.76,-767.42 162.22,-762.63 156.02,-768.84 156.02,-768.84"/>
<ellipse fill="none" stroke="black" cx="153.03" cy="-769.97" rx="3.2" ry="3.2"/>
</g>
<!-- decadal_states -->
<g id="node6" class="node">
<title>decadal_states</title>
<g id="a_node6"><a xlink:href="../../tables/decadal_states.html" xlink:title="decadal_states" target="_top">
<polygon fill="#ffffff" stroke="transparent" points="368,-353 368,-815 689,-815 689,-353 368,-353"/>
<polygon fill="#f5f5f5" stroke="transparent" points="370.5,-791 370.5,-813 687.5,-813 687.5,-791 370.5,-791"/>
<polygon fill="none" stroke="black" points="370.5,-791 370.5,-813 687.5,-813 687.5,-791 370.5,-791"/>
<text text-anchor="start" x="375.5" y="-800.2" font-family="Helvetica,sans-Serif" font-weight="bold" font-size="11.00">decadal_states</text>
<text text-anchor="start" x="652.5" y="-799.2" font-family="Helvetica,sans-Serif" font-size="11.00">[table]</text>
<polygon fill="none" stroke="black" points="370.5,-769 370.5,-791 597.5,-791 597.5,-769 370.5,-769"/>
<image xlink:href="../../images/primaryKeys.png" width="11px" height="12px" preserveAspectRatio="xMinYMin meet" x="375.5" y="-786"/>
<text text-anchor="start" x="390.5" y="-777.2" font-family="Helvetica,sans-Serif" font-size="11.00">id</text>
<polygon fill="none" stroke="black" points="597.5,-769 597.5,-791 687.5,-791 687.5,-769 597.5,-769"/>
<text text-anchor="start" x="600.5" y="-777.2" font-family="Helvetica,sans-Serif" font-size="11.00">serial[10]</text>
<polygon fill="#ffffff" stroke="transparent" points="370.5,-747 370.5,-769 597.5,-769 597.5,-747 370.5,-747"/>
<polygon fill="none" stroke="black" points="370.5,-747 370.5,-769 597.5,-769 597.5,-747 370.5,-747"/>
<text text-anchor="start" x="390.5" y="-755.2" font-family="Helvetica,sans-Serif" font-size="11.00">grid_square_id</text>
<polygon fill="none" stroke="black" points="597.5,-747 597.5,-769 687.5,-769 687.5,-747 597.5,-747"/>
<text text-anchor="start" x="600.5" y="-755.2" font-family="Helvetica,sans-Serif" font-size="11.00">int4[10]</text>
<polygon fill="#ffffff" stroke="transparent" points="370.5,-725 370.5,-747 597.5,-747 597.5,-725 370.5,-725"/>
<polygon fill="none" stroke="black" points="370.5,-725 370.5,-747 597.5,-747 597.5,-725 370.5,-725"/>
<text text-anchor="start" x="390.5" y="-733.2" font-family="Helvetica,sans-Serif" font-size="11.00">point_loc_id</text>
<polygon fill="none" stroke="black" points="597.5,-725 597.5,-747 687.5,-747 687.5,-725 597.5,-725"/>
<text text-anchor="start" x="600.5" y="-733.2" font-family="Helvetica,sans-Serif" font-size="11.00">int4[10]</text>
<polygon fill="#ffffff" stroke="transparent" points="370.5,-703 370.5,-725 597.5,-725 597.5,-703 370.5,-703"/>
<polygon fill="none" stroke="black" points="370.5,-703 370.5,-725 597.5,-725 597.5,-703 370.5,-703"/>
<image xlink:href="../../images/foreignKeys.png" width="11px" height="12px" preserveAspectRatio="xMinYMin meet" x="375.5" y="-720"/>
<text text-anchor="start" x="390.5" y="-711.2" font-family="Helvetica,sans-Serif" font-size="11.00">region_id</text>
<polygon fill="none" stroke="black" points="597.5,-703 597.5,-725 687.5,-725 687.5,-703 597.5,-703"/>
<text text-anchor="start" x="600.5" y="-711.2" font-family="Helvetica,sans-Serif" font-size="11.00">int4[10]</text>
<polygon fill="#ffffff" stroke="transparent" points="370.5,-681 370.5,-703 597.5,-703 597.5,-681 370.5,-681"/>
<polygon fill="none" stroke="black" points="370.5,-681 370.5,-703 597.5,-703 597.5,-681 370.5,-681"/>
<text text-anchor="start" x="390.5" y="-689.2" font-family="Helvetica,sans-Serif" font-size="11.00">decadal_state_type</text>
<polygon fill="none" stroke="black" points="597.5,-681 597.5,-703 687.5,-703 687.5,-681 597.5,-681"/>
<text text-anchor="start" x="600.5" y="-689.2" font-family="Helvetica,sans-Serif" font-size="11.00">int4[10]</text>
<polygon fill="#ffffff" stroke="transparent" points="370.5,-659 370.5,-681 597.5,-681 597.5,-659 370.5,-659"/>
<polygon fill="none" stroke="black" points="370.5,-659 370.5,-681 597.5,-681 597.5,-659 370.5,-659"/>
<image xlink:href="../../images/foreignKeys.png" width="11px" height="12px" preserveAspectRatio="xMinYMin meet" x="375.5" y="-676"/>
<text text-anchor="start" x="390.5" y="-667.2" font-family="Helvetica,sans-Serif" font-size="11.00">hazard_metric_id</text>
<polygon fill="none" stroke="black" points="597.5,-659 597.5,-681 687.5,-681 687.5,-659 597.5,-659"/>
<text text-anchor="start" x="600.5" y="-667.2" font-family="Helvetica,sans-Serif" font-size="11.00">int4[10]</text>
<polygon fill="#ffffff" stroke="transparent" points="370.5,-637 370.5,-659 597.5,-659 597.5,-637 370.5,-637"/>
<polygon fill="none" stroke="black" points="370.5,-637 370.5,-659 597.5,-659 597.5,-637 370.5,-637"/>
<image xlink:href="../../images/foreignKeys.png" width="11px" height="12px" preserveAspectRatio="xMinYMin meet" x="375.5" y="-654"/>
<text text-anchor="start" x="390.5" y="-645.2" font-family="Helvetica,sans-Serif" font-size="11.00">scenario_id</text>
<polygon fill="none" stroke="black" points="597.5,-637 597.5,-659 687.5,-659 687.5,-637 597.5,-637"/>
<text text-anchor="start" x="600.5" y="-645.2" font-family="Helvetica,sans-Serif" font-size="11.00">int4[10]</text>
<polygon fill="#ffffff" stroke="transparent" points="370.5,-615 370.5,-637 597.5,-637 597.5,-615 370.5,-615"/>
<polygon fill="none" stroke="black" points="370.5,-615 370.5,-637 597.5,-637 597.5,-615 370.5,-615"/>
<text text-anchor="start" x="390.5" y="-623.2" font-family="Helvetica,sans-Serif" font-size="11.00">decade</text>
<polygon fill="none" stroke="black" points="597.5,-615 597.5,-637 687.5,-637 687.5,-615 597.5,-615"/>
<text text-anchor="start" x="600.5" y="-623.2" font-family="Helvetica,sans-Serif" font-size="11.00">int2[5]</text>
<polygon fill="#ffffff" stroke="transparent" points="370.5,-593 370.5,-615 597.5,-615 597.5,-593 370.5,-593"/>
<polygon fill="none" stroke="black" points="370.5,-593 370.5,-615 597.5,-615 597.5,-593 370.5,-593"/>
<text text-anchor="start" x="390.5" y="-601.2" font-family="Helvetica,sans-Serif" font-size="11.00">proc_flag_decadal_states_calc</text>
<polygon fill="none" stroke="black" points="597.5,-593 597.5,-615 687.5,-615 687.5,-593 597.5,-593"/>
<text text-anchor="start" x="600.5" y="-601.2" font-family="Helvetica,sans-Serif" font-size="11.00">int4[10]</text>
<polygon fill="none" stroke="black" points="370.5,-571 370.5,-593 597.5,-593 597.5,-571 370.5,-571"/>
<text text-anchor="start" x="390.5" y="-579.2" font-family="Helvetica,sans-Serif" font-size="11.00">descr</text>
<polygon fill="none" stroke="black" points="597.5,-571 597.5,-593 687.5,-593 687.5,-571 597.5,-571"/>
<text text-anchor="start" x="600.5" y="-579.2" font-family="Helvetica,sans-Serif" font-size="11.00">varchar[256]</text>
<polygon fill="none" stroke="black" points="370.5,-549 370.5,-571 597.5,-571 597.5,-549 370.5,-549"/>
<text text-anchor="start" x="390.5" y="-557.2" font-family="Helvetica,sans-Serif" font-size="11.00">hazard_metric_mean</text>
<polygon fill="none" stroke="black" points="597.5,-549 597.5,-571 687.5,-571 687.5,-549 597.5,-549"/>
<text text-anchor="start" x="600.5" y="-557.2" font-family="Helvetica,sans-Serif" font-size="11.00">float8[17,17]</text>
<polygon fill="none" stroke="black" points="370.5,-527 370.5,-549 597.5,-549 597.5,-527 370.5,-527"/>
<text text-anchor="start" x="390.5" y="-535.2" font-family="Helvetica,sans-Serif" font-size="11.00">approximated</text>
<polygon fill="none" stroke="black" points="597.5,-527 597.5,-549 687.5,-549 687.5,-527 597.5,-527"/>
<text text-anchor="start" x="600.5" y="-535.2" font-family="Helvetica,sans-Serif" font-size="11.00">bool[1]</text>
<polygon fill="none" stroke="black" points="370.5,-505 370.5,-527 597.5,-527 597.5,-505 370.5,-505"/>
<text text-anchor="start" x="390.5" y="-513.2" font-family="Helvetica,sans-Serif" font-size="11.00">approximated_gridsquare_span_lng</text>
<polygon fill="none" stroke="black" points="597.5,-505 597.5,-527 687.5,-527 687.5,-505 597.5,-505"/>
<text text-anchor="start" x="600.5" y="-513.2" font-family="Helvetica,sans-Serif" font-size="11.00">float8[17,17]</text>
<polygon fill="none" stroke="black" points="370.5,-483 370.5,-505 597.5,-505 597.5,-483 370.5,-483"/>
<text text-anchor="start" x="390.5" y="-491.2" font-family="Helvetica,sans-Serif" font-size="11.00">approximated_gridsquare_span_lat</text>
<polygon fill="none" stroke="black" points="597.5,-483 597.5,-505 687.5,-505 687.5,-483 597.5,-483"/>
<text text-anchor="start" x="600.5" y="-491.2" font-family="Helvetica,sans-Serif" font-size="11.00">float8[17,17]</text>
<polygon fill="#ffffff" stroke="transparent" points="370.5,-461 370.5,-483 597.5,-483 597.5,-461 370.5,-461"/>
<polygon fill="none" stroke="black" points="370.5,-461 370.5,-483 597.5,-483 597.5,-461 370.5,-461"/>
<text text-anchor="start" x="390.5" y="-469.2" font-family="Helvetica,sans-Serif" font-size="11.00">not_in_model</text>
<polygon fill="none" stroke="black" points="597.5,-461 597.5,-483 687.5,-483 687.5,-461 597.5,-461"/>
<text text-anchor="start" x="600.5" y="-469.2" font-family="Helvetica,sans-Serif" font-size="11.00">int4[10]</text>
<polygon fill="none" stroke="black" points="370.5,-439 370.5,-461 597.5,-461 597.5,-439 370.5,-439"/>
<text text-anchor="start" x="390.5" y="-447.2" font-family="Helvetica,sans-Serif" font-size="11.00">duplicate_suspected</text>
<polygon fill="none" stroke="black" points="597.5,-439 597.5,-461 687.5,-461 687.5,-439 597.5,-439"/>
<text text-anchor="start" x="600.5" y="-447.2" font-family="Helvetica,sans-Serif" font-size="11.00">int4[10]</text>
<polygon fill="none" stroke="black" points="370.5,-417 370.5,-439 597.5,-439 597.5,-417 370.5,-417"/>
<text text-anchor="start" x="390.5" y="-425.2" font-family="Helvetica,sans-Serif" font-size="11.00">created_at</text>
<polygon fill="none" stroke="black" points="597.5,-417 597.5,-439 687.5,-439 687.5,-417 597.5,-417"/>
<text text-anchor="start" x="600.5" y="-425.2" font-family="Helvetica,sans-Serif" font-size="11.00">timestamp[29,6]</text>
<polygon fill="none" stroke="black" points="370.5,-395 370.5,-417 597.5,-417 597.5,-395 370.5,-395"/>
<text text-anchor="start" x="390.5" y="-403.2" font-family="Helvetica,sans-Serif" font-size="11.00">updated_at</text>
<polygon fill="none" stroke="black" points="597.5,-395 597.5,-417 687.5,-417 687.5,-395 597.5,-395"/>
<text text-anchor="start" x="600.5" y="-403.2" font-family="Helvetica,sans-Serif" font-size="11.00">timestamp[29,6]</text>
<polygon fill="#ffffff" stroke="transparent" points="370.5,-373 370.5,-395 597.5,-395 597.5,-373 370.5,-373"/>
<polygon fill="none" stroke="black" points="370.5,-373 370.5,-395 597.5,-395 597.5,-373 370.5,-373"/>
<text text-anchor="start" x="390.5" y="-381.2" font-family="Helvetica,sans-Serif" font-size="11.00">batch_id</text>
<polygon fill="none" stroke="black" points="597.5,-373 597.5,-395 687.5,-395 687.5,-373 597.5,-373"/>
<text text-anchor="start" x="600.5" y="-381.2" font-family="Helvetica,sans-Serif" font-size="11.00">text[2147483647]</text>
<polygon fill="#ffffff" stroke="transparent" points="370.5,-355 370.5,-373 453.5,-373 453.5,-355 370.5,-355"/>
<polygon fill="none" stroke="black" points="370.5,-355 370.5,-373 453.5,-373 453.5,-355 370.5,-355"/>
<text text-anchor="start" x="373.5" y="-361.2" font-family="Helvetica,sans-Serif" font-size="11.00">&lt; 3</text>
<polygon fill="#ffffff" stroke="transparent" points="453.5,-355 453.5,-373 597.5,-373 597.5,-355 453.5,-355"/>
<polygon fill="none" stroke="black" points="453.5,-355 453.5,-373 597.5,-373 597.5,-355 453.5,-355"/>
<text text-anchor="start" x="518.5" y="-361.2" font-family="Helvetica,sans-Serif" font-size="11.00">7,749,532 rows</text>
<polygon fill="#ffffff" stroke="transparent" points="597.5,-355 597.5,-373 687.5,-373 687.5,-355 597.5,-355"/>
<polygon fill="none" stroke="black" points="597.5,-355 597.5,-373 687.5,-373 687.5,-355 597.5,-355"/>
<text text-anchor="start" x="668.5" y="-361.2" font-family="Helvetica,sans-Serif" font-size="11.00">0 &gt;</text>
<polygon fill="none" stroke="black" stroke-width="2" points="369,-354 369,-814 688,-814 688,-354 369,-354"/>
</a>
</g>
</g>
<!-- decadal_states&#45;&gt;scenarios -->
<g id="edge8" class="edge">
<title>decadal_states:w&#45;&gt;scenarios:e</title>
<path fill="none" stroke="black" d="M355.41,-643.83C336.99,-630.53 342.71,-590 312.5,-590"/>
<polygon fill="black" stroke="black" points="361.83,-645.73 368.48,-651.45 365.66,-646.86 369.5,-648 369.5,-648 369.5,-648 365.66,-646.86 370.52,-644.55 361.83,-645.73 361.83,-645.73"/>
<ellipse fill="none" stroke="black" cx="358.76" cy="-644.82" rx="3.2" ry="3.2"/>
</g>
<!-- decadal_states&#45;&gt;hazard_metrics -->
<g id="edge6" class="edge">
<title>decadal_states:w&#45;&gt;hazard_metrics:e</title>
<path fill="none" stroke="black" d="M355.23,-672.68C308.71,-693.74 389.99,-832 320.5,-832"/>
<polygon fill="black" stroke="black" points="361.64,-671.47 370.16,-673.54 365.57,-670.74 369.5,-670 369.5,-670 369.5,-670 365.57,-670.74 368.84,-666.46 361.64,-671.47 361.64,-671.47"/>
<ellipse fill="none" stroke="black" cx="358.49" cy="-672.06" rx="3.2" ry="3.2"/>
</g>
<!-- regions -->
<g id="node7" class="node">
<title>regions</title>
<g id="a_node7"><a xlink:href="../../tables/regions.html" xlink:title="regions" target="_top">
<polygon fill="#ffffff" stroke="transparent" points="198,-74 198,-176 285,-176 285,-74 198,-74"/>
<polygon fill="#f5f5f5" stroke="transparent" points="198.5,-154 198.5,-176 285.5,-176 285.5,-154 198.5,-154"/>
<polygon fill="none" stroke="black" points="198.5,-154 198.5,-176 285.5,-176 285.5,-154 198.5,-154"/>
<text text-anchor="start" x="203.5" y="-163.2" font-family="Helvetica,sans-Serif" font-weight="bold" font-size="11.00">regions</text>
<text text-anchor="start" x="250.5" y="-162.2" font-family="Helvetica,sans-Serif" font-size="11.00">[table]</text>
<polygon fill="none" stroke="black" points="198.5,-132 198.5,-154 285.5,-154 285.5,-132 198.5,-132"/>
<image xlink:href="../../images/primaryKeys.png" width="11px" height="12px" preserveAspectRatio="xMinYMin meet" x="203.5" y="-149"/>
<text text-anchor="start" x="218.5" y="-140.2" font-family="Helvetica,sans-Serif" font-size="11.00">id</text>
<polygon fill="#ffffff" stroke="transparent" points="198.5,-110 198.5,-132 285.5,-132 285.5,-110 198.5,-110"/>
<polygon fill="none" stroke="black" points="198.5,-110 198.5,-132 285.5,-132 285.5,-110 198.5,-110"/>
<text text-anchor="start" x="218.5" y="-118.2" font-family="Helvetica,sans-Serif" font-size="11.00">name_etl</text>
<polygon fill="none" stroke="black" points="198.5,-92 198.5,-110 285.5,-110 285.5,-92 198.5,-92"/>
<text text-anchor="start" x="201.5" y="-98.2" font-family="Helvetica,sans-Serif" font-size="11.00">...</text>
<polygon fill="#ffffff" stroke="transparent" points="198.5,-74 198.5,-92 217.5,-92 217.5,-74 198.5,-74"/>
<polygon fill="none" stroke="black" points="198.5,-74 198.5,-92 217.5,-92 217.5,-74 198.5,-74"/>
<text text-anchor="start" x="201.5" y="-80.2" font-family="Helvetica,sans-Serif" font-size="11.00"> &#160;</text>
<polygon fill="#ffffff" stroke="transparent" points="217.5,-74 217.5,-92 260.5,-92 260.5,-74 217.5,-74"/>
<polygon fill="none" stroke="black" points="217.5,-74 217.5,-92 260.5,-92 260.5,-74 217.5,-74"/>
<text text-anchor="start" x="223.5" y="-80.2" font-family="Helvetica,sans-Serif" font-size="11.00">5 rows</text>
<polygon fill="#ffffff" stroke="transparent" points="260.5,-74 260.5,-92 285.5,-92 285.5,-74 260.5,-74"/>
<polygon fill="none" stroke="black" points="260.5,-74 260.5,-92 285.5,-92 285.5,-74 260.5,-74"/>
<text text-anchor="start" x="266.5" y="-80.2" font-family="Helvetica,sans-Serif" font-size="11.00">3 &gt;</text>
</a>
</g>
</g>
<!-- decadal_states&#45;&gt;regions -->
<g id="edge7" class="edge">
<title>decadal_states:w&#45;&gt;regions:e</title>
<path fill="none" stroke="black" d="M357.52,-705.93C311.21,-636.53 346.1,-143 286.5,-143"/>
<polygon fill="black" stroke="black" points="362.87,-709.53 367.49,-716.99 366.18,-711.76 369.5,-714 369.5,-714 369.5,-714 366.18,-711.76 371.51,-711.01 362.87,-709.53 362.87,-709.53"/>
<ellipse fill="none" stroke="black" cx="360.21" cy="-707.74" rx="3.2" ry="3.2"/>
</g>
<!-- impact_functions -->
<g id="node8" class="node">
<title>impact_functions</title>
<g id="a_node8"><a xlink:href="../../tables/impact_functions.html" xlink:title="impact_functions" target="_top">
<polygon fill="#ffffff" stroke="transparent" points="461,-915 461,-973 596,-973 596,-915 461,-915"/>
<polygon fill="#f5f5f5" stroke="transparent" points="461.5,-951 461.5,-973 596.5,-973 596.5,-951 461.5,-951"/>
<polygon fill="none" stroke="black" points="461.5,-951 461.5,-973 596.5,-973 596.5,-951 461.5,-951"/>
<text text-anchor="start" x="466.5" y="-960.2" font-family="Helvetica,sans-Serif" font-weight="bold" font-size="11.00">impact_functions</text>
<text text-anchor="start" x="561.5" y="-959.2" font-family="Helvetica,sans-Serif" font-size="11.00">[table]</text>
<polygon fill="none" stroke="black" points="461.5,-933 461.5,-951 596.5,-951 596.5,-933 461.5,-933"/>
<text text-anchor="start" x="464.5" y="-939.2" font-family="Helvetica,sans-Serif" font-size="11.00">...</text>
<polygon fill="#ffffff" stroke="transparent" points="461.5,-915 461.5,-933 498.5,-933 498.5,-915 461.5,-915"/>
<polygon fill="none" stroke="black" points="461.5,-915 461.5,-933 498.5,-933 498.5,-915 461.5,-915"/>
<text text-anchor="start" x="464.5" y="-921.2" font-family="Helvetica,sans-Serif" font-size="11.00">&lt; 2</text>
<polygon fill="#ffffff" stroke="transparent" points="498.5,-915 498.5,-933 566.5,-933 566.5,-915 498.5,-915"/>
<polygon fill="none" stroke="black" points="498.5,-915 498.5,-933 566.5,-933 566.5,-915 498.5,-915"/>
<text text-anchor="start" x="508.5" y="-921.2" font-family="Helvetica,sans-Serif" font-size="11.00">3,261 rows</text>
<polygon fill="#ffffff" stroke="transparent" points="566.5,-915 566.5,-933 596.5,-933 596.5,-915 566.5,-915"/>
<polygon fill="none" stroke="black" points="566.5,-915 566.5,-933 596.5,-933 596.5,-915 566.5,-915"/>
<text text-anchor="start" x="577.5" y="-921.2" font-family="Helvetica,sans-Serif" font-size="11.00">2 &gt;</text>
</a>
</g>
</g>
<!-- impact_functions&#45;&gt;risk_factors -->
<g id="edge11" class="edge">
<title>impact_functions:w&#45;&gt;risk_factors:e</title>
<path fill="none" stroke="black" d="M445.98,-942.12C319.65,-944.2 264.69,-971.66 156,-897 126.56,-876.77 152.22,-827 116.5,-827"/>
<polygon fill="black" stroke="black" points="452.5,-942.07 460.53,-945.6 456.5,-942.03 460.5,-942 460.5,-942 460.5,-942 456.5,-942.03 460.47,-938.4 452.5,-942.07 452.5,-942.07"/>
<ellipse fill="none" stroke="black" cx="449.3" cy="-942.09" rx="3.2" ry="3.2"/>
</g>
<!-- impact_functions&#45;&gt;hazard_metrics -->
<g id="edge10" class="edge">
<title>impact_functions:w&#45;&gt;hazard_metrics:e</title>
<path fill="none" stroke="black" d="M445.92,-941.76C408.97,-940.42 392.04,-932.75 360,-905 332.12,-880.85 357.39,-832 320.5,-832"/>
<polygon fill="black" stroke="black" points="452.5,-941.87 460.44,-945.6 456.5,-941.94 460.5,-942 460.5,-942 460.5,-942 456.5,-941.94 460.56,-938.4 452.5,-941.87 452.5,-941.87"/>
<ellipse fill="none" stroke="black" cx="449.3" cy="-941.82" rx="3.2" ry="3.2"/>
</g>
<!-- loc_regions -->
<g id="node9" class="node">
<title>loc_regions</title>
<g id="a_node9"><a xlink:href="../../tables/loc_regions.html" xlink:title="loc_regions" target="_top">
<polygon fill="#ffffff" stroke="transparent" points="475,-37 475,-95 582,-95 582,-37 475,-37"/>
<polygon fill="#f5f5f5" stroke="transparent" points="475.5,-73 475.5,-95 582.5,-95 582.5,-73 475.5,-73"/>
<polygon fill="none" stroke="black" points="475.5,-73 475.5,-95 582.5,-95 582.5,-73 475.5,-73"/>
<text text-anchor="start" x="480.5" y="-82.2" font-family="Helvetica,sans-Serif" font-weight="bold" font-size="11.00">loc_regions</text>
<text text-anchor="start" x="547.5" y="-81.2" font-family="Helvetica,sans-Serif" font-size="11.00">[table]</text>
<polygon fill="none" stroke="black" points="475.5,-55 475.5,-73 582.5,-73 582.5,-55 475.5,-55"/>
<text text-anchor="start" x="478.5" y="-61.2" font-family="Helvetica,sans-Serif" font-size="11.00">...</text>
<polygon fill="#ffffff" stroke="transparent" points="475.5,-37 475.5,-55 499.5,-55 499.5,-37 475.5,-37"/>
<polygon fill="none" stroke="black" points="475.5,-37 475.5,-55 499.5,-55 499.5,-37 475.5,-37"/>
<text text-anchor="start" x="478.5" y="-43.2" font-family="Helvetica,sans-Serif" font-size="11.00">&lt; 2</text>
<polygon fill="#ffffff" stroke="transparent" points="499.5,-37 499.5,-55 567.5,-55 567.5,-37 499.5,-37"/>
<polygon fill="none" stroke="black" points="499.5,-37 499.5,-55 567.5,-55 567.5,-37 499.5,-37"/>
<text text-anchor="start" x="503.5" y="-43.2" font-family="Helvetica,sans-Serif" font-size="11.00">79,140 rows</text>
<polygon fill="#ffffff" stroke="transparent" points="567.5,-37 567.5,-55 582.5,-55 582.5,-37 567.5,-37"/>
<polygon fill="none" stroke="black" points="567.5,-37 567.5,-55 582.5,-55 582.5,-37 567.5,-37"/>
<text text-anchor="start" x="572.5" y="-43.2" font-family="Helvetica,sans-Serif" font-size="11.00"> &#160;</text>
</a>
</g>
</g>
<!-- loc_regions&#45;&gt;regions -->
<g id="edge12" class="edge">
<title>loc_regions:w&#45;&gt;regions:e</title>
<path fill="none" stroke="black" d="M460.1,-64.52C418.01,-67.74 404.82,-85.49 360,-105 326.28,-119.68 323.27,-143 286.5,-143"/>
<polygon fill="black" stroke="black" points="466.51,-64.29 474.63,-67.6 470.5,-64.14 474.5,-64 474.5,-64 474.5,-64 470.5,-64.14 474.37,-60.4 466.51,-64.29 466.51,-64.29"/>
<ellipse fill="none" stroke="black" cx="463.31" cy="-64.4" rx="3.2" ry="3.2"/>
</g>
<!-- region_areas -->
<g id="node10" class="node">
<title>region_areas</title>
<g id="a_node10"><a xlink:href="../../tables/region_areas.html" xlink:title="region_areas" target="_top">
<polygon fill="#ffffff" stroke="transparent" points="471.5,-116 471.5,-174 585.5,-174 585.5,-116 471.5,-116"/>
<polygon fill="#f5f5f5" stroke="transparent" points="471.5,-152 471.5,-174 585.5,-174 585.5,-152 471.5,-152"/>
<polygon fill="none" stroke="black" points="471.5,-152 471.5,-174 585.5,-174 585.5,-152 471.5,-152"/>
<text text-anchor="start" x="476.5" y="-161.2" font-family="Helvetica,sans-Serif" font-weight="bold" font-size="11.00">region_areas</text>
<text text-anchor="start" x="550.5" y="-160.2" font-family="Helvetica,sans-Serif" font-size="11.00">[table]</text>
<polygon fill="none" stroke="black" points="471.5,-134 471.5,-152 585.5,-152 585.5,-134 471.5,-134"/>
<text text-anchor="start" x="474.5" y="-140.2" font-family="Helvetica,sans-Serif" font-size="11.00">...</text>
<polygon fill="#ffffff" stroke="transparent" points="471.5,-116 471.5,-134 506.5,-134 506.5,-116 471.5,-116"/>
<polygon fill="none" stroke="black" points="471.5,-116 471.5,-134 506.5,-134 506.5,-116 471.5,-116"/>
<text text-anchor="start" x="474.5" y="-122.2" font-family="Helvetica,sans-Serif" font-size="11.00">&lt; 1</text>
<polygon fill="#ffffff" stroke="transparent" points="506.5,-116 506.5,-134 565.5,-134 565.5,-116 506.5,-116"/>
<polygon fill="none" stroke="black" points="506.5,-116 506.5,-134 565.5,-134 565.5,-116 506.5,-116"/>
<text text-anchor="start" x="516.5" y="-122.2" font-family="Helvetica,sans-Serif" font-size="11.00">234 rows</text>
<polygon fill="#ffffff" stroke="transparent" points="565.5,-116 565.5,-134 585.5,-134 585.5,-116 565.5,-116"/>
<polygon fill="none" stroke="black" points="565.5,-116 565.5,-134 585.5,-134 585.5,-116 565.5,-116"/>
<text text-anchor="start" x="575.5" y="-122.2" font-family="Helvetica,sans-Serif" font-size="11.00"> &#160;</text>
</a>
</g>
</g>
<!-- region_areas&#45;&gt;regions -->
<g id="edge13" class="edge">
<title>region_areas:w&#45;&gt;regions:e</title>
<path fill="none" stroke="black" d="M455.86,-143C385.93,-143 363.17,-143 286.5,-143"/>
<polygon fill="black" stroke="black" points="462.5,-143 470.5,-146.6 466.5,-143 470.5,-143 470.5,-143 470.5,-143 466.5,-143 470.5,-139.4 462.5,-143 462.5,-143"/>
<ellipse fill="none" stroke="black" cx="459.3" cy="-143" rx="3.2" ry="3.2"/>
</g>
<!-- risks -->
<g id="node11" class="node">
<title>risks</title>
<g id="a_node11"><a xlink:href="../../tables/risks.html" xlink:title="risks" target="_top">
<polygon fill="#ffffff" stroke="transparent" points="467,-274 467,-332 590,-332 590,-274 467,-274"/>
<polygon fill="#f5f5f5" stroke="transparent" points="467.5,-310 467.5,-332 590.5,-332 590.5,-310 467.5,-310"/>
<polygon fill="none" stroke="black" points="467.5,-310 467.5,-332 590.5,-332 590.5,-310 467.5,-310"/>
<text text-anchor="start" x="472.5" y="-319.2" font-family="Helvetica,sans-Serif" font-weight="bold" font-size="11.00">risks</text>
<text text-anchor="start" x="555.5" y="-318.2" font-family="Helvetica,sans-Serif" font-size="11.00">[table]</text>
<polygon fill="none" stroke="black" points="467.5,-292 467.5,-310 590.5,-310 590.5,-292 467.5,-292"/>
<text text-anchor="start" x="470.5" y="-298.2" font-family="Helvetica,sans-Serif" font-size="11.00">...</text>
<polygon fill="#ffffff" stroke="transparent" points="467.5,-274 467.5,-292 489.5,-292 489.5,-274 467.5,-274"/>
<polygon fill="none" stroke="black" points="467.5,-274 467.5,-292 489.5,-292 489.5,-274 467.5,-274"/>
<text text-anchor="start" x="470.5" y="-280.2" font-family="Helvetica,sans-Serif" font-size="11.00">&lt; 3</text>
<polygon fill="#ffffff" stroke="transparent" points="489.5,-274 489.5,-292 577.5,-292 577.5,-274 489.5,-274"/>
<polygon fill="none" stroke="black" points="489.5,-274 489.5,-292 577.5,-292 577.5,-274 489.5,-274"/>
<text text-anchor="start" x="492.5" y="-280.2" font-family="Helvetica,sans-Serif" font-size="11.00">28,657,312 rows</text>
<polygon fill="#ffffff" stroke="transparent" points="577.5,-274 577.5,-292 590.5,-292 590.5,-274 577.5,-274"/>
<polygon fill="none" stroke="black" points="577.5,-274 577.5,-292 590.5,-292 590.5,-274 577.5,-274"/>
<text text-anchor="start" x="580.5" y="-280.2" font-family="Helvetica,sans-Serif" font-size="11.00"> &#160;</text>
</a>
</g>
</g>
<!-- risks&#45;&gt;scenarios -->
<g id="edge14" class="edge">
<title>risks:w&#45;&gt;scenarios:e</title>
<path fill="none" stroke="black" d="M452.08,-301.12C410.92,-301.93 389.25,-307.74 360,-343 288.62,-429.03 424.29,-590 312.5,-590"/>
<polygon fill="black" stroke="black" points="458.5,-301.07 466.53,-304.6 462.5,-301.03 466.5,-301 466.5,-301 466.5,-301 462.5,-301.03 466.47,-297.4 458.5,-301.07 458.5,-301.07"/>
<ellipse fill="none" stroke="black" cx="455.3" cy="-301.09" rx="3.2" ry="3.2"/>
</g>
</g>
</svg>
