<?xml version="1.0" encoding="UTF-8" standalone="no"?>
<!DOCTYPE svg PUBLIC "-//W3C//DTD SVG 1.1//EN"
 "http://www.w3.org/Graphics/SVG/1.1/DTD/svg11.dtd">
<!-- Generated by graphviz version 2.50.0 (20211204.2007)
 -->
<!-- Title: oneDegreeRelationshipsDiagram Pages: 1 -->
<svg width="549pt" height="522pt"
 viewBox="0.00 0.00 549.00 522.00" xmlns="http://www.w3.org/2000/svg" xmlns:xlink="http://www.w3.org/1999/xlink">
<g id="graph0" class="graph" transform="scale(1 1) rotate(0) translate(4 518)">
<title>oneDegreeRelationshipsDiagram</title>
<polygon fill="#ffffff" stroke="transparent" points="-4,4 -4,-518 545,-518 545,4 -4,4"/>
<text text-anchor="middle" x="72.5" y="-7.2" font-family="Helvetica,sans-Serif" font-size="11.00">Generated by SchemaSpy</text>
<!-- decadal_states -->
<g id="node1" class="node">
<title>decadal_states</title>
<g id="a_node1"><a xlink:href="../../tables/decadal_states.html" xlink:title="decadal_states" target="_top">
<polygon fill="#ffffff" stroke="transparent" points="212,-37 212,-499 533,-499 533,-37 212,-37"/>
<polygon fill="#f5f5f5" stroke="transparent" points="214.5,-475 214.5,-497 531.5,-497 531.5,-475 214.5,-475"/>
<polygon fill="none" stroke="black" points="214.5,-475 214.5,-497 531.5,-497 531.5,-475 214.5,-475"/>
<text text-anchor="start" x="219.5" y="-484.2" font-family="Helvetica,sans-Serif" font-weight="bold" font-size="11.00">decadal_states</text>
<text text-anchor="start" x="496.5" y="-483.2" font-family="Helvetica,sans-Serif" font-size="11.00">[table]</text>
<polygon fill="none" stroke="black" points="214.5,-453 214.5,-475 441.5,-475 441.5,-453 214.5,-453"/>
<image xlink:href="../../images/primaryKeys.png" width="11px" height="12px" preserveAspectRatio="xMinYMin meet" x="219.5" y="-470"/>
<text text-anchor="start" x="234.5" y="-461.2" font-family="Helvetica,sans-Serif" font-size="11.00">id</text>
<polygon fill="none" stroke="black" points="441.5,-453 441.5,-475 531.5,-475 531.5,-453 441.5,-453"/>
<text text-anchor="start" x="444.5" y="-461.2" font-family="Helvetica,sans-Serif" font-size="11.00">serial[10]</text>
<polygon fill="#ffffff" stroke="transparent" points="214.5,-431 214.5,-453 441.5,-453 441.5,-431 214.5,-431"/>
<polygon fill="none" stroke="black" points="214.5,-431 214.5,-453 441.5,-453 441.5,-431 214.5,-431"/>
<text text-anchor="start" x="234.5" y="-439.2" font-family="Helvetica,sans-Serif" font-size="11.00">grid_square_id</text>
<polygon fill="none" stroke="black" points="441.5,-431 441.5,-453 531.5,-453 531.5,-431 441.5,-431"/>
<text text-anchor="start" x="444.5" y="-439.2" font-family="Helvetica,sans-Serif" font-size="11.00">int4[10]</text>
<polygon fill="#ffffff" stroke="transparent" points="214.5,-409 214.5,-431 441.5,-431 441.5,-409 214.5,-409"/>
<polygon fill="none" stroke="black" points="214.5,-409 214.5,-431 441.5,-431 441.5,-409 214.5,-409"/>
<text text-anchor="start" x="234.5" y="-417.2" font-family="Helvetica,sans-Serif" font-size="11.00">point_loc_id</text>
<polygon fill="none" stroke="black" points="441.5,-409 441.5,-431 531.5,-431 531.5,-409 441.5,-409"/>
<text text-anchor="start" x="444.5" y="-417.2" font-family="Helvetica,sans-Serif" font-size="11.00">int4[10]</text>
<polygon fill="#ffffff" stroke="transparent" points="214.5,-387 214.5,-409 441.5,-409 441.5,-387 214.5,-387"/>
<polygon fill="none" stroke="black" points="214.5,-387 214.5,-409 441.5,-409 441.5,-387 214.5,-387"/>
<image xlink:href="../../images/foreignKeys.png" width="11px" height="12px" preserveAspectRatio="xMinYMin meet" x="219.5" y="-404"/>
<text text-anchor="start" x="234.5" y="-395.2" font-family="Helvetica,sans-Serif" font-size="11.00">region_id</text>
<polygon fill="none" stroke="black" points="441.5,-387 441.5,-409 531.5,-409 531.5,-387 441.5,-387"/>
<text text-anchor="start" x="444.5" y="-395.2" font-family="Helvetica,sans-Serif" font-size="11.00">int4[10]</text>
<polygon fill="#ffffff" stroke="transparent" points="214.5,-365 214.5,-387 441.5,-387 441.5,-365 214.5,-365"/>
<polygon fill="none" stroke="black" points="214.5,-365 214.5,-387 441.5,-387 441.5,-365 214.5,-365"/>
<text text-anchor="start" x="234.5" y="-373.2" font-family="Helvetica,sans-Serif" font-size="11.00">decadal_state_type</text>
<polygon fill="none" stroke="black" points="441.5,-365 441.5,-387 531.5,-387 531.5,-365 441.5,-365"/>
<text text-anchor="start" x="444.5" y="-373.2" font-family="Helvetica,sans-Serif" font-size="11.00">int4[10]</text>
<polygon fill="#ffffff" stroke="transparent" points="214.5,-343 214.5,-365 441.5,-365 441.5,-343 214.5,-343"/>
<polygon fill="none" stroke="black" points="214.5,-343 214.5,-365 441.5,-365 441.5,-343 214.5,-343"/>
<image xlink:href="../../images/foreignKeys.png" width="11px" height="12px" preserveAspectRatio="xMinYMin meet" x="219.5" y="-360"/>
<text text-anchor="start" x="234.5" y="-351.2" font-family="Helvetica,sans-Serif" font-size="11.00">hazard_metric_id</text>
<polygon fill="none" stroke="black" points="441.5,-343 441.5,-365 531.5,-365 531.5,-343 441.5,-343"/>
<text text-anchor="start" x="444.5" y="-351.2" font-family="Helvetica,sans-Serif" font-size="11.00">int4[10]</text>
<polygon fill="#ffffff" stroke="transparent" points="214.5,-321 214.5,-343 441.5,-343 441.5,-321 214.5,-321"/>
<polygon fill="none" stroke="black" points="214.5,-321 214.5,-343 441.5,-343 441.5,-321 214.5,-321"/>
<image xlink:href="../../images/foreignKeys.png" width="11px" height="12px" preserveAspectRatio="xMinYMin meet" x="219.5" y="-338"/>
<text text-anchor="start" x="234.5" y="-329.2" font-family="Helvetica,sans-Serif" font-size="11.00">scenario_id</text>
<polygon fill="none" stroke="black" points="441.5,-321 441.5,-343 531.5,-343 531.5,-321 441.5,-321"/>
<text text-anchor="start" x="444.5" y="-329.2" font-family="Helvetica,sans-Serif" font-size="11.00">int4[10]</text>
<polygon fill="#ffffff" stroke="transparent" points="214.5,-299 214.5,-321 441.5,-321 441.5,-299 214.5,-299"/>
<polygon fill="none" stroke="black" points="214.5,-299 214.5,-321 441.5,-321 441.5,-299 214.5,-299"/>
<text text-anchor="start" x="234.5" y="-307.2" font-family="Helvetica,sans-Serif" font-size="11.00">decade</text>
<polygon fill="none" stroke="black" points="441.5,-299 441.5,-321 531.5,-321 531.5,-299 441.5,-299"/>
<text text-anchor="start" x="444.5" y="-307.2" font-family="Helvetica,sans-Serif" font-size="11.00">int2[5]</text>
<polygon fill="#ffffff" stroke="transparent" points="214.5,-277 214.5,-299 441.5,-299 441.5,-277 214.5,-277"/>
<polygon fill="none" stroke="black" points="214.5,-277 214.5,-299 441.5,-299 441.5,-277 214.5,-277"/>
<text text-anchor="start" x="234.5" y="-285.2" font-family="Helvetica,sans-Serif" font-size="11.00">proc_flag_decadal_states_calc</text>
<polygon fill="none" stroke="black" points="441.5,-277 441.5,-299 531.5,-299 531.5,-277 441.5,-277"/>
<text text-anchor="start" x="444.5" y="-285.2" font-family="Helvetica,sans-Serif" font-size="11.00">int4[10]</text>
<polygon fill="none" stroke="black" points="214.5,-255 214.5,-277 441.5,-277 441.5,-255 214.5,-255"/>
<text text-anchor="start" x="234.5" y="-263.2" font-family="Helvetica,sans-Serif" font-size="11.00">descr</text>
<polygon fill="none" stroke="black" points="441.5,-255 441.5,-277 531.5,-277 531.5,-255 441.5,-255"/>
<text text-anchor="start" x="444.5" y="-263.2" font-family="Helvetica,sans-Serif" font-size="11.00">varchar[256]</text>
<polygon fill="none" stroke="black" points="214.5,-233 214.5,-255 441.5,-255 441.5,-233 214.5,-233"/>
<text text-anchor="start" x="234.5" y="-241.2" font-family="Helvetica,sans-Serif" font-size="11.00">hazard_metric_mean</text>
<polygon fill="none" stroke="black" points="441.5,-233 441.5,-255 531.5,-255 531.5,-233 441.5,-233"/>
<text text-anchor="start" x="444.5" y="-241.2" font-family="Helvetica,sans-Serif" font-size="11.00">float8[17,17]</text>
<polygon fill="none" stroke="black" points="214.5,-211 214.5,-233 441.5,-233 441.5,-211 214.5,-211"/>
<text text-anchor="start" x="234.5" y="-219.2" font-family="Helvetica,sans-Serif" font-size="11.00">approximated</text>
<polygon fill="none" stroke="black" points="441.5,-211 441.5,-233 531.5,-233 531.5,-211 441.5,-211"/>
<text text-anchor="start" x="444.5" y="-219.2" font-family="Helvetica,sans-Serif" font-size="11.00">bool[1]</text>
<polygon fill="none" stroke="black" points="214.5,-189 214.5,-211 441.5,-211 441.5,-189 214.5,-189"/>
<text text-anchor="start" x="234.5" y="-197.2" font-family="Helvetica,sans-Serif" font-size="11.00">approximated_gridsquare_span_lng</text>
<polygon fill="none" stroke="black" points="441.5,-189 441.5,-211 531.5,-211 531.5,-189 441.5,-189"/>
<text text-anchor="start" x="444.5" y="-197.2" font-family="Helvetica,sans-Serif" font-size="11.00">float8[17,17]</text>
<polygon fill="none" stroke="black" points="214.5,-167 214.5,-189 441.5,-189 441.5,-167 214.5,-167"/>
<text text-anchor="start" x="234.5" y="-175.2" font-family="Helvetica,sans-Serif" font-size="11.00">approximated_gridsquare_span_lat</text>
<polygon fill="none" stroke="black" points="441.5,-167 441.5,-189 531.5,-189 531.5,-167 441.5,-167"/>
<text text-anchor="start" x="444.5" y="-175.2" font-family="Helvetica,sans-Serif" font-size="11.00">float8[17,17]</text>
<polygon fill="#ffffff" stroke="transparent" points="214.5,-145 214.5,-167 441.5,-167 441.5,-145 214.5,-145"/>
<polygon fill="none" stroke="black" points="214.5,-145 214.5,-167 441.5,-167 441.5,-145 214.5,-145"/>
<text text-anchor="start" x="234.5" y="-153.2" font-family="Helvetica,sans-Serif" font-size="11.00">not_in_model</text>
<polygon fill="none" stroke="black" points="441.5,-145 441.5,-167 531.5,-167 531.5,-145 441.5,-145"/>
<text text-anchor="start" x="444.5" y="-153.2" font-family="Helvetica,sans-Serif" font-size="11.00">int4[10]</text>
<polygon fill="none" stroke="black" points="214.5,-123 214.5,-145 441.5,-145 441.5,-123 214.5,-123"/>
<text text-anchor="start" x="234.5" y="-131.2" font-family="Helvetica,sans-Serif" font-size="11.00">duplicate_suspected</text>
<polygon fill="none" stroke="black" points="441.5,-123 441.5,-145 531.5,-145 531.5,-123 441.5,-123"/>
<text text-anchor="start" x="444.5" y="-131.2" font-family="Helvetica,sans-Serif" font-size="11.00">int4[10]</text>
<polygon fill="none" stroke="black" points="214.5,-101 214.5,-123 441.5,-123 441.5,-101 214.5,-101"/>
<text text-anchor="start" x="234.5" y="-109.2" font-family="Helvetica,sans-Serif" font-size="11.00">created_at</text>
<polygon fill="none" stroke="black" points="441.5,-101 441.5,-123 531.5,-123 531.5,-101 441.5,-101"/>
<text text-anchor="start" x="444.5" y="-109.2" font-family="Helvetica,sans-Serif" font-size="11.00">timestamp[29,6]</text>
<polygon fill="none" stroke="black" points="214.5,-79 214.5,-101 441.5,-101 441.5,-79 214.5,-79"/>
<text text-anchor="start" x="234.5" y="-87.2" font-family="Helvetica,sans-Serif" font-size="11.00">updated_at</text>
<polygon fill="none" stroke="black" points="441.5,-79 441.5,-101 531.5,-101 531.5,-79 441.5,-79"/>
<text text-anchor="start" x="444.5" y="-87.2" font-family="Helvetica,sans-Serif" font-size="11.00">timestamp[29,6]</text>
<polygon fill="#ffffff" stroke="transparent" points="214.5,-57 214.5,-79 441.5,-79 441.5,-57 214.5,-57"/>
<polygon fill="none" stroke="black" points="214.5,-57 214.5,-79 441.5,-79 441.5,-57 214.5,-57"/>
<text text-anchor="start" x="234.5" y="-65.2" font-family="Helvetica,sans-Serif" font-size="11.00">batch_id</text>
<polygon fill="none" stroke="black" points="441.5,-57 441.5,-79 531.5,-79 531.5,-57 441.5,-57"/>
<text text-anchor="start" x="444.5" y="-65.2" font-family="Helvetica,sans-Serif" font-size="11.00">text[2147483647]</text>
<polygon fill="#ffffff" stroke="transparent" points="214.5,-39 214.5,-57 297.5,-57 297.5,-39 214.5,-39"/>
<polygon fill="none" stroke="black" points="214.5,-39 214.5,-57 297.5,-57 297.5,-39 214.5,-39"/>
<text text-anchor="start" x="217.5" y="-45.2" font-family="Helvetica,sans-Serif" font-size="11.00">&lt; 3</text>
<polygon fill="#ffffff" stroke="transparent" points="297.5,-39 297.5,-57 441.5,-57 441.5,-39 297.5,-39"/>
<polygon fill="none" stroke="black" points="297.5,-39 297.5,-57 441.5,-57 441.5,-39 297.5,-39"/>
<text text-anchor="start" x="362.5" y="-45.2" font-family="Helvetica,sans-Serif" font-size="11.00">7,749,532 rows</text>
<polygon fill="#ffffff" stroke="transparent" points="441.5,-39 441.5,-57 531.5,-57 531.5,-39 441.5,-39"/>
<polygon fill="none" stroke="black" points="441.5,-39 441.5,-57 531.5,-57 531.5,-39 441.5,-39"/>
<text text-anchor="start" x="512.5" y="-45.2" font-family="Helvetica,sans-Serif" font-size="11.00">0 &gt;</text>
<polygon fill="none" stroke="black" stroke-width="2" points="213,-38 213,-498 532,-498 532,-38 213,-38"/>
</a>
</g>
</g>
<!-- hazard_metrics -->
<g id="node2" class="node">
<title>hazard_metrics</title>
<g id="a_node2"><a xlink:href="../../tables/hazard_metrics.html" xlink:title="hazard_metrics" target="_top">
<polygon fill="#ffffff" stroke="transparent" points="8,-241 8,-387 163,-387 163,-241 8,-241"/>
<polygon fill="#f5f5f5" stroke="transparent" points="8.5,-365 8.5,-387 163.5,-387 163.5,-365 8.5,-365"/>
<polygon fill="none" stroke="black" points="8.5,-365 8.5,-387 163.5,-387 163.5,-365 8.5,-365"/>
<text text-anchor="start" x="13.5" y="-374.2" font-family="Helvetica,sans-Serif" font-weight="bold" font-size="11.00">hazard_metrics</text>
<text text-anchor="start" x="128.5" y="-373.2" font-family="Helvetica,sans-Serif" font-size="11.00">[table]</text>
<polygon fill="none" stroke="black" points="8.5,-343 8.5,-365 163.5,-365 163.5,-343 8.5,-343"/>
<image xlink:href="../../images/primaryKeys.png" width="11px" height="12px" preserveAspectRatio="xMinYMin meet" x="13.5" y="-360"/>
<text text-anchor="start" x="28.5" y="-351.2" font-family="Helvetica,sans-Serif" font-size="11.00">id</text>
<polygon fill="#ffffff" stroke="transparent" points="8.5,-321 8.5,-343 163.5,-343 163.5,-321 8.5,-321"/>
<polygon fill="none" stroke="black" points="8.5,-321 8.5,-343 163.5,-343 163.5,-321 8.5,-321"/>
<text text-anchor="start" x="28.5" y="-329.2" font-family="Helvetica,sans-Serif" font-size="11.00">name</text>
<polygon fill="#ffffff" stroke="transparent" points="8.5,-299 8.5,-321 163.5,-321 163.5,-299 8.5,-299"/>
<polygon fill="none" stroke="black" points="8.5,-299 8.5,-321 163.5,-321 163.5,-299 8.5,-299"/>
<text text-anchor="start" x="28.5" y="-307.2" font-family="Helvetica,sans-Serif" font-size="11.00">name_etl</text>
<polygon fill="none" stroke="black" points="8.5,-277 8.5,-299 163.5,-299 163.5,-277 8.5,-277"/>
<image xlink:href="../../images/foreignKeys.png" width="11px" height="12px" preserveAspectRatio="xMinYMin meet" x="13.5" y="-294"/>
<text text-anchor="start" x="28.5" y="-285.2" font-family="Helvetica,sans-Serif" font-size="11.00">risk_factor_id</text>
<polygon fill="none" stroke="black" points="8.5,-259 8.5,-277 163.5,-277 163.5,-259 8.5,-259"/>
<text text-anchor="start" x="11.5" y="-265.2" font-family="Helvetica,sans-Serif" font-size="11.00">...</text>
<polygon fill="#ffffff" stroke="transparent" points="8.5,-241 8.5,-259 62.5,-259 62.5,-241 8.5,-241"/>
<polygon fill="none" stroke="black" points="8.5,-241 8.5,-259 62.5,-259 62.5,-241 8.5,-241"/>
<text text-anchor="start" x="11.5" y="-247.2" font-family="Helvetica,sans-Serif" font-size="11.00">&lt; 1</text>
<polygon fill="#ffffff" stroke="transparent" points="62.5,-241 62.5,-259 124.5,-259 124.5,-241 62.5,-241"/>
<polygon fill="none" stroke="black" points="62.5,-241 62.5,-259 124.5,-259 124.5,-241 62.5,-241"/>
<text text-anchor="start" x="81.5" y="-247.2" font-family="Helvetica,sans-Serif" font-size="11.00">15 rows</text>
<polygon fill="#ffffff" stroke="transparent" points="124.5,-241 124.5,-259 163.5,-259 163.5,-241 124.5,-241"/>
<polygon fill="none" stroke="black" points="124.5,-241 124.5,-259 163.5,-259 163.5,-241 124.5,-241"/>
<text text-anchor="start" x="144.5" y="-247.2" font-family="Helvetica,sans-Serif" font-size="11.00">3 &gt;</text>
</a>
</g>
</g>
<!-- decadal_states&#45;&gt;hazard_metrics -->
<g id="edge1" class="edge">
<title>decadal_states:w&#45;&gt;hazard_metrics:e</title>
<path fill="none" stroke="black" d="M198.99,-354C187.68,-354 180.49,-354 164.5,-354"/>
<polygon fill="black" stroke="black" points="205.5,-354 213.5,-357.6 209.5,-354 213.5,-354 213.5,-354 213.5,-354 209.5,-354 213.5,-350.4 205.5,-354 205.5,-354"/>
<ellipse fill="none" stroke="black" cx="202.3" cy="-354" rx="3.2" ry="3.2"/>
</g>
<!-- regions -->
<g id="node3" class="node">
<title>regions</title>
<g id="a_node3"><a xlink:href="../../tables/regions.html" xlink:title="regions" target="_top">
<polygon fill="#ffffff" stroke="transparent" points="42,-408 42,-510 129,-510 129,-408 42,-408"/>
<polygon fill="#f5f5f5" stroke="transparent" points="42.5,-488 42.5,-510 129.5,-510 129.5,-488 42.5,-488"/>
<polygon fill="none" stroke="black" points="42.5,-488 42.5,-510 129.5,-510 129.5,-488 42.5,-488"/>
<text text-anchor="start" x="47.5" y="-497.2" font-family="Helvetica,sans-Serif" font-weight="bold" font-size="11.00">regions</text>
<text text-anchor="start" x="94.5" y="-496.2" font-family="Helvetica,sans-Serif" font-size="11.00">[table]</text>
<polygon fill="none" stroke="black" points="42.5,-466 42.5,-488 129.5,-488 129.5,-466 42.5,-466"/>
<image xlink:href="../../images/primaryKeys.png" width="11px" height="12px" preserveAspectRatio="xMinYMin meet" x="47.5" y="-483"/>
<text text-anchor="start" x="62.5" y="-474.2" font-family="Helvetica,sans-Serif" font-size="11.00">id</text>
<polygon fill="#ffffff" stroke="transparent" points="42.5,-444 42.5,-466 129.5,-466 129.5,-444 42.5,-444"/>
<polygon fill="none" stroke="black" points="42.5,-444 42.5,-466 129.5,-466 129.5,-444 42.5,-444"/>
<text text-anchor="start" x="62.5" y="-452.2" font-family="Helvetica,sans-Serif" font-size="11.00">name_etl</text>
<polygon fill="none" stroke="black" points="42.5,-426 42.5,-444 129.5,-444 129.5,-426 42.5,-426"/>
<text text-anchor="start" x="45.5" y="-432.2" font-family="Helvetica,sans-Serif" font-size="11.00">...</text>
<polygon fill="#ffffff" stroke="transparent" points="42.5,-408 42.5,-426 61.5,-426 61.5,-408 42.5,-408"/>
<polygon fill="none" stroke="black" points="42.5,-408 42.5,-426 61.5,-426 61.5,-408 42.5,-408"/>
<text text-anchor="start" x="45.5" y="-414.2" font-family="Helvetica,sans-Serif" font-size="11.00"> &#160;</text>
<polygon fill="#ffffff" stroke="transparent" points="61.5,-408 61.5,-426 104.5,-426 104.5,-408 61.5,-408"/>
<polygon fill="none" stroke="black" points="61.5,-408 61.5,-426 104.5,-426 104.5,-408 61.5,-408"/>
<text text-anchor="start" x="67.5" y="-414.2" font-family="Helvetica,sans-Serif" font-size="11.00">5 rows</text>
<polygon fill="#ffffff" stroke="transparent" points="104.5,-408 104.5,-426 129.5,-426 129.5,-408 104.5,-408"/>
<polygon fill="none" stroke="black" points="104.5,-408 104.5,-426 129.5,-426 129.5,-408 104.5,-408"/>
<text text-anchor="start" x="110.5" y="-414.2" font-family="Helvetica,sans-Serif" font-size="11.00">3 &gt;</text>
</a>
</g>
</g>
<!-- decadal_states&#45;&gt;regions -->
<g id="edge2" class="edge">
<title>decadal_states:w&#45;&gt;regions:e</title>
<path fill="none" stroke="black" d="M199.11,-400.63C165.86,-414.34 175.86,-477 130.5,-477"/>
<polygon fill="black" stroke="black" points="205.63,-399.44 214.15,-401.54 209.57,-398.72 213.5,-398 213.5,-398 213.5,-398 209.57,-398.72 212.85,-394.46 205.63,-399.44 205.63,-399.44"/>
<ellipse fill="none" stroke="black" cx="202.48" cy="-400.01" rx="3.2" ry="3.2"/>
</g>
<!-- scenarios -->
<g id="node4" class="node">
<title>scenarios</title>
<g id="a_node4"><a xlink:href="../../tables/scenarios.html" xlink:title="scenarios" target="_top">
<polygon fill="#ffffff" stroke="transparent" points="16,-96 16,-220 155,-220 155,-96 16,-96"/>
<polygon fill="#f5f5f5" stroke="transparent" points="16.5,-198 16.5,-220 155.5,-220 155.5,-198 16.5,-198"/>
<polygon fill="none" stroke="black" points="16.5,-198 16.5,-220 155.5,-220 155.5,-198 16.5,-198"/>
<text text-anchor="start" x="21.5" y="-207.2" font-family="Helvetica,sans-Serif" font-weight="bold" font-size="11.00">scenarios</text>
<text text-anchor="start" x="120.5" y="-206.2" font-family="Helvetica,sans-Serif" font-size="11.00">[table]</text>
<polygon fill="none" stroke="black" points="16.5,-176 16.5,-198 155.5,-198 155.5,-176 16.5,-176"/>
<image xlink:href="../../images/primaryKeys.png" width="11px" height="12px" preserveAspectRatio="xMinYMin meet" x="21.5" y="-193"/>
<text text-anchor="start" x="36.5" y="-184.2" font-family="Helvetica,sans-Serif" font-size="11.00">id</text>
<polygon fill="#ffffff" stroke="transparent" points="16.5,-154 16.5,-176 155.5,-176 155.5,-154 16.5,-154"/>
<polygon fill="none" stroke="black" points="16.5,-154 16.5,-176 155.5,-176 155.5,-154 16.5,-154"/>
<text text-anchor="start" x="36.5" y="-162.2" font-family="Helvetica,sans-Serif" font-size="11.00">name</text>
<polygon fill="#ffffff" stroke="transparent" points="16.5,-132 16.5,-154 155.5,-154 155.5,-132 16.5,-132"/>
<polygon fill="none" stroke="black" points="16.5,-132 16.5,-154 155.5,-154 155.5,-132 16.5,-132"/>
<text text-anchor="start" x="36.5" y="-140.2" font-family="Helvetica,sans-Serif" font-size="11.00">name_etl</text>
<polygon fill="none" stroke="black" points="16.5,-114 16.5,-132 155.5,-132 155.5,-114 16.5,-114"/>
<text text-anchor="start" x="19.5" y="-120.2" font-family="Helvetica,sans-Serif" font-size="11.00">...</text>
<polygon fill="#ffffff" stroke="transparent" points="16.5,-96 16.5,-114 61.5,-114 61.5,-96 16.5,-96"/>
<polygon fill="none" stroke="black" points="16.5,-96 16.5,-114 61.5,-114 61.5,-96 16.5,-96"/>
<text text-anchor="start" x="19.5" y="-102.2" font-family="Helvetica,sans-Serif" font-size="11.00"> &#160;</text>
<polygon fill="#ffffff" stroke="transparent" points="61.5,-96 61.5,-114 117.5,-114 117.5,-96 61.5,-96"/>
<polygon fill="none" stroke="black" points="61.5,-96 61.5,-114 117.5,-114 117.5,-96 61.5,-96"/>
<text text-anchor="start" x="80.5" y="-102.2" font-family="Helvetica,sans-Serif" font-size="11.00">4 rows</text>
<polygon fill="#ffffff" stroke="transparent" points="117.5,-96 117.5,-114 155.5,-114 155.5,-96 117.5,-96"/>
<polygon fill="none" stroke="black" points="117.5,-96 117.5,-114 155.5,-114 155.5,-96 117.5,-96"/>
<text text-anchor="start" x="136.5" y="-102.2" font-family="Helvetica,sans-Serif" font-size="11.00">4 &gt;</text>
</a>
</g>
</g>
<!-- decadal_states&#45;&gt;scenarios -->
<g id="edge3" class="edge">
<title>decadal_states:w&#45;&gt;scenarios:e</title>
<path fill="none" stroke="black" d="M199.34,-329.23C156.61,-309.19 220.06,-187 156.5,-187"/>
<polygon fill="black" stroke="black" points="205.65,-330.47 212.81,-335.53 209.57,-331.23 213.5,-332 213.5,-332 213.5,-332 209.57,-331.23 214.19,-328.47 205.65,-330.47 205.65,-330.47"/>
<ellipse fill="none" stroke="black" cx="202.51" cy="-329.85" rx="3.2" ry="3.2"/>
</g>
</g>
</svg>
