<?xml version="1.0" encoding="UTF-8" standalone="no"?>
<!DOCTYPE svg PUBLIC "-//W3C//DTD SVG 1.1//EN"
 "http://www.w3.org/Graphics/SVG/1.1/DTD/svg11.dtd">
<!-- Generated by graphviz version 2.50.0 (20211204.2007)
 -->
<!-- Title: twoDegreesRelationshipsDiagram Pages: 1 -->
<svg width="694pt" height="361pt"
 viewBox="0.00 0.00 694.00 361.00" xmlns="http://www.w3.org/2000/svg" xmlns:xlink="http://www.w3.org/1999/xlink">
<g id="graph0" class="graph" transform="scale(1 1) rotate(0) translate(4 357)">
<title>twoDegreesRelationshipsDiagram</title>
<polygon fill="#ffffff" stroke="transparent" points="-4,4 -4,-357 690,-357 690,4 -4,4"/>
<text text-anchor="middle" x="72.5" y="-7.2" font-family="Helvetica,sans-Serif" font-size="11.00">Generated by SchemaSpy</text>
<!-- folders -->
<g id="node1" class="node">
<title>folders</title>
<g id="a_node1"><a xlink:href="../../tables/folders.html" xlink:title="folders" target="_top">
<polygon fill="#ffffff" stroke="transparent" points="302,-116 302,-270 476,-270 476,-116 302,-116"/>
<polygon fill="#f5f5f5" stroke="transparent" points="304,-246 304,-268 474,-268 474,-246 304,-246"/>
<polygon fill="none" stroke="black" points="304,-246 304,-268 474,-268 474,-246 304,-246"/>
<text text-anchor="start" x="309" y="-255.2" font-family="Helvetica,sans-Serif" font-weight="bold" font-size="11.00">folders</text>
<text text-anchor="start" x="439" y="-254.2" font-family="Helvetica,sans-Serif" font-size="11.00">[table]</text>
<polygon fill="none" stroke="black" points="304,-224 304,-246 389,-246 389,-224 304,-224"/>
<image xlink:href="../../images/primaryKeys.png" width="11px" height="12px" preserveAspectRatio="xMinYMin meet" x="309" y="-241"/>
<text text-anchor="start" x="324" y="-232.2" font-family="Helvetica,sans-Serif" font-size="11.00">id</text>
<polygon fill="none" stroke="black" points="389,-224 389,-246 474,-246 474,-224 389,-224"/>
<text text-anchor="start" x="392" y="-232.2" font-family="Helvetica,sans-Serif" font-size="11.00">serial[10]</text>
<polygon fill="#ffffff" stroke="transparent" points="304,-202 304,-224 389,-224 389,-202 304,-202"/>
<polygon fill="none" stroke="black" points="304,-202 304,-224 389,-224 389,-202 304,-202"/>
<image xlink:href="../../images/foreignKeys.png" width="11px" height="12px" preserveAspectRatio="xMinYMin meet" x="309" y="-219"/>
<text text-anchor="start" x="324" y="-210.2" font-family="Helvetica,sans-Serif" font-size="11.00">group_id</text>
<polygon fill="none" stroke="black" points="389,-202 389,-224 474,-224 474,-202 389,-202"/>
<text text-anchor="start" x="392" y="-210.2" font-family="Helvetica,sans-Serif" font-size="11.00">int4[10]</text>
<polygon fill="#ffffff" stroke="transparent" points="304,-180 304,-202 389,-202 389,-180 304,-180"/>
<polygon fill="none" stroke="black" points="304,-180 304,-202 389,-202 389,-180 304,-180"/>
<text text-anchor="start" x="324" y="-188.2" font-family="Helvetica,sans-Serif" font-size="11.00">name</text>
<polygon fill="none" stroke="black" points="389,-180 389,-202 474,-202 474,-180 389,-180"/>
<text text-anchor="start" x="392" y="-188.2" font-family="Helvetica,sans-Serif" font-size="11.00">varchar[256]</text>
<polygon fill="none" stroke="black" points="304,-158 304,-180 389,-180 389,-158 304,-158"/>
<text text-anchor="start" x="324" y="-166.2" font-family="Helvetica,sans-Serif" font-size="11.00">created_at</text>
<polygon fill="none" stroke="black" points="389,-158 389,-180 474,-180 474,-158 389,-158"/>
<text text-anchor="start" x="392" y="-166.2" font-family="Helvetica,sans-Serif" font-size="11.00">timestamp[29,6]</text>
<polygon fill="none" stroke="black" points="304,-136 304,-158 389,-158 389,-136 304,-136"/>
<text text-anchor="start" x="324" y="-144.2" font-family="Helvetica,sans-Serif" font-size="11.00">updated_at</text>
<polygon fill="none" stroke="black" points="389,-136 389,-158 474,-158 474,-136 389,-136"/>
<text text-anchor="start" x="392" y="-144.2" font-family="Helvetica,sans-Serif" font-size="11.00">timestamp[29,6]</text>
<polygon fill="#ffffff" stroke="transparent" points="304,-118 304,-136 331,-136 331,-118 304,-118"/>
<polygon fill="none" stroke="black" points="304,-118 304,-136 331,-136 331,-118 304,-118"/>
<text text-anchor="start" x="307" y="-124.2" font-family="Helvetica,sans-Serif" font-size="11.00">&lt; 1</text>
<polygon fill="#ffffff" stroke="transparent" points="331,-118 331,-136 389,-136 389,-118 331,-118"/>
<polygon fill="none" stroke="black" points="331,-118 331,-136 389,-136 389,-118 331,-118"/>
<text text-anchor="start" x="340" y="-124.2" font-family="Helvetica,sans-Serif" font-size="11.00">311 rows</text>
<polygon fill="#ffffff" stroke="transparent" points="389,-118 389,-136 474,-136 474,-118 389,-118"/>
<polygon fill="none" stroke="black" points="389,-118 389,-136 474,-136 474,-118 389,-118"/>
<text text-anchor="start" x="455" y="-124.2" font-family="Helvetica,sans-Serif" font-size="11.00">1 &gt;</text>
<polygon fill="none" stroke="black" stroke-width="2" points="303,-117 303,-269 475,-269 475,-117 303,-117"/>
</a>
</g>
</g>
<!-- groups -->
<g id="node2" class="node">
<title>groups</title>
<g id="a_node2"><a xlink:href="../../tables/groups.html" xlink:title="groups" target="_top">
<polygon fill="#ffffff" stroke="transparent" points="157,-174 157,-298 253,-298 253,-174 157,-174"/>
<polygon fill="#f5f5f5" stroke="transparent" points="157,-276 157,-298 253,-298 253,-276 157,-276"/>
<polygon fill="none" stroke="black" points="157,-276 157,-298 253,-298 253,-276 157,-276"/>
<text text-anchor="start" x="162" y="-285.2" font-family="Helvetica,sans-Serif" font-weight="bold" font-size="11.00">groups</text>
<text text-anchor="start" x="218" y="-284.2" font-family="Helvetica,sans-Serif" font-size="11.00">[table]</text>
<polygon fill="none" stroke="black" points="157,-254 157,-276 253,-276 253,-254 157,-254"/>
<image xlink:href="../../images/primaryKeys.png" width="11px" height="12px" preserveAspectRatio="xMinYMin meet" x="162" y="-271"/>
<text text-anchor="start" x="179" y="-262.2" font-family="Helvetica,sans-Serif" font-size="11.00">id</text>
<polygon fill="#ffffff" stroke="transparent" points="157,-232 157,-254 253,-254 253,-232 157,-232"/>
<polygon fill="none" stroke="black" points="157,-232 157,-254 253,-254 253,-232 157,-232"/>
<image xlink:href="../../images/foreignKeys.png" width="11px" height="12px" preserveAspectRatio="xMinYMin meet" x="162" y="-249"/>
<text text-anchor="start" x="179" y="-240.2" font-family="Helvetica,sans-Serif" font-size="11.00">customer_id</text>
<polygon fill="#ffffff" stroke="transparent" points="157,-210 157,-232 253,-232 253,-210 157,-210"/>
<polygon fill="none" stroke="black" points="157,-210 157,-232 253,-232 253,-210 157,-210"/>
<text text-anchor="start" x="179" y="-218.2" font-family="Helvetica,sans-Serif" font-size="11.00">name</text>
<polygon fill="none" stroke="black" points="157,-192 157,-210 253,-210 253,-192 157,-192"/>
<text text-anchor="start" x="160" y="-198.2" font-family="Helvetica,sans-Serif" font-size="11.00">...</text>
<polygon fill="#ffffff" stroke="transparent" points="157,-174 157,-192 179,-192 179,-174 157,-174"/>
<polygon fill="none" stroke="black" points="157,-174 157,-192 179,-192 179,-174 157,-174"/>
<text text-anchor="start" x="160" y="-180.2" font-family="Helvetica,sans-Serif" font-size="11.00">&lt; 1</text>
<polygon fill="#ffffff" stroke="transparent" points="179,-174 179,-192 231,-192 231,-174 179,-174"/>
<polygon fill="none" stroke="black" points="179,-174 179,-192 231,-192 231,-174 179,-174"/>
<text text-anchor="start" x="182" y="-180.2" font-family="Helvetica,sans-Serif" font-size="11.00">150 rows</text>
<polygon fill="#ffffff" stroke="transparent" points="231,-174 231,-192 253,-192 253,-174 231,-174"/>
<polygon fill="none" stroke="black" points="231,-174 231,-192 253,-192 253,-174 231,-174"/>
<text text-anchor="start" x="234" y="-180.2" font-family="Helvetica,sans-Serif" font-size="11.00">2 &gt;</text>
</a>
</g>
</g>
<!-- folders&#45;&gt;groups -->
<g id="edge1" class="edge">
<title>folders:w&#45;&gt;groups:e</title>
<path fill="none" stroke="black" d="M289.41,-217.8C275.06,-230.67 279.8,-265 254,-265"/>
<polygon fill="black" stroke="black" points="295.46,-215.66 304.2,-216.39 299.23,-214.33 303,-213 303,-213 303,-213 299.23,-214.33 301.8,-209.61 295.46,-215.66 295.46,-215.66"/>
<ellipse fill="none" stroke="black" cx="292.44" cy="-216.73" rx="3.2" ry="3.2"/>
</g>
<!-- customers -->
<g id="node6" class="node">
<title>customers</title>
<g id="a_node6"><a xlink:href="../../tables/customers.html" xlink:title="customers" target="_top">
<polygon fill="#ffffff" stroke="transparent" points="8,-216 8,-274 108,-274 108,-216 8,-216"/>
<polygon fill="#f5f5f5" stroke="transparent" points="8,-252 8,-274 108,-274 108,-252 8,-252"/>
<polygon fill="none" stroke="black" points="8,-252 8,-274 108,-274 108,-252 8,-252"/>
<text text-anchor="start" x="13" y="-261.2" font-family="Helvetica,sans-Serif" font-weight="bold" font-size="11.00">customers</text>
<text text-anchor="start" x="73" y="-260.2" font-family="Helvetica,sans-Serif" font-size="11.00">[table]</text>
<polygon fill="none" stroke="black" points="8,-234 8,-252 108,-252 108,-234 8,-234"/>
<text text-anchor="start" x="11" y="-240.2" font-family="Helvetica,sans-Serif" font-size="11.00">...</text>
<polygon fill="#ffffff" stroke="transparent" points="8,-216 8,-234 27,-234 27,-216 8,-216"/>
<polygon fill="none" stroke="black" points="8,-216 8,-234 27,-234 27,-216 8,-216"/>
<text text-anchor="start" x="11" y="-222.2" font-family="Helvetica,sans-Serif" font-size="11.00"> &#160;</text>
<polygon fill="#ffffff" stroke="transparent" points="27,-216 27,-234 82,-234 82,-216 27,-216"/>
<polygon fill="none" stroke="black" points="27,-216 27,-234 82,-234 82,-216 27,-216"/>
<text text-anchor="start" x="33" y="-222.2" font-family="Helvetica,sans-Serif" font-size="11.00">938 rows</text>
<polygon fill="#ffffff" stroke="transparent" points="82,-216 82,-234 108,-234 108,-216 82,-216"/>
<polygon fill="none" stroke="black" points="82,-216 82,-234 108,-234 108,-216 82,-216"/>
<text text-anchor="start" x="89" y="-222.2" font-family="Helvetica,sans-Serif" font-size="11.00">5 &gt;</text>
</a>
</g>
</g>
<!-- groups&#45;&gt;customers -->
<g id="edge5" class="edge">
<title>groups:w&#45;&gt;customers:e</title>
<path fill="none" stroke="black" d="M141.4,-243C130.93,-243 124.01,-243 109,-243"/>
<polygon fill="black" stroke="black" points="148,-243 156,-246.6 152,-243 156,-243 156,-243 156,-243 152,-243 156,-239.4 148,-243 148,-243"/>
<ellipse fill="none" stroke="black" cx="144.8" cy="-243" rx="3.2" ry="3.2"/>
</g>
<!-- folders_investments -->
<g id="node3" class="node">
<title>folders_investments</title>
<g id="a_node3"><a xlink:href="../../tables/folders_investments.html" xlink:title="folders_investments" target="_top">
<polygon fill="#ffffff" stroke="transparent" points="525,-109 525,-193 678,-193 678,-109 525,-109"/>
<polygon fill="#f5f5f5" stroke="transparent" points="525.5,-171 525.5,-193 678.5,-193 678.5,-171 525.5,-171"/>
<polygon fill="none" stroke="black" points="525.5,-171 525.5,-193 678.5,-193 678.5,-171 525.5,-171"/>
<text text-anchor="start" x="530.5" y="-180.2" font-family="Helvetica,sans-Serif" font-weight="bold" font-size="11.00">folders_investments</text>
<text text-anchor="start" x="643.5" y="-179.2" font-family="Helvetica,sans-Serif" font-size="11.00">[table]</text>
<polygon fill="none" stroke="black" points="525.5,-149 525.5,-171 678.5,-171 678.5,-149 525.5,-149"/>
<image xlink:href="../../images/primaryKeys.png" width="11px" height="12px" preserveAspectRatio="xMinYMin meet" x="530.5" y="-166"/>
<text text-anchor="start" x="553.5" y="-157.2" font-family="Helvetica,sans-Serif" font-size="11.00">folder_id</text>
<polygon fill="none" stroke="black" points="525.5,-127 525.5,-149 678.5,-149 678.5,-127 525.5,-127"/>
<image xlink:href="../../images/primaryKeys.png" width="11px" height="12px" preserveAspectRatio="xMinYMin meet" x="530.5" y="-144"/>
<text text-anchor="start" x="553.5" y="-135.2" font-family="Helvetica,sans-Serif" font-size="11.00">investment_id</text>
<polygon fill="#ffffff" stroke="transparent" points="525.5,-109 525.5,-127 575.5,-127 575.5,-109 525.5,-109"/>
<polygon fill="none" stroke="black" points="525.5,-109 525.5,-127 575.5,-127 575.5,-109 525.5,-109"/>
<text text-anchor="start" x="528.5" y="-115.2" font-family="Helvetica,sans-Serif" font-size="11.00">&lt; 2</text>
<polygon fill="#ffffff" stroke="transparent" points="575.5,-109 575.5,-127 650.5,-127 650.5,-109 575.5,-109"/>
<polygon fill="none" stroke="black" points="575.5,-109 575.5,-127 650.5,-127 650.5,-109 575.5,-109"/>
<text text-anchor="start" x="592.5" y="-115.2" font-family="Helvetica,sans-Serif" font-size="11.00">2,911 rows</text>
<polygon fill="#ffffff" stroke="transparent" points="650.5,-109 650.5,-127 678.5,-127 678.5,-109 650.5,-109"/>
<polygon fill="none" stroke="black" points="650.5,-109 650.5,-127 678.5,-127 678.5,-109 650.5,-109"/>
<text text-anchor="start" x="668.5" y="-115.2" font-family="Helvetica,sans-Serif" font-size="11.00"> &#160;</text>
</a>
</g>
</g>
<!-- folders_investments&#45;&gt;folders -->
<g id="edge2" class="edge">
<title>folders_investments:w&#45;&gt;folders:e</title>
<path fill="none" stroke="black" d="M510.65,-164.69C492.18,-181.11 508.85,-235 475,-235"/>
<polygon fill="black" stroke="black" points="516.92,-162.57 525.65,-163.41 520.71,-161.28 524.5,-160 524.5,-160 524.5,-160 520.71,-161.28 523.35,-156.59 516.92,-162.57 516.92,-162.57"/>
<ellipse fill="none" stroke="black" cx="513.89" cy="-163.59" rx="3.2" ry="3.2"/>
</g>
<!-- investments -->
<g id="node4" class="node">
<title>investments</title>
<g id="a_node4"><a xlink:href="../../tables/investments.html" xlink:title="investments" target="_top">
<polygon fill="#ffffff" stroke="transparent" points="334,-37 334,-95 444,-95 444,-37 334,-37"/>
<polygon fill="#f5f5f5" stroke="transparent" points="334,-73 334,-95 444,-95 444,-73 334,-73"/>
<polygon fill="none" stroke="black" points="334,-73 334,-95 444,-95 444,-73 334,-73"/>
<text text-anchor="start" x="339" y="-82.2" font-family="Helvetica,sans-Serif" font-weight="bold" font-size="11.00">investments</text>
<text text-anchor="start" x="409" y="-81.2" font-family="Helvetica,sans-Serif" font-size="11.00">[table]</text>
<polygon fill="none" stroke="black" points="334,-55 334,-73 444,-73 444,-55 334,-55"/>
<text text-anchor="start" x="337" y="-61.2" font-family="Helvetica,sans-Serif" font-size="11.00">...</text>
<polygon fill="#ffffff" stroke="transparent" points="334,-37 334,-55 358,-55 358,-37 334,-37"/>
<polygon fill="none" stroke="black" points="334,-37 334,-55 358,-55 358,-37 334,-37"/>
<text text-anchor="start" x="337" y="-43.2" font-family="Helvetica,sans-Serif" font-size="11.00">&lt; 1</text>
<polygon fill="#ffffff" stroke="transparent" points="358,-37 358,-55 420,-55 420,-37 358,-37"/>
<polygon fill="none" stroke="black" points="358,-37 358,-55 420,-55 420,-37 358,-37"/>
<text text-anchor="start" x="362" y="-43.2" font-family="Helvetica,sans-Serif" font-size="11.00">2,996 rows</text>
<polygon fill="#ffffff" stroke="transparent" points="420,-37 420,-55 444,-55 444,-37 420,-37"/>
<polygon fill="none" stroke="black" points="420,-37 420,-55 444,-55 444,-37 420,-37"/>
<text text-anchor="start" x="425" y="-43.2" font-family="Helvetica,sans-Serif" font-size="11.00">2 &gt;</text>
</a>
</g>
</g>
<!-- folders_investments&#45;&gt;investments -->
<g id="edge3" class="edge">
<title>folders_investments:w&#45;&gt;investments:e</title>
<path fill="none" stroke="black" d="M510.01,-135.19C479.33,-121.67 487.61,-64 445,-64"/>
<polygon fill="black" stroke="black" points="516.65,-136.48 523.81,-141.53 520.57,-137.24 524.5,-138 524.5,-138 524.5,-138 520.57,-137.24 525.19,-134.47 516.65,-136.48 516.65,-136.48"/>
<ellipse fill="none" stroke="black" cx="513.5" cy="-135.87" rx="3.2" ry="3.2"/>
</g>
<!-- group_value_types -->
<g id="node5" class="node">
<title>group_value_types</title>
<g id="a_node5"><a xlink:href="../../tables/group_value_types.html" xlink:title="group_value_types" target="_top">
<polygon fill="#ffffff" stroke="transparent" points="316,-291 316,-349 462,-349 462,-291 316,-291"/>
<polygon fill="#f5f5f5" stroke="transparent" points="316,-327 316,-349 462,-349 462,-327 316,-327"/>
<polygon fill="none" stroke="black" points="316,-327 316,-349 462,-349 462,-327 316,-327"/>
<text text-anchor="start" x="321" y="-336.2" font-family="Helvetica,sans-Serif" font-weight="bold" font-size="11.00">group_value_types</text>
<text text-anchor="start" x="427" y="-335.2" font-family="Helvetica,sans-Serif" font-size="11.00">[table]</text>
<polygon fill="none" stroke="black" points="316,-309 316,-327 462,-327 462,-309 316,-309"/>
<text text-anchor="start" x="319" y="-315.2" font-family="Helvetica,sans-Serif" font-size="11.00">...</text>
<polygon fill="#ffffff" stroke="transparent" points="316,-291 316,-309 373,-309 373,-291 316,-291"/>
<polygon fill="none" stroke="black" points="316,-291 316,-309 373,-309 373,-291 316,-291"/>
<text text-anchor="start" x="319" y="-297.2" font-family="Helvetica,sans-Serif" font-size="11.00">&lt; 2</text>
<polygon fill="#ffffff" stroke="transparent" points="373,-291 373,-309 431,-309 431,-291 373,-291"/>
<polygon fill="none" stroke="black" points="373,-291 373,-309 431,-309 431,-291 373,-291"/>
<text text-anchor="start" x="394" y="-297.2" font-family="Helvetica,sans-Serif" font-size="11.00">0 rows</text>
<polygon fill="#ffffff" stroke="transparent" points="431,-291 431,-309 462,-309 462,-291 431,-291"/>
<polygon fill="none" stroke="black" points="431,-291 431,-309 462,-309 462,-291 431,-291"/>
<text text-anchor="start" x="452" y="-297.2" font-family="Helvetica,sans-Serif" font-size="11.00"> &#160;</text>
</a>
</g>
</g>
<!-- group_value_types&#45;&gt;groups -->
<g id="edge4" class="edge">
<title>group_value_types:w&#45;&gt;groups:e</title>
<path fill="none" stroke="black" d="M300.96,-314.36C281.36,-302.38 284.16,-265 254,-265"/>
<polygon fill="black" stroke="black" points="307.26,-315.99 314.1,-321.48 311.13,-317 315,-318 315,-318 315,-318 311.13,-317 315.9,-314.52 307.26,-315.99 307.26,-315.99"/>
<ellipse fill="none" stroke="black" cx="304.16" cy="-315.19" rx="3.2" ry="3.2"/>
</g>
</g>
</svg>
