<?xml version="1.0" encoding="UTF-8" standalone="no"?>
<!DOCTYPE svg PUBLIC "-//W3C//DTD SVG 1.1//EN"
 "http://www.w3.org/Graphics/SVG/1.1/DTD/svg11.dtd">
<!-- Generated by graphviz version 2.50.0 (20211204.2007)
 -->
<!-- Title: twoDegreesRelationshipsDiagram Pages: 1 -->
<svg width="538pt" height="296pt"
 viewBox="0.00 0.00 538.00 296.00" xmlns="http://www.w3.org/2000/svg" xmlns:xlink="http://www.w3.org/1999/xlink">
<g id="graph0" class="graph" transform="scale(1 1) rotate(0) translate(4 292)">
<title>twoDegreesRelationshipsDiagram</title>
<polygon fill="#ffffff" stroke="transparent" points="-4,4 -4,-292 534,-292 534,4 -4,4"/>
<text text-anchor="middle" x="72.5" y="-7.2" font-family="Helvetica,sans-Serif" font-size="11.00">Generated by SchemaSpy</text>
<!-- assets -->
<g id="node1" class="node">
<title>assets</title>
<g id="a_node1"><a xlink:href="../../tables/assets.html" xlink:title="assets" target="_top">
<polygon fill="#ffffff" stroke="transparent" points="375,-224 375,-282 486,-282 486,-224 375,-224"/>
<polygon fill="#f5f5f5" stroke="transparent" points="375.5,-260 375.5,-282 486.5,-282 486.5,-260 375.5,-260"/>
<polygon fill="none" stroke="black" points="375.5,-260 375.5,-282 486.5,-282 486.5,-260 375.5,-260"/>
<text text-anchor="start" x="380.5" y="-269.2" font-family="Helvetica,sans-Serif" font-weight="bold" font-size="11.00">assets</text>
<text text-anchor="start" x="451.5" y="-268.2" font-family="Helvetica,sans-Serif" font-size="11.00">[table]</text>
<polygon fill="none" stroke="black" points="375.5,-242 375.5,-260 486.5,-260 486.5,-242 375.5,-242"/>
<text text-anchor="start" x="378.5" y="-248.2" font-family="Helvetica,sans-Serif" font-size="11.00">...</text>
<polygon fill="#ffffff" stroke="transparent" points="375.5,-224 375.5,-242 397.5,-242 397.5,-224 375.5,-224"/>
<polygon fill="none" stroke="black" points="375.5,-224 375.5,-242 397.5,-242 397.5,-224 375.5,-224"/>
<text text-anchor="start" x="378.5" y="-230.2" font-family="Helvetica,sans-Serif" font-size="11.00">&lt; 3</text>
<polygon fill="#ffffff" stroke="transparent" points="397.5,-224 397.5,-242 464.5,-242 464.5,-224 397.5,-224"/>
<polygon fill="none" stroke="black" points="397.5,-224 397.5,-242 464.5,-242 464.5,-224 397.5,-224"/>
<text text-anchor="start" x="400.5" y="-230.2" font-family="Helvetica,sans-Serif" font-size="11.00">78,452 rows</text>
<polygon fill="#ffffff" stroke="transparent" points="464.5,-224 464.5,-242 486.5,-242 486.5,-224 464.5,-224"/>
<polygon fill="none" stroke="black" points="464.5,-224 464.5,-242 486.5,-242 486.5,-224 464.5,-224"/>
<text text-anchor="start" x="467.5" y="-230.2" font-family="Helvetica,sans-Serif" font-size="11.00">4 &gt;</text>
</a>
</g>
</g>
<!-- investments -->
<g id="node2" class="node">
<title>investments</title>
<g id="a_node2"><a xlink:href="../../tables/investments.html" xlink:title="investments" target="_top">
<polygon fill="#ffffff" stroke="transparent" points="153,-182 153,-284 290,-284 290,-182 153,-182"/>
<polygon fill="#f5f5f5" stroke="transparent" points="153.5,-262 153.5,-284 290.5,-284 290.5,-262 153.5,-262"/>
<polygon fill="none" stroke="black" points="153.5,-262 153.5,-284 290.5,-284 290.5,-262 153.5,-262"/>
<text text-anchor="start" x="158.5" y="-271.2" font-family="Helvetica,sans-Serif" font-weight="bold" font-size="11.00">investments</text>
<text text-anchor="start" x="255.5" y="-270.2" font-family="Helvetica,sans-Serif" font-size="11.00">[table]</text>
<polygon fill="none" stroke="black" points="153.5,-240 153.5,-262 290.5,-262 290.5,-240 153.5,-240"/>
<image xlink:href="../../images/primaryKeys.png" width="11px" height="12px" preserveAspectRatio="xMinYMin meet" x="158.5" y="-257"/>
<text text-anchor="start" x="173.5" y="-248.2" font-family="Helvetica,sans-Serif" font-size="11.00">id</text>
<polygon fill="none" stroke="black" points="153.5,-218 153.5,-240 290.5,-240 290.5,-218 153.5,-218"/>
<image xlink:href="../../images/foreignKeys.png" width="11px" height="12px" preserveAspectRatio="xMinYMin meet" x="158.5" y="-235"/>
<text text-anchor="start" x="173.5" y="-226.2" font-family="Helvetica,sans-Serif" font-size="11.00">sector_id</text>
<polygon fill="none" stroke="black" points="153.5,-200 153.5,-218 290.5,-218 290.5,-200 153.5,-200"/>
<text text-anchor="start" x="156.5" y="-206.2" font-family="Helvetica,sans-Serif" font-size="11.00">...</text>
<polygon fill="#ffffff" stroke="transparent" points="153.5,-182 153.5,-200 191.5,-200 191.5,-182 153.5,-182"/>
<polygon fill="none" stroke="black" points="153.5,-182 153.5,-200 191.5,-200 191.5,-182 153.5,-182"/>
<text text-anchor="start" x="156.5" y="-188.2" font-family="Helvetica,sans-Serif" font-size="11.00">&lt; 1</text>
<polygon fill="#ffffff" stroke="transparent" points="191.5,-182 191.5,-200 260.5,-200 260.5,-182 191.5,-182"/>
<polygon fill="none" stroke="black" points="191.5,-182 191.5,-200 260.5,-200 260.5,-182 191.5,-182"/>
<text text-anchor="start" x="202.5" y="-188.2" font-family="Helvetica,sans-Serif" font-size="11.00">2,996 rows</text>
<polygon fill="#ffffff" stroke="transparent" points="260.5,-182 260.5,-200 290.5,-200 290.5,-182 260.5,-182"/>
<polygon fill="none" stroke="black" points="260.5,-182 260.5,-200 290.5,-200 290.5,-182 260.5,-182"/>
<text text-anchor="start" x="271.5" y="-188.2" font-family="Helvetica,sans-Serif" font-size="11.00">2 &gt;</text>
</a>
</g>
</g>
<!-- assets&#45;&gt;investments -->
<g id="edge1" class="edge">
<title>assets:w&#45;&gt;investments:e</title>
<path fill="none" stroke="black" d="M360.07,-251C334.37,-251 323.06,-251 291.5,-251"/>
<polygon fill="black" stroke="black" points="366.5,-251 374.5,-254.6 370.5,-251 374.5,-251 374.5,-251 374.5,-251 370.5,-251 374.5,-247.4 366.5,-251 366.5,-251"/>
<ellipse fill="none" stroke="black" cx="363.3" cy="-251" rx="3.2" ry="3.2"/>
</g>
<!-- sectors -->
<g id="node6" class="node">
<title>sectors</title>
<g id="a_node6"><a xlink:href="../../tables/sectors.html" xlink:title="sectors" target="_top">
<polygon fill="#ffffff" stroke="transparent" points="14,-202 14,-260 98,-260 98,-202 14,-202"/>
<polygon fill="#f5f5f5" stroke="transparent" points="14,-238 14,-260 98,-260 98,-238 14,-238"/>
<polygon fill="none" stroke="black" points="14,-238 14,-260 98,-260 98,-238 14,-238"/>
<text text-anchor="start" x="19" y="-247.2" font-family="Helvetica,sans-Serif" font-weight="bold" font-size="11.00">sectors</text>
<text text-anchor="start" x="63" y="-246.2" font-family="Helvetica,sans-Serif" font-size="11.00">[table]</text>
<polygon fill="none" stroke="black" points="14,-220 14,-238 98,-238 98,-220 14,-220"/>
<text text-anchor="start" x="17" y="-226.2" font-family="Helvetica,sans-Serif" font-size="11.00">...</text>
<polygon fill="#ffffff" stroke="transparent" points="14,-202 14,-220 28,-220 28,-202 14,-202"/>
<polygon fill="none" stroke="black" points="14,-202 14,-220 28,-220 28,-202 14,-202"/>
<text text-anchor="start" x="17" y="-208.2" font-family="Helvetica,sans-Serif" font-size="11.00"> &#160;</text>
<polygon fill="#ffffff" stroke="transparent" points="28,-202 28,-220 75,-220 75,-202 28,-202"/>
<polygon fill="none" stroke="black" points="28,-202 28,-220 75,-220 75,-202 28,-202"/>
<text text-anchor="start" x="32" y="-208.2" font-family="Helvetica,sans-Serif" font-size="11.00">12 rows</text>
<polygon fill="#ffffff" stroke="transparent" points="75,-202 75,-220 98,-220 98,-202 75,-202"/>
<polygon fill="none" stroke="black" points="75,-202 75,-220 98,-220 98,-202 75,-202"/>
<text text-anchor="start" x="79" y="-208.2" font-family="Helvetica,sans-Serif" font-size="11.00">1 &gt;</text>
</a>
</g>
</g>
<!-- investments&#45;&gt;sectors -->
<g id="edge5" class="edge">
<title>investments:w&#45;&gt;sectors:e</title>
<path fill="none" stroke="black" d="M137.86,-229C124.8,-229 117.02,-229 99,-229"/>
<polygon fill="black" stroke="black" points="144.5,-229 152.5,-232.6 148.5,-229 152.5,-229 152.5,-229 152.5,-229 148.5,-229 152.5,-225.4 144.5,-229 144.5,-229"/>
<ellipse fill="none" stroke="black" cx="141.3" cy="-229" rx="3.2" ry="3.2"/>
</g>
<!-- folders -->
<g id="node3" class="node">
<title>folders</title>
<g id="a_node3"><a xlink:href="../../tables/folders.html" xlink:title="folders" target="_top">
<polygon fill="#ffffff" stroke="transparent" points="173.5,-37 173.5,-161 269.5,-161 269.5,-37 173.5,-37"/>
<polygon fill="#f5f5f5" stroke="transparent" points="173.5,-139 173.5,-161 269.5,-161 269.5,-139 173.5,-139"/>
<polygon fill="none" stroke="black" points="173.5,-139 173.5,-161 269.5,-161 269.5,-139 173.5,-139"/>
<text text-anchor="start" x="178.5" y="-148.2" font-family="Helvetica,sans-Serif" font-weight="bold" font-size="11.00">folders</text>
<text text-anchor="start" x="234.5" y="-147.2" font-family="Helvetica,sans-Serif" font-size="11.00">[table]</text>
<polygon fill="none" stroke="black" points="173.5,-117 173.5,-139 269.5,-139 269.5,-117 173.5,-117"/>
<image xlink:href="../../images/primaryKeys.png" width="11px" height="12px" preserveAspectRatio="xMinYMin meet" x="178.5" y="-134"/>
<text text-anchor="start" x="199.5" y="-125.2" font-family="Helvetica,sans-Serif" font-size="11.00">id</text>
<polygon fill="#ffffff" stroke="transparent" points="173.5,-95 173.5,-117 269.5,-117 269.5,-95 173.5,-95"/>
<polygon fill="none" stroke="black" points="173.5,-95 173.5,-117 269.5,-117 269.5,-95 173.5,-95"/>
<image xlink:href="../../images/foreignKeys.png" width="11px" height="12px" preserveAspectRatio="xMinYMin meet" x="178.5" y="-112"/>
<text text-anchor="start" x="199.5" y="-103.2" font-family="Helvetica,sans-Serif" font-size="11.00">group_id</text>
<polygon fill="#ffffff" stroke="transparent" points="173.5,-73 173.5,-95 269.5,-95 269.5,-73 173.5,-73"/>
<polygon fill="none" stroke="black" points="173.5,-73 173.5,-95 269.5,-95 269.5,-73 173.5,-73"/>
<text text-anchor="start" x="199.5" y="-81.2" font-family="Helvetica,sans-Serif" font-size="11.00">name</text>
<polygon fill="none" stroke="black" points="173.5,-55 173.5,-73 269.5,-73 269.5,-55 173.5,-55"/>
<text text-anchor="start" x="176.5" y="-61.2" font-family="Helvetica,sans-Serif" font-size="11.00">...</text>
<polygon fill="#ffffff" stroke="transparent" points="173.5,-37 173.5,-55 195.5,-55 195.5,-37 173.5,-37"/>
<polygon fill="none" stroke="black" points="173.5,-37 173.5,-55 195.5,-55 195.5,-37 173.5,-37"/>
<text text-anchor="start" x="176.5" y="-43.2" font-family="Helvetica,sans-Serif" font-size="11.00">&lt; 1</text>
<polygon fill="#ffffff" stroke="transparent" points="195.5,-37 195.5,-55 247.5,-55 247.5,-37 195.5,-37"/>
<polygon fill="none" stroke="black" points="195.5,-37 195.5,-55 247.5,-55 247.5,-37 195.5,-37"/>
<text text-anchor="start" x="198.5" y="-43.2" font-family="Helvetica,sans-Serif" font-size="11.00">311 rows</text>
<polygon fill="#ffffff" stroke="transparent" points="247.5,-37 247.5,-55 269.5,-55 269.5,-37 247.5,-37"/>
<polygon fill="none" stroke="black" points="247.5,-37 247.5,-55 269.5,-55 269.5,-37 247.5,-37"/>
<text text-anchor="start" x="250.5" y="-43.2" font-family="Helvetica,sans-Serif" font-size="11.00">1 &gt;</text>
</a>
</g>
</g>
<!-- groups -->
<g id="node4" class="node">
<title>groups</title>
<g id="a_node4"><a xlink:href="../../tables/groups.html" xlink:title="groups" target="_top">
<polygon fill="#ffffff" stroke="transparent" points="8,-79 8,-137 104,-137 104,-79 8,-79"/>
<polygon fill="#f5f5f5" stroke="transparent" points="8,-115 8,-137 104,-137 104,-115 8,-115"/>
<polygon fill="none" stroke="black" points="8,-115 8,-137 104,-137 104,-115 8,-115"/>
<text text-anchor="start" x="13" y="-124.2" font-family="Helvetica,sans-Serif" font-weight="bold" font-size="11.00">groups</text>
<text text-anchor="start" x="69" y="-123.2" font-family="Helvetica,sans-Serif" font-size="11.00">[table]</text>
<polygon fill="none" stroke="black" points="8,-97 8,-115 104,-115 104,-97 8,-97"/>
<text text-anchor="start" x="11" y="-103.2" font-family="Helvetica,sans-Serif" font-size="11.00">...</text>
<polygon fill="#ffffff" stroke="transparent" points="8,-79 8,-97 30,-97 30,-79 8,-79"/>
<polygon fill="none" stroke="black" points="8,-79 8,-97 30,-97 30,-79 8,-79"/>
<text text-anchor="start" x="11" y="-85.2" font-family="Helvetica,sans-Serif" font-size="11.00">&lt; 1</text>
<polygon fill="#ffffff" stroke="transparent" points="30,-79 30,-97 82,-97 82,-79 30,-79"/>
<polygon fill="none" stroke="black" points="30,-79 30,-97 82,-97 82,-79 30,-79"/>
<text text-anchor="start" x="33" y="-85.2" font-family="Helvetica,sans-Serif" font-size="11.00">150 rows</text>
<polygon fill="#ffffff" stroke="transparent" points="82,-79 82,-97 104,-97 104,-79 82,-79"/>
<polygon fill="none" stroke="black" points="82,-79 82,-97 104,-97 104,-79 82,-79"/>
<text text-anchor="start" x="85" y="-85.2" font-family="Helvetica,sans-Serif" font-size="11.00">2 &gt;</text>
</a>
</g>
</g>
<!-- folders&#45;&gt;groups -->
<g id="edge2" class="edge">
<title>folders:w&#45;&gt;groups:e</title>
<path fill="none" stroke="black" d="M157.97,-106C138.99,-106 129.49,-106 105,-106"/>
<polygon fill="black" stroke="black" points="164.5,-106 172.5,-109.6 168.5,-106 172.5,-106 172.5,-106 172.5,-106 168.5,-106 172.5,-102.4 164.5,-106 164.5,-106"/>
<ellipse fill="none" stroke="black" cx="161.3" cy="-106" rx="3.2" ry="3.2"/>
</g>
<!-- folders_investments -->
<g id="node5" class="node">
<title>folders_investments</title>
<g id="a_node5"><a xlink:href="../../tables/folders_investments.html" xlink:title="folders_investments" target="_top">
<polygon fill="#ffffff" stroke="transparent" points="339,-95 339,-183 522,-183 522,-95 339,-95"/>
<polygon fill="#f5f5f5" stroke="transparent" points="341.5,-159 341.5,-181 520.5,-181 520.5,-159 341.5,-159"/>
<polygon fill="none" stroke="black" points="341.5,-159 341.5,-181 520.5,-181 520.5,-159 341.5,-159"/>
<text text-anchor="start" x="346.5" y="-168.2" font-family="Helvetica,sans-Serif" font-weight="bold" font-size="11.00">folders_investments</text>
<text text-anchor="start" x="485.5" y="-167.2" font-family="Helvetica,sans-Serif" font-size="11.00">[table]</text>
<polygon fill="none" stroke="black" points="341.5,-137 341.5,-159 478.5,-159 478.5,-137 341.5,-137"/>
<image xlink:href="../../images/primaryKeys.png" width="11px" height="12px" preserveAspectRatio="xMinYMin meet" x="346.5" y="-154"/>
<text text-anchor="start" x="361.5" y="-145.2" font-family="Helvetica,sans-Serif" font-size="11.00">folder_id</text>
<polygon fill="none" stroke="black" points="478.5,-137 478.5,-159 520.5,-159 520.5,-137 478.5,-137"/>
<text text-anchor="start" x="481.5" y="-145.2" font-family="Helvetica,sans-Serif" font-size="11.00">int4[10]</text>
<polygon fill="none" stroke="black" points="341.5,-115 341.5,-137 478.5,-137 478.5,-115 341.5,-115"/>
<image xlink:href="../../images/primaryKeys.png" width="11px" height="12px" preserveAspectRatio="xMinYMin meet" x="346.5" y="-132"/>
<text text-anchor="start" x="361.5" y="-123.2" font-family="Helvetica,sans-Serif" font-size="11.00">investment_id</text>
<polygon fill="none" stroke="black" points="478.5,-115 478.5,-137 520.5,-137 520.5,-115 478.5,-115"/>
<text text-anchor="start" x="481.5" y="-123.2" font-family="Helvetica,sans-Serif" font-size="11.00">int4[10]</text>
<polygon fill="#ffffff" stroke="transparent" points="341.5,-97 341.5,-115 390.5,-115 390.5,-97 341.5,-97"/>
<polygon fill="none" stroke="black" points="341.5,-97 341.5,-115 390.5,-115 390.5,-97 341.5,-97"/>
<text text-anchor="start" x="344.5" y="-103.2" font-family="Helvetica,sans-Serif" font-size="11.00">&lt; 2</text>
<polygon fill="#ffffff" stroke="transparent" points="390.5,-97 390.5,-115 478.5,-115 478.5,-97 390.5,-97"/>
<polygon fill="none" stroke="black" points="390.5,-97 390.5,-115 478.5,-115 478.5,-97 390.5,-97"/>
<text text-anchor="start" x="420.5" y="-103.2" font-family="Helvetica,sans-Serif" font-size="11.00">2,911 rows</text>
<polygon fill="#ffffff" stroke="transparent" points="478.5,-97 478.5,-115 520.5,-115 520.5,-97 478.5,-97"/>
<polygon fill="none" stroke="black" points="478.5,-97 478.5,-115 520.5,-115 520.5,-97 478.5,-97"/>
<text text-anchor="start" x="501.5" y="-103.2" font-family="Helvetica,sans-Serif" font-size="11.00">0 &gt;</text>
<polygon fill="none" stroke="black" stroke-width="2" points="340,-96 340,-182 521,-182 521,-96 340,-96"/>
</a>
</g>
</g>
<!-- folders_investments&#45;&gt;investments -->
<g id="edge4" class="edge">
<title>folders_investments:w&#45;&gt;investments:e</title>
<path fill="none" stroke="black" d="M326.07,-129.61C293.78,-150.1 345.11,-251 291.5,-251"/>
<polygon fill="black" stroke="black" points="332.74,-127.94 341.37,-129.49 336.62,-126.97 340.5,-126 340.5,-126 340.5,-126 336.62,-126.97 339.63,-122.51 332.74,-127.94 332.74,-127.94"/>
<ellipse fill="none" stroke="black" cx="329.63" cy="-128.72" rx="3.2" ry="3.2"/>
</g>
<!-- folders_investments&#45;&gt;folders -->
<g id="edge3" class="edge">
<title>folders_investments:w&#45;&gt;folders:e</title>
<path fill="none" stroke="black" d="M325.94,-146.43C305.53,-141.72 297.29,-128 270.5,-128"/>
<polygon fill="black" stroke="black" points="332.55,-147.14 340.11,-151.58 336.52,-147.57 340.5,-148 340.5,-148 340.5,-148 336.52,-147.57 340.89,-144.42 332.55,-147.14 332.55,-147.14"/>
<ellipse fill="none" stroke="black" cx="329.36" cy="-146.8" rx="3.2" ry="3.2"/>
</g>
</g>
</svg>
