<?xml version="1.0" encoding="UTF-8" standalone="no"?>
<!DOCTYPE svg PUBLIC "-//W3C//DTD SVG 1.1//EN"
 "http://www.w3.org/Graphics/SVG/1.1/DTD/svg11.dtd">
<!-- Generated by graphviz version 2.50.0 (20211204.2007)
 -->
<!-- Title: oneDegreeRelationshipsDiagram Pages: 1 -->
<svg width="545pt" height="203pt"
 viewBox="0.00 0.00 545.00 203.00" xmlns="http://www.w3.org/2000/svg" xmlns:xlink="http://www.w3.org/1999/xlink">
<g id="graph0" class="graph" transform="scale(1 1) rotate(0) translate(4 199)">
<title>oneDegreeRelationshipsDiagram</title>
<polygon fill="#ffffff" stroke="transparent" points="-4,4 -4,-199 541,-199 541,4 -4,4"/>
<text text-anchor="middle" x="72.5" y="-7.2" font-family="Helvetica,sans-Serif" font-size="11.00">Generated by SchemaSpy</text>
<!-- folders -->
<g id="node1" class="node">
<title>folders</title>
<g id="a_node1"><a xlink:href="../../tables/folders.html" xlink:title="folders" target="_top">
<polygon fill="#ffffff" stroke="transparent" points="153,-37 153,-191 327,-191 327,-37 153,-37"/>
<polygon fill="#f5f5f5" stroke="transparent" points="155,-167 155,-189 325,-189 325,-167 155,-167"/>
<polygon fill="none" stroke="black" points="155,-167 155,-189 325,-189 325,-167 155,-167"/>
<text text-anchor="start" x="160" y="-176.2" font-family="Helvetica,sans-Serif" font-weight="bold" font-size="11.00">folders</text>
<text text-anchor="start" x="290" y="-175.2" font-family="Helvetica,sans-Serif" font-size="11.00">[table]</text>
<polygon fill="none" stroke="black" points="155,-145 155,-167 240,-167 240,-145 155,-145"/>
<image xlink:href="../../images/primaryKeys.png" width="11px" height="12px" preserveAspectRatio="xMinYMin meet" x="160" y="-162"/>
<text text-anchor="start" x="175" y="-153.2" font-family="Helvetica,sans-Serif" font-size="11.00">id</text>
<polygon fill="none" stroke="black" points="240,-145 240,-167 325,-167 325,-145 240,-145"/>
<text text-anchor="start" x="243" y="-153.2" font-family="Helvetica,sans-Serif" font-size="11.00">serial[10]</text>
<polygon fill="#ffffff" stroke="transparent" points="155,-123 155,-145 240,-145 240,-123 155,-123"/>
<polygon fill="none" stroke="black" points="155,-123 155,-145 240,-145 240,-123 155,-123"/>
<image xlink:href="../../images/foreignKeys.png" width="11px" height="12px" preserveAspectRatio="xMinYMin meet" x="160" y="-140"/>
<text text-anchor="start" x="175" y="-131.2" font-family="Helvetica,sans-Serif" font-size="11.00">group_id</text>
<polygon fill="none" stroke="black" points="240,-123 240,-145 325,-145 325,-123 240,-123"/>
<text text-anchor="start" x="243" y="-131.2" font-family="Helvetica,sans-Serif" font-size="11.00">int4[10]</text>
<polygon fill="#ffffff" stroke="transparent" points="155,-101 155,-123 240,-123 240,-101 155,-101"/>
<polygon fill="none" stroke="black" points="155,-101 155,-123 240,-123 240,-101 155,-101"/>
<text text-anchor="start" x="175" y="-109.2" font-family="Helvetica,sans-Serif" font-size="11.00">name</text>
<polygon fill="none" stroke="black" points="240,-101 240,-123 325,-123 325,-101 240,-101"/>
<text text-anchor="start" x="243" y="-109.2" font-family="Helvetica,sans-Serif" font-size="11.00">varchar[256]</text>
<polygon fill="none" stroke="black" points="155,-79 155,-101 240,-101 240,-79 155,-79"/>
<text text-anchor="start" x="175" y="-87.2" font-family="Helvetica,sans-Serif" font-size="11.00">created_at</text>
<polygon fill="none" stroke="black" points="240,-79 240,-101 325,-101 325,-79 240,-79"/>
<text text-anchor="start" x="243" y="-87.2" font-family="Helvetica,sans-Serif" font-size="11.00">timestamp[29,6]</text>
<polygon fill="none" stroke="black" points="155,-57 155,-79 240,-79 240,-57 155,-57"/>
<text text-anchor="start" x="175" y="-65.2" font-family="Helvetica,sans-Serif" font-size="11.00">updated_at</text>
<polygon fill="none" stroke="black" points="240,-57 240,-79 325,-79 325,-57 240,-57"/>
<text text-anchor="start" x="243" y="-65.2" font-family="Helvetica,sans-Serif" font-size="11.00">timestamp[29,6]</text>
<polygon fill="#ffffff" stroke="transparent" points="155,-39 155,-57 182,-57 182,-39 155,-39"/>
<polygon fill="none" stroke="black" points="155,-39 155,-57 182,-57 182,-39 155,-39"/>
<text text-anchor="start" x="158" y="-45.2" font-family="Helvetica,sans-Serif" font-size="11.00">&lt; 1</text>
<polygon fill="#ffffff" stroke="transparent" points="182,-39 182,-57 240,-57 240,-39 182,-39"/>
<polygon fill="none" stroke="black" points="182,-39 182,-57 240,-57 240,-39 182,-39"/>
<text text-anchor="start" x="191" y="-45.2" font-family="Helvetica,sans-Serif" font-size="11.00">311 rows</text>
<polygon fill="#ffffff" stroke="transparent" points="240,-39 240,-57 325,-57 325,-39 240,-39"/>
<polygon fill="none" stroke="black" points="240,-39 240,-57 325,-57 325,-39 240,-39"/>
<text text-anchor="start" x="306" y="-45.2" font-family="Helvetica,sans-Serif" font-size="11.00">1 &gt;</text>
<polygon fill="none" stroke="black" stroke-width="2" points="154,-38 154,-190 326,-190 326,-38 154,-38"/>
</a>
</g>
</g>
<!-- groups -->
<g id="node2" class="node">
<title>groups</title>
<g id="a_node2"><a xlink:href="../../tables/groups.html" xlink:title="groups" target="_top">
<polygon fill="#ffffff" stroke="transparent" points="8,-43 8,-167 104,-167 104,-43 8,-43"/>
<polygon fill="#f5f5f5" stroke="transparent" points="8,-145 8,-167 104,-167 104,-145 8,-145"/>
<polygon fill="none" stroke="black" points="8,-145 8,-167 104,-167 104,-145 8,-145"/>
<text text-anchor="start" x="13" y="-154.2" font-family="Helvetica,sans-Serif" font-weight="bold" font-size="11.00">groups</text>
<text text-anchor="start" x="69" y="-153.2" font-family="Helvetica,sans-Serif" font-size="11.00">[table]</text>
<polygon fill="none" stroke="black" points="8,-123 8,-145 104,-145 104,-123 8,-123"/>
<image xlink:href="../../images/primaryKeys.png" width="11px" height="12px" preserveAspectRatio="xMinYMin meet" x="13" y="-140"/>
<text text-anchor="start" x="30" y="-131.2" font-family="Helvetica,sans-Serif" font-size="11.00">id</text>
<polygon fill="#ffffff" stroke="transparent" points="8,-101 8,-123 104,-123 104,-101 8,-101"/>
<polygon fill="none" stroke="black" points="8,-101 8,-123 104,-123 104,-101 8,-101"/>
<image xlink:href="../../images/foreignKeys.png" width="11px" height="12px" preserveAspectRatio="xMinYMin meet" x="13" y="-118"/>
<text text-anchor="start" x="30" y="-109.2" font-family="Helvetica,sans-Serif" font-size="11.00">customer_id</text>
<polygon fill="#ffffff" stroke="transparent" points="8,-79 8,-101 104,-101 104,-79 8,-79"/>
<polygon fill="none" stroke="black" points="8,-79 8,-101 104,-101 104,-79 8,-79"/>
<text text-anchor="start" x="30" y="-87.2" font-family="Helvetica,sans-Serif" font-size="11.00">name</text>
<polygon fill="none" stroke="black" points="8,-61 8,-79 104,-79 104,-61 8,-61"/>
<text text-anchor="start" x="11" y="-67.2" font-family="Helvetica,sans-Serif" font-size="11.00">...</text>
<polygon fill="#ffffff" stroke="transparent" points="8,-43 8,-61 30,-61 30,-43 8,-43"/>
<polygon fill="none" stroke="black" points="8,-43 8,-61 30,-61 30,-43 8,-43"/>
<text text-anchor="start" x="11" y="-49.2" font-family="Helvetica,sans-Serif" font-size="11.00">&lt; 1</text>
<polygon fill="#ffffff" stroke="transparent" points="30,-43 30,-61 82,-61 82,-43 30,-43"/>
<polygon fill="none" stroke="black" points="30,-43 30,-61 82,-61 82,-43 30,-43"/>
<text text-anchor="start" x="33" y="-49.2" font-family="Helvetica,sans-Serif" font-size="11.00">150 rows</text>
<polygon fill="#ffffff" stroke="transparent" points="82,-43 82,-61 104,-61 104,-43 82,-43"/>
<polygon fill="none" stroke="black" points="82,-43 82,-61 104,-61 104,-43 82,-43"/>
<text text-anchor="start" x="85" y="-49.2" font-family="Helvetica,sans-Serif" font-size="11.00">2 &gt;</text>
</a>
</g>
</g>
<!-- folders&#45;&gt;groups -->
<g id="edge1" class="edge">
<title>folders:w&#45;&gt;groups:e</title>
<path fill="none" stroke="black" d="M139.49,-134C128.18,-134 120.99,-134 105,-134"/>
<polygon fill="black" stroke="black" points="146,-134 154,-137.6 150,-134 154,-134 154,-134 154,-134 150,-134 154,-130.4 146,-134 146,-134"/>
<ellipse fill="none" stroke="black" cx="142.8" cy="-134" rx="3.2" ry="3.2"/>
</g>
<!-- folders_investments -->
<g id="node3" class="node">
<title>folders_investments</title>
<g id="a_node3"><a xlink:href="../../tables/folders_investments.html" xlink:title="folders_investments" target="_top">
<polygon fill="#ffffff" stroke="transparent" points="376,-105 376,-189 529,-189 529,-105 376,-105"/>
<polygon fill="#f5f5f5" stroke="transparent" points="376.5,-167 376.5,-189 529.5,-189 529.5,-167 376.5,-167"/>
<polygon fill="none" stroke="black" points="376.5,-167 376.5,-189 529.5,-189 529.5,-167 376.5,-167"/>
<text text-anchor="start" x="381.5" y="-176.2" font-family="Helvetica,sans-Serif" font-weight="bold" font-size="11.00">folders_investments</text>
<text text-anchor="start" x="494.5" y="-175.2" font-family="Helvetica,sans-Serif" font-size="11.00">[table]</text>
<polygon fill="none" stroke="black" points="376.5,-145 376.5,-167 529.5,-167 529.5,-145 376.5,-145"/>
<image xlink:href="../../images/primaryKeys.png" width="11px" height="12px" preserveAspectRatio="xMinYMin meet" x="381.5" y="-162"/>
<text text-anchor="start" x="404.5" y="-153.2" font-family="Helvetica,sans-Serif" font-size="11.00">folder_id</text>
<polygon fill="none" stroke="black" points="376.5,-123 376.5,-145 529.5,-145 529.5,-123 376.5,-123"/>
<image xlink:href="../../images/primaryKeys.png" width="11px" height="12px" preserveAspectRatio="xMinYMin meet" x="381.5" y="-140"/>
<text text-anchor="start" x="404.5" y="-131.2" font-family="Helvetica,sans-Serif" font-size="11.00">investment_id</text>
<polygon fill="#ffffff" stroke="transparent" points="376.5,-105 376.5,-123 426.5,-123 426.5,-105 376.5,-105"/>
<polygon fill="none" stroke="black" points="376.5,-105 376.5,-123 426.5,-123 426.5,-105 376.5,-105"/>
<text text-anchor="start" x="379.5" y="-111.2" font-family="Helvetica,sans-Serif" font-size="11.00">&lt; 2</text>
<polygon fill="#ffffff" stroke="transparent" points="426.5,-105 426.5,-123 501.5,-123 501.5,-105 426.5,-105"/>
<polygon fill="none" stroke="black" points="426.5,-105 426.5,-123 501.5,-123 501.5,-105 426.5,-105"/>
<text text-anchor="start" x="443.5" y="-111.2" font-family="Helvetica,sans-Serif" font-size="11.00">2,911 rows</text>
<polygon fill="#ffffff" stroke="transparent" points="501.5,-105 501.5,-123 529.5,-123 529.5,-105 501.5,-105"/>
<polygon fill="none" stroke="black" points="501.5,-105 501.5,-123 529.5,-123 529.5,-105 501.5,-105"/>
<text text-anchor="start" x="519.5" y="-111.2" font-family="Helvetica,sans-Serif" font-size="11.00"> &#160;</text>
</a>
</g>
</g>
<!-- folders_investments&#45;&gt;folders -->
<g id="edge2" class="edge">
<title>folders_investments:w&#45;&gt;folders:e</title>
<path fill="none" stroke="black" d="M360.84,-156C349.41,-156 342.16,-156 326,-156"/>
<polygon fill="black" stroke="black" points="367.5,-156 375.5,-159.6 371.5,-156 375.5,-156 375.5,-156 375.5,-156 371.5,-156 375.5,-152.4 367.5,-156 367.5,-156"/>
<ellipse fill="none" stroke="black" cx="364.3" cy="-156" rx="3.2" ry="3.2"/>
</g>
</g>
</svg>
