<?xml version="1.0" encoding="UTF-8" standalone="no"?>
<!DOCTYPE svg PUBLIC "-//W3C//DTD SVG 1.1//EN"
 "http://www.w3.org/Graphics/SVG/1.1/DTD/svg11.dtd">
<!-- Generated by graphviz version 2.50.0 (20211204.2007)
 -->
<!-- Title: oneDegreeRelationshipsDiagram Pages: 1 -->
<svg width="393pt" height="296pt"
 viewBox="0.00 0.00 393.00 296.00" xmlns="http://www.w3.org/2000/svg" xmlns:xlink="http://www.w3.org/1999/xlink">
<g id="graph0" class="graph" transform="scale(1 1) rotate(0) translate(4 292)">
<title>oneDegreeRelationshipsDiagram</title>
<polygon fill="#ffffff" stroke="transparent" points="-4,4 -4,-292 389,-292 389,4 -4,4"/>
<text text-anchor="middle" x="72.5" y="-7.2" font-family="Helvetica,sans-Serif" font-size="11.00">Generated by SchemaSpy</text>
<!-- folders_investments -->
<g id="node1" class="node">
<title>folders_investments</title>
<g id="a_node1"><a xlink:href="../../tables/folders_investments.html" xlink:title="folders_investments" target="_top">
<polygon fill="#ffffff" stroke="transparent" points="194,-136 194,-224 377,-224 377,-136 194,-136"/>
<polygon fill="#f5f5f5" stroke="transparent" points="196.5,-200 196.5,-222 375.5,-222 375.5,-200 196.5,-200"/>
<polygon fill="none" stroke="black" points="196.5,-200 196.5,-222 375.5,-222 375.5,-200 196.5,-200"/>
<text text-anchor="start" x="201.5" y="-209.2" font-family="Helvetica,sans-Serif" font-weight="bold" font-size="11.00">folders_investments</text>
<text text-anchor="start" x="340.5" y="-208.2" font-family="Helvetica,sans-Serif" font-size="11.00">[table]</text>
<polygon fill="none" stroke="black" points="196.5,-178 196.5,-200 333.5,-200 333.5,-178 196.5,-178"/>
<image xlink:href="../../images/primaryKeys.png" width="11px" height="12px" preserveAspectRatio="xMinYMin meet" x="201.5" y="-195"/>
<text text-anchor="start" x="216.5" y="-186.2" font-family="Helvetica,sans-Serif" font-size="11.00">folder_id</text>
<polygon fill="none" stroke="black" points="333.5,-178 333.5,-200 375.5,-200 375.5,-178 333.5,-178"/>
<text text-anchor="start" x="336.5" y="-186.2" font-family="Helvetica,sans-Serif" font-size="11.00">int4[10]</text>
<polygon fill="none" stroke="black" points="196.5,-156 196.5,-178 333.5,-178 333.5,-156 196.5,-156"/>
<image xlink:href="../../images/primaryKeys.png" width="11px" height="12px" preserveAspectRatio="xMinYMin meet" x="201.5" y="-173"/>
<text text-anchor="start" x="216.5" y="-164.2" font-family="Helvetica,sans-Serif" font-size="11.00">investment_id</text>
<polygon fill="none" stroke="black" points="333.5,-156 333.5,-178 375.5,-178 375.5,-156 333.5,-156"/>
<text text-anchor="start" x="336.5" y="-164.2" font-family="Helvetica,sans-Serif" font-size="11.00">int4[10]</text>
<polygon fill="#ffffff" stroke="transparent" points="196.5,-138 196.5,-156 245.5,-156 245.5,-138 196.5,-138"/>
<polygon fill="none" stroke="black" points="196.5,-138 196.5,-156 245.5,-156 245.5,-138 196.5,-138"/>
<text text-anchor="start" x="199.5" y="-144.2" font-family="Helvetica,sans-Serif" font-size="11.00">&lt; 2</text>
<polygon fill="#ffffff" stroke="transparent" points="245.5,-138 245.5,-156 333.5,-156 333.5,-138 245.5,-138"/>
<polygon fill="none" stroke="black" points="245.5,-138 245.5,-156 333.5,-156 333.5,-138 245.5,-138"/>
<text text-anchor="start" x="275.5" y="-144.2" font-family="Helvetica,sans-Serif" font-size="11.00">2,911 rows</text>
<polygon fill="#ffffff" stroke="transparent" points="333.5,-138 333.5,-156 375.5,-156 375.5,-138 333.5,-138"/>
<polygon fill="none" stroke="black" points="333.5,-138 333.5,-156 375.5,-156 375.5,-138 333.5,-138"/>
<text text-anchor="start" x="356.5" y="-144.2" font-family="Helvetica,sans-Serif" font-size="11.00">0 &gt;</text>
<polygon fill="none" stroke="black" stroke-width="2" points="195,-137 195,-223 376,-223 376,-137 195,-137"/>
</a>
</g>
</g>
<!-- folders -->
<g id="node2" class="node">
<title>folders</title>
<g id="a_node2"><a xlink:href="../../tables/folders.html" xlink:title="folders" target="_top">
<polygon fill="#ffffff" stroke="transparent" points="28.5,-160 28.5,-284 124.5,-284 124.5,-160 28.5,-160"/>
<polygon fill="#f5f5f5" stroke="transparent" points="28.5,-262 28.5,-284 124.5,-284 124.5,-262 28.5,-262"/>
<polygon fill="none" stroke="black" points="28.5,-262 28.5,-284 124.5,-284 124.5,-262 28.5,-262"/>
<text text-anchor="start" x="33.5" y="-271.2" font-family="Helvetica,sans-Serif" font-weight="bold" font-size="11.00">folders</text>
<text text-anchor="start" x="89.5" y="-270.2" font-family="Helvetica,sans-Serif" font-size="11.00">[table]</text>
<polygon fill="none" stroke="black" points="28.5,-240 28.5,-262 124.5,-262 124.5,-240 28.5,-240"/>
<image xlink:href="../../images/primaryKeys.png" width="11px" height="12px" preserveAspectRatio="xMinYMin meet" x="33.5" y="-257"/>
<text text-anchor="start" x="54.5" y="-248.2" font-family="Helvetica,sans-Serif" font-size="11.00">id</text>
<polygon fill="#ffffff" stroke="transparent" points="28.5,-218 28.5,-240 124.5,-240 124.5,-218 28.5,-218"/>
<polygon fill="none" stroke="black" points="28.5,-218 28.5,-240 124.5,-240 124.5,-218 28.5,-218"/>
<image xlink:href="../../images/foreignKeys.png" width="11px" height="12px" preserveAspectRatio="xMinYMin meet" x="33.5" y="-235"/>
<text text-anchor="start" x="54.5" y="-226.2" font-family="Helvetica,sans-Serif" font-size="11.00">group_id</text>
<polygon fill="#ffffff" stroke="transparent" points="28.5,-196 28.5,-218 124.5,-218 124.5,-196 28.5,-196"/>
<polygon fill="none" stroke="black" points="28.5,-196 28.5,-218 124.5,-218 124.5,-196 28.5,-196"/>
<text text-anchor="start" x="54.5" y="-204.2" font-family="Helvetica,sans-Serif" font-size="11.00">name</text>
<polygon fill="none" stroke="black" points="28.5,-178 28.5,-196 124.5,-196 124.5,-178 28.5,-178"/>
<text text-anchor="start" x="31.5" y="-184.2" font-family="Helvetica,sans-Serif" font-size="11.00">...</text>
<polygon fill="#ffffff" stroke="transparent" points="28.5,-160 28.5,-178 50.5,-178 50.5,-160 28.5,-160"/>
<polygon fill="none" stroke="black" points="28.5,-160 28.5,-178 50.5,-178 50.5,-160 28.5,-160"/>
<text text-anchor="start" x="31.5" y="-166.2" font-family="Helvetica,sans-Serif" font-size="11.00">&lt; 1</text>
<polygon fill="#ffffff" stroke="transparent" points="50.5,-160 50.5,-178 102.5,-178 102.5,-160 50.5,-160"/>
<polygon fill="none" stroke="black" points="50.5,-160 50.5,-178 102.5,-178 102.5,-160 50.5,-160"/>
<text text-anchor="start" x="53.5" y="-166.2" font-family="Helvetica,sans-Serif" font-size="11.00">311 rows</text>
<polygon fill="#ffffff" stroke="transparent" points="102.5,-160 102.5,-178 124.5,-178 124.5,-160 102.5,-160"/>
<polygon fill="none" stroke="black" points="102.5,-160 102.5,-178 124.5,-178 124.5,-160 102.5,-160"/>
<text text-anchor="start" x="105.5" y="-166.2" font-family="Helvetica,sans-Serif" font-size="11.00">1 &gt;</text>
</a>
</g>
</g>
<!-- folders_investments&#45;&gt;folders -->
<g id="edge1" class="edge">
<title>folders_investments:w&#45;&gt;folders:e</title>
<path fill="none" stroke="black" d="M181.24,-192.16C156.51,-204.79 161.38,-251 125.5,-251"/>
<polygon fill="black" stroke="black" points="187.69,-190.73 196.28,-192.51 191.59,-189.87 195.5,-189 195.5,-189 195.5,-189 191.59,-189.87 194.72,-185.49 187.69,-190.73 187.69,-190.73"/>
<ellipse fill="none" stroke="black" cx="184.57" cy="-191.42" rx="3.2" ry="3.2"/>
</g>
<!-- investments -->
<g id="node3" class="node">
<title>investments</title>
<g id="a_node3"><a xlink:href="../../tables/investments.html" xlink:title="investments" target="_top">
<polygon fill="#ffffff" stroke="transparent" points="8,-37 8,-139 145,-139 145,-37 8,-37"/>
<polygon fill="#f5f5f5" stroke="transparent" points="8.5,-117 8.5,-139 145.5,-139 145.5,-117 8.5,-117"/>
<polygon fill="none" stroke="black" points="8.5,-117 8.5,-139 145.5,-139 145.5,-117 8.5,-117"/>
<text text-anchor="start" x="13.5" y="-126.2" font-family="Helvetica,sans-Serif" font-weight="bold" font-size="11.00">investments</text>
<text text-anchor="start" x="110.5" y="-125.2" font-family="Helvetica,sans-Serif" font-size="11.00">[table]</text>
<polygon fill="none" stroke="black" points="8.5,-95 8.5,-117 145.5,-117 145.5,-95 8.5,-95"/>
<image xlink:href="../../images/primaryKeys.png" width="11px" height="12px" preserveAspectRatio="xMinYMin meet" x="13.5" y="-112"/>
<text text-anchor="start" x="28.5" y="-103.2" font-family="Helvetica,sans-Serif" font-size="11.00">id</text>
<polygon fill="none" stroke="black" points="8.5,-73 8.5,-95 145.5,-95 145.5,-73 8.5,-73"/>
<image xlink:href="../../images/foreignKeys.png" width="11px" height="12px" preserveAspectRatio="xMinYMin meet" x="13.5" y="-90"/>
<text text-anchor="start" x="28.5" y="-81.2" font-family="Helvetica,sans-Serif" font-size="11.00">sector_id</text>
<polygon fill="none" stroke="black" points="8.5,-55 8.5,-73 145.5,-73 145.5,-55 8.5,-55"/>
<text text-anchor="start" x="11.5" y="-61.2" font-family="Helvetica,sans-Serif" font-size="11.00">...</text>
<polygon fill="#ffffff" stroke="transparent" points="8.5,-37 8.5,-55 46.5,-55 46.5,-37 8.5,-37"/>
<polygon fill="none" stroke="black" points="8.5,-37 8.5,-55 46.5,-55 46.5,-37 8.5,-37"/>
<text text-anchor="start" x="11.5" y="-43.2" font-family="Helvetica,sans-Serif" font-size="11.00">&lt; 1</text>
<polygon fill="#ffffff" stroke="transparent" points="46.5,-37 46.5,-55 115.5,-55 115.5,-37 46.5,-37"/>
<polygon fill="none" stroke="black" points="46.5,-37 46.5,-55 115.5,-55 115.5,-37 46.5,-37"/>
<text text-anchor="start" x="57.5" y="-43.2" font-family="Helvetica,sans-Serif" font-size="11.00">2,996 rows</text>
<polygon fill="#ffffff" stroke="transparent" points="115.5,-37 115.5,-55 145.5,-55 145.5,-37 115.5,-37"/>
<polygon fill="none" stroke="black" points="115.5,-37 115.5,-55 145.5,-55 145.5,-37 115.5,-37"/>
<text text-anchor="start" x="126.5" y="-43.2" font-family="Helvetica,sans-Serif" font-size="11.00">2 &gt;</text>
</a>
</g>
</g>
<!-- folders_investments&#45;&gt;investments -->
<g id="edge2" class="edge">
<title>folders_investments:w&#45;&gt;investments:e</title>
<path fill="none" stroke="black" d="M181.91,-162.21C166.15,-147.83 175.3,-106 146.5,-106"/>
<polygon fill="black" stroke="black" points="187.95,-164.34 194.3,-170.4 191.73,-165.67 195.5,-167 195.5,-167 195.5,-167 191.73,-165.67 196.7,-163.6 187.95,-164.34 187.95,-164.34"/>
<ellipse fill="none" stroke="black" cx="184.94" cy="-163.28" rx="3.2" ry="3.2"/>
</g>
</g>
</svg>
