<?xml version="1.0" encoding="UTF-8" standalone="no"?>
<!DOCTYPE svg PUBLIC "-//W3C//DTD SVG 1.1//EN"
 "http://www.w3.org/Graphics/SVG/1.1/DTD/svg11.dtd">
<!-- Generated by graphviz version 2.50.0 (20211204.2007)
 -->
<!-- Title: oneDegreeRelationshipsDiagram Pages: 1 -->
<svg width="688pt" height="421pt"
 viewBox="0.00 0.00 688.00 421.00" xmlns="http://www.w3.org/2000/svg" xmlns:xlink="http://www.w3.org/1999/xlink">
<g id="graph0" class="graph" transform="scale(1 1) rotate(0) translate(4 417)">
<title>oneDegreeRelationshipsDiagram</title>
<polygon fill="#ffffff" stroke="transparent" points="-4,4 -4,-417 684,-417 684,4 -4,4"/>
<text text-anchor="middle" x="72.5" y="-7.2" font-family="Helvetica,sans-Serif" font-size="11.00">Generated by SchemaSpy</text>
<!-- grid_squares -->
<g id="node1" class="node">
<title>grid_squares</title>
<g id="a_node1"><a xlink:href="../../tables/grid_squares.html" xlink:title="grid_squares" target="_top">
<polygon fill="#ffffff" stroke="transparent" points="167,-37 167,-367 487,-367 487,-37 167,-37"/>
<polygon fill="#f5f5f5" stroke="transparent" points="169,-343 169,-365 485,-365 485,-343 169,-343"/>
<polygon fill="none" stroke="black" points="169,-343 169,-365 485,-365 485,-343 169,-343"/>
<text text-anchor="start" x="174" y="-352.2" font-family="Helvetica,sans-Serif" font-weight="bold" font-size="11.00">grid_squares</text>
<text text-anchor="start" x="450" y="-351.2" font-family="Helvetica,sans-Serif" font-size="11.00">[table]</text>
<polygon fill="none" stroke="black" points="169,-321 169,-343 419,-343 419,-321 169,-321"/>
<image xlink:href="../../images/primaryKeys.png" width="11px" height="12px" preserveAspectRatio="xMinYMin meet" x="174" y="-338"/>
<text text-anchor="start" x="189" y="-329.2" font-family="Helvetica,sans-Serif" font-size="11.00">id</text>
<polygon fill="none" stroke="black" points="419,-321 419,-343 485,-343 485,-321 419,-321"/>
<text text-anchor="start" x="422" y="-329.2" font-family="Helvetica,sans-Serif" font-size="11.00">serial[10]</text>
<polygon fill="#ffffff" stroke="transparent" points="169,-299 169,-321 419,-321 419,-299 169,-299"/>
<polygon fill="none" stroke="black" points="169,-299 169,-321 419,-321 419,-299 169,-299"/>
<image xlink:href="../../images/foreignKeys.png" width="11px" height="12px" preserveAspectRatio="xMinYMin meet" x="174" y="-316"/>
<text text-anchor="start" x="189" y="-307.2" font-family="Helvetica,sans-Serif" font-size="11.00">grid_id</text>
<polygon fill="none" stroke="black" points="419,-299 419,-321 485,-321 485,-299 419,-299"/>
<text text-anchor="start" x="422" y="-307.2" font-family="Helvetica,sans-Serif" font-size="11.00">int4[10]</text>
<polygon fill="#ffffff" stroke="transparent" points="169,-277 169,-299 419,-299 419,-277 169,-277"/>
<polygon fill="none" stroke="black" points="169,-277 169,-299 419,-299 419,-277 169,-277"/>
<text text-anchor="start" x="189" y="-285.2" font-family="Helvetica,sans-Serif" font-size="11.00">serial_lngid</text>
<polygon fill="none" stroke="black" points="419,-277 419,-299 485,-299 485,-277 419,-277"/>
<text text-anchor="start" x="422" y="-285.2" font-family="Helvetica,sans-Serif" font-size="11.00">int4[10]</text>
<polygon fill="#ffffff" stroke="transparent" points="169,-255 169,-277 419,-277 419,-255 169,-255"/>
<polygon fill="none" stroke="black" points="169,-255 169,-277 419,-277 419,-255 169,-255"/>
<text text-anchor="start" x="189" y="-263.2" font-family="Helvetica,sans-Serif" font-size="11.00">serial_latid</text>
<polygon fill="none" stroke="black" points="419,-255 419,-277 485,-277 485,-255 419,-255"/>
<text text-anchor="start" x="422" y="-263.2" font-family="Helvetica,sans-Serif" font-size="11.00">int4[10]</text>
<polygon fill="#ffffff" stroke="transparent" points="169,-233 169,-255 419,-255 419,-233 169,-233"/>
<polygon fill="none" stroke="black" points="169,-233 169,-255 419,-255 419,-233 169,-233"/>
<text text-anchor="start" x="189" y="-241.2" font-family="Helvetica,sans-Serif" font-size="11.00">name_etl</text>
<polygon fill="none" stroke="black" points="419,-233 419,-255 485,-255 485,-233 419,-233"/>
<text text-anchor="start" x="422" y="-241.2" font-family="Helvetica,sans-Serif" font-size="11.00">varchar[16]</text>
<polygon fill="none" stroke="black" points="169,-211 169,-233 419,-233 419,-211 169,-211"/>
<text text-anchor="start" x="189" y="-219.2" font-family="Helvetica,sans-Serif" font-size="11.00">lat_centroid</text>
<polygon fill="none" stroke="black" points="419,-211 419,-233 485,-233 485,-211 419,-211"/>
<text text-anchor="start" x="422" y="-219.2" font-family="Helvetica,sans-Serif" font-size="11.00">float8[17,17]</text>
<polygon fill="none" stroke="black" points="169,-189 169,-211 419,-211 419,-189 169,-189"/>
<text text-anchor="start" x="189" y="-197.2" font-family="Helvetica,sans-Serif" font-size="11.00">lng_centroid</text>
<polygon fill="none" stroke="black" points="419,-189 419,-211 485,-211 485,-189 419,-189"/>
<text text-anchor="start" x="422" y="-197.2" font-family="Helvetica,sans-Serif" font-size="11.00">float8[17,17]</text>
<polygon fill="none" stroke="black" points="169,-167 169,-189 419,-189 419,-167 169,-167"/>
<text text-anchor="start" x="189" y="-175.2" font-family="Helvetica,sans-Serif" font-size="11.00">lat_high</text>
<polygon fill="none" stroke="black" points="419,-167 419,-189 485,-189 485,-167 419,-167"/>
<text text-anchor="start" x="422" y="-175.2" font-family="Helvetica,sans-Serif" font-size="11.00">float8[17,17]</text>
<polygon fill="none" stroke="black" points="169,-145 169,-167 419,-167 419,-145 169,-145"/>
<text text-anchor="start" x="189" y="-153.2" font-family="Helvetica,sans-Serif" font-size="11.00">lat_low</text>
<polygon fill="none" stroke="black" points="419,-145 419,-167 485,-167 485,-145 419,-145"/>
<text text-anchor="start" x="422" y="-153.2" font-family="Helvetica,sans-Serif" font-size="11.00">float8[17,17]</text>
<polygon fill="none" stroke="black" points="169,-123 169,-145 419,-145 419,-123 169,-123"/>
<text text-anchor="start" x="189" y="-131.2" font-family="Helvetica,sans-Serif" font-size="11.00">lng_left</text>
<polygon fill="none" stroke="black" points="419,-123 419,-145 485,-145 485,-123 419,-123"/>
<text text-anchor="start" x="422" y="-131.2" font-family="Helvetica,sans-Serif" font-size="11.00">float8[17,17]</text>
<polygon fill="none" stroke="black" points="169,-101 169,-123 419,-123 419,-101 169,-101"/>
<text text-anchor="start" x="189" y="-109.2" font-family="Helvetica,sans-Serif" font-size="11.00">lng_right</text>
<polygon fill="none" stroke="black" points="419,-101 419,-123 485,-123 485,-101 419,-101"/>
<text text-anchor="start" x="422" y="-109.2" font-family="Helvetica,sans-Serif" font-size="11.00">float8[17,17]</text>
<polygon fill="#ffffff" stroke="transparent" points="169,-79 169,-101 419,-101 419,-79 169,-79"/>
<polygon fill="none" stroke="black" points="169,-79 169,-101 419,-101 419,-79 169,-79"/>
<text text-anchor="start" x="189" y="-87.2" font-family="Helvetica,sans-Serif" font-size="11.00">version</text>
<polygon fill="none" stroke="black" points="419,-79 419,-101 485,-101 485,-79 419,-79"/>
<text text-anchor="start" x="422" y="-87.2" font-family="Helvetica,sans-Serif" font-size="11.00">varchar[32]</text>
<polygon fill="#ffffff" stroke="transparent" points="169,-57 169,-79 419,-79 419,-57 169,-57"/>
<polygon fill="none" stroke="black" points="169,-57 169,-79 419,-79 419,-57 169,-57"/>
<text text-anchor="start" x="189" y="-65.2" font-family="Helvetica,sans-Serif" font-size="11.00">proc_flag_gridsquare_has_current_data</text>
<polygon fill="none" stroke="black" points="419,-57 419,-79 485,-79 485,-57 419,-57"/>
<text text-anchor="start" x="422" y="-65.2" font-family="Helvetica,sans-Serif" font-size="11.00">int4[10]</text>
<polygon fill="#ffffff" stroke="transparent" points="169,-39 169,-57 268,-57 268,-39 169,-39"/>
<polygon fill="none" stroke="black" points="169,-39 169,-57 268,-57 268,-39 169,-39"/>
<text text-anchor="start" x="172" y="-45.2" font-family="Helvetica,sans-Serif" font-size="11.00">&lt; 1</text>
<polygon fill="#ffffff" stroke="transparent" points="268,-39 268,-57 419,-57 419,-39 268,-39"/>
<polygon fill="none" stroke="black" points="268,-39 268,-57 419,-57 419,-39 268,-39"/>
<text text-anchor="start" x="349" y="-45.2" font-family="Helvetica,sans-Serif" font-size="11.00">698,835 rows</text>
<polygon fill="#ffffff" stroke="transparent" points="419,-39 419,-57 485,-57 485,-39 419,-39"/>
<polygon fill="none" stroke="black" points="419,-39 419,-57 485,-57 485,-39 419,-39"/>
<text text-anchor="start" x="466" y="-45.2" font-family="Helvetica,sans-Serif" font-size="11.00">1 &gt;</text>
<polygon fill="none" stroke="black" stroke-width="2" points="168,-38 168,-366 486,-366 486,-38 168,-38"/>
</a>
</g>
</g>
<!-- grids -->
<g id="node2" class="node">
<title>grids</title>
<g id="a_node2"><a xlink:href="../../tables/grids.html" xlink:title="grids" target="_top">
<polygon fill="#ffffff" stroke="transparent" points="8,-219 8,-343 118,-343 118,-219 8,-219"/>
<polygon fill="#f5f5f5" stroke="transparent" points="8,-321 8,-343 118,-343 118,-321 8,-321"/>
<polygon fill="none" stroke="black" points="8,-321 8,-343 118,-343 118,-321 8,-321"/>
<text text-anchor="start" x="13" y="-330.2" font-family="Helvetica,sans-Serif" font-weight="bold" font-size="11.00">grids</text>
<text text-anchor="start" x="83" y="-329.2" font-family="Helvetica,sans-Serif" font-size="11.00">[table]</text>
<polygon fill="none" stroke="black" points="8,-299 8,-321 118,-321 118,-299 8,-299"/>
<image xlink:href="../../images/primaryKeys.png" width="11px" height="12px" preserveAspectRatio="xMinYMin meet" x="13" y="-316"/>
<text text-anchor="start" x="28" y="-307.2" font-family="Helvetica,sans-Serif" font-size="11.00">id</text>
<polygon fill="#ffffff" stroke="transparent" points="8,-277 8,-299 118,-299 118,-277 8,-277"/>
<polygon fill="none" stroke="black" points="8,-277 8,-299 118,-299 118,-277 8,-277"/>
<text text-anchor="start" x="28" y="-285.2" font-family="Helvetica,sans-Serif" font-size="11.00">name</text>
<polygon fill="#ffffff" stroke="transparent" points="8,-255 8,-277 118,-277 118,-255 8,-255"/>
<polygon fill="none" stroke="black" points="8,-255 8,-277 118,-277 118,-255 8,-255"/>
<text text-anchor="start" x="28" y="-263.2" font-family="Helvetica,sans-Serif" font-size="11.00">name_etl</text>
<polygon fill="none" stroke="black" points="8,-237 8,-255 118,-255 118,-237 8,-237"/>
<text text-anchor="start" x="11" y="-243.2" font-family="Helvetica,sans-Serif" font-size="11.00">...</text>
<polygon fill="#ffffff" stroke="transparent" points="8,-219 8,-237 38,-237 38,-219 8,-219"/>
<polygon fill="none" stroke="black" points="8,-219 8,-237 38,-237 38,-219 8,-219"/>
<text text-anchor="start" x="11" y="-225.2" font-family="Helvetica,sans-Serif" font-size="11.00"> &#160;</text>
<polygon fill="#ffffff" stroke="transparent" points="38,-219 38,-237 87,-237 87,-219 38,-219"/>
<polygon fill="none" stroke="black" points="38,-219 38,-237 87,-237 87,-219 38,-219"/>
<text text-anchor="start" x="50" y="-225.2" font-family="Helvetica,sans-Serif" font-size="11.00">2 rows</text>
<polygon fill="#ffffff" stroke="transparent" points="87,-219 87,-237 118,-237 118,-219 87,-219"/>
<polygon fill="none" stroke="black" points="87,-219 87,-237 118,-237 118,-219 87,-219"/>
<text text-anchor="start" x="99" y="-225.2" font-family="Helvetica,sans-Serif" font-size="11.00">1 &gt;</text>
</a>
</g>
</g>
<!-- grid_squares&#45;&gt;grids -->
<g id="edge1" class="edge">
<title>grid_squares:w&#45;&gt;grids:e</title>
<path fill="none" stroke="black" d="M153.49,-310C142.18,-310 134.99,-310 119,-310"/>
<polygon fill="black" stroke="black" points="160,-310 168,-313.6 164,-310 168,-310 168,-310 168,-310 164,-310 168,-306.4 160,-310 160,-310"/>
<ellipse fill="none" stroke="black" cx="156.8" cy="-310" rx="3.2" ry="3.2"/>
</g>
<!-- loc_grid_squares -->
<g id="node3" class="node">
<title>loc_grid_squares</title>
<g id="a_node3"><a xlink:href="../../tables/loc_grid_squares.html" xlink:title="loc_grid_squares" target="_top">
<polygon fill="#ffffff" stroke="transparent" points="536,-303 536,-409 672,-409 672,-303 536,-303"/>
<polygon fill="#f5f5f5" stroke="transparent" points="536,-387 536,-409 672,-409 672,-387 536,-387"/>
<polygon fill="none" stroke="black" points="536,-387 536,-409 672,-409 672,-387 536,-387"/>
<text text-anchor="start" x="541" y="-396.2" font-family="Helvetica,sans-Serif" font-weight="bold" font-size="11.00">loc_grid_squares</text>
<text text-anchor="start" x="637" y="-395.2" font-family="Helvetica,sans-Serif" font-size="11.00">[table]</text>
<polygon fill="none" stroke="black" points="536,-365 536,-387 672,-387 672,-365 536,-365"/>
<image xlink:href="../../images/primaryKeys.png" width="11px" height="12px" preserveAspectRatio="xMinYMin meet" x="541" y="-382"/>
<text text-anchor="start" x="564" y="-373.2" font-family="Helvetica,sans-Serif" font-size="11.00">id</text>
<polygon fill="#ffffff" stroke="transparent" points="536,-343 536,-365 672,-365 672,-343 536,-343"/>
<polygon fill="none" stroke="black" points="536,-343 536,-365 672,-365 672,-343 536,-343"/>
<image xlink:href="../../images/foreignKeys.png" width="11px" height="12px" preserveAspectRatio="xMinYMin meet" x="541" y="-360"/>
<text text-anchor="start" x="564" y="-351.2" font-family="Helvetica,sans-Serif" font-size="11.00">loc_id</text>
<polygon fill="#ffffff" stroke="transparent" points="536,-321 536,-343 672,-343 672,-321 536,-321"/>
<polygon fill="none" stroke="black" points="536,-321 536,-343 672,-343 672,-321 536,-321"/>
<image xlink:href="../../images/foreignKeys.png" width="11px" height="12px" preserveAspectRatio="xMinYMin meet" x="541" y="-338"/>
<text text-anchor="start" x="564" y="-329.2" font-family="Helvetica,sans-Serif" font-size="11.00">grid_square_id</text>
<polygon fill="#ffffff" stroke="transparent" points="536,-303 536,-321 575,-321 575,-303 536,-303"/>
<polygon fill="none" stroke="black" points="536,-303 536,-321 575,-321 575,-303 536,-303"/>
<text text-anchor="start" x="539" y="-309.2" font-family="Helvetica,sans-Serif" font-size="11.00">&lt; 2</text>
<polygon fill="#ffffff" stroke="transparent" points="575,-303 575,-321 650,-321 650,-303 575,-303"/>
<polygon fill="none" stroke="black" points="575,-303 575,-321 650,-321 650,-303 575,-303"/>
<text text-anchor="start" x="586" y="-309.2" font-family="Helvetica,sans-Serif" font-size="11.00">81,221 rows</text>
<polygon fill="#ffffff" stroke="transparent" points="650,-303 650,-321 672,-321 672,-303 650,-303"/>
<polygon fill="none" stroke="black" points="650,-303 650,-321 672,-321 672,-303 650,-303"/>
<text text-anchor="start" x="662" y="-309.2" font-family="Helvetica,sans-Serif" font-size="11.00"> &#160;</text>
</a>
</g>
</g>
<!-- loc_grid_squares&#45;&gt;grid_squares -->
<g id="edge2" class="edge">
<title>loc_grid_squares:w&#45;&gt;grid_squares:e</title>
<path fill="none" stroke="black" d="M520.49,-332C509.18,-332 501.99,-332 486,-332"/>
<polygon fill="black" stroke="black" points="527,-332 535,-335.6 531,-332 535,-332 535,-332 535,-332 531,-332 535,-328.4 527,-332 527,-332"/>
<ellipse fill="none" stroke="black" cx="523.8" cy="-332" rx="3.2" ry="3.2"/>
</g>
</g>
</svg>
