<?xml version="1.0" encoding="UTF-8" standalone="no"?>
<!DOCTYPE svg PUBLIC "-//W3C//DTD SVG 1.1//EN"
 "http://www.w3.org/Graphics/SVG/1.1/DTD/svg11.dtd">
<!-- Generated by graphviz version 2.50.0 (20211204.2007)
 -->
<!-- Title: twoDegreesRelationshipsDiagram Pages: 1 -->
<svg width="688pt" height="458pt"
 viewBox="0.00 0.00 688.00 458.00" xmlns="http://www.w3.org/2000/svg" xmlns:xlink="http://www.w3.org/1999/xlink">
<g id="graph0" class="graph" transform="scale(1 1) rotate(0) translate(4 454)">
<title>twoDegreesRelationshipsDiagram</title>
<polygon fill="#ffffff" stroke="transparent" points="-4,4 -4,-454 684,-454 684,4 -4,4"/>
<text text-anchor="middle" x="72.5" y="-7.2" font-family="Helvetica,sans-Serif" font-size="11.00">Generated by SchemaSpy</text>
<!-- grid_squares -->
<g id="node1" class="node">
<title>grid_squares</title>
<g id="a_node1"><a xlink:href="../../tables/grid_squares.html" xlink:title="grid_squares" target="_top">
<polygon fill="#ffffff" stroke="transparent" points="167,-37 167,-367 487,-367 487,-37 167,-37"/>
<polygon fill="#f5f5f5" stroke="transparent" points="169,-343 169,-365 485,-365 485,-343 169,-343"/>
<polygon fill="none" stroke="black" points="169,-343 169,-365 485,-365 485,-343 169,-343"/>
<text text-anchor="start" x="174" y="-352.2" font-family="Helvetica,sans-Serif" font-weight="bold" font-size="11.00">grid_squares</text>
<text text-anchor="start" x="450" y="-351.2" font-family="Helvetica,sans-Serif" font-size="11.00">[table]</text>
<polygon fill="none" stroke="black" points="169,-321 169,-343 419,-343 419,-321 169,-321"/>
<image xlink:href="../../images/primaryKeys.png" width="11px" height="12px" preserveAspectRatio="xMinYMin meet" x="174" y="-338"/>
<text text-anchor="start" x="189" y="-329.2" font-family="Helvetica,sans-Serif" font-size="11.00">id</text>
<polygon fill="none" stroke="black" points="419,-321 419,-343 485,-343 485,-321 419,-321"/>
<text text-anchor="start" x="422" y="-329.2" font-family="Helvetica,sans-Serif" font-size="11.00">serial[10]</text>
<polygon fill="#ffffff" stroke="transparent" points="169,-299 169,-321 419,-321 419,-299 169,-299"/>
<polygon fill="none" stroke="black" points="169,-299 169,-321 419,-321 419,-299 169,-299"/>
<image xlink:href="../../images/foreignKeys.png" width="11px" height="12px" preserveAspectRatio="xMinYMin meet" x="174" y="-316"/>
<text text-anchor="start" x="189" y="-307.2" font-family="Helvetica,sans-Serif" font-size="11.00">grid_id</text>
<polygon fill="none" stroke="black" points="419,-299 419,-321 485,-321 485,-299 419,-299"/>
<text text-anchor="start" x="422" y="-307.2" font-family="Helvetica,sans-Serif" font-size="11.00">int4[10]</text>
<polygon fill="#ffffff" stroke="transparent" points="169,-277 169,-299 419,-299 419,-277 169,-277"/>
<polygon fill="none" stroke="black" points="169,-277 169,-299 419,-299 419,-277 169,-277"/>
<text text-anchor="start" x="189" y="-285.2" font-family="Helvetica,sans-Serif" font-size="11.00">serial_lngid</text>
<polygon fill="none" stroke="black" points="419,-277 419,-299 485,-299 485,-277 419,-277"/>
<text text-anchor="start" x="422" y="-285.2" font-family="Helvetica,sans-Serif" font-size="11.00">int4[10]</text>
<polygon fill="#ffffff" stroke="transparent" points="169,-255 169,-277 419,-277 419,-255 169,-255"/>
<polygon fill="none" stroke="black" points="169,-255 169,-277 419,-277 419,-255 169,-255"/>
<text text-anchor="start" x="189" y="-263.2" font-family="Helvetica,sans-Serif" font-size="11.00">serial_latid</text>
<polygon fill="none" stroke="black" points="419,-255 419,-277 485,-277 485,-255 419,-255"/>
<text text-anchor="start" x="422" y="-263.2" font-family="Helvetica,sans-Serif" font-size="11.00">int4[10]</text>
<polygon fill="#ffffff" stroke="transparent" points="169,-233 169,-255 419,-255 419,-233 169,-233"/>
<polygon fill="none" stroke="black" points="169,-233 169,-255 419,-255 419,-233 169,-233"/>
<text text-anchor="start" x="189" y="-241.2" font-family="Helvetica,sans-Serif" font-size="11.00">name_etl</text>
<polygon fill="none" stroke="black" points="419,-233 419,-255 485,-255 485,-233 419,-233"/>
<text text-anchor="start" x="422" y="-241.2" font-family="Helvetica,sans-Serif" font-size="11.00">varchar[16]</text>
<polygon fill="none" stroke="black" points="169,-211 169,-233 419,-233 419,-211 169,-211"/>
<text text-anchor="start" x="189" y="-219.2" font-family="Helvetica,sans-Serif" font-size="11.00">lat_centroid</text>
<polygon fill="none" stroke="black" points="419,-211 419,-233 485,-233 485,-211 419,-211"/>
<text text-anchor="start" x="422" y="-219.2" font-family="Helvetica,sans-Serif" font-size="11.00">float8[17,17]</text>
<polygon fill="none" stroke="black" points="169,-189 169,-211 419,-211 419,-189 169,-189"/>
<text text-anchor="start" x="189" y="-197.2" font-family="Helvetica,sans-Serif" font-size="11.00">lng_centroid</text>
<polygon fill="none" stroke="black" points="419,-189 419,-211 485,-211 485,-189 419,-189"/>
<text text-anchor="start" x="422" y="-197.2" font-family="Helvetica,sans-Serif" font-size="11.00">float8[17,17]</text>
<polygon fill="none" stroke="black" points="169,-167 169,-189 419,-189 419,-167 169,-167"/>
<text text-anchor="start" x="189" y="-175.2" font-family="Helvetica,sans-Serif" font-size="11.00">lat_high</text>
<polygon fill="none" stroke="black" points="419,-167 419,-189 485,-189 485,-167 419,-167"/>
<text text-anchor="start" x="422" y="-175.2" font-family="Helvetica,sans-Serif" font-size="11.00">float8[17,17]</text>
<polygon fill="none" stroke="black" points="169,-145 169,-167 419,-167 419,-145 169,-145"/>
<text text-anchor="start" x="189" y="-153.2" font-family="Helvetica,sans-Serif" font-size="11.00">lat_low</text>
<polygon fill="none" stroke="black" points="419,-145 419,-167 485,-167 485,-145 419,-145"/>
<text text-anchor="start" x="422" y="-153.2" font-family="Helvetica,sans-Serif" font-size="11.00">float8[17,17]</text>
<polygon fill="none" stroke="black" points="169,-123 169,-145 419,-145 419,-123 169,-123"/>
<text text-anchor="start" x="189" y="-131.2" font-family="Helvetica,sans-Serif" font-size="11.00">lng_left</text>
<polygon fill="none" stroke="black" points="419,-123 419,-145 485,-145 485,-123 419,-123"/>
<text text-anchor="start" x="422" y="-131.2" font-family="Helvetica,sans-Serif" font-size="11.00">float8[17,17]</text>
<polygon fill="none" stroke="black" points="169,-101 169,-123 419,-123 419,-101 169,-101"/>
<text text-anchor="start" x="189" y="-109.2" font-family="Helvetica,sans-Serif" font-size="11.00">lng_right</text>
<polygon fill="none" stroke="black" points="419,-101 419,-123 485,-123 485,-101 419,-101"/>
<text text-anchor="start" x="422" y="-109.2" font-family="Helvetica,sans-Serif" font-size="11.00">float8[17,17]</text>
<polygon fill="#ffffff" stroke="transparent" points="169,-79 169,-101 419,-101 419,-79 169,-79"/>
<polygon fill="none" stroke="black" points="169,-79 169,-101 419,-101 419,-79 169,-79"/>
<text text-anchor="start" x="189" y="-87.2" font-family="Helvetica,sans-Serif" font-size="11.00">version</text>
<polygon fill="none" stroke="black" points="419,-79 419,-101 485,-101 485,-79 419,-79"/>
<text text-anchor="start" x="422" y="-87.2" font-family="Helvetica,sans-Serif" font-size="11.00">varchar[32]</text>
<polygon fill="#ffffff" stroke="transparent" points="169,-57 169,-79 419,-79 419,-57 169,-57"/>
<polygon fill="none" stroke="black" points="169,-57 169,-79 419,-79 419,-57 169,-57"/>
<text text-anchor="start" x="189" y="-65.2" font-family="Helvetica,sans-Serif" font-size="11.00">proc_flag_gridsquare_has_current_data</text>
<polygon fill="none" stroke="black" points="419,-57 419,-79 485,-79 485,-57 419,-57"/>
<text text-anchor="start" x="422" y="-65.2" font-family="Helvetica,sans-Serif" font-size="11.00">int4[10]</text>
<polygon fill="#ffffff" stroke="transparent" points="169,-39 169,-57 268,-57 268,-39 169,-39"/>
<polygon fill="none" stroke="black" points="169,-39 169,-57 268,-57 268,-39 169,-39"/>
<text text-anchor="start" x="172" y="-45.2" font-family="Helvetica,sans-Serif" font-size="11.00">&lt; 1</text>
<polygon fill="#ffffff" stroke="transparent" points="268,-39 268,-57 419,-57 419,-39 268,-39"/>
<polygon fill="none" stroke="black" points="268,-39 268,-57 419,-57 419,-39 268,-39"/>
<text text-anchor="start" x="349" y="-45.2" font-family="Helvetica,sans-Serif" font-size="11.00">698,835 rows</text>
<polygon fill="#ffffff" stroke="transparent" points="419,-39 419,-57 485,-57 485,-39 419,-39"/>
<polygon fill="none" stroke="black" points="419,-39 419,-57 485,-57 485,-39 419,-39"/>
<text text-anchor="start" x="466" y="-45.2" font-family="Helvetica,sans-Serif" font-size="11.00">1 &gt;</text>
<polygon fill="none" stroke="black" stroke-width="2" points="168,-38 168,-366 486,-366 486,-38 168,-38"/>
</a>
</g>
</g>
<!-- grids -->
<g id="node2" class="node">
<title>grids</title>
<g id="a_node2"><a xlink:href="../../tables/grids.html" xlink:title="grids" target="_top">
<polygon fill="#ffffff" stroke="transparent" points="8,-219 8,-343 118,-343 118,-219 8,-219"/>
<polygon fill="#f5f5f5" stroke="transparent" points="8,-321 8,-343 118,-343 118,-321 8,-321"/>
<polygon fill="none" stroke="black" points="8,-321 8,-343 118,-343 118,-321 8,-321"/>
<text text-anchor="start" x="13" y="-330.2" font-family="Helvetica,sans-Serif" font-weight="bold" font-size="11.00">grids</text>
<text text-anchor="start" x="83" y="-329.2" font-family="Helvetica,sans-Serif" font-size="11.00">[table]</text>
<polygon fill="none" stroke="black" points="8,-299 8,-321 118,-321 118,-299 8,-299"/>
<image xlink:href="../../images/primaryKeys.png" width="11px" height="12px" preserveAspectRatio="xMinYMin meet" x="13" y="-316"/>
<text text-anchor="start" x="28" y="-307.2" font-family="Helvetica,sans-Serif" font-size="11.00">id</text>
<polygon fill="#ffffff" stroke="transparent" points="8,-277 8,-299 118,-299 118,-277 8,-277"/>
<polygon fill="none" stroke="black" points="8,-277 8,-299 118,-299 118,-277 8,-277"/>
<text text-anchor="start" x="28" y="-285.2" font-family="Helvetica,sans-Serif" font-size="11.00">name</text>
<polygon fill="#ffffff" stroke="transparent" points="8,-255 8,-277 118,-277 118,-255 8,-255"/>
<polygon fill="none" stroke="black" points="8,-255 8,-277 118,-277 118,-255 8,-255"/>
<text text-anchor="start" x="28" y="-263.2" font-family="Helvetica,sans-Serif" font-size="11.00">name_etl</text>
<polygon fill="none" stroke="black" points="8,-237 8,-255 118,-255 118,-237 8,-237"/>
<text text-anchor="start" x="11" y="-243.2" font-family="Helvetica,sans-Serif" font-size="11.00">...</text>
<polygon fill="#ffffff" stroke="transparent" points="8,-219 8,-237 38,-237 38,-219 8,-219"/>
<polygon fill="none" stroke="black" points="8,-219 8,-237 38,-237 38,-219 8,-219"/>
<text text-anchor="start" x="11" y="-225.2" font-family="Helvetica,sans-Serif" font-size="11.00"> &#160;</text>
<polygon fill="#ffffff" stroke="transparent" points="38,-219 38,-237 87,-237 87,-219 38,-219"/>
<polygon fill="none" stroke="black" points="38,-219 38,-237 87,-237 87,-219 38,-219"/>
<text text-anchor="start" x="50" y="-225.2" font-family="Helvetica,sans-Serif" font-size="11.00">2 rows</text>
<polygon fill="#ffffff" stroke="transparent" points="87,-219 87,-237 118,-237 118,-219 87,-219"/>
<polygon fill="none" stroke="black" points="87,-219 87,-237 118,-237 118,-219 87,-219"/>
<text text-anchor="start" x="99" y="-225.2" font-family="Helvetica,sans-Serif" font-size="11.00">1 &gt;</text>
</a>
</g>
</g>
<!-- grid_squares&#45;&gt;grids -->
<g id="edge1" class="edge">
<title>grid_squares:w&#45;&gt;grids:e</title>
<path fill="none" stroke="black" d="M153.49,-310C142.18,-310 134.99,-310 119,-310"/>
<polygon fill="black" stroke="black" points="160,-310 168,-313.6 164,-310 168,-310 168,-310 168,-310 164,-310 168,-306.4 160,-310 160,-310"/>
<ellipse fill="none" stroke="black" cx="156.8" cy="-310" rx="3.2" ry="3.2"/>
</g>
<!-- loc_grid_squares -->
<g id="node3" class="node">
<title>loc_grid_squares</title>
<g id="a_node3"><a xlink:href="../../tables/loc_grid_squares.html" xlink:title="loc_grid_squares" target="_top">
<polygon fill="#ffffff" stroke="transparent" points="536,-333 536,-439 672,-439 672,-333 536,-333"/>
<polygon fill="#f5f5f5" stroke="transparent" points="536,-417 536,-439 672,-439 672,-417 536,-417"/>
<polygon fill="none" stroke="black" points="536,-417 536,-439 672,-439 672,-417 536,-417"/>
<text text-anchor="start" x="541" y="-426.2" font-family="Helvetica,sans-Serif" font-weight="bold" font-size="11.00">loc_grid_squares</text>
<text text-anchor="start" x="637" y="-425.2" font-family="Helvetica,sans-Serif" font-size="11.00">[table]</text>
<polygon fill="none" stroke="black" points="536,-395 536,-417 672,-417 672,-395 536,-395"/>
<image xlink:href="../../images/primaryKeys.png" width="11px" height="12px" preserveAspectRatio="xMinYMin meet" x="541" y="-412"/>
<text text-anchor="start" x="564" y="-403.2" font-family="Helvetica,sans-Serif" font-size="11.00">id</text>
<polygon fill="#ffffff" stroke="transparent" points="536,-373 536,-395 672,-395 672,-373 536,-373"/>
<polygon fill="none" stroke="black" points="536,-373 536,-395 672,-395 672,-373 536,-373"/>
<image xlink:href="../../images/foreignKeys.png" width="11px" height="12px" preserveAspectRatio="xMinYMin meet" x="541" y="-390"/>
<text text-anchor="start" x="564" y="-381.2" font-family="Helvetica,sans-Serif" font-size="11.00">loc_id</text>
<polygon fill="#ffffff" stroke="transparent" points="536,-351 536,-373 672,-373 672,-351 536,-351"/>
<polygon fill="none" stroke="black" points="536,-351 536,-373 672,-373 672,-351 536,-351"/>
<image xlink:href="../../images/foreignKeys.png" width="11px" height="12px" preserveAspectRatio="xMinYMin meet" x="541" y="-368"/>
<text text-anchor="start" x="564" y="-359.2" font-family="Helvetica,sans-Serif" font-size="11.00">grid_square_id</text>
<polygon fill="#ffffff" stroke="transparent" points="536,-333 536,-351 575,-351 575,-333 536,-333"/>
<polygon fill="none" stroke="black" points="536,-333 536,-351 575,-351 575,-333 536,-333"/>
<text text-anchor="start" x="539" y="-339.2" font-family="Helvetica,sans-Serif" font-size="11.00">&lt; 2</text>
<polygon fill="#ffffff" stroke="transparent" points="575,-333 575,-351 650,-351 650,-333 575,-333"/>
<polygon fill="none" stroke="black" points="575,-333 575,-351 650,-351 650,-333 575,-333"/>
<text text-anchor="start" x="586" y="-339.2" font-family="Helvetica,sans-Serif" font-size="11.00">81,221 rows</text>
<polygon fill="#ffffff" stroke="transparent" points="650,-333 650,-351 672,-351 672,-333 650,-333"/>
<polygon fill="none" stroke="black" points="650,-333 650,-351 672,-351 672,-333 650,-333"/>
<text text-anchor="start" x="662" y="-339.2" font-family="Helvetica,sans-Serif" font-size="11.00"> &#160;</text>
</a>
</g>
</g>
<!-- loc_grid_squares&#45;&gt;grid_squares -->
<g id="edge2" class="edge">
<title>loc_grid_squares:w&#45;&gt;grid_squares:e</title>
<path fill="none" stroke="black" d="M520.88,-357.83C508.92,-349.59 505.55,-332 486,-332"/>
<polygon fill="black" stroke="black" points="527.33,-359.73 533.98,-365.45 531.16,-360.87 535,-362 535,-362 535,-362 531.16,-360.87 536.02,-358.55 527.33,-359.73 527.33,-359.73"/>
<ellipse fill="none" stroke="black" cx="524.26" cy="-358.83" rx="3.2" ry="3.2"/>
</g>
<!-- locations -->
<g id="node4" class="node">
<title>locations</title>
<g id="a_node4"><a xlink:href="../../tables/locations.html" xlink:title="locations" target="_top">
<polygon fill="#ffffff" stroke="transparent" points="271.5,-388 271.5,-446 382.5,-446 382.5,-388 271.5,-388"/>
<polygon fill="#f5f5f5" stroke="transparent" points="272,-424 272,-446 383,-446 383,-424 272,-424"/>
<polygon fill="none" stroke="black" points="272,-424 272,-446 383,-446 383,-424 272,-424"/>
<text text-anchor="start" x="277" y="-433.2" font-family="Helvetica,sans-Serif" font-weight="bold" font-size="11.00">locations</text>
<text text-anchor="start" x="348" y="-432.2" font-family="Helvetica,sans-Serif" font-size="11.00">[table]</text>
<polygon fill="none" stroke="black" points="272,-406 272,-424 383,-424 383,-406 272,-406"/>
<text text-anchor="start" x="275" y="-412.2" font-family="Helvetica,sans-Serif" font-size="11.00">...</text>
<polygon fill="#ffffff" stroke="transparent" points="272,-388 272,-406 294,-406 294,-388 272,-388"/>
<polygon fill="none" stroke="black" points="272,-388 272,-406 294,-406 294,-388 272,-388"/>
<text text-anchor="start" x="275" y="-394.2" font-family="Helvetica,sans-Serif" font-size="11.00">&lt; 2</text>
<polygon fill="#ffffff" stroke="transparent" points="294,-388 294,-406 361,-406 361,-388 294,-388"/>
<polygon fill="none" stroke="black" points="294,-388 294,-406 361,-406 361,-388 294,-388"/>
<text text-anchor="start" x="297" y="-394.2" font-family="Helvetica,sans-Serif" font-size="11.00">81,629 rows</text>
<polygon fill="#ffffff" stroke="transparent" points="361,-388 361,-406 383,-406 383,-388 361,-388"/>
<polygon fill="none" stroke="black" points="361,-388 361,-406 383,-406 383,-388 361,-388"/>
<text text-anchor="start" x="364" y="-394.2" font-family="Helvetica,sans-Serif" font-size="11.00">3 &gt;</text>
</a>
</g>
</g>
<!-- loc_grid_squares&#45;&gt;locations -->
<g id="edge3" class="edge">
<title>loc_grid_squares:w&#45;&gt;locations:e</title>
<path fill="none" stroke="black" d="M520.6,-384.49C464.11,-388.43 447.43,-415 384,-415"/>
<polygon fill="black" stroke="black" points="527,-384.27 535.12,-387.6 531,-384.14 535,-384 535,-384 535,-384 531,-384.14 534.88,-380.4 527,-384.27 527,-384.27"/>
<ellipse fill="none" stroke="black" cx="523.81" cy="-384.38" rx="3.2" ry="3.2"/>
</g>
</g>
</svg>
