<?xml version="1.0" encoding="UTF-8" standalone="no"?>
<!DOCTYPE svg PUBLIC "-//W3C//DTD SVG 1.1//EN"
 "http://www.w3.org/Graphics/SVG/1.1/DTD/svg11.dtd">
<!-- Generated by graphviz version 2.50.0 (20211204.2007)
 -->
<!-- Title: oneDegreeRelationshipsDiagram Pages: 1 -->
<svg width="504pt" height="267pt"
 viewBox="0.00 0.00 504.00 267.00" xmlns="http://www.w3.org/2000/svg" xmlns:xlink="http://www.w3.org/1999/xlink">
<g id="graph0" class="graph" transform="scale(1 1) rotate(0) translate(4 263)">
<title>oneDegreeRelationshipsDiagram</title>
<polygon fill="#ffffff" stroke="transparent" points="-4,4 -4,-263 500,-263 500,4 -4,4"/>
<text text-anchor="middle" x="72.5" y="-7.2" font-family="Helvetica,sans-Serif" font-size="11.00">Generated by SchemaSpy</text>
<!-- grid_squares -->
<g id="node1" class="node">
<title>grid_squares</title>
<g id="a_node1"><a xlink:href="../../tables/grid_squares.html" xlink:title="grid_squares" target="_top">
<polygon fill="#ffffff" stroke="transparent" points="238,-43 238,-255 488,-255 488,-43 238,-43"/>
<polygon fill="#f5f5f5" stroke="transparent" points="238,-233 238,-255 488,-255 488,-233 238,-233"/>
<polygon fill="none" stroke="black" points="238,-233 238,-255 488,-255 488,-233 238,-233"/>
<text text-anchor="start" x="243" y="-242.2" font-family="Helvetica,sans-Serif" font-weight="bold" font-size="11.00">grid_squares</text>
<text text-anchor="start" x="453" y="-241.2" font-family="Helvetica,sans-Serif" font-size="11.00">[table]</text>
<polygon fill="none" stroke="black" points="238,-211 238,-233 488,-233 488,-211 238,-211"/>
<image xlink:href="../../images/primaryKeys.png" width="11px" height="12px" preserveAspectRatio="xMinYMin meet" x="243" y="-228"/>
<text text-anchor="start" x="258" y="-219.2" font-family="Helvetica,sans-Serif" font-size="11.00">id</text>
<polygon fill="#ffffff" stroke="transparent" points="238,-189 238,-211 488,-211 488,-189 238,-189"/>
<polygon fill="none" stroke="black" points="238,-189 238,-211 488,-211 488,-189 238,-189"/>
<image xlink:href="../../images/foreignKeys.png" width="11px" height="12px" preserveAspectRatio="xMinYMin meet" x="243" y="-206"/>
<text text-anchor="start" x="258" y="-197.2" font-family="Helvetica,sans-Serif" font-size="11.00">grid_id</text>
<polygon fill="#ffffff" stroke="transparent" points="238,-167 238,-189 488,-189 488,-167 238,-167"/>
<polygon fill="none" stroke="black" points="238,-167 238,-189 488,-189 488,-167 238,-167"/>
<text text-anchor="start" x="258" y="-175.2" font-family="Helvetica,sans-Serif" font-size="11.00">serial_lngid</text>
<polygon fill="#ffffff" stroke="transparent" points="238,-145 238,-167 488,-167 488,-145 238,-145"/>
<polygon fill="none" stroke="black" points="238,-145 238,-167 488,-167 488,-145 238,-145"/>
<text text-anchor="start" x="258" y="-153.2" font-family="Helvetica,sans-Serif" font-size="11.00">serial_latid</text>
<polygon fill="#ffffff" stroke="transparent" points="238,-123 238,-145 488,-145 488,-123 238,-123"/>
<polygon fill="none" stroke="black" points="238,-123 238,-145 488,-145 488,-123 238,-123"/>
<text text-anchor="start" x="258" y="-131.2" font-family="Helvetica,sans-Serif" font-size="11.00">name_etl</text>
<polygon fill="#ffffff" stroke="transparent" points="238,-101 238,-123 488,-123 488,-101 238,-101"/>
<polygon fill="none" stroke="black" points="238,-101 238,-123 488,-123 488,-101 238,-101"/>
<text text-anchor="start" x="258" y="-109.2" font-family="Helvetica,sans-Serif" font-size="11.00">version</text>
<polygon fill="#ffffff" stroke="transparent" points="238,-79 238,-101 488,-101 488,-79 238,-79"/>
<polygon fill="none" stroke="black" points="238,-79 238,-101 488,-101 488,-79 238,-79"/>
<text text-anchor="start" x="258" y="-87.2" font-family="Helvetica,sans-Serif" font-size="11.00">proc_flag_gridsquare_has_current_data</text>
<polygon fill="none" stroke="black" points="238,-61 238,-79 488,-79 488,-61 238,-61"/>
<text text-anchor="start" x="241" y="-67.2" font-family="Helvetica,sans-Serif" font-size="11.00">...</text>
<polygon fill="#ffffff" stroke="transparent" points="238,-43 238,-61 326,-61 326,-43 238,-43"/>
<polygon fill="none" stroke="black" points="238,-43 238,-61 326,-61 326,-43 238,-43"/>
<text text-anchor="start" x="241" y="-49.2" font-family="Helvetica,sans-Serif" font-size="11.00">&lt; 1</text>
<polygon fill="#ffffff" stroke="transparent" points="326,-43 326,-61 432,-61 432,-43 326,-43"/>
<polygon fill="none" stroke="black" points="326,-43 326,-61 432,-61 432,-43 326,-43"/>
<text text-anchor="start" x="362" y="-49.2" font-family="Helvetica,sans-Serif" font-size="11.00">698,835 rows</text>
<polygon fill="#ffffff" stroke="transparent" points="432,-43 432,-61 488,-61 488,-43 432,-43"/>
<polygon fill="none" stroke="black" points="432,-43 432,-61 488,-61 488,-43 432,-43"/>
<text text-anchor="start" x="469" y="-49.2" font-family="Helvetica,sans-Serif" font-size="11.00">1 &gt;</text>
</a>
</g>
</g>
<!-- grids -->
<g id="node2" class="node">
<title>grids</title>
<g id="a_node2"><a xlink:href="../../tables/grids.html" xlink:title="grids" target="_top">
<polygon fill="#ffffff" stroke="transparent" points="8,-37 8,-235 189,-235 189,-37 8,-37"/>
<polygon fill="#f5f5f5" stroke="transparent" points="10.5,-211 10.5,-233 187.5,-233 187.5,-211 10.5,-211"/>
<polygon fill="none" stroke="black" points="10.5,-211 10.5,-233 187.5,-233 187.5,-211 10.5,-211"/>
<text text-anchor="start" x="15.5" y="-220.2" font-family="Helvetica,sans-Serif" font-weight="bold" font-size="11.00">grids</text>
<text text-anchor="start" x="152.5" y="-219.2" font-family="Helvetica,sans-Serif" font-size="11.00">[table]</text>
<polygon fill="none" stroke="black" points="10.5,-189 10.5,-211 120.5,-211 120.5,-189 10.5,-189"/>
<image xlink:href="../../images/primaryKeys.png" width="11px" height="12px" preserveAspectRatio="xMinYMin meet" x="15.5" y="-206"/>
<text text-anchor="start" x="30.5" y="-197.2" font-family="Helvetica,sans-Serif" font-size="11.00">id</text>
<polygon fill="none" stroke="black" points="120.5,-189 120.5,-211 187.5,-211 187.5,-189 120.5,-189"/>
<text text-anchor="start" x="123.5" y="-197.2" font-family="Helvetica,sans-Serif" font-size="11.00">serial[10]</text>
<polygon fill="#ffffff" stroke="transparent" points="10.5,-167 10.5,-189 120.5,-189 120.5,-167 10.5,-167"/>
<polygon fill="none" stroke="black" points="10.5,-167 10.5,-189 120.5,-189 120.5,-167 10.5,-167"/>
<text text-anchor="start" x="30.5" y="-175.2" font-family="Helvetica,sans-Serif" font-size="11.00">name</text>
<polygon fill="none" stroke="black" points="120.5,-167 120.5,-189 187.5,-189 187.5,-167 120.5,-167"/>
<text text-anchor="start" x="123.5" y="-175.2" font-family="Helvetica,sans-Serif" font-size="11.00">varchar[128]</text>
<polygon fill="#ffffff" stroke="transparent" points="10.5,-145 10.5,-167 120.5,-167 120.5,-145 10.5,-145"/>
<polygon fill="none" stroke="black" points="10.5,-145 10.5,-167 120.5,-167 120.5,-145 10.5,-145"/>
<text text-anchor="start" x="30.5" y="-153.2" font-family="Helvetica,sans-Serif" font-size="11.00">name_etl</text>
<polygon fill="none" stroke="black" points="120.5,-145 120.5,-167 187.5,-167 187.5,-145 120.5,-145"/>
<text text-anchor="start" x="123.5" y="-153.2" font-family="Helvetica,sans-Serif" font-size="11.00">varchar[16]</text>
<polygon fill="none" stroke="black" points="10.5,-123 10.5,-145 120.5,-145 120.5,-123 10.5,-123"/>
<text text-anchor="start" x="30.5" y="-131.2" font-family="Helvetica,sans-Serif" font-size="11.00">resolution_km</text>
<polygon fill="none" stroke="black" points="120.5,-123 120.5,-145 187.5,-145 187.5,-123 120.5,-123"/>
<text text-anchor="start" x="123.5" y="-131.2" font-family="Helvetica,sans-Serif" font-size="11.00">int4[10]</text>
<polygon fill="none" stroke="black" points="10.5,-101 10.5,-123 120.5,-123 120.5,-101 10.5,-101"/>
<text text-anchor="start" x="30.5" y="-109.2" font-family="Helvetica,sans-Serif" font-size="11.00">resolution_deg</text>
<polygon fill="none" stroke="black" points="120.5,-101 120.5,-123 187.5,-123 187.5,-101 120.5,-101"/>
<text text-anchor="start" x="123.5" y="-109.2" font-family="Helvetica,sans-Serif" font-size="11.00">float8[17,17]</text>
<polygon fill="none" stroke="black" points="10.5,-79 10.5,-101 120.5,-101 120.5,-79 10.5,-79"/>
<text text-anchor="start" x="30.5" y="-87.2" font-family="Helvetica,sans-Serif" font-size="11.00">resolution_type</text>
<polygon fill="none" stroke="black" points="120.5,-79 120.5,-101 187.5,-101 187.5,-79 120.5,-79"/>
<text text-anchor="start" x="123.5" y="-87.2" font-family="Helvetica,sans-Serif" font-size="11.00">int4[10]</text>
<polygon fill="none" stroke="black" points="10.5,-57 10.5,-79 120.5,-79 120.5,-57 10.5,-57"/>
<text text-anchor="start" x="30.5" y="-65.2" font-family="Helvetica,sans-Serif" font-size="11.00">priority</text>
<polygon fill="none" stroke="black" points="120.5,-57 120.5,-79 187.5,-79 187.5,-57 120.5,-57"/>
<text text-anchor="start" x="123.5" y="-65.2" font-family="Helvetica,sans-Serif" font-size="11.00">int4[10]</text>
<polygon fill="#ffffff" stroke="transparent" points="10.5,-39 10.5,-57 56.5,-57 56.5,-39 10.5,-39"/>
<polygon fill="none" stroke="black" points="10.5,-39 10.5,-57 56.5,-57 56.5,-39 10.5,-39"/>
<text text-anchor="start" x="13.5" y="-45.2" font-family="Helvetica,sans-Serif" font-size="11.00">&lt; 0</text>
<polygon fill="#ffffff" stroke="transparent" points="56.5,-39 56.5,-57 120.5,-57 120.5,-39 56.5,-39"/>
<polygon fill="none" stroke="black" points="56.5,-39 56.5,-57 120.5,-57 120.5,-39 56.5,-39"/>
<text text-anchor="start" x="83.5" y="-45.2" font-family="Helvetica,sans-Serif" font-size="11.00">2 rows</text>
<polygon fill="#ffffff" stroke="transparent" points="120.5,-39 120.5,-57 187.5,-57 187.5,-39 120.5,-39"/>
<polygon fill="none" stroke="black" points="120.5,-39 120.5,-57 187.5,-57 187.5,-39 120.5,-39"/>
<text text-anchor="start" x="168.5" y="-45.2" font-family="Helvetica,sans-Serif" font-size="11.00">1 &gt;</text>
<polygon fill="none" stroke="black" stroke-width="2" points="9,-38 9,-234 188,-234 188,-38 9,-38"/>
</a>
</g>
</g>
<!-- grid_squares&#45;&gt;grids -->
<g id="edge1" class="edge">
<title>grid_squares:w&#45;&gt;grids:e</title>
<path fill="none" stroke="black" d="M222.28,-200C211.29,-200 204.16,-200 188.5,-200"/>
<polygon fill="black" stroke="black" points="229,-200 237,-203.6 233,-200 237,-200 237,-200 237,-200 233,-200 237,-196.4 229,-200 229,-200"/>
<ellipse fill="none" stroke="black" cx="225.8" cy="-200" rx="3.2" ry="3.2"/>
</g>
</g>
</svg>
