<?xml version="1.0" encoding="UTF-8" standalone="no"?>
<!DOCTYPE svg PUBLIC "-//W3C//DTD SVG 1.1//EN"
 "http://www.w3.org/Graphics/SVG/1.1/DTD/svg11.dtd">
<!-- Generated by graphviz version 2.50.0 (20211204.2007)
 -->
<!-- Title: oneDegreeRelationshipsDiagram Pages: 1 -->
<svg width="566pt" height="300pt"
 viewBox="0.00 0.00 566.00 300.00" xmlns="http://www.w3.org/2000/svg" xmlns:xlink="http://www.w3.org/1999/xlink">
<g id="graph0" class="graph" transform="scale(1 1) rotate(0) translate(4 296)">
<title>oneDegreeRelationshipsDiagram</title>
<polygon fill="#ffffff" stroke="transparent" points="-4,4 -4,-296 562,-296 562,4 -4,4"/>
<text text-anchor="middle" x="72.5" y="-7.2" font-family="Helvetica,sans-Serif" font-size="11.00">Generated by SchemaSpy</text>
<!-- folders -->
<g id="node1" class="node">
<title>folders</title>
<g id="a_node1"><a xlink:href="../../tables/folders.html" xlink:title="folders" target="_top">
<polygon fill="#ffffff" stroke="transparent" points="429,-164 429,-288 525,-288 525,-164 429,-164"/>
<polygon fill="#f5f5f5" stroke="transparent" points="429,-266 429,-288 525,-288 525,-266 429,-266"/>
<polygon fill="none" stroke="black" points="429,-266 429,-288 525,-288 525,-266 429,-266"/>
<text text-anchor="start" x="434" y="-275.2" font-family="Helvetica,sans-Serif" font-weight="bold" font-size="11.00">folders</text>
<text text-anchor="start" x="490" y="-274.2" font-family="Helvetica,sans-Serif" font-size="11.00">[table]</text>
<polygon fill="none" stroke="black" points="429,-244 429,-266 525,-266 525,-244 429,-244"/>
<image xlink:href="../../images/primaryKeys.png" width="11px" height="12px" preserveAspectRatio="xMinYMin meet" x="434" y="-261"/>
<text text-anchor="start" x="455" y="-252.2" font-family="Helvetica,sans-Serif" font-size="11.00">id</text>
<polygon fill="#ffffff" stroke="transparent" points="429,-222 429,-244 525,-244 525,-222 429,-222"/>
<polygon fill="none" stroke="black" points="429,-222 429,-244 525,-244 525,-222 429,-222"/>
<image xlink:href="../../images/foreignKeys.png" width="11px" height="12px" preserveAspectRatio="xMinYMin meet" x="434" y="-239"/>
<text text-anchor="start" x="455" y="-230.2" font-family="Helvetica,sans-Serif" font-size="11.00">group_id</text>
<polygon fill="#ffffff" stroke="transparent" points="429,-200 429,-222 525,-222 525,-200 429,-200"/>
<polygon fill="none" stroke="black" points="429,-200 429,-222 525,-222 525,-200 429,-200"/>
<text text-anchor="start" x="455" y="-208.2" font-family="Helvetica,sans-Serif" font-size="11.00">name</text>
<polygon fill="none" stroke="black" points="429,-182 429,-200 525,-200 525,-182 429,-182"/>
<text text-anchor="start" x="432" y="-188.2" font-family="Helvetica,sans-Serif" font-size="11.00">...</text>
<polygon fill="#ffffff" stroke="transparent" points="429,-164 429,-182 451,-182 451,-164 429,-164"/>
<polygon fill="none" stroke="black" points="429,-164 429,-182 451,-182 451,-164 429,-164"/>
<text text-anchor="start" x="432" y="-170.2" font-family="Helvetica,sans-Serif" font-size="11.00">&lt; 1</text>
<polygon fill="#ffffff" stroke="transparent" points="451,-164 451,-182 503,-182 503,-164 451,-164"/>
<polygon fill="none" stroke="black" points="451,-164 451,-182 503,-182 503,-164 451,-164"/>
<text text-anchor="start" x="454" y="-170.2" font-family="Helvetica,sans-Serif" font-size="11.00">311 rows</text>
<polygon fill="#ffffff" stroke="transparent" points="503,-164 503,-182 525,-182 525,-164 503,-164"/>
<polygon fill="none" stroke="black" points="503,-164 503,-182 525,-182 525,-164 503,-164"/>
<text text-anchor="start" x="506" y="-170.2" font-family="Helvetica,sans-Serif" font-size="11.00">1 &gt;</text>
</a>
</g>
</g>
<!-- groups -->
<g id="node2" class="node">
<title>groups</title>
<g id="a_node2"><a xlink:href="../../tables/groups.html" xlink:title="groups" target="_top">
<polygon fill="#ffffff" stroke="transparent" points="174,-41 174,-195 355,-195 355,-41 174,-41"/>
<polygon fill="#f5f5f5" stroke="transparent" points="176.5,-171 176.5,-193 353.5,-193 353.5,-171 176.5,-171"/>
<polygon fill="none" stroke="black" points="176.5,-171 176.5,-193 353.5,-193 353.5,-171 176.5,-171"/>
<text text-anchor="start" x="181.5" y="-180.2" font-family="Helvetica,sans-Serif" font-weight="bold" font-size="11.00">groups</text>
<text text-anchor="start" x="318.5" y="-179.2" font-family="Helvetica,sans-Serif" font-size="11.00">[table]</text>
<polygon fill="none" stroke="black" points="176.5,-149 176.5,-171 268.5,-171 268.5,-149 176.5,-149"/>
<image xlink:href="../../images/primaryKeys.png" width="11px" height="12px" preserveAspectRatio="xMinYMin meet" x="181.5" y="-166"/>
<text text-anchor="start" x="196.5" y="-157.2" font-family="Helvetica,sans-Serif" font-size="11.00">id</text>
<polygon fill="none" stroke="black" points="268.5,-149 268.5,-171 353.5,-171 353.5,-149 268.5,-149"/>
<text text-anchor="start" x="271.5" y="-157.2" font-family="Helvetica,sans-Serif" font-size="11.00">serial[10]</text>
<polygon fill="#ffffff" stroke="transparent" points="176.5,-127 176.5,-149 268.5,-149 268.5,-127 176.5,-127"/>
<polygon fill="none" stroke="black" points="176.5,-127 176.5,-149 268.5,-149 268.5,-127 176.5,-127"/>
<image xlink:href="../../images/foreignKeys.png" width="11px" height="12px" preserveAspectRatio="xMinYMin meet" x="181.5" y="-144"/>
<text text-anchor="start" x="196.5" y="-135.2" font-family="Helvetica,sans-Serif" font-size="11.00">customer_id</text>
<polygon fill="none" stroke="black" points="268.5,-127 268.5,-149 353.5,-149 353.5,-127 268.5,-127"/>
<text text-anchor="start" x="271.5" y="-135.2" font-family="Helvetica,sans-Serif" font-size="11.00">int4[10]</text>
<polygon fill="#ffffff" stroke="transparent" points="176.5,-105 176.5,-127 268.5,-127 268.5,-105 176.5,-105"/>
<polygon fill="none" stroke="black" points="176.5,-105 176.5,-127 268.5,-127 268.5,-105 176.5,-105"/>
<text text-anchor="start" x="196.5" y="-113.2" font-family="Helvetica,sans-Serif" font-size="11.00">name</text>
<polygon fill="none" stroke="black" points="268.5,-105 268.5,-127 353.5,-127 353.5,-105 268.5,-105"/>
<text text-anchor="start" x="271.5" y="-113.2" font-family="Helvetica,sans-Serif" font-size="11.00">varchar[256]</text>
<polygon fill="none" stroke="black" points="176.5,-83 176.5,-105 268.5,-105 268.5,-83 176.5,-83"/>
<text text-anchor="start" x="196.5" y="-91.2" font-family="Helvetica,sans-Serif" font-size="11.00">created_at</text>
<polygon fill="none" stroke="black" points="268.5,-83 268.5,-105 353.5,-105 353.5,-83 268.5,-83"/>
<text text-anchor="start" x="271.5" y="-91.2" font-family="Helvetica,sans-Serif" font-size="11.00">timestamp[29,6]</text>
<polygon fill="none" stroke="black" points="176.5,-61 176.5,-83 268.5,-83 268.5,-61 176.5,-61"/>
<text text-anchor="start" x="196.5" y="-69.2" font-family="Helvetica,sans-Serif" font-size="11.00">updated_at</text>
<polygon fill="none" stroke="black" points="268.5,-61 268.5,-83 353.5,-83 353.5,-61 268.5,-61"/>
<text text-anchor="start" x="271.5" y="-69.2" font-family="Helvetica,sans-Serif" font-size="11.00">timestamp[29,6]</text>
<polygon fill="#ffffff" stroke="transparent" points="176.5,-43 176.5,-61 207.5,-61 207.5,-43 176.5,-43"/>
<polygon fill="none" stroke="black" points="176.5,-43 176.5,-61 207.5,-61 207.5,-43 176.5,-43"/>
<text text-anchor="start" x="179.5" y="-49.2" font-family="Helvetica,sans-Serif" font-size="11.00">&lt; 1</text>
<polygon fill="#ffffff" stroke="transparent" points="207.5,-43 207.5,-61 268.5,-61 268.5,-43 207.5,-43"/>
<polygon fill="none" stroke="black" points="207.5,-43 207.5,-61 268.5,-61 268.5,-43 207.5,-43"/>
<text text-anchor="start" x="219.5" y="-49.2" font-family="Helvetica,sans-Serif" font-size="11.00">150 rows</text>
<polygon fill="#ffffff" stroke="transparent" points="268.5,-43 268.5,-61 353.5,-61 353.5,-43 268.5,-43"/>
<polygon fill="none" stroke="black" points="268.5,-43 268.5,-61 353.5,-61 353.5,-43 268.5,-43"/>
<text text-anchor="start" x="334.5" y="-49.2" font-family="Helvetica,sans-Serif" font-size="11.00">2 &gt;</text>
<polygon fill="none" stroke="black" stroke-width="2" points="175,-42 175,-194 354,-194 354,-42 175,-42"/>
</a>
</g>
</g>
<!-- folders&#45;&gt;groups -->
<g id="edge1" class="edge">
<title>folders:w&#45;&gt;groups:e</title>
<path fill="none" stroke="black" d="M413.89,-230.05C385.51,-216.39 394.97,-160 354.5,-160"/>
<polygon fill="black" stroke="black" points="420.17,-231.36 427.26,-236.52 424.08,-232.18 428,-233 428,-233 428,-233 424.08,-232.18 428.74,-229.48 420.17,-231.36 420.17,-231.36"/>
<ellipse fill="none" stroke="black" cx="417.04" cy="-230.71" rx="3.2" ry="3.2"/>
</g>
<!-- customers -->
<g id="node4" class="node">
<title>customers</title>
<g id="a_node4"><a xlink:href="../../tables/customers.html" xlink:title="customers" target="_top">
<polygon fill="#ffffff" stroke="transparent" points="8,-69 8,-171 125,-171 125,-69 8,-69"/>
<polygon fill="#f5f5f5" stroke="transparent" points="8.5,-149 8.5,-171 125.5,-171 125.5,-149 8.5,-149"/>
<polygon fill="none" stroke="black" points="8.5,-149 8.5,-171 125.5,-171 125.5,-149 8.5,-149"/>
<text text-anchor="start" x="13.5" y="-158.2" font-family="Helvetica,sans-Serif" font-weight="bold" font-size="11.00">customers</text>
<text text-anchor="start" x="90.5" y="-157.2" font-family="Helvetica,sans-Serif" font-size="11.00">[table]</text>
<polygon fill="none" stroke="black" points="8.5,-127 8.5,-149 125.5,-149 125.5,-127 8.5,-127"/>
<image xlink:href="../../images/primaryKeys.png" width="11px" height="12px" preserveAspectRatio="xMinYMin meet" x="13.5" y="-144"/>
<text text-anchor="start" x="28.5" y="-135.2" font-family="Helvetica,sans-Serif" font-size="11.00">id</text>
<polygon fill="#ffffff" stroke="transparent" points="8.5,-105 8.5,-127 125.5,-127 125.5,-105 8.5,-105"/>
<polygon fill="none" stroke="black" points="8.5,-105 8.5,-127 125.5,-127 125.5,-105 8.5,-105"/>
<text text-anchor="start" x="28.5" y="-113.2" font-family="Helvetica,sans-Serif" font-size="11.00">name</text>
<polygon fill="none" stroke="black" points="8.5,-87 8.5,-105 125.5,-105 125.5,-87 8.5,-87"/>
<text text-anchor="start" x="11.5" y="-93.2" font-family="Helvetica,sans-Serif" font-size="11.00">...</text>
<polygon fill="#ffffff" stroke="transparent" points="8.5,-69 8.5,-87 36.5,-87 36.5,-69 8.5,-69"/>
<polygon fill="none" stroke="black" points="8.5,-69 8.5,-87 36.5,-87 36.5,-69 8.5,-69"/>
<text text-anchor="start" x="11.5" y="-75.2" font-family="Helvetica,sans-Serif" font-size="11.00"> &#160;</text>
<polygon fill="#ffffff" stroke="transparent" points="36.5,-69 36.5,-87 95.5,-87 95.5,-69 36.5,-69"/>
<polygon fill="none" stroke="black" points="36.5,-69 36.5,-87 95.5,-87 95.5,-69 36.5,-69"/>
<text text-anchor="start" x="46.5" y="-75.2" font-family="Helvetica,sans-Serif" font-size="11.00">938 rows</text>
<polygon fill="#ffffff" stroke="transparent" points="95.5,-69 95.5,-87 125.5,-87 125.5,-69 95.5,-69"/>
<polygon fill="none" stroke="black" points="95.5,-69 95.5,-87 125.5,-87 125.5,-69 95.5,-69"/>
<text text-anchor="start" x="106.5" y="-75.2" font-family="Helvetica,sans-Serif" font-size="11.00">5 &gt;</text>
</a>
</g>
</g>
<!-- groups&#45;&gt;customers -->
<g id="edge3" class="edge">
<title>groups:w&#45;&gt;customers:e</title>
<path fill="none" stroke="black" d="M160.99,-138C149.68,-138 142.49,-138 126.5,-138"/>
<polygon fill="black" stroke="black" points="167.5,-138 175.5,-141.6 171.5,-138 175.5,-138 175.5,-138 175.5,-138 171.5,-138 175.5,-134.4 167.5,-138 167.5,-138"/>
<ellipse fill="none" stroke="black" cx="164.3" cy="-138" rx="3.2" ry="3.2"/>
</g>
<!-- group_value_types -->
<g id="node3" class="node">
<title>group_value_types</title>
<g id="a_node3"><a xlink:href="../../tables/group_value_types.html" xlink:title="group_value_types" target="_top">
<polygon fill="#ffffff" stroke="transparent" points="404,-37 404,-143 550,-143 550,-37 404,-37"/>
<polygon fill="#f5f5f5" stroke="transparent" points="404,-121 404,-143 550,-143 550,-121 404,-121"/>
<polygon fill="none" stroke="black" points="404,-121 404,-143 550,-143 550,-121 404,-121"/>
<text text-anchor="start" x="409" y="-130.2" font-family="Helvetica,sans-Serif" font-weight="bold" font-size="11.00">group_value_types</text>
<text text-anchor="start" x="515" y="-129.2" font-family="Helvetica,sans-Serif" font-size="11.00">[table]</text>
<polygon fill="none" stroke="black" points="404,-99 404,-121 550,-121 550,-99 404,-99"/>
<image xlink:href="../../images/primaryKeys.png" width="11px" height="12px" preserveAspectRatio="xMinYMin meet" x="409" y="-116"/>
<text text-anchor="start" x="432" y="-107.2" font-family="Helvetica,sans-Serif" font-size="11.00">id</text>
<polygon fill="#ffffff" stroke="transparent" points="404,-77 404,-99 550,-99 550,-77 404,-77"/>
<polygon fill="none" stroke="black" points="404,-77 404,-99 550,-99 550,-77 404,-77"/>
<image xlink:href="../../images/foreignKeys.png" width="11px" height="12px" preserveAspectRatio="xMinYMin meet" x="409" y="-94"/>
<text text-anchor="start" x="432" y="-85.2" font-family="Helvetica,sans-Serif" font-size="11.00">group_id</text>
<polygon fill="#ffffff" stroke="transparent" points="404,-55 404,-77 550,-77 550,-55 404,-55"/>
<polygon fill="none" stroke="black" points="404,-55 404,-77 550,-77 550,-55 404,-55"/>
<image xlink:href="../../images/foreignKeys.png" width="11px" height="12px" preserveAspectRatio="xMinYMin meet" x="409" y="-72"/>
<text text-anchor="start" x="432" y="-63.2" font-family="Helvetica,sans-Serif" font-size="11.00">value_type_id</text>
<polygon fill="#ffffff" stroke="transparent" points="404,-37 404,-55 461,-55 461,-37 404,-37"/>
<polygon fill="none" stroke="black" points="404,-37 404,-55 461,-55 461,-37 404,-37"/>
<text text-anchor="start" x="407" y="-43.2" font-family="Helvetica,sans-Serif" font-size="11.00">&lt; 2</text>
<polygon fill="#ffffff" stroke="transparent" points="461,-37 461,-55 519,-55 519,-37 461,-37"/>
<polygon fill="none" stroke="black" points="461,-37 461,-55 519,-55 519,-37 461,-37"/>
<text text-anchor="start" x="482" y="-43.2" font-family="Helvetica,sans-Serif" font-size="11.00">0 rows</text>
<polygon fill="#ffffff" stroke="transparent" points="519,-37 519,-55 550,-55 550,-37 519,-37"/>
<polygon fill="none" stroke="black" points="519,-37 519,-55 550,-55 550,-37 519,-37"/>
<text text-anchor="start" x="540" y="-43.2" font-family="Helvetica,sans-Serif" font-size="11.00"> &#160;</text>
</a>
</g>
</g>
<!-- group_value_types&#45;&gt;groups -->
<g id="edge2" class="edge">
<title>group_value_types:w&#45;&gt;groups:e</title>
<path fill="none" stroke="black" d="M389.33,-92.72C371.73,-108.74 387.05,-160 354.5,-160"/>
<polygon fill="black" stroke="black" points="395.44,-90.61 404.18,-91.4 399.22,-89.31 403,-88 403,-88 403,-88 399.22,-89.31 401.82,-84.6 395.44,-90.61 395.44,-90.61"/>
<ellipse fill="none" stroke="black" cx="392.41" cy="-91.66" rx="3.2" ry="3.2"/>
</g>
</g>
</svg>
