<?xml version="1.0" encoding="UTF-8" standalone="no"?>
<!DOCTYPE svg PUBLIC "-//W3C//DTD SVG 1.1//EN"
 "http://www.w3.org/Graphics/SVG/1.1/DTD/svg11.dtd">
<!-- Generated by graphviz version 2.50.0 (20211204.2007)
 -->
<!-- Title: oneDegreeRelationshipsDiagram Pages: 1 -->
<svg width="401pt" height="296pt"
 viewBox="0.00 0.00 401.00 296.00" xmlns="http://www.w3.org/2000/svg" xmlns:xlink="http://www.w3.org/1999/xlink">
<g id="graph0" class="graph" transform="scale(1 1) rotate(0) translate(4 292)">
<title>oneDegreeRelationshipsDiagram</title>
<polygon fill="#ffffff" stroke="transparent" points="-4,4 -4,-292 397,-292 397,4 -4,4"/>
<text text-anchor="middle" x="72.5" y="-7.2" font-family="Helvetica,sans-Serif" font-size="11.00">Generated by SchemaSpy</text>
<!-- group_value_types -->
<g id="node1" class="node">
<title>group_value_types</title>
<g id="a_node1"><a xlink:href="../../tables/group_value_types.html" xlink:title="group_value_types" target="_top">
<polygon fill="#ffffff" stroke="transparent" points="200,-136 200,-246 385,-246 385,-136 200,-136"/>
<polygon fill="#f5f5f5" stroke="transparent" points="202.5,-222 202.5,-244 383.5,-244 383.5,-222 202.5,-222"/>
<polygon fill="none" stroke="black" points="202.5,-222 202.5,-244 383.5,-244 383.5,-222 202.5,-222"/>
<text text-anchor="start" x="207.5" y="-231.2" font-family="Helvetica,sans-Serif" font-weight="bold" font-size="11.00">group_value_types</text>
<text text-anchor="start" x="348.5" y="-230.2" font-family="Helvetica,sans-Serif" font-size="11.00">[table]</text>
<polygon fill="none" stroke="black" points="202.5,-200 202.5,-222 332.5,-222 332.5,-200 202.5,-200"/>
<image xlink:href="../../images/primaryKeys.png" width="11px" height="12px" preserveAspectRatio="xMinYMin meet" x="207.5" y="-217"/>
<text text-anchor="start" x="222.5" y="-208.2" font-family="Helvetica,sans-Serif" font-size="11.00">id</text>
<polygon fill="none" stroke="black" points="332.5,-200 332.5,-222 383.5,-222 383.5,-200 332.5,-200"/>
<text text-anchor="start" x="335.5" y="-208.2" font-family="Helvetica,sans-Serif" font-size="11.00">serial[10]</text>
<polygon fill="#ffffff" stroke="transparent" points="202.5,-178 202.5,-200 332.5,-200 332.5,-178 202.5,-178"/>
<polygon fill="none" stroke="black" points="202.5,-178 202.5,-200 332.5,-200 332.5,-178 202.5,-178"/>
<image xlink:href="../../images/foreignKeys.png" width="11px" height="12px" preserveAspectRatio="xMinYMin meet" x="207.5" y="-195"/>
<text text-anchor="start" x="222.5" y="-186.2" font-family="Helvetica,sans-Serif" font-size="11.00">group_id</text>
<polygon fill="none" stroke="black" points="332.5,-178 332.5,-200 383.5,-200 383.5,-178 332.5,-178"/>
<text text-anchor="start" x="335.5" y="-186.2" font-family="Helvetica,sans-Serif" font-size="11.00">int4[10]</text>
<polygon fill="#ffffff" stroke="transparent" points="202.5,-156 202.5,-178 332.5,-178 332.5,-156 202.5,-156"/>
<polygon fill="none" stroke="black" points="202.5,-156 202.5,-178 332.5,-178 332.5,-156 202.5,-156"/>
<image xlink:href="../../images/foreignKeys.png" width="11px" height="12px" preserveAspectRatio="xMinYMin meet" x="207.5" y="-173"/>
<text text-anchor="start" x="222.5" y="-164.2" font-family="Helvetica,sans-Serif" font-size="11.00">value_type_id</text>
<polygon fill="none" stroke="black" points="332.5,-156 332.5,-178 383.5,-178 383.5,-156 332.5,-156"/>
<text text-anchor="start" x="335.5" y="-164.2" font-family="Helvetica,sans-Serif" font-size="11.00">int4[10]</text>
<polygon fill="#ffffff" stroke="transparent" points="202.5,-138 202.5,-156 258.5,-156 258.5,-138 202.5,-138"/>
<polygon fill="none" stroke="black" points="202.5,-138 202.5,-156 258.5,-156 258.5,-138 202.5,-138"/>
<text text-anchor="start" x="205.5" y="-144.2" font-family="Helvetica,sans-Serif" font-size="11.00">&lt; 2</text>
<polygon fill="#ffffff" stroke="transparent" points="258.5,-138 258.5,-156 332.5,-156 332.5,-138 258.5,-138"/>
<polygon fill="none" stroke="black" points="258.5,-138 258.5,-156 332.5,-156 332.5,-138 258.5,-138"/>
<text text-anchor="start" x="295.5" y="-144.2" font-family="Helvetica,sans-Serif" font-size="11.00">0 rows</text>
<polygon fill="#ffffff" stroke="transparent" points="332.5,-138 332.5,-156 383.5,-156 383.5,-138 332.5,-138"/>
<polygon fill="none" stroke="black" points="332.5,-138 332.5,-156 383.5,-156 383.5,-138 332.5,-138"/>
<text text-anchor="start" x="364.5" y="-144.2" font-family="Helvetica,sans-Serif" font-size="11.00">0 &gt;</text>
<polygon fill="none" stroke="black" stroke-width="2" points="201,-137 201,-245 384,-245 384,-137 201,-137"/>
</a>
</g>
</g>
<!-- groups -->
<g id="node2" class="node">
<title>groups</title>
<g id="a_node2"><a xlink:href="../../tables/groups.html" xlink:title="groups" target="_top">
<polygon fill="#ffffff" stroke="transparent" points="31.5,-160 31.5,-284 127.5,-284 127.5,-160 31.5,-160"/>
<polygon fill="#f5f5f5" stroke="transparent" points="31.5,-262 31.5,-284 127.5,-284 127.5,-262 31.5,-262"/>
<polygon fill="none" stroke="black" points="31.5,-262 31.5,-284 127.5,-284 127.5,-262 31.5,-262"/>
<text text-anchor="start" x="36.5" y="-271.2" font-family="Helvetica,sans-Serif" font-weight="bold" font-size="11.00">groups</text>
<text text-anchor="start" x="92.5" y="-270.2" font-family="Helvetica,sans-Serif" font-size="11.00">[table]</text>
<polygon fill="none" stroke="black" points="31.5,-240 31.5,-262 127.5,-262 127.5,-240 31.5,-240"/>
<image xlink:href="../../images/primaryKeys.png" width="11px" height="12px" preserveAspectRatio="xMinYMin meet" x="36.5" y="-257"/>
<text text-anchor="start" x="53.5" y="-248.2" font-family="Helvetica,sans-Serif" font-size="11.00">id</text>
<polygon fill="#ffffff" stroke="transparent" points="31.5,-218 31.5,-240 127.5,-240 127.5,-218 31.5,-218"/>
<polygon fill="none" stroke="black" points="31.5,-218 31.5,-240 127.5,-240 127.5,-218 31.5,-218"/>
<image xlink:href="../../images/foreignKeys.png" width="11px" height="12px" preserveAspectRatio="xMinYMin meet" x="36.5" y="-235"/>
<text text-anchor="start" x="53.5" y="-226.2" font-family="Helvetica,sans-Serif" font-size="11.00">customer_id</text>
<polygon fill="#ffffff" stroke="transparent" points="31.5,-196 31.5,-218 127.5,-218 127.5,-196 31.5,-196"/>
<polygon fill="none" stroke="black" points="31.5,-196 31.5,-218 127.5,-218 127.5,-196 31.5,-196"/>
<text text-anchor="start" x="53.5" y="-204.2" font-family="Helvetica,sans-Serif" font-size="11.00">name</text>
<polygon fill="none" stroke="black" points="31.5,-178 31.5,-196 127.5,-196 127.5,-178 31.5,-178"/>
<text text-anchor="start" x="34.5" y="-184.2" font-family="Helvetica,sans-Serif" font-size="11.00">...</text>
<polygon fill="#ffffff" stroke="transparent" points="31.5,-160 31.5,-178 53.5,-178 53.5,-160 31.5,-160"/>
<polygon fill="none" stroke="black" points="31.5,-160 31.5,-178 53.5,-178 53.5,-160 31.5,-160"/>
<text text-anchor="start" x="34.5" y="-166.2" font-family="Helvetica,sans-Serif" font-size="11.00">&lt; 1</text>
<polygon fill="#ffffff" stroke="transparent" points="53.5,-160 53.5,-178 105.5,-178 105.5,-160 53.5,-160"/>
<polygon fill="none" stroke="black" points="53.5,-160 53.5,-178 105.5,-178 105.5,-160 53.5,-160"/>
<text text-anchor="start" x="56.5" y="-166.2" font-family="Helvetica,sans-Serif" font-size="11.00">150 rows</text>
<polygon fill="#ffffff" stroke="transparent" points="105.5,-160 105.5,-178 127.5,-178 127.5,-160 105.5,-160"/>
<polygon fill="none" stroke="black" points="105.5,-160 105.5,-178 127.5,-178 127.5,-160 105.5,-160"/>
<text text-anchor="start" x="108.5" y="-166.2" font-family="Helvetica,sans-Serif" font-size="11.00">2 &gt;</text>
</a>
</g>
</g>
<!-- group_value_types&#45;&gt;groups -->
<g id="edge1" class="edge">
<title>group_value_types:w&#45;&gt;groups:e</title>
<path fill="none" stroke="black" d="M187.18,-191.99C161.19,-204.38 165.41,-251 128.5,-251"/>
<polygon fill="black" stroke="black" points="193.67,-190.64 202.24,-192.52 197.58,-189.82 201.5,-189 201.5,-189 201.5,-189 197.58,-189.82 200.76,-185.48 193.67,-190.64 193.67,-190.64"/>
<ellipse fill="none" stroke="black" cx="190.54" cy="-191.29" rx="3.2" ry="3.2"/>
</g>
<!-- asset_value_types -->
<g id="node3" class="node">
<title>asset_value_types</title>
<g id="a_node3"><a xlink:href="../../tables/asset_value_types.html" xlink:title="asset_value_types" target="_top">
<polygon fill="#ffffff" stroke="transparent" points="8,-37 8,-139 151,-139 151,-37 8,-37"/>
<polygon fill="#f5f5f5" stroke="transparent" points="8.5,-117 8.5,-139 151.5,-139 151.5,-117 8.5,-117"/>
<polygon fill="none" stroke="black" points="8.5,-117 8.5,-139 151.5,-139 151.5,-117 8.5,-117"/>
<text text-anchor="start" x="13.5" y="-126.2" font-family="Helvetica,sans-Serif" font-weight="bold" font-size="11.00">asset_value_types</text>
<text text-anchor="start" x="116.5" y="-125.2" font-family="Helvetica,sans-Serif" font-size="11.00">[table]</text>
<polygon fill="none" stroke="black" points="8.5,-95 8.5,-117 151.5,-117 151.5,-95 8.5,-95"/>
<image xlink:href="../../images/primaryKeys.png" width="11px" height="12px" preserveAspectRatio="xMinYMin meet" x="13.5" y="-112"/>
<text text-anchor="start" x="36.5" y="-103.2" font-family="Helvetica,sans-Serif" font-size="11.00">id</text>
<polygon fill="#ffffff" stroke="transparent" points="8.5,-73 8.5,-95 151.5,-95 151.5,-73 8.5,-73"/>
<polygon fill="none" stroke="black" points="8.5,-73 8.5,-95 151.5,-95 151.5,-73 8.5,-73"/>
<text text-anchor="start" x="36.5" y="-81.2" font-family="Helvetica,sans-Serif" font-size="11.00">name</text>
<polygon fill="none" stroke="black" points="8.5,-55 8.5,-73 151.5,-73 151.5,-55 8.5,-55"/>
<text text-anchor="start" x="11.5" y="-61.2" font-family="Helvetica,sans-Serif" font-size="11.00">...</text>
<polygon fill="#ffffff" stroke="transparent" points="8.5,-37 8.5,-55 55.5,-55 55.5,-37 8.5,-37"/>
<polygon fill="none" stroke="black" points="8.5,-37 8.5,-55 55.5,-55 55.5,-37 8.5,-37"/>
<text text-anchor="start" x="11.5" y="-43.2" font-family="Helvetica,sans-Serif" font-size="11.00"> &#160;</text>
<polygon fill="#ffffff" stroke="transparent" points="55.5,-37 55.5,-55 112.5,-55 112.5,-37 55.5,-37"/>
<polygon fill="none" stroke="black" points="55.5,-37 55.5,-55 112.5,-55 112.5,-37 55.5,-37"/>
<text text-anchor="start" x="75.5" y="-43.2" font-family="Helvetica,sans-Serif" font-size="11.00">3 rows</text>
<polygon fill="#ffffff" stroke="transparent" points="112.5,-37 112.5,-55 151.5,-55 151.5,-37 112.5,-37"/>
<polygon fill="none" stroke="black" points="112.5,-37 112.5,-55 151.5,-55 151.5,-37 112.5,-37"/>
<text text-anchor="start" x="132.5" y="-43.2" font-family="Helvetica,sans-Serif" font-size="11.00">2 &gt;</text>
</a>
</g>
</g>
<!-- group_value_types&#45;&gt;asset_value_types -->
<g id="edge2" class="edge">
<title>group_value_types:w&#45;&gt;asset_value_types:e</title>
<path fill="none" stroke="black" d="M187.91,-162.21C172.15,-147.83 181.3,-106 152.5,-106"/>
<polygon fill="black" stroke="black" points="193.95,-164.34 200.3,-170.4 197.73,-165.67 201.5,-167 201.5,-167 201.5,-167 197.73,-165.67 202.7,-163.6 193.95,-164.34 193.95,-164.34"/>
<ellipse fill="none" stroke="black" cx="190.94" cy="-163.28" rx="3.2" ry="3.2"/>
</g>
</g>
</svg>
