<?xml version="1.0" encoding="UTF-8" standalone="no"?>
<!DOCTYPE svg PUBLIC "-//W3C//DTD SVG 1.1//EN"
 "http://www.w3.org/Graphics/SVG/1.1/DTD/svg11.dtd">
<!-- Generated by graphviz version 2.50.0 (20211204.2007)
 -->
<!-- Title: twoDegreesRelationshipsDiagram Pages: 1 -->
<svg width="768pt" height="598pt"
 viewBox="0.00 0.00 768.00 598.00" xmlns="http://www.w3.org/2000/svg" xmlns:xlink="http://www.w3.org/1999/xlink">
<g id="graph0" class="graph" transform="scale(1 1) rotate(0) translate(4 594)">
<title>twoDegreesRelationshipsDiagram</title>
<polygon fill="#ffffff" stroke="transparent" points="-4,4 -4,-594 764,-594 764,4 -4,4"/>
<text text-anchor="middle" x="72.5" y="-7.2" font-family="Helvetica,sans-Serif" font-size="11.00">Generated by SchemaSpy</text>
<!-- aggregate_risks -->
<g id="node1" class="node">
<title>aggregate_risks</title>
<g id="a_node1"><a xlink:href="../../tables/aggregate_risks.html" xlink:title="aggregate_risks" target="_top">
<polygon fill="#ffffff" stroke="transparent" points="199.5,-528 199.5,-586 329.5,-586 329.5,-528 199.5,-528"/>
<polygon fill="#f5f5f5" stroke="transparent" points="199.5,-564 199.5,-586 329.5,-586 329.5,-564 199.5,-564"/>
<polygon fill="none" stroke="black" points="199.5,-564 199.5,-586 329.5,-586 329.5,-564 199.5,-564"/>
<text text-anchor="start" x="204.5" y="-573.2" font-family="Helvetica,sans-Serif" font-weight="bold" font-size="11.00">aggregate_risks</text>
<text text-anchor="start" x="294.5" y="-572.2" font-family="Helvetica,sans-Serif" font-size="11.00">[table]</text>
<polygon fill="none" stroke="black" points="199.5,-546 199.5,-564 329.5,-564 329.5,-546 199.5,-546"/>
<text text-anchor="start" x="202.5" y="-552.2" font-family="Helvetica,sans-Serif" font-size="11.00">...</text>
<polygon fill="#ffffff" stroke="transparent" points="199.5,-528 199.5,-546 232.5,-546 232.5,-528 199.5,-528"/>
<polygon fill="none" stroke="black" points="199.5,-528 199.5,-546 232.5,-546 232.5,-528 199.5,-528"/>
<text text-anchor="start" x="202.5" y="-534.2" font-family="Helvetica,sans-Serif" font-size="11.00">&lt; 4</text>
<polygon fill="#ffffff" stroke="transparent" points="232.5,-528 232.5,-546 310.5,-546 310.5,-528 232.5,-528"/>
<polygon fill="none" stroke="black" points="232.5,-528 232.5,-546 310.5,-546 310.5,-528 232.5,-528"/>
<text text-anchor="start" x="240.5" y="-534.2" font-family="Helvetica,sans-Serif" font-size="11.00">133,008 rows</text>
<polygon fill="#ffffff" stroke="transparent" points="310.5,-528 310.5,-546 329.5,-546 329.5,-528 310.5,-528"/>
<polygon fill="none" stroke="black" points="310.5,-528 310.5,-546 329.5,-546 329.5,-528 310.5,-528"/>
<text text-anchor="start" x="319.5" y="-534.2" font-family="Helvetica,sans-Serif" font-size="11.00"> &#160;</text>
</a>
</g>
</g>
<!-- customers -->
<g id="node2" class="node">
<title>customers</title>
<g id="a_node2"><a xlink:href="../../tables/customers.html" xlink:title="customers" target="_top">
<polygon fill="#ffffff" stroke="transparent" points="8,-153 8,-255 125,-255 125,-153 8,-153"/>
<polygon fill="#f5f5f5" stroke="transparent" points="8.5,-233 8.5,-255 125.5,-255 125.5,-233 8.5,-233"/>
<polygon fill="none" stroke="black" points="8.5,-233 8.5,-255 125.5,-255 125.5,-233 8.5,-233"/>
<text text-anchor="start" x="13.5" y="-242.2" font-family="Helvetica,sans-Serif" font-weight="bold" font-size="11.00">customers</text>
<text text-anchor="start" x="90.5" y="-241.2" font-family="Helvetica,sans-Serif" font-size="11.00">[table]</text>
<polygon fill="none" stroke="black" points="8.5,-211 8.5,-233 125.5,-233 125.5,-211 8.5,-211"/>
<image xlink:href="../../images/primaryKeys.png" width="11px" height="12px" preserveAspectRatio="xMinYMin meet" x="13.5" y="-228"/>
<text text-anchor="start" x="28.5" y="-219.2" font-family="Helvetica,sans-Serif" font-size="11.00">id</text>
<polygon fill="#ffffff" stroke="transparent" points="8.5,-189 8.5,-211 125.5,-211 125.5,-189 8.5,-189"/>
<polygon fill="none" stroke="black" points="8.5,-189 8.5,-211 125.5,-211 125.5,-189 8.5,-189"/>
<text text-anchor="start" x="28.5" y="-197.2" font-family="Helvetica,sans-Serif" font-size="11.00">name</text>
<polygon fill="none" stroke="black" points="8.5,-171 8.5,-189 125.5,-189 125.5,-171 8.5,-171"/>
<text text-anchor="start" x="11.5" y="-177.2" font-family="Helvetica,sans-Serif" font-size="11.00">...</text>
<polygon fill="#ffffff" stroke="transparent" points="8.5,-153 8.5,-171 36.5,-171 36.5,-153 8.5,-153"/>
<polygon fill="none" stroke="black" points="8.5,-153 8.5,-171 36.5,-171 36.5,-153 8.5,-153"/>
<text text-anchor="start" x="11.5" y="-159.2" font-family="Helvetica,sans-Serif" font-size="11.00"> &#160;</text>
<polygon fill="#ffffff" stroke="transparent" points="36.5,-153 36.5,-171 95.5,-171 95.5,-153 36.5,-153"/>
<polygon fill="none" stroke="black" points="36.5,-153 36.5,-171 95.5,-171 95.5,-153 36.5,-153"/>
<text text-anchor="start" x="46.5" y="-159.2" font-family="Helvetica,sans-Serif" font-size="11.00">938 rows</text>
<polygon fill="#ffffff" stroke="transparent" points="95.5,-153 95.5,-171 125.5,-171 125.5,-153 95.5,-153"/>
<polygon fill="none" stroke="black" points="95.5,-153 95.5,-171 125.5,-171 125.5,-153 95.5,-153"/>
<text text-anchor="start" x="106.5" y="-159.2" font-family="Helvetica,sans-Serif" font-size="11.00">5 &gt;</text>
</a>
</g>
</g>
<!-- aggregate_risks&#45;&gt;customers -->
<g id="edge1" class="edge">
<title>aggregate_risks:w&#45;&gt;customers:e</title>
<path fill="none" stroke="black" d="M184.54,-551.46C175.2,-545.45 172.58,-532.48 166,-518 138.54,-457.59 192.86,-222 126.5,-222"/>
<polygon fill="black" stroke="black" points="190.75,-553.03 197.62,-558.49 194.62,-554.02 198.5,-555 198.5,-555 198.5,-555 194.62,-554.02 199.38,-551.51 190.75,-553.03 190.75,-553.03"/>
<ellipse fill="none" stroke="black" cx="187.64" cy="-552.25" rx="3.2" ry="3.2"/>
</g>
<!-- folders -->
<g id="node3" class="node">
<title>folders</title>
<g id="a_node3"><a xlink:href="../../tables/folders.html" xlink:title="folders" target="_top">
<polygon fill="#ffffff" stroke="transparent" points="429,-403 429,-527 525,-527 525,-403 429,-403"/>
<polygon fill="#f5f5f5" stroke="transparent" points="429,-505 429,-527 525,-527 525,-505 429,-505"/>
<polygon fill="none" stroke="black" points="429,-505 429,-527 525,-527 525,-505 429,-505"/>
<text text-anchor="start" x="434" y="-514.2" font-family="Helvetica,sans-Serif" font-weight="bold" font-size="11.00">folders</text>
<text text-anchor="start" x="490" y="-513.2" font-family="Helvetica,sans-Serif" font-size="11.00">[table]</text>
<polygon fill="none" stroke="black" points="429,-483 429,-505 525,-505 525,-483 429,-483"/>
<image xlink:href="../../images/primaryKeys.png" width="11px" height="12px" preserveAspectRatio="xMinYMin meet" x="434" y="-500"/>
<text text-anchor="start" x="455" y="-491.2" font-family="Helvetica,sans-Serif" font-size="11.00">id</text>
<polygon fill="#ffffff" stroke="transparent" points="429,-461 429,-483 525,-483 525,-461 429,-461"/>
<polygon fill="none" stroke="black" points="429,-461 429,-483 525,-483 525,-461 429,-461"/>
<image xlink:href="../../images/foreignKeys.png" width="11px" height="12px" preserveAspectRatio="xMinYMin meet" x="434" y="-478"/>
<text text-anchor="start" x="455" y="-469.2" font-family="Helvetica,sans-Serif" font-size="11.00">group_id</text>
<polygon fill="#ffffff" stroke="transparent" points="429,-439 429,-461 525,-461 525,-439 429,-439"/>
<polygon fill="none" stroke="black" points="429,-439 429,-461 525,-461 525,-439 429,-439"/>
<text text-anchor="start" x="455" y="-447.2" font-family="Helvetica,sans-Serif" font-size="11.00">name</text>
<polygon fill="none" stroke="black" points="429,-421 429,-439 525,-439 525,-421 429,-421"/>
<text text-anchor="start" x="432" y="-427.2" font-family="Helvetica,sans-Serif" font-size="11.00">...</text>
<polygon fill="#ffffff" stroke="transparent" points="429,-403 429,-421 451,-421 451,-403 429,-403"/>
<polygon fill="none" stroke="black" points="429,-403 429,-421 451,-421 451,-403 429,-403"/>
<text text-anchor="start" x="432" y="-409.2" font-family="Helvetica,sans-Serif" font-size="11.00">&lt; 1</text>
<polygon fill="#ffffff" stroke="transparent" points="451,-403 451,-421 503,-421 503,-403 451,-403"/>
<polygon fill="none" stroke="black" points="451,-403 451,-421 503,-421 503,-403 451,-403"/>
<text text-anchor="start" x="454" y="-409.2" font-family="Helvetica,sans-Serif" font-size="11.00">311 rows</text>
<polygon fill="#ffffff" stroke="transparent" points="503,-403 503,-421 525,-421 525,-403 503,-403"/>
<polygon fill="none" stroke="black" points="503,-403 503,-421 525,-421 525,-403 503,-403"/>
<text text-anchor="start" x="506" y="-409.2" font-family="Helvetica,sans-Serif" font-size="11.00">1 &gt;</text>
</a>
</g>
</g>
<!-- groups -->
<g id="node4" class="node">
<title>groups</title>
<g id="a_node4"><a xlink:href="../../tables/groups.html" xlink:title="groups" target="_top">
<polygon fill="#ffffff" stroke="transparent" points="174,-353 174,-507 355,-507 355,-353 174,-353"/>
<polygon fill="#f5f5f5" stroke="transparent" points="176.5,-483 176.5,-505 353.5,-505 353.5,-483 176.5,-483"/>
<polygon fill="none" stroke="black" points="176.5,-483 176.5,-505 353.5,-505 353.5,-483 176.5,-483"/>
<text text-anchor="start" x="181.5" y="-492.2" font-family="Helvetica,sans-Serif" font-weight="bold" font-size="11.00">groups</text>
<text text-anchor="start" x="318.5" y="-491.2" font-family="Helvetica,sans-Serif" font-size="11.00">[table]</text>
<polygon fill="none" stroke="black" points="176.5,-461 176.5,-483 268.5,-483 268.5,-461 176.5,-461"/>
<image xlink:href="../../images/primaryKeys.png" width="11px" height="12px" preserveAspectRatio="xMinYMin meet" x="181.5" y="-478"/>
<text text-anchor="start" x="196.5" y="-469.2" font-family="Helvetica,sans-Serif" font-size="11.00">id</text>
<polygon fill="none" stroke="black" points="268.5,-461 268.5,-483 353.5,-483 353.5,-461 268.5,-461"/>
<text text-anchor="start" x="271.5" y="-469.2" font-family="Helvetica,sans-Serif" font-size="11.00">serial[10]</text>
<polygon fill="#ffffff" stroke="transparent" points="176.5,-439 176.5,-461 268.5,-461 268.5,-439 176.5,-439"/>
<polygon fill="none" stroke="black" points="176.5,-439 176.5,-461 268.5,-461 268.5,-439 176.5,-439"/>
<image xlink:href="../../images/foreignKeys.png" width="11px" height="12px" preserveAspectRatio="xMinYMin meet" x="181.5" y="-456"/>
<text text-anchor="start" x="196.5" y="-447.2" font-family="Helvetica,sans-Serif" font-size="11.00">customer_id</text>
<polygon fill="none" stroke="black" points="268.5,-439 268.5,-461 353.5,-461 353.5,-439 268.5,-439"/>
<text text-anchor="start" x="271.5" y="-447.2" font-family="Helvetica,sans-Serif" font-size="11.00">int4[10]</text>
<polygon fill="#ffffff" stroke="transparent" points="176.5,-417 176.5,-439 268.5,-439 268.5,-417 176.5,-417"/>
<polygon fill="none" stroke="black" points="176.5,-417 176.5,-439 268.5,-439 268.5,-417 176.5,-417"/>
<text text-anchor="start" x="196.5" y="-425.2" font-family="Helvetica,sans-Serif" font-size="11.00">name</text>
<polygon fill="none" stroke="black" points="268.5,-417 268.5,-439 353.5,-439 353.5,-417 268.5,-417"/>
<text text-anchor="start" x="271.5" y="-425.2" font-family="Helvetica,sans-Serif" font-size="11.00">varchar[256]</text>
<polygon fill="none" stroke="black" points="176.5,-395 176.5,-417 268.5,-417 268.5,-395 176.5,-395"/>
<text text-anchor="start" x="196.5" y="-403.2" font-family="Helvetica,sans-Serif" font-size="11.00">created_at</text>
<polygon fill="none" stroke="black" points="268.5,-395 268.5,-417 353.5,-417 353.5,-395 268.5,-395"/>
<text text-anchor="start" x="271.5" y="-403.2" font-family="Helvetica,sans-Serif" font-size="11.00">timestamp[29,6]</text>
<polygon fill="none" stroke="black" points="176.5,-373 176.5,-395 268.5,-395 268.5,-373 176.5,-373"/>
<text text-anchor="start" x="196.5" y="-381.2" font-family="Helvetica,sans-Serif" font-size="11.00">updated_at</text>
<polygon fill="none" stroke="black" points="268.5,-373 268.5,-395 353.5,-395 353.5,-373 268.5,-373"/>
<text text-anchor="start" x="271.5" y="-381.2" font-family="Helvetica,sans-Serif" font-size="11.00">timestamp[29,6]</text>
<polygon fill="#ffffff" stroke="transparent" points="176.5,-355 176.5,-373 207.5,-373 207.5,-355 176.5,-355"/>
<polygon fill="none" stroke="black" points="176.5,-355 176.5,-373 207.5,-373 207.5,-355 176.5,-355"/>
<text text-anchor="start" x="179.5" y="-361.2" font-family="Helvetica,sans-Serif" font-size="11.00">&lt; 1</text>
<polygon fill="#ffffff" stroke="transparent" points="207.5,-355 207.5,-373 268.5,-373 268.5,-355 207.5,-355"/>
<polygon fill="none" stroke="black" points="207.5,-355 207.5,-373 268.5,-373 268.5,-355 207.5,-355"/>
<text text-anchor="start" x="219.5" y="-361.2" font-family="Helvetica,sans-Serif" font-size="11.00">150 rows</text>
<polygon fill="#ffffff" stroke="transparent" points="268.5,-355 268.5,-373 353.5,-373 353.5,-355 268.5,-355"/>
<polygon fill="none" stroke="black" points="268.5,-355 268.5,-373 353.5,-373 353.5,-355 268.5,-355"/>
<text text-anchor="start" x="334.5" y="-361.2" font-family="Helvetica,sans-Serif" font-size="11.00">2 &gt;</text>
<polygon fill="none" stroke="black" stroke-width="2" points="175,-354 175,-506 354,-506 354,-354 175,-354"/>
</a>
</g>
</g>
<!-- folders&#45;&gt;groups -->
<g id="edge2" class="edge">
<title>folders:w&#45;&gt;groups:e</title>
<path fill="none" stroke="black" d="M413.38,-472C391.9,-472 381.68,-472 354.5,-472"/>
<polygon fill="black" stroke="black" points="420,-472 428,-475.6 424,-472 428,-472 428,-472 428,-472 424,-472 428,-468.4 420,-472 420,-472"/>
<ellipse fill="none" stroke="black" cx="416.8" cy="-472" rx="3.2" ry="3.2"/>
</g>
<!-- groups&#45;&gt;customers -->
<g id="edge6" class="edge">
<title>groups:w&#45;&gt;customers:e</title>
<path fill="none" stroke="black" d="M161.21,-448.16C87.82,-426.59 224.68,-222 126.5,-222"/>
<polygon fill="black" stroke="black" points="167.57,-448.98 175.04,-453.57 171.53,-449.49 175.5,-450 175.5,-450 175.5,-450 171.53,-449.49 175.96,-446.43 167.57,-448.98 167.57,-448.98"/>
<ellipse fill="none" stroke="black" cx="164.39" cy="-448.57" rx="3.2" ry="3.2"/>
</g>
<!-- folders_investments -->
<g id="node5" class="node">
<title>folders_investments</title>
<g id="a_node5"><a xlink:href="../../tables/folders_investments.html" xlink:title="folders_investments" target="_top">
<polygon fill="#ffffff" stroke="transparent" points="599,-467 599,-525 752,-525 752,-467 599,-467"/>
<polygon fill="#f5f5f5" stroke="transparent" points="599.5,-503 599.5,-525 752.5,-525 752.5,-503 599.5,-503"/>
<polygon fill="none" stroke="black" points="599.5,-503 599.5,-525 752.5,-525 752.5,-503 599.5,-503"/>
<text text-anchor="start" x="604.5" y="-512.2" font-family="Helvetica,sans-Serif" font-weight="bold" font-size="11.00">folders_investments</text>
<text text-anchor="start" x="717.5" y="-511.2" font-family="Helvetica,sans-Serif" font-size="11.00">[table]</text>
<polygon fill="none" stroke="black" points="599.5,-485 599.5,-503 752.5,-503 752.5,-485 599.5,-485"/>
<text text-anchor="start" x="602.5" y="-491.2" font-family="Helvetica,sans-Serif" font-size="11.00">...</text>
<polygon fill="#ffffff" stroke="transparent" points="599.5,-467 599.5,-485 649.5,-485 649.5,-467 599.5,-467"/>
<polygon fill="none" stroke="black" points="599.5,-467 599.5,-485 649.5,-485 649.5,-467 599.5,-467"/>
<text text-anchor="start" x="602.5" y="-473.2" font-family="Helvetica,sans-Serif" font-size="11.00">&lt; 2</text>
<polygon fill="#ffffff" stroke="transparent" points="649.5,-467 649.5,-485 724.5,-485 724.5,-467 649.5,-467"/>
<polygon fill="none" stroke="black" points="649.5,-467 649.5,-485 724.5,-485 724.5,-467 649.5,-467"/>
<text text-anchor="start" x="666.5" y="-473.2" font-family="Helvetica,sans-Serif" font-size="11.00">2,911 rows</text>
<polygon fill="#ffffff" stroke="transparent" points="724.5,-467 724.5,-485 752.5,-485 752.5,-467 724.5,-467"/>
<polygon fill="none" stroke="black" points="724.5,-467 724.5,-485 752.5,-485 752.5,-467 724.5,-467"/>
<text text-anchor="start" x="742.5" y="-473.2" font-family="Helvetica,sans-Serif" font-size="11.00"> &#160;</text>
</a>
</g>
</g>
<!-- folders_investments&#45;&gt;folders -->
<g id="edge3" class="edge">
<title>folders_investments:w&#45;&gt;folders:e</title>
<path fill="none" stroke="black" d="M584.08,-494C562.89,-494 552.81,-494 526,-494"/>
<polygon fill="black" stroke="black" points="590.5,-494 598.5,-497.6 594.5,-494 598.5,-494 598.5,-494 598.5,-494 594.5,-494 598.5,-490.4 590.5,-494 590.5,-494"/>
<ellipse fill="none" stroke="black" cx="587.3" cy="-494" rx="3.2" ry="3.2"/>
</g>
<!-- group_value_types -->
<g id="node6" class="node">
<title>group_value_types</title>
<g id="a_node6"><a xlink:href="../../tables/group_value_types.html" xlink:title="group_value_types" target="_top">
<polygon fill="#ffffff" stroke="transparent" points="404,-274 404,-380 550,-380 550,-274 404,-274"/>
<polygon fill="#f5f5f5" stroke="transparent" points="404,-358 404,-380 550,-380 550,-358 404,-358"/>
<polygon fill="none" stroke="black" points="404,-358 404,-380 550,-380 550,-358 404,-358"/>
<text text-anchor="start" x="409" y="-367.2" font-family="Helvetica,sans-Serif" font-weight="bold" font-size="11.00">group_value_types</text>
<text text-anchor="start" x="515" y="-366.2" font-family="Helvetica,sans-Serif" font-size="11.00">[table]</text>
<polygon fill="none" stroke="black" points="404,-336 404,-358 550,-358 550,-336 404,-336"/>
<image xlink:href="../../images/primaryKeys.png" width="11px" height="12px" preserveAspectRatio="xMinYMin meet" x="409" y="-353"/>
<text text-anchor="start" x="432" y="-344.2" font-family="Helvetica,sans-Serif" font-size="11.00">id</text>
<polygon fill="#ffffff" stroke="transparent" points="404,-314 404,-336 550,-336 550,-314 404,-314"/>
<polygon fill="none" stroke="black" points="404,-314 404,-336 550,-336 550,-314 404,-314"/>
<image xlink:href="../../images/foreignKeys.png" width="11px" height="12px" preserveAspectRatio="xMinYMin meet" x="409" y="-331"/>
<text text-anchor="start" x="432" y="-322.2" font-family="Helvetica,sans-Serif" font-size="11.00">group_id</text>
<polygon fill="#ffffff" stroke="transparent" points="404,-292 404,-314 550,-314 550,-292 404,-292"/>
<polygon fill="none" stroke="black" points="404,-292 404,-314 550,-314 550,-292 404,-292"/>
<image xlink:href="../../images/foreignKeys.png" width="11px" height="12px" preserveAspectRatio="xMinYMin meet" x="409" y="-309"/>
<text text-anchor="start" x="432" y="-300.2" font-family="Helvetica,sans-Serif" font-size="11.00">value_type_id</text>
<polygon fill="#ffffff" stroke="transparent" points="404,-274 404,-292 461,-292 461,-274 404,-274"/>
<polygon fill="none" stroke="black" points="404,-274 404,-292 461,-292 461,-274 404,-274"/>
<text text-anchor="start" x="407" y="-280.2" font-family="Helvetica,sans-Serif" font-size="11.00">&lt; 2</text>
<polygon fill="#ffffff" stroke="transparent" points="461,-274 461,-292 519,-292 519,-274 461,-274"/>
<polygon fill="none" stroke="black" points="461,-274 461,-292 519,-292 519,-274 461,-274"/>
<text text-anchor="start" x="482" y="-280.2" font-family="Helvetica,sans-Serif" font-size="11.00">0 rows</text>
<polygon fill="#ffffff" stroke="transparent" points="519,-274 519,-292 550,-292 550,-274 519,-274"/>
<polygon fill="none" stroke="black" points="519,-274 519,-292 550,-292 550,-274 519,-274"/>
<text text-anchor="start" x="540" y="-280.2" font-family="Helvetica,sans-Serif" font-size="11.00"> &#160;</text>
</a>
</g>
</g>
<!-- group_value_types&#45;&gt;groups -->
<g id="edge4" class="edge">
<title>group_value_types:w&#45;&gt;groups:e</title>
<path fill="none" stroke="black" d="M388.82,-327.94C348.05,-348.65 417.52,-472 354.5,-472"/>
<polygon fill="black" stroke="black" points="395.17,-326.62 403.73,-328.53 399.08,-325.81 403,-325 403,-325 403,-325 399.08,-325.81 402.27,-321.47 395.17,-326.62 395.17,-326.62"/>
<ellipse fill="none" stroke="black" cx="392.03" cy="-327.27" rx="3.2" ry="3.2"/>
</g>
<!-- asset_value_types -->
<g id="node7" class="node">
<title>asset_value_types</title>
<g id="a_node7"><a xlink:href="../../tables/asset_value_types.html" xlink:title="asset_value_types" target="_top">
<polygon fill="#ffffff" stroke="transparent" points="193,-274 193,-332 336,-332 336,-274 193,-274"/>
<polygon fill="#f5f5f5" stroke="transparent" points="193.5,-310 193.5,-332 336.5,-332 336.5,-310 193.5,-310"/>
<polygon fill="none" stroke="black" points="193.5,-310 193.5,-332 336.5,-332 336.5,-310 193.5,-310"/>
<text text-anchor="start" x="198.5" y="-319.2" font-family="Helvetica,sans-Serif" font-weight="bold" font-size="11.00">asset_value_types</text>
<text text-anchor="start" x="301.5" y="-318.2" font-family="Helvetica,sans-Serif" font-size="11.00">[table]</text>
<polygon fill="none" stroke="black" points="193.5,-292 193.5,-310 336.5,-310 336.5,-292 193.5,-292"/>
<text text-anchor="start" x="196.5" y="-298.2" font-family="Helvetica,sans-Serif" font-size="11.00">...</text>
<polygon fill="#ffffff" stroke="transparent" points="193.5,-274 193.5,-292 240.5,-292 240.5,-274 193.5,-274"/>
<polygon fill="none" stroke="black" points="193.5,-274 193.5,-292 240.5,-292 240.5,-274 193.5,-274"/>
<text text-anchor="start" x="196.5" y="-280.2" font-family="Helvetica,sans-Serif" font-size="11.00"> &#160;</text>
<polygon fill="#ffffff" stroke="transparent" points="240.5,-274 240.5,-292 297.5,-292 297.5,-274 240.5,-274"/>
<polygon fill="none" stroke="black" points="240.5,-274 240.5,-292 297.5,-292 297.5,-274 240.5,-274"/>
<text text-anchor="start" x="260.5" y="-280.2" font-family="Helvetica,sans-Serif" font-size="11.00">3 rows</text>
<polygon fill="#ffffff" stroke="transparent" points="297.5,-274 297.5,-292 336.5,-292 336.5,-274 297.5,-274"/>
<polygon fill="none" stroke="black" points="297.5,-274 297.5,-292 336.5,-292 336.5,-274 297.5,-274"/>
<text text-anchor="start" x="317.5" y="-280.2" font-family="Helvetica,sans-Serif" font-size="11.00">2 &gt;</text>
</a>
</g>
</g>
<!-- group_value_types&#45;&gt;asset_value_types -->
<g id="edge5" class="edge">
<title>group_value_types:w&#45;&gt;asset_value_types:e</title>
<path fill="none" stroke="black" d="M388.37,-302.81C370.3,-302.31 361.05,-301 337.5,-301"/>
<polygon fill="black" stroke="black" points="395,-302.9 402.95,-306.6 399,-302.95 403,-303 403,-303 403,-303 399,-302.95 403.05,-299.4 395,-302.9 395,-302.9"/>
<ellipse fill="none" stroke="black" cx="391.8" cy="-302.85" rx="3.2" ry="3.2"/>
</g>
<!-- ref_id -->
<g id="node8" class="node">
<title>ref_id</title>
<g id="a_node8"><a xlink:href="../../tables/ref_id.html" xlink:title="ref_id" target="_top">
<polygon fill="#ffffff" stroke="transparent" points="206,-195 206,-253 323,-253 323,-195 206,-195"/>
<polygon fill="#f5f5f5" stroke="transparent" points="206.5,-231 206.5,-253 323.5,-253 323.5,-231 206.5,-231"/>
<polygon fill="none" stroke="black" points="206.5,-231 206.5,-253 323.5,-253 323.5,-231 206.5,-231"/>
<text text-anchor="start" x="211.5" y="-240.2" font-family="Helvetica,sans-Serif" font-weight="bold" font-size="11.00">ref_id</text>
<text text-anchor="start" x="288.5" y="-239.2" font-family="Helvetica,sans-Serif" font-size="11.00">[table]</text>
<polygon fill="none" stroke="black" points="206.5,-213 206.5,-231 323.5,-231 323.5,-213 206.5,-213"/>
<text text-anchor="start" x="209.5" y="-219.2" font-family="Helvetica,sans-Serif" font-size="11.00">...</text>
<polygon fill="#ffffff" stroke="transparent" points="206.5,-195 206.5,-213 228.5,-213 228.5,-195 206.5,-195"/>
<polygon fill="none" stroke="black" points="206.5,-195 206.5,-213 228.5,-213 228.5,-195 206.5,-195"/>
<text text-anchor="start" x="209.5" y="-201.2" font-family="Helvetica,sans-Serif" font-size="11.00">&lt; 1</text>
<polygon fill="#ffffff" stroke="transparent" points="228.5,-195 228.5,-213 301.5,-213 301.5,-195 228.5,-195"/>
<polygon fill="none" stroke="black" points="228.5,-195 228.5,-213 301.5,-213 301.5,-195 228.5,-195"/>
<text text-anchor="start" x="231.5" y="-201.2" font-family="Helvetica,sans-Serif" font-size="11.00">140,067 rows</text>
<polygon fill="#ffffff" stroke="transparent" points="301.5,-195 301.5,-213 323.5,-213 323.5,-195 301.5,-195"/>
<polygon fill="none" stroke="black" points="301.5,-195 301.5,-213 323.5,-213 323.5,-195 301.5,-195"/>
<text text-anchor="start" x="304.5" y="-201.2" font-family="Helvetica,sans-Serif" font-size="11.00">2 &gt;</text>
</a>
</g>
</g>
<!-- ref_id&#45;&gt;customers -->
<g id="edge7" class="edge">
<title>ref_id:w&#45;&gt;customers:e</title>
<path fill="none" stroke="black" d="M190.77,-222C167,-222 156.12,-222 126.5,-222"/>
<polygon fill="black" stroke="black" points="197.5,-222 205.5,-225.6 201.5,-222 205.5,-222 205.5,-222 205.5,-222 201.5,-222 205.5,-218.4 197.5,-222 197.5,-222"/>
<ellipse fill="none" stroke="black" cx="194.3" cy="-222" rx="3.2" ry="3.2"/>
</g>
<!-- tags -->
<g id="node9" class="node">
<title>tags</title>
<g id="a_node9"><a xlink:href="../../tables/tags.html" xlink:title="tags" target="_top">
<polygon fill="#ffffff" stroke="transparent" points="216.5,-116 216.5,-174 312.5,-174 312.5,-116 216.5,-116"/>
<polygon fill="#f5f5f5" stroke="transparent" points="216.5,-152 216.5,-174 312.5,-174 312.5,-152 216.5,-152"/>
<polygon fill="none" stroke="black" points="216.5,-152 216.5,-174 312.5,-174 312.5,-152 216.5,-152"/>
<text text-anchor="start" x="221.5" y="-161.2" font-family="Helvetica,sans-Serif" font-weight="bold" font-size="11.00">tags</text>
<text text-anchor="start" x="277.5" y="-160.2" font-family="Helvetica,sans-Serif" font-size="11.00">[table]</text>
<polygon fill="none" stroke="black" points="216.5,-134 216.5,-152 312.5,-152 312.5,-134 216.5,-134"/>
<text text-anchor="start" x="219.5" y="-140.2" font-family="Helvetica,sans-Serif" font-size="11.00">...</text>
<polygon fill="#ffffff" stroke="transparent" points="216.5,-116 216.5,-134 238.5,-134 238.5,-116 216.5,-116"/>
<polygon fill="none" stroke="black" points="216.5,-116 216.5,-134 238.5,-134 238.5,-116 216.5,-116"/>
<text text-anchor="start" x="219.5" y="-122.2" font-family="Helvetica,sans-Serif" font-size="11.00">&lt; 1</text>
<polygon fill="#ffffff" stroke="transparent" points="238.5,-116 238.5,-134 290.5,-134 290.5,-116 238.5,-116"/>
<polygon fill="none" stroke="black" points="238.5,-116 238.5,-134 290.5,-134 290.5,-116 238.5,-116"/>
<text text-anchor="start" x="241.5" y="-122.2" font-family="Helvetica,sans-Serif" font-size="11.00">339 rows</text>
<polygon fill="#ffffff" stroke="transparent" points="290.5,-116 290.5,-134 312.5,-134 312.5,-116 290.5,-116"/>
<polygon fill="none" stroke="black" points="290.5,-116 290.5,-134 312.5,-134 312.5,-116 290.5,-116"/>
<text text-anchor="start" x="293.5" y="-122.2" font-family="Helvetica,sans-Serif" font-size="11.00">1 &gt;</text>
</a>
</g>
</g>
<!-- tags&#45;&gt;customers -->
<g id="edge8" class="edge">
<title>tags:w&#45;&gt;customers:e</title>
<path fill="none" stroke="black" d="M201.16,-145.6C186.08,-152.11 183.16,-169.7 166,-185 148.05,-201.01 150.55,-222 126.5,-222"/>
<polygon fill="black" stroke="black" points="207.63,-144.43 216.14,-146.54 211.56,-143.71 215.5,-143 215.5,-143 215.5,-143 211.56,-143.71 214.86,-139.46 207.63,-144.43 207.63,-144.43"/>
<ellipse fill="none" stroke="black" cx="204.48" cy="-145" rx="3.2" ry="3.2"/>
</g>
<!-- users_roles_customers -->
<g id="node10" class="node">
<title>users_roles_customers</title>
<g id="a_node10"><a xlink:href="../../tables/users_roles_customers.html" xlink:title="users_roles_customers" target="_top">
<polygon fill="#ffffff" stroke="transparent" points="180,-37 180,-95 349,-95 349,-37 180,-37"/>
<polygon fill="#f5f5f5" stroke="transparent" points="180.5,-73 180.5,-95 349.5,-95 349.5,-73 180.5,-73"/>
<polygon fill="none" stroke="black" points="180.5,-73 180.5,-95 349.5,-95 349.5,-73 180.5,-73"/>
<text text-anchor="start" x="185.5" y="-82.2" font-family="Helvetica,sans-Serif" font-weight="bold" font-size="11.00">users_roles_customers</text>
<text text-anchor="start" x="314.5" y="-81.2" font-family="Helvetica,sans-Serif" font-size="11.00">[table]</text>
<polygon fill="none" stroke="black" points="180.5,-55 180.5,-73 349.5,-73 349.5,-55 180.5,-55"/>
<text text-anchor="start" x="183.5" y="-61.2" font-family="Helvetica,sans-Serif" font-size="11.00">...</text>
<polygon fill="#ffffff" stroke="transparent" points="180.5,-37 180.5,-55 246.5,-55 246.5,-37 180.5,-37"/>
<polygon fill="none" stroke="black" points="180.5,-37 180.5,-55 246.5,-55 246.5,-37 180.5,-37"/>
<text text-anchor="start" x="183.5" y="-43.2" font-family="Helvetica,sans-Serif" font-size="11.00">&lt; 3</text>
<polygon fill="#ffffff" stroke="transparent" points="246.5,-37 246.5,-55 314.5,-55 314.5,-37 246.5,-37"/>
<polygon fill="none" stroke="black" points="246.5,-37 246.5,-55 314.5,-55 314.5,-37 246.5,-37"/>
<text text-anchor="start" x="271.5" y="-43.2" font-family="Helvetica,sans-Serif" font-size="11.00">12 rows</text>
<polygon fill="#ffffff" stroke="transparent" points="314.5,-37 314.5,-55 349.5,-55 349.5,-37 314.5,-37"/>
<polygon fill="none" stroke="black" points="314.5,-37 314.5,-55 349.5,-55 349.5,-37 314.5,-37"/>
<text text-anchor="start" x="339.5" y="-43.2" font-family="Helvetica,sans-Serif" font-size="11.00"> &#160;</text>
</a>
</g>
</g>
<!-- users_roles_customers&#45;&gt;customers -->
<g id="edge9" class="edge">
<title>users_roles_customers:w&#45;&gt;customers:e</title>
<path fill="none" stroke="black" d="M165.08,-66.74C119.26,-87.72 194.78,-222 126.5,-222"/>
<polygon fill="black" stroke="black" points="171.64,-65.49 180.17,-67.54 175.57,-64.75 179.5,-64 179.5,-64 179.5,-64 175.57,-64.75 178.83,-60.46 171.64,-65.49 171.64,-65.49"/>
<ellipse fill="none" stroke="black" cx="168.5" cy="-66.09" rx="3.2" ry="3.2"/>
</g>
</g>
</svg>
