<?xml version="1.0" encoding="UTF-8" standalone="no"?>
<!DOCTYPE svg PUBLIC "-//W3C//DTD SVG 1.1//EN"
 "http://www.w3.org/Graphics/SVG/1.1/DTD/svg11.dtd">
<!-- Generated by graphviz version 2.50.0 (20211204.2007)
 -->
<!-- Title: twoDegreesRelationshipsDiagram Pages: 1 -->
<svg width="550pt" height="359pt"
 viewBox="0.00 0.00 550.00 359.00" xmlns="http://www.w3.org/2000/svg" xmlns:xlink="http://www.w3.org/1999/xlink">
<g id="graph0" class="graph" transform="scale(1 1) rotate(0) translate(4 355)">
<title>twoDegreesRelationshipsDiagram</title>
<polygon fill="#ffffff" stroke="transparent" points="-4,4 -4,-355 546,-355 546,4 -4,4"/>
<text text-anchor="middle" x="72.5" y="-7.2" font-family="Helvetica,sans-Serif" font-size="11.00">Generated by SchemaSpy</text>
<!-- asset_values -->
<g id="node1" class="node">
<title>asset_values</title>
<g id="a_node1"><a xlink:href="../../tables/asset_values.html" xlink:title="asset_values" target="_top">
<polygon fill="#ffffff" stroke="transparent" points="384.5,-289 384.5,-347 498.5,-347 498.5,-289 384.5,-289"/>
<polygon fill="#f5f5f5" stroke="transparent" points="384.5,-325 384.5,-347 498.5,-347 498.5,-325 384.5,-325"/>
<polygon fill="none" stroke="black" points="384.5,-325 384.5,-347 498.5,-347 498.5,-325 384.5,-325"/>
<text text-anchor="start" x="389.5" y="-334.2" font-family="Helvetica,sans-Serif" font-weight="bold" font-size="11.00">asset_values</text>
<text text-anchor="start" x="463.5" y="-333.2" font-family="Helvetica,sans-Serif" font-size="11.00">[table]</text>
<polygon fill="none" stroke="black" points="384.5,-307 384.5,-325 498.5,-325 498.5,-307 384.5,-307"/>
<text text-anchor="start" x="387.5" y="-313.2" font-family="Helvetica,sans-Serif" font-size="11.00">...</text>
<polygon fill="#ffffff" stroke="transparent" points="384.5,-289 384.5,-307 425.5,-307 425.5,-289 384.5,-289"/>
<polygon fill="none" stroke="black" points="384.5,-289 384.5,-307 425.5,-307 425.5,-289 384.5,-289"/>
<text text-anchor="start" x="387.5" y="-295.2" font-family="Helvetica,sans-Serif" font-size="11.00">&lt; 2</text>
<polygon fill="#ffffff" stroke="transparent" points="425.5,-289 425.5,-307 475.5,-307 475.5,-289 425.5,-289"/>
<polygon fill="none" stroke="black" points="425.5,-289 425.5,-307 475.5,-307 475.5,-289 425.5,-289"/>
<text text-anchor="start" x="438.5" y="-295.2" font-family="Helvetica,sans-Serif" font-size="11.00">8 rows</text>
<polygon fill="#ffffff" stroke="transparent" points="475.5,-289 475.5,-307 498.5,-307 498.5,-289 475.5,-289"/>
<polygon fill="none" stroke="black" points="475.5,-289 475.5,-307 498.5,-307 498.5,-289 475.5,-289"/>
<text text-anchor="start" x="488.5" y="-295.2" font-family="Helvetica,sans-Serif" font-size="11.00"> &#160;</text>
</a>
</g>
</g>
<!-- asset_value_types -->
<g id="node2" class="node">
<title>asset_value_types</title>
<g id="a_node2"><a xlink:href="../../tables/asset_value_types.html" xlink:title="asset_value_types" target="_top">
<polygon fill="#ffffff" stroke="transparent" points="157,-225 157,-327 300,-327 300,-225 157,-225"/>
<polygon fill="#f5f5f5" stroke="transparent" points="157.5,-305 157.5,-327 300.5,-327 300.5,-305 157.5,-305"/>
<polygon fill="none" stroke="black" points="157.5,-305 157.5,-327 300.5,-327 300.5,-305 157.5,-305"/>
<text text-anchor="start" x="162.5" y="-314.2" font-family="Helvetica,sans-Serif" font-weight="bold" font-size="11.00">asset_value_types</text>
<text text-anchor="start" x="265.5" y="-313.2" font-family="Helvetica,sans-Serif" font-size="11.00">[table]</text>
<polygon fill="none" stroke="black" points="157.5,-283 157.5,-305 300.5,-305 300.5,-283 157.5,-283"/>
<image xlink:href="../../images/primaryKeys.png" width="11px" height="12px" preserveAspectRatio="xMinYMin meet" x="162.5" y="-300"/>
<text text-anchor="start" x="185.5" y="-291.2" font-family="Helvetica,sans-Serif" font-size="11.00">id</text>
<polygon fill="#ffffff" stroke="transparent" points="157.5,-261 157.5,-283 300.5,-283 300.5,-261 157.5,-261"/>
<polygon fill="none" stroke="black" points="157.5,-261 157.5,-283 300.5,-283 300.5,-261 157.5,-261"/>
<text text-anchor="start" x="185.5" y="-269.2" font-family="Helvetica,sans-Serif" font-size="11.00">name</text>
<polygon fill="none" stroke="black" points="157.5,-243 157.5,-261 300.5,-261 300.5,-243 157.5,-243"/>
<text text-anchor="start" x="160.5" y="-249.2" font-family="Helvetica,sans-Serif" font-size="11.00">...</text>
<polygon fill="#ffffff" stroke="transparent" points="157.5,-225 157.5,-243 204.5,-243 204.5,-225 157.5,-225"/>
<polygon fill="none" stroke="black" points="157.5,-225 157.5,-243 204.5,-243 204.5,-225 157.5,-225"/>
<text text-anchor="start" x="160.5" y="-231.2" font-family="Helvetica,sans-Serif" font-size="11.00"> &#160;</text>
<polygon fill="#ffffff" stroke="transparent" points="204.5,-225 204.5,-243 261.5,-243 261.5,-225 204.5,-225"/>
<polygon fill="none" stroke="black" points="204.5,-225 204.5,-243 261.5,-243 261.5,-225 204.5,-225"/>
<text text-anchor="start" x="224.5" y="-231.2" font-family="Helvetica,sans-Serif" font-size="11.00">3 rows</text>
<polygon fill="#ffffff" stroke="transparent" points="261.5,-225 261.5,-243 300.5,-243 300.5,-225 261.5,-225"/>
<polygon fill="none" stroke="black" points="261.5,-225 261.5,-243 300.5,-243 300.5,-225 261.5,-225"/>
<text text-anchor="start" x="281.5" y="-231.2" font-family="Helvetica,sans-Serif" font-size="11.00">2 &gt;</text>
</a>
</g>
</g>
<!-- asset_values&#45;&gt;asset_value_types -->
<g id="edge1" class="edge">
<title>asset_values:w&#45;&gt;asset_value_types:e</title>
<path fill="none" stroke="black" d="M368.91,-314.75C343.23,-310.1 333.78,-294 301.5,-294"/>
<polygon fill="black" stroke="black" points="375.53,-315.32 383.19,-319.59 379.51,-315.66 383.5,-316 383.5,-316 383.5,-316 379.51,-315.66 383.81,-312.41 375.53,-315.32 375.53,-315.32"/>
<ellipse fill="none" stroke="black" cx="372.34" cy="-315.05" rx="3.2" ry="3.2"/>
</g>
<!-- folders -->
<g id="node3" class="node">
<title>folders</title>
<g id="a_node3"><a xlink:href="../../tables/folders.html" xlink:title="folders" target="_top">
<polygon fill="#ffffff" stroke="transparent" points="393.5,-79 393.5,-137 489.5,-137 489.5,-79 393.5,-79"/>
<polygon fill="#f5f5f5" stroke="transparent" points="393.5,-115 393.5,-137 489.5,-137 489.5,-115 393.5,-115"/>
<polygon fill="none" stroke="black" points="393.5,-115 393.5,-137 489.5,-137 489.5,-115 393.5,-115"/>
<text text-anchor="start" x="398.5" y="-124.2" font-family="Helvetica,sans-Serif" font-weight="bold" font-size="11.00">folders</text>
<text text-anchor="start" x="454.5" y="-123.2" font-family="Helvetica,sans-Serif" font-size="11.00">[table]</text>
<polygon fill="none" stroke="black" points="393.5,-97 393.5,-115 489.5,-115 489.5,-97 393.5,-97"/>
<text text-anchor="start" x="396.5" y="-103.2" font-family="Helvetica,sans-Serif" font-size="11.00">...</text>
<polygon fill="#ffffff" stroke="transparent" points="393.5,-79 393.5,-97 415.5,-97 415.5,-79 393.5,-79"/>
<polygon fill="none" stroke="black" points="393.5,-79 393.5,-97 415.5,-97 415.5,-79 393.5,-79"/>
<text text-anchor="start" x="396.5" y="-85.2" font-family="Helvetica,sans-Serif" font-size="11.00">&lt; 1</text>
<polygon fill="#ffffff" stroke="transparent" points="415.5,-79 415.5,-97 467.5,-97 467.5,-79 415.5,-79"/>
<polygon fill="none" stroke="black" points="415.5,-79 415.5,-97 467.5,-97 467.5,-79 415.5,-79"/>
<text text-anchor="start" x="418.5" y="-85.2" font-family="Helvetica,sans-Serif" font-size="11.00">311 rows</text>
<polygon fill="#ffffff" stroke="transparent" points="467.5,-79 467.5,-97 489.5,-97 489.5,-79 467.5,-79"/>
<polygon fill="none" stroke="black" points="467.5,-79 467.5,-97 489.5,-97 489.5,-79 467.5,-79"/>
<text text-anchor="start" x="470.5" y="-85.2" font-family="Helvetica,sans-Serif" font-size="11.00">1 &gt;</text>
</a>
</g>
</g>
<!-- groups -->
<g id="node4" class="node">
<title>groups</title>
<g id="a_node4"><a xlink:href="../../tables/groups.html" xlink:title="groups" target="_top">
<polygon fill="#ffffff" stroke="transparent" points="180.5,-37 180.5,-161 276.5,-161 276.5,-37 180.5,-37"/>
<polygon fill="#f5f5f5" stroke="transparent" points="180.5,-139 180.5,-161 276.5,-161 276.5,-139 180.5,-139"/>
<polygon fill="none" stroke="black" points="180.5,-139 180.5,-161 276.5,-161 276.5,-139 180.5,-139"/>
<text text-anchor="start" x="185.5" y="-148.2" font-family="Helvetica,sans-Serif" font-weight="bold" font-size="11.00">groups</text>
<text text-anchor="start" x="241.5" y="-147.2" font-family="Helvetica,sans-Serif" font-size="11.00">[table]</text>
<polygon fill="none" stroke="black" points="180.5,-117 180.5,-139 276.5,-139 276.5,-117 180.5,-117"/>
<image xlink:href="../../images/primaryKeys.png" width="11px" height="12px" preserveAspectRatio="xMinYMin meet" x="185.5" y="-134"/>
<text text-anchor="start" x="202.5" y="-125.2" font-family="Helvetica,sans-Serif" font-size="11.00">id</text>
<polygon fill="#ffffff" stroke="transparent" points="180.5,-95 180.5,-117 276.5,-117 276.5,-95 180.5,-95"/>
<polygon fill="none" stroke="black" points="180.5,-95 180.5,-117 276.5,-117 276.5,-95 180.5,-95"/>
<image xlink:href="../../images/foreignKeys.png" width="11px" height="12px" preserveAspectRatio="xMinYMin meet" x="185.5" y="-112"/>
<text text-anchor="start" x="202.5" y="-103.2" font-family="Helvetica,sans-Serif" font-size="11.00">customer_id</text>
<polygon fill="#ffffff" stroke="transparent" points="180.5,-73 180.5,-95 276.5,-95 276.5,-73 180.5,-73"/>
<polygon fill="none" stroke="black" points="180.5,-73 180.5,-95 276.5,-95 276.5,-73 180.5,-73"/>
<text text-anchor="start" x="202.5" y="-81.2" font-family="Helvetica,sans-Serif" font-size="11.00">name</text>
<polygon fill="none" stroke="black" points="180.5,-55 180.5,-73 276.5,-73 276.5,-55 180.5,-55"/>
<text text-anchor="start" x="183.5" y="-61.2" font-family="Helvetica,sans-Serif" font-size="11.00">...</text>
<polygon fill="#ffffff" stroke="transparent" points="180.5,-37 180.5,-55 202.5,-55 202.5,-37 180.5,-37"/>
<polygon fill="none" stroke="black" points="180.5,-37 180.5,-55 202.5,-55 202.5,-37 180.5,-37"/>
<text text-anchor="start" x="183.5" y="-43.2" font-family="Helvetica,sans-Serif" font-size="11.00">&lt; 1</text>
<polygon fill="#ffffff" stroke="transparent" points="202.5,-37 202.5,-55 254.5,-55 254.5,-37 202.5,-37"/>
<polygon fill="none" stroke="black" points="202.5,-37 202.5,-55 254.5,-55 254.5,-37 202.5,-37"/>
<text text-anchor="start" x="205.5" y="-43.2" font-family="Helvetica,sans-Serif" font-size="11.00">150 rows</text>
<polygon fill="#ffffff" stroke="transparent" points="254.5,-37 254.5,-55 276.5,-55 276.5,-37 254.5,-37"/>
<polygon fill="none" stroke="black" points="254.5,-37 254.5,-55 276.5,-55 276.5,-37 254.5,-37"/>
<text text-anchor="start" x="257.5" y="-43.2" font-family="Helvetica,sans-Serif" font-size="11.00">2 &gt;</text>
</a>
</g>
</g>
<!-- folders&#45;&gt;groups -->
<g id="edge2" class="edge">
<title>folders:w&#45;&gt;groups:e</title>
<path fill="none" stroke="black" d="M378.09,-106.61C337.88,-110.16 324.35,-128 277.5,-128"/>
<polygon fill="black" stroke="black" points="384.51,-106.34 392.65,-109.6 388.5,-106.17 392.5,-106 392.5,-106 392.5,-106 388.5,-106.17 392.35,-102.4 384.51,-106.34 384.51,-106.34"/>
<ellipse fill="none" stroke="black" cx="381.31" cy="-106.47" rx="3.2" ry="3.2"/>
</g>
<!-- customers -->
<g id="node6" class="node">
<title>customers</title>
<g id="a_node6"><a xlink:href="../../tables/customers.html" xlink:title="customers" target="_top">
<polygon fill="#ffffff" stroke="transparent" points="8,-79 8,-137 108,-137 108,-79 8,-79"/>
<polygon fill="#f5f5f5" stroke="transparent" points="8,-115 8,-137 108,-137 108,-115 8,-115"/>
<polygon fill="none" stroke="black" points="8,-115 8,-137 108,-137 108,-115 8,-115"/>
<text text-anchor="start" x="13" y="-124.2" font-family="Helvetica,sans-Serif" font-weight="bold" font-size="11.00">customers</text>
<text text-anchor="start" x="73" y="-123.2" font-family="Helvetica,sans-Serif" font-size="11.00">[table]</text>
<polygon fill="none" stroke="black" points="8,-97 8,-115 108,-115 108,-97 8,-97"/>
<text text-anchor="start" x="11" y="-103.2" font-family="Helvetica,sans-Serif" font-size="11.00">...</text>
<polygon fill="#ffffff" stroke="transparent" points="8,-79 8,-97 27,-97 27,-79 8,-79"/>
<polygon fill="none" stroke="black" points="8,-79 8,-97 27,-97 27,-79 8,-79"/>
<text text-anchor="start" x="11" y="-85.2" font-family="Helvetica,sans-Serif" font-size="11.00"> &#160;</text>
<polygon fill="#ffffff" stroke="transparent" points="27,-79 27,-97 82,-97 82,-79 27,-79"/>
<polygon fill="none" stroke="black" points="27,-79 27,-97 82,-97 82,-79 27,-79"/>
<text text-anchor="start" x="33" y="-85.2" font-family="Helvetica,sans-Serif" font-size="11.00">938 rows</text>
<polygon fill="#ffffff" stroke="transparent" points="82,-79 82,-97 108,-97 108,-79 82,-79"/>
<polygon fill="none" stroke="black" points="82,-79 82,-97 108,-97 108,-79 82,-79"/>
<text text-anchor="start" x="89" y="-85.2" font-family="Helvetica,sans-Serif" font-size="11.00">5 &gt;</text>
</a>
</g>
</g>
<!-- groups&#45;&gt;customers -->
<g id="edge5" class="edge">
<title>groups:w&#45;&gt;customers:e</title>
<path fill="none" stroke="black" d="M164.9,-106C144.69,-106 134.83,-106 109,-106"/>
<polygon fill="black" stroke="black" points="171.5,-106 179.5,-109.6 175.5,-106 179.5,-106 179.5,-106 179.5,-106 175.5,-106 179.5,-102.4 171.5,-106 171.5,-106"/>
<ellipse fill="none" stroke="black" cx="168.3" cy="-106" rx="3.2" ry="3.2"/>
</g>
<!-- group_value_types -->
<g id="node5" class="node">
<title>group_value_types</title>
<g id="a_node5"><a xlink:href="../../tables/group_value_types.html" xlink:title="group_value_types" target="_top">
<polygon fill="#ffffff" stroke="transparent" points="349,-158 349,-268 534,-268 534,-158 349,-158"/>
<polygon fill="#f5f5f5" stroke="transparent" points="351.5,-244 351.5,-266 532.5,-266 532.5,-244 351.5,-244"/>
<polygon fill="none" stroke="black" points="351.5,-244 351.5,-266 532.5,-266 532.5,-244 351.5,-244"/>
<text text-anchor="start" x="356.5" y="-253.2" font-family="Helvetica,sans-Serif" font-weight="bold" font-size="11.00">group_value_types</text>
<text text-anchor="start" x="497.5" y="-252.2" font-family="Helvetica,sans-Serif" font-size="11.00">[table]</text>
<polygon fill="none" stroke="black" points="351.5,-222 351.5,-244 481.5,-244 481.5,-222 351.5,-222"/>
<image xlink:href="../../images/primaryKeys.png" width="11px" height="12px" preserveAspectRatio="xMinYMin meet" x="356.5" y="-239"/>
<text text-anchor="start" x="371.5" y="-230.2" font-family="Helvetica,sans-Serif" font-size="11.00">id</text>
<polygon fill="none" stroke="black" points="481.5,-222 481.5,-244 532.5,-244 532.5,-222 481.5,-222"/>
<text text-anchor="start" x="484.5" y="-230.2" font-family="Helvetica,sans-Serif" font-size="11.00">serial[10]</text>
<polygon fill="#ffffff" stroke="transparent" points="351.5,-200 351.5,-222 481.5,-222 481.5,-200 351.5,-200"/>
<polygon fill="none" stroke="black" points="351.5,-200 351.5,-222 481.5,-222 481.5,-200 351.5,-200"/>
<image xlink:href="../../images/foreignKeys.png" width="11px" height="12px" preserveAspectRatio="xMinYMin meet" x="356.5" y="-217"/>
<text text-anchor="start" x="371.5" y="-208.2" font-family="Helvetica,sans-Serif" font-size="11.00">group_id</text>
<polygon fill="none" stroke="black" points="481.5,-200 481.5,-222 532.5,-222 532.5,-200 481.5,-200"/>
<text text-anchor="start" x="484.5" y="-208.2" font-family="Helvetica,sans-Serif" font-size="11.00">int4[10]</text>
<polygon fill="#ffffff" stroke="transparent" points="351.5,-178 351.5,-200 481.5,-200 481.5,-178 351.5,-178"/>
<polygon fill="none" stroke="black" points="351.5,-178 351.5,-200 481.5,-200 481.5,-178 351.5,-178"/>
<image xlink:href="../../images/foreignKeys.png" width="11px" height="12px" preserveAspectRatio="xMinYMin meet" x="356.5" y="-195"/>
<text text-anchor="start" x="371.5" y="-186.2" font-family="Helvetica,sans-Serif" font-size="11.00">value_type_id</text>
<polygon fill="none" stroke="black" points="481.5,-178 481.5,-200 532.5,-200 532.5,-178 481.5,-178"/>
<text text-anchor="start" x="484.5" y="-186.2" font-family="Helvetica,sans-Serif" font-size="11.00">int4[10]</text>
<polygon fill="#ffffff" stroke="transparent" points="351.5,-160 351.5,-178 407.5,-178 407.5,-160 351.5,-160"/>
<polygon fill="none" stroke="black" points="351.5,-160 351.5,-178 407.5,-178 407.5,-160 351.5,-160"/>
<text text-anchor="start" x="354.5" y="-166.2" font-family="Helvetica,sans-Serif" font-size="11.00">&lt; 2</text>
<polygon fill="#ffffff" stroke="transparent" points="407.5,-160 407.5,-178 481.5,-178 481.5,-160 407.5,-160"/>
<polygon fill="none" stroke="black" points="407.5,-160 407.5,-178 481.5,-178 481.5,-160 407.5,-160"/>
<text text-anchor="start" x="444.5" y="-166.2" font-family="Helvetica,sans-Serif" font-size="11.00">0 rows</text>
<polygon fill="#ffffff" stroke="transparent" points="481.5,-160 481.5,-178 532.5,-178 532.5,-160 481.5,-160"/>
<polygon fill="none" stroke="black" points="481.5,-160 481.5,-178 532.5,-178 532.5,-160 481.5,-160"/>
<text text-anchor="start" x="513.5" y="-166.2" font-family="Helvetica,sans-Serif" font-size="11.00">0 &gt;</text>
<polygon fill="none" stroke="black" stroke-width="2" points="350,-159 350,-267 533,-267 533,-159 350,-159"/>
</a>
</g>
</g>
<!-- group_value_types&#45;&gt;asset_value_types -->
<g id="edge4" class="edge">
<title>group_value_types:w&#45;&gt;asset_value_types:e</title>
<path fill="none" stroke="black" d="M336.4,-192.99C310.21,-212.17 346.96,-294 301.5,-294"/>
<polygon fill="black" stroke="black" points="342.8,-191.18 351.48,-192.46 346.65,-190.09 350.5,-189 350.5,-189 350.5,-189 346.65,-190.09 349.52,-185.54 342.8,-191.18 342.8,-191.18"/>
<ellipse fill="none" stroke="black" cx="339.72" cy="-192.05" rx="3.2" ry="3.2"/>
</g>
<!-- group_value_types&#45;&gt;groups -->
<g id="edge3" class="edge">
<title>group_value_types:w&#45;&gt;groups:e</title>
<path fill="none" stroke="black" d="M336.05,-207.85C306.27,-192.69 320.87,-128 277.5,-128"/>
<polygon fill="black" stroke="black" points="342.68,-209.29 349.73,-214.52 346.59,-210.15 350.5,-211 350.5,-211 350.5,-211 346.59,-210.15 351.27,-207.48 342.68,-209.29 342.68,-209.29"/>
<ellipse fill="none" stroke="black" cx="339.56" cy="-208.61" rx="3.2" ry="3.2"/>
</g>
</g>
</svg>
