<?xml version="1.0" encoding="UTF-8" standalone="no"?>
<!DOCTYPE svg PUBLIC "-//W3C//DTD SVG 1.1//EN"
 "http://www.w3.org/Graphics/SVG/1.1/DTD/svg11.dtd">
<!-- Generated by graphviz version 2.50.0 (20211204.2007)
 -->
<!-- Title: oneDegreeRelationshipsDiagram Pages: 1 -->
<svg width="700pt" height="749pt"
 viewBox="0.00 0.00 700.00 749.00" xmlns="http://www.w3.org/2000/svg" xmlns:xlink="http://www.w3.org/1999/xlink">
<g id="graph0" class="graph" transform="scale(1 1) rotate(0) translate(4 745)">
<title>oneDegreeRelationshipsDiagram</title>
<polygon fill="#ffffff" stroke="transparent" points="-4,4 -4,-745 696,-745 696,4 -4,4"/>
<text text-anchor="middle" x="72.5" y="-7.2" font-family="Helvetica,sans-Serif" font-size="11.00">Generated by SchemaSpy</text>
<!-- aggregate_risks -->
<g id="node1" class="node">
<title>aggregate_risks</title>
<g id="a_node1"><a xlink:href="../../tables/aggregate_risks.html" xlink:title="aggregate_risks" target="_top">
<polygon fill="#ffffff" stroke="transparent" points="482,-525 482,-737 659,-737 659,-525 482,-525"/>
<polygon fill="#f5f5f5" stroke="transparent" points="482.5,-715 482.5,-737 659.5,-737 659.5,-715 482.5,-715"/>
<polygon fill="none" stroke="black" points="482.5,-715 482.5,-737 659.5,-737 659.5,-715 482.5,-715"/>
<text text-anchor="start" x="487.5" y="-724.2" font-family="Helvetica,sans-Serif" font-weight="bold" font-size="11.00">aggregate_risks</text>
<text text-anchor="start" x="624.5" y="-723.2" font-family="Helvetica,sans-Serif" font-size="11.00">[table]</text>
<polygon fill="none" stroke="black" points="482.5,-693 482.5,-715 659.5,-715 659.5,-693 482.5,-693"/>
<image xlink:href="../../images/primaryKeys.png" width="11px" height="12px" preserveAspectRatio="xMinYMin meet" x="487.5" y="-710"/>
<text text-anchor="start" x="502.5" y="-701.2" font-family="Helvetica,sans-Serif" font-size="11.00">customer_id</text>
<polygon fill="none" stroke="black" points="482.5,-671 482.5,-693 659.5,-693 659.5,-671 482.5,-671"/>
<image xlink:href="../../images/primaryKeys.png" width="11px" height="12px" preserveAspectRatio="xMinYMin meet" x="487.5" y="-688"/>
<text text-anchor="start" x="502.5" y="-679.2" font-family="Helvetica,sans-Serif" font-size="11.00">entity_type</text>
<polygon fill="none" stroke="black" points="482.5,-649 482.5,-671 659.5,-671 659.5,-649 482.5,-649"/>
<image xlink:href="../../images/primaryKeys.png" width="11px" height="12px" preserveAspectRatio="xMinYMin meet" x="487.5" y="-666"/>
<text text-anchor="start" x="502.5" y="-657.2" font-family="Helvetica,sans-Serif" font-size="11.00">entity_id</text>
<polygon fill="none" stroke="black" points="482.5,-627 482.5,-649 659.5,-649 659.5,-627 482.5,-627"/>
<image xlink:href="../../images/primaryKeys.png" width="11px" height="12px" preserveAspectRatio="xMinYMin meet" x="487.5" y="-644"/>
<text text-anchor="start" x="502.5" y="-635.2" font-family="Helvetica,sans-Serif" font-size="11.00">scenario_id</text>
<polygon fill="none" stroke="black" points="482.5,-605 482.5,-627 659.5,-627 659.5,-605 482.5,-605"/>
<image xlink:href="../../images/primaryKeys.png" width="11px" height="12px" preserveAspectRatio="xMinYMin meet" x="487.5" y="-622"/>
<text text-anchor="start" x="502.5" y="-613.2" font-family="Helvetica,sans-Serif" font-size="11.00">decade</text>
<polygon fill="none" stroke="black" points="482.5,-583 482.5,-605 659.5,-605 659.5,-583 482.5,-583"/>
<image xlink:href="../../images/primaryKeys.png" width="11px" height="12px" preserveAspectRatio="xMinYMin meet" x="487.5" y="-600"/>
<text text-anchor="start" x="502.5" y="-591.2" font-family="Helvetica,sans-Serif" font-size="11.00">hazard_metric_id</text>
<polygon fill="none" stroke="black" points="482.5,-561 482.5,-583 659.5,-583 659.5,-561 482.5,-561"/>
<image xlink:href="../../images/primaryKeys.png" width="11px" height="12px" preserveAspectRatio="xMinYMin meet" x="487.5" y="-578"/>
<text text-anchor="start" x="502.5" y="-569.2" font-family="Helvetica,sans-Serif" font-size="11.00">risk_factor_id</text>
<polygon fill="none" stroke="black" points="482.5,-543 482.5,-561 659.5,-561 659.5,-543 482.5,-543"/>
<text text-anchor="start" x="485.5" y="-549.2" font-family="Helvetica,sans-Serif" font-size="11.00">...</text>
<polygon fill="#ffffff" stroke="transparent" points="482.5,-525 482.5,-543 538.5,-543 538.5,-525 482.5,-525"/>
<polygon fill="none" stroke="black" points="482.5,-525 482.5,-543 538.5,-543 538.5,-525 482.5,-525"/>
<text text-anchor="start" x="485.5" y="-531.2" font-family="Helvetica,sans-Serif" font-size="11.00">&lt; 4</text>
<polygon fill="#ffffff" stroke="transparent" points="538.5,-525 538.5,-543 628.5,-543 628.5,-525 538.5,-525"/>
<polygon fill="none" stroke="black" points="538.5,-525 538.5,-543 628.5,-543 628.5,-525 538.5,-525"/>
<text text-anchor="start" x="558.5" y="-531.2" font-family="Helvetica,sans-Serif" font-size="11.00">133,008 rows</text>
<polygon fill="#ffffff" stroke="transparent" points="628.5,-525 628.5,-543 659.5,-543 659.5,-525 628.5,-525"/>
<polygon fill="none" stroke="black" points="628.5,-525 628.5,-543 659.5,-543 659.5,-525 628.5,-525"/>
<text text-anchor="start" x="649.5" y="-531.2" font-family="Helvetica,sans-Serif" font-size="11.00"> &#160;</text>
</a>
</g>
</g>
<!-- hazard_metrics -->
<g id="node2" class="node">
<title>hazard_metrics</title>
<g id="a_node2"><a xlink:href="../../tables/hazard_metrics.html" xlink:title="hazard_metrics" target="_top">
<polygon fill="#ffffff" stroke="transparent" points="164,-108 164,-526 408,-526 408,-108 164,-108"/>
<polygon fill="#f5f5f5" stroke="transparent" points="166,-502 166,-524 406,-524 406,-502 166,-502"/>
<polygon fill="none" stroke="black" points="166,-502 166,-524 406,-524 406,-502 166,-502"/>
<text text-anchor="start" x="171" y="-511.2" font-family="Helvetica,sans-Serif" font-weight="bold" font-size="11.00">hazard_metrics</text>
<text text-anchor="start" x="371" y="-510.2" font-family="Helvetica,sans-Serif" font-size="11.00">[table]</text>
<polygon fill="none" stroke="black" points="166,-480 166,-502 321,-502 321,-480 166,-480"/>
<image xlink:href="../../images/primaryKeys.png" width="11px" height="12px" preserveAspectRatio="xMinYMin meet" x="171" y="-497"/>
<text text-anchor="start" x="186" y="-488.2" font-family="Helvetica,sans-Serif" font-size="11.00">id</text>
<polygon fill="none" stroke="black" points="321,-480 321,-502 406,-502 406,-480 321,-480"/>
<text text-anchor="start" x="324" y="-488.2" font-family="Helvetica,sans-Serif" font-size="11.00">serial[10]</text>
<polygon fill="#ffffff" stroke="transparent" points="166,-458 166,-480 321,-480 321,-458 166,-458"/>
<polygon fill="none" stroke="black" points="166,-458 166,-480 321,-480 321,-458 166,-458"/>
<text text-anchor="start" x="186" y="-466.2" font-family="Helvetica,sans-Serif" font-size="11.00">name</text>
<polygon fill="none" stroke="black" points="321,-458 321,-480 406,-480 406,-458 321,-458"/>
<text text-anchor="start" x="324" y="-466.2" font-family="Helvetica,sans-Serif" font-size="11.00">varchar[128]</text>
<polygon fill="#ffffff" stroke="transparent" points="166,-436 166,-458 321,-458 321,-436 166,-436"/>
<polygon fill="none" stroke="black" points="166,-436 166,-458 321,-458 321,-436 166,-436"/>
<text text-anchor="start" x="186" y="-444.2" font-family="Helvetica,sans-Serif" font-size="11.00">name_etl</text>
<polygon fill="none" stroke="black" points="321,-436 321,-458 406,-458 406,-436 321,-436"/>
<text text-anchor="start" x="324" y="-444.2" font-family="Helvetica,sans-Serif" font-size="11.00">varchar[16]</text>
<polygon fill="none" stroke="black" points="166,-414 166,-436 321,-436 321,-414 166,-414"/>
<image xlink:href="../../images/foreignKeys.png" width="11px" height="12px" preserveAspectRatio="xMinYMin meet" x="171" y="-431"/>
<text text-anchor="start" x="186" y="-422.2" font-family="Helvetica,sans-Serif" font-size="11.00">risk_factor_id</text>
<polygon fill="none" stroke="black" points="321,-414 321,-436 406,-436 406,-414 321,-414"/>
<text text-anchor="start" x="324" y="-422.2" font-family="Helvetica,sans-Serif" font-size="11.00">int4[10]</text>
<polygon fill="none" stroke="black" points="166,-392 166,-414 321,-414 321,-392 166,-392"/>
<text text-anchor="start" x="186" y="-400.2" font-family="Helvetica,sans-Serif" font-size="11.00">icon_name</text>
<polygon fill="none" stroke="black" points="321,-392 321,-414 406,-414 406,-392 321,-392"/>
<text text-anchor="start" x="324" y="-400.2" font-family="Helvetica,sans-Serif" font-size="11.00">varchar[64]</text>
<polygon fill="none" stroke="black" points="166,-370 166,-392 321,-392 321,-370 166,-370"/>
<text text-anchor="start" x="186" y="-378.2" font-family="Helvetica,sans-Serif" font-size="11.00">icon_color</text>
<polygon fill="none" stroke="black" points="321,-370 321,-392 406,-392 406,-370 321,-370"/>
<text text-anchor="start" x="324" y="-378.2" font-family="Helvetica,sans-Serif" font-size="11.00">varchar[64]</text>
<polygon fill="none" stroke="black" points="166,-348 166,-370 321,-370 321,-348 166,-348"/>
<text text-anchor="start" x="186" y="-356.2" font-family="Helvetica,sans-Serif" font-size="11.00">class</text>
<polygon fill="none" stroke="black" points="321,-348 321,-370 406,-370 406,-348 321,-348"/>
<text text-anchor="start" x="324" y="-356.2" font-family="Helvetica,sans-Serif" font-size="11.00">int4[10]</text>
<polygon fill="none" stroke="black" points="166,-326 166,-348 321,-348 321,-326 166,-326"/>
<text text-anchor="start" x="186" y="-334.2" font-family="Helvetica,sans-Serif" font-size="11.00">uom</text>
<polygon fill="none" stroke="black" points="321,-326 321,-348 406,-348 406,-326 321,-326"/>
<text text-anchor="start" x="324" y="-334.2" font-family="Helvetica,sans-Serif" font-size="11.00">varchar[32]</text>
<polygon fill="none" stroke="black" points="166,-304 166,-326 321,-326 321,-304 166,-304"/>
<text text-anchor="start" x="186" y="-312.2" font-family="Helvetica,sans-Serif" font-size="11.00">descr</text>
<polygon fill="none" stroke="black" points="321,-304 321,-326 406,-326 406,-304 321,-304"/>
<text text-anchor="start" x="324" y="-312.2" font-family="Helvetica,sans-Serif" font-size="11.00">varchar[2048]</text>
<polygon fill="none" stroke="black" points="166,-282 166,-304 321,-304 321,-282 166,-282"/>
<text text-anchor="start" x="186" y="-290.2" font-family="Helvetica,sans-Serif" font-size="11.00">notes</text>
<polygon fill="none" stroke="black" points="321,-282 321,-304 406,-304 406,-282 321,-282"/>
<text text-anchor="start" x="324" y="-290.2" font-family="Helvetica,sans-Serif" font-size="11.00">varchar[256]</text>
<polygon fill="none" stroke="black" points="166,-260 166,-282 321,-282 321,-260 166,-260"/>
<text text-anchor="start" x="186" y="-268.2" font-family="Helvetica,sans-Serif" font-size="11.00">do_not_approximate</text>
<polygon fill="none" stroke="black" points="321,-260 321,-282 406,-282 406,-260 321,-260"/>
<text text-anchor="start" x="324" y="-268.2" font-family="Helvetica,sans-Serif" font-size="11.00">bool[1]</text>
<polygon fill="none" stroke="black" points="166,-238 166,-260 321,-260 321,-238 166,-238"/>
<text text-anchor="start" x="186" y="-246.2" font-family="Helvetica,sans-Serif" font-size="11.00">y_label</text>
<polygon fill="none" stroke="black" points="321,-238 321,-260 406,-260 406,-238 321,-238"/>
<text text-anchor="start" x="324" y="-246.2" font-family="Helvetica,sans-Serif" font-size="11.00">varchar[128]</text>
<polygon fill="none" stroke="black" points="166,-216 166,-238 321,-238 321,-216 166,-216"/>
<text text-anchor="start" x="186" y="-224.2" font-family="Helvetica,sans-Serif" font-size="11.00">hazard_label</text>
<polygon fill="none" stroke="black" points="321,-216 321,-238 406,-238 406,-216 321,-216"/>
<text text-anchor="start" x="324" y="-224.2" font-family="Helvetica,sans-Serif" font-size="11.00">varchar[128]</text>
<polygon fill="none" stroke="black" points="166,-194 166,-216 321,-216 321,-194 166,-194"/>
<text text-anchor="start" x="186" y="-202.2" font-family="Helvetica,sans-Serif" font-size="11.00">created_at</text>
<polygon fill="none" stroke="black" points="321,-194 321,-216 406,-216 406,-194 321,-194"/>
<text text-anchor="start" x="324" y="-202.2" font-family="Helvetica,sans-Serif" font-size="11.00">timestamp[29,6]</text>
<polygon fill="none" stroke="black" points="166,-172 166,-194 321,-194 321,-172 166,-172"/>
<text text-anchor="start" x="186" y="-180.2" font-family="Helvetica,sans-Serif" font-size="11.00">updated_at</text>
<polygon fill="none" stroke="black" points="321,-172 321,-194 406,-194 406,-172 321,-172"/>
<text text-anchor="start" x="324" y="-180.2" font-family="Helvetica,sans-Serif" font-size="11.00">timestamp[29,6]</text>
<polygon fill="none" stroke="black" points="166,-150 166,-172 321,-172 321,-150 166,-150"/>
<text text-anchor="start" x="186" y="-158.2" font-family="Helvetica,sans-Serif" font-size="11.00">msg_no_data_available</text>
<polygon fill="none" stroke="black" points="321,-150 321,-172 406,-172 406,-150 321,-150"/>
<text text-anchor="start" x="324" y="-158.2" font-family="Helvetica,sans-Serif" font-size="11.00">varchar[512]</text>
<polygon fill="none" stroke="black" points="166,-128 166,-150 321,-150 321,-128 166,-128"/>
<text text-anchor="start" x="186" y="-136.2" font-family="Helvetica,sans-Serif" font-size="11.00">is_active</text>
<polygon fill="none" stroke="black" points="321,-128 321,-150 406,-150 406,-128 321,-128"/>
<text text-anchor="start" x="324" y="-136.2" font-family="Helvetica,sans-Serif" font-size="11.00">bool[1]</text>
<polygon fill="#ffffff" stroke="transparent" points="166,-110 166,-128 231,-128 231,-110 166,-110"/>
<polygon fill="none" stroke="black" points="166,-110 166,-128 231,-128 231,-110 166,-110"/>
<text text-anchor="start" x="169" y="-116.2" font-family="Helvetica,sans-Serif" font-size="11.00">&lt; 1</text>
<polygon fill="#ffffff" stroke="transparent" points="231,-110 231,-128 321,-128 321,-110 231,-110"/>
<polygon fill="none" stroke="black" points="231,-110 231,-128 321,-128 321,-110 231,-110"/>
<text text-anchor="start" x="278" y="-116.2" font-family="Helvetica,sans-Serif" font-size="11.00">15 rows</text>
<polygon fill="#ffffff" stroke="transparent" points="321,-110 321,-128 406,-128 406,-110 321,-110"/>
<polygon fill="none" stroke="black" points="321,-110 321,-128 406,-128 406,-110 321,-110"/>
<text text-anchor="start" x="387" y="-116.2" font-family="Helvetica,sans-Serif" font-size="11.00">3 &gt;</text>
<polygon fill="none" stroke="black" stroke-width="2" points="165,-109 165,-525 407,-525 407,-109 165,-109"/>
</a>
</g>
</g>
<!-- aggregate_risks&#45;&gt;hazard_metrics -->
<g id="edge1" class="edge">
<title>aggregate_risks:w&#45;&gt;hazard_metrics:e</title>
<path fill="none" stroke="black" d="M467.03,-591.03C431.84,-574.14 457.76,-491 407,-491"/>
<polygon fill="black" stroke="black" points="473.66,-592.39 480.78,-597.53 477.58,-593.2 481.5,-594 481.5,-594 481.5,-594 477.58,-593.2 482.22,-590.47 473.66,-592.39 473.66,-592.39"/>
<ellipse fill="none" stroke="black" cx="470.53" cy="-591.75" rx="3.2" ry="3.2"/>
</g>
<!-- risk_factors -->
<g id="node3" class="node">
<title>risk_factors</title>
<g id="a_node3"><a xlink:href="../../tables/risk_factors.html" xlink:title="risk_factors" target="_top">
<polygon fill="#ffffff" stroke="transparent" points="8,-356 8,-458 115,-458 115,-356 8,-356"/>
<polygon fill="#f5f5f5" stroke="transparent" points="8.5,-436 8.5,-458 115.5,-458 115.5,-436 8.5,-436"/>
<polygon fill="none" stroke="black" points="8.5,-436 8.5,-458 115.5,-458 115.5,-436 8.5,-436"/>
<text text-anchor="start" x="13.5" y="-445.2" font-family="Helvetica,sans-Serif" font-weight="bold" font-size="11.00">risk_factors</text>
<text text-anchor="start" x="80.5" y="-444.2" font-family="Helvetica,sans-Serif" font-size="11.00">[table]</text>
<polygon fill="none" stroke="black" points="8.5,-414 8.5,-436 115.5,-436 115.5,-414 8.5,-414"/>
<image xlink:href="../../images/primaryKeys.png" width="11px" height="12px" preserveAspectRatio="xMinYMin meet" x="13.5" y="-431"/>
<text text-anchor="start" x="37.5" y="-422.2" font-family="Helvetica,sans-Serif" font-size="11.00">id</text>
<polygon fill="#ffffff" stroke="transparent" points="8.5,-392 8.5,-414 115.5,-414 115.5,-392 8.5,-392"/>
<polygon fill="none" stroke="black" points="8.5,-392 8.5,-414 115.5,-414 115.5,-392 8.5,-392"/>
<text text-anchor="start" x="37.5" y="-400.2" font-family="Helvetica,sans-Serif" font-size="11.00">name</text>
<polygon fill="none" stroke="black" points="8.5,-374 8.5,-392 115.5,-392 115.5,-374 8.5,-374"/>
<text text-anchor="start" x="11.5" y="-380.2" font-family="Helvetica,sans-Serif" font-size="11.00">...</text>
<polygon fill="#ffffff" stroke="transparent" points="8.5,-356 8.5,-374 34.5,-374 34.5,-356 8.5,-356"/>
<polygon fill="none" stroke="black" points="8.5,-356 8.5,-374 34.5,-374 34.5,-356 8.5,-356"/>
<text text-anchor="start" x="11.5" y="-362.2" font-family="Helvetica,sans-Serif" font-size="11.00"> &#160;</text>
<polygon fill="#ffffff" stroke="transparent" points="34.5,-356 34.5,-374 86.5,-374 86.5,-356 34.5,-356"/>
<polygon fill="none" stroke="black" points="34.5,-356 34.5,-374 86.5,-374 86.5,-356 34.5,-356"/>
<text text-anchor="start" x="43.5" y="-362.2" font-family="Helvetica,sans-Serif" font-size="11.00">17 rows</text>
<polygon fill="#ffffff" stroke="transparent" points="86.5,-356 86.5,-374 115.5,-374 115.5,-356 86.5,-356"/>
<polygon fill="none" stroke="black" points="86.5,-356 86.5,-374 115.5,-374 115.5,-356 86.5,-356"/>
<text text-anchor="start" x="96.5" y="-362.2" font-family="Helvetica,sans-Serif" font-size="11.00">7 &gt;</text>
</a>
</g>
</g>
<!-- aggregate_risks&#45;&gt;risk_factors -->
<g id="edge2" class="edge">
<title>aggregate_risks:w&#45;&gt;risk_factors:e</title>
<path fill="none" stroke="black" d="M466.85,-572.19C331.44,-575.61 266.2,-624.2 156,-537 114.61,-504.25 169.28,-425 116.5,-425"/>
<polygon fill="black" stroke="black" points="473.5,-572.1 481.55,-575.6 477.5,-572.05 481.5,-572 481.5,-572 481.5,-572 477.5,-572.05 481.45,-568.4 473.5,-572.1 473.5,-572.1"/>
<ellipse fill="none" stroke="black" cx="470.3" cy="-572.14" rx="3.2" ry="3.2"/>
</g>
<!-- hazard_metrics&#45;&gt;risk_factors -->
<g id="edge4" class="edge">
<title>hazard_metrics:w&#45;&gt;risk_factors:e</title>
<path fill="none" stroke="black" d="M150.28,-425C139.29,-425 132.16,-425 116.5,-425"/>
<polygon fill="black" stroke="black" points="157,-425 165,-428.6 161,-425 165,-425 165,-425 165,-425 161,-425 165,-421.4 157,-425 157,-425"/>
<ellipse fill="none" stroke="black" cx="153.8" cy="-425" rx="3.2" ry="3.2"/>
</g>
<!-- decadal_states -->
<g id="node4" class="node">
<title>decadal_states</title>
<g id="a_node4"><a xlink:href="../../tables/decadal_states.html" xlink:title="decadal_states" target="_top">
<polygon fill="#ffffff" stroke="transparent" points="457,-204 457,-504 684,-504 684,-204 457,-204"/>
<polygon fill="#f5f5f5" stroke="transparent" points="457.5,-482 457.5,-504 684.5,-504 684.5,-482 457.5,-482"/>
<polygon fill="none" stroke="black" points="457.5,-482 457.5,-504 684.5,-504 684.5,-482 457.5,-482"/>
<text text-anchor="start" x="462.5" y="-491.2" font-family="Helvetica,sans-Serif" font-weight="bold" font-size="11.00">decadal_states</text>
<text text-anchor="start" x="649.5" y="-490.2" font-family="Helvetica,sans-Serif" font-size="11.00">[table]</text>
<polygon fill="none" stroke="black" points="457.5,-460 457.5,-482 684.5,-482 684.5,-460 457.5,-460"/>
<image xlink:href="../../images/primaryKeys.png" width="11px" height="12px" preserveAspectRatio="xMinYMin meet" x="462.5" y="-477"/>
<text text-anchor="start" x="477.5" y="-468.2" font-family="Helvetica,sans-Serif" font-size="11.00">id</text>
<polygon fill="#ffffff" stroke="transparent" points="457.5,-438 457.5,-460 684.5,-460 684.5,-438 457.5,-438"/>
<polygon fill="none" stroke="black" points="457.5,-438 457.5,-460 684.5,-460 684.5,-438 457.5,-438"/>
<text text-anchor="start" x="477.5" y="-446.2" font-family="Helvetica,sans-Serif" font-size="11.00">grid_square_id</text>
<polygon fill="#ffffff" stroke="transparent" points="457.5,-416 457.5,-438 684.5,-438 684.5,-416 457.5,-416"/>
<polygon fill="none" stroke="black" points="457.5,-416 457.5,-438 684.5,-438 684.5,-416 457.5,-416"/>
<text text-anchor="start" x="477.5" y="-424.2" font-family="Helvetica,sans-Serif" font-size="11.00">point_loc_id</text>
<polygon fill="#ffffff" stroke="transparent" points="457.5,-394 457.5,-416 684.5,-416 684.5,-394 457.5,-394"/>
<polygon fill="none" stroke="black" points="457.5,-394 457.5,-416 684.5,-416 684.5,-394 457.5,-394"/>
<image xlink:href="../../images/foreignKeys.png" width="11px" height="12px" preserveAspectRatio="xMinYMin meet" x="462.5" y="-411"/>
<text text-anchor="start" x="477.5" y="-402.2" font-family="Helvetica,sans-Serif" font-size="11.00">region_id</text>
<polygon fill="#ffffff" stroke="transparent" points="457.5,-372 457.5,-394 684.5,-394 684.5,-372 457.5,-372"/>
<polygon fill="none" stroke="black" points="457.5,-372 457.5,-394 684.5,-394 684.5,-372 457.5,-372"/>
<text text-anchor="start" x="477.5" y="-380.2" font-family="Helvetica,sans-Serif" font-size="11.00">decadal_state_type</text>
<polygon fill="#ffffff" stroke="transparent" points="457.5,-350 457.5,-372 684.5,-372 684.5,-350 457.5,-350"/>
<polygon fill="none" stroke="black" points="457.5,-350 457.5,-372 684.5,-372 684.5,-350 457.5,-350"/>
<image xlink:href="../../images/foreignKeys.png" width="11px" height="12px" preserveAspectRatio="xMinYMin meet" x="462.5" y="-367"/>
<text text-anchor="start" x="477.5" y="-358.2" font-family="Helvetica,sans-Serif" font-size="11.00">hazard_metric_id</text>
<polygon fill="#ffffff" stroke="transparent" points="457.5,-328 457.5,-350 684.5,-350 684.5,-328 457.5,-328"/>
<polygon fill="none" stroke="black" points="457.5,-328 457.5,-350 684.5,-350 684.5,-328 457.5,-328"/>
<image xlink:href="../../images/foreignKeys.png" width="11px" height="12px" preserveAspectRatio="xMinYMin meet" x="462.5" y="-345"/>
<text text-anchor="start" x="477.5" y="-336.2" font-family="Helvetica,sans-Serif" font-size="11.00">scenario_id</text>
<polygon fill="#ffffff" stroke="transparent" points="457.5,-306 457.5,-328 684.5,-328 684.5,-306 457.5,-306"/>
<polygon fill="none" stroke="black" points="457.5,-306 457.5,-328 684.5,-328 684.5,-306 457.5,-306"/>
<text text-anchor="start" x="477.5" y="-314.2" font-family="Helvetica,sans-Serif" font-size="11.00">decade</text>
<polygon fill="#ffffff" stroke="transparent" points="457.5,-284 457.5,-306 684.5,-306 684.5,-284 457.5,-284"/>
<polygon fill="none" stroke="black" points="457.5,-284 457.5,-306 684.5,-306 684.5,-284 457.5,-284"/>
<text text-anchor="start" x="477.5" y="-292.2" font-family="Helvetica,sans-Serif" font-size="11.00">proc_flag_decadal_states_calc</text>
<polygon fill="#ffffff" stroke="transparent" points="457.5,-262 457.5,-284 684.5,-284 684.5,-262 457.5,-262"/>
<polygon fill="none" stroke="black" points="457.5,-262 457.5,-284 684.5,-284 684.5,-262 457.5,-262"/>
<text text-anchor="start" x="477.5" y="-270.2" font-family="Helvetica,sans-Serif" font-size="11.00">not_in_model</text>
<polygon fill="#ffffff" stroke="transparent" points="457.5,-240 457.5,-262 684.5,-262 684.5,-240 457.5,-240"/>
<polygon fill="none" stroke="black" points="457.5,-240 457.5,-262 684.5,-262 684.5,-240 457.5,-240"/>
<text text-anchor="start" x="477.5" y="-248.2" font-family="Helvetica,sans-Serif" font-size="11.00">batch_id</text>
<polygon fill="none" stroke="black" points="457.5,-222 457.5,-240 684.5,-240 684.5,-222 457.5,-222"/>
<text text-anchor="start" x="460.5" y="-228.2" font-family="Helvetica,sans-Serif" font-size="11.00">...</text>
<polygon fill="#ffffff" stroke="transparent" points="457.5,-204 457.5,-222 534.5,-222 534.5,-204 457.5,-204"/>
<polygon fill="none" stroke="black" points="457.5,-204 457.5,-222 534.5,-222 534.5,-204 457.5,-204"/>
<text text-anchor="start" x="460.5" y="-210.2" font-family="Helvetica,sans-Serif" font-size="11.00">&lt; 3</text>
<polygon fill="#ffffff" stroke="transparent" points="534.5,-204 534.5,-222 643.5,-222 643.5,-204 534.5,-204"/>
<polygon fill="none" stroke="black" points="534.5,-204 534.5,-222 643.5,-222 643.5,-204 534.5,-204"/>
<text text-anchor="start" x="564.5" y="-210.2" font-family="Helvetica,sans-Serif" font-size="11.00">7,749,532 rows</text>
<polygon fill="#ffffff" stroke="transparent" points="643.5,-204 643.5,-222 684.5,-222 684.5,-204 643.5,-204"/>
<polygon fill="none" stroke="black" points="643.5,-204 643.5,-222 684.5,-222 684.5,-204 643.5,-204"/>
<text text-anchor="start" x="674.5" y="-210.2" font-family="Helvetica,sans-Serif" font-size="11.00"> &#160;</text>
</a>
</g>
</g>
<!-- decadal_states&#45;&gt;hazard_metrics -->
<g id="edge3" class="edge">
<title>decadal_states:w&#45;&gt;hazard_metrics:e</title>
<path fill="none" stroke="black" d="M442.02,-364.48C407.86,-385.15 462.79,-491 407,-491"/>
<polygon fill="black" stroke="black" points="448.72,-362.87 457.34,-364.5 452.61,-361.93 456.5,-361 456.5,-361 456.5,-361 452.61,-361.93 455.66,-357.5 448.72,-362.87 448.72,-362.87"/>
<ellipse fill="none" stroke="black" cx="445.61" cy="-363.62" rx="3.2" ry="3.2"/>
</g>
<!-- impact_functions -->
<g id="node5" class="node">
<title>impact_functions</title>
<g id="a_node5"><a xlink:href="../../tables/impact_functions.html" xlink:title="impact_functions" target="_top">
<polygon fill="#ffffff" stroke="transparent" points="501,-37 501,-183 640,-183 640,-37 501,-37"/>
<polygon fill="#f5f5f5" stroke="transparent" points="501.5,-161 501.5,-183 640.5,-183 640.5,-161 501.5,-161"/>
<polygon fill="none" stroke="black" points="501.5,-161 501.5,-183 640.5,-183 640.5,-161 501.5,-161"/>
<text text-anchor="start" x="506.5" y="-170.2" font-family="Helvetica,sans-Serif" font-weight="bold" font-size="11.00">impact_functions</text>
<text text-anchor="start" x="605.5" y="-169.2" font-family="Helvetica,sans-Serif" font-size="11.00">[table]</text>
<polygon fill="none" stroke="black" points="501.5,-139 501.5,-161 640.5,-161 640.5,-139 501.5,-139"/>
<image xlink:href="../../images/primaryKeys.png" width="11px" height="12px" preserveAspectRatio="xMinYMin meet" x="506.5" y="-156"/>
<text text-anchor="start" x="521.5" y="-147.2" font-family="Helvetica,sans-Serif" font-size="11.00">id</text>
<polygon fill="#ffffff" stroke="transparent" points="501.5,-117 501.5,-139 640.5,-139 640.5,-117 501.5,-117"/>
<polygon fill="none" stroke="black" points="501.5,-117 501.5,-139 640.5,-139 640.5,-117 501.5,-117"/>
<text text-anchor="start" x="521.5" y="-125.2" font-family="Helvetica,sans-Serif" font-size="11.00">name</text>
<polygon fill="none" stroke="black" points="501.5,-95 501.5,-117 640.5,-117 640.5,-95 501.5,-95"/>
<image xlink:href="../../images/foreignKeys.png" width="11px" height="12px" preserveAspectRatio="xMinYMin meet" x="506.5" y="-112"/>
<text text-anchor="start" x="521.5" y="-103.2" font-family="Helvetica,sans-Serif" font-size="11.00">hazard_metric_id</text>
<polygon fill="none" stroke="black" points="501.5,-73 501.5,-95 640.5,-95 640.5,-73 501.5,-73"/>
<image xlink:href="../../images/foreignKeys.png" width="11px" height="12px" preserveAspectRatio="xMinYMin meet" x="506.5" y="-90"/>
<text text-anchor="start" x="521.5" y="-81.2" font-family="Helvetica,sans-Serif" font-size="11.00">risk_factor_id</text>
<polygon fill="none" stroke="black" points="501.5,-55 501.5,-73 640.5,-73 640.5,-55 501.5,-55"/>
<text text-anchor="start" x="504.5" y="-61.2" font-family="Helvetica,sans-Serif" font-size="11.00">...</text>
<polygon fill="#ffffff" stroke="transparent" points="501.5,-37 501.5,-55 540.5,-55 540.5,-37 501.5,-37"/>
<polygon fill="none" stroke="black" points="501.5,-37 501.5,-55 540.5,-55 540.5,-37 501.5,-37"/>
<text text-anchor="start" x="504.5" y="-43.2" font-family="Helvetica,sans-Serif" font-size="11.00">&lt; 2</text>
<polygon fill="#ffffff" stroke="transparent" points="540.5,-37 540.5,-55 609.5,-55 609.5,-37 540.5,-37"/>
<polygon fill="none" stroke="black" points="540.5,-37 540.5,-55 609.5,-55 609.5,-37 540.5,-37"/>
<text text-anchor="start" x="551.5" y="-43.2" font-family="Helvetica,sans-Serif" font-size="11.00">3,261 rows</text>
<polygon fill="#ffffff" stroke="transparent" points="609.5,-37 609.5,-55 640.5,-55 640.5,-37 609.5,-37"/>
<polygon fill="none" stroke="black" points="609.5,-37 609.5,-55 640.5,-55 640.5,-37 609.5,-37"/>
<text text-anchor="start" x="621.5" y="-43.2" font-family="Helvetica,sans-Serif" font-size="11.00">2 &gt;</text>
</a>
</g>
</g>
<!-- impact_functions&#45;&gt;hazard_metrics -->
<g id="edge5" class="edge">
<title>impact_functions:w&#45;&gt;hazard_metrics:e</title>
<path fill="none" stroke="black" d="M485.89,-108.03C456.99,-117.26 462.04,-156.55 449,-194 427.09,-256.95 473.66,-491 407,-491"/>
<polygon fill="black" stroke="black" points="492.58,-107.1 500.99,-109.57 496.54,-106.55 500.5,-106 500.5,-106 500.5,-106 496.54,-106.55 500.01,-102.43 492.58,-107.1 492.58,-107.1"/>
<ellipse fill="none" stroke="black" cx="489.41" cy="-107.54" rx="3.2" ry="3.2"/>
</g>
<!-- impact_functions&#45;&gt;risk_factors -->
<g id="edge6" class="edge">
<title>impact_functions:w&#45;&gt;risk_factors:e</title>
<path fill="none" stroke="black" d="M485.92,-83.73C342.18,-78.35 265.07,3.46 156,-97 102,-146.74 189.92,-425 116.5,-425"/>
<polygon fill="black" stroke="black" points="492.5,-83.85 500.43,-87.6 496.5,-83.93 500.5,-84 500.5,-84 500.5,-84 496.5,-83.93 500.57,-80.4 492.5,-83.85 492.5,-83.85"/>
<ellipse fill="none" stroke="black" cx="489.3" cy="-83.79" rx="3.2" ry="3.2"/>
</g>
</g>
</svg>
