<?xml version="1.0" encoding="UTF-8" standalone="no"?>
<!DOCTYPE svg PUBLIC "-//W3C//DTD SVG 1.1//EN"
 "http://www.w3.org/Graphics/SVG/1.1/DTD/svg11.dtd">
<!-- Generated by graphviz version 2.50.0 (20211204.2007)
 -->
<!-- Title: twoDegreesRelationshipsDiagram Pages: 1 -->
<svg width="953pt" height="990pt"
 viewBox="0.00 0.00 953.00 990.31" xmlns="http://www.w3.org/2000/svg" xmlns:xlink="http://www.w3.org/1999/xlink">
<g id="graph0" class="graph" transform="scale(1 1) rotate(0) translate(4 986.31)">
<title>twoDegreesRelationshipsDiagram</title>
<polygon fill="#ffffff" stroke="transparent" points="-4,4 -4,-986.31 949,-986.31 949,4 -4,4"/>
<text text-anchor="middle" x="72.5" y="-7.2" font-family="Helvetica,sans-Serif" font-size="11.00">Generated by SchemaSpy</text>
<!-- aggregate_impacts -->
<g id="node1" class="node">
<title>aggregate_impacts</title>
<g id="a_node1"><a xlink:href="../../tables/aggregate_impacts.html" xlink:title="aggregate_impacts" target="_top">
<polygon fill="#ffffff" stroke="transparent" points="498,-864 498,-922 643,-922 643,-864 498,-864"/>
<polygon fill="#f5f5f5" stroke="transparent" points="498.5,-900 498.5,-922 643.5,-922 643.5,-900 498.5,-900"/>
<polygon fill="none" stroke="black" points="498.5,-900 498.5,-922 643.5,-922 643.5,-900 498.5,-900"/>
<text text-anchor="start" x="503.5" y="-909.2" font-family="Helvetica,sans-Serif" font-weight="bold" font-size="11.00">aggregate_impacts</text>
<text text-anchor="start" x="608.5" y="-908.2" font-family="Helvetica,sans-Serif" font-size="11.00">[table]</text>
<polygon fill="none" stroke="black" points="498.5,-882 498.5,-900 643.5,-900 643.5,-882 498.5,-882"/>
<text text-anchor="start" x="501.5" y="-888.2" font-family="Helvetica,sans-Serif" font-size="11.00">...</text>
<polygon fill="#ffffff" stroke="transparent" points="498.5,-864 498.5,-882 534.5,-882 534.5,-864 498.5,-864"/>
<polygon fill="none" stroke="black" points="498.5,-864 498.5,-882 534.5,-882 534.5,-864 498.5,-864"/>
<text text-anchor="start" x="501.5" y="-870.2" font-family="Helvetica,sans-Serif" font-size="11.00">&lt; 2</text>
<polygon fill="#ffffff" stroke="transparent" points="534.5,-864 534.5,-882 623.5,-882 623.5,-864 534.5,-864"/>
<polygon fill="none" stroke="black" points="534.5,-864 534.5,-882 623.5,-882 623.5,-864 534.5,-864"/>
<text text-anchor="start" x="544.5" y="-870.2" font-family="Helvetica,sans-Serif" font-size="11.00">7,901,926 rows</text>
<polygon fill="#ffffff" stroke="transparent" points="623.5,-864 623.5,-882 643.5,-882 643.5,-864 623.5,-864"/>
<polygon fill="none" stroke="black" points="623.5,-864 623.5,-882 643.5,-882 643.5,-864 623.5,-864"/>
<text text-anchor="start" x="633.5" y="-870.2" font-family="Helvetica,sans-Serif" font-size="11.00"> &#160;</text>
</a>
</g>
</g>
<!-- risk_factors -->
<g id="node2" class="node">
<title>risk_factors</title>
<g id="a_node2"><a xlink:href="../../tables/risk_factors.html" xlink:title="risk_factors" target="_top">
<polygon fill="#ffffff" stroke="transparent" points="8,-187 8,-289 115,-289 115,-187 8,-187"/>
<polygon fill="#f5f5f5" stroke="transparent" points="8.5,-267 8.5,-289 115.5,-289 115.5,-267 8.5,-267"/>
<polygon fill="none" stroke="black" points="8.5,-267 8.5,-289 115.5,-289 115.5,-267 8.5,-267"/>
<text text-anchor="start" x="13.5" y="-276.2" font-family="Helvetica,sans-Serif" font-weight="bold" font-size="11.00">risk_factors</text>
<text text-anchor="start" x="80.5" y="-275.2" font-family="Helvetica,sans-Serif" font-size="11.00">[table]</text>
<polygon fill="none" stroke="black" points="8.5,-245 8.5,-267 115.5,-267 115.5,-245 8.5,-245"/>
<image xlink:href="../../images/primaryKeys.png" width="11px" height="12px" preserveAspectRatio="xMinYMin meet" x="13.5" y="-262"/>
<text text-anchor="start" x="37.5" y="-253.2" font-family="Helvetica,sans-Serif" font-size="11.00">id</text>
<polygon fill="#ffffff" stroke="transparent" points="8.5,-223 8.5,-245 115.5,-245 115.5,-223 8.5,-223"/>
<polygon fill="none" stroke="black" points="8.5,-223 8.5,-245 115.5,-245 115.5,-223 8.5,-223"/>
<text text-anchor="start" x="37.5" y="-231.2" font-family="Helvetica,sans-Serif" font-size="11.00">name</text>
<polygon fill="none" stroke="black" points="8.5,-205 8.5,-223 115.5,-223 115.5,-205 8.5,-205"/>
<text text-anchor="start" x="11.5" y="-211.2" font-family="Helvetica,sans-Serif" font-size="11.00">...</text>
<polygon fill="#ffffff" stroke="transparent" points="8.5,-187 8.5,-205 34.5,-205 34.5,-187 8.5,-187"/>
<polygon fill="none" stroke="black" points="8.5,-187 8.5,-205 34.5,-205 34.5,-187 8.5,-187"/>
<text text-anchor="start" x="11.5" y="-193.2" font-family="Helvetica,sans-Serif" font-size="11.00"> &#160;</text>
<polygon fill="#ffffff" stroke="transparent" points="34.5,-187 34.5,-205 86.5,-205 86.5,-187 34.5,-187"/>
<polygon fill="none" stroke="black" points="34.5,-187 34.5,-205 86.5,-205 86.5,-187 34.5,-187"/>
<text text-anchor="start" x="43.5" y="-193.2" font-family="Helvetica,sans-Serif" font-size="11.00">17 rows</text>
<polygon fill="#ffffff" stroke="transparent" points="86.5,-187 86.5,-205 115.5,-205 115.5,-187 86.5,-187"/>
<polygon fill="none" stroke="black" points="86.5,-187 86.5,-205 115.5,-205 115.5,-187 86.5,-187"/>
<text text-anchor="start" x="96.5" y="-193.2" font-family="Helvetica,sans-Serif" font-size="11.00">7 &gt;</text>
</a>
</g>
</g>
<!-- aggregate_impacts&#45;&gt;risk_factors -->
<g id="edge1" class="edge">
<title>aggregate_impacts:w&#45;&gt;risk_factors:e</title>
<path fill="none" stroke="black" d="M483.01,-891.25C340.03,-896.21 259.83,-971.41 156,-867 108.03,-818.76 184.53,-256 116.5,-256"/>
<polygon fill="black" stroke="black" points="489.5,-891.14 497.56,-894.6 493.5,-891.07 497.5,-891 497.5,-891 497.5,-891 493.5,-891.07 497.44,-887.4 489.5,-891.14 489.5,-891.14"/>
<ellipse fill="none" stroke="black" cx="486.3" cy="-891.19" rx="3.2" ry="3.2"/>
</g>
<!-- scenarios -->
<g id="node3" class="node">
<title>scenarios</title>
<g id="a_node3"><a xlink:href="../../tables/scenarios.html" xlink:title="scenarios" target="_top">
<polygon fill="#ffffff" stroke="transparent" points="238,-719 238,-777 334,-777 334,-719 238,-719"/>
<polygon fill="#f5f5f5" stroke="transparent" points="238,-755 238,-777 334,-777 334,-755 238,-755"/>
<polygon fill="none" stroke="black" points="238,-755 238,-777 334,-777 334,-755 238,-755"/>
<text text-anchor="start" x="243" y="-764.2" font-family="Helvetica,sans-Serif" font-weight="bold" font-size="11.00">scenarios</text>
<text text-anchor="start" x="299" y="-763.2" font-family="Helvetica,sans-Serif" font-size="11.00">[table]</text>
<polygon fill="none" stroke="black" points="238,-737 238,-755 334,-755 334,-737 238,-737"/>
<text text-anchor="start" x="241" y="-743.2" font-family="Helvetica,sans-Serif" font-size="11.00">...</text>
<polygon fill="#ffffff" stroke="transparent" points="238,-719 238,-737 261,-737 261,-719 238,-719"/>
<polygon fill="none" stroke="black" points="238,-719 238,-737 261,-737 261,-719 238,-719"/>
<text text-anchor="start" x="241" y="-725.2" font-family="Helvetica,sans-Serif" font-size="11.00"> &#160;</text>
<polygon fill="#ffffff" stroke="transparent" points="261,-719 261,-737 306,-737 306,-719 261,-719"/>
<polygon fill="none" stroke="black" points="261,-719 261,-737 306,-737 306,-719 261,-719"/>
<text text-anchor="start" x="269" y="-725.2" font-family="Helvetica,sans-Serif" font-size="11.00">4 rows</text>
<polygon fill="#ffffff" stroke="transparent" points="306,-719 306,-737 334,-737 334,-719 306,-719"/>
<polygon fill="none" stroke="black" points="306,-719 306,-737 334,-737 334,-719 306,-719"/>
<text text-anchor="start" x="315" y="-725.2" font-family="Helvetica,sans-Serif" font-size="11.00">4 &gt;</text>
</a>
</g>
</g>
<!-- aggregate_impacts&#45;&gt;scenarios -->
<g id="edge2" class="edge">
<title>aggregate_impacts:w&#45;&gt;scenarios:e</title>
<path fill="none" stroke="black" d="M483.07,-888.96C468.07,-883.99 462.64,-870.48 449,-854 428.09,-828.74 439.02,-811.36 416,-788 387.54,-759.12 375.55,-746 335,-746"/>
<polygon fill="black" stroke="black" points="489.58,-889.88 496.99,-894.56 493.54,-890.44 497.5,-891 497.5,-891 497.5,-891 493.54,-890.44 498.01,-887.44 489.58,-889.88 489.58,-889.88"/>
<ellipse fill="none" stroke="black" cx="486.41" cy="-889.43" rx="3.2" ry="3.2"/>
</g>
<!-- aggregate_risks -->
<g id="node4" class="node">
<title>aggregate_risks</title>
<g id="a_node4"><a xlink:href="../../tables/aggregate_risks.html" xlink:title="aggregate_risks" target="_top">
<polygon fill="#ffffff" stroke="transparent" points="482,-143 482,-355 659,-355 659,-143 482,-143"/>
<polygon fill="#f5f5f5" stroke="transparent" points="482.5,-333 482.5,-355 659.5,-355 659.5,-333 482.5,-333"/>
<polygon fill="none" stroke="black" points="482.5,-333 482.5,-355 659.5,-355 659.5,-333 482.5,-333"/>
<text text-anchor="start" x="487.5" y="-342.2" font-family="Helvetica,sans-Serif" font-weight="bold" font-size="11.00">aggregate_risks</text>
<text text-anchor="start" x="624.5" y="-341.2" font-family="Helvetica,sans-Serif" font-size="11.00">[table]</text>
<polygon fill="none" stroke="black" points="482.5,-311 482.5,-333 659.5,-333 659.5,-311 482.5,-311"/>
<image xlink:href="../../images/primaryKeys.png" width="11px" height="12px" preserveAspectRatio="xMinYMin meet" x="487.5" y="-328"/>
<text text-anchor="start" x="502.5" y="-319.2" font-family="Helvetica,sans-Serif" font-size="11.00">customer_id</text>
<polygon fill="none" stroke="black" points="482.5,-289 482.5,-311 659.5,-311 659.5,-289 482.5,-289"/>
<image xlink:href="../../images/primaryKeys.png" width="11px" height="12px" preserveAspectRatio="xMinYMin meet" x="487.5" y="-306"/>
<text text-anchor="start" x="502.5" y="-297.2" font-family="Helvetica,sans-Serif" font-size="11.00">entity_type</text>
<polygon fill="none" stroke="black" points="482.5,-267 482.5,-289 659.5,-289 659.5,-267 482.5,-267"/>
<image xlink:href="../../images/primaryKeys.png" width="11px" height="12px" preserveAspectRatio="xMinYMin meet" x="487.5" y="-284"/>
<text text-anchor="start" x="502.5" y="-275.2" font-family="Helvetica,sans-Serif" font-size="11.00">entity_id</text>
<polygon fill="none" stroke="black" points="482.5,-245 482.5,-267 659.5,-267 659.5,-245 482.5,-245"/>
<image xlink:href="../../images/primaryKeys.png" width="11px" height="12px" preserveAspectRatio="xMinYMin meet" x="487.5" y="-262"/>
<text text-anchor="start" x="502.5" y="-253.2" font-family="Helvetica,sans-Serif" font-size="11.00">scenario_id</text>
<polygon fill="none" stroke="black" points="482.5,-223 482.5,-245 659.5,-245 659.5,-223 482.5,-223"/>
<image xlink:href="../../images/primaryKeys.png" width="11px" height="12px" preserveAspectRatio="xMinYMin meet" x="487.5" y="-240"/>
<text text-anchor="start" x="502.5" y="-231.2" font-family="Helvetica,sans-Serif" font-size="11.00">decade</text>
<polygon fill="none" stroke="black" points="482.5,-201 482.5,-223 659.5,-223 659.5,-201 482.5,-201"/>
<image xlink:href="../../images/primaryKeys.png" width="11px" height="12px" preserveAspectRatio="xMinYMin meet" x="487.5" y="-218"/>
<text text-anchor="start" x="502.5" y="-209.2" font-family="Helvetica,sans-Serif" font-size="11.00">hazard_metric_id</text>
<polygon fill="none" stroke="black" points="482.5,-179 482.5,-201 659.5,-201 659.5,-179 482.5,-179"/>
<image xlink:href="../../images/primaryKeys.png" width="11px" height="12px" preserveAspectRatio="xMinYMin meet" x="487.5" y="-196"/>
<text text-anchor="start" x="502.5" y="-187.2" font-family="Helvetica,sans-Serif" font-size="11.00">risk_factor_id</text>
<polygon fill="none" stroke="black" points="482.5,-161 482.5,-179 659.5,-179 659.5,-161 482.5,-161"/>
<text text-anchor="start" x="485.5" y="-167.2" font-family="Helvetica,sans-Serif" font-size="11.00">...</text>
<polygon fill="#ffffff" stroke="transparent" points="482.5,-143 482.5,-161 538.5,-161 538.5,-143 482.5,-143"/>
<polygon fill="none" stroke="black" points="482.5,-143 482.5,-161 538.5,-161 538.5,-143 482.5,-143"/>
<text text-anchor="start" x="485.5" y="-149.2" font-family="Helvetica,sans-Serif" font-size="11.00">&lt; 4</text>
<polygon fill="#ffffff" stroke="transparent" points="538.5,-143 538.5,-161 628.5,-161 628.5,-143 538.5,-143"/>
<polygon fill="none" stroke="black" points="538.5,-143 538.5,-161 628.5,-161 628.5,-143 538.5,-143"/>
<text text-anchor="start" x="558.5" y="-149.2" font-family="Helvetica,sans-Serif" font-size="11.00">133,008 rows</text>
<polygon fill="#ffffff" stroke="transparent" points="628.5,-143 628.5,-161 659.5,-161 659.5,-143 628.5,-143"/>
<polygon fill="none" stroke="black" points="628.5,-143 628.5,-161 659.5,-161 659.5,-143 628.5,-143"/>
<text text-anchor="start" x="649.5" y="-149.2" font-family="Helvetica,sans-Serif" font-size="11.00"> &#160;</text>
</a>
</g>
</g>
<!-- aggregate_risks&#45;&gt;risk_factors -->
<g id="edge5" class="edge">
<title>aggregate_risks:w&#45;&gt;risk_factors:e</title>
<path fill="none" stroke="black" d="M467,-188.25C448.07,-183.23 441.24,-168.83 416,-164 302.5,-142.3 252.49,-100.42 156,-164 118.84,-188.48 161,-256 116.5,-256"/>
<polygon fill="black" stroke="black" points="473.56,-189.04 481.07,-193.57 477.53,-189.52 481.5,-190 481.5,-190 481.5,-190 477.53,-189.52 481.93,-186.43 473.56,-189.04 473.56,-189.04"/>
<ellipse fill="none" stroke="black" cx="470.38" cy="-188.66" rx="3.2" ry="3.2"/>
</g>
<!-- aggregate_risks&#45;&gt;scenarios -->
<g id="edge6" class="edge">
<title>aggregate_risks:w&#45;&gt;scenarios:e</title>
<path fill="none" stroke="black" d="M467,-258.99C389.4,-294.24 471.91,-630.53 416,-709 393.03,-741.23 374.58,-746 335,-746"/>
<polygon fill="black" stroke="black" points="473.67,-257.62 482.23,-259.53 477.58,-256.81 481.5,-256 481.5,-256 481.5,-256 477.58,-256.81 480.77,-252.47 473.67,-257.62 473.67,-257.62"/>
<ellipse fill="none" stroke="black" cx="470.53" cy="-258.26" rx="3.2" ry="3.2"/>
</g>
<!-- customers -->
<g id="node5" class="node">
<title>customers</title>
<g id="a_node5"><a xlink:href="../../tables/customers.html" xlink:title="customers" target="_top">
<polygon fill="#ffffff" stroke="transparent" points="236,-174 236,-232 336,-232 336,-174 236,-174"/>
<polygon fill="#f5f5f5" stroke="transparent" points="236,-210 236,-232 336,-232 336,-210 236,-210"/>
<polygon fill="none" stroke="black" points="236,-210 236,-232 336,-232 336,-210 236,-210"/>
<text text-anchor="start" x="241" y="-219.2" font-family="Helvetica,sans-Serif" font-weight="bold" font-size="11.00">customers</text>
<text text-anchor="start" x="301" y="-218.2" font-family="Helvetica,sans-Serif" font-size="11.00">[table]</text>
<polygon fill="none" stroke="black" points="236,-192 236,-210 336,-210 336,-192 236,-192"/>
<text text-anchor="start" x="239" y="-198.2" font-family="Helvetica,sans-Serif" font-size="11.00">...</text>
<polygon fill="#ffffff" stroke="transparent" points="236,-174 236,-192 255,-192 255,-174 236,-174"/>
<polygon fill="none" stroke="black" points="236,-174 236,-192 255,-192 255,-174 236,-174"/>
<text text-anchor="start" x="239" y="-180.2" font-family="Helvetica,sans-Serif" font-size="11.00"> &#160;</text>
<polygon fill="#ffffff" stroke="transparent" points="255,-174 255,-192 310,-192 310,-174 255,-174"/>
<polygon fill="none" stroke="black" points="255,-174 255,-192 310,-192 310,-174 255,-174"/>
<text text-anchor="start" x="261" y="-180.2" font-family="Helvetica,sans-Serif" font-size="11.00">938 rows</text>
<polygon fill="#ffffff" stroke="transparent" points="310,-174 310,-192 336,-192 336,-174 310,-174"/>
<polygon fill="none" stroke="black" points="310,-174 310,-192 336,-192 336,-174 310,-174"/>
<text text-anchor="start" x="317" y="-180.2" font-family="Helvetica,sans-Serif" font-size="11.00">5 &gt;</text>
</a>
</g>
</g>
<!-- aggregate_risks&#45;&gt;customers -->
<g id="edge3" class="edge">
<title>aggregate_risks:w&#45;&gt;customers:e</title>
<path fill="none" stroke="black" d="M466.93,-319.77C439.6,-310.03 445.99,-270.68 416,-246 384.8,-220.32 377.41,-201 337,-201"/>
<polygon fill="black" stroke="black" points="473.59,-320.79 480.95,-325.56 477.55,-321.39 481.5,-322 481.5,-322 481.5,-322 477.55,-321.39 482.05,-318.44 473.59,-320.79 473.59,-320.79"/>
<ellipse fill="none" stroke="black" cx="470.43" cy="-320.3" rx="3.2" ry="3.2"/>
</g>
<!-- hazard_metrics -->
<g id="node6" class="node">
<title>hazard_metrics</title>
<g id="a_node6"><a xlink:href="../../tables/hazard_metrics.html" xlink:title="hazard_metrics" target="_top">
<polygon fill="#ffffff" stroke="transparent" points="164,-280 164,-698 408,-698 408,-280 164,-280"/>
<polygon fill="#f5f5f5" stroke="transparent" points="166,-674 166,-696 406,-696 406,-674 166,-674"/>
<polygon fill="none" stroke="black" points="166,-674 166,-696 406,-696 406,-674 166,-674"/>
<text text-anchor="start" x="171" y="-683.2" font-family="Helvetica,sans-Serif" font-weight="bold" font-size="11.00">hazard_metrics</text>
<text text-anchor="start" x="371" y="-682.2" font-family="Helvetica,sans-Serif" font-size="11.00">[table]</text>
<polygon fill="none" stroke="black" points="166,-652 166,-674 321,-674 321,-652 166,-652"/>
<image xlink:href="../../images/primaryKeys.png" width="11px" height="12px" preserveAspectRatio="xMinYMin meet" x="171" y="-669"/>
<text text-anchor="start" x="186" y="-660.2" font-family="Helvetica,sans-Serif" font-size="11.00">id</text>
<polygon fill="none" stroke="black" points="321,-652 321,-674 406,-674 406,-652 321,-652"/>
<text text-anchor="start" x="324" y="-660.2" font-family="Helvetica,sans-Serif" font-size="11.00">serial[10]</text>
<polygon fill="#ffffff" stroke="transparent" points="166,-630 166,-652 321,-652 321,-630 166,-630"/>
<polygon fill="none" stroke="black" points="166,-630 166,-652 321,-652 321,-630 166,-630"/>
<text text-anchor="start" x="186" y="-638.2" font-family="Helvetica,sans-Serif" font-size="11.00">name</text>
<polygon fill="none" stroke="black" points="321,-630 321,-652 406,-652 406,-630 321,-630"/>
<text text-anchor="start" x="324" y="-638.2" font-family="Helvetica,sans-Serif" font-size="11.00">varchar[128]</text>
<polygon fill="#ffffff" stroke="transparent" points="166,-608 166,-630 321,-630 321,-608 166,-608"/>
<polygon fill="none" stroke="black" points="166,-608 166,-630 321,-630 321,-608 166,-608"/>
<text text-anchor="start" x="186" y="-616.2" font-family="Helvetica,sans-Serif" font-size="11.00">name_etl</text>
<polygon fill="none" stroke="black" points="321,-608 321,-630 406,-630 406,-608 321,-608"/>
<text text-anchor="start" x="324" y="-616.2" font-family="Helvetica,sans-Serif" font-size="11.00">varchar[16]</text>
<polygon fill="none" stroke="black" points="166,-586 166,-608 321,-608 321,-586 166,-586"/>
<image xlink:href="../../images/foreignKeys.png" width="11px" height="12px" preserveAspectRatio="xMinYMin meet" x="171" y="-603"/>
<text text-anchor="start" x="186" y="-594.2" font-family="Helvetica,sans-Serif" font-size="11.00">risk_factor_id</text>
<polygon fill="none" stroke="black" points="321,-586 321,-608 406,-608 406,-586 321,-586"/>
<text text-anchor="start" x="324" y="-594.2" font-family="Helvetica,sans-Serif" font-size="11.00">int4[10]</text>
<polygon fill="none" stroke="black" points="166,-564 166,-586 321,-586 321,-564 166,-564"/>
<text text-anchor="start" x="186" y="-572.2" font-family="Helvetica,sans-Serif" font-size="11.00">icon_name</text>
<polygon fill="none" stroke="black" points="321,-564 321,-586 406,-586 406,-564 321,-564"/>
<text text-anchor="start" x="324" y="-572.2" font-family="Helvetica,sans-Serif" font-size="11.00">varchar[64]</text>
<polygon fill="none" stroke="black" points="166,-542 166,-564 321,-564 321,-542 166,-542"/>
<text text-anchor="start" x="186" y="-550.2" font-family="Helvetica,sans-Serif" font-size="11.00">icon_color</text>
<polygon fill="none" stroke="black" points="321,-542 321,-564 406,-564 406,-542 321,-542"/>
<text text-anchor="start" x="324" y="-550.2" font-family="Helvetica,sans-Serif" font-size="11.00">varchar[64]</text>
<polygon fill="none" stroke="black" points="166,-520 166,-542 321,-542 321,-520 166,-520"/>
<text text-anchor="start" x="186" y="-528.2" font-family="Helvetica,sans-Serif" font-size="11.00">class</text>
<polygon fill="none" stroke="black" points="321,-520 321,-542 406,-542 406,-520 321,-520"/>
<text text-anchor="start" x="324" y="-528.2" font-family="Helvetica,sans-Serif" font-size="11.00">int4[10]</text>
<polygon fill="none" stroke="black" points="166,-498 166,-520 321,-520 321,-498 166,-498"/>
<text text-anchor="start" x="186" y="-506.2" font-family="Helvetica,sans-Serif" font-size="11.00">uom</text>
<polygon fill="none" stroke="black" points="321,-498 321,-520 406,-520 406,-498 321,-498"/>
<text text-anchor="start" x="324" y="-506.2" font-family="Helvetica,sans-Serif" font-size="11.00">varchar[32]</text>
<polygon fill="none" stroke="black" points="166,-476 166,-498 321,-498 321,-476 166,-476"/>
<text text-anchor="start" x="186" y="-484.2" font-family="Helvetica,sans-Serif" font-size="11.00">descr</text>
<polygon fill="none" stroke="black" points="321,-476 321,-498 406,-498 406,-476 321,-476"/>
<text text-anchor="start" x="324" y="-484.2" font-family="Helvetica,sans-Serif" font-size="11.00">varchar[2048]</text>
<polygon fill="none" stroke="black" points="166,-454 166,-476 321,-476 321,-454 166,-454"/>
<text text-anchor="start" x="186" y="-462.2" font-family="Helvetica,sans-Serif" font-size="11.00">notes</text>
<polygon fill="none" stroke="black" points="321,-454 321,-476 406,-476 406,-454 321,-454"/>
<text text-anchor="start" x="324" y="-462.2" font-family="Helvetica,sans-Serif" font-size="11.00">varchar[256]</text>
<polygon fill="none" stroke="black" points="166,-432 166,-454 321,-454 321,-432 166,-432"/>
<text text-anchor="start" x="186" y="-440.2" font-family="Helvetica,sans-Serif" font-size="11.00">do_not_approximate</text>
<polygon fill="none" stroke="black" points="321,-432 321,-454 406,-454 406,-432 321,-432"/>
<text text-anchor="start" x="324" y="-440.2" font-family="Helvetica,sans-Serif" font-size="11.00">bool[1]</text>
<polygon fill="none" stroke="black" points="166,-410 166,-432 321,-432 321,-410 166,-410"/>
<text text-anchor="start" x="186" y="-418.2" font-family="Helvetica,sans-Serif" font-size="11.00">y_label</text>
<polygon fill="none" stroke="black" points="321,-410 321,-432 406,-432 406,-410 321,-410"/>
<text text-anchor="start" x="324" y="-418.2" font-family="Helvetica,sans-Serif" font-size="11.00">varchar[128]</text>
<polygon fill="none" stroke="black" points="166,-388 166,-410 321,-410 321,-388 166,-388"/>
<text text-anchor="start" x="186" y="-396.2" font-family="Helvetica,sans-Serif" font-size="11.00">hazard_label</text>
<polygon fill="none" stroke="black" points="321,-388 321,-410 406,-410 406,-388 321,-388"/>
<text text-anchor="start" x="324" y="-396.2" font-family="Helvetica,sans-Serif" font-size="11.00">varchar[128]</text>
<polygon fill="none" stroke="black" points="166,-366 166,-388 321,-388 321,-366 166,-366"/>
<text text-anchor="start" x="186" y="-374.2" font-family="Helvetica,sans-Serif" font-size="11.00">created_at</text>
<polygon fill="none" stroke="black" points="321,-366 321,-388 406,-388 406,-366 321,-366"/>
<text text-anchor="start" x="324" y="-374.2" font-family="Helvetica,sans-Serif" font-size="11.00">timestamp[29,6]</text>
<polygon fill="none" stroke="black" points="166,-344 166,-366 321,-366 321,-344 166,-344"/>
<text text-anchor="start" x="186" y="-352.2" font-family="Helvetica,sans-Serif" font-size="11.00">updated_at</text>
<polygon fill="none" stroke="black" points="321,-344 321,-366 406,-366 406,-344 321,-344"/>
<text text-anchor="start" x="324" y="-352.2" font-family="Helvetica,sans-Serif" font-size="11.00">timestamp[29,6]</text>
<polygon fill="none" stroke="black" points="166,-322 166,-344 321,-344 321,-322 166,-322"/>
<text text-anchor="start" x="186" y="-330.2" font-family="Helvetica,sans-Serif" font-size="11.00">msg_no_data_available</text>
<polygon fill="none" stroke="black" points="321,-322 321,-344 406,-344 406,-322 321,-322"/>
<text text-anchor="start" x="324" y="-330.2" font-family="Helvetica,sans-Serif" font-size="11.00">varchar[512]</text>
<polygon fill="none" stroke="black" points="166,-300 166,-322 321,-322 321,-300 166,-300"/>
<text text-anchor="start" x="186" y="-308.2" font-family="Helvetica,sans-Serif" font-size="11.00">is_active</text>
<polygon fill="none" stroke="black" points="321,-300 321,-322 406,-322 406,-300 321,-300"/>
<text text-anchor="start" x="324" y="-308.2" font-family="Helvetica,sans-Serif" font-size="11.00">bool[1]</text>
<polygon fill="#ffffff" stroke="transparent" points="166,-282 166,-300 231,-300 231,-282 166,-282"/>
<polygon fill="none" stroke="black" points="166,-282 166,-300 231,-300 231,-282 166,-282"/>
<text text-anchor="start" x="169" y="-288.2" font-family="Helvetica,sans-Serif" font-size="11.00">&lt; 1</text>
<polygon fill="#ffffff" stroke="transparent" points="231,-282 231,-300 321,-300 321,-282 231,-282"/>
<polygon fill="none" stroke="black" points="231,-282 231,-300 321,-300 321,-282 231,-282"/>
<text text-anchor="start" x="278" y="-288.2" font-family="Helvetica,sans-Serif" font-size="11.00">15 rows</text>
<polygon fill="#ffffff" stroke="transparent" points="321,-282 321,-300 406,-300 406,-282 321,-282"/>
<polygon fill="none" stroke="black" points="321,-282 321,-300 406,-300 406,-282 321,-282"/>
<text text-anchor="start" x="387" y="-288.2" font-family="Helvetica,sans-Serif" font-size="11.00">3 &gt;</text>
<polygon fill="none" stroke="black" stroke-width="2" points="165,-281 165,-697 407,-697 407,-281 165,-281"/>
</a>
</g>
</g>
<!-- aggregate_risks&#45;&gt;hazard_metrics -->
<g id="edge4" class="edge">
<title>aggregate_risks:w&#45;&gt;hazard_metrics:e</title>
<path fill="none" stroke="black" d="M467.28,-215.63C392.85,-258.31 503.22,-663 407,-663"/>
<polygon fill="black" stroke="black" points="473.75,-213.98 482.39,-215.49 477.62,-212.99 481.5,-212 481.5,-212 481.5,-212 477.62,-212.99 480.61,-208.51 473.75,-213.98 473.75,-213.98"/>
<ellipse fill="none" stroke="black" cx="470.65" cy="-214.77" rx="3.2" ry="3.2"/>
</g>
<!-- hazard_metrics&#45;&gt;risk_factors -->
<g id="edge14" class="edge">
<title>hazard_metrics:w&#45;&gt;risk_factors:e</title>
<path fill="none" stroke="black" d="M150.34,-595.77C29.53,-573.44 264.2,-256 116.5,-256"/>
<polygon fill="black" stroke="black" points="157.03,-596.33 164.7,-600.59 161.01,-596.66 165,-597 165,-597 165,-597 161.01,-596.66 165.3,-593.41 157.03,-596.33 157.03,-596.33"/>
<ellipse fill="none" stroke="black" cx="153.84" cy="-596.06" rx="3.2" ry="3.2"/>
</g>
<!-- asset_types_impact_functions -->
<g id="node7" class="node">
<title>asset_types_impact_functions</title>
<g id="a_node7"><a xlink:href="../../tables/asset_types_impact_functions.html" xlink:title="asset_types_impact_functions" target="_top">
<polygon fill="#ffffff" stroke="transparent" points="733,-574 733,-632 937,-632 937,-574 733,-574"/>
<polygon fill="#f5f5f5" stroke="transparent" points="733,-610 733,-632 937,-632 937,-610 733,-610"/>
<polygon fill="none" stroke="black" points="733,-610 733,-632 937,-632 937,-610 733,-610"/>
<text text-anchor="start" x="738" y="-619.2" font-family="Helvetica,sans-Serif" font-weight="bold" font-size="11.00">asset_types_impact_functions</text>
<text text-anchor="start" x="902" y="-618.2" font-family="Helvetica,sans-Serif" font-size="11.00">[table]</text>
<polygon fill="none" stroke="black" points="733,-592 733,-610 937,-610 937,-592 733,-592"/>
<text text-anchor="start" x="736" y="-598.2" font-family="Helvetica,sans-Serif" font-size="11.00">...</text>
<polygon fill="#ffffff" stroke="transparent" points="733,-574 733,-592 813,-592 813,-574 733,-574"/>
<polygon fill="none" stroke="black" points="733,-574 733,-592 813,-592 813,-574 733,-574"/>
<text text-anchor="start" x="736" y="-580.2" font-family="Helvetica,sans-Serif" font-size="11.00">&lt; 3</text>
<polygon fill="#ffffff" stroke="transparent" points="813,-574 813,-592 894,-592 894,-574 813,-574"/>
<polygon fill="none" stroke="black" points="813,-574 813,-592 894,-592 894,-574 813,-574"/>
<text text-anchor="start" x="845" y="-580.2" font-family="Helvetica,sans-Serif" font-size="11.00">625 rows</text>
<polygon fill="#ffffff" stroke="transparent" points="894,-574 894,-592 937,-592 937,-574 894,-574"/>
<polygon fill="none" stroke="black" points="894,-574 894,-592 937,-592 937,-574 894,-574"/>
<text text-anchor="start" x="927" y="-580.2" font-family="Helvetica,sans-Serif" font-size="11.00"> &#160;</text>
</a>
</g>
</g>
<!-- asset_types_impact_functions&#45;&gt;risk_factors -->
<g id="edge8" class="edge">
<title>asset_types_impact_functions:w&#45;&gt;risk_factors:e</title>
<path fill="none" stroke="black" d="M718.04,-605.46C670.23,-641.68 743.47,-887.36 692,-933 602.75,-1012.14 238.74,-989.93 156,-904 105.97,-852.04 188.63,-256 116.5,-256"/>
<polygon fill="black" stroke="black" points="724.38,-603.44 733.1,-604.43 728.19,-602.22 732,-601 732,-601 732,-601 728.19,-602.22 730.9,-597.57 724.38,-603.44 724.38,-603.44"/>
<ellipse fill="none" stroke="black" cx="721.33" cy="-604.41" rx="3.2" ry="3.2"/>
</g>
<!-- impact_functions -->
<g id="node8" class="node">
<title>impact_functions</title>
<g id="a_node8"><a xlink:href="../../tables/impact_functions.html" xlink:title="impact_functions" target="_top">
<polygon fill="#ffffff" stroke="transparent" points="501,-376 501,-522 640,-522 640,-376 501,-376"/>
<polygon fill="#f5f5f5" stroke="transparent" points="501.5,-500 501.5,-522 640.5,-522 640.5,-500 501.5,-500"/>
<polygon fill="none" stroke="black" points="501.5,-500 501.5,-522 640.5,-522 640.5,-500 501.5,-500"/>
<text text-anchor="start" x="506.5" y="-509.2" font-family="Helvetica,sans-Serif" font-weight="bold" font-size="11.00">impact_functions</text>
<text text-anchor="start" x="605.5" y="-508.2" font-family="Helvetica,sans-Serif" font-size="11.00">[table]</text>
<polygon fill="none" stroke="black" points="501.5,-478 501.5,-500 640.5,-500 640.5,-478 501.5,-478"/>
<image xlink:href="../../images/primaryKeys.png" width="11px" height="12px" preserveAspectRatio="xMinYMin meet" x="506.5" y="-495"/>
<text text-anchor="start" x="521.5" y="-486.2" font-family="Helvetica,sans-Serif" font-size="11.00">id</text>
<polygon fill="#ffffff" stroke="transparent" points="501.5,-456 501.5,-478 640.5,-478 640.5,-456 501.5,-456"/>
<polygon fill="none" stroke="black" points="501.5,-456 501.5,-478 640.5,-478 640.5,-456 501.5,-456"/>
<text text-anchor="start" x="521.5" y="-464.2" font-family="Helvetica,sans-Serif" font-size="11.00">name</text>
<polygon fill="none" stroke="black" points="501.5,-434 501.5,-456 640.5,-456 640.5,-434 501.5,-434"/>
<image xlink:href="../../images/foreignKeys.png" width="11px" height="12px" preserveAspectRatio="xMinYMin meet" x="506.5" y="-451"/>
<text text-anchor="start" x="521.5" y="-442.2" font-family="Helvetica,sans-Serif" font-size="11.00">hazard_metric_id</text>
<polygon fill="none" stroke="black" points="501.5,-412 501.5,-434 640.5,-434 640.5,-412 501.5,-412"/>
<image xlink:href="../../images/foreignKeys.png" width="11px" height="12px" preserveAspectRatio="xMinYMin meet" x="506.5" y="-429"/>
<text text-anchor="start" x="521.5" y="-420.2" font-family="Helvetica,sans-Serif" font-size="11.00">risk_factor_id</text>
<polygon fill="none" stroke="black" points="501.5,-394 501.5,-412 640.5,-412 640.5,-394 501.5,-394"/>
<text text-anchor="start" x="504.5" y="-400.2" font-family="Helvetica,sans-Serif" font-size="11.00">...</text>
<polygon fill="#ffffff" stroke="transparent" points="501.5,-376 501.5,-394 540.5,-394 540.5,-376 501.5,-376"/>
<polygon fill="none" stroke="black" points="501.5,-376 501.5,-394 540.5,-394 540.5,-376 501.5,-376"/>
<text text-anchor="start" x="504.5" y="-382.2" font-family="Helvetica,sans-Serif" font-size="11.00">&lt; 2</text>
<polygon fill="#ffffff" stroke="transparent" points="540.5,-376 540.5,-394 609.5,-394 609.5,-376 540.5,-376"/>
<polygon fill="none" stroke="black" points="540.5,-376 540.5,-394 609.5,-394 609.5,-376 540.5,-376"/>
<text text-anchor="start" x="551.5" y="-382.2" font-family="Helvetica,sans-Serif" font-size="11.00">3,261 rows</text>
<polygon fill="#ffffff" stroke="transparent" points="609.5,-376 609.5,-394 640.5,-394 640.5,-376 609.5,-376"/>
<polygon fill="none" stroke="black" points="609.5,-376 609.5,-394 640.5,-394 640.5,-376 609.5,-376"/>
<text text-anchor="start" x="621.5" y="-382.2" font-family="Helvetica,sans-Serif" font-size="11.00">2 &gt;</text>
</a>
</g>
</g>
<!-- asset_types_impact_functions&#45;&gt;impact_functions -->
<g id="edge7" class="edge">
<title>asset_types_impact_functions:w&#45;&gt;impact_functions:e</title>
<path fill="none" stroke="black" d="M717.65,-597.35C701.92,-586.71 710.37,-555.13 692,-533 672.98,-510.1 671.27,-489 641.5,-489"/>
<polygon fill="black" stroke="black" points="724.25,-599.03 731.11,-604.49 728.12,-600.01 732,-601 732,-601 732,-601 728.12,-600.01 732.89,-597.51 724.25,-599.03 724.25,-599.03"/>
<ellipse fill="none" stroke="black" cx="721.15" cy="-598.24" rx="3.2" ry="3.2"/>
</g>
<!-- impact_functions&#45;&gt;risk_factors -->
<g id="edge16" class="edge">
<title>impact_functions:w&#45;&gt;risk_factors:e</title>
<path fill="none" stroke="black" d="M486.22,-420.89C465.89,-413.9 463.5,-390.58 449,-366 426.08,-327.14 452.1,-297.06 416,-270 362.69,-230.04 183.13,-256 116.5,-256"/>
<polygon fill="black" stroke="black" points="492.59,-421.83 499.97,-426.56 496.54,-422.41 500.5,-423 500.5,-423 500.5,-423 496.54,-422.41 501.03,-419.44 492.59,-421.83 492.59,-421.83"/>
<ellipse fill="none" stroke="black" cx="489.42" cy="-421.36" rx="3.2" ry="3.2"/>
</g>
<!-- impact_functions&#45;&gt;hazard_metrics -->
<g id="edge15" class="edge">
<title>impact_functions:w&#45;&gt;hazard_metrics:e</title>
<path fill="none" stroke="black" d="M486.04,-447.08C457.79,-456.58 465.2,-496.81 449,-533 424.19,-588.42 467.72,-663 407,-663"/>
<polygon fill="black" stroke="black" points="492.58,-446.14 501.01,-448.56 496.54,-445.57 500.5,-445 500.5,-445 500.5,-445 496.54,-445.57 499.99,-441.44 492.58,-446.14 492.58,-446.14"/>
<ellipse fill="none" stroke="black" cx="489.41" cy="-446.6" rx="3.2" ry="3.2"/>
</g>
<!-- assets_impact_functions -->
<g id="node9" class="node">
<title>assets_impact_functions</title>
<g id="a_node9"><a xlink:href="../../tables/assets_impact_functions.html" xlink:title="assets_impact_functions" target="_top">
<polygon fill="#ffffff" stroke="transparent" points="747.5,-350 747.5,-408 922.5,-408 922.5,-350 747.5,-350"/>
<polygon fill="#f5f5f5" stroke="transparent" points="748,-386 748,-408 923,-408 923,-386 748,-386"/>
<polygon fill="none" stroke="black" points="748,-386 748,-408 923,-408 923,-386 748,-386"/>
<text text-anchor="start" x="753" y="-395.2" font-family="Helvetica,sans-Serif" font-weight="bold" font-size="11.00">assets_impact_functions</text>
<text text-anchor="start" x="888" y="-394.2" font-family="Helvetica,sans-Serif" font-size="11.00">[table]</text>
<polygon fill="none" stroke="black" points="748,-368 748,-386 923,-386 923,-368 748,-368"/>
<text text-anchor="start" x="751" y="-374.2" font-family="Helvetica,sans-Serif" font-size="11.00">...</text>
<polygon fill="#ffffff" stroke="transparent" points="748,-350 748,-368 803,-368 803,-350 748,-350"/>
<polygon fill="none" stroke="black" points="748,-350 748,-368 803,-368 803,-350 748,-350"/>
<text text-anchor="start" x="751" y="-356.2" font-family="Helvetica,sans-Serif" font-size="11.00">&lt; 3</text>
<polygon fill="#ffffff" stroke="transparent" points="803,-350 803,-368 893,-368 893,-350 803,-350"/>
<polygon fill="none" stroke="black" points="803,-350 803,-368 893,-368 893,-350 803,-350"/>
<text text-anchor="start" x="823" y="-356.2" font-family="Helvetica,sans-Serif" font-size="11.00">654,369 rows</text>
<polygon fill="#ffffff" stroke="transparent" points="893,-350 893,-368 923,-368 923,-350 893,-350"/>
<polygon fill="none" stroke="black" points="893,-350 893,-368 923,-368 923,-350 893,-350"/>
<text text-anchor="start" x="913" y="-356.2" font-family="Helvetica,sans-Serif" font-size="11.00"> &#160;</text>
</a>
</g>
</g>
<!-- assets_impact_functions&#45;&gt;risk_factors -->
<g id="edge10" class="edge">
<title>assets_impact_functions:w&#45;&gt;risk_factors:e</title>
<path fill="none" stroke="black" d="M732.47,-375.79C649.21,-360.25 774.22,-199.49 692,-133 668.84,-114.28 180,-112.37 156,-130 108.7,-164.74 175.19,-256 116.5,-256"/>
<polygon fill="black" stroke="black" points="739.03,-376.33 746.7,-380.59 743.01,-376.67 747,-377 747,-377 747,-377 743.01,-376.67 747.3,-373.41 739.03,-376.33 739.03,-376.33"/>
<ellipse fill="none" stroke="black" cx="735.84" cy="-376.07" rx="3.2" ry="3.2"/>
</g>
<!-- assets_impact_functions&#45;&gt;impact_functions -->
<g id="edge9" class="edge">
<title>assets_impact_functions:w&#45;&gt;impact_functions:e</title>
<path fill="none" stroke="black" d="M732.7,-378.94C682.89,-393.82 704.54,-489 641.5,-489"/>
<polygon fill="black" stroke="black" points="739.07,-378.08 747.49,-380.57 743.04,-377.54 747,-377 747,-377 747,-377 743.04,-377.54 746.51,-373.43 739.07,-378.08 739.07,-378.08"/>
<ellipse fill="none" stroke="black" cx="735.9" cy="-378.51" rx="3.2" ry="3.2"/>
</g>
<!-- decadal_states -->
<g id="node10" class="node">
<title>decadal_states</title>
<g id="a_node10"><a xlink:href="../../tables/decadal_states.html" xlink:title="decadal_states" target="_top">
<polygon fill="#ffffff" stroke="transparent" points="457,-543 457,-843 684,-843 684,-543 457,-543"/>
<polygon fill="#f5f5f5" stroke="transparent" points="457.5,-821 457.5,-843 684.5,-843 684.5,-821 457.5,-821"/>
<polygon fill="none" stroke="black" points="457.5,-821 457.5,-843 684.5,-843 684.5,-821 457.5,-821"/>
<text text-anchor="start" x="462.5" y="-830.2" font-family="Helvetica,sans-Serif" font-weight="bold" font-size="11.00">decadal_states</text>
<text text-anchor="start" x="649.5" y="-829.2" font-family="Helvetica,sans-Serif" font-size="11.00">[table]</text>
<polygon fill="none" stroke="black" points="457.5,-799 457.5,-821 684.5,-821 684.5,-799 457.5,-799"/>
<image xlink:href="../../images/primaryKeys.png" width="11px" height="12px" preserveAspectRatio="xMinYMin meet" x="462.5" y="-816"/>
<text text-anchor="start" x="477.5" y="-807.2" font-family="Helvetica,sans-Serif" font-size="11.00">id</text>
<polygon fill="#ffffff" stroke="transparent" points="457.5,-777 457.5,-799 684.5,-799 684.5,-777 457.5,-777"/>
<polygon fill="none" stroke="black" points="457.5,-777 457.5,-799 684.5,-799 684.5,-777 457.5,-777"/>
<text text-anchor="start" x="477.5" y="-785.2" font-family="Helvetica,sans-Serif" font-size="11.00">grid_square_id</text>
<polygon fill="#ffffff" stroke="transparent" points="457.5,-755 457.5,-777 684.5,-777 684.5,-755 457.5,-755"/>
<polygon fill="none" stroke="black" points="457.5,-755 457.5,-777 684.5,-777 684.5,-755 457.5,-755"/>
<text text-anchor="start" x="477.5" y="-763.2" font-family="Helvetica,sans-Serif" font-size="11.00">point_loc_id</text>
<polygon fill="#ffffff" stroke="transparent" points="457.5,-733 457.5,-755 684.5,-755 684.5,-733 457.5,-733"/>
<polygon fill="none" stroke="black" points="457.5,-733 457.5,-755 684.5,-755 684.5,-733 457.5,-733"/>
<image xlink:href="../../images/foreignKeys.png" width="11px" height="12px" preserveAspectRatio="xMinYMin meet" x="462.5" y="-750"/>
<text text-anchor="start" x="477.5" y="-741.2" font-family="Helvetica,sans-Serif" font-size="11.00">region_id</text>
<polygon fill="#ffffff" stroke="transparent" points="457.5,-711 457.5,-733 684.5,-733 684.5,-711 457.5,-711"/>
<polygon fill="none" stroke="black" points="457.5,-711 457.5,-733 684.5,-733 684.5,-711 457.5,-711"/>
<text text-anchor="start" x="477.5" y="-719.2" font-family="Helvetica,sans-Serif" font-size="11.00">decadal_state_type</text>
<polygon fill="#ffffff" stroke="transparent" points="457.5,-689 457.5,-711 684.5,-711 684.5,-689 457.5,-689"/>
<polygon fill="none" stroke="black" points="457.5,-689 457.5,-711 684.5,-711 684.5,-689 457.5,-689"/>
<image xlink:href="../../images/foreignKeys.png" width="11px" height="12px" preserveAspectRatio="xMinYMin meet" x="462.5" y="-706"/>
<text text-anchor="start" x="477.5" y="-697.2" font-family="Helvetica,sans-Serif" font-size="11.00">hazard_metric_id</text>
<polygon fill="#ffffff" stroke="transparent" points="457.5,-667 457.5,-689 684.5,-689 684.5,-667 457.5,-667"/>
<polygon fill="none" stroke="black" points="457.5,-667 457.5,-689 684.5,-689 684.5,-667 457.5,-667"/>
<image xlink:href="../../images/foreignKeys.png" width="11px" height="12px" preserveAspectRatio="xMinYMin meet" x="462.5" y="-684"/>
<text text-anchor="start" x="477.5" y="-675.2" font-family="Helvetica,sans-Serif" font-size="11.00">scenario_id</text>
<polygon fill="#ffffff" stroke="transparent" points="457.5,-645 457.5,-667 684.5,-667 684.5,-645 457.5,-645"/>
<polygon fill="none" stroke="black" points="457.5,-645 457.5,-667 684.5,-667 684.5,-645 457.5,-645"/>
<text text-anchor="start" x="477.5" y="-653.2" font-family="Helvetica,sans-Serif" font-size="11.00">decade</text>
<polygon fill="#ffffff" stroke="transparent" points="457.5,-623 457.5,-645 684.5,-645 684.5,-623 457.5,-623"/>
<polygon fill="none" stroke="black" points="457.5,-623 457.5,-645 684.5,-645 684.5,-623 457.5,-623"/>
<text text-anchor="start" x="477.5" y="-631.2" font-family="Helvetica,sans-Serif" font-size="11.00">proc_flag_decadal_states_calc</text>
<polygon fill="#ffffff" stroke="transparent" points="457.5,-601 457.5,-623 684.5,-623 684.5,-601 457.5,-601"/>
<polygon fill="none" stroke="black" points="457.5,-601 457.5,-623 684.5,-623 684.5,-601 457.5,-601"/>
<text text-anchor="start" x="477.5" y="-609.2" font-family="Helvetica,sans-Serif" font-size="11.00">not_in_model</text>
<polygon fill="#ffffff" stroke="transparent" points="457.5,-579 457.5,-601 684.5,-601 684.5,-579 457.5,-579"/>
<polygon fill="none" stroke="black" points="457.5,-579 457.5,-601 684.5,-601 684.5,-579 457.5,-579"/>
<text text-anchor="start" x="477.5" y="-587.2" font-family="Helvetica,sans-Serif" font-size="11.00">batch_id</text>
<polygon fill="none" stroke="black" points="457.5,-561 457.5,-579 684.5,-579 684.5,-561 457.5,-561"/>
<text text-anchor="start" x="460.5" y="-567.2" font-family="Helvetica,sans-Serif" font-size="11.00">...</text>
<polygon fill="#ffffff" stroke="transparent" points="457.5,-543 457.5,-561 534.5,-561 534.5,-543 457.5,-543"/>
<polygon fill="none" stroke="black" points="457.5,-543 457.5,-561 534.5,-561 534.5,-543 457.5,-543"/>
<text text-anchor="start" x="460.5" y="-549.2" font-family="Helvetica,sans-Serif" font-size="11.00">&lt; 3</text>
<polygon fill="#ffffff" stroke="transparent" points="534.5,-543 534.5,-561 643.5,-561 643.5,-543 534.5,-543"/>
<polygon fill="none" stroke="black" points="534.5,-543 534.5,-561 643.5,-561 643.5,-543 534.5,-543"/>
<text text-anchor="start" x="564.5" y="-549.2" font-family="Helvetica,sans-Serif" font-size="11.00">7,749,532 rows</text>
<polygon fill="#ffffff" stroke="transparent" points="643.5,-543 643.5,-561 684.5,-561 684.5,-543 643.5,-543"/>
<polygon fill="none" stroke="black" points="643.5,-543 643.5,-561 684.5,-561 684.5,-543 643.5,-543"/>
<text text-anchor="start" x="674.5" y="-549.2" font-family="Helvetica,sans-Serif" font-size="11.00"> &#160;</text>
</a>
</g>
</g>
<!-- decadal_states&#45;&gt;scenarios -->
<g id="edge13" class="edge">
<title>decadal_states:w&#45;&gt;scenarios:e</title>
<path fill="none" stroke="black" d="M442.42,-681.78C433.13,-688 430.12,-700.52 416,-709 382.07,-729.38 374.58,-746 335,-746"/>
<polygon fill="black" stroke="black" points="448.77,-680.08 457.43,-681.48 452.64,-679.04 456.5,-678 456.5,-678 456.5,-678 452.64,-679.04 455.57,-674.52 448.77,-680.08 448.77,-680.08"/>
<ellipse fill="none" stroke="black" cx="445.68" cy="-680.91" rx="3.2" ry="3.2"/>
</g>
<!-- decadal_states&#45;&gt;hazard_metrics -->
<g id="edge11" class="edge">
<title>decadal_states:w&#45;&gt;hazard_metrics:e</title>
<path fill="none" stroke="black" d="M442.51,-695.46C429.84,-685.58 428.46,-663 407,-663"/>
<polygon fill="black" stroke="black" points="448.89,-697.53 455.39,-703.42 452.7,-698.77 456.5,-700 456.5,-700 456.5,-700 452.7,-698.77 457.61,-696.58 448.89,-697.53 448.89,-697.53"/>
<ellipse fill="none" stroke="black" cx="445.85" cy="-696.55" rx="3.2" ry="3.2"/>
</g>
<!-- regions -->
<g id="node11" class="node">
<title>regions</title>
<g id="a_node11"><a xlink:href="../../tables/regions.html" xlink:title="regions" target="_top">
<polygon fill="#ffffff" stroke="transparent" points="243.5,-798 243.5,-856 328.5,-856 328.5,-798 243.5,-798"/>
<polygon fill="#f5f5f5" stroke="transparent" points="244,-834 244,-856 329,-856 329,-834 244,-834"/>
<polygon fill="none" stroke="black" points="244,-834 244,-856 329,-856 329,-834 244,-834"/>
<text text-anchor="start" x="249" y="-843.2" font-family="Helvetica,sans-Serif" font-weight="bold" font-size="11.00">regions</text>
<text text-anchor="start" x="294" y="-842.2" font-family="Helvetica,sans-Serif" font-size="11.00">[table]</text>
<polygon fill="none" stroke="black" points="244,-816 244,-834 329,-834 329,-816 244,-816"/>
<text text-anchor="start" x="247" y="-822.2" font-family="Helvetica,sans-Serif" font-size="11.00">...</text>
<polygon fill="#ffffff" stroke="transparent" points="244,-798 244,-816 262,-816 262,-798 244,-798"/>
<polygon fill="none" stroke="black" points="244,-798 244,-816 262,-816 262,-798 244,-798"/>
<text text-anchor="start" x="247" y="-804.2" font-family="Helvetica,sans-Serif" font-size="11.00"> &#160;</text>
<polygon fill="#ffffff" stroke="transparent" points="262,-798 262,-816 304,-816 304,-798 262,-798"/>
<polygon fill="none" stroke="black" points="262,-798 262,-816 304,-816 304,-798 262,-798"/>
<text text-anchor="start" x="267" y="-804.2" font-family="Helvetica,sans-Serif" font-size="11.00">5 rows</text>
<polygon fill="#ffffff" stroke="transparent" points="304,-798 304,-816 329,-816 329,-798 304,-798"/>
<polygon fill="none" stroke="black" points="304,-798 304,-816 329,-816 329,-798 304,-798"/>
<text text-anchor="start" x="310" y="-804.2" font-family="Helvetica,sans-Serif" font-size="11.00">3 &gt;</text>
</a>
</g>
</g>
<!-- decadal_states&#45;&gt;regions -->
<g id="edge12" class="edge">
<title>decadal_states:w&#45;&gt;regions:e</title>
<path fill="none" stroke="black" d="M442.65,-748.18C431.94,-756.69 432.6,-776.23 416,-788 382.05,-812.06 371.61,-825 330,-825"/>
<polygon fill="black" stroke="black" points="448.84,-746.31 457.54,-747.45 452.67,-745.16 456.5,-744 456.5,-744 456.5,-744 452.67,-745.16 455.46,-740.55 448.84,-746.31 448.84,-746.31"/>
<ellipse fill="none" stroke="black" cx="445.78" cy="-747.24" rx="3.2" ry="3.2"/>
</g>
<!-- rf_category_risk_factors -->
<g id="node12" class="node">
<title>rf_category_risk_factors</title>
<g id="a_node12"><a xlink:href="../../tables/rf_category_risk_factors.html" xlink:title="rf_category_risk_factors" target="_top">
<polygon fill="#ffffff" stroke="transparent" points="199.5,-37 199.5,-95 372.5,-95 372.5,-37 199.5,-37"/>
<polygon fill="#f5f5f5" stroke="transparent" points="200,-73 200,-95 373,-95 373,-73 200,-73"/>
<polygon fill="none" stroke="black" points="200,-73 200,-95 373,-95 373,-73 200,-73"/>
<text text-anchor="start" x="205" y="-82.2" font-family="Helvetica,sans-Serif" font-weight="bold" font-size="11.00">rf_category_risk_factors</text>
<text text-anchor="start" x="338" y="-81.2" font-family="Helvetica,sans-Serif" font-size="11.00">[table]</text>
<polygon fill="none" stroke="black" points="200,-55 200,-73 373,-73 373,-55 200,-55"/>
<text text-anchor="start" x="203" y="-61.2" font-family="Helvetica,sans-Serif" font-size="11.00">...</text>
<polygon fill="#ffffff" stroke="transparent" points="200,-37 200,-55 268,-55 268,-37 200,-37"/>
<polygon fill="none" stroke="black" points="200,-37 200,-55 268,-55 268,-37 200,-37"/>
<text text-anchor="start" x="203" y="-43.2" font-family="Helvetica,sans-Serif" font-size="11.00">&lt; 2</text>
<polygon fill="#ffffff" stroke="transparent" points="268,-37 268,-55 337,-55 337,-37 268,-37"/>
<polygon fill="none" stroke="black" points="268,-37 268,-55 337,-55 337,-37 268,-37"/>
<text text-anchor="start" x="294" y="-43.2" font-family="Helvetica,sans-Serif" font-size="11.00">17 rows</text>
<polygon fill="#ffffff" stroke="transparent" points="337,-37 337,-55 373,-55 373,-37 337,-37"/>
<polygon fill="none" stroke="black" points="337,-37 337,-55 373,-55 373,-37 337,-37"/>
<text text-anchor="start" x="363" y="-43.2" font-family="Helvetica,sans-Serif" font-size="11.00"> &#160;</text>
</a>
</g>
</g>
<!-- rf_category_risk_factors&#45;&gt;risk_factors -->
<g id="edge17" class="edge">
<title>rf_category_risk_factors:w&#45;&gt;risk_factors:e</title>
<path fill="none" stroke="black" d="M184.6,-66.62C170.07,-72.96 166.71,-89.98 156,-109 122.82,-167.96 184.15,-256 116.5,-256"/>
<polygon fill="black" stroke="black" points="191.13,-65.43 199.65,-67.54 195.06,-64.72 199,-64 199,-64 199,-64 195.06,-64.72 198.35,-60.46 191.13,-65.43 191.13,-65.43"/>
<ellipse fill="none" stroke="black" cx="187.98" cy="-66.01" rx="3.2" ry="3.2"/>
</g>
</g>
</svg>
