<?xml version="1.0" encoding="UTF-8" standalone="no"?>
<!DOCTYPE svg PUBLIC "-//W3C//DTD SVG 1.1//EN"
 "http://www.w3.org/Graphics/SVG/1.1/DTD/svg11.dtd">
<!-- Generated by graphviz version 2.50.0 (20211204.2007)
 -->
<!-- Title: twoDegreesRelationshipsDiagram Pages: 1 -->
<svg width="883pt" height="930pt"
 viewBox="0.00 0.00 883.00 929.94" xmlns="http://www.w3.org/2000/svg" xmlns:xlink="http://www.w3.org/1999/xlink">
<g id="graph0" class="graph" transform="scale(1 1) rotate(0) translate(4 925.94)">
<title>twoDegreesRelationshipsDiagram</title>
<polygon fill="#ffffff" stroke="transparent" points="-4,4 -4,-925.94 879,-925.94 879,4 -4,4"/>
<text text-anchor="middle" x="72.5" y="-7.2" font-family="Helvetica,sans-Serif" font-size="11.00">Generated by SchemaSpy</text>
<!-- aggregate_impacts -->
<g id="node1" class="node">
<title>aggregate_impacts</title>
<g id="a_node1"><a xlink:href="../../tables/aggregate_impacts.html" xlink:title="aggregate_impacts" target="_top">
<polygon fill="#ffffff" stroke="transparent" points="178,-721.96 178,-779.96 323,-779.96 323,-721.96 178,-721.96"/>
<polygon fill="#f5f5f5" stroke="transparent" points="178.5,-757.96 178.5,-779.96 323.5,-779.96 323.5,-757.96 178.5,-757.96"/>
<polygon fill="none" stroke="black" points="178.5,-757.96 178.5,-779.96 323.5,-779.96 323.5,-757.96 178.5,-757.96"/>
<text text-anchor="start" x="183.5" y="-767.16" font-family="Helvetica,sans-Serif" font-weight="bold" font-size="11.00">aggregate_impacts</text>
<text text-anchor="start" x="288.5" y="-766.16" font-family="Helvetica,sans-Serif" font-size="11.00">[table]</text>
<polygon fill="none" stroke="black" points="178.5,-739.96 178.5,-757.96 323.5,-757.96 323.5,-739.96 178.5,-739.96"/>
<text text-anchor="start" x="181.5" y="-746.16" font-family="Helvetica,sans-Serif" font-size="11.00">...</text>
<polygon fill="#ffffff" stroke="transparent" points="178.5,-721.96 178.5,-739.96 214.5,-739.96 214.5,-721.96 178.5,-721.96"/>
<polygon fill="none" stroke="black" points="178.5,-721.96 178.5,-739.96 214.5,-739.96 214.5,-721.96 178.5,-721.96"/>
<text text-anchor="start" x="181.5" y="-728.16" font-family="Helvetica,sans-Serif" font-size="11.00">&lt; 2</text>
<polygon fill="#ffffff" stroke="transparent" points="214.5,-721.96 214.5,-739.96 303.5,-739.96 303.5,-721.96 214.5,-721.96"/>
<polygon fill="none" stroke="black" points="214.5,-721.96 214.5,-739.96 303.5,-739.96 303.5,-721.96 214.5,-721.96"/>
<text text-anchor="start" x="224.5" y="-728.16" font-family="Helvetica,sans-Serif" font-size="11.00">7,901,926 rows</text>
<polygon fill="#ffffff" stroke="transparent" points="303.5,-721.96 303.5,-739.96 323.5,-739.96 323.5,-721.96 303.5,-721.96"/>
<polygon fill="none" stroke="black" points="303.5,-721.96 303.5,-739.96 323.5,-739.96 323.5,-721.96 303.5,-721.96"/>
<text text-anchor="start" x="313.5" y="-728.16" font-family="Helvetica,sans-Serif" font-size="11.00"> &#160;</text>
</a>
</g>
</g>
<!-- risk_factors -->
<g id="node2" class="node">
<title>risk_factors</title>
<g id="a_node2"><a xlink:href="../../tables/risk_factors.html" xlink:title="risk_factors" target="_top">
<polygon fill="#ffffff" stroke="transparent" points="8,-679.96 8,-781.96 115,-781.96 115,-679.96 8,-679.96"/>
<polygon fill="#f5f5f5" stroke="transparent" points="8.5,-759.96 8.5,-781.96 115.5,-781.96 115.5,-759.96 8.5,-759.96"/>
<polygon fill="none" stroke="black" points="8.5,-759.96 8.5,-781.96 115.5,-781.96 115.5,-759.96 8.5,-759.96"/>
<text text-anchor="start" x="13.5" y="-769.16" font-family="Helvetica,sans-Serif" font-weight="bold" font-size="11.00">risk_factors</text>
<text text-anchor="start" x="80.5" y="-768.16" font-family="Helvetica,sans-Serif" font-size="11.00">[table]</text>
<polygon fill="none" stroke="black" points="8.5,-737.96 8.5,-759.96 115.5,-759.96 115.5,-737.96 8.5,-737.96"/>
<image xlink:href="../../images/primaryKeys.png" width="11px" height="12px" preserveAspectRatio="xMinYMin meet" x="13.5" y="-754.959"/>
<text text-anchor="start" x="37.5" y="-746.16" font-family="Helvetica,sans-Serif" font-size="11.00">id</text>
<polygon fill="#ffffff" stroke="transparent" points="8.5,-715.96 8.5,-737.96 115.5,-737.96 115.5,-715.96 8.5,-715.96"/>
<polygon fill="none" stroke="black" points="8.5,-715.96 8.5,-737.96 115.5,-737.96 115.5,-715.96 8.5,-715.96"/>
<text text-anchor="start" x="37.5" y="-724.16" font-family="Helvetica,sans-Serif" font-size="11.00">name</text>
<polygon fill="none" stroke="black" points="8.5,-697.96 8.5,-715.96 115.5,-715.96 115.5,-697.96 8.5,-697.96"/>
<text text-anchor="start" x="11.5" y="-704.16" font-family="Helvetica,sans-Serif" font-size="11.00">...</text>
<polygon fill="#ffffff" stroke="transparent" points="8.5,-679.96 8.5,-697.96 34.5,-697.96 34.5,-679.96 8.5,-679.96"/>
<polygon fill="none" stroke="black" points="8.5,-679.96 8.5,-697.96 34.5,-697.96 34.5,-679.96 8.5,-679.96"/>
<text text-anchor="start" x="11.5" y="-686.16" font-family="Helvetica,sans-Serif" font-size="11.00"> &#160;</text>
<polygon fill="#ffffff" stroke="transparent" points="34.5,-679.96 34.5,-697.96 86.5,-697.96 86.5,-679.96 34.5,-679.96"/>
<polygon fill="none" stroke="black" points="34.5,-679.96 34.5,-697.96 86.5,-697.96 86.5,-679.96 34.5,-679.96"/>
<text text-anchor="start" x="43.5" y="-686.16" font-family="Helvetica,sans-Serif" font-size="11.00">17 rows</text>
<polygon fill="#ffffff" stroke="transparent" points="86.5,-679.96 86.5,-697.96 115.5,-697.96 115.5,-679.96 86.5,-679.96"/>
<polygon fill="none" stroke="black" points="86.5,-679.96 86.5,-697.96 115.5,-697.96 115.5,-679.96 86.5,-679.96"/>
<text text-anchor="start" x="96.5" y="-686.16" font-family="Helvetica,sans-Serif" font-size="11.00">7 &gt;</text>
</a>
</g>
</g>
<!-- aggregate_impacts&#45;&gt;risk_factors -->
<g id="edge1" class="edge">
<title>aggregate_impacts:w&#45;&gt;risk_factors:e</title>
<path fill="none" stroke="black" d="M162.68,-748.96C146.62,-748.96 137.89,-748.96 116.5,-748.96"/>
<polygon fill="black" stroke="black" points="169.5,-748.96 177.5,-752.56 173.5,-748.96 177.5,-748.96 177.5,-748.96 177.5,-748.96 173.5,-748.96 177.5,-745.36 169.5,-748.96 169.5,-748.96"/>
<ellipse fill="none" stroke="black" cx="166.3" cy="-748.96" rx="3.2" ry="3.2"/>
</g>
<!-- aggregate_risks -->
<g id="node3" class="node">
<title>aggregate_risks</title>
<g id="a_node3"><a xlink:href="../../tables/aggregate_risks.html" xlink:title="aggregate_risks" target="_top">
<polygon fill="#ffffff" stroke="transparent" points="435,-767.96 435,-825.96 565,-825.96 565,-767.96 435,-767.96"/>
<polygon fill="#f5f5f5" stroke="transparent" points="435,-803.96 435,-825.96 565,-825.96 565,-803.96 435,-803.96"/>
<polygon fill="none" stroke="black" points="435,-803.96 435,-825.96 565,-825.96 565,-803.96 435,-803.96"/>
<text text-anchor="start" x="440" y="-813.16" font-family="Helvetica,sans-Serif" font-weight="bold" font-size="11.00">aggregate_risks</text>
<text text-anchor="start" x="530" y="-812.16" font-family="Helvetica,sans-Serif" font-size="11.00">[table]</text>
<polygon fill="none" stroke="black" points="435,-785.96 435,-803.96 565,-803.96 565,-785.96 435,-785.96"/>
<text text-anchor="start" x="438" y="-792.16" font-family="Helvetica,sans-Serif" font-size="11.00">...</text>
<polygon fill="#ffffff" stroke="transparent" points="435,-767.96 435,-785.96 468,-785.96 468,-767.96 435,-767.96"/>
<polygon fill="none" stroke="black" points="435,-767.96 435,-785.96 468,-785.96 468,-767.96 435,-767.96"/>
<text text-anchor="start" x="438" y="-774.16" font-family="Helvetica,sans-Serif" font-size="11.00">&lt; 4</text>
<polygon fill="#ffffff" stroke="transparent" points="468,-767.96 468,-785.96 546,-785.96 546,-767.96 468,-767.96"/>
<polygon fill="none" stroke="black" points="468,-767.96 468,-785.96 546,-785.96 546,-767.96 468,-767.96"/>
<text text-anchor="start" x="476" y="-774.16" font-family="Helvetica,sans-Serif" font-size="11.00">133,008 rows</text>
<polygon fill="#ffffff" stroke="transparent" points="546,-767.96 546,-785.96 565,-785.96 565,-767.96 546,-767.96"/>
<polygon fill="none" stroke="black" points="546,-767.96 546,-785.96 565,-785.96 565,-767.96 546,-767.96"/>
<text text-anchor="start" x="555" y="-774.16" font-family="Helvetica,sans-Serif" font-size="11.00"> &#160;</text>
</a>
</g>
</g>
<!-- aggregate_risks&#45;&gt;risk_factors -->
<g id="edge3" class="edge">
<title>aggregate_risks:w&#45;&gt;risk_factors:e</title>
<path fill="none" stroke="black" d="M419.54,-795.17C307,-798.48 264.54,-838.81 156,-790.96 132.55,-780.62 142.13,-748.96 116.5,-748.96"/>
<polygon fill="black" stroke="black" points="426,-795.08 434.05,-798.56 430,-795.02 434,-794.96 434,-794.96 434,-794.96 430,-795.02 433.95,-791.36 426,-795.08 426,-795.08"/>
<ellipse fill="none" stroke="black" cx="422.8" cy="-795.12" rx="3.2" ry="3.2"/>
</g>
<!-- hazard_metrics -->
<g id="node4" class="node">
<title>hazard_metrics</title>
<g id="a_node4"><a xlink:href="../../tables/hazard_metrics.html" xlink:title="hazard_metrics" target="_top">
<polygon fill="#ffffff" stroke="transparent" points="173,-475.96 173,-621.96 328,-621.96 328,-475.96 173,-475.96"/>
<polygon fill="#f5f5f5" stroke="transparent" points="173.5,-599.96 173.5,-621.96 328.5,-621.96 328.5,-599.96 173.5,-599.96"/>
<polygon fill="none" stroke="black" points="173.5,-599.96 173.5,-621.96 328.5,-621.96 328.5,-599.96 173.5,-599.96"/>
<text text-anchor="start" x="178.5" y="-609.16" font-family="Helvetica,sans-Serif" font-weight="bold" font-size="11.00">hazard_metrics</text>
<text text-anchor="start" x="293.5" y="-608.16" font-family="Helvetica,sans-Serif" font-size="11.00">[table]</text>
<polygon fill="none" stroke="black" points="173.5,-577.96 173.5,-599.96 328.5,-599.96 328.5,-577.96 173.5,-577.96"/>
<image xlink:href="../../images/primaryKeys.png" width="11px" height="12px" preserveAspectRatio="xMinYMin meet" x="178.5" y="-594.959"/>
<text text-anchor="start" x="193.5" y="-586.16" font-family="Helvetica,sans-Serif" font-size="11.00">id</text>
<polygon fill="#ffffff" stroke="transparent" points="173.5,-555.96 173.5,-577.96 328.5,-577.96 328.5,-555.96 173.5,-555.96"/>
<polygon fill="none" stroke="black" points="173.5,-555.96 173.5,-577.96 328.5,-577.96 328.5,-555.96 173.5,-555.96"/>
<text text-anchor="start" x="193.5" y="-564.16" font-family="Helvetica,sans-Serif" font-size="11.00">name</text>
<polygon fill="#ffffff" stroke="transparent" points="173.5,-533.96 173.5,-555.96 328.5,-555.96 328.5,-533.96 173.5,-533.96"/>
<polygon fill="none" stroke="black" points="173.5,-533.96 173.5,-555.96 328.5,-555.96 328.5,-533.96 173.5,-533.96"/>
<text text-anchor="start" x="193.5" y="-542.16" font-family="Helvetica,sans-Serif" font-size="11.00">name_etl</text>
<polygon fill="none" stroke="black" points="173.5,-511.96 173.5,-533.96 328.5,-533.96 328.5,-511.96 173.5,-511.96"/>
<image xlink:href="../../images/foreignKeys.png" width="11px" height="12px" preserveAspectRatio="xMinYMin meet" x="178.5" y="-528.959"/>
<text text-anchor="start" x="193.5" y="-520.16" font-family="Helvetica,sans-Serif" font-size="11.00">risk_factor_id</text>
<polygon fill="none" stroke="black" points="173.5,-493.96 173.5,-511.96 328.5,-511.96 328.5,-493.96 173.5,-493.96"/>
<text text-anchor="start" x="176.5" y="-500.16" font-family="Helvetica,sans-Serif" font-size="11.00">...</text>
<polygon fill="#ffffff" stroke="transparent" points="173.5,-475.96 173.5,-493.96 227.5,-493.96 227.5,-475.96 173.5,-475.96"/>
<polygon fill="none" stroke="black" points="173.5,-475.96 173.5,-493.96 227.5,-493.96 227.5,-475.96 173.5,-475.96"/>
<text text-anchor="start" x="176.5" y="-482.16" font-family="Helvetica,sans-Serif" font-size="11.00">&lt; 1</text>
<polygon fill="#ffffff" stroke="transparent" points="227.5,-475.96 227.5,-493.96 289.5,-493.96 289.5,-475.96 227.5,-475.96"/>
<polygon fill="none" stroke="black" points="227.5,-475.96 227.5,-493.96 289.5,-493.96 289.5,-475.96 227.5,-475.96"/>
<text text-anchor="start" x="246.5" y="-482.16" font-family="Helvetica,sans-Serif" font-size="11.00">15 rows</text>
<polygon fill="#ffffff" stroke="transparent" points="289.5,-475.96 289.5,-493.96 328.5,-493.96 328.5,-475.96 289.5,-475.96"/>
<polygon fill="none" stroke="black" points="289.5,-475.96 289.5,-493.96 328.5,-493.96 328.5,-475.96 289.5,-475.96"/>
<text text-anchor="start" x="309.5" y="-482.16" font-family="Helvetica,sans-Serif" font-size="11.00">3 &gt;</text>
</a>
</g>
</g>
<!-- aggregate_risks&#45;&gt;hazard_metrics -->
<g id="edge2" class="edge">
<title>aggregate_risks:w&#45;&gt;hazard_metrics:e</title>
<path fill="none" stroke="black" d="M419.5,-792.94C393.66,-784.65 395.07,-752.21 378,-720.96 348.04,-666.11 392,-588.96 329.5,-588.96"/>
<polygon fill="black" stroke="black" points="426.08,-793.86 433.5,-798.52 430.04,-794.41 434,-794.96 434,-794.96 434,-794.96 430.04,-794.41 434.5,-791.39 426.08,-793.86 426.08,-793.86"/>
<ellipse fill="none" stroke="black" cx="422.91" cy="-793.41" rx="3.2" ry="3.2"/>
</g>
<!-- hazard_metrics&#45;&gt;risk_factors -->
<g id="edge12" class="edge">
<title>hazard_metrics:w&#45;&gt;risk_factors:e</title>
<path fill="none" stroke="black" d="M158.18,-524.78C84.23,-546.17 214.53,-748.96 116.5,-748.96"/>
<polygon fill="black" stroke="black" points="164.56,-523.97 172.95,-526.53 168.53,-523.46 172.5,-522.96 172.5,-522.96 172.5,-522.96 168.53,-523.46 172.05,-519.39 164.56,-523.97 164.56,-523.97"/>
<ellipse fill="none" stroke="black" cx="161.39" cy="-524.37" rx="3.2" ry="3.2"/>
</g>
<!-- asset_types_impact_functions -->
<g id="node5" class="node">
<title>asset_types_impact_functions</title>
<g id="a_node5"><a xlink:href="../../tables/asset_types_impact_functions.html" xlink:title="asset_types_impact_functions" target="_top">
<polygon fill="#ffffff" stroke="transparent" points="663,-643.96 663,-767.96 867,-767.96 867,-643.96 663,-643.96"/>
<polygon fill="#f5f5f5" stroke="transparent" points="663,-745.96 663,-767.96 867,-767.96 867,-745.96 663,-745.96"/>
<polygon fill="none" stroke="black" points="663,-745.96 663,-767.96 867,-767.96 867,-745.96 663,-745.96"/>
<text text-anchor="start" x="668" y="-755.16" font-family="Helvetica,sans-Serif" font-weight="bold" font-size="11.00">asset_types_impact_functions</text>
<text text-anchor="start" x="832" y="-754.16" font-family="Helvetica,sans-Serif" font-size="11.00">[table]</text>
<polygon fill="none" stroke="black" points="663,-723.96 663,-745.96 867,-745.96 867,-723.96 663,-723.96"/>
<image xlink:href="../../images/primaryKeys.png" width="11px" height="12px" preserveAspectRatio="xMinYMin meet" x="668" y="-740.959"/>
<text text-anchor="start" x="688" y="-732.16" font-family="Helvetica,sans-Serif" font-size="11.00">asset_type_id</text>
<polygon fill="none" stroke="black" points="663,-701.96 663,-723.96 867,-723.96 867,-701.96 663,-701.96"/>
<image xlink:href="../../images/primaryKeys.png" width="11px" height="12px" preserveAspectRatio="xMinYMin meet" x="668" y="-718.959"/>
<text text-anchor="start" x="688" y="-710.16" font-family="Helvetica,sans-Serif" font-size="11.00">impact_function_id</text>
<polygon fill="none" stroke="black" points="663,-679.96 663,-701.96 867,-701.96 867,-679.96 663,-679.96"/>
<image xlink:href="../../images/foreignKeys.png" width="11px" height="12px" preserveAspectRatio="xMinYMin meet" x="668" y="-696.959"/>
<text text-anchor="start" x="688" y="-688.16" font-family="Helvetica,sans-Serif" font-size="11.00">risk_factor_id</text>
<polygon fill="none" stroke="black" points="663,-661.96 663,-679.96 867,-679.96 867,-661.96 663,-661.96"/>
<text text-anchor="start" x="666" y="-668.16" font-family="Helvetica,sans-Serif" font-size="11.00">...</text>
<polygon fill="#ffffff" stroke="transparent" points="663,-643.96 663,-661.96 743,-661.96 743,-643.96 663,-643.96"/>
<polygon fill="none" stroke="black" points="663,-643.96 663,-661.96 743,-661.96 743,-643.96 663,-643.96"/>
<text text-anchor="start" x="666" y="-650.16" font-family="Helvetica,sans-Serif" font-size="11.00">&lt; 3</text>
<polygon fill="#ffffff" stroke="transparent" points="743,-643.96 743,-661.96 824,-661.96 824,-643.96 743,-643.96"/>
<polygon fill="none" stroke="black" points="743,-643.96 743,-661.96 824,-661.96 824,-643.96 743,-643.96"/>
<text text-anchor="start" x="775" y="-650.16" font-family="Helvetica,sans-Serif" font-size="11.00">625 rows</text>
<polygon fill="#ffffff" stroke="transparent" points="824,-643.96 824,-661.96 867,-661.96 867,-643.96 824,-643.96"/>
<polygon fill="none" stroke="black" points="824,-643.96 824,-661.96 867,-661.96 867,-643.96 824,-643.96"/>
<text text-anchor="start" x="857" y="-650.16" font-family="Helvetica,sans-Serif" font-size="11.00"> &#160;</text>
</a>
</g>
</g>
<!-- asset_types_impact_functions&#45;&gt;risk_factors -->
<g id="edge6" class="edge">
<title>asset_types_impact_functions:w&#45;&gt;risk_factors:e</title>
<path fill="none" stroke="black" d="M647.66,-693.07C606.88,-707.71 666.65,-794.67 622,-836.96 530.55,-923.59 470.25,-883.55 345,-896.96 261.48,-905.9 222.62,-948.13 156,-896.96 102.01,-855.49 184.58,-748.96 116.5,-748.96"/>
<polygon fill="black" stroke="black" points="654.09,-692.12 662.52,-694.52 658.04,-691.54 662,-690.96 662,-690.96 662,-690.96 658.04,-691.54 661.48,-687.4 654.09,-692.12 654.09,-692.12"/>
<ellipse fill="none" stroke="black" cx="650.92" cy="-692.59" rx="3.2" ry="3.2"/>
</g>
<!-- asset_types -->
<g id="node6" class="node">
<title>asset_types</title>
<g id="a_node6"><a xlink:href="../../tables/asset_types.html" xlink:title="asset_types" target="_top">
<polygon fill="#ffffff" stroke="transparent" points="196.5,-642.96 196.5,-700.96 304.5,-700.96 304.5,-642.96 196.5,-642.96"/>
<polygon fill="#f5f5f5" stroke="transparent" points="196.5,-678.96 196.5,-700.96 304.5,-700.96 304.5,-678.96 196.5,-678.96"/>
<polygon fill="none" stroke="black" points="196.5,-678.96 196.5,-700.96 304.5,-700.96 304.5,-678.96 196.5,-678.96"/>
<text text-anchor="start" x="201.5" y="-688.16" font-family="Helvetica,sans-Serif" font-weight="bold" font-size="11.00">asset_types</text>
<text text-anchor="start" x="269.5" y="-687.16" font-family="Helvetica,sans-Serif" font-size="11.00">[table]</text>
<polygon fill="none" stroke="black" points="196.5,-660.96 196.5,-678.96 304.5,-678.96 304.5,-660.96 196.5,-660.96"/>
<text text-anchor="start" x="199.5" y="-667.16" font-family="Helvetica,sans-Serif" font-size="11.00">...</text>
<polygon fill="#ffffff" stroke="transparent" points="196.5,-642.96 196.5,-660.96 215.5,-660.96 215.5,-642.96 196.5,-642.96"/>
<polygon fill="none" stroke="black" points="196.5,-642.96 196.5,-660.96 215.5,-660.96 215.5,-642.96 196.5,-642.96"/>
<text text-anchor="start" x="199.5" y="-649.16" font-family="Helvetica,sans-Serif" font-size="11.00"> &#160;</text>
<polygon fill="#ffffff" stroke="transparent" points="215.5,-642.96 215.5,-660.96 279.5,-660.96 279.5,-642.96 215.5,-642.96"/>
<polygon fill="none" stroke="black" points="215.5,-642.96 215.5,-660.96 279.5,-660.96 279.5,-642.96 215.5,-642.96"/>
<text text-anchor="start" x="221.5" y="-649.16" font-family="Helvetica,sans-Serif" font-size="11.00">1,156 rows</text>
<polygon fill="#ffffff" stroke="transparent" points="279.5,-642.96 279.5,-660.96 304.5,-660.96 304.5,-642.96 279.5,-642.96"/>
<polygon fill="none" stroke="black" points="279.5,-642.96 279.5,-660.96 304.5,-660.96 304.5,-642.96 279.5,-642.96"/>
<text text-anchor="start" x="285.5" y="-649.16" font-family="Helvetica,sans-Serif" font-size="11.00">3 &gt;</text>
</a>
</g>
</g>
<!-- asset_types_impact_functions&#45;&gt;asset_types -->
<g id="edge4" class="edge">
<title>asset_types_impact_functions:w&#45;&gt;asset_types:e</title>
<path fill="none" stroke="black" d="M647.58,-735.08C532.52,-736.97 492.84,-760.44 378,-720.96 340.74,-708.15 344.9,-669.96 305.5,-669.96"/>
<polygon fill="black" stroke="black" points="654,-735.02 662.03,-738.56 658,-734.99 662,-734.96 662,-734.96 662,-734.96 658,-734.99 661.97,-731.36 654,-735.02 654,-735.02"/>
<ellipse fill="none" stroke="black" cx="650.8" cy="-735.05" rx="3.2" ry="3.2"/>
</g>
<!-- impact_functions -->
<g id="node7" class="node">
<title>impact_functions</title>
<g id="a_node7"><a xlink:href="../../tables/impact_functions.html" xlink:title="impact_functions" target="_top">
<polygon fill="#ffffff" stroke="transparent" points="386,-90.96 386,-552.96 614,-552.96 614,-90.96 386,-90.96"/>
<polygon fill="#f5f5f5" stroke="transparent" points="388,-528.96 388,-550.96 612,-550.96 612,-528.96 388,-528.96"/>
<polygon fill="none" stroke="black" points="388,-528.96 388,-550.96 612,-550.96 612,-528.96 388,-528.96"/>
<text text-anchor="start" x="393" y="-538.16" font-family="Helvetica,sans-Serif" font-weight="bold" font-size="11.00">impact_functions</text>
<text text-anchor="start" x="577" y="-537.16" font-family="Helvetica,sans-Serif" font-size="11.00">[table]</text>
<polygon fill="none" stroke="black" points="388,-506.96 388,-528.96 527,-528.96 527,-506.96 388,-506.96"/>
<image xlink:href="../../images/primaryKeys.png" width="11px" height="12px" preserveAspectRatio="xMinYMin meet" x="393" y="-523.959"/>
<text text-anchor="start" x="408" y="-515.16" font-family="Helvetica,sans-Serif" font-size="11.00">id</text>
<polygon fill="none" stroke="black" points="527,-506.96 527,-528.96 612,-528.96 612,-506.96 527,-506.96"/>
<text text-anchor="start" x="530" y="-515.16" font-family="Helvetica,sans-Serif" font-size="11.00">serial[10]</text>
<polygon fill="#ffffff" stroke="transparent" points="388,-484.96 388,-506.96 527,-506.96 527,-484.96 388,-484.96"/>
<polygon fill="none" stroke="black" points="388,-484.96 388,-506.96 527,-506.96 527,-484.96 388,-484.96"/>
<text text-anchor="start" x="408" y="-493.16" font-family="Helvetica,sans-Serif" font-size="11.00">name</text>
<polygon fill="none" stroke="black" points="527,-484.96 527,-506.96 612,-506.96 612,-484.96 527,-484.96"/>
<text text-anchor="start" x="530" y="-493.16" font-family="Helvetica,sans-Serif" font-size="11.00">varchar[128]</text>
<polygon fill="none" stroke="black" points="388,-462.96 388,-484.96 527,-484.96 527,-462.96 388,-462.96"/>
<image xlink:href="../../images/foreignKeys.png" width="11px" height="12px" preserveAspectRatio="xMinYMin meet" x="393" y="-479.959"/>
<text text-anchor="start" x="408" y="-471.16" font-family="Helvetica,sans-Serif" font-size="11.00">hazard_metric_id</text>
<polygon fill="none" stroke="black" points="527,-462.96 527,-484.96 612,-484.96 612,-462.96 527,-462.96"/>
<text text-anchor="start" x="530" y="-471.16" font-family="Helvetica,sans-Serif" font-size="11.00">int4[10]</text>
<polygon fill="none" stroke="black" points="388,-440.96 388,-462.96 527,-462.96 527,-440.96 388,-440.96"/>
<image xlink:href="../../images/foreignKeys.png" width="11px" height="12px" preserveAspectRatio="xMinYMin meet" x="393" y="-457.959"/>
<text text-anchor="start" x="408" y="-449.16" font-family="Helvetica,sans-Serif" font-size="11.00">risk_factor_id</text>
<polygon fill="none" stroke="black" points="527,-440.96 527,-462.96 612,-462.96 612,-440.96 527,-440.96"/>
<text text-anchor="start" x="530" y="-449.16" font-family="Helvetica,sans-Serif" font-size="11.00">int4[10]</text>
<polygon fill="none" stroke="black" points="388,-418.96 388,-440.96 527,-440.96 527,-418.96 388,-418.96"/>
<text text-anchor="start" x="408" y="-427.16" font-family="Helvetica,sans-Serif" font-size="11.00">source</text>
<polygon fill="none" stroke="black" points="527,-418.96 527,-440.96 612,-440.96 612,-418.96 527,-418.96"/>
<text text-anchor="start" x="530" y="-427.16" font-family="Helvetica,sans-Serif" font-size="11.00">varchar[64]</text>
<polygon fill="none" stroke="black" points="388,-396.96 388,-418.96 527,-418.96 527,-396.96 388,-396.96"/>
<text text-anchor="start" x="408" y="-405.16" font-family="Helvetica,sans-Serif" font-size="11.00">descr</text>
<polygon fill="none" stroke="black" points="527,-396.96 527,-418.96 612,-418.96 612,-396.96 527,-396.96"/>
<text text-anchor="start" x="530" y="-405.16" font-family="Helvetica,sans-Serif" font-size="11.00">varchar[2048]</text>
<polygon fill="none" stroke="black" points="388,-374.96 388,-396.96 527,-396.96 527,-374.96 388,-374.96"/>
<text text-anchor="start" x="408" y="-383.16" font-family="Helvetica,sans-Serif" font-size="11.00">xmetric</text>
<polygon fill="none" stroke="black" points="527,-374.96 527,-396.96 612,-396.96 612,-374.96 527,-374.96"/>
<text text-anchor="start" x="530" y="-383.16" font-family="Helvetica,sans-Serif" font-size="11.00">varchar[128]</text>
<polygon fill="none" stroke="black" points="388,-352.96 388,-374.96 527,-374.96 527,-352.96 388,-352.96"/>
<text text-anchor="start" x="408" y="-361.16" font-family="Helvetica,sans-Serif" font-size="11.00">xunits</text>
<polygon fill="none" stroke="black" points="527,-352.96 527,-374.96 612,-374.96 612,-352.96 527,-352.96"/>
<text text-anchor="start" x="530" y="-361.16" font-family="Helvetica,sans-Serif" font-size="11.00">varchar[32]</text>
<polygon fill="none" stroke="black" points="388,-330.96 388,-352.96 527,-352.96 527,-330.96 388,-330.96"/>
<text text-anchor="start" x="408" y="-339.16" font-family="Helvetica,sans-Serif" font-size="11.00">xaxislabel</text>
<polygon fill="none" stroke="black" points="527,-330.96 527,-352.96 612,-352.96 612,-330.96 527,-330.96"/>
<text text-anchor="start" x="530" y="-339.16" font-family="Helvetica,sans-Serif" font-size="11.00">varchar[128]</text>
<polygon fill="none" stroke="black" points="388,-308.96 388,-330.96 527,-330.96 527,-308.96 388,-308.96"/>
<text text-anchor="start" x="408" y="-317.16" font-family="Helvetica,sans-Serif" font-size="11.00">ymetric</text>
<polygon fill="none" stroke="black" points="527,-308.96 527,-330.96 612,-330.96 612,-308.96 527,-308.96"/>
<text text-anchor="start" x="530" y="-317.16" font-family="Helvetica,sans-Serif" font-size="11.00">varchar[128]</text>
<polygon fill="none" stroke="black" points="388,-286.96 388,-308.96 527,-308.96 527,-286.96 388,-286.96"/>
<text text-anchor="start" x="408" y="-295.16" font-family="Helvetica,sans-Serif" font-size="11.00">yunits</text>
<polygon fill="none" stroke="black" points="527,-286.96 527,-308.96 612,-308.96 612,-286.96 527,-286.96"/>
<text text-anchor="start" x="530" y="-295.16" font-family="Helvetica,sans-Serif" font-size="11.00">varchar[32]</text>
<polygon fill="none" stroke="black" points="388,-264.96 388,-286.96 527,-286.96 527,-264.96 388,-264.96"/>
<text text-anchor="start" x="408" y="-273.16" font-family="Helvetica,sans-Serif" font-size="11.00">yaxislabel</text>
<polygon fill="none" stroke="black" points="527,-264.96 527,-286.96 612,-286.96 612,-264.96 527,-264.96"/>
<text text-anchor="start" x="530" y="-273.16" font-family="Helvetica,sans-Serif" font-size="11.00">varchar[128]</text>
<polygon fill="none" stroke="black" points="388,-242.96 388,-264.96 527,-264.96 527,-242.96 388,-242.96"/>
<text text-anchor="start" x="408" y="-251.16" font-family="Helvetica,sans-Serif" font-size="11.00">created_at</text>
<polygon fill="none" stroke="black" points="527,-242.96 527,-264.96 612,-264.96 612,-242.96 527,-242.96"/>
<text text-anchor="start" x="530" y="-251.16" font-family="Helvetica,sans-Serif" font-size="11.00">timestamp[29,6]</text>
<polygon fill="none" stroke="black" points="388,-220.96 388,-242.96 527,-242.96 527,-220.96 388,-220.96"/>
<text text-anchor="start" x="408" y="-229.16" font-family="Helvetica,sans-Serif" font-size="11.00">author</text>
<polygon fill="none" stroke="black" points="527,-220.96 527,-242.96 612,-242.96 612,-220.96 527,-220.96"/>
<text text-anchor="start" x="530" y="-229.16" font-family="Helvetica,sans-Serif" font-size="11.00">varchar[128]</text>
<polygon fill="none" stroke="black" points="388,-198.96 388,-220.96 527,-220.96 527,-198.96 388,-198.96"/>
<text text-anchor="start" x="408" y="-207.16" font-family="Helvetica,sans-Serif" font-size="11.00">updated_at</text>
<polygon fill="none" stroke="black" points="527,-198.96 527,-220.96 612,-220.96 612,-198.96 527,-198.96"/>
<text text-anchor="start" x="530" y="-207.16" font-family="Helvetica,sans-Serif" font-size="11.00">timestamp[29,6]</text>
<polygon fill="none" stroke="black" points="388,-176.96 388,-198.96 527,-198.96 527,-176.96 388,-176.96"/>
<text text-anchor="start" x="408" y="-185.16" font-family="Helvetica,sans-Serif" font-size="11.00">modifier</text>
<polygon fill="none" stroke="black" points="527,-176.96 527,-198.96 612,-198.96 612,-176.96 527,-176.96"/>
<text text-anchor="start" x="530" y="-185.16" font-family="Helvetica,sans-Serif" font-size="11.00">varchar[128]</text>
<polygon fill="none" stroke="black" points="388,-154.96 388,-176.96 527,-176.96 527,-154.96 388,-154.96"/>
<text text-anchor="start" x="408" y="-163.16" font-family="Helvetica,sans-Serif" font-size="11.00">scoring_method</text>
<polygon fill="none" stroke="black" points="527,-154.96 527,-176.96 612,-176.96 612,-154.96 527,-154.96"/>
<text text-anchor="start" x="530" y="-163.16" font-family="Helvetica,sans-Serif" font-size="11.00">int4[10]</text>
<polygon fill="none" stroke="black" points="388,-132.96 388,-154.96 527,-154.96 527,-132.96 388,-132.96"/>
<text text-anchor="start" x="408" y="-141.16" font-family="Helvetica,sans-Serif" font-size="11.00">proc_flag_risks_calc</text>
<polygon fill="none" stroke="black" points="527,-132.96 527,-154.96 612,-154.96 612,-132.96 527,-132.96"/>
<text text-anchor="start" x="530" y="-141.16" font-family="Helvetica,sans-Serif" font-size="11.00">int4[10]</text>
<polygon fill="none" stroke="black" points="388,-110.96 388,-132.96 527,-132.96 527,-110.96 388,-110.96"/>
<text text-anchor="start" x="408" y="-119.16" font-family="Helvetica,sans-Serif" font-size="11.00">notes</text>
<polygon fill="none" stroke="black" points="527,-110.96 527,-132.96 612,-132.96 612,-110.96 527,-110.96"/>
<text text-anchor="start" x="530" y="-119.16" font-family="Helvetica,sans-Serif" font-size="11.00">varchar[256]</text>
<polygon fill="#ffffff" stroke="transparent" points="388,-92.96 388,-110.96 438,-110.96 438,-92.96 388,-92.96"/>
<polygon fill="none" stroke="black" points="388,-92.96 388,-110.96 438,-110.96 438,-92.96 388,-92.96"/>
<text text-anchor="start" x="391" y="-99.16" font-family="Helvetica,sans-Serif" font-size="11.00">&lt; 2</text>
<polygon fill="#ffffff" stroke="transparent" points="438,-92.96 438,-110.96 527,-110.96 527,-92.96 438,-92.96"/>
<polygon fill="none" stroke="black" points="438,-92.96 438,-110.96 527,-110.96 527,-92.96 438,-92.96"/>
<text text-anchor="start" x="469" y="-99.16" font-family="Helvetica,sans-Serif" font-size="11.00">3,261 rows</text>
<polygon fill="#ffffff" stroke="transparent" points="527,-92.96 527,-110.96 612,-110.96 612,-92.96 527,-92.96"/>
<polygon fill="none" stroke="black" points="527,-92.96 527,-110.96 612,-110.96 612,-92.96 527,-92.96"/>
<text text-anchor="start" x="593" y="-99.16" font-family="Helvetica,sans-Serif" font-size="11.00">2 &gt;</text>
<polygon fill="none" stroke="black" stroke-width="2" points="387,-91.96 387,-551.96 613,-551.96 613,-91.96 387,-91.96"/>
</a>
</g>
</g>
<!-- asset_types_impact_functions&#45;&gt;impact_functions -->
<g id="edge5" class="edge">
<title>asset_types_impact_functions:w&#45;&gt;impact_functions:e</title>
<path fill="none" stroke="black" d="M647.71,-710.77C588,-689.35 696.78,-517.96 613,-517.96"/>
<polygon fill="black" stroke="black" points="654.09,-711.75 661.45,-716.52 658.05,-712.35 662,-712.96 662,-712.96 662,-712.96 658.05,-712.35 662.55,-709.4 654.09,-711.75 654.09,-711.75"/>
<ellipse fill="none" stroke="black" cx="650.93" cy="-711.26" rx="3.2" ry="3.2"/>
</g>
<!-- impact_functions&#45;&gt;risk_factors -->
<g id="edge14" class="edge">
<title>impact_functions:w&#45;&gt;risk_factors:e</title>
<path fill="none" stroke="black" d="M372.58,-451.59C279.09,-446.82 228.01,-398.62 156,-464.96 109.14,-508.13 180.22,-748.96 116.5,-748.96"/>
<polygon fill="black" stroke="black" points="379,-451.75 386.91,-455.56 383,-451.86 387,-451.96 387,-451.96 387,-451.96 383,-451.86 387.09,-448.36 379,-451.75 379,-451.75"/>
<ellipse fill="none" stroke="black" cx="375.8" cy="-451.67" rx="3.2" ry="3.2"/>
</g>
<!-- impact_functions&#45;&gt;hazard_metrics -->
<g id="edge13" class="edge">
<title>impact_functions:w&#45;&gt;hazard_metrics:e</title>
<path fill="none" stroke="black" d="M372.88,-477.28C340.22,-496.13 380.84,-588.96 329.5,-588.96"/>
<polygon fill="black" stroke="black" points="379.21,-475.79 387.82,-477.46 383.11,-474.87 387,-473.96 387,-473.96 387,-473.96 383.11,-474.87 386.18,-470.45 379.21,-475.79 379.21,-475.79"/>
<ellipse fill="none" stroke="black" cx="376.1" cy="-476.52" rx="3.2" ry="3.2"/>
</g>
<!-- assets -->
<g id="node8" class="node">
<title>assets</title>
<g id="a_node8"><a xlink:href="../../tables/assets.html" xlink:title="assets" target="_top">
<polygon fill="#ffffff" stroke="transparent" points="444.5,-652.96 444.5,-710.96 555.5,-710.96 555.5,-652.96 444.5,-652.96"/>
<polygon fill="#f5f5f5" stroke="transparent" points="445,-688.96 445,-710.96 556,-710.96 556,-688.96 445,-688.96"/>
<polygon fill="none" stroke="black" points="445,-688.96 445,-710.96 556,-710.96 556,-688.96 445,-688.96"/>
<text text-anchor="start" x="450" y="-698.16" font-family="Helvetica,sans-Serif" font-weight="bold" font-size="11.00">assets</text>
<text text-anchor="start" x="521" y="-697.16" font-family="Helvetica,sans-Serif" font-size="11.00">[table]</text>
<polygon fill="none" stroke="black" points="445,-670.96 445,-688.96 556,-688.96 556,-670.96 445,-670.96"/>
<text text-anchor="start" x="448" y="-677.16" font-family="Helvetica,sans-Serif" font-size="11.00">...</text>
<polygon fill="#ffffff" stroke="transparent" points="445,-652.96 445,-670.96 467,-670.96 467,-652.96 445,-652.96"/>
<polygon fill="none" stroke="black" points="445,-652.96 445,-670.96 467,-670.96 467,-652.96 445,-652.96"/>
<text text-anchor="start" x="448" y="-659.16" font-family="Helvetica,sans-Serif" font-size="11.00">&lt; 3</text>
<polygon fill="#ffffff" stroke="transparent" points="467,-652.96 467,-670.96 534,-670.96 534,-652.96 467,-652.96"/>
<polygon fill="none" stroke="black" points="467,-652.96 467,-670.96 534,-670.96 534,-652.96 467,-652.96"/>
<text text-anchor="start" x="470" y="-659.16" font-family="Helvetica,sans-Serif" font-size="11.00">78,452 rows</text>
<polygon fill="#ffffff" stroke="transparent" points="534,-652.96 534,-670.96 556,-670.96 556,-652.96 534,-652.96"/>
<polygon fill="none" stroke="black" points="534,-652.96 534,-670.96 556,-670.96 556,-652.96 534,-652.96"/>
<text text-anchor="start" x="537" y="-659.16" font-family="Helvetica,sans-Serif" font-size="11.00">4 &gt;</text>
</a>
</g>
</g>
<!-- assets&#45;&gt;asset_types -->
<g id="edge7" class="edge">
<title>assets:w&#45;&gt;asset_types:e</title>
<path fill="none" stroke="black" d="M429.38,-679.76C379.42,-678.35 362.03,-669.96 305.5,-669.96"/>
<polygon fill="black" stroke="black" points="436,-679.85 443.95,-683.56 440,-679.9 444,-679.96 444,-679.96 444,-679.96 440,-679.9 444.05,-676.36 436,-679.85 436,-679.85"/>
<ellipse fill="none" stroke="black" cx="432.8" cy="-679.81" rx="3.2" ry="3.2"/>
</g>
<!-- assets_impact_functions -->
<g id="node9" class="node">
<title>assets_impact_functions</title>
<g id="a_node9"><a xlink:href="../../tables/assets_impact_functions.html" xlink:title="assets_impact_functions" target="_top">
<polygon fill="#ffffff" stroke="transparent" points="677.5,-448.96 677.5,-594.96 852.5,-594.96 852.5,-448.96 677.5,-448.96"/>
<polygon fill="#f5f5f5" stroke="transparent" points="678,-572.96 678,-594.96 853,-594.96 853,-572.96 678,-572.96"/>
<polygon fill="none" stroke="black" points="678,-572.96 678,-594.96 853,-594.96 853,-572.96 678,-572.96"/>
<text text-anchor="start" x="683" y="-582.16" font-family="Helvetica,sans-Serif" font-weight="bold" font-size="11.00">assets_impact_functions</text>
<text text-anchor="start" x="818" y="-581.16" font-family="Helvetica,sans-Serif" font-size="11.00">[table]</text>
<polygon fill="none" stroke="black" points="678,-550.96 678,-572.96 853,-572.96 853,-550.96 678,-550.96"/>
<image xlink:href="../../images/primaryKeys.png" width="11px" height="12px" preserveAspectRatio="xMinYMin meet" x="683" y="-567.959"/>
<text text-anchor="start" x="704" y="-559.16" font-family="Helvetica,sans-Serif" font-size="11.00">id</text>
<polygon fill="#ffffff" stroke="transparent" points="678,-528.96 678,-550.96 853,-550.96 853,-528.96 678,-528.96"/>
<polygon fill="none" stroke="black" points="678,-528.96 678,-550.96 853,-550.96 853,-528.96 678,-528.96"/>
<image xlink:href="../../images/foreignKeys.png" width="11px" height="12px" preserveAspectRatio="xMinYMin meet" x="683" y="-545.959"/>
<text text-anchor="start" x="704" y="-537.16" font-family="Helvetica,sans-Serif" font-size="11.00">asset_id</text>
<polygon fill="none" stroke="black" points="678,-506.96 678,-528.96 853,-528.96 853,-506.96 678,-506.96"/>
<image xlink:href="../../images/foreignKeys.png" width="11px" height="12px" preserveAspectRatio="xMinYMin meet" x="683" y="-523.959"/>
<text text-anchor="start" x="704" y="-515.16" font-family="Helvetica,sans-Serif" font-size="11.00">impact_function_id</text>
<polygon fill="#ffffff" stroke="transparent" points="678,-484.96 678,-506.96 853,-506.96 853,-484.96 678,-484.96"/>
<polygon fill="none" stroke="black" points="678,-484.96 678,-506.96 853,-506.96 853,-484.96 678,-484.96"/>
<image xlink:href="../../images/foreignKeys.png" width="11px" height="12px" preserveAspectRatio="xMinYMin meet" x="683" y="-501.959"/>
<text text-anchor="start" x="704" y="-493.16" font-family="Helvetica,sans-Serif" font-size="11.00">risk_factor_id</text>
<polygon fill="none" stroke="black" points="678,-466.96 678,-484.96 853,-484.96 853,-466.96 678,-466.96"/>
<text text-anchor="start" x="681" y="-473.16" font-family="Helvetica,sans-Serif" font-size="11.00">...</text>
<polygon fill="#ffffff" stroke="transparent" points="678,-448.96 678,-466.96 733,-466.96 733,-448.96 678,-448.96"/>
<polygon fill="none" stroke="black" points="678,-448.96 678,-466.96 733,-466.96 733,-448.96 678,-448.96"/>
<text text-anchor="start" x="681" y="-455.16" font-family="Helvetica,sans-Serif" font-size="11.00">&lt; 3</text>
<polygon fill="#ffffff" stroke="transparent" points="733,-448.96 733,-466.96 823,-466.96 823,-448.96 733,-448.96"/>
<polygon fill="none" stroke="black" points="733,-448.96 733,-466.96 823,-466.96 823,-448.96 733,-448.96"/>
<text text-anchor="start" x="753" y="-455.16" font-family="Helvetica,sans-Serif" font-size="11.00">654,369 rows</text>
<polygon fill="#ffffff" stroke="transparent" points="823,-448.96 823,-466.96 853,-466.96 853,-448.96 823,-448.96"/>
<polygon fill="none" stroke="black" points="823,-448.96 823,-466.96 853,-466.96 853,-448.96 823,-448.96"/>
<text text-anchor="start" x="843" y="-455.16" font-family="Helvetica,sans-Serif" font-size="11.00"> &#160;</text>
</a>
</g>
</g>
<!-- assets_impact_functions&#45;&gt;risk_factors -->
<g id="edge10" class="edge">
<title>assets_impact_functions:w&#45;&gt;risk_factors:e</title>
<path fill="none" stroke="black" d="M662.61,-492.44C595.84,-455.42 688.02,-137.82 622,-79.96 540.45,-8.48 473.09,-27.83 378,-79.96 217.13,-168.15 218.07,-255.32 156,-427.96 131.68,-495.59 188.37,-748.96 116.5,-748.96"/>
<polygon fill="black" stroke="black" points="669.23,-494.06 676.14,-499.46 673.11,-495.01 677,-495.96 677,-495.96 677,-495.96 673.11,-495.01 677.86,-492.46 669.23,-494.06 669.23,-494.06"/>
<ellipse fill="none" stroke="black" cx="666.12" cy="-493.3" rx="3.2" ry="3.2"/>
</g>
<!-- assets_impact_functions&#45;&gt;impact_functions -->
<g id="edge9" class="edge">
<title>assets_impact_functions:w&#45;&gt;impact_functions:e</title>
<path fill="none" stroke="black" d="M662.46,-517.96C644.96,-517.96 635.89,-517.96 613,-517.96"/>
<polygon fill="black" stroke="black" points="669,-517.96 677,-521.56 673,-517.96 677,-517.96 677,-517.96 677,-517.96 673,-517.96 677,-514.36 669,-517.96 669,-517.96"/>
<ellipse fill="none" stroke="black" cx="665.8" cy="-517.96" rx="3.2" ry="3.2"/>
</g>
<!-- assets_impact_functions&#45;&gt;assets -->
<g id="edge8" class="edge">
<title>assets_impact_functions:w&#45;&gt;assets:e</title>
<path fill="none" stroke="black" d="M662.5,-542.32C631.94,-554.32 653.73,-609.11 622,-641.96 598.75,-666.03 590.46,-679.96 557,-679.96"/>
<polygon fill="black" stroke="black" points="669.1,-541.25 677.58,-543.51 673.05,-540.6 677,-539.96 677,-539.96 677,-539.96 673.05,-540.6 676.42,-536.41 669.1,-541.25 669.1,-541.25"/>
<ellipse fill="none" stroke="black" cx="665.95" cy="-541.76" rx="3.2" ry="3.2"/>
</g>
<!-- decadal_states -->
<g id="node10" class="node">
<title>decadal_states</title>
<g id="a_node10"><a xlink:href="../../tables/decadal_states.html" xlink:title="decadal_states" target="_top">
<polygon fill="#ffffff" stroke="transparent" points="438,-573.96 438,-631.96 562,-631.96 562,-573.96 438,-573.96"/>
<polygon fill="#f5f5f5" stroke="transparent" points="438,-609.96 438,-631.96 562,-631.96 562,-609.96 438,-609.96"/>
<polygon fill="none" stroke="black" points="438,-609.96 438,-631.96 562,-631.96 562,-609.96 438,-609.96"/>
<text text-anchor="start" x="443" y="-619.16" font-family="Helvetica,sans-Serif" font-weight="bold" font-size="11.00">decadal_states</text>
<text text-anchor="start" x="527" y="-618.16" font-family="Helvetica,sans-Serif" font-size="11.00">[table]</text>
<polygon fill="none" stroke="black" points="438,-591.96 438,-609.96 562,-609.96 562,-591.96 438,-591.96"/>
<text text-anchor="start" x="441" y="-598.16" font-family="Helvetica,sans-Serif" font-size="11.00">...</text>
<polygon fill="#ffffff" stroke="transparent" points="438,-573.96 438,-591.96 463,-591.96 463,-573.96 438,-573.96"/>
<polygon fill="none" stroke="black" points="438,-573.96 438,-591.96 463,-591.96 463,-573.96 438,-573.96"/>
<text text-anchor="start" x="441" y="-580.16" font-family="Helvetica,sans-Serif" font-size="11.00">&lt; 3</text>
<polygon fill="#ffffff" stroke="transparent" points="463,-573.96 463,-591.96 547,-591.96 547,-573.96 463,-573.96"/>
<polygon fill="none" stroke="black" points="463,-573.96 463,-591.96 547,-591.96 547,-573.96 463,-573.96"/>
<text text-anchor="start" x="468" y="-580.16" font-family="Helvetica,sans-Serif" font-size="11.00">7,749,532 rows</text>
<polygon fill="#ffffff" stroke="transparent" points="547,-573.96 547,-591.96 562,-591.96 562,-573.96 547,-573.96"/>
<polygon fill="none" stroke="black" points="547,-573.96 547,-591.96 562,-591.96 562,-573.96 547,-573.96"/>
<text text-anchor="start" x="552" y="-580.16" font-family="Helvetica,sans-Serif" font-size="11.00"> &#160;</text>
</a>
</g>
</g>
<!-- decadal_states&#45;&gt;hazard_metrics -->
<g id="edge11" class="edge">
<title>decadal_states:w&#45;&gt;hazard_metrics:e</title>
<path fill="none" stroke="black" d="M422.45,-600.56C386,-598.48 372.32,-588.96 329.5,-588.96"/>
<polygon fill="black" stroke="black" points="429,-600.74 436.9,-604.56 433,-600.85 437,-600.96 437,-600.96 437,-600.96 433,-600.85 437.1,-597.36 429,-600.74 429,-600.74"/>
<ellipse fill="none" stroke="black" cx="425.8" cy="-600.65" rx="3.2" ry="3.2"/>
</g>
<!-- rf_category_risk_factors -->
<g id="node11" class="node">
<title>rf_category_risk_factors</title>
<g id="a_node11"><a xlink:href="../../tables/rf_category_risk_factors.html" xlink:title="rf_category_risk_factors" target="_top">
<polygon fill="#ffffff" stroke="transparent" points="164,-827.96 164,-885.96 337,-885.96 337,-827.96 164,-827.96"/>
<polygon fill="#f5f5f5" stroke="transparent" points="164.5,-863.96 164.5,-885.96 337.5,-885.96 337.5,-863.96 164.5,-863.96"/>
<polygon fill="none" stroke="black" points="164.5,-863.96 164.5,-885.96 337.5,-885.96 337.5,-863.96 164.5,-863.96"/>
<text text-anchor="start" x="169.5" y="-873.16" font-family="Helvetica,sans-Serif" font-weight="bold" font-size="11.00">rf_category_risk_factors</text>
<text text-anchor="start" x="302.5" y="-872.16" font-family="Helvetica,sans-Serif" font-size="11.00">[table]</text>
<polygon fill="none" stroke="black" points="164.5,-845.96 164.5,-863.96 337.5,-863.96 337.5,-845.96 164.5,-845.96"/>
<text text-anchor="start" x="167.5" y="-852.16" font-family="Helvetica,sans-Serif" font-size="11.00">...</text>
<polygon fill="#ffffff" stroke="transparent" points="164.5,-827.96 164.5,-845.96 232.5,-845.96 232.5,-827.96 164.5,-827.96"/>
<polygon fill="none" stroke="black" points="164.5,-827.96 164.5,-845.96 232.5,-845.96 232.5,-827.96 164.5,-827.96"/>
<text text-anchor="start" x="167.5" y="-834.16" font-family="Helvetica,sans-Serif" font-size="11.00">&lt; 2</text>
<polygon fill="#ffffff" stroke="transparent" points="232.5,-827.96 232.5,-845.96 301.5,-845.96 301.5,-827.96 232.5,-827.96"/>
<polygon fill="none" stroke="black" points="232.5,-827.96 232.5,-845.96 301.5,-845.96 301.5,-827.96 232.5,-827.96"/>
<text text-anchor="start" x="258.5" y="-834.16" font-family="Helvetica,sans-Serif" font-size="11.00">17 rows</text>
<polygon fill="#ffffff" stroke="transparent" points="301.5,-827.96 301.5,-845.96 337.5,-845.96 337.5,-827.96 301.5,-827.96"/>
<polygon fill="none" stroke="black" points="301.5,-827.96 301.5,-845.96 337.5,-845.96 337.5,-827.96 301.5,-827.96"/>
<text text-anchor="start" x="327.5" y="-834.16" font-family="Helvetica,sans-Serif" font-size="11.00"> &#160;</text>
</a>
</g>
</g>
<!-- rf_category_risk_factors&#45;&gt;risk_factors -->
<g id="edge15" class="edge">
<title>rf_category_risk_factors:w&#45;&gt;risk_factors:e</title>
<path fill="none" stroke="black" d="M149.47,-850.93C123.63,-831.57 162,-748.96 116.5,-748.96"/>
<polygon fill="black" stroke="black" points="155.81,-852.75 162.51,-858.42 159.66,-853.86 163.5,-854.96 163.5,-854.96 163.5,-854.96 159.66,-853.86 164.49,-851.5 155.81,-852.75 155.81,-852.75"/>
<ellipse fill="none" stroke="black" cx="152.73" cy="-851.87" rx="3.2" ry="3.2"/>
</g>
</g>
</svg>
