<?xml version="1.0" encoding="UTF-8" standalone="no"?>
<!DOCTYPE svg PUBLIC "-//W3C//DTD SVG 1.1//EN"
 "http://www.w3.org/Graphics/SVG/1.1/DTD/svg11.dtd">
<!-- Generated by graphviz version 2.50.0 (20211204.2007)
 -->
<!-- Title: oneDegreeRelationshipsDiagram Pages: 1 -->
<svg width="865pt" height="627pt"
 viewBox="0.00 0.00 865.00 627.38" xmlns="http://www.w3.org/2000/svg" xmlns:xlink="http://www.w3.org/1999/xlink">
<g id="graph0" class="graph" transform="scale(1 1) rotate(0) translate(4 623.38)">
<title>oneDegreeRelationshipsDiagram</title>
<polygon fill="#ffffff" stroke="transparent" points="-4,4 -4,-623.38 861,-623.38 861,4 -4,4"/>
<text text-anchor="middle" x="72.5" y="-7.2" font-family="Helvetica,sans-Serif" font-size="11.00">Generated by SchemaSpy</text>
<!-- asset_types_impact_functions -->
<g id="node1" class="node">
<title>asset_types_impact_functions</title>
<g id="a_node1"><a xlink:href="../../tables/asset_types_impact_functions.html" xlink:title="asset_types_impact_functions" target="_top">
<polygon fill="#ffffff" stroke="transparent" points="645,-483.95 645,-607.95 849,-607.95 849,-483.95 645,-483.95"/>
<polygon fill="#f5f5f5" stroke="transparent" points="645,-585.95 645,-607.95 849,-607.95 849,-585.95 645,-585.95"/>
<polygon fill="none" stroke="black" points="645,-585.95 645,-607.95 849,-607.95 849,-585.95 645,-585.95"/>
<text text-anchor="start" x="650" y="-595.15" font-family="Helvetica,sans-Serif" font-weight="bold" font-size="11.00">asset_types_impact_functions</text>
<text text-anchor="start" x="814" y="-594.15" font-family="Helvetica,sans-Serif" font-size="11.00">[table]</text>
<polygon fill="none" stroke="black" points="645,-563.95 645,-585.95 849,-585.95 849,-563.95 645,-563.95"/>
<image xlink:href="../../images/primaryKeys.png" width="11px" height="12px" preserveAspectRatio="xMinYMin meet" x="650" y="-580.951"/>
<text text-anchor="start" x="670" y="-572.15" font-family="Helvetica,sans-Serif" font-size="11.00">asset_type_id</text>
<polygon fill="none" stroke="black" points="645,-541.95 645,-563.95 849,-563.95 849,-541.95 645,-541.95"/>
<image xlink:href="../../images/primaryKeys.png" width="11px" height="12px" preserveAspectRatio="xMinYMin meet" x="650" y="-558.951"/>
<text text-anchor="start" x="670" y="-550.15" font-family="Helvetica,sans-Serif" font-size="11.00">impact_function_id</text>
<polygon fill="none" stroke="black" points="645,-519.95 645,-541.95 849,-541.95 849,-519.95 645,-519.95"/>
<image xlink:href="../../images/foreignKeys.png" width="11px" height="12px" preserveAspectRatio="xMinYMin meet" x="650" y="-536.951"/>
<text text-anchor="start" x="670" y="-528.15" font-family="Helvetica,sans-Serif" font-size="11.00">risk_factor_id</text>
<polygon fill="none" stroke="black" points="645,-501.95 645,-519.95 849,-519.95 849,-501.95 645,-501.95"/>
<text text-anchor="start" x="648" y="-508.15" font-family="Helvetica,sans-Serif" font-size="11.00">...</text>
<polygon fill="#ffffff" stroke="transparent" points="645,-483.95 645,-501.95 725,-501.95 725,-483.95 645,-483.95"/>
<polygon fill="none" stroke="black" points="645,-483.95 645,-501.95 725,-501.95 725,-483.95 645,-483.95"/>
<text text-anchor="start" x="648" y="-490.15" font-family="Helvetica,sans-Serif" font-size="11.00">&lt; 3</text>
<polygon fill="#ffffff" stroke="transparent" points="725,-483.95 725,-501.95 806,-501.95 806,-483.95 725,-483.95"/>
<polygon fill="none" stroke="black" points="725,-483.95 725,-501.95 806,-501.95 806,-483.95 725,-483.95"/>
<text text-anchor="start" x="757" y="-490.15" font-family="Helvetica,sans-Serif" font-size="11.00">625 rows</text>
<polygon fill="#ffffff" stroke="transparent" points="806,-483.95 806,-501.95 849,-501.95 849,-483.95 806,-483.95"/>
<polygon fill="none" stroke="black" points="806,-483.95 806,-501.95 849,-501.95 849,-483.95 806,-483.95"/>
<text text-anchor="start" x="839" y="-490.15" font-family="Helvetica,sans-Serif" font-size="11.00"> &#160;</text>
</a>
</g>
</g>
<!-- impact_functions -->
<g id="node2" class="node">
<title>impact_functions</title>
<g id="a_node2"><a xlink:href="../../tables/impact_functions.html" xlink:title="impact_functions" target="_top">
<polygon fill="#ffffff" stroke="transparent" points="368,-85.95 368,-547.95 596,-547.95 596,-85.95 368,-85.95"/>
<polygon fill="#f5f5f5" stroke="transparent" points="370,-523.95 370,-545.95 594,-545.95 594,-523.95 370,-523.95"/>
<polygon fill="none" stroke="black" points="370,-523.95 370,-545.95 594,-545.95 594,-523.95 370,-523.95"/>
<text text-anchor="start" x="375" y="-533.15" font-family="Helvetica,sans-Serif" font-weight="bold" font-size="11.00">impact_functions</text>
<text text-anchor="start" x="559" y="-532.15" font-family="Helvetica,sans-Serif" font-size="11.00">[table]</text>
<polygon fill="none" stroke="black" points="370,-501.95 370,-523.95 509,-523.95 509,-501.95 370,-501.95"/>
<image xlink:href="../../images/primaryKeys.png" width="11px" height="12px" preserveAspectRatio="xMinYMin meet" x="375" y="-518.951"/>
<text text-anchor="start" x="390" y="-510.15" font-family="Helvetica,sans-Serif" font-size="11.00">id</text>
<polygon fill="none" stroke="black" points="509,-501.95 509,-523.95 594,-523.95 594,-501.95 509,-501.95"/>
<text text-anchor="start" x="512" y="-510.15" font-family="Helvetica,sans-Serif" font-size="11.00">serial[10]</text>
<polygon fill="#ffffff" stroke="transparent" points="370,-479.95 370,-501.95 509,-501.95 509,-479.95 370,-479.95"/>
<polygon fill="none" stroke="black" points="370,-479.95 370,-501.95 509,-501.95 509,-479.95 370,-479.95"/>
<text text-anchor="start" x="390" y="-488.15" font-family="Helvetica,sans-Serif" font-size="11.00">name</text>
<polygon fill="none" stroke="black" points="509,-479.95 509,-501.95 594,-501.95 594,-479.95 509,-479.95"/>
<text text-anchor="start" x="512" y="-488.15" font-family="Helvetica,sans-Serif" font-size="11.00">varchar[128]</text>
<polygon fill="none" stroke="black" points="370,-457.95 370,-479.95 509,-479.95 509,-457.95 370,-457.95"/>
<image xlink:href="../../images/foreignKeys.png" width="11px" height="12px" preserveAspectRatio="xMinYMin meet" x="375" y="-474.951"/>
<text text-anchor="start" x="390" y="-466.15" font-family="Helvetica,sans-Serif" font-size="11.00">hazard_metric_id</text>
<polygon fill="none" stroke="black" points="509,-457.95 509,-479.95 594,-479.95 594,-457.95 509,-457.95"/>
<text text-anchor="start" x="512" y="-466.15" font-family="Helvetica,sans-Serif" font-size="11.00">int4[10]</text>
<polygon fill="none" stroke="black" points="370,-435.95 370,-457.95 509,-457.95 509,-435.95 370,-435.95"/>
<image xlink:href="../../images/foreignKeys.png" width="11px" height="12px" preserveAspectRatio="xMinYMin meet" x="375" y="-452.951"/>
<text text-anchor="start" x="390" y="-444.15" font-family="Helvetica,sans-Serif" font-size="11.00">risk_factor_id</text>
<polygon fill="none" stroke="black" points="509,-435.95 509,-457.95 594,-457.95 594,-435.95 509,-435.95"/>
<text text-anchor="start" x="512" y="-444.15" font-family="Helvetica,sans-Serif" font-size="11.00">int4[10]</text>
<polygon fill="none" stroke="black" points="370,-413.95 370,-435.95 509,-435.95 509,-413.95 370,-413.95"/>
<text text-anchor="start" x="390" y="-422.15" font-family="Helvetica,sans-Serif" font-size="11.00">source</text>
<polygon fill="none" stroke="black" points="509,-413.95 509,-435.95 594,-435.95 594,-413.95 509,-413.95"/>
<text text-anchor="start" x="512" y="-422.15" font-family="Helvetica,sans-Serif" font-size="11.00">varchar[64]</text>
<polygon fill="none" stroke="black" points="370,-391.95 370,-413.95 509,-413.95 509,-391.95 370,-391.95"/>
<text text-anchor="start" x="390" y="-400.15" font-family="Helvetica,sans-Serif" font-size="11.00">descr</text>
<polygon fill="none" stroke="black" points="509,-391.95 509,-413.95 594,-413.95 594,-391.95 509,-391.95"/>
<text text-anchor="start" x="512" y="-400.15" font-family="Helvetica,sans-Serif" font-size="11.00">varchar[2048]</text>
<polygon fill="none" stroke="black" points="370,-369.95 370,-391.95 509,-391.95 509,-369.95 370,-369.95"/>
<text text-anchor="start" x="390" y="-378.15" font-family="Helvetica,sans-Serif" font-size="11.00">xmetric</text>
<polygon fill="none" stroke="black" points="509,-369.95 509,-391.95 594,-391.95 594,-369.95 509,-369.95"/>
<text text-anchor="start" x="512" y="-378.15" font-family="Helvetica,sans-Serif" font-size="11.00">varchar[128]</text>
<polygon fill="none" stroke="black" points="370,-347.95 370,-369.95 509,-369.95 509,-347.95 370,-347.95"/>
<text text-anchor="start" x="390" y="-356.15" font-family="Helvetica,sans-Serif" font-size="11.00">xunits</text>
<polygon fill="none" stroke="black" points="509,-347.95 509,-369.95 594,-369.95 594,-347.95 509,-347.95"/>
<text text-anchor="start" x="512" y="-356.15" font-family="Helvetica,sans-Serif" font-size="11.00">varchar[32]</text>
<polygon fill="none" stroke="black" points="370,-325.95 370,-347.95 509,-347.95 509,-325.95 370,-325.95"/>
<text text-anchor="start" x="390" y="-334.15" font-family="Helvetica,sans-Serif" font-size="11.00">xaxislabel</text>
<polygon fill="none" stroke="black" points="509,-325.95 509,-347.95 594,-347.95 594,-325.95 509,-325.95"/>
<text text-anchor="start" x="512" y="-334.15" font-family="Helvetica,sans-Serif" font-size="11.00">varchar[128]</text>
<polygon fill="none" stroke="black" points="370,-303.95 370,-325.95 509,-325.95 509,-303.95 370,-303.95"/>
<text text-anchor="start" x="390" y="-312.15" font-family="Helvetica,sans-Serif" font-size="11.00">ymetric</text>
<polygon fill="none" stroke="black" points="509,-303.95 509,-325.95 594,-325.95 594,-303.95 509,-303.95"/>
<text text-anchor="start" x="512" y="-312.15" font-family="Helvetica,sans-Serif" font-size="11.00">varchar[128]</text>
<polygon fill="none" stroke="black" points="370,-281.95 370,-303.95 509,-303.95 509,-281.95 370,-281.95"/>
<text text-anchor="start" x="390" y="-290.15" font-family="Helvetica,sans-Serif" font-size="11.00">yunits</text>
<polygon fill="none" stroke="black" points="509,-281.95 509,-303.95 594,-303.95 594,-281.95 509,-281.95"/>
<text text-anchor="start" x="512" y="-290.15" font-family="Helvetica,sans-Serif" font-size="11.00">varchar[32]</text>
<polygon fill="none" stroke="black" points="370,-259.95 370,-281.95 509,-281.95 509,-259.95 370,-259.95"/>
<text text-anchor="start" x="390" y="-268.15" font-family="Helvetica,sans-Serif" font-size="11.00">yaxislabel</text>
<polygon fill="none" stroke="black" points="509,-259.95 509,-281.95 594,-281.95 594,-259.95 509,-259.95"/>
<text text-anchor="start" x="512" y="-268.15" font-family="Helvetica,sans-Serif" font-size="11.00">varchar[128]</text>
<polygon fill="none" stroke="black" points="370,-237.95 370,-259.95 509,-259.95 509,-237.95 370,-237.95"/>
<text text-anchor="start" x="390" y="-246.15" font-family="Helvetica,sans-Serif" font-size="11.00">created_at</text>
<polygon fill="none" stroke="black" points="509,-237.95 509,-259.95 594,-259.95 594,-237.95 509,-237.95"/>
<text text-anchor="start" x="512" y="-246.15" font-family="Helvetica,sans-Serif" font-size="11.00">timestamp[29,6]</text>
<polygon fill="none" stroke="black" points="370,-215.95 370,-237.95 509,-237.95 509,-215.95 370,-215.95"/>
<text text-anchor="start" x="390" y="-224.15" font-family="Helvetica,sans-Serif" font-size="11.00">author</text>
<polygon fill="none" stroke="black" points="509,-215.95 509,-237.95 594,-237.95 594,-215.95 509,-215.95"/>
<text text-anchor="start" x="512" y="-224.15" font-family="Helvetica,sans-Serif" font-size="11.00">varchar[128]</text>
<polygon fill="none" stroke="black" points="370,-193.95 370,-215.95 509,-215.95 509,-193.95 370,-193.95"/>
<text text-anchor="start" x="390" y="-202.15" font-family="Helvetica,sans-Serif" font-size="11.00">updated_at</text>
<polygon fill="none" stroke="black" points="509,-193.95 509,-215.95 594,-215.95 594,-193.95 509,-193.95"/>
<text text-anchor="start" x="512" y="-202.15" font-family="Helvetica,sans-Serif" font-size="11.00">timestamp[29,6]</text>
<polygon fill="none" stroke="black" points="370,-171.95 370,-193.95 509,-193.95 509,-171.95 370,-171.95"/>
<text text-anchor="start" x="390" y="-180.15" font-family="Helvetica,sans-Serif" font-size="11.00">modifier</text>
<polygon fill="none" stroke="black" points="509,-171.95 509,-193.95 594,-193.95 594,-171.95 509,-171.95"/>
<text text-anchor="start" x="512" y="-180.15" font-family="Helvetica,sans-Serif" font-size="11.00">varchar[128]</text>
<polygon fill="none" stroke="black" points="370,-149.95 370,-171.95 509,-171.95 509,-149.95 370,-149.95"/>
<text text-anchor="start" x="390" y="-158.15" font-family="Helvetica,sans-Serif" font-size="11.00">scoring_method</text>
<polygon fill="none" stroke="black" points="509,-149.95 509,-171.95 594,-171.95 594,-149.95 509,-149.95"/>
<text text-anchor="start" x="512" y="-158.15" font-family="Helvetica,sans-Serif" font-size="11.00">int4[10]</text>
<polygon fill="none" stroke="black" points="370,-127.95 370,-149.95 509,-149.95 509,-127.95 370,-127.95"/>
<text text-anchor="start" x="390" y="-136.15" font-family="Helvetica,sans-Serif" font-size="11.00">proc_flag_risks_calc</text>
<polygon fill="none" stroke="black" points="509,-127.95 509,-149.95 594,-149.95 594,-127.95 509,-127.95"/>
<text text-anchor="start" x="512" y="-136.15" font-family="Helvetica,sans-Serif" font-size="11.00">int4[10]</text>
<polygon fill="none" stroke="black" points="370,-105.95 370,-127.95 509,-127.95 509,-105.95 370,-105.95"/>
<text text-anchor="start" x="390" y="-114.15" font-family="Helvetica,sans-Serif" font-size="11.00">notes</text>
<polygon fill="none" stroke="black" points="509,-105.95 509,-127.95 594,-127.95 594,-105.95 509,-105.95"/>
<text text-anchor="start" x="512" y="-114.15" font-family="Helvetica,sans-Serif" font-size="11.00">varchar[256]</text>
<polygon fill="#ffffff" stroke="transparent" points="370,-87.95 370,-105.95 420,-105.95 420,-87.95 370,-87.95"/>
<polygon fill="none" stroke="black" points="370,-87.95 370,-105.95 420,-105.95 420,-87.95 370,-87.95"/>
<text text-anchor="start" x="373" y="-94.15" font-family="Helvetica,sans-Serif" font-size="11.00">&lt; 2</text>
<polygon fill="#ffffff" stroke="transparent" points="420,-87.95 420,-105.95 509,-105.95 509,-87.95 420,-87.95"/>
<polygon fill="none" stroke="black" points="420,-87.95 420,-105.95 509,-105.95 509,-87.95 420,-87.95"/>
<text text-anchor="start" x="451" y="-94.15" font-family="Helvetica,sans-Serif" font-size="11.00">3,261 rows</text>
<polygon fill="#ffffff" stroke="transparent" points="509,-87.95 509,-105.95 594,-105.95 594,-87.95 509,-87.95"/>
<polygon fill="none" stroke="black" points="509,-87.95 509,-105.95 594,-105.95 594,-87.95 509,-87.95"/>
<text text-anchor="start" x="575" y="-94.15" font-family="Helvetica,sans-Serif" font-size="11.00">2 &gt;</text>
<polygon fill="none" stroke="black" stroke-width="2" points="369,-86.95 369,-546.95 595,-546.95 595,-86.95 369,-86.95"/>
</a>
</g>
</g>
<!-- asset_types_impact_functions&#45;&gt;impact_functions -->
<g id="edge1" class="edge">
<title>asset_types_impact_functions:w&#45;&gt;impact_functions:e</title>
<path fill="none" stroke="black" d="M630.26,-548.36C617.36,-537.86 617.18,-512.95 595,-512.95"/>
<polygon fill="black" stroke="black" points="636.41,-550.42 642.86,-556.37 640.21,-551.68 644,-552.95 644,-552.95 644,-552.95 640.21,-551.68 645.14,-549.54 636.41,-550.42 636.41,-550.42"/>
<ellipse fill="none" stroke="black" cx="633.38" cy="-549.4" rx="3.2" ry="3.2"/>
</g>
<!-- risk_factors -->
<g id="node3" class="node">
<title>risk_factors</title>
<g id="a_node3"><a xlink:href="../../tables/risk_factors.html" xlink:title="risk_factors" target="_top">
<polygon fill="#ffffff" stroke="transparent" points="8,-320.95 8,-422.95 115,-422.95 115,-320.95 8,-320.95"/>
<polygon fill="#f5f5f5" stroke="transparent" points="8.5,-400.95 8.5,-422.95 115.5,-422.95 115.5,-400.95 8.5,-400.95"/>
<polygon fill="none" stroke="black" points="8.5,-400.95 8.5,-422.95 115.5,-422.95 115.5,-400.95 8.5,-400.95"/>
<text text-anchor="start" x="13.5" y="-410.15" font-family="Helvetica,sans-Serif" font-weight="bold" font-size="11.00">risk_factors</text>
<text text-anchor="start" x="80.5" y="-409.15" font-family="Helvetica,sans-Serif" font-size="11.00">[table]</text>
<polygon fill="none" stroke="black" points="8.5,-378.95 8.5,-400.95 115.5,-400.95 115.5,-378.95 8.5,-378.95"/>
<image xlink:href="../../images/primaryKeys.png" width="11px" height="12px" preserveAspectRatio="xMinYMin meet" x="13.5" y="-395.951"/>
<text text-anchor="start" x="37.5" y="-387.15" font-family="Helvetica,sans-Serif" font-size="11.00">id</text>
<polygon fill="#ffffff" stroke="transparent" points="8.5,-356.95 8.5,-378.95 115.5,-378.95 115.5,-356.95 8.5,-356.95"/>
<polygon fill="none" stroke="black" points="8.5,-356.95 8.5,-378.95 115.5,-378.95 115.5,-356.95 8.5,-356.95"/>
<text text-anchor="start" x="37.5" y="-365.15" font-family="Helvetica,sans-Serif" font-size="11.00">name</text>
<polygon fill="none" stroke="black" points="8.5,-338.95 8.5,-356.95 115.5,-356.95 115.5,-338.95 8.5,-338.95"/>
<text text-anchor="start" x="11.5" y="-345.15" font-family="Helvetica,sans-Serif" font-size="11.00">...</text>
<polygon fill="#ffffff" stroke="transparent" points="8.5,-320.95 8.5,-338.95 34.5,-338.95 34.5,-320.95 8.5,-320.95"/>
<polygon fill="none" stroke="black" points="8.5,-320.95 8.5,-338.95 34.5,-338.95 34.5,-320.95 8.5,-320.95"/>
<text text-anchor="start" x="11.5" y="-327.15" font-family="Helvetica,sans-Serif" font-size="11.00"> &#160;</text>
<polygon fill="#ffffff" stroke="transparent" points="34.5,-320.95 34.5,-338.95 86.5,-338.95 86.5,-320.95 34.5,-320.95"/>
<polygon fill="none" stroke="black" points="34.5,-320.95 34.5,-338.95 86.5,-338.95 86.5,-320.95 34.5,-320.95"/>
<text text-anchor="start" x="43.5" y="-327.15" font-family="Helvetica,sans-Serif" font-size="11.00">17 rows</text>
<polygon fill="#ffffff" stroke="transparent" points="86.5,-320.95 86.5,-338.95 115.5,-338.95 115.5,-320.95 86.5,-320.95"/>
<polygon fill="none" stroke="black" points="86.5,-320.95 86.5,-338.95 115.5,-338.95 115.5,-320.95 86.5,-320.95"/>
<text text-anchor="start" x="96.5" y="-327.15" font-family="Helvetica,sans-Serif" font-size="11.00">7 &gt;</text>
</a>
</g>
</g>
<!-- asset_types_impact_functions&#45;&gt;risk_factors -->
<g id="edge2" class="edge">
<title>asset_types_impact_functions:w&#45;&gt;risk_factors:e</title>
<path fill="none" stroke="black" d="M630.08,-535.45C621.76,-542.12 618.71,-554.31 604,-558.95 413.85,-618.89 307.27,-665.82 156,-535.95 105,-492.16 183.72,-389.95 116.5,-389.95"/>
<polygon fill="black" stroke="black" points="636.39,-533.41 645.11,-534.38 640.19,-532.18 644,-530.95 644,-530.95 644,-530.95 640.19,-532.18 642.89,-527.53 636.39,-533.41 636.39,-533.41"/>
<ellipse fill="none" stroke="black" cx="633.34" cy="-534.4" rx="3.2" ry="3.2"/>
</g>
<!-- impact_functions&#45;&gt;risk_factors -->
<g id="edge7" class="edge">
<title>impact_functions:w&#45;&gt;risk_factors:e</title>
<path fill="none" stroke="black" d="M355.08,-443.03C337.58,-429.59 355.76,-385.23 327,-367.95 261.86,-328.81 229.56,-348.85 156,-367.95 136.55,-373 136.59,-389.95 116.5,-389.95"/>
<polygon fill="black" stroke="black" points="361.3,-444.78 368.02,-450.42 365.15,-445.87 369,-446.95 369,-446.95 369,-446.95 365.15,-445.87 369.98,-443.49 361.3,-444.78 361.3,-444.78"/>
<ellipse fill="none" stroke="black" cx="358.22" cy="-443.92" rx="3.2" ry="3.2"/>
</g>
<!-- hazard_metrics -->
<g id="node5" class="node">
<title>hazard_metrics</title>
<g id="a_node5"><a xlink:href="../../tables/hazard_metrics.html" xlink:title="hazard_metrics" target="_top">
<polygon fill="#ffffff" stroke="transparent" points="164,-378.95 164,-524.95 319,-524.95 319,-378.95 164,-378.95"/>
<polygon fill="#f5f5f5" stroke="transparent" points="164.5,-502.95 164.5,-524.95 319.5,-524.95 319.5,-502.95 164.5,-502.95"/>
<polygon fill="none" stroke="black" points="164.5,-502.95 164.5,-524.95 319.5,-524.95 319.5,-502.95 164.5,-502.95"/>
<text text-anchor="start" x="169.5" y="-512.15" font-family="Helvetica,sans-Serif" font-weight="bold" font-size="11.00">hazard_metrics</text>
<text text-anchor="start" x="284.5" y="-511.15" font-family="Helvetica,sans-Serif" font-size="11.00">[table]</text>
<polygon fill="none" stroke="black" points="164.5,-480.95 164.5,-502.95 319.5,-502.95 319.5,-480.95 164.5,-480.95"/>
<image xlink:href="../../images/primaryKeys.png" width="11px" height="12px" preserveAspectRatio="xMinYMin meet" x="169.5" y="-497.951"/>
<text text-anchor="start" x="184.5" y="-489.15" font-family="Helvetica,sans-Serif" font-size="11.00">id</text>
<polygon fill="#ffffff" stroke="transparent" points="164.5,-458.95 164.5,-480.95 319.5,-480.95 319.5,-458.95 164.5,-458.95"/>
<polygon fill="none" stroke="black" points="164.5,-458.95 164.5,-480.95 319.5,-480.95 319.5,-458.95 164.5,-458.95"/>
<text text-anchor="start" x="184.5" y="-467.15" font-family="Helvetica,sans-Serif" font-size="11.00">name</text>
<polygon fill="#ffffff" stroke="transparent" points="164.5,-436.95 164.5,-458.95 319.5,-458.95 319.5,-436.95 164.5,-436.95"/>
<polygon fill="none" stroke="black" points="164.5,-436.95 164.5,-458.95 319.5,-458.95 319.5,-436.95 164.5,-436.95"/>
<text text-anchor="start" x="184.5" y="-445.15" font-family="Helvetica,sans-Serif" font-size="11.00">name_etl</text>
<polygon fill="none" stroke="black" points="164.5,-414.95 164.5,-436.95 319.5,-436.95 319.5,-414.95 164.5,-414.95"/>
<image xlink:href="../../images/foreignKeys.png" width="11px" height="12px" preserveAspectRatio="xMinYMin meet" x="169.5" y="-431.951"/>
<text text-anchor="start" x="184.5" y="-423.15" font-family="Helvetica,sans-Serif" font-size="11.00">risk_factor_id</text>
<polygon fill="none" stroke="black" points="164.5,-396.95 164.5,-414.95 319.5,-414.95 319.5,-396.95 164.5,-396.95"/>
<text text-anchor="start" x="167.5" y="-403.15" font-family="Helvetica,sans-Serif" font-size="11.00">...</text>
<polygon fill="#ffffff" stroke="transparent" points="164.5,-378.95 164.5,-396.95 218.5,-396.95 218.5,-378.95 164.5,-378.95"/>
<polygon fill="none" stroke="black" points="164.5,-378.95 164.5,-396.95 218.5,-396.95 218.5,-378.95 164.5,-378.95"/>
<text text-anchor="start" x="167.5" y="-385.15" font-family="Helvetica,sans-Serif" font-size="11.00">&lt; 1</text>
<polygon fill="#ffffff" stroke="transparent" points="218.5,-378.95 218.5,-396.95 280.5,-396.95 280.5,-378.95 218.5,-378.95"/>
<polygon fill="none" stroke="black" points="218.5,-378.95 218.5,-396.95 280.5,-396.95 280.5,-378.95 218.5,-378.95"/>
<text text-anchor="start" x="237.5" y="-385.15" font-family="Helvetica,sans-Serif" font-size="11.00">15 rows</text>
<polygon fill="#ffffff" stroke="transparent" points="280.5,-378.95 280.5,-396.95 319.5,-396.95 319.5,-378.95 280.5,-378.95"/>
<polygon fill="none" stroke="black" points="280.5,-378.95 280.5,-396.95 319.5,-396.95 319.5,-378.95 280.5,-378.95"/>
<text text-anchor="start" x="300.5" y="-385.15" font-family="Helvetica,sans-Serif" font-size="11.00">3 &gt;</text>
</a>
</g>
</g>
<!-- impact_functions&#45;&gt;hazard_metrics -->
<g id="edge6" class="edge">
<title>impact_functions:w&#45;&gt;hazard_metrics:e</title>
<path fill="none" stroke="black" d="M354.71,-472.54C343.31,-479.01 338.39,-491.95 320.5,-491.95"/>
<polygon fill="black" stroke="black" points="361.24,-470.9 369.88,-472.44 365.12,-469.93 369,-468.95 369,-468.95 369,-468.95 365.12,-469.93 368.12,-465.46 361.24,-470.9 361.24,-470.9"/>
<ellipse fill="none" stroke="black" cx="358.14" cy="-471.68" rx="3.2" ry="3.2"/>
</g>
<!-- assets_impact_functions -->
<g id="node4" class="node">
<title>assets_impact_functions</title>
<g id="a_node4"><a xlink:href="../../tables/assets_impact_functions.html" xlink:title="assets_impact_functions" target="_top">
<polygon fill="#ffffff" stroke="transparent" points="659.5,-185.95 659.5,-331.95 834.5,-331.95 834.5,-185.95 659.5,-185.95"/>
<polygon fill="#f5f5f5" stroke="transparent" points="660,-309.95 660,-331.95 835,-331.95 835,-309.95 660,-309.95"/>
<polygon fill="none" stroke="black" points="660,-309.95 660,-331.95 835,-331.95 835,-309.95 660,-309.95"/>
<text text-anchor="start" x="665" y="-319.15" font-family="Helvetica,sans-Serif" font-weight="bold" font-size="11.00">assets_impact_functions</text>
<text text-anchor="start" x="800" y="-318.15" font-family="Helvetica,sans-Serif" font-size="11.00">[table]</text>
<polygon fill="none" stroke="black" points="660,-287.95 660,-309.95 835,-309.95 835,-287.95 660,-287.95"/>
<image xlink:href="../../images/primaryKeys.png" width="11px" height="12px" preserveAspectRatio="xMinYMin meet" x="665" y="-304.951"/>
<text text-anchor="start" x="686" y="-296.15" font-family="Helvetica,sans-Serif" font-size="11.00">id</text>
<polygon fill="#ffffff" stroke="transparent" points="660,-265.95 660,-287.95 835,-287.95 835,-265.95 660,-265.95"/>
<polygon fill="none" stroke="black" points="660,-265.95 660,-287.95 835,-287.95 835,-265.95 660,-265.95"/>
<image xlink:href="../../images/foreignKeys.png" width="11px" height="12px" preserveAspectRatio="xMinYMin meet" x="665" y="-282.951"/>
<text text-anchor="start" x="686" y="-274.15" font-family="Helvetica,sans-Serif" font-size="11.00">asset_id</text>
<polygon fill="none" stroke="black" points="660,-243.95 660,-265.95 835,-265.95 835,-243.95 660,-243.95"/>
<image xlink:href="../../images/foreignKeys.png" width="11px" height="12px" preserveAspectRatio="xMinYMin meet" x="665" y="-260.951"/>
<text text-anchor="start" x="686" y="-252.15" font-family="Helvetica,sans-Serif" font-size="11.00">impact_function_id</text>
<polygon fill="#ffffff" stroke="transparent" points="660,-221.95 660,-243.95 835,-243.95 835,-221.95 660,-221.95"/>
<polygon fill="none" stroke="black" points="660,-221.95 660,-243.95 835,-243.95 835,-221.95 660,-221.95"/>
<image xlink:href="../../images/foreignKeys.png" width="11px" height="12px" preserveAspectRatio="xMinYMin meet" x="665" y="-238.951"/>
<text text-anchor="start" x="686" y="-230.15" font-family="Helvetica,sans-Serif" font-size="11.00">risk_factor_id</text>
<polygon fill="none" stroke="black" points="660,-203.95 660,-221.95 835,-221.95 835,-203.95 660,-203.95"/>
<text text-anchor="start" x="663" y="-210.15" font-family="Helvetica,sans-Serif" font-size="11.00">...</text>
<polygon fill="#ffffff" stroke="transparent" points="660,-185.95 660,-203.95 715,-203.95 715,-185.95 660,-185.95"/>
<polygon fill="none" stroke="black" points="660,-185.95 660,-203.95 715,-203.95 715,-185.95 660,-185.95"/>
<text text-anchor="start" x="663" y="-192.15" font-family="Helvetica,sans-Serif" font-size="11.00">&lt; 3</text>
<polygon fill="#ffffff" stroke="transparent" points="715,-185.95 715,-203.95 805,-203.95 805,-185.95 715,-185.95"/>
<polygon fill="none" stroke="black" points="715,-185.95 715,-203.95 805,-203.95 805,-185.95 715,-185.95"/>
<text text-anchor="start" x="735" y="-192.15" font-family="Helvetica,sans-Serif" font-size="11.00">654,369 rows</text>
<polygon fill="#ffffff" stroke="transparent" points="805,-185.95 805,-203.95 835,-203.95 835,-185.95 805,-185.95"/>
<polygon fill="none" stroke="black" points="805,-185.95 805,-203.95 835,-203.95 835,-185.95 805,-185.95"/>
<text text-anchor="start" x="825" y="-192.15" font-family="Helvetica,sans-Serif" font-size="11.00"> &#160;</text>
</a>
</g>
</g>
<!-- assets_impact_functions&#45;&gt;impact_functions -->
<g id="edge3" class="edge">
<title>assets_impact_functions:w&#45;&gt;impact_functions:e</title>
<path fill="none" stroke="black" d="M645.66,-260.82C608.74,-299.23 648.76,-512.95 595,-512.95"/>
<polygon fill="black" stroke="black" points="651.68,-258.17 660.45,-258.25 655.34,-256.56 659,-254.95 659,-254.95 659,-254.95 655.34,-256.56 657.55,-251.66 651.68,-258.17 651.68,-258.17"/>
<ellipse fill="none" stroke="black" cx="648.75" cy="-259.46" rx="3.2" ry="3.2"/>
</g>
<!-- assets_impact_functions&#45;&gt;risk_factors -->
<g id="edge4" class="edge">
<title>assets_impact_functions:w&#45;&gt;risk_factors:e</title>
<path fill="none" stroke="black" d="M644.56,-231.03C596.01,-215.86 659.99,-114.75 604,-74.95 515.61,-12.13 457.35,-27.16 360,-74.95 355.04,-77.39 122.03,-389.95 116.5,-389.95"/>
<polygon fill="black" stroke="black" points="651.07,-231.9 658.53,-236.52 655.03,-232.42 659,-232.95 659,-232.95 659,-232.95 655.03,-232.42 659.47,-229.38 651.07,-231.9 651.07,-231.9"/>
<ellipse fill="none" stroke="black" cx="647.9" cy="-231.48" rx="3.2" ry="3.2"/>
</g>
<!-- hazard_metrics&#45;&gt;risk_factors -->
<g id="edge5" class="edge">
<title>hazard_metrics:w&#45;&gt;risk_factors:e</title>
<path fill="none" stroke="black" d="M149.79,-421.24C138.1,-411.49 136.85,-389.95 116.5,-389.95"/>
<polygon fill="black" stroke="black" points="155.93,-423.35 162.33,-429.36 159.72,-424.65 163.5,-425.95 163.5,-425.95 163.5,-425.95 159.72,-424.65 164.67,-422.55 155.93,-423.35 155.93,-423.35"/>
<ellipse fill="none" stroke="black" cx="152.91" cy="-422.31" rx="3.2" ry="3.2"/>
</g>
</g>
</svg>
