<?xml version="1.0" encoding="UTF-8" standalone="no"?>
<!DOCTYPE svg PUBLIC "-//W3C//DTD SVG 1.1//EN"
 "http://www.w3.org/Graphics/SVG/1.1/DTD/svg11.dtd">
<!-- Generated by graphviz version 2.50.0 (20211204.2007)
 -->
<!-- Title: twoDegreesRelationshipsDiagram Pages: 1 -->
<svg width="432pt" height="449pt"
 viewBox="0.00 0.00 432.00 449.00" xmlns="http://www.w3.org/2000/svg" xmlns:xlink="http://www.w3.org/1999/xlink">
<g id="graph0" class="graph" transform="scale(1 1) rotate(0) translate(4 445)">
<title>twoDegreesRelationshipsDiagram</title>
<polygon fill="#ffffff" stroke="transparent" points="-4,4 -4,-445 428,-445 428,4 -4,4"/>
<text text-anchor="middle" x="72.5" y="-7.2" font-family="Helvetica,sans-Serif" font-size="11.00">Generated by SchemaSpy</text>
<!-- risks -->
<g id="node1" class="node">
<title>risks</title>
<g id="a_node1"><a xlink:href="../../tables/risks.html" xlink:title="risks" target="_top">
<polygon fill="#ffffff" stroke="transparent" points="285,-232 285,-400 416,-400 416,-232 285,-232"/>
<polygon fill="#f5f5f5" stroke="transparent" points="285.5,-378 285.5,-400 416.5,-400 416.5,-378 285.5,-378"/>
<polygon fill="none" stroke="black" points="285.5,-378 285.5,-400 416.5,-400 416.5,-378 285.5,-378"/>
<text text-anchor="start" x="290.5" y="-387.2" font-family="Helvetica,sans-Serif" font-weight="bold" font-size="11.00">risks</text>
<text text-anchor="start" x="381.5" y="-386.2" font-family="Helvetica,sans-Serif" font-size="11.00">[table]</text>
<polygon fill="none" stroke="black" points="285.5,-356 285.5,-378 416.5,-378 416.5,-356 285.5,-356"/>
<image xlink:href="../../images/primaryKeys.png" width="11px" height="12px" preserveAspectRatio="xMinYMin meet" x="290.5" y="-373"/>
<text text-anchor="start" x="305.5" y="-364.2" font-family="Helvetica,sans-Serif" font-size="11.00">id</text>
<polygon fill="#ffffff" stroke="transparent" points="285.5,-334 285.5,-356 416.5,-356 416.5,-334 285.5,-334"/>
<polygon fill="none" stroke="black" points="285.5,-334 285.5,-356 416.5,-356 416.5,-334 285.5,-334"/>
<image xlink:href="../../images/foreignKeys.png" width="11px" height="12px" preserveAspectRatio="xMinYMin meet" x="290.5" y="-351"/>
<text text-anchor="start" x="305.5" y="-342.2" font-family="Helvetica,sans-Serif" font-size="11.00">location_id</text>
<polygon fill="#ffffff" stroke="transparent" points="285.5,-312 285.5,-334 416.5,-334 416.5,-312 285.5,-312"/>
<polygon fill="none" stroke="black" points="285.5,-312 285.5,-334 416.5,-334 416.5,-312 285.5,-312"/>
<image xlink:href="../../images/foreignKeys.png" width="11px" height="12px" preserveAspectRatio="xMinYMin meet" x="290.5" y="-329"/>
<text text-anchor="start" x="305.5" y="-320.2" font-family="Helvetica,sans-Serif" font-size="11.00">impact_pathway_id</text>
<polygon fill="#ffffff" stroke="transparent" points="285.5,-290 285.5,-312 416.5,-312 416.5,-290 285.5,-290"/>
<polygon fill="none" stroke="black" points="285.5,-290 285.5,-312 416.5,-312 416.5,-290 285.5,-290"/>
<image xlink:href="../../images/foreignKeys.png" width="11px" height="12px" preserveAspectRatio="xMinYMin meet" x="290.5" y="-307"/>
<text text-anchor="start" x="305.5" y="-298.2" font-family="Helvetica,sans-Serif" font-size="11.00">scenario_id</text>
<polygon fill="#ffffff" stroke="transparent" points="285.5,-268 285.5,-290 416.5,-290 416.5,-268 285.5,-268"/>
<polygon fill="none" stroke="black" points="285.5,-268 285.5,-290 416.5,-290 416.5,-268 285.5,-268"/>
<text text-anchor="start" x="305.5" y="-276.2" font-family="Helvetica,sans-Serif" font-size="11.00">yr</text>
<polygon fill="none" stroke="black" points="285.5,-250 285.5,-268 416.5,-268 416.5,-250 285.5,-250"/>
<text text-anchor="start" x="288.5" y="-256.2" font-family="Helvetica,sans-Serif" font-size="11.00">...</text>
<polygon fill="#ffffff" stroke="transparent" points="285.5,-232 285.5,-250 311.5,-250 311.5,-232 285.5,-232"/>
<polygon fill="none" stroke="black" points="285.5,-232 285.5,-250 311.5,-250 311.5,-232 285.5,-232"/>
<text text-anchor="start" x="288.5" y="-238.2" font-family="Helvetica,sans-Serif" font-size="11.00">&lt; 3</text>
<polygon fill="#ffffff" stroke="transparent" points="311.5,-232 311.5,-250 401.5,-250 401.5,-232 311.5,-232"/>
<polygon fill="none" stroke="black" points="311.5,-232 311.5,-250 401.5,-250 401.5,-232 311.5,-232"/>
<text text-anchor="start" x="316.5" y="-238.2" font-family="Helvetica,sans-Serif" font-size="11.00">28,657,312 rows</text>
<polygon fill="#ffffff" stroke="transparent" points="401.5,-232 401.5,-250 416.5,-250 416.5,-232 401.5,-232"/>
<polygon fill="none" stroke="black" points="401.5,-232 401.5,-250 416.5,-250 416.5,-232 401.5,-232"/>
<text text-anchor="start" x="406.5" y="-238.2" font-family="Helvetica,sans-Serif" font-size="11.00"> &#160;</text>
</a>
</g>
</g>
<!-- impact_pathways -->
<g id="node2" class="node">
<title>impact_pathways</title>
<g id="a_node2"><a xlink:href="../../tables/impact_pathways.html" xlink:title="impact_pathways" target="_top">
<polygon fill="#ffffff" stroke="transparent" points="8,-116 8,-358 236,-358 236,-116 8,-116"/>
<polygon fill="#f5f5f5" stroke="transparent" points="10,-334 10,-356 234,-356 234,-334 10,-334"/>
<polygon fill="none" stroke="black" points="10,-334 10,-356 234,-356 234,-334 10,-334"/>
<text text-anchor="start" x="15" y="-343.2" font-family="Helvetica,sans-Serif" font-weight="bold" font-size="11.00">impact_pathways</text>
<text text-anchor="start" x="199" y="-342.2" font-family="Helvetica,sans-Serif" font-size="11.00">[table]</text>
<polygon fill="none" stroke="black" points="10,-312 10,-334 149,-334 149,-312 10,-312"/>
<image xlink:href="../../images/primaryKeys.png" width="11px" height="12px" preserveAspectRatio="xMinYMin meet" x="15" y="-329"/>
<text text-anchor="start" x="30" y="-320.2" font-family="Helvetica,sans-Serif" font-size="11.00">id</text>
<polygon fill="none" stroke="black" points="149,-312 149,-334 234,-334 234,-312 149,-312"/>
<text text-anchor="start" x="152" y="-320.2" font-family="Helvetica,sans-Serif" font-size="11.00">serial[10]</text>
<polygon fill="#ffffff" stroke="transparent" points="10,-290 10,-312 149,-312 149,-290 10,-290"/>
<polygon fill="none" stroke="black" points="10,-290 10,-312 149,-312 149,-290 10,-290"/>
<text text-anchor="start" x="30" y="-298.2" font-family="Helvetica,sans-Serif" font-size="11.00">name</text>
<polygon fill="none" stroke="black" points="149,-290 149,-312 234,-312 234,-290 149,-290"/>
<text text-anchor="start" x="152" y="-298.2" font-family="Helvetica,sans-Serif" font-size="11.00">varchar[128]</text>
<polygon fill="#ffffff" stroke="transparent" points="10,-268 10,-290 149,-290 149,-268 10,-268"/>
<polygon fill="none" stroke="black" points="10,-268 10,-290 149,-290 149,-268 10,-268"/>
<text text-anchor="start" x="30" y="-276.2" font-family="Helvetica,sans-Serif" font-size="11.00">impact_function_id</text>
<polygon fill="none" stroke="black" points="149,-268 149,-290 234,-290 234,-268 149,-268"/>
<text text-anchor="start" x="152" y="-276.2" font-family="Helvetica,sans-Serif" font-size="11.00">int4[10]</text>
<polygon fill="none" stroke="black" points="10,-246 10,-268 149,-268 149,-246 10,-246"/>
<text text-anchor="start" x="30" y="-254.2" font-family="Helvetica,sans-Serif" font-size="11.00">list_xvalues</text>
<polygon fill="none" stroke="black" points="149,-246 149,-268 234,-268 234,-246 149,-246"/>
<text text-anchor="start" x="152" y="-254.2" font-family="Helvetica,sans-Serif" font-size="11.00">varchar[128]</text>
<polygon fill="none" stroke="black" points="10,-224 10,-246 149,-246 149,-224 10,-224"/>
<text text-anchor="start" x="30" y="-232.2" font-family="Helvetica,sans-Serif" font-size="11.00">list_yvalues</text>
<polygon fill="none" stroke="black" points="149,-224 149,-246 234,-246 234,-224 149,-224"/>
<text text-anchor="start" x="152" y="-232.2" font-family="Helvetica,sans-Serif" font-size="11.00">varchar[128]</text>
<polygon fill="none" stroke="black" points="10,-202 10,-224 149,-224 149,-202 10,-202"/>
<text text-anchor="start" x="30" y="-210.2" font-family="Helvetica,sans-Serif" font-size="11.00">proc_flag_risks_calc</text>
<polygon fill="none" stroke="black" points="149,-202 149,-224 234,-224 234,-202 149,-202"/>
<text text-anchor="start" x="152" y="-210.2" font-family="Helvetica,sans-Serif" font-size="11.00">int4[10]</text>
<polygon fill="none" stroke="black" points="10,-180 10,-202 149,-202 149,-180 10,-180"/>
<text text-anchor="start" x="30" y="-188.2" font-family="Helvetica,sans-Serif" font-size="11.00">notes</text>
<polygon fill="none" stroke="black" points="149,-180 149,-202 234,-202 234,-180 149,-180"/>
<text text-anchor="start" x="152" y="-188.2" font-family="Helvetica,sans-Serif" font-size="11.00">varchar[256]</text>
<polygon fill="none" stroke="black" points="10,-158 10,-180 149,-180 149,-158 10,-158"/>
<text text-anchor="start" x="30" y="-166.2" font-family="Helvetica,sans-Serif" font-size="11.00">created_at</text>
<polygon fill="none" stroke="black" points="149,-158 149,-180 234,-180 234,-158 149,-158"/>
<text text-anchor="start" x="152" y="-166.2" font-family="Helvetica,sans-Serif" font-size="11.00">timestamp[29,6]</text>
<polygon fill="none" stroke="black" points="10,-136 10,-158 149,-158 149,-136 10,-136"/>
<text text-anchor="start" x="30" y="-144.2" font-family="Helvetica,sans-Serif" font-size="11.00">updated_at</text>
<polygon fill="none" stroke="black" points="149,-136 149,-158 234,-158 234,-136 149,-136"/>
<text text-anchor="start" x="152" y="-144.2" font-family="Helvetica,sans-Serif" font-size="11.00">timestamp[29,6]</text>
<polygon fill="#ffffff" stroke="transparent" points="10,-118 10,-136 60,-136 60,-118 10,-118"/>
<polygon fill="none" stroke="black" points="10,-118 10,-136 60,-136 60,-118 10,-118"/>
<text text-anchor="start" x="13" y="-124.2" font-family="Helvetica,sans-Serif" font-size="11.00">&lt; 0</text>
<polygon fill="#ffffff" stroke="transparent" points="60,-118 60,-136 149,-136 149,-118 60,-118"/>
<polygon fill="none" stroke="black" points="60,-118 60,-136 149,-136 149,-118 60,-118"/>
<text text-anchor="start" x="91" y="-124.2" font-family="Helvetica,sans-Serif" font-size="11.00">5,279 rows</text>
<polygon fill="#ffffff" stroke="transparent" points="149,-118 149,-136 234,-136 234,-118 149,-118"/>
<polygon fill="none" stroke="black" points="149,-118 149,-136 234,-136 234,-118 149,-118"/>
<text text-anchor="start" x="215" y="-124.2" font-family="Helvetica,sans-Serif" font-size="11.00">1 &gt;</text>
<polygon fill="none" stroke="black" stroke-width="2" points="9,-117 9,-357 235,-357 235,-117 9,-117"/>
</a>
</g>
</g>
<!-- risks&#45;&gt;impact_pathways -->
<g id="edge1" class="edge">
<title>risks:w&#45;&gt;impact_pathways:e</title>
<path fill="none" stroke="black" d="M269.84,-323C258.41,-323 251.16,-323 235,-323"/>
<polygon fill="black" stroke="black" points="276.5,-323 284.5,-326.6 280.5,-323 284.5,-323 284.5,-323 284.5,-323 280.5,-323 284.5,-319.4 276.5,-323 276.5,-323"/>
<ellipse fill="none" stroke="black" cx="273.3" cy="-323" rx="3.2" ry="3.2"/>
</g>
<!-- locations -->
<g id="node3" class="node">
<title>locations</title>
<g id="a_node3"><a xlink:href="../../tables/locations.html" xlink:title="locations" target="_top">
<polygon fill="#ffffff" stroke="transparent" points="66.5,-379 66.5,-437 177.5,-437 177.5,-379 66.5,-379"/>
<polygon fill="#f5f5f5" stroke="transparent" points="67,-415 67,-437 178,-437 178,-415 67,-415"/>
<polygon fill="none" stroke="black" points="67,-415 67,-437 178,-437 178,-415 67,-415"/>
<text text-anchor="start" x="72" y="-424.2" font-family="Helvetica,sans-Serif" font-weight="bold" font-size="11.00">locations</text>
<text text-anchor="start" x="143" y="-423.2" font-family="Helvetica,sans-Serif" font-size="11.00">[table]</text>
<polygon fill="none" stroke="black" points="67,-397 67,-415 178,-415 178,-397 67,-397"/>
<text text-anchor="start" x="70" y="-403.2" font-family="Helvetica,sans-Serif" font-size="11.00">...</text>
<polygon fill="#ffffff" stroke="transparent" points="67,-379 67,-397 89,-397 89,-379 67,-379"/>
<polygon fill="none" stroke="black" points="67,-379 67,-397 89,-397 89,-379 67,-379"/>
<text text-anchor="start" x="70" y="-385.2" font-family="Helvetica,sans-Serif" font-size="11.00">&lt; 2</text>
<polygon fill="#ffffff" stroke="transparent" points="89,-379 89,-397 156,-397 156,-379 89,-379"/>
<polygon fill="none" stroke="black" points="89,-379 89,-397 156,-397 156,-379 89,-379"/>
<text text-anchor="start" x="92" y="-385.2" font-family="Helvetica,sans-Serif" font-size="11.00">81,629 rows</text>
<polygon fill="#ffffff" stroke="transparent" points="156,-379 156,-397 178,-397 178,-379 156,-379"/>
<polygon fill="none" stroke="black" points="156,-379 156,-397 178,-397 178,-379 156,-379"/>
<text text-anchor="start" x="159" y="-385.2" font-family="Helvetica,sans-Serif" font-size="11.00">3 &gt;</text>
</a>
</g>
</g>
<!-- risks&#45;&gt;locations -->
<g id="edge2" class="edge">
<title>risks:w&#45;&gt;locations:e</title>
<path fill="none" stroke="black" d="M270.36,-347.98C261.33,-352.55 256.86,-361.53 244,-369 215.26,-385.7 212.24,-406 179,-406"/>
<polygon fill="black" stroke="black" points="276.67,-346.65 285.24,-348.52 280.59,-345.83 284.5,-345 284.5,-345 284.5,-345 280.59,-345.83 283.76,-341.48 276.67,-346.65 276.67,-346.65"/>
<ellipse fill="none" stroke="black" cx="273.54" cy="-347.31" rx="3.2" ry="3.2"/>
</g>
<!-- scenarios -->
<g id="node4" class="node">
<title>scenarios</title>
<g id="a_node4"><a xlink:href="../../tables/scenarios.html" xlink:title="scenarios" target="_top">
<polygon fill="#ffffff" stroke="transparent" points="74,-37 74,-95 170,-95 170,-37 74,-37"/>
<polygon fill="#f5f5f5" stroke="transparent" points="74,-73 74,-95 170,-95 170,-73 74,-73"/>
<polygon fill="none" stroke="black" points="74,-73 74,-95 170,-95 170,-73 74,-73"/>
<text text-anchor="start" x="79" y="-82.2" font-family="Helvetica,sans-Serif" font-weight="bold" font-size="11.00">scenarios</text>
<text text-anchor="start" x="135" y="-81.2" font-family="Helvetica,sans-Serif" font-size="11.00">[table]</text>
<polygon fill="none" stroke="black" points="74,-55 74,-73 170,-73 170,-55 74,-55"/>
<text text-anchor="start" x="77" y="-61.2" font-family="Helvetica,sans-Serif" font-size="11.00">...</text>
<polygon fill="#ffffff" stroke="transparent" points="74,-37 74,-55 97,-55 97,-37 74,-37"/>
<polygon fill="none" stroke="black" points="74,-37 74,-55 97,-55 97,-37 74,-37"/>
<text text-anchor="start" x="77" y="-43.2" font-family="Helvetica,sans-Serif" font-size="11.00"> &#160;</text>
<polygon fill="#ffffff" stroke="transparent" points="97,-37 97,-55 142,-55 142,-37 97,-37"/>
<polygon fill="none" stroke="black" points="97,-37 97,-55 142,-55 142,-37 97,-37"/>
<text text-anchor="start" x="105" y="-43.2" font-family="Helvetica,sans-Serif" font-size="11.00">4 rows</text>
<polygon fill="#ffffff" stroke="transparent" points="142,-37 142,-55 170,-55 170,-37 142,-37"/>
<polygon fill="none" stroke="black" points="142,-37 142,-55 170,-55 170,-37 142,-37"/>
<text text-anchor="start" x="151" y="-43.2" font-family="Helvetica,sans-Serif" font-size="11.00">4 &gt;</text>
</a>
</g>
</g>
<!-- risks&#45;&gt;scenarios -->
<g id="edge3" class="edge">
<title>risks:w&#45;&gt;scenarios:e</title>
<path fill="none" stroke="black" d="M270.03,-299.6C207.88,-285.79 292.67,-173.21 244,-106 222.05,-75.68 208.43,-64 171,-64"/>
<polygon fill="black" stroke="black" points="276.54,-300.23 284.15,-304.58 280.52,-300.61 284.5,-301 284.5,-301 284.5,-301 280.52,-300.61 284.85,-297.42 276.54,-300.23 276.54,-300.23"/>
<ellipse fill="none" stroke="black" cx="273.35" cy="-299.92" rx="3.2" ry="3.2"/>
</g>
</g>
</svg>
