<?xml version="1.0" encoding="UTF-8" standalone="no"?>
<!DOCTYPE svg PUBLIC "-//W3C//DTD SVG 1.1//EN"
 "http://www.w3.org/Graphics/SVG/1.1/DTD/svg11.dtd">
<!-- Generated by graphviz version 2.50.0 (20211204.2007)
 -->
<!-- Title: oneDegreeRelationshipsDiagram Pages: 1 -->
<svg width="432pt" height="333pt"
 viewBox="0.00 0.00 432.00 333.00" xmlns="http://www.w3.org/2000/svg" xmlns:xlink="http://www.w3.org/1999/xlink">
<g id="graph0" class="graph" transform="scale(1 1) rotate(0) translate(4 329)">
<title>oneDegreeRelationshipsDiagram</title>
<polygon fill="#ffffff" stroke="transparent" points="-4,4 -4,-329 428,-329 428,4 -4,4"/>
<text text-anchor="middle" x="72.5" y="-7.2" font-family="Helvetica,sans-Serif" font-size="11.00">Generated by SchemaSpy</text>
<!-- risks -->
<g id="node1" class="node">
<title>risks</title>
<g id="a_node1"><a xlink:href="../../tables/risks.html" xlink:title="risks" target="_top">
<polygon fill="#ffffff" stroke="transparent" points="285,-153 285,-321 416,-321 416,-153 285,-153"/>
<polygon fill="#f5f5f5" stroke="transparent" points="285.5,-299 285.5,-321 416.5,-321 416.5,-299 285.5,-299"/>
<polygon fill="none" stroke="black" points="285.5,-299 285.5,-321 416.5,-321 416.5,-299 285.5,-299"/>
<text text-anchor="start" x="290.5" y="-308.2" font-family="Helvetica,sans-Serif" font-weight="bold" font-size="11.00">risks</text>
<text text-anchor="start" x="381.5" y="-307.2" font-family="Helvetica,sans-Serif" font-size="11.00">[table]</text>
<polygon fill="none" stroke="black" points="285.5,-277 285.5,-299 416.5,-299 416.5,-277 285.5,-277"/>
<image xlink:href="../../images/primaryKeys.png" width="11px" height="12px" preserveAspectRatio="xMinYMin meet" x="290.5" y="-294"/>
<text text-anchor="start" x="305.5" y="-285.2" font-family="Helvetica,sans-Serif" font-size="11.00">id</text>
<polygon fill="#ffffff" stroke="transparent" points="285.5,-255 285.5,-277 416.5,-277 416.5,-255 285.5,-255"/>
<polygon fill="none" stroke="black" points="285.5,-255 285.5,-277 416.5,-277 416.5,-255 285.5,-255"/>
<image xlink:href="../../images/foreignKeys.png" width="11px" height="12px" preserveAspectRatio="xMinYMin meet" x="290.5" y="-272"/>
<text text-anchor="start" x="305.5" y="-263.2" font-family="Helvetica,sans-Serif" font-size="11.00">location_id</text>
<polygon fill="#ffffff" stroke="transparent" points="285.5,-233 285.5,-255 416.5,-255 416.5,-233 285.5,-233"/>
<polygon fill="none" stroke="black" points="285.5,-233 285.5,-255 416.5,-255 416.5,-233 285.5,-233"/>
<image xlink:href="../../images/foreignKeys.png" width="11px" height="12px" preserveAspectRatio="xMinYMin meet" x="290.5" y="-250"/>
<text text-anchor="start" x="305.5" y="-241.2" font-family="Helvetica,sans-Serif" font-size="11.00">impact_pathway_id</text>
<polygon fill="#ffffff" stroke="transparent" points="285.5,-211 285.5,-233 416.5,-233 416.5,-211 285.5,-211"/>
<polygon fill="none" stroke="black" points="285.5,-211 285.5,-233 416.5,-233 416.5,-211 285.5,-211"/>
<image xlink:href="../../images/foreignKeys.png" width="11px" height="12px" preserveAspectRatio="xMinYMin meet" x="290.5" y="-228"/>
<text text-anchor="start" x="305.5" y="-219.2" font-family="Helvetica,sans-Serif" font-size="11.00">scenario_id</text>
<polygon fill="#ffffff" stroke="transparent" points="285.5,-189 285.5,-211 416.5,-211 416.5,-189 285.5,-189"/>
<polygon fill="none" stroke="black" points="285.5,-189 285.5,-211 416.5,-211 416.5,-189 285.5,-189"/>
<text text-anchor="start" x="305.5" y="-197.2" font-family="Helvetica,sans-Serif" font-size="11.00">yr</text>
<polygon fill="none" stroke="black" points="285.5,-171 285.5,-189 416.5,-189 416.5,-171 285.5,-171"/>
<text text-anchor="start" x="288.5" y="-177.2" font-family="Helvetica,sans-Serif" font-size="11.00">...</text>
<polygon fill="#ffffff" stroke="transparent" points="285.5,-153 285.5,-171 311.5,-171 311.5,-153 285.5,-153"/>
<polygon fill="none" stroke="black" points="285.5,-153 285.5,-171 311.5,-171 311.5,-153 285.5,-153"/>
<text text-anchor="start" x="288.5" y="-159.2" font-family="Helvetica,sans-Serif" font-size="11.00">&lt; 3</text>
<polygon fill="#ffffff" stroke="transparent" points="311.5,-153 311.5,-171 401.5,-171 401.5,-153 311.5,-153"/>
<polygon fill="none" stroke="black" points="311.5,-153 311.5,-171 401.5,-171 401.5,-153 311.5,-153"/>
<text text-anchor="start" x="316.5" y="-159.2" font-family="Helvetica,sans-Serif" font-size="11.00">28,657,312 rows</text>
<polygon fill="#ffffff" stroke="transparent" points="401.5,-153 401.5,-171 416.5,-171 416.5,-153 401.5,-153"/>
<polygon fill="none" stroke="black" points="401.5,-153 401.5,-171 416.5,-171 416.5,-153 401.5,-153"/>
<text text-anchor="start" x="406.5" y="-159.2" font-family="Helvetica,sans-Serif" font-size="11.00"> &#160;</text>
</a>
</g>
</g>
<!-- impact_pathways -->
<g id="node2" class="node">
<title>impact_pathways</title>
<g id="a_node2"><a xlink:href="../../tables/impact_pathways.html" xlink:title="impact_pathways" target="_top">
<polygon fill="#ffffff" stroke="transparent" points="8,-37 8,-279 236,-279 236,-37 8,-37"/>
<polygon fill="#f5f5f5" stroke="transparent" points="10,-255 10,-277 234,-277 234,-255 10,-255"/>
<polygon fill="none" stroke="black" points="10,-255 10,-277 234,-277 234,-255 10,-255"/>
<text text-anchor="start" x="15" y="-264.2" font-family="Helvetica,sans-Serif" font-weight="bold" font-size="11.00">impact_pathways</text>
<text text-anchor="start" x="199" y="-263.2" font-family="Helvetica,sans-Serif" font-size="11.00">[table]</text>
<polygon fill="none" stroke="black" points="10,-233 10,-255 149,-255 149,-233 10,-233"/>
<image xlink:href="../../images/primaryKeys.png" width="11px" height="12px" preserveAspectRatio="xMinYMin meet" x="15" y="-250"/>
<text text-anchor="start" x="30" y="-241.2" font-family="Helvetica,sans-Serif" font-size="11.00">id</text>
<polygon fill="none" stroke="black" points="149,-233 149,-255 234,-255 234,-233 149,-233"/>
<text text-anchor="start" x="152" y="-241.2" font-family="Helvetica,sans-Serif" font-size="11.00">serial[10]</text>
<polygon fill="#ffffff" stroke="transparent" points="10,-211 10,-233 149,-233 149,-211 10,-211"/>
<polygon fill="none" stroke="black" points="10,-211 10,-233 149,-233 149,-211 10,-211"/>
<text text-anchor="start" x="30" y="-219.2" font-family="Helvetica,sans-Serif" font-size="11.00">name</text>
<polygon fill="none" stroke="black" points="149,-211 149,-233 234,-233 234,-211 149,-211"/>
<text text-anchor="start" x="152" y="-219.2" font-family="Helvetica,sans-Serif" font-size="11.00">varchar[128]</text>
<polygon fill="#ffffff" stroke="transparent" points="10,-189 10,-211 149,-211 149,-189 10,-189"/>
<polygon fill="none" stroke="black" points="10,-189 10,-211 149,-211 149,-189 10,-189"/>
<text text-anchor="start" x="30" y="-197.2" font-family="Helvetica,sans-Serif" font-size="11.00">impact_function_id</text>
<polygon fill="none" stroke="black" points="149,-189 149,-211 234,-211 234,-189 149,-189"/>
<text text-anchor="start" x="152" y="-197.2" font-family="Helvetica,sans-Serif" font-size="11.00">int4[10]</text>
<polygon fill="none" stroke="black" points="10,-167 10,-189 149,-189 149,-167 10,-167"/>
<text text-anchor="start" x="30" y="-175.2" font-family="Helvetica,sans-Serif" font-size="11.00">list_xvalues</text>
<polygon fill="none" stroke="black" points="149,-167 149,-189 234,-189 234,-167 149,-167"/>
<text text-anchor="start" x="152" y="-175.2" font-family="Helvetica,sans-Serif" font-size="11.00">varchar[128]</text>
<polygon fill="none" stroke="black" points="10,-145 10,-167 149,-167 149,-145 10,-145"/>
<text text-anchor="start" x="30" y="-153.2" font-family="Helvetica,sans-Serif" font-size="11.00">list_yvalues</text>
<polygon fill="none" stroke="black" points="149,-145 149,-167 234,-167 234,-145 149,-145"/>
<text text-anchor="start" x="152" y="-153.2" font-family="Helvetica,sans-Serif" font-size="11.00">varchar[128]</text>
<polygon fill="none" stroke="black" points="10,-123 10,-145 149,-145 149,-123 10,-123"/>
<text text-anchor="start" x="30" y="-131.2" font-family="Helvetica,sans-Serif" font-size="11.00">proc_flag_risks_calc</text>
<polygon fill="none" stroke="black" points="149,-123 149,-145 234,-145 234,-123 149,-123"/>
<text text-anchor="start" x="152" y="-131.2" font-family="Helvetica,sans-Serif" font-size="11.00">int4[10]</text>
<polygon fill="none" stroke="black" points="10,-101 10,-123 149,-123 149,-101 10,-101"/>
<text text-anchor="start" x="30" y="-109.2" font-family="Helvetica,sans-Serif" font-size="11.00">notes</text>
<polygon fill="none" stroke="black" points="149,-101 149,-123 234,-123 234,-101 149,-101"/>
<text text-anchor="start" x="152" y="-109.2" font-family="Helvetica,sans-Serif" font-size="11.00">varchar[256]</text>
<polygon fill="none" stroke="black" points="10,-79 10,-101 149,-101 149,-79 10,-79"/>
<text text-anchor="start" x="30" y="-87.2" font-family="Helvetica,sans-Serif" font-size="11.00">created_at</text>
<polygon fill="none" stroke="black" points="149,-79 149,-101 234,-101 234,-79 149,-79"/>
<text text-anchor="start" x="152" y="-87.2" font-family="Helvetica,sans-Serif" font-size="11.00">timestamp[29,6]</text>
<polygon fill="none" stroke="black" points="10,-57 10,-79 149,-79 149,-57 10,-57"/>
<text text-anchor="start" x="30" y="-65.2" font-family="Helvetica,sans-Serif" font-size="11.00">updated_at</text>
<polygon fill="none" stroke="black" points="149,-57 149,-79 234,-79 234,-57 149,-57"/>
<text text-anchor="start" x="152" y="-65.2" font-family="Helvetica,sans-Serif" font-size="11.00">timestamp[29,6]</text>
<polygon fill="#ffffff" stroke="transparent" points="10,-39 10,-57 60,-57 60,-39 10,-39"/>
<polygon fill="none" stroke="black" points="10,-39 10,-57 60,-57 60,-39 10,-39"/>
<text text-anchor="start" x="13" y="-45.2" font-family="Helvetica,sans-Serif" font-size="11.00">&lt; 0</text>
<polygon fill="#ffffff" stroke="transparent" points="60,-39 60,-57 149,-57 149,-39 60,-39"/>
<polygon fill="none" stroke="black" points="60,-39 60,-57 149,-57 149,-39 60,-39"/>
<text text-anchor="start" x="91" y="-45.2" font-family="Helvetica,sans-Serif" font-size="11.00">5,279 rows</text>
<polygon fill="#ffffff" stroke="transparent" points="149,-39 149,-57 234,-57 234,-39 149,-39"/>
<polygon fill="none" stroke="black" points="149,-39 149,-57 234,-57 234,-39 149,-39"/>
<text text-anchor="start" x="215" y="-45.2" font-family="Helvetica,sans-Serif" font-size="11.00">1 &gt;</text>
<polygon fill="none" stroke="black" stroke-width="2" points="9,-38 9,-278 235,-278 235,-38 9,-38"/>
</a>
</g>
</g>
<!-- risks&#45;&gt;impact_pathways -->
<g id="edge1" class="edge">
<title>risks:w&#45;&gt;impact_pathways:e</title>
<path fill="none" stroke="black" d="M269.84,-244C258.41,-244 251.16,-244 235,-244"/>
<polygon fill="black" stroke="black" points="276.5,-244 284.5,-247.6 280.5,-244 284.5,-244 284.5,-244 284.5,-244 280.5,-244 284.5,-240.4 276.5,-244 276.5,-244"/>
<ellipse fill="none" stroke="black" cx="273.3" cy="-244" rx="3.2" ry="3.2"/>
</g>
</g>
</svg>
