<?xml version="1.0" encoding="UTF-8" standalone="no"?>
<!DOCTYPE svg PUBLIC "-//W3C//DTD SVG 1.1//EN"
 "http://www.w3.org/Graphics/SVG/1.1/DTD/svg11.dtd">
<!-- Generated by graphviz version 2.50.0 (20211204.2007)
 -->
<!-- Title: twoDegreesRelationshipsDiagram Pages: 1 -->
<svg width="810pt" height="695pt"
 viewBox="0.00 0.00 810.00 695.00" xmlns="http://www.w3.org/2000/svg" xmlns:xlink="http://www.w3.org/1999/xlink">
<g id="graph0" class="graph" transform="scale(1 1) rotate(0) translate(4 691)">
<title>twoDegreesRelationshipsDiagram</title>
<polygon fill="#ffffff" stroke="transparent" points="-4,4 -4,-691 806,-691 806,4 -4,4"/>
<text text-anchor="middle" x="72.5" y="-7.2" font-family="Helvetica,sans-Serif" font-size="11.00">Generated by SchemaSpy</text>
<!-- asset_values -->
<g id="node1" class="node">
<title>asset_values</title>
<g id="a_node1"><a xlink:href="../../tables/asset_values.html" xlink:title="asset_values" target="_top">
<polygon fill="#ffffff" stroke="transparent" points="649.5,-388 649.5,-446 763.5,-446 763.5,-388 649.5,-388"/>
<polygon fill="#f5f5f5" stroke="transparent" points="649.5,-424 649.5,-446 763.5,-446 763.5,-424 649.5,-424"/>
<polygon fill="none" stroke="black" points="649.5,-424 649.5,-446 763.5,-446 763.5,-424 649.5,-424"/>
<text text-anchor="start" x="654.5" y="-433.2" font-family="Helvetica,sans-Serif" font-weight="bold" font-size="11.00">asset_values</text>
<text text-anchor="start" x="728.5" y="-432.2" font-family="Helvetica,sans-Serif" font-size="11.00">[table]</text>
<polygon fill="none" stroke="black" points="649.5,-406 649.5,-424 763.5,-424 763.5,-406 649.5,-406"/>
<text text-anchor="start" x="652.5" y="-412.2" font-family="Helvetica,sans-Serif" font-size="11.00">...</text>
<polygon fill="#ffffff" stroke="transparent" points="649.5,-388 649.5,-406 690.5,-406 690.5,-388 649.5,-388"/>
<polygon fill="none" stroke="black" points="649.5,-388 649.5,-406 690.5,-406 690.5,-388 649.5,-388"/>
<text text-anchor="start" x="652.5" y="-394.2" font-family="Helvetica,sans-Serif" font-size="11.00">&lt; 2</text>
<polygon fill="#ffffff" stroke="transparent" points="690.5,-388 690.5,-406 740.5,-406 740.5,-388 690.5,-388"/>
<polygon fill="none" stroke="black" points="690.5,-388 690.5,-406 740.5,-406 740.5,-388 690.5,-388"/>
<text text-anchor="start" x="703.5" y="-394.2" font-family="Helvetica,sans-Serif" font-size="11.00">8 rows</text>
<polygon fill="#ffffff" stroke="transparent" points="740.5,-388 740.5,-406 763.5,-406 763.5,-388 740.5,-388"/>
<polygon fill="none" stroke="black" points="740.5,-388 740.5,-406 763.5,-406 763.5,-388 740.5,-388"/>
<text text-anchor="start" x="753.5" y="-394.2" font-family="Helvetica,sans-Serif" font-size="11.00"> &#160;</text>
</a>
</g>
</g>
<!-- assets -->
<g id="node2" class="node">
<title>assets</title>
<g id="a_node2"><a xlink:href="../../tables/assets.html" xlink:title="assets" target="_top">
<polygon fill="#ffffff" stroke="transparent" points="431,-438 431,-606 556,-606 556,-438 431,-438"/>
<polygon fill="#f5f5f5" stroke="transparent" points="431.5,-584 431.5,-606 556.5,-606 556.5,-584 431.5,-584"/>
<polygon fill="none" stroke="black" points="431.5,-584 431.5,-606 556.5,-606 556.5,-584 431.5,-584"/>
<text text-anchor="start" x="436.5" y="-593.2" font-family="Helvetica,sans-Serif" font-weight="bold" font-size="11.00">assets</text>
<text text-anchor="start" x="521.5" y="-592.2" font-family="Helvetica,sans-Serif" font-size="11.00">[table]</text>
<polygon fill="none" stroke="black" points="431.5,-562 431.5,-584 556.5,-584 556.5,-562 431.5,-562"/>
<image xlink:href="../../images/primaryKeys.png" width="11px" height="12px" preserveAspectRatio="xMinYMin meet" x="436.5" y="-579"/>
<text text-anchor="start" x="451.5" y="-570.2" font-family="Helvetica,sans-Serif" font-size="11.00">id</text>
<polygon fill="none" stroke="black" points="431.5,-540 431.5,-562 556.5,-562 556.5,-540 431.5,-540"/>
<image xlink:href="../../images/foreignKeys.png" width="11px" height="12px" preserveAspectRatio="xMinYMin meet" x="436.5" y="-557"/>
<text text-anchor="start" x="451.5" y="-548.2" font-family="Helvetica,sans-Serif" font-size="11.00">investment_id</text>
<polygon fill="none" stroke="black" points="431.5,-518 431.5,-540 556.5,-540 556.5,-518 431.5,-518"/>
<image xlink:href="../../images/foreignKeys.png" width="11px" height="12px" preserveAspectRatio="xMinYMin meet" x="436.5" y="-535"/>
<text text-anchor="start" x="451.5" y="-526.2" font-family="Helvetica,sans-Serif" font-size="11.00">asset_type_id</text>
<polygon fill="#ffffff" stroke="transparent" points="431.5,-496 431.5,-518 556.5,-518 556.5,-496 431.5,-496"/>
<polygon fill="none" stroke="black" points="431.5,-496 431.5,-518 556.5,-518 556.5,-496 431.5,-496"/>
<text text-anchor="start" x="451.5" y="-504.2" font-family="Helvetica,sans-Serif" font-size="11.00">is_active</text>
<polygon fill="#ffffff" stroke="transparent" points="431.5,-474 431.5,-496 556.5,-496 556.5,-474 431.5,-474"/>
<polygon fill="none" stroke="black" points="431.5,-474 431.5,-496 556.5,-496 556.5,-474 431.5,-474"/>
<image xlink:href="../../images/foreignKeys.png" width="11px" height="12px" preserveAspectRatio="xMinYMin meet" x="436.5" y="-491"/>
<text text-anchor="start" x="451.5" y="-482.2" font-family="Helvetica,sans-Serif" font-size="11.00">ref_id</text>
<polygon fill="none" stroke="black" points="431.5,-456 431.5,-474 556.5,-474 556.5,-456 431.5,-456"/>
<text text-anchor="start" x="434.5" y="-462.2" font-family="Helvetica,sans-Serif" font-size="11.00">...</text>
<polygon fill="#ffffff" stroke="transparent" points="431.5,-438 431.5,-456 460.5,-456 460.5,-438 431.5,-438"/>
<polygon fill="none" stroke="black" points="431.5,-438 431.5,-456 460.5,-456 460.5,-438 431.5,-438"/>
<text text-anchor="start" x="434.5" y="-444.2" font-family="Helvetica,sans-Serif" font-size="11.00">&lt; 3</text>
<polygon fill="#ffffff" stroke="transparent" points="460.5,-438 460.5,-456 530.5,-456 530.5,-438 460.5,-438"/>
<polygon fill="none" stroke="black" points="460.5,-438 460.5,-456 530.5,-456 530.5,-438 460.5,-438"/>
<text text-anchor="start" x="466.5" y="-444.2" font-family="Helvetica,sans-Serif" font-size="11.00">78,452 rows</text>
<polygon fill="#ffffff" stroke="transparent" points="530.5,-438 530.5,-456 556.5,-456 556.5,-438 530.5,-438"/>
<polygon fill="none" stroke="black" points="530.5,-438 530.5,-456 556.5,-456 556.5,-438 530.5,-438"/>
<text text-anchor="start" x="537.5" y="-444.2" font-family="Helvetica,sans-Serif" font-size="11.00">4 &gt;</text>
</a>
</g>
</g>
<!-- asset_values&#45;&gt;assets -->
<g id="edge1" class="edge">
<title>asset_values:w&#45;&gt;assets:e</title>
<path fill="none" stroke="black" d="M633.92,-417.11C576.47,-435.86 633,-573 557.5,-573"/>
<polygon fill="black" stroke="black" points="640.58,-416.15 649.02,-418.56 644.54,-415.57 648.5,-415 648.5,-415 648.5,-415 644.54,-415.57 647.98,-411.44 640.58,-416.15 640.58,-416.15"/>
<ellipse fill="none" stroke="black" cx="637.42" cy="-416.61" rx="3.2" ry="3.2"/>
</g>
<!-- asset_types -->
<g id="node3" class="node">
<title>asset_types</title>
<g id="a_node3"><a xlink:href="../../tables/asset_types.html" xlink:title="asset_types" target="_top">
<polygon fill="#ffffff" stroke="transparent" points="201,-511 201,-569 309,-569 309,-511 201,-511"/>
<polygon fill="#f5f5f5" stroke="transparent" points="201,-547 201,-569 309,-569 309,-547 201,-547"/>
<polygon fill="none" stroke="black" points="201,-547 201,-569 309,-569 309,-547 201,-547"/>
<text text-anchor="start" x="206" y="-556.2" font-family="Helvetica,sans-Serif" font-weight="bold" font-size="11.00">asset_types</text>
<text text-anchor="start" x="274" y="-555.2" font-family="Helvetica,sans-Serif" font-size="11.00">[table]</text>
<polygon fill="none" stroke="black" points="201,-529 201,-547 309,-547 309,-529 201,-529"/>
<text text-anchor="start" x="204" y="-535.2" font-family="Helvetica,sans-Serif" font-size="11.00">...</text>
<polygon fill="#ffffff" stroke="transparent" points="201,-511 201,-529 220,-529 220,-511 201,-511"/>
<polygon fill="none" stroke="black" points="201,-511 201,-529 220,-529 220,-511 201,-511"/>
<text text-anchor="start" x="204" y="-517.2" font-family="Helvetica,sans-Serif" font-size="11.00"> &#160;</text>
<polygon fill="#ffffff" stroke="transparent" points="220,-511 220,-529 284,-529 284,-511 220,-511"/>
<polygon fill="none" stroke="black" points="220,-511 220,-529 284,-529 284,-511 220,-511"/>
<text text-anchor="start" x="226" y="-517.2" font-family="Helvetica,sans-Serif" font-size="11.00">1,156 rows</text>
<polygon fill="#ffffff" stroke="transparent" points="284,-511 284,-529 309,-529 309,-511 284,-511"/>
<polygon fill="none" stroke="black" points="284,-511 284,-529 309,-529 309,-511 284,-511"/>
<text text-anchor="start" x="290" y="-517.2" font-family="Helvetica,sans-Serif" font-size="11.00">3 &gt;</text>
</a>
</g>
</g>
<!-- assets&#45;&gt;asset_types -->
<g id="edge2" class="edge">
<title>assets:w&#45;&gt;asset_types:e</title>
<path fill="none" stroke="black" d="M415.85,-529.24C373.85,-530.67 358.46,-538 310,-538"/>
<polygon fill="black" stroke="black" points="422.5,-529.13 430.56,-532.6 426.5,-529.07 430.5,-529 430.5,-529 430.5,-529 426.5,-529.07 430.44,-525.4 422.5,-529.13 422.5,-529.13"/>
<ellipse fill="none" stroke="black" cx="419.3" cy="-529.18" rx="3.2" ry="3.2"/>
</g>
<!-- investments -->
<g id="node4" class="node">
<title>investments</title>
<g id="a_node4"><a xlink:href="../../tables/investments.html" xlink:title="investments" target="_top">
<polygon fill="#ffffff" stroke="transparent" points="142,-116 142,-490 368,-490 368,-116 142,-116"/>
<polygon fill="#f5f5f5" stroke="transparent" points="144,-466 144,-488 366,-488 366,-466 144,-466"/>
<polygon fill="none" stroke="black" points="144,-466 144,-488 366,-488 366,-466 144,-466"/>
<text text-anchor="start" x="149" y="-475.2" font-family="Helvetica,sans-Serif" font-weight="bold" font-size="11.00">investments</text>
<text text-anchor="start" x="331" y="-474.2" font-family="Helvetica,sans-Serif" font-size="11.00">[table]</text>
<polygon fill="none" stroke="black" points="144,-444 144,-466 281,-466 281,-444 144,-444"/>
<image xlink:href="../../images/primaryKeys.png" width="11px" height="12px" preserveAspectRatio="xMinYMin meet" x="149" y="-461"/>
<text text-anchor="start" x="164" y="-452.2" font-family="Helvetica,sans-Serif" font-size="11.00">id</text>
<polygon fill="none" stroke="black" points="281,-444 281,-466 366,-466 366,-444 281,-444"/>
<text text-anchor="start" x="284" y="-452.2" font-family="Helvetica,sans-Serif" font-size="11.00">serial[10]</text>
<polygon fill="none" stroke="black" points="144,-422 144,-444 281,-444 281,-422 144,-422"/>
<image xlink:href="../../images/foreignKeys.png" width="11px" height="12px" preserveAspectRatio="xMinYMin meet" x="149" y="-439"/>
<text text-anchor="start" x="164" y="-430.2" font-family="Helvetica,sans-Serif" font-size="11.00">sector_id</text>
<polygon fill="none" stroke="black" points="281,-422 281,-444 366,-444 366,-422 281,-422"/>
<text text-anchor="start" x="284" y="-430.2" font-family="Helvetica,sans-Serif" font-size="11.00">varchar[18]</text>
<polygon fill="none" stroke="black" points="144,-400 144,-422 281,-422 281,-400 144,-400"/>
<text text-anchor="start" x="164" y="-408.2" font-family="Helvetica,sans-Serif" font-size="11.00">name</text>
<polygon fill="none" stroke="black" points="281,-400 281,-422 366,-422 366,-400 281,-400"/>
<text text-anchor="start" x="284" y="-408.2" font-family="Helvetica,sans-Serif" font-size="11.00">varchar[256]</text>
<polygon fill="none" stroke="black" points="144,-378 144,-400 281,-400 281,-378 144,-378"/>
<text text-anchor="start" x="164" y="-386.2" font-family="Helvetica,sans-Serif" font-size="11.00">exchange_name</text>
<polygon fill="none" stroke="black" points="281,-378 281,-400 366,-400 366,-378 281,-378"/>
<text text-anchor="start" x="284" y="-386.2" font-family="Helvetica,sans-Serif" font-size="11.00">varchar[64]</text>
<polygon fill="none" stroke="black" points="144,-356 144,-378 281,-378 281,-356 144,-356"/>
<text text-anchor="start" x="164" y="-364.2" font-family="Helvetica,sans-Serif" font-size="11.00">ticker_symbol</text>
<polygon fill="none" stroke="black" points="281,-356 281,-378 366,-378 366,-356 281,-356"/>
<text text-anchor="start" x="284" y="-364.2" font-family="Helvetica,sans-Serif" font-size="11.00">varchar[10]</text>
<polygon fill="none" stroke="black" points="144,-334 144,-356 281,-356 281,-334 144,-334"/>
<text text-anchor="start" x="164" y="-342.2" font-family="Helvetica,sans-Serif" font-size="11.00">earnings</text>
<polygon fill="none" stroke="black" points="281,-334 281,-356 366,-356 366,-334 281,-334"/>
<text text-anchor="start" x="284" y="-342.2" font-family="Helvetica,sans-Serif" font-size="11.00">float8[17,17]</text>
<polygon fill="none" stroke="black" points="144,-312 144,-334 281,-334 281,-312 144,-312"/>
<text text-anchor="start" x="164" y="-320.2" font-family="Helvetica,sans-Serif" font-size="11.00">location_count</text>
<polygon fill="none" stroke="black" points="281,-312 281,-334 366,-334 366,-312 281,-312"/>
<text text-anchor="start" x="284" y="-320.2" font-family="Helvetica,sans-Serif" font-size="11.00">int4[10]</text>
<polygon fill="none" stroke="black" points="144,-290 144,-312 281,-312 281,-290 144,-290"/>
<text text-anchor="start" x="164" y="-298.2" font-family="Helvetica,sans-Serif" font-size="11.00">tot_val_tx90p</text>
<polygon fill="none" stroke="black" points="281,-290 281,-312 366,-312 366,-290 281,-290"/>
<text text-anchor="start" x="284" y="-298.2" font-family="Helvetica,sans-Serif" font-size="11.00">float8[17,17]</text>
<polygon fill="none" stroke="black" points="144,-268 144,-290 281,-290 281,-268 144,-268"/>
<text text-anchor="start" x="164" y="-276.2" font-family="Helvetica,sans-Serif" font-size="11.00">tot_val_pdsisc</text>
<polygon fill="none" stroke="black" points="281,-268 281,-290 366,-290 366,-268 281,-268"/>
<text text-anchor="start" x="284" y="-276.2" font-family="Helvetica,sans-Serif" font-size="11.00">float8[17,17]</text>
<polygon fill="none" stroke="black" points="144,-246 144,-268 281,-268 281,-246 144,-246"/>
<text text-anchor="start" x="164" y="-254.2" font-family="Helvetica,sans-Serif" font-size="11.00">tot_val_coastalflood</text>
<polygon fill="none" stroke="black" points="281,-246 281,-268 366,-268 366,-246 281,-246"/>
<text text-anchor="start" x="284" y="-254.2" font-family="Helvetica,sans-Serif" font-size="11.00">float8[17,17]</text>
<polygon fill="none" stroke="black" points="144,-224 144,-246 281,-246 281,-224 144,-224"/>
<text text-anchor="start" x="164" y="-232.2" font-family="Helvetica,sans-Serif" font-size="11.00">tot_val_carbonprice</text>
<polygon fill="none" stroke="black" points="281,-224 281,-246 366,-246 366,-224 281,-224"/>
<text text-anchor="start" x="284" y="-232.2" font-family="Helvetica,sans-Serif" font-size="11.00">float8[17,17]</text>
<polygon fill="none" stroke="black" points="144,-202 144,-224 281,-224 281,-202 144,-202"/>
<text text-anchor="start" x="164" y="-210.2" font-family="Helvetica,sans-Serif" font-size="11.00">tot_val_zindex</text>
<polygon fill="none" stroke="black" points="281,-202 281,-224 366,-224 366,-202 281,-202"/>
<text text-anchor="start" x="284" y="-210.2" font-family="Helvetica,sans-Serif" font-size="11.00">float8[17,17]</text>
<polygon fill="none" stroke="black" points="144,-180 144,-202 281,-202 281,-180 144,-180"/>
<text text-anchor="start" x="164" y="-188.2" font-family="Helvetica,sans-Serif" font-size="11.00">notes</text>
<polygon fill="none" stroke="black" points="281,-180 281,-202 366,-202 366,-180 281,-180"/>
<text text-anchor="start" x="284" y="-188.2" font-family="Helvetica,sans-Serif" font-size="11.00">varchar[256]</text>
<polygon fill="none" stroke="black" points="144,-158 144,-180 281,-180 281,-158 144,-158"/>
<text text-anchor="start" x="164" y="-166.2" font-family="Helvetica,sans-Serif" font-size="11.00">created_at</text>
<polygon fill="none" stroke="black" points="281,-158 281,-180 366,-180 366,-158 281,-158"/>
<text text-anchor="start" x="284" y="-166.2" font-family="Helvetica,sans-Serif" font-size="11.00">timestamp[29,6]</text>
<polygon fill="none" stroke="black" points="144,-136 144,-158 281,-158 281,-136 144,-136"/>
<text text-anchor="start" x="164" y="-144.2" font-family="Helvetica,sans-Serif" font-size="11.00">updated_at</text>
<polygon fill="none" stroke="black" points="281,-136 281,-158 366,-158 366,-136 281,-136"/>
<text text-anchor="start" x="284" y="-144.2" font-family="Helvetica,sans-Serif" font-size="11.00">timestamp[29,6]</text>
<polygon fill="#ffffff" stroke="transparent" points="144,-118 144,-136 193,-136 193,-118 144,-118"/>
<polygon fill="none" stroke="black" points="144,-118 144,-136 193,-136 193,-118 144,-118"/>
<text text-anchor="start" x="147" y="-124.2" font-family="Helvetica,sans-Serif" font-size="11.00">&lt; 1</text>
<polygon fill="#ffffff" stroke="transparent" points="193,-118 193,-136 281,-136 281,-118 193,-118"/>
<polygon fill="none" stroke="black" points="193,-118 193,-136 281,-136 281,-118 193,-118"/>
<text text-anchor="start" x="223" y="-124.2" font-family="Helvetica,sans-Serif" font-size="11.00">2,996 rows</text>
<polygon fill="#ffffff" stroke="transparent" points="281,-118 281,-136 366,-136 366,-118 281,-118"/>
<polygon fill="none" stroke="black" points="281,-118 281,-136 366,-136 366,-118 281,-118"/>
<text text-anchor="start" x="347" y="-124.2" font-family="Helvetica,sans-Serif" font-size="11.00">2 &gt;</text>
<polygon fill="none" stroke="black" stroke-width="2" points="143,-117 143,-489 367,-489 367,-117 143,-117"/>
</a>
</g>
</g>
<!-- assets&#45;&gt;investments -->
<g id="edge3" class="edge">
<title>assets:w&#45;&gt;investments:e</title>
<path fill="none" stroke="black" d="M416.32,-547.58C386.98,-530.48 412.36,-455 367,-455"/>
<polygon fill="black" stroke="black" points="422.72,-549.13 429.66,-554.5 426.61,-550.06 430.5,-551 430.5,-551 430.5,-551 426.61,-550.06 431.34,-547.5 422.72,-549.13 422.72,-549.13"/>
<ellipse fill="none" stroke="black" cx="419.61" cy="-548.38" rx="3.2" ry="3.2"/>
</g>
<!-- ref_id -->
<g id="node5" class="node">
<title>ref_id</title>
<g id="a_node5"><a xlink:href="../../tables/ref_id.html" xlink:title="ref_id" target="_top">
<polygon fill="#ffffff" stroke="transparent" points="196.5,-598 196.5,-656 313.5,-656 313.5,-598 196.5,-598"/>
<polygon fill="#f5f5f5" stroke="transparent" points="197,-634 197,-656 314,-656 314,-634 197,-634"/>
<polygon fill="none" stroke="black" points="197,-634 197,-656 314,-656 314,-634 197,-634"/>
<text text-anchor="start" x="202" y="-643.2" font-family="Helvetica,sans-Serif" font-weight="bold" font-size="11.00">ref_id</text>
<text text-anchor="start" x="279" y="-642.2" font-family="Helvetica,sans-Serif" font-size="11.00">[table]</text>
<polygon fill="none" stroke="black" points="197,-616 197,-634 314,-634 314,-616 197,-616"/>
<text text-anchor="start" x="200" y="-622.2" font-family="Helvetica,sans-Serif" font-size="11.00">...</text>
<polygon fill="#ffffff" stroke="transparent" points="197,-598 197,-616 219,-616 219,-598 197,-598"/>
<polygon fill="none" stroke="black" points="197,-598 197,-616 219,-616 219,-598 197,-598"/>
<text text-anchor="start" x="200" y="-604.2" font-family="Helvetica,sans-Serif" font-size="11.00">&lt; 1</text>
<polygon fill="#ffffff" stroke="transparent" points="219,-598 219,-616 292,-616 292,-598 219,-598"/>
<polygon fill="none" stroke="black" points="219,-598 219,-616 292,-616 292,-598 219,-598"/>
<text text-anchor="start" x="222" y="-604.2" font-family="Helvetica,sans-Serif" font-size="11.00">140,067 rows</text>
<polygon fill="#ffffff" stroke="transparent" points="292,-598 292,-616 314,-616 314,-598 292,-598"/>
<polygon fill="none" stroke="black" points="292,-598 292,-616 314,-616 314,-598 292,-598"/>
<text text-anchor="start" x="295" y="-604.2" font-family="Helvetica,sans-Serif" font-size="11.00">2 &gt;</text>
</a>
</g>
</g>
<!-- assets&#45;&gt;ref_id -->
<g id="edge4" class="edge">
<title>assets:w&#45;&gt;ref_id:e</title>
<path fill="none" stroke="black" d="M419.97,-486.14C385.78,-494.47 405.73,-546.64 376,-580 353.58,-605.15 348.69,-625 315,-625"/>
<polygon fill="black" stroke="black" points="429.27,-481.11 430.13,-489.06 428.54,-489.23 427.68,-481.28 429.27,-481.11"/>
<polyline fill="none" stroke="black" points="430.5,-485 426.52,-485.43 "/>
<ellipse fill="none" stroke="black" cx="423.34" cy="-485.77" rx="3.2" ry="3.2"/>
</g>
<!-- sectors -->
<g id="node10" class="node">
<title>sectors</title>
<g id="a_node10"><a xlink:href="../../tables/sectors.html" xlink:title="sectors" target="_top">
<polygon fill="#ffffff" stroke="transparent" points="8,-364 8,-466 93,-466 93,-364 8,-364"/>
<polygon fill="#f5f5f5" stroke="transparent" points="8.5,-444 8.5,-466 93.5,-466 93.5,-444 8.5,-444"/>
<polygon fill="none" stroke="black" points="8.5,-444 8.5,-466 93.5,-466 93.5,-444 8.5,-444"/>
<text text-anchor="start" x="13.5" y="-453.2" font-family="Helvetica,sans-Serif" font-weight="bold" font-size="11.00">sectors</text>
<text text-anchor="start" x="58.5" y="-452.2" font-family="Helvetica,sans-Serif" font-size="11.00">[table]</text>
<polygon fill="none" stroke="black" points="8.5,-422 8.5,-444 93.5,-444 93.5,-422 8.5,-422"/>
<image xlink:href="../../images/primaryKeys.png" width="11px" height="12px" preserveAspectRatio="xMinYMin meet" x="13.5" y="-439"/>
<text text-anchor="start" x="28.5" y="-430.2" font-family="Helvetica,sans-Serif" font-size="11.00">id</text>
<polygon fill="#ffffff" stroke="transparent" points="8.5,-400 8.5,-422 93.5,-422 93.5,-400 8.5,-400"/>
<polygon fill="none" stroke="black" points="8.5,-400 8.5,-422 93.5,-422 93.5,-400 8.5,-400"/>
<text text-anchor="start" x="28.5" y="-408.2" font-family="Helvetica,sans-Serif" font-size="11.00">name</text>
<polygon fill="none" stroke="black" points="8.5,-382 8.5,-400 93.5,-400 93.5,-382 8.5,-382"/>
<text text-anchor="start" x="11.5" y="-388.2" font-family="Helvetica,sans-Serif" font-size="11.00">...</text>
<polygon fill="#ffffff" stroke="transparent" points="8.5,-364 8.5,-382 23.5,-382 23.5,-364 8.5,-364"/>
<polygon fill="none" stroke="black" points="8.5,-364 8.5,-382 23.5,-382 23.5,-364 8.5,-364"/>
<text text-anchor="start" x="11.5" y="-370.2" font-family="Helvetica,sans-Serif" font-size="11.00"> &#160;</text>
<polygon fill="#ffffff" stroke="transparent" points="23.5,-364 23.5,-382 70.5,-382 70.5,-364 23.5,-364"/>
<polygon fill="none" stroke="black" points="23.5,-364 23.5,-382 70.5,-382 70.5,-364 23.5,-364"/>
<text text-anchor="start" x="27.5" y="-370.2" font-family="Helvetica,sans-Serif" font-size="11.00">12 rows</text>
<polygon fill="#ffffff" stroke="transparent" points="70.5,-364 70.5,-382 93.5,-382 93.5,-364 70.5,-364"/>
<polygon fill="none" stroke="black" points="70.5,-364 70.5,-382 93.5,-382 93.5,-364 70.5,-364"/>
<text text-anchor="start" x="74.5" y="-370.2" font-family="Helvetica,sans-Serif" font-size="11.00">1 &gt;</text>
</a>
</g>
</g>
<!-- investments&#45;&gt;sectors -->
<g id="edge9" class="edge">
<title>investments:w&#45;&gt;sectors:e</title>
<path fill="none" stroke="black" d="M128.28,-433C117.29,-433 110.16,-433 94.5,-433"/>
<polygon fill="black" stroke="black" points="135,-433 143,-436.6 139,-433 143,-433 143,-433 143,-433 139,-433 143,-429.4 135,-433 135,-433"/>
<ellipse fill="none" stroke="black" cx="131.8" cy="-433" rx="3.2" ry="3.2"/>
</g>
<!-- assets_impact_functions -->
<g id="node6" class="node">
<title>assets_impact_functions</title>
<g id="a_node6"><a xlink:href="../../tables/assets_impact_functions.html" xlink:title="assets_impact_functions" target="_top">
<polygon fill="#ffffff" stroke="transparent" points="619,-546 619,-604 794,-604 794,-546 619,-546"/>
<polygon fill="#f5f5f5" stroke="transparent" points="619.5,-582 619.5,-604 794.5,-604 794.5,-582 619.5,-582"/>
<polygon fill="none" stroke="black" points="619.5,-582 619.5,-604 794.5,-604 794.5,-582 619.5,-582"/>
<text text-anchor="start" x="624.5" y="-591.2" font-family="Helvetica,sans-Serif" font-weight="bold" font-size="11.00">assets_impact_functions</text>
<text text-anchor="start" x="759.5" y="-590.2" font-family="Helvetica,sans-Serif" font-size="11.00">[table]</text>
<polygon fill="none" stroke="black" points="619.5,-564 619.5,-582 794.5,-582 794.5,-564 619.5,-564"/>
<text text-anchor="start" x="622.5" y="-570.2" font-family="Helvetica,sans-Serif" font-size="11.00">...</text>
<polygon fill="#ffffff" stroke="transparent" points="619.5,-546 619.5,-564 674.5,-564 674.5,-546 619.5,-546"/>
<polygon fill="none" stroke="black" points="619.5,-546 619.5,-564 674.5,-564 674.5,-546 619.5,-546"/>
<text text-anchor="start" x="622.5" y="-552.2" font-family="Helvetica,sans-Serif" font-size="11.00">&lt; 3</text>
<polygon fill="#ffffff" stroke="transparent" points="674.5,-546 674.5,-564 764.5,-564 764.5,-546 674.5,-546"/>
<polygon fill="none" stroke="black" points="674.5,-546 674.5,-564 764.5,-564 764.5,-546 674.5,-546"/>
<text text-anchor="start" x="694.5" y="-552.2" font-family="Helvetica,sans-Serif" font-size="11.00">654,369 rows</text>
<polygon fill="#ffffff" stroke="transparent" points="764.5,-546 764.5,-564 794.5,-564 794.5,-546 764.5,-546"/>
<polygon fill="none" stroke="black" points="764.5,-546 764.5,-564 794.5,-564 794.5,-546 764.5,-546"/>
<text text-anchor="start" x="784.5" y="-552.2" font-family="Helvetica,sans-Serif" font-size="11.00"> &#160;</text>
</a>
</g>
</g>
<!-- assets_impact_functions&#45;&gt;assets -->
<g id="edge5" class="edge">
<title>assets_impact_functions:w&#45;&gt;assets:e</title>
<path fill="none" stroke="black" d="M603.68,-573C587.62,-573 578.89,-573 557.5,-573"/>
<polygon fill="black" stroke="black" points="610.5,-573 618.5,-576.6 614.5,-573 618.5,-573 618.5,-573 618.5,-573 614.5,-573 618.5,-569.4 610.5,-573 610.5,-573"/>
<ellipse fill="none" stroke="black" cx="607.3" cy="-573" rx="3.2" ry="3.2"/>
</g>
<!-- assets_tags -->
<g id="node7" class="node">
<title>assets_tags</title>
<g id="a_node7"><a xlink:href="../../tables/assets_tags.html" xlink:title="assets_tags" target="_top">
<polygon fill="#ffffff" stroke="transparent" points="652.5,-467 652.5,-525 760.5,-525 760.5,-467 652.5,-467"/>
<polygon fill="#f5f5f5" stroke="transparent" points="652.5,-503 652.5,-525 760.5,-525 760.5,-503 652.5,-503"/>
<polygon fill="none" stroke="black" points="652.5,-503 652.5,-525 760.5,-525 760.5,-503 652.5,-503"/>
<text text-anchor="start" x="657.5" y="-512.2" font-family="Helvetica,sans-Serif" font-weight="bold" font-size="11.00">assets_tags</text>
<text text-anchor="start" x="725.5" y="-511.2" font-family="Helvetica,sans-Serif" font-size="11.00">[table]</text>
<polygon fill="none" stroke="black" points="652.5,-485 652.5,-503 760.5,-503 760.5,-485 652.5,-485"/>
<text text-anchor="start" x="655.5" y="-491.2" font-family="Helvetica,sans-Serif" font-size="11.00">...</text>
<polygon fill="#ffffff" stroke="transparent" points="652.5,-467 652.5,-485 677.5,-485 677.5,-467 652.5,-467"/>
<polygon fill="none" stroke="black" points="652.5,-467 652.5,-485 677.5,-485 677.5,-467 652.5,-467"/>
<text text-anchor="start" x="655.5" y="-473.2" font-family="Helvetica,sans-Serif" font-size="11.00">&lt; 2</text>
<polygon fill="#ffffff" stroke="transparent" points="677.5,-467 677.5,-485 745.5,-485 745.5,-467 677.5,-467"/>
<polygon fill="none" stroke="black" points="677.5,-467 677.5,-485 745.5,-485 745.5,-467 677.5,-467"/>
<text text-anchor="start" x="681.5" y="-473.2" font-family="Helvetica,sans-Serif" font-size="11.00">22,144 rows</text>
<polygon fill="#ffffff" stroke="transparent" points="745.5,-467 745.5,-485 760.5,-485 760.5,-467 745.5,-467"/>
<polygon fill="none" stroke="black" points="745.5,-467 745.5,-485 760.5,-485 760.5,-467 745.5,-467"/>
<text text-anchor="start" x="750.5" y="-473.2" font-family="Helvetica,sans-Serif" font-size="11.00"> &#160;</text>
</a>
</g>
</g>
<!-- assets_tags&#45;&gt;assets -->
<g id="edge6" class="edge">
<title>assets_tags:w&#45;&gt;assets:e</title>
<path fill="none" stroke="black" d="M636.88,-496.28C599.28,-509.23 606.53,-573 557.5,-573"/>
<polygon fill="black" stroke="black" points="643.6,-495.23 652.05,-497.56 647.55,-494.62 651.5,-494 651.5,-494 651.5,-494 647.55,-494.62 650.95,-490.44 643.6,-495.23 643.6,-495.23"/>
<ellipse fill="none" stroke="black" cx="640.43" cy="-495.73" rx="3.2" ry="3.2"/>
</g>
<!-- folders_investments -->
<g id="node8" class="node">
<title>folders_investments</title>
<g id="a_node8"><a xlink:href="../../tables/folders_investments.html" xlink:title="folders_investments" target="_top">
<polygon fill="#ffffff" stroke="transparent" points="417,-173 417,-257 570,-257 570,-173 417,-173"/>
<polygon fill="#f5f5f5" stroke="transparent" points="417.5,-235 417.5,-257 570.5,-257 570.5,-235 417.5,-235"/>
<polygon fill="none" stroke="black" points="417.5,-235 417.5,-257 570.5,-257 570.5,-235 417.5,-235"/>
<text text-anchor="start" x="422.5" y="-244.2" font-family="Helvetica,sans-Serif" font-weight="bold" font-size="11.00">folders_investments</text>
<text text-anchor="start" x="535.5" y="-243.2" font-family="Helvetica,sans-Serif" font-size="11.00">[table]</text>
<polygon fill="none" stroke="black" points="417.5,-213 417.5,-235 570.5,-235 570.5,-213 417.5,-213"/>
<image xlink:href="../../images/primaryKeys.png" width="11px" height="12px" preserveAspectRatio="xMinYMin meet" x="422.5" y="-230"/>
<text text-anchor="start" x="445.5" y="-221.2" font-family="Helvetica,sans-Serif" font-size="11.00">folder_id</text>
<polygon fill="none" stroke="black" points="417.5,-191 417.5,-213 570.5,-213 570.5,-191 417.5,-191"/>
<image xlink:href="../../images/primaryKeys.png" width="11px" height="12px" preserveAspectRatio="xMinYMin meet" x="422.5" y="-208"/>
<text text-anchor="start" x="445.5" y="-199.2" font-family="Helvetica,sans-Serif" font-size="11.00">investment_id</text>
<polygon fill="#ffffff" stroke="transparent" points="417.5,-173 417.5,-191 467.5,-191 467.5,-173 417.5,-173"/>
<polygon fill="none" stroke="black" points="417.5,-173 417.5,-191 467.5,-191 467.5,-173 417.5,-173"/>
<text text-anchor="start" x="420.5" y="-179.2" font-family="Helvetica,sans-Serif" font-size="11.00">&lt; 2</text>
<polygon fill="#ffffff" stroke="transparent" points="467.5,-173 467.5,-191 542.5,-191 542.5,-173 467.5,-173"/>
<polygon fill="none" stroke="black" points="467.5,-173 467.5,-191 542.5,-191 542.5,-173 467.5,-173"/>
<text text-anchor="start" x="484.5" y="-179.2" font-family="Helvetica,sans-Serif" font-size="11.00">2,911 rows</text>
<polygon fill="#ffffff" stroke="transparent" points="542.5,-173 542.5,-191 570.5,-191 570.5,-173 542.5,-173"/>
<polygon fill="none" stroke="black" points="542.5,-173 542.5,-191 570.5,-191 570.5,-173 542.5,-173"/>
<text text-anchor="start" x="560.5" y="-179.2" font-family="Helvetica,sans-Serif" font-size="11.00"> &#160;</text>
</a>
</g>
</g>
<!-- folders_investments&#45;&gt;investments -->
<g id="edge8" class="edge">
<title>folders_investments:w&#45;&gt;investments:e</title>
<path fill="none" stroke="black" d="M402.01,-203.68C318.44,-225.63 476.09,-455 367,-455"/>
<polygon fill="black" stroke="black" points="408.55,-202.92 416.92,-205.58 412.53,-202.46 416.5,-202 416.5,-202 416.5,-202 412.53,-202.46 416.08,-198.42 408.55,-202.92 408.55,-202.92"/>
<ellipse fill="none" stroke="black" cx="405.37" cy="-203.29" rx="3.2" ry="3.2"/>
</g>
<!-- folders -->
<g id="node9" class="node">
<title>folders</title>
<g id="a_node9"><a xlink:href="../../tables/folders.html" xlink:title="folders" target="_top">
<polygon fill="#ffffff" stroke="transparent" points="207,-37 207,-95 303,-95 303,-37 207,-37"/>
<polygon fill="#f5f5f5" stroke="transparent" points="207,-73 207,-95 303,-95 303,-73 207,-73"/>
<polygon fill="none" stroke="black" points="207,-73 207,-95 303,-95 303,-73 207,-73"/>
<text text-anchor="start" x="212" y="-82.2" font-family="Helvetica,sans-Serif" font-weight="bold" font-size="11.00">folders</text>
<text text-anchor="start" x="268" y="-81.2" font-family="Helvetica,sans-Serif" font-size="11.00">[table]</text>
<polygon fill="none" stroke="black" points="207,-55 207,-73 303,-73 303,-55 207,-55"/>
<text text-anchor="start" x="210" y="-61.2" font-family="Helvetica,sans-Serif" font-size="11.00">...</text>
<polygon fill="#ffffff" stroke="transparent" points="207,-37 207,-55 229,-55 229,-37 207,-37"/>
<polygon fill="none" stroke="black" points="207,-37 207,-55 229,-55 229,-37 207,-37"/>
<text text-anchor="start" x="210" y="-43.2" font-family="Helvetica,sans-Serif" font-size="11.00">&lt; 1</text>
<polygon fill="#ffffff" stroke="transparent" points="229,-37 229,-55 281,-55 281,-37 229,-37"/>
<polygon fill="none" stroke="black" points="229,-37 229,-55 281,-55 281,-37 229,-37"/>
<text text-anchor="start" x="232" y="-43.2" font-family="Helvetica,sans-Serif" font-size="11.00">311 rows</text>
<polygon fill="#ffffff" stroke="transparent" points="281,-37 281,-55 303,-55 303,-37 281,-37"/>
<polygon fill="none" stroke="black" points="281,-37 281,-55 303,-55 303,-37 281,-37"/>
<text text-anchor="start" x="284" y="-43.2" font-family="Helvetica,sans-Serif" font-size="11.00">1 &gt;</text>
</a>
</g>
</g>
<!-- folders_investments&#45;&gt;folders -->
<g id="edge7" class="edge">
<title>folders_investments:w&#45;&gt;folders:e</title>
<path fill="none" stroke="black" d="M402.16,-221.59C370.42,-208.35 407.83,-143.52 376,-105 352.54,-76.61 340.82,-64 304,-64"/>
<polygon fill="black" stroke="black" points="408.61,-222.68 415.9,-227.55 412.56,-223.34 416.5,-224 416.5,-224 416.5,-224 412.56,-223.34 417.1,-220.45 408.61,-222.68 408.61,-222.68"/>
<ellipse fill="none" stroke="black" cx="405.45" cy="-222.15" rx="3.2" ry="3.2"/>
</g>
<!-- locations -->
<g id="node11" class="node">
<title>locations</title>
<g id="a_node11"><a xlink:href="../../tables/locations.html" xlink:title="locations" target="_top">
<polygon fill="#ffffff" stroke="transparent" points="651,-625 651,-683 762,-683 762,-625 651,-625"/>
<polygon fill="#f5f5f5" stroke="transparent" points="651.5,-661 651.5,-683 762.5,-683 762.5,-661 651.5,-661"/>
<polygon fill="none" stroke="black" points="651.5,-661 651.5,-683 762.5,-683 762.5,-661 651.5,-661"/>
<text text-anchor="start" x="656.5" y="-670.2" font-family="Helvetica,sans-Serif" font-weight="bold" font-size="11.00">locations</text>
<text text-anchor="start" x="727.5" y="-669.2" font-family="Helvetica,sans-Serif" font-size="11.00">[table]</text>
<polygon fill="none" stroke="black" points="651.5,-643 651.5,-661 762.5,-661 762.5,-643 651.5,-643"/>
<text text-anchor="start" x="654.5" y="-649.2" font-family="Helvetica,sans-Serif" font-size="11.00">...</text>
<polygon fill="#ffffff" stroke="transparent" points="651.5,-625 651.5,-643 673.5,-643 673.5,-625 651.5,-625"/>
<polygon fill="none" stroke="black" points="651.5,-625 651.5,-643 673.5,-643 673.5,-625 651.5,-625"/>
<text text-anchor="start" x="654.5" y="-631.2" font-family="Helvetica,sans-Serif" font-size="11.00">&lt; 2</text>
<polygon fill="#ffffff" stroke="transparent" points="673.5,-625 673.5,-643 740.5,-643 740.5,-625 673.5,-625"/>
<polygon fill="none" stroke="black" points="673.5,-625 673.5,-643 740.5,-643 740.5,-625 673.5,-625"/>
<text text-anchor="start" x="676.5" y="-631.2" font-family="Helvetica,sans-Serif" font-size="11.00">81,629 rows</text>
<polygon fill="#ffffff" stroke="transparent" points="740.5,-625 740.5,-643 762.5,-643 762.5,-625 740.5,-625"/>
<polygon fill="none" stroke="black" points="740.5,-625 740.5,-643 762.5,-643 762.5,-625 740.5,-625"/>
<text text-anchor="start" x="743.5" y="-631.2" font-family="Helvetica,sans-Serif" font-size="11.00">3 &gt;</text>
</a>
</g>
</g>
<!-- locations&#45;&gt;assets -->
<g id="edge10" class="edge">
<title>locations:w&#45;&gt;assets:e</title>
<path fill="none" stroke="black" d="M635.99,-649.72C598.69,-636.77 606.23,-573 557.5,-573"/>
<polygon fill="black" stroke="black" points="642.6,-650.76 649.94,-655.56 646.55,-651.38 650.5,-652 650.5,-652 650.5,-652 646.55,-651.38 651.06,-648.44 642.6,-650.76 642.6,-650.76"/>
<ellipse fill="none" stroke="black" cx="639.44" cy="-650.26" rx="3.2" ry="3.2"/>
</g>
<!-- locations&#45;&gt;ref_id -->
<g id="edge11" class="edge">
<title>locations:w&#45;&gt;ref_id:e</title>
<path fill="none" stroke="black" d="M635.97,-651.91C498.37,-650.24 459.63,-625 315,-625"/>
<polygon fill="black" stroke="black" points="642.5,-651.95 650.48,-655.6 646.5,-651.98 650.5,-652 650.5,-652 650.5,-652 646.5,-651.98 650.52,-648.4 642.5,-651.95 642.5,-651.95"/>
<ellipse fill="none" stroke="black" cx="639.3" cy="-651.93" rx="3.2" ry="3.2"/>
</g>
</g>
</svg>
