<?xml version="1.0" encoding="UTF-8" standalone="no"?>
<!DOCTYPE svg PUBLIC "-//W3C//DTD SVG 1.1//EN"
 "http://www.w3.org/Graphics/SVG/1.1/DTD/svg11.dtd">
<!-- Generated by graphviz version 2.50.0 (20211204.2007)
 -->
<!-- Title: oneDegreeRelationshipsDiagram Pages: 1 -->
<svg width="586pt" height="537pt"
 viewBox="0.00 0.00 586.00 537.00" xmlns="http://www.w3.org/2000/svg" xmlns:xlink="http://www.w3.org/1999/xlink">
<g id="graph0" class="graph" transform="scale(1 1) rotate(0) translate(4 533)">
<title>oneDegreeRelationshipsDiagram</title>
<polygon fill="#ffffff" stroke="transparent" points="-4,4 -4,-533 582,-533 582,4 -4,4"/>
<text text-anchor="middle" x="72.5" y="-7.2" font-family="Helvetica,sans-Serif" font-size="11.00">Generated by SchemaSpy</text>
<!-- assets -->
<g id="node1" class="node">
<title>assets</title>
<g id="a_node1"><a xlink:href="../../tables/assets.html" xlink:title="assets" target="_top">
<polygon fill="#ffffff" stroke="transparent" points="431,-357 431,-525 556,-525 556,-357 431,-357"/>
<polygon fill="#f5f5f5" stroke="transparent" points="431.5,-503 431.5,-525 556.5,-525 556.5,-503 431.5,-503"/>
<polygon fill="none" stroke="black" points="431.5,-503 431.5,-525 556.5,-525 556.5,-503 431.5,-503"/>
<text text-anchor="start" x="436.5" y="-512.2" font-family="Helvetica,sans-Serif" font-weight="bold" font-size="11.00">assets</text>
<text text-anchor="start" x="521.5" y="-511.2" font-family="Helvetica,sans-Serif" font-size="11.00">[table]</text>
<polygon fill="none" stroke="black" points="431.5,-481 431.5,-503 556.5,-503 556.5,-481 431.5,-481"/>
<image xlink:href="../../images/primaryKeys.png" width="11px" height="12px" preserveAspectRatio="xMinYMin meet" x="436.5" y="-498"/>
<text text-anchor="start" x="451.5" y="-489.2" font-family="Helvetica,sans-Serif" font-size="11.00">id</text>
<polygon fill="none" stroke="black" points="431.5,-459 431.5,-481 556.5,-481 556.5,-459 431.5,-459"/>
<image xlink:href="../../images/foreignKeys.png" width="11px" height="12px" preserveAspectRatio="xMinYMin meet" x="436.5" y="-476"/>
<text text-anchor="start" x="451.5" y="-467.2" font-family="Helvetica,sans-Serif" font-size="11.00">investment_id</text>
<polygon fill="none" stroke="black" points="431.5,-437 431.5,-459 556.5,-459 556.5,-437 431.5,-437"/>
<image xlink:href="../../images/foreignKeys.png" width="11px" height="12px" preserveAspectRatio="xMinYMin meet" x="436.5" y="-454"/>
<text text-anchor="start" x="451.5" y="-445.2" font-family="Helvetica,sans-Serif" font-size="11.00">asset_type_id</text>
<polygon fill="#ffffff" stroke="transparent" points="431.5,-415 431.5,-437 556.5,-437 556.5,-415 431.5,-415"/>
<polygon fill="none" stroke="black" points="431.5,-415 431.5,-437 556.5,-437 556.5,-415 431.5,-415"/>
<text text-anchor="start" x="451.5" y="-423.2" font-family="Helvetica,sans-Serif" font-size="11.00">is_active</text>
<polygon fill="#ffffff" stroke="transparent" points="431.5,-393 431.5,-415 556.5,-415 556.5,-393 431.5,-393"/>
<polygon fill="none" stroke="black" points="431.5,-393 431.5,-415 556.5,-415 556.5,-393 431.5,-393"/>
<image xlink:href="../../images/foreignKeys.png" width="11px" height="12px" preserveAspectRatio="xMinYMin meet" x="436.5" y="-410"/>
<text text-anchor="start" x="451.5" y="-401.2" font-family="Helvetica,sans-Serif" font-size="11.00">ref_id</text>
<polygon fill="none" stroke="black" points="431.5,-375 431.5,-393 556.5,-393 556.5,-375 431.5,-375"/>
<text text-anchor="start" x="434.5" y="-381.2" font-family="Helvetica,sans-Serif" font-size="11.00">...</text>
<polygon fill="#ffffff" stroke="transparent" points="431.5,-357 431.5,-375 460.5,-375 460.5,-357 431.5,-357"/>
<polygon fill="none" stroke="black" points="431.5,-357 431.5,-375 460.5,-375 460.5,-357 431.5,-357"/>
<text text-anchor="start" x="434.5" y="-363.2" font-family="Helvetica,sans-Serif" font-size="11.00">&lt; 3</text>
<polygon fill="#ffffff" stroke="transparent" points="460.5,-357 460.5,-375 530.5,-375 530.5,-357 460.5,-357"/>
<polygon fill="none" stroke="black" points="460.5,-357 460.5,-375 530.5,-375 530.5,-357 460.5,-357"/>
<text text-anchor="start" x="466.5" y="-363.2" font-family="Helvetica,sans-Serif" font-size="11.00">78,452 rows</text>
<polygon fill="#ffffff" stroke="transparent" points="530.5,-357 530.5,-375 556.5,-375 556.5,-357 530.5,-357"/>
<polygon fill="none" stroke="black" points="530.5,-357 530.5,-375 556.5,-375 556.5,-357 530.5,-357"/>
<text text-anchor="start" x="537.5" y="-363.2" font-family="Helvetica,sans-Serif" font-size="11.00">4 &gt;</text>
</a>
</g>
</g>
<!-- investments -->
<g id="node2" class="node">
<title>investments</title>
<g id="a_node2"><a xlink:href="../../tables/investments.html" xlink:title="investments" target="_top">
<polygon fill="#ffffff" stroke="transparent" points="142,-37 142,-411 368,-411 368,-37 142,-37"/>
<polygon fill="#f5f5f5" stroke="transparent" points="144,-387 144,-409 366,-409 366,-387 144,-387"/>
<polygon fill="none" stroke="black" points="144,-387 144,-409 366,-409 366,-387 144,-387"/>
<text text-anchor="start" x="149" y="-396.2" font-family="Helvetica,sans-Serif" font-weight="bold" font-size="11.00">investments</text>
<text text-anchor="start" x="331" y="-395.2" font-family="Helvetica,sans-Serif" font-size="11.00">[table]</text>
<polygon fill="none" stroke="black" points="144,-365 144,-387 281,-387 281,-365 144,-365"/>
<image xlink:href="../../images/primaryKeys.png" width="11px" height="12px" preserveAspectRatio="xMinYMin meet" x="149" y="-382"/>
<text text-anchor="start" x="164" y="-373.2" font-family="Helvetica,sans-Serif" font-size="11.00">id</text>
<polygon fill="none" stroke="black" points="281,-365 281,-387 366,-387 366,-365 281,-365"/>
<text text-anchor="start" x="284" y="-373.2" font-family="Helvetica,sans-Serif" font-size="11.00">serial[10]</text>
<polygon fill="none" stroke="black" points="144,-343 144,-365 281,-365 281,-343 144,-343"/>
<image xlink:href="../../images/foreignKeys.png" width="11px" height="12px" preserveAspectRatio="xMinYMin meet" x="149" y="-360"/>
<text text-anchor="start" x="164" y="-351.2" font-family="Helvetica,sans-Serif" font-size="11.00">sector_id</text>
<polygon fill="none" stroke="black" points="281,-343 281,-365 366,-365 366,-343 281,-343"/>
<text text-anchor="start" x="284" y="-351.2" font-family="Helvetica,sans-Serif" font-size="11.00">varchar[18]</text>
<polygon fill="none" stroke="black" points="144,-321 144,-343 281,-343 281,-321 144,-321"/>
<text text-anchor="start" x="164" y="-329.2" font-family="Helvetica,sans-Serif" font-size="11.00">name</text>
<polygon fill="none" stroke="black" points="281,-321 281,-343 366,-343 366,-321 281,-321"/>
<text text-anchor="start" x="284" y="-329.2" font-family="Helvetica,sans-Serif" font-size="11.00">varchar[256]</text>
<polygon fill="none" stroke="black" points="144,-299 144,-321 281,-321 281,-299 144,-299"/>
<text text-anchor="start" x="164" y="-307.2" font-family="Helvetica,sans-Serif" font-size="11.00">exchange_name</text>
<polygon fill="none" stroke="black" points="281,-299 281,-321 366,-321 366,-299 281,-299"/>
<text text-anchor="start" x="284" y="-307.2" font-family="Helvetica,sans-Serif" font-size="11.00">varchar[64]</text>
<polygon fill="none" stroke="black" points="144,-277 144,-299 281,-299 281,-277 144,-277"/>
<text text-anchor="start" x="164" y="-285.2" font-family="Helvetica,sans-Serif" font-size="11.00">ticker_symbol</text>
<polygon fill="none" stroke="black" points="281,-277 281,-299 366,-299 366,-277 281,-277"/>
<text text-anchor="start" x="284" y="-285.2" font-family="Helvetica,sans-Serif" font-size="11.00">varchar[10]</text>
<polygon fill="none" stroke="black" points="144,-255 144,-277 281,-277 281,-255 144,-255"/>
<text text-anchor="start" x="164" y="-263.2" font-family="Helvetica,sans-Serif" font-size="11.00">earnings</text>
<polygon fill="none" stroke="black" points="281,-255 281,-277 366,-277 366,-255 281,-255"/>
<text text-anchor="start" x="284" y="-263.2" font-family="Helvetica,sans-Serif" font-size="11.00">float8[17,17]</text>
<polygon fill="none" stroke="black" points="144,-233 144,-255 281,-255 281,-233 144,-233"/>
<text text-anchor="start" x="164" y="-241.2" font-family="Helvetica,sans-Serif" font-size="11.00">location_count</text>
<polygon fill="none" stroke="black" points="281,-233 281,-255 366,-255 366,-233 281,-233"/>
<text text-anchor="start" x="284" y="-241.2" font-family="Helvetica,sans-Serif" font-size="11.00">int4[10]</text>
<polygon fill="none" stroke="black" points="144,-211 144,-233 281,-233 281,-211 144,-211"/>
<text text-anchor="start" x="164" y="-219.2" font-family="Helvetica,sans-Serif" font-size="11.00">tot_val_tx90p</text>
<polygon fill="none" stroke="black" points="281,-211 281,-233 366,-233 366,-211 281,-211"/>
<text text-anchor="start" x="284" y="-219.2" font-family="Helvetica,sans-Serif" font-size="11.00">float8[17,17]</text>
<polygon fill="none" stroke="black" points="144,-189 144,-211 281,-211 281,-189 144,-189"/>
<text text-anchor="start" x="164" y="-197.2" font-family="Helvetica,sans-Serif" font-size="11.00">tot_val_pdsisc</text>
<polygon fill="none" stroke="black" points="281,-189 281,-211 366,-211 366,-189 281,-189"/>
<text text-anchor="start" x="284" y="-197.2" font-family="Helvetica,sans-Serif" font-size="11.00">float8[17,17]</text>
<polygon fill="none" stroke="black" points="144,-167 144,-189 281,-189 281,-167 144,-167"/>
<text text-anchor="start" x="164" y="-175.2" font-family="Helvetica,sans-Serif" font-size="11.00">tot_val_coastalflood</text>
<polygon fill="none" stroke="black" points="281,-167 281,-189 366,-189 366,-167 281,-167"/>
<text text-anchor="start" x="284" y="-175.2" font-family="Helvetica,sans-Serif" font-size="11.00">float8[17,17]</text>
<polygon fill="none" stroke="black" points="144,-145 144,-167 281,-167 281,-145 144,-145"/>
<text text-anchor="start" x="164" y="-153.2" font-family="Helvetica,sans-Serif" font-size="11.00">tot_val_carbonprice</text>
<polygon fill="none" stroke="black" points="281,-145 281,-167 366,-167 366,-145 281,-145"/>
<text text-anchor="start" x="284" y="-153.2" font-family="Helvetica,sans-Serif" font-size="11.00">float8[17,17]</text>
<polygon fill="none" stroke="black" points="144,-123 144,-145 281,-145 281,-123 144,-123"/>
<text text-anchor="start" x="164" y="-131.2" font-family="Helvetica,sans-Serif" font-size="11.00">tot_val_zindex</text>
<polygon fill="none" stroke="black" points="281,-123 281,-145 366,-145 366,-123 281,-123"/>
<text text-anchor="start" x="284" y="-131.2" font-family="Helvetica,sans-Serif" font-size="11.00">float8[17,17]</text>
<polygon fill="none" stroke="black" points="144,-101 144,-123 281,-123 281,-101 144,-101"/>
<text text-anchor="start" x="164" y="-109.2" font-family="Helvetica,sans-Serif" font-size="11.00">notes</text>
<polygon fill="none" stroke="black" points="281,-101 281,-123 366,-123 366,-101 281,-101"/>
<text text-anchor="start" x="284" y="-109.2" font-family="Helvetica,sans-Serif" font-size="11.00">varchar[256]</text>
<polygon fill="none" stroke="black" points="144,-79 144,-101 281,-101 281,-79 144,-79"/>
<text text-anchor="start" x="164" y="-87.2" font-family="Helvetica,sans-Serif" font-size="11.00">created_at</text>
<polygon fill="none" stroke="black" points="281,-79 281,-101 366,-101 366,-79 281,-79"/>
<text text-anchor="start" x="284" y="-87.2" font-family="Helvetica,sans-Serif" font-size="11.00">timestamp[29,6]</text>
<polygon fill="none" stroke="black" points="144,-57 144,-79 281,-79 281,-57 144,-57"/>
<text text-anchor="start" x="164" y="-65.2" font-family="Helvetica,sans-Serif" font-size="11.00">updated_at</text>
<polygon fill="none" stroke="black" points="281,-57 281,-79 366,-79 366,-57 281,-57"/>
<text text-anchor="start" x="284" y="-65.2" font-family="Helvetica,sans-Serif" font-size="11.00">timestamp[29,6]</text>
<polygon fill="#ffffff" stroke="transparent" points="144,-39 144,-57 193,-57 193,-39 144,-39"/>
<polygon fill="none" stroke="black" points="144,-39 144,-57 193,-57 193,-39 144,-39"/>
<text text-anchor="start" x="147" y="-45.2" font-family="Helvetica,sans-Serif" font-size="11.00">&lt; 1</text>
<polygon fill="#ffffff" stroke="transparent" points="193,-39 193,-57 281,-57 281,-39 193,-39"/>
<polygon fill="none" stroke="black" points="193,-39 193,-57 281,-57 281,-39 193,-39"/>
<text text-anchor="start" x="223" y="-45.2" font-family="Helvetica,sans-Serif" font-size="11.00">2,996 rows</text>
<polygon fill="#ffffff" stroke="transparent" points="281,-39 281,-57 366,-57 366,-39 281,-39"/>
<polygon fill="none" stroke="black" points="281,-39 281,-57 366,-57 366,-39 281,-39"/>
<text text-anchor="start" x="347" y="-45.2" font-family="Helvetica,sans-Serif" font-size="11.00">2 &gt;</text>
<polygon fill="none" stroke="black" stroke-width="2" points="143,-38 143,-410 367,-410 367,-38 143,-38"/>
</a>
</g>
</g>
<!-- assets&#45;&gt;investments -->
<g id="edge1" class="edge">
<title>assets:w&#45;&gt;investments:e</title>
<path fill="none" stroke="black" d="M416.49,-466.65C387.42,-449.91 411.71,-376 367,-376"/>
<polygon fill="black" stroke="black" points="422.72,-468.14 429.66,-473.5 426.61,-469.07 430.5,-470 430.5,-470 430.5,-470 426.61,-469.07 431.34,-466.5 422.72,-468.14 422.72,-468.14"/>
<ellipse fill="none" stroke="black" cx="419.61" cy="-467.4" rx="3.2" ry="3.2"/>
</g>
<!-- sectors -->
<g id="node4" class="node">
<title>sectors</title>
<g id="a_node4"><a xlink:href="../../tables/sectors.html" xlink:title="sectors" target="_top">
<polygon fill="#ffffff" stroke="transparent" points="8,-285 8,-387 93,-387 93,-285 8,-285"/>
<polygon fill="#f5f5f5" stroke="transparent" points="8.5,-365 8.5,-387 93.5,-387 93.5,-365 8.5,-365"/>
<polygon fill="none" stroke="black" points="8.5,-365 8.5,-387 93.5,-387 93.5,-365 8.5,-365"/>
<text text-anchor="start" x="13.5" y="-374.2" font-family="Helvetica,sans-Serif" font-weight="bold" font-size="11.00">sectors</text>
<text text-anchor="start" x="58.5" y="-373.2" font-family="Helvetica,sans-Serif" font-size="11.00">[table]</text>
<polygon fill="none" stroke="black" points="8.5,-343 8.5,-365 93.5,-365 93.5,-343 8.5,-343"/>
<image xlink:href="../../images/primaryKeys.png" width="11px" height="12px" preserveAspectRatio="xMinYMin meet" x="13.5" y="-360"/>
<text text-anchor="start" x="28.5" y="-351.2" font-family="Helvetica,sans-Serif" font-size="11.00">id</text>
<polygon fill="#ffffff" stroke="transparent" points="8.5,-321 8.5,-343 93.5,-343 93.5,-321 8.5,-321"/>
<polygon fill="none" stroke="black" points="8.5,-321 8.5,-343 93.5,-343 93.5,-321 8.5,-321"/>
<text text-anchor="start" x="28.5" y="-329.2" font-family="Helvetica,sans-Serif" font-size="11.00">name</text>
<polygon fill="none" stroke="black" points="8.5,-303 8.5,-321 93.5,-321 93.5,-303 8.5,-303"/>
<text text-anchor="start" x="11.5" y="-309.2" font-family="Helvetica,sans-Serif" font-size="11.00">...</text>
<polygon fill="#ffffff" stroke="transparent" points="8.5,-285 8.5,-303 23.5,-303 23.5,-285 8.5,-285"/>
<polygon fill="none" stroke="black" points="8.5,-285 8.5,-303 23.5,-303 23.5,-285 8.5,-285"/>
<text text-anchor="start" x="11.5" y="-291.2" font-family="Helvetica,sans-Serif" font-size="11.00"> &#160;</text>
<polygon fill="#ffffff" stroke="transparent" points="23.5,-285 23.5,-303 70.5,-303 70.5,-285 23.5,-285"/>
<polygon fill="none" stroke="black" points="23.5,-285 23.5,-303 70.5,-303 70.5,-285 23.5,-285"/>
<text text-anchor="start" x="27.5" y="-291.2" font-family="Helvetica,sans-Serif" font-size="11.00">12 rows</text>
<polygon fill="#ffffff" stroke="transparent" points="70.5,-285 70.5,-303 93.5,-303 93.5,-285 70.5,-285"/>
<polygon fill="none" stroke="black" points="70.5,-285 70.5,-303 93.5,-303 93.5,-285 70.5,-285"/>
<text text-anchor="start" x="74.5" y="-291.2" font-family="Helvetica,sans-Serif" font-size="11.00">1 &gt;</text>
</a>
</g>
</g>
<!-- investments&#45;&gt;sectors -->
<g id="edge3" class="edge">
<title>investments:w&#45;&gt;sectors:e</title>
<path fill="none" stroke="black" d="M128.28,-354C117.29,-354 110.16,-354 94.5,-354"/>
<polygon fill="black" stroke="black" points="135,-354 143,-357.6 139,-354 143,-354 143,-354 143,-354 139,-354 143,-350.4 135,-354 135,-354"/>
<ellipse fill="none" stroke="black" cx="131.8" cy="-354" rx="3.2" ry="3.2"/>
</g>
<!-- folders_investments -->
<g id="node3" class="node">
<title>folders_investments</title>
<g id="a_node3"><a xlink:href="../../tables/folders_investments.html" xlink:title="folders_investments" target="_top">
<polygon fill="#ffffff" stroke="transparent" points="417,-252 417,-336 570,-336 570,-252 417,-252"/>
<polygon fill="#f5f5f5" stroke="transparent" points="417.5,-314 417.5,-336 570.5,-336 570.5,-314 417.5,-314"/>
<polygon fill="none" stroke="black" points="417.5,-314 417.5,-336 570.5,-336 570.5,-314 417.5,-314"/>
<text text-anchor="start" x="422.5" y="-323.2" font-family="Helvetica,sans-Serif" font-weight="bold" font-size="11.00">folders_investments</text>
<text text-anchor="start" x="535.5" y="-322.2" font-family="Helvetica,sans-Serif" font-size="11.00">[table]</text>
<polygon fill="none" stroke="black" points="417.5,-292 417.5,-314 570.5,-314 570.5,-292 417.5,-292"/>
<image xlink:href="../../images/primaryKeys.png" width="11px" height="12px" preserveAspectRatio="xMinYMin meet" x="422.5" y="-309"/>
<text text-anchor="start" x="445.5" y="-300.2" font-family="Helvetica,sans-Serif" font-size="11.00">folder_id</text>
<polygon fill="none" stroke="black" points="417.5,-270 417.5,-292 570.5,-292 570.5,-270 417.5,-270"/>
<image xlink:href="../../images/primaryKeys.png" width="11px" height="12px" preserveAspectRatio="xMinYMin meet" x="422.5" y="-287"/>
<text text-anchor="start" x="445.5" y="-278.2" font-family="Helvetica,sans-Serif" font-size="11.00">investment_id</text>
<polygon fill="#ffffff" stroke="transparent" points="417.5,-252 417.5,-270 467.5,-270 467.5,-252 417.5,-252"/>
<polygon fill="none" stroke="black" points="417.5,-252 417.5,-270 467.5,-270 467.5,-252 417.5,-252"/>
<text text-anchor="start" x="420.5" y="-258.2" font-family="Helvetica,sans-Serif" font-size="11.00">&lt; 2</text>
<polygon fill="#ffffff" stroke="transparent" points="467.5,-252 467.5,-270 542.5,-270 542.5,-252 467.5,-252"/>
<polygon fill="none" stroke="black" points="467.5,-252 467.5,-270 542.5,-270 542.5,-252 467.5,-252"/>
<text text-anchor="start" x="484.5" y="-258.2" font-family="Helvetica,sans-Serif" font-size="11.00">2,911 rows</text>
<polygon fill="#ffffff" stroke="transparent" points="542.5,-252 542.5,-270 570.5,-270 570.5,-252 542.5,-252"/>
<polygon fill="none" stroke="black" points="542.5,-252 542.5,-270 570.5,-270 570.5,-252 542.5,-252"/>
<text text-anchor="start" x="560.5" y="-258.2" font-family="Helvetica,sans-Serif" font-size="11.00"> &#160;</text>
</a>
</g>
</g>
<!-- folders_investments&#45;&gt;investments -->
<g id="edge2" class="edge">
<title>folders_investments:w&#45;&gt;investments:e</title>
<path fill="none" stroke="black" d="M402.66,-285.08C378.86,-303.27 408.66,-376 367,-376"/>
<polygon fill="black" stroke="black" points="408.83,-283.26 417.52,-284.45 412.66,-282.13 416.5,-281 416.5,-281 416.5,-281 412.66,-282.13 415.48,-277.55 408.83,-283.26 408.83,-283.26"/>
<ellipse fill="none" stroke="black" cx="405.76" cy="-284.17" rx="3.2" ry="3.2"/>
</g>
</g>
</svg>
