<?xml version="1.0" encoding="UTF-8" standalone="no"?>
<!DOCTYPE svg PUBLIC "-//W3C//DTD SVG 1.1//EN"
 "http://www.w3.org/Graphics/SVG/1.1/DTD/svg11.dtd">
<!-- Generated by graphviz version 2.50.0 (20211204.2007)
 -->
<!-- Title: twoDegreesRelationshipsDiagram Pages: 1 -->
<svg width="756pt" height="524pt"
 viewBox="0.00 0.00 756.00 524.00" xmlns="http://www.w3.org/2000/svg" xmlns:xlink="http://www.w3.org/1999/xlink">
<g id="graph0" class="graph" transform="scale(1 1) rotate(0) translate(4 520)">
<title>twoDegreesRelationshipsDiagram</title>
<polygon fill="#ffffff" stroke="transparent" points="-4,4 -4,-520 752,-520 752,4 -4,4"/>
<text text-anchor="middle" x="72.5" y="-7.2" font-family="Helvetica,sans-Serif" font-size="11.00">Generated by SchemaSpy</text>
<!-- assets -->
<g id="node1" class="node">
<title>assets</title>
<g id="a_node1"><a xlink:href="../../tables/assets.html" xlink:title="assets" target="_top">
<polygon fill="#ffffff" stroke="transparent" points="174,-357 174,-415 285,-415 285,-357 174,-357"/>
<polygon fill="#f5f5f5" stroke="transparent" points="174.5,-393 174.5,-415 285.5,-415 285.5,-393 174.5,-393"/>
<polygon fill="none" stroke="black" points="174.5,-393 174.5,-415 285.5,-415 285.5,-393 174.5,-393"/>
<text text-anchor="start" x="179.5" y="-402.2" font-family="Helvetica,sans-Serif" font-weight="bold" font-size="11.00">assets</text>
<text text-anchor="start" x="250.5" y="-401.2" font-family="Helvetica,sans-Serif" font-size="11.00">[table]</text>
<polygon fill="none" stroke="black" points="174.5,-375 174.5,-393 285.5,-393 285.5,-375 174.5,-375"/>
<text text-anchor="start" x="177.5" y="-381.2" font-family="Helvetica,sans-Serif" font-size="11.00">...</text>
<polygon fill="#ffffff" stroke="transparent" points="174.5,-357 174.5,-375 196.5,-375 196.5,-357 174.5,-357"/>
<polygon fill="none" stroke="black" points="174.5,-357 174.5,-375 196.5,-375 196.5,-357 174.5,-357"/>
<text text-anchor="start" x="177.5" y="-363.2" font-family="Helvetica,sans-Serif" font-size="11.00">&lt; 3</text>
<polygon fill="#ffffff" stroke="transparent" points="196.5,-357 196.5,-375 263.5,-375 263.5,-357 196.5,-357"/>
<polygon fill="none" stroke="black" points="196.5,-357 196.5,-375 263.5,-375 263.5,-357 196.5,-357"/>
<text text-anchor="start" x="199.5" y="-363.2" font-family="Helvetica,sans-Serif" font-size="11.00">78,452 rows</text>
<polygon fill="#ffffff" stroke="transparent" points="263.5,-357 263.5,-375 285.5,-375 285.5,-357 263.5,-357"/>
<polygon fill="none" stroke="black" points="263.5,-357 263.5,-375 285.5,-375 285.5,-357 263.5,-357"/>
<text text-anchor="start" x="266.5" y="-363.2" font-family="Helvetica,sans-Serif" font-size="11.00">4 &gt;</text>
</a>
</g>
</g>
<!-- ref_id -->
<g id="node2" class="node">
<title>ref_id</title>
<g id="a_node2"><a xlink:href="../../tables/ref_id.html" xlink:title="ref_id" target="_top">
<polygon fill="#ffffff" stroke="transparent" points="8,-310 8,-368 125,-368 125,-310 8,-310"/>
<polygon fill="#f5f5f5" stroke="transparent" points="8.5,-346 8.5,-368 125.5,-368 125.5,-346 8.5,-346"/>
<polygon fill="none" stroke="black" points="8.5,-346 8.5,-368 125.5,-368 125.5,-346 8.5,-346"/>
<text text-anchor="start" x="13.5" y="-355.2" font-family="Helvetica,sans-Serif" font-weight="bold" font-size="11.00">ref_id</text>
<text text-anchor="start" x="90.5" y="-354.2" font-family="Helvetica,sans-Serif" font-size="11.00">[table]</text>
<polygon fill="none" stroke="black" points="8.5,-328 8.5,-346 125.5,-346 125.5,-328 8.5,-328"/>
<text text-anchor="start" x="11.5" y="-334.2" font-family="Helvetica,sans-Serif" font-size="11.00">...</text>
<polygon fill="#ffffff" stroke="transparent" points="8.5,-310 8.5,-328 30.5,-328 30.5,-310 8.5,-310"/>
<polygon fill="none" stroke="black" points="8.5,-310 8.5,-328 30.5,-328 30.5,-310 8.5,-310"/>
<text text-anchor="start" x="11.5" y="-316.2" font-family="Helvetica,sans-Serif" font-size="11.00">&lt; 1</text>
<polygon fill="#ffffff" stroke="transparent" points="30.5,-310 30.5,-328 103.5,-328 103.5,-310 30.5,-310"/>
<polygon fill="none" stroke="black" points="30.5,-310 30.5,-328 103.5,-328 103.5,-310 30.5,-310"/>
<text text-anchor="start" x="33.5" y="-316.2" font-family="Helvetica,sans-Serif" font-size="11.00">140,067 rows</text>
<polygon fill="#ffffff" stroke="transparent" points="103.5,-310 103.5,-328 125.5,-328 125.5,-310 103.5,-310"/>
<polygon fill="none" stroke="black" points="103.5,-310 103.5,-328 125.5,-328 125.5,-310 103.5,-310"/>
<text text-anchor="start" x="106.5" y="-316.2" font-family="Helvetica,sans-Serif" font-size="11.00">2 &gt;</text>
</a>
</g>
</g>
<!-- assets&#45;&gt;ref_id -->
<g id="edge1" class="edge">
<title>assets:w&#45;&gt;ref_id:e</title>
<path fill="none" stroke="black" d="M163.28,-381.47C146.53,-371.71 151.89,-337 126.5,-337"/>
<polygon fill="black" stroke="black" points="173.68,-379.92 171.76,-387.69 170.21,-387.31 172.13,-379.54 173.68,-379.92"/>
<polyline fill="none" stroke="black" points="173.5,-384 169.62,-383.04 "/>
<ellipse fill="none" stroke="black" cx="166.51" cy="-382.27" rx="3.2" ry="3.2"/>
</g>
<!-- decadal_states -->
<g id="node3" class="node">
<title>decadal_states</title>
<g id="a_node3"><a xlink:href="../../tables/decadal_states.html" xlink:title="decadal_states" target="_top">
<polygon fill="#ffffff" stroke="transparent" points="606,-125 606,-183 730,-183 730,-125 606,-125"/>
<polygon fill="#f5f5f5" stroke="transparent" points="606,-161 606,-183 730,-183 730,-161 606,-161"/>
<polygon fill="none" stroke="black" points="606,-161 606,-183 730,-183 730,-161 606,-161"/>
<text text-anchor="start" x="611" y="-170.2" font-family="Helvetica,sans-Serif" font-weight="bold" font-size="11.00">decadal_states</text>
<text text-anchor="start" x="695" y="-169.2" font-family="Helvetica,sans-Serif" font-size="11.00">[table]</text>
<polygon fill="none" stroke="black" points="606,-143 606,-161 730,-161 730,-143 606,-143"/>
<text text-anchor="start" x="609" y="-149.2" font-family="Helvetica,sans-Serif" font-size="11.00">...</text>
<polygon fill="#ffffff" stroke="transparent" points="606,-125 606,-143 631,-143 631,-125 606,-125"/>
<polygon fill="none" stroke="black" points="606,-125 606,-143 631,-143 631,-125 606,-125"/>
<text text-anchor="start" x="609" y="-131.2" font-family="Helvetica,sans-Serif" font-size="11.00">&lt; 3</text>
<polygon fill="#ffffff" stroke="transparent" points="631,-125 631,-143 715,-143 715,-125 631,-125"/>
<polygon fill="none" stroke="black" points="631,-125 631,-143 715,-143 715,-125 631,-125"/>
<text text-anchor="start" x="636" y="-131.2" font-family="Helvetica,sans-Serif" font-size="11.00">7,749,532 rows</text>
<polygon fill="#ffffff" stroke="transparent" points="715,-125 715,-143 730,-143 730,-125 715,-125"/>
<polygon fill="none" stroke="black" points="715,-125 715,-143 730,-143 730,-125 715,-125"/>
<text text-anchor="start" x="720" y="-131.2" font-family="Helvetica,sans-Serif" font-size="11.00"> &#160;</text>
</a>
</g>
</g>
<!-- regions -->
<g id="node4" class="node">
<title>regions</title>
<g id="a_node4"><a xlink:href="../../tables/regions.html" xlink:title="regions" target="_top">
<polygon fill="#ffffff" stroke="transparent" points="397,-37 397,-139 484,-139 484,-37 397,-37"/>
<polygon fill="#f5f5f5" stroke="transparent" points="397.5,-117 397.5,-139 484.5,-139 484.5,-117 397.5,-117"/>
<polygon fill="none" stroke="black" points="397.5,-117 397.5,-139 484.5,-139 484.5,-117 397.5,-117"/>
<text text-anchor="start" x="402.5" y="-126.2" font-family="Helvetica,sans-Serif" font-weight="bold" font-size="11.00">regions</text>
<text text-anchor="start" x="449.5" y="-125.2" font-family="Helvetica,sans-Serif" font-size="11.00">[table]</text>
<polygon fill="none" stroke="black" points="397.5,-95 397.5,-117 484.5,-117 484.5,-95 397.5,-95"/>
<image xlink:href="../../images/primaryKeys.png" width="11px" height="12px" preserveAspectRatio="xMinYMin meet" x="402.5" y="-112"/>
<text text-anchor="start" x="417.5" y="-103.2" font-family="Helvetica,sans-Serif" font-size="11.00">id</text>
<polygon fill="#ffffff" stroke="transparent" points="397.5,-73 397.5,-95 484.5,-95 484.5,-73 397.5,-73"/>
<polygon fill="none" stroke="black" points="397.5,-73 397.5,-95 484.5,-95 484.5,-73 397.5,-73"/>
<text text-anchor="start" x="417.5" y="-81.2" font-family="Helvetica,sans-Serif" font-size="11.00">name_etl</text>
<polygon fill="none" stroke="black" points="397.5,-55 397.5,-73 484.5,-73 484.5,-55 397.5,-55"/>
<text text-anchor="start" x="400.5" y="-61.2" font-family="Helvetica,sans-Serif" font-size="11.00">...</text>
<polygon fill="#ffffff" stroke="transparent" points="397.5,-37 397.5,-55 416.5,-55 416.5,-37 397.5,-37"/>
<polygon fill="none" stroke="black" points="397.5,-37 397.5,-55 416.5,-55 416.5,-37 397.5,-37"/>
<text text-anchor="start" x="400.5" y="-43.2" font-family="Helvetica,sans-Serif" font-size="11.00"> &#160;</text>
<polygon fill="#ffffff" stroke="transparent" points="416.5,-37 416.5,-55 459.5,-55 459.5,-37 416.5,-37"/>
<polygon fill="none" stroke="black" points="416.5,-37 416.5,-55 459.5,-55 459.5,-37 416.5,-37"/>
<text text-anchor="start" x="422.5" y="-43.2" font-family="Helvetica,sans-Serif" font-size="11.00">5 rows</text>
<polygon fill="#ffffff" stroke="transparent" points="459.5,-37 459.5,-55 484.5,-55 484.5,-37 459.5,-37"/>
<polygon fill="none" stroke="black" points="459.5,-37 459.5,-55 484.5,-55 484.5,-37 459.5,-37"/>
<text text-anchor="start" x="465.5" y="-43.2" font-family="Helvetica,sans-Serif" font-size="11.00">3 &gt;</text>
</a>
</g>
</g>
<!-- decadal_states&#45;&gt;regions -->
<g id="edge2" class="edge">
<title>decadal_states:w&#45;&gt;regions:e</title>
<path fill="none" stroke="black" d="M590.54,-150.91C546.62,-143.94 537.19,-106 485.5,-106"/>
<polygon fill="black" stroke="black" points="597.02,-151.4 604.73,-155.59 601.01,-151.7 605,-152 605,-152 605,-152 601.01,-151.7 605.27,-148.41 597.02,-151.4 597.02,-151.4"/>
<ellipse fill="none" stroke="black" cx="593.83" cy="-151.16" rx="3.2" ry="3.2"/>
</g>
<!-- loc_grid_squares -->
<g id="node5" class="node">
<title>loc_grid_squares</title>
<g id="a_node5"><a xlink:href="../../tables/loc_grid_squares.html" xlink:title="loc_grid_squares" target="_top">
<polygon fill="#ffffff" stroke="transparent" points="600,-454 600,-512 736,-512 736,-454 600,-454"/>
<polygon fill="#f5f5f5" stroke="transparent" points="600,-490 600,-512 736,-512 736,-490 600,-490"/>
<polygon fill="none" stroke="black" points="600,-490 600,-512 736,-512 736,-490 600,-490"/>
<text text-anchor="start" x="605" y="-499.2" font-family="Helvetica,sans-Serif" font-weight="bold" font-size="11.00">loc_grid_squares</text>
<text text-anchor="start" x="701" y="-498.2" font-family="Helvetica,sans-Serif" font-size="11.00">[table]</text>
<polygon fill="none" stroke="black" points="600,-472 600,-490 736,-490 736,-472 600,-472"/>
<text text-anchor="start" x="603" y="-478.2" font-family="Helvetica,sans-Serif" font-size="11.00">...</text>
<polygon fill="#ffffff" stroke="transparent" points="600,-454 600,-472 639,-472 639,-454 600,-454"/>
<polygon fill="none" stroke="black" points="600,-454 600,-472 639,-472 639,-454 600,-454"/>
<text text-anchor="start" x="603" y="-460.2" font-family="Helvetica,sans-Serif" font-size="11.00">&lt; 2</text>
<polygon fill="#ffffff" stroke="transparent" points="639,-454 639,-472 714,-472 714,-454 639,-454"/>
<polygon fill="none" stroke="black" points="639,-454 639,-472 714,-472 714,-454 639,-454"/>
<text text-anchor="start" x="650" y="-460.2" font-family="Helvetica,sans-Serif" font-size="11.00">81,221 rows</text>
<polygon fill="#ffffff" stroke="transparent" points="714,-454 714,-472 736,-472 736,-454 714,-454"/>
<polygon fill="none" stroke="black" points="714,-454 714,-472 736,-472 736,-454 714,-454"/>
<text text-anchor="start" x="726" y="-460.2" font-family="Helvetica,sans-Serif" font-size="11.00"> &#160;</text>
</a>
</g>
</g>
<!-- locations -->
<g id="node6" class="node">
<title>locations</title>
<g id="a_node6"><a xlink:href="../../tables/locations.html" xlink:title="locations" target="_top">
<polygon fill="#ffffff" stroke="transparent" points="334,-160 334,-482 547,-482 547,-160 334,-160"/>
<polygon fill="#f5f5f5" stroke="transparent" points="334.5,-460 334.5,-482 547.5,-482 547.5,-460 334.5,-460"/>
<polygon fill="none" stroke="black" points="334.5,-460 334.5,-482 547.5,-482 547.5,-460 334.5,-460"/>
<text text-anchor="start" x="339.5" y="-469.2" font-family="Helvetica,sans-Serif" font-weight="bold" font-size="11.00">locations</text>
<text text-anchor="start" x="512.5" y="-468.2" font-family="Helvetica,sans-Serif" font-size="11.00">[table]</text>
<polygon fill="none" stroke="black" points="334.5,-438 334.5,-460 547.5,-460 547.5,-438 334.5,-438"/>
<image xlink:href="../../images/primaryKeys.png" width="11px" height="12px" preserveAspectRatio="xMinYMin meet" x="339.5" y="-455"/>
<text text-anchor="start" x="354.5" y="-446.2" font-family="Helvetica,sans-Serif" font-size="11.00">id</text>
<polygon fill="#ffffff" stroke="transparent" points="334.5,-416 334.5,-438 547.5,-438 547.5,-416 334.5,-416"/>
<polygon fill="none" stroke="black" points="334.5,-416 334.5,-438 547.5,-438 547.5,-416 334.5,-416"/>
<image xlink:href="../../images/foreignKeys.png" width="11px" height="12px" preserveAspectRatio="xMinYMin meet" x="339.5" y="-433"/>
<text text-anchor="start" x="354.5" y="-424.2" font-family="Helvetica,sans-Serif" font-size="11.00">asset_id</text>
<polygon fill="#ffffff" stroke="transparent" points="334.5,-394 334.5,-416 547.5,-416 547.5,-394 334.5,-394"/>
<polygon fill="none" stroke="black" points="334.5,-394 334.5,-416 547.5,-416 547.5,-394 334.5,-394"/>
<text text-anchor="start" x="354.5" y="-402.2" font-family="Helvetica,sans-Serif" font-size="11.00">name</text>
<polygon fill="#ffffff" stroke="transparent" points="334.5,-372 334.5,-394 547.5,-394 547.5,-372 334.5,-372"/>
<polygon fill="none" stroke="black" points="334.5,-372 334.5,-394 547.5,-394 547.5,-372 334.5,-372"/>
<text text-anchor="start" x="354.5" y="-380.2" font-family="Helvetica,sans-Serif" font-size="11.00">admin_area_level0</text>
<polygon fill="#ffffff" stroke="transparent" points="334.5,-350 334.5,-372 547.5,-372 547.5,-350 334.5,-350"/>
<polygon fill="none" stroke="black" points="334.5,-350 334.5,-372 547.5,-372 547.5,-350 334.5,-350"/>
<text text-anchor="start" x="354.5" y="-358.2" font-family="Helvetica,sans-Serif" font-size="11.00">admin_area_level1</text>
<polygon fill="#ffffff" stroke="transparent" points="334.5,-328 334.5,-350 547.5,-350 547.5,-328 334.5,-328"/>
<polygon fill="none" stroke="black" points="334.5,-328 334.5,-350 547.5,-350 547.5,-328 334.5,-328"/>
<text text-anchor="start" x="354.5" y="-336.2" font-family="Helvetica,sans-Serif" font-size="11.00">admin_area_level2</text>
<polygon fill="#ffffff" stroke="transparent" points="334.5,-306 334.5,-328 547.5,-328 547.5,-306 334.5,-306"/>
<polygon fill="none" stroke="black" points="334.5,-306 334.5,-328 547.5,-328 547.5,-306 334.5,-306"/>
<text text-anchor="start" x="354.5" y="-314.2" font-family="Helvetica,sans-Serif" font-size="11.00">proc_flag_loc_eval_risks</text>
<polygon fill="#ffffff" stroke="transparent" points="334.5,-284 334.5,-306 547.5,-306 547.5,-284 334.5,-284"/>
<polygon fill="none" stroke="black" points="334.5,-284 334.5,-306 547.5,-306 547.5,-284 334.5,-284"/>
<text text-anchor="start" x="354.5" y="-292.2" font-family="Helvetica,sans-Serif" font-size="11.00">proc_flag_loc_assign_gridded</text>
<polygon fill="#ffffff" stroke="transparent" points="334.5,-262 334.5,-284 547.5,-284 547.5,-262 334.5,-262"/>
<polygon fill="none" stroke="black" points="334.5,-262 334.5,-284 547.5,-284 547.5,-262 334.5,-262"/>
<text text-anchor="start" x="354.5" y="-270.2" font-family="Helvetica,sans-Serif" font-size="11.00">proc_flag_loc_assign_segmented</text>
<polygon fill="#ffffff" stroke="transparent" points="334.5,-240 334.5,-262 547.5,-262 547.5,-240 334.5,-240"/>
<polygon fill="none" stroke="black" points="334.5,-240 334.5,-262 547.5,-262 547.5,-240 334.5,-240"/>
<text text-anchor="start" x="354.5" y="-248.2" font-family="Helvetica,sans-Serif" font-size="11.00">proc_flag_loc_assign_point</text>
<polygon fill="#ffffff" stroke="transparent" points="334.5,-218 334.5,-240 547.5,-240 547.5,-218 334.5,-218"/>
<polygon fill="none" stroke="black" points="334.5,-218 334.5,-240 547.5,-240 547.5,-218 334.5,-218"/>
<text text-anchor="start" x="354.5" y="-226.2" font-family="Helvetica,sans-Serif" font-size="11.00">proc_flag_loc_assign_regional</text>
<polygon fill="#ffffff" stroke="transparent" points="334.5,-196 334.5,-218 547.5,-218 547.5,-196 334.5,-196"/>
<polygon fill="none" stroke="black" points="334.5,-196 334.5,-218 547.5,-218 547.5,-196 334.5,-196"/>
<image xlink:href="../../images/foreignKeys.png" width="11px" height="12px" preserveAspectRatio="xMinYMin meet" x="339.5" y="-213"/>
<text text-anchor="start" x="354.5" y="-204.2" font-family="Helvetica,sans-Serif" font-size="11.00">ref_id</text>
<polygon fill="none" stroke="black" points="334.5,-178 334.5,-196 547.5,-196 547.5,-178 334.5,-178"/>
<text text-anchor="start" x="337.5" y="-184.2" font-family="Helvetica,sans-Serif" font-size="11.00">...</text>
<polygon fill="#ffffff" stroke="transparent" points="334.5,-160 334.5,-178 407.5,-178 407.5,-160 334.5,-160"/>
<polygon fill="none" stroke="black" points="334.5,-160 334.5,-178 407.5,-178 407.5,-160 334.5,-160"/>
<text text-anchor="start" x="337.5" y="-166.2" font-family="Helvetica,sans-Serif" font-size="11.00">&lt; 2</text>
<polygon fill="#ffffff" stroke="transparent" points="407.5,-160 407.5,-178 499.5,-178 499.5,-160 407.5,-160"/>
<polygon fill="none" stroke="black" points="407.5,-160 407.5,-178 499.5,-178 499.5,-160 407.5,-160"/>
<text text-anchor="start" x="435.5" y="-166.2" font-family="Helvetica,sans-Serif" font-size="11.00">81,629 rows</text>
<polygon fill="#ffffff" stroke="transparent" points="499.5,-160 499.5,-178 547.5,-178 547.5,-160 499.5,-160"/>
<polygon fill="none" stroke="black" points="499.5,-160 499.5,-178 547.5,-178 547.5,-160 499.5,-160"/>
<text text-anchor="start" x="528.5" y="-166.2" font-family="Helvetica,sans-Serif" font-size="11.00">3 &gt;</text>
</a>
</g>
</g>
<!-- loc_grid_squares&#45;&gt;locations -->
<g id="edge3" class="edge">
<title>loc_grid_squares:w&#45;&gt;locations:e</title>
<path fill="none" stroke="black" d="M585.14,-477.08C572.19,-468.53 569.26,-449 548.5,-449"/>
<polygon fill="black" stroke="black" points="591.3,-478.82 598.02,-484.46 595.15,-479.91 599,-481 599,-481 599,-481 595.15,-479.91 599.98,-477.54 591.3,-478.82 591.3,-478.82"/>
<ellipse fill="none" stroke="black" cx="588.22" cy="-477.95" rx="3.2" ry="3.2"/>
</g>
<!-- locations&#45;&gt;assets -->
<g id="edge6" class="edge">
<title>locations:w&#45;&gt;assets:e</title>
<path fill="none" stroke="black" d="M319.94,-422.07C307.56,-410.77 308.84,-384 286.5,-384"/>
<polygon fill="black" stroke="black" points="325.98,-424.27 332.27,-430.38 329.74,-425.63 333.5,-427 333.5,-427 333.5,-427 329.74,-425.63 334.73,-423.62 325.98,-424.27 325.98,-424.27"/>
<ellipse fill="none" stroke="black" cx="322.97" cy="-423.17" rx="3.2" ry="3.2"/>
</g>
<!-- locations&#45;&gt;ref_id -->
<g id="edge7" class="edge">
<title>locations:w&#45;&gt;ref_id:e</title>
<path fill="none" stroke="black" d="M318.98,-207.83C225.56,-218.9 230.05,-337 126.5,-337"/>
<polygon fill="black" stroke="black" points="325.51,-207.46 333.71,-210.59 329.51,-207.23 333.5,-207 333.5,-207 333.5,-207 329.51,-207.23 333.29,-203.41 325.51,-207.46 325.51,-207.46"/>
<ellipse fill="none" stroke="black" cx="322.32" cy="-207.64" rx="3.2" ry="3.2"/>
</g>
<!-- loc_regions -->
<g id="node7" class="node">
<title>loc_regions</title>
<g id="a_node7"><a xlink:href="../../tables/loc_regions.html" xlink:title="loc_regions" target="_top">
<polygon fill="#ffffff" stroke="transparent" points="596,-217 596,-327 740,-327 740,-217 596,-217"/>
<polygon fill="#f5f5f5" stroke="transparent" points="598,-303 598,-325 738,-325 738,-303 598,-303"/>
<polygon fill="none" stroke="black" points="598,-303 598,-325 738,-325 738,-303 598,-303"/>
<text text-anchor="start" x="603" y="-312.2" font-family="Helvetica,sans-Serif" font-weight="bold" font-size="11.00">loc_regions</text>
<text text-anchor="start" x="703" y="-311.2" font-family="Helvetica,sans-Serif" font-size="11.00">[table]</text>
<polygon fill="none" stroke="black" points="598,-281 598,-303 687,-303 687,-281 598,-281"/>
<image xlink:href="../../images/primaryKeys.png" width="11px" height="12px" preserveAspectRatio="xMinYMin meet" x="603" y="-298"/>
<text text-anchor="start" x="619" y="-289.2" font-family="Helvetica,sans-Serif" font-size="11.00">id</text>
<polygon fill="none" stroke="black" points="687,-281 687,-303 738,-303 738,-281 687,-281"/>
<text text-anchor="start" x="690" y="-289.2" font-family="Helvetica,sans-Serif" font-size="11.00">serial[10]</text>
<polygon fill="#ffffff" stroke="transparent" points="598,-259 598,-281 687,-281 687,-259 598,-259"/>
<polygon fill="none" stroke="black" points="598,-259 598,-281 687,-281 687,-259 598,-259"/>
<image xlink:href="../../images/foreignKeys.png" width="11px" height="12px" preserveAspectRatio="xMinYMin meet" x="603" y="-276"/>
<text text-anchor="start" x="619" y="-267.2" font-family="Helvetica,sans-Serif" font-size="11.00">loc_id</text>
<polygon fill="none" stroke="black" points="687,-259 687,-281 738,-281 738,-259 687,-259"/>
<text text-anchor="start" x="690" y="-267.2" font-family="Helvetica,sans-Serif" font-size="11.00">int4[10]</text>
<polygon fill="none" stroke="black" points="598,-237 598,-259 687,-259 687,-237 598,-237"/>
<image xlink:href="../../images/foreignKeys.png" width="11px" height="12px" preserveAspectRatio="xMinYMin meet" x="603" y="-254"/>
<text text-anchor="start" x="619" y="-245.2" font-family="Helvetica,sans-Serif" font-size="11.00">region_id</text>
<polygon fill="none" stroke="black" points="687,-237 687,-259 738,-259 738,-237 687,-237"/>
<text text-anchor="start" x="690" y="-245.2" font-family="Helvetica,sans-Serif" font-size="11.00">int4[10]</text>
<polygon fill="#ffffff" stroke="transparent" points="598,-219 598,-237 620,-237 620,-219 598,-219"/>
<polygon fill="none" stroke="black" points="598,-219 598,-237 620,-237 620,-219 598,-219"/>
<text text-anchor="start" x="601" y="-225.2" font-family="Helvetica,sans-Serif" font-size="11.00">&lt; 2</text>
<polygon fill="#ffffff" stroke="transparent" points="620,-219 620,-237 687,-237 687,-219 620,-219"/>
<polygon fill="none" stroke="black" points="620,-219 620,-237 687,-237 687,-219 620,-219"/>
<text text-anchor="start" x="623" y="-225.2" font-family="Helvetica,sans-Serif" font-size="11.00">79,140 rows</text>
<polygon fill="#ffffff" stroke="transparent" points="687,-219 687,-237 738,-237 738,-219 687,-219"/>
<polygon fill="none" stroke="black" points="687,-219 687,-237 738,-237 738,-219 687,-219"/>
<text text-anchor="start" x="719" y="-225.2" font-family="Helvetica,sans-Serif" font-size="11.00">0 &gt;</text>
<polygon fill="none" stroke="black" stroke-width="2" points="597,-218 597,-326 739,-326 739,-218 597,-218"/>
</a>
</g>
</g>
<!-- loc_regions&#45;&gt;regions -->
<g id="edge5" class="edge">
<title>loc_regions:w&#45;&gt;regions:e</title>
<path fill="none" stroke="black" d="M582.85,-245.27C557.6,-232.92 581.89,-181.56 555,-150 531.29,-122.17 522.06,-106 485.5,-106"/>
<polygon fill="black" stroke="black" points="589.15,-246.48 596.32,-251.53 593.07,-247.24 597,-248 597,-248 597,-248 593.07,-247.24 597.68,-244.47 589.15,-246.48 589.15,-246.48"/>
<ellipse fill="none" stroke="black" cx="586" cy="-245.88" rx="3.2" ry="3.2"/>
</g>
<!-- loc_regions&#45;&gt;locations -->
<g id="edge4" class="edge">
<title>loc_regions:w&#45;&gt;locations:e</title>
<path fill="none" stroke="black" d="M586.3,-271.24C525.46,-287.05 626.9,-449 548.5,-449"/>
<polygon fill="black" stroke="black" points="595.75,-266.12 596.67,-274.07 595.08,-274.25 594.16,-266.3 595.75,-266.12"/>
<polyline fill="none" stroke="black" points="597,-270 593.03,-270.46 "/>
<ellipse fill="none" stroke="black" cx="589.85" cy="-270.83" rx="3.2" ry="3.2"/>
</g>
<!-- region_areas -->
<g id="node8" class="node">
<title>region_areas</title>
<g id="a_node8"><a xlink:href="../../tables/region_areas.html" xlink:title="region_areas" target="_top">
<polygon fill="#ffffff" stroke="transparent" points="611,-46 611,-104 725,-104 725,-46 611,-46"/>
<polygon fill="#f5f5f5" stroke="transparent" points="611,-82 611,-104 725,-104 725,-82 611,-82"/>
<polygon fill="none" stroke="black" points="611,-82 611,-104 725,-104 725,-82 611,-82"/>
<text text-anchor="start" x="616" y="-91.2" font-family="Helvetica,sans-Serif" font-weight="bold" font-size="11.00">region_areas</text>
<text text-anchor="start" x="690" y="-90.2" font-family="Helvetica,sans-Serif" font-size="11.00">[table]</text>
<polygon fill="none" stroke="black" points="611,-64 611,-82 725,-82 725,-64 611,-64"/>
<text text-anchor="start" x="614" y="-70.2" font-family="Helvetica,sans-Serif" font-size="11.00">...</text>
<polygon fill="#ffffff" stroke="transparent" points="611,-46 611,-64 646,-64 646,-46 611,-46"/>
<polygon fill="none" stroke="black" points="611,-46 611,-64 646,-64 646,-46 611,-46"/>
<text text-anchor="start" x="614" y="-52.2" font-family="Helvetica,sans-Serif" font-size="11.00">&lt; 1</text>
<polygon fill="#ffffff" stroke="transparent" points="646,-46 646,-64 705,-64 705,-46 646,-46"/>
<polygon fill="none" stroke="black" points="646,-46 646,-64 705,-64 705,-46 646,-46"/>
<text text-anchor="start" x="656" y="-52.2" font-family="Helvetica,sans-Serif" font-size="11.00">234 rows</text>
<polygon fill="#ffffff" stroke="transparent" points="705,-46 705,-64 725,-64 725,-46 705,-46"/>
<polygon fill="none" stroke="black" points="705,-46 705,-64 725,-64 725,-46 705,-46"/>
<text text-anchor="start" x="715" y="-52.2" font-family="Helvetica,sans-Serif" font-size="11.00"> &#160;</text>
</a>
</g>
</g>
<!-- region_areas&#45;&gt;regions -->
<g id="edge8" class="edge">
<title>region_areas:w&#45;&gt;regions:e</title>
<path fill="none" stroke="black" d="M595.36,-73.78C550.52,-78.78 537.49,-106 485.5,-106"/>
<polygon fill="black" stroke="black" points="602.01,-73.43 610.19,-76.59 606.01,-73.21 610,-73 610,-73 610,-73 606.01,-73.21 609.81,-69.41 602.01,-73.43 602.01,-73.43"/>
<ellipse fill="none" stroke="black" cx="598.82" cy="-73.6" rx="3.2" ry="3.2"/>
</g>
<!-- risks -->
<g id="node9" class="node">
<title>risks</title>
<g id="a_node9"><a xlink:href="../../tables/risks.html" xlink:title="risks" target="_top">
<polygon fill="#ffffff" stroke="transparent" points="606.5,-375 606.5,-433 729.5,-433 729.5,-375 606.5,-375"/>
<polygon fill="#f5f5f5" stroke="transparent" points="607,-411 607,-433 730,-433 730,-411 607,-411"/>
<polygon fill="none" stroke="black" points="607,-411 607,-433 730,-433 730,-411 607,-411"/>
<text text-anchor="start" x="612" y="-420.2" font-family="Helvetica,sans-Serif" font-weight="bold" font-size="11.00">risks</text>
<text text-anchor="start" x="695" y="-419.2" font-family="Helvetica,sans-Serif" font-size="11.00">[table]</text>
<polygon fill="none" stroke="black" points="607,-393 607,-411 730,-411 730,-393 607,-393"/>
<text text-anchor="start" x="610" y="-399.2" font-family="Helvetica,sans-Serif" font-size="11.00">...</text>
<polygon fill="#ffffff" stroke="transparent" points="607,-375 607,-393 629,-393 629,-375 607,-375"/>
<polygon fill="none" stroke="black" points="607,-375 607,-393 629,-393 629,-375 607,-375"/>
<text text-anchor="start" x="610" y="-381.2" font-family="Helvetica,sans-Serif" font-size="11.00">&lt; 3</text>
<polygon fill="#ffffff" stroke="transparent" points="629,-375 629,-393 717,-393 717,-375 629,-375"/>
<polygon fill="none" stroke="black" points="629,-375 629,-393 717,-393 717,-375 629,-375"/>
<text text-anchor="start" x="632" y="-381.2" font-family="Helvetica,sans-Serif" font-size="11.00">28,657,312 rows</text>
<polygon fill="#ffffff" stroke="transparent" points="717,-375 717,-393 730,-393 730,-375 717,-375"/>
<polygon fill="none" stroke="black" points="717,-375 717,-393 730,-393 730,-375 717,-375"/>
<text text-anchor="start" x="720" y="-381.2" font-family="Helvetica,sans-Serif" font-size="11.00"> &#160;</text>
</a>
</g>
</g>
<!-- risks&#45;&gt;locations -->
<g id="edge9" class="edge">
<title>risks:w&#45;&gt;locations:e</title>
<path fill="none" stroke="black" d="M591.75,-406.01C574.71,-417.37 575.58,-449 548.5,-449"/>
<polygon fill="black" stroke="black" points="598.3,-404.17 606.97,-405.47 602.15,-403.08 606,-402 606,-402 606,-402 602.15,-403.08 605.03,-398.53 598.3,-404.17 598.3,-404.17"/>
<ellipse fill="none" stroke="black" cx="595.22" cy="-405.03" rx="3.2" ry="3.2"/>
</g>
</g>
</svg>
