<?xml version="1.0" encoding="UTF-8" standalone="no"?>
<!DOCTYPE svg PUBLIC "-//W3C//DTD SVG 1.1//EN"
 "http://www.w3.org/Graphics/SVG/1.1/DTD/svg11.dtd">
<!-- Generated by graphviz version 2.50.0 (20211204.2007)
 -->
<!-- Title: oneDegreeRelationshipsDiagram Pages: 1 -->
<svg width="430pt" height="494pt"
 viewBox="0.00 0.00 430.00 494.00" xmlns="http://www.w3.org/2000/svg" xmlns:xlink="http://www.w3.org/1999/xlink">
<g id="graph0" class="graph" transform="scale(1 1) rotate(0) translate(4 490)">
<title>oneDegreeRelationshipsDiagram</title>
<polygon fill="#ffffff" stroke="transparent" points="-4,4 -4,-490 426,-490 426,4 -4,4"/>
<text text-anchor="middle" x="72.5" y="-7.2" font-family="Helvetica,sans-Serif" font-size="11.00">Generated by SchemaSpy</text>
<!-- loc_regions -->
<g id="node1" class="node">
<title>loc_regions</title>
<g id="a_node1"><a xlink:href="../../tables/loc_regions.html" xlink:title="loc_regions" target="_top">
<polygon fill="#ffffff" stroke="transparent" points="270,-235 270,-345 414,-345 414,-235 270,-235"/>
<polygon fill="#f5f5f5" stroke="transparent" points="272,-321 272,-343 412,-343 412,-321 272,-321"/>
<polygon fill="none" stroke="black" points="272,-321 272,-343 412,-343 412,-321 272,-321"/>
<text text-anchor="start" x="277" y="-330.2" font-family="Helvetica,sans-Serif" font-weight="bold" font-size="11.00">loc_regions</text>
<text text-anchor="start" x="377" y="-329.2" font-family="Helvetica,sans-Serif" font-size="11.00">[table]</text>
<polygon fill="none" stroke="black" points="272,-299 272,-321 361,-321 361,-299 272,-299"/>
<image xlink:href="../../images/primaryKeys.png" width="11px" height="12px" preserveAspectRatio="xMinYMin meet" x="277" y="-316"/>
<text text-anchor="start" x="293" y="-307.2" font-family="Helvetica,sans-Serif" font-size="11.00">id</text>
<polygon fill="none" stroke="black" points="361,-299 361,-321 412,-321 412,-299 361,-299"/>
<text text-anchor="start" x="364" y="-307.2" font-family="Helvetica,sans-Serif" font-size="11.00">serial[10]</text>
<polygon fill="#ffffff" stroke="transparent" points="272,-277 272,-299 361,-299 361,-277 272,-277"/>
<polygon fill="none" stroke="black" points="272,-277 272,-299 361,-299 361,-277 272,-277"/>
<image xlink:href="../../images/foreignKeys.png" width="11px" height="12px" preserveAspectRatio="xMinYMin meet" x="277" y="-294"/>
<text text-anchor="start" x="293" y="-285.2" font-family="Helvetica,sans-Serif" font-size="11.00">loc_id</text>
<polygon fill="none" stroke="black" points="361,-277 361,-299 412,-299 412,-277 361,-277"/>
<text text-anchor="start" x="364" y="-285.2" font-family="Helvetica,sans-Serif" font-size="11.00">int4[10]</text>
<polygon fill="none" stroke="black" points="272,-255 272,-277 361,-277 361,-255 272,-255"/>
<image xlink:href="../../images/foreignKeys.png" width="11px" height="12px" preserveAspectRatio="xMinYMin meet" x="277" y="-272"/>
<text text-anchor="start" x="293" y="-263.2" font-family="Helvetica,sans-Serif" font-size="11.00">region_id</text>
<polygon fill="none" stroke="black" points="361,-255 361,-277 412,-277 412,-255 361,-255"/>
<text text-anchor="start" x="364" y="-263.2" font-family="Helvetica,sans-Serif" font-size="11.00">int4[10]</text>
<polygon fill="#ffffff" stroke="transparent" points="272,-237 272,-255 294,-255 294,-237 272,-237"/>
<polygon fill="none" stroke="black" points="272,-237 272,-255 294,-255 294,-237 272,-237"/>
<text text-anchor="start" x="275" y="-243.2" font-family="Helvetica,sans-Serif" font-size="11.00">&lt; 2</text>
<polygon fill="#ffffff" stroke="transparent" points="294,-237 294,-255 361,-255 361,-237 294,-237"/>
<polygon fill="none" stroke="black" points="294,-237 294,-255 361,-255 361,-237 294,-237"/>
<text text-anchor="start" x="297" y="-243.2" font-family="Helvetica,sans-Serif" font-size="11.00">79,140 rows</text>
<polygon fill="#ffffff" stroke="transparent" points="361,-237 361,-255 412,-255 412,-237 361,-237"/>
<polygon fill="none" stroke="black" points="361,-237 361,-255 412,-255 412,-237 361,-237"/>
<text text-anchor="start" x="393" y="-243.2" font-family="Helvetica,sans-Serif" font-size="11.00">0 &gt;</text>
<polygon fill="none" stroke="black" stroke-width="2" points="271,-236 271,-344 413,-344 413,-236 271,-236"/>
</a>
</g>
</g>
<!-- locations -->
<g id="node2" class="node">
<title>locations</title>
<g id="a_node2"><a xlink:href="../../tables/locations.html" xlink:title="locations" target="_top">
<polygon fill="#ffffff" stroke="transparent" points="8,-160 8,-482 221,-482 221,-160 8,-160"/>
<polygon fill="#f5f5f5" stroke="transparent" points="8.5,-460 8.5,-482 221.5,-482 221.5,-460 8.5,-460"/>
<polygon fill="none" stroke="black" points="8.5,-460 8.5,-482 221.5,-482 221.5,-460 8.5,-460"/>
<text text-anchor="start" x="13.5" y="-469.2" font-family="Helvetica,sans-Serif" font-weight="bold" font-size="11.00">locations</text>
<text text-anchor="start" x="186.5" y="-468.2" font-family="Helvetica,sans-Serif" font-size="11.00">[table]</text>
<polygon fill="none" stroke="black" points="8.5,-438 8.5,-460 221.5,-460 221.5,-438 8.5,-438"/>
<image xlink:href="../../images/primaryKeys.png" width="11px" height="12px" preserveAspectRatio="xMinYMin meet" x="13.5" y="-455"/>
<text text-anchor="start" x="28.5" y="-446.2" font-family="Helvetica,sans-Serif" font-size="11.00">id</text>
<polygon fill="#ffffff" stroke="transparent" points="8.5,-416 8.5,-438 221.5,-438 221.5,-416 8.5,-416"/>
<polygon fill="none" stroke="black" points="8.5,-416 8.5,-438 221.5,-438 221.5,-416 8.5,-416"/>
<image xlink:href="../../images/foreignKeys.png" width="11px" height="12px" preserveAspectRatio="xMinYMin meet" x="13.5" y="-433"/>
<text text-anchor="start" x="28.5" y="-424.2" font-family="Helvetica,sans-Serif" font-size="11.00">asset_id</text>
<polygon fill="#ffffff" stroke="transparent" points="8.5,-394 8.5,-416 221.5,-416 221.5,-394 8.5,-394"/>
<polygon fill="none" stroke="black" points="8.5,-394 8.5,-416 221.5,-416 221.5,-394 8.5,-394"/>
<text text-anchor="start" x="28.5" y="-402.2" font-family="Helvetica,sans-Serif" font-size="11.00">name</text>
<polygon fill="#ffffff" stroke="transparent" points="8.5,-372 8.5,-394 221.5,-394 221.5,-372 8.5,-372"/>
<polygon fill="none" stroke="black" points="8.5,-372 8.5,-394 221.5,-394 221.5,-372 8.5,-372"/>
<text text-anchor="start" x="28.5" y="-380.2" font-family="Helvetica,sans-Serif" font-size="11.00">admin_area_level0</text>
<polygon fill="#ffffff" stroke="transparent" points="8.5,-350 8.5,-372 221.5,-372 221.5,-350 8.5,-350"/>
<polygon fill="none" stroke="black" points="8.5,-350 8.5,-372 221.5,-372 221.5,-350 8.5,-350"/>
<text text-anchor="start" x="28.5" y="-358.2" font-family="Helvetica,sans-Serif" font-size="11.00">admin_area_level1</text>
<polygon fill="#ffffff" stroke="transparent" points="8.5,-328 8.5,-350 221.5,-350 221.5,-328 8.5,-328"/>
<polygon fill="none" stroke="black" points="8.5,-328 8.5,-350 221.5,-350 221.5,-328 8.5,-328"/>
<text text-anchor="start" x="28.5" y="-336.2" font-family="Helvetica,sans-Serif" font-size="11.00">admin_area_level2</text>
<polygon fill="#ffffff" stroke="transparent" points="8.5,-306 8.5,-328 221.5,-328 221.5,-306 8.5,-306"/>
<polygon fill="none" stroke="black" points="8.5,-306 8.5,-328 221.5,-328 221.5,-306 8.5,-306"/>
<text text-anchor="start" x="28.5" y="-314.2" font-family="Helvetica,sans-Serif" font-size="11.00">proc_flag_loc_eval_risks</text>
<polygon fill="#ffffff" stroke="transparent" points="8.5,-284 8.5,-306 221.5,-306 221.5,-284 8.5,-284"/>
<polygon fill="none" stroke="black" points="8.5,-284 8.5,-306 221.5,-306 221.5,-284 8.5,-284"/>
<text text-anchor="start" x="28.5" y="-292.2" font-family="Helvetica,sans-Serif" font-size="11.00">proc_flag_loc_assign_gridded</text>
<polygon fill="#ffffff" stroke="transparent" points="8.5,-262 8.5,-284 221.5,-284 221.5,-262 8.5,-262"/>
<polygon fill="none" stroke="black" points="8.5,-262 8.5,-284 221.5,-284 221.5,-262 8.5,-262"/>
<text text-anchor="start" x="28.5" y="-270.2" font-family="Helvetica,sans-Serif" font-size="11.00">proc_flag_loc_assign_segmented</text>
<polygon fill="#ffffff" stroke="transparent" points="8.5,-240 8.5,-262 221.5,-262 221.5,-240 8.5,-240"/>
<polygon fill="none" stroke="black" points="8.5,-240 8.5,-262 221.5,-262 221.5,-240 8.5,-240"/>
<text text-anchor="start" x="28.5" y="-248.2" font-family="Helvetica,sans-Serif" font-size="11.00">proc_flag_loc_assign_point</text>
<polygon fill="#ffffff" stroke="transparent" points="8.5,-218 8.5,-240 221.5,-240 221.5,-218 8.5,-218"/>
<polygon fill="none" stroke="black" points="8.5,-218 8.5,-240 221.5,-240 221.5,-218 8.5,-218"/>
<text text-anchor="start" x="28.5" y="-226.2" font-family="Helvetica,sans-Serif" font-size="11.00">proc_flag_loc_assign_regional</text>
<polygon fill="#ffffff" stroke="transparent" points="8.5,-196 8.5,-218 221.5,-218 221.5,-196 8.5,-196"/>
<polygon fill="none" stroke="black" points="8.5,-196 8.5,-218 221.5,-218 221.5,-196 8.5,-196"/>
<image xlink:href="../../images/foreignKeys.png" width="11px" height="12px" preserveAspectRatio="xMinYMin meet" x="13.5" y="-213"/>
<text text-anchor="start" x="28.5" y="-204.2" font-family="Helvetica,sans-Serif" font-size="11.00">ref_id</text>
<polygon fill="none" stroke="black" points="8.5,-178 8.5,-196 221.5,-196 221.5,-178 8.5,-178"/>
<text text-anchor="start" x="11.5" y="-184.2" font-family="Helvetica,sans-Serif" font-size="11.00">...</text>
<polygon fill="#ffffff" stroke="transparent" points="8.5,-160 8.5,-178 81.5,-178 81.5,-160 8.5,-160"/>
<polygon fill="none" stroke="black" points="8.5,-160 8.5,-178 81.5,-178 81.5,-160 8.5,-160"/>
<text text-anchor="start" x="11.5" y="-166.2" font-family="Helvetica,sans-Serif" font-size="11.00">&lt; 2</text>
<polygon fill="#ffffff" stroke="transparent" points="81.5,-160 81.5,-178 173.5,-178 173.5,-160 81.5,-160"/>
<polygon fill="none" stroke="black" points="81.5,-160 81.5,-178 173.5,-178 173.5,-160 81.5,-160"/>
<text text-anchor="start" x="109.5" y="-166.2" font-family="Helvetica,sans-Serif" font-size="11.00">81,629 rows</text>
<polygon fill="#ffffff" stroke="transparent" points="173.5,-160 173.5,-178 221.5,-178 221.5,-160 173.5,-160"/>
<polygon fill="none" stroke="black" points="173.5,-160 173.5,-178 221.5,-178 221.5,-160 173.5,-160"/>
<text text-anchor="start" x="202.5" y="-166.2" font-family="Helvetica,sans-Serif" font-size="11.00">3 &gt;</text>
</a>
</g>
</g>
<!-- loc_regions&#45;&gt;locations -->
<g id="edge1" class="edge">
<title>loc_regions:w&#45;&gt;locations:e</title>
<path fill="none" stroke="black" d="M260.59,-289.3C206.43,-304.53 293.29,-449 222.5,-449"/>
<polygon fill="black" stroke="black" points="269.71,-284.13 270.7,-292.07 269.11,-292.27 268.12,-284.33 269.71,-284.13"/>
<polyline fill="none" stroke="black" points="271,-288 267.03,-288.49 "/>
<ellipse fill="none" stroke="black" cx="263.86" cy="-288.89" rx="3.2" ry="3.2"/>
</g>
<!-- regions -->
<g id="node3" class="node">
<title>regions</title>
<g id="a_node3"><a xlink:href="../../tables/regions.html" xlink:title="regions" target="_top">
<polygon fill="#ffffff" stroke="transparent" points="71,-37 71,-139 158,-139 158,-37 71,-37"/>
<polygon fill="#f5f5f5" stroke="transparent" points="71.5,-117 71.5,-139 158.5,-139 158.5,-117 71.5,-117"/>
<polygon fill="none" stroke="black" points="71.5,-117 71.5,-139 158.5,-139 158.5,-117 71.5,-117"/>
<text text-anchor="start" x="76.5" y="-126.2" font-family="Helvetica,sans-Serif" font-weight="bold" font-size="11.00">regions</text>
<text text-anchor="start" x="123.5" y="-125.2" font-family="Helvetica,sans-Serif" font-size="11.00">[table]</text>
<polygon fill="none" stroke="black" points="71.5,-95 71.5,-117 158.5,-117 158.5,-95 71.5,-95"/>
<image xlink:href="../../images/primaryKeys.png" width="11px" height="12px" preserveAspectRatio="xMinYMin meet" x="76.5" y="-112"/>
<text text-anchor="start" x="91.5" y="-103.2" font-family="Helvetica,sans-Serif" font-size="11.00">id</text>
<polygon fill="#ffffff" stroke="transparent" points="71.5,-73 71.5,-95 158.5,-95 158.5,-73 71.5,-73"/>
<polygon fill="none" stroke="black" points="71.5,-73 71.5,-95 158.5,-95 158.5,-73 71.5,-73"/>
<text text-anchor="start" x="91.5" y="-81.2" font-family="Helvetica,sans-Serif" font-size="11.00">name_etl</text>
<polygon fill="none" stroke="black" points="71.5,-55 71.5,-73 158.5,-73 158.5,-55 71.5,-55"/>
<text text-anchor="start" x="74.5" y="-61.2" font-family="Helvetica,sans-Serif" font-size="11.00">...</text>
<polygon fill="#ffffff" stroke="transparent" points="71.5,-37 71.5,-55 90.5,-55 90.5,-37 71.5,-37"/>
<polygon fill="none" stroke="black" points="71.5,-37 71.5,-55 90.5,-55 90.5,-37 71.5,-37"/>
<text text-anchor="start" x="74.5" y="-43.2" font-family="Helvetica,sans-Serif" font-size="11.00"> &#160;</text>
<polygon fill="#ffffff" stroke="transparent" points="90.5,-37 90.5,-55 133.5,-55 133.5,-37 90.5,-37"/>
<polygon fill="none" stroke="black" points="90.5,-37 90.5,-55 133.5,-55 133.5,-37 90.5,-37"/>
<text text-anchor="start" x="96.5" y="-43.2" font-family="Helvetica,sans-Serif" font-size="11.00">5 rows</text>
<polygon fill="#ffffff" stroke="transparent" points="133.5,-37 133.5,-55 158.5,-55 158.5,-37 133.5,-37"/>
<polygon fill="none" stroke="black" points="133.5,-37 133.5,-55 158.5,-55 158.5,-37 133.5,-37"/>
<text text-anchor="start" x="139.5" y="-43.2" font-family="Helvetica,sans-Serif" font-size="11.00">3 &gt;</text>
</a>
</g>
</g>
<!-- loc_regions&#45;&gt;regions -->
<g id="edge2" class="edge">
<title>loc_regions:w&#45;&gt;regions:e</title>
<path fill="none" stroke="black" d="M256.43,-263.51C225.51,-250.34 259.59,-188.07 229,-150 206.1,-121.5 196.06,-106 159.5,-106"/>
<polygon fill="black" stroke="black" points="263.11,-264.65 270.39,-269.55 267.06,-265.33 271,-266 271,-266 271,-266 267.06,-265.33 271.61,-262.45 263.11,-264.65 263.11,-264.65"/>
<ellipse fill="none" stroke="black" cx="259.96" cy="-264.11" rx="3.2" ry="3.2"/>
</g>
</g>
</svg>
