<?xml version="1.0" encoding="UTF-8" standalone="no"?>
<!DOCTYPE svg PUBLIC "-//W3C//DTD SVG 1.1//EN"
 "http://www.w3.org/Graphics/SVG/1.1/DTD/svg11.dtd">
<!-- Generated by graphviz version 2.50.0 (20211204.2007)
 -->
<!-- Title: twoDegreesRelationshipsDiagram Pages: 1 -->
<svg width="824pt" height="641pt"
 viewBox="0.00 0.00 824.00 641.00" xmlns="http://www.w3.org/2000/svg" xmlns:xlink="http://www.w3.org/1999/xlink">
<g id="graph0" class="graph" transform="scale(1 1) rotate(0) translate(4 637)">
<title>twoDegreesRelationshipsDiagram</title>
<polygon fill="#ffffff" stroke="transparent" points="-4,4 -4,-637 820,-637 820,4 -4,4"/>
<text text-anchor="middle" x="72.5" y="-7.2" font-family="Helvetica,sans-Serif" font-size="11.00">Generated by SchemaSpy</text>
<!-- assets -->
<g id="node1" class="node">
<title>assets</title>
<g id="a_node1"><a xlink:href="../../tables/assets.html" xlink:title="assets" target="_top">
<polygon fill="#ffffff" stroke="transparent" points="174,-467 174,-525 285,-525 285,-467 174,-467"/>
<polygon fill="#f5f5f5" stroke="transparent" points="174.5,-503 174.5,-525 285.5,-525 285.5,-503 174.5,-503"/>
<polygon fill="none" stroke="black" points="174.5,-503 174.5,-525 285.5,-525 285.5,-503 174.5,-503"/>
<text text-anchor="start" x="179.5" y="-512.2" font-family="Helvetica,sans-Serif" font-weight="bold" font-size="11.00">assets</text>
<text text-anchor="start" x="250.5" y="-511.2" font-family="Helvetica,sans-Serif" font-size="11.00">[table]</text>
<polygon fill="none" stroke="black" points="174.5,-485 174.5,-503 285.5,-503 285.5,-485 174.5,-485"/>
<text text-anchor="start" x="177.5" y="-491.2" font-family="Helvetica,sans-Serif" font-size="11.00">...</text>
<polygon fill="#ffffff" stroke="transparent" points="174.5,-467 174.5,-485 196.5,-485 196.5,-467 174.5,-467"/>
<polygon fill="none" stroke="black" points="174.5,-467 174.5,-485 196.5,-485 196.5,-467 174.5,-467"/>
<text text-anchor="start" x="177.5" y="-473.2" font-family="Helvetica,sans-Serif" font-size="11.00">&lt; 3</text>
<polygon fill="#ffffff" stroke="transparent" points="196.5,-467 196.5,-485 263.5,-485 263.5,-467 196.5,-467"/>
<polygon fill="none" stroke="black" points="196.5,-467 196.5,-485 263.5,-485 263.5,-467 196.5,-467"/>
<text text-anchor="start" x="199.5" y="-473.2" font-family="Helvetica,sans-Serif" font-size="11.00">78,452 rows</text>
<polygon fill="#ffffff" stroke="transparent" points="263.5,-467 263.5,-485 285.5,-485 285.5,-467 263.5,-467"/>
<polygon fill="none" stroke="black" points="263.5,-467 263.5,-485 285.5,-485 285.5,-467 263.5,-467"/>
<text text-anchor="start" x="266.5" y="-473.2" font-family="Helvetica,sans-Serif" font-size="11.00">4 &gt;</text>
</a>
</g>
</g>
<!-- ref_id -->
<g id="node2" class="node">
<title>ref_id</title>
<g id="a_node2"><a xlink:href="../../tables/ref_id.html" xlink:title="ref_id" target="_top">
<polygon fill="#ffffff" stroke="transparent" points="8,-420 8,-478 125,-478 125,-420 8,-420"/>
<polygon fill="#f5f5f5" stroke="transparent" points="8.5,-456 8.5,-478 125.5,-478 125.5,-456 8.5,-456"/>
<polygon fill="none" stroke="black" points="8.5,-456 8.5,-478 125.5,-478 125.5,-456 8.5,-456"/>
<text text-anchor="start" x="13.5" y="-465.2" font-family="Helvetica,sans-Serif" font-weight="bold" font-size="11.00">ref_id</text>
<text text-anchor="start" x="90.5" y="-464.2" font-family="Helvetica,sans-Serif" font-size="11.00">[table]</text>
<polygon fill="none" stroke="black" points="8.5,-438 8.5,-456 125.5,-456 125.5,-438 8.5,-438"/>
<text text-anchor="start" x="11.5" y="-444.2" font-family="Helvetica,sans-Serif" font-size="11.00">...</text>
<polygon fill="#ffffff" stroke="transparent" points="8.5,-420 8.5,-438 30.5,-438 30.5,-420 8.5,-420"/>
<polygon fill="none" stroke="black" points="8.5,-420 8.5,-438 30.5,-438 30.5,-420 8.5,-420"/>
<text text-anchor="start" x="11.5" y="-426.2" font-family="Helvetica,sans-Serif" font-size="11.00">&lt; 1</text>
<polygon fill="#ffffff" stroke="transparent" points="30.5,-420 30.5,-438 103.5,-438 103.5,-420 30.5,-420"/>
<polygon fill="none" stroke="black" points="30.5,-420 30.5,-438 103.5,-438 103.5,-420 30.5,-420"/>
<text text-anchor="start" x="33.5" y="-426.2" font-family="Helvetica,sans-Serif" font-size="11.00">140,067 rows</text>
<polygon fill="#ffffff" stroke="transparent" points="103.5,-420 103.5,-438 125.5,-438 125.5,-420 103.5,-420"/>
<polygon fill="none" stroke="black" points="103.5,-420 103.5,-438 125.5,-438 125.5,-420 103.5,-420"/>
<text text-anchor="start" x="106.5" y="-426.2" font-family="Helvetica,sans-Serif" font-size="11.00">2 &gt;</text>
</a>
</g>
</g>
<!-- assets&#45;&gt;ref_id -->
<g id="edge1" class="edge">
<title>assets:w&#45;&gt;ref_id:e</title>
<path fill="none" stroke="black" d="M163.28,-491.47C146.53,-481.71 151.89,-447 126.5,-447"/>
<polygon fill="black" stroke="black" points="173.68,-489.92 171.76,-497.69 170.21,-497.31 172.13,-489.54 173.68,-489.92"/>
<polyline fill="none" stroke="black" points="173.5,-494 169.62,-493.04 "/>
<ellipse fill="none" stroke="black" cx="166.51" cy="-492.27" rx="3.2" ry="3.2"/>
</g>
<!-- grid_squares -->
<g id="node3" class="node">
<title>grid_squares</title>
<g id="a_node3"><a xlink:href="../../tables/grid_squares.html" xlink:title="grid_squares" target="_top">
<polygon fill="#ffffff" stroke="transparent" points="334,-37 334,-249 584,-249 584,-37 334,-37"/>
<polygon fill="#f5f5f5" stroke="transparent" points="334,-227 334,-249 584,-249 584,-227 334,-227"/>
<polygon fill="none" stroke="black" points="334,-227 334,-249 584,-249 584,-227 334,-227"/>
<text text-anchor="start" x="339" y="-236.2" font-family="Helvetica,sans-Serif" font-weight="bold" font-size="11.00">grid_squares</text>
<text text-anchor="start" x="549" y="-235.2" font-family="Helvetica,sans-Serif" font-size="11.00">[table]</text>
<polygon fill="none" stroke="black" points="334,-205 334,-227 584,-227 584,-205 334,-205"/>
<image xlink:href="../../images/primaryKeys.png" width="11px" height="12px" preserveAspectRatio="xMinYMin meet" x="339" y="-222"/>
<text text-anchor="start" x="354" y="-213.2" font-family="Helvetica,sans-Serif" font-size="11.00">id</text>
<polygon fill="#ffffff" stroke="transparent" points="334,-183 334,-205 584,-205 584,-183 334,-183"/>
<polygon fill="none" stroke="black" points="334,-183 334,-205 584,-205 584,-183 334,-183"/>
<image xlink:href="../../images/foreignKeys.png" width="11px" height="12px" preserveAspectRatio="xMinYMin meet" x="339" y="-200"/>
<text text-anchor="start" x="354" y="-191.2" font-family="Helvetica,sans-Serif" font-size="11.00">grid_id</text>
<polygon fill="#ffffff" stroke="transparent" points="334,-161 334,-183 584,-183 584,-161 334,-161"/>
<polygon fill="none" stroke="black" points="334,-161 334,-183 584,-183 584,-161 334,-161"/>
<text text-anchor="start" x="354" y="-169.2" font-family="Helvetica,sans-Serif" font-size="11.00">serial_lngid</text>
<polygon fill="#ffffff" stroke="transparent" points="334,-139 334,-161 584,-161 584,-139 334,-139"/>
<polygon fill="none" stroke="black" points="334,-139 334,-161 584,-161 584,-139 334,-139"/>
<text text-anchor="start" x="354" y="-147.2" font-family="Helvetica,sans-Serif" font-size="11.00">serial_latid</text>
<polygon fill="#ffffff" stroke="transparent" points="334,-117 334,-139 584,-139 584,-117 334,-117"/>
<polygon fill="none" stroke="black" points="334,-117 334,-139 584,-139 584,-117 334,-117"/>
<text text-anchor="start" x="354" y="-125.2" font-family="Helvetica,sans-Serif" font-size="11.00">name_etl</text>
<polygon fill="#ffffff" stroke="transparent" points="334,-95 334,-117 584,-117 584,-95 334,-95"/>
<polygon fill="none" stroke="black" points="334,-95 334,-117 584,-117 584,-95 334,-95"/>
<text text-anchor="start" x="354" y="-103.2" font-family="Helvetica,sans-Serif" font-size="11.00">version</text>
<polygon fill="#ffffff" stroke="transparent" points="334,-73 334,-95 584,-95 584,-73 334,-73"/>
<polygon fill="none" stroke="black" points="334,-73 334,-95 584,-95 584,-73 334,-73"/>
<text text-anchor="start" x="354" y="-81.2" font-family="Helvetica,sans-Serif" font-size="11.00">proc_flag_gridsquare_has_current_data</text>
<polygon fill="none" stroke="black" points="334,-55 334,-73 584,-73 584,-55 334,-55"/>
<text text-anchor="start" x="337" y="-61.2" font-family="Helvetica,sans-Serif" font-size="11.00">...</text>
<polygon fill="#ffffff" stroke="transparent" points="334,-37 334,-55 422,-55 422,-37 334,-37"/>
<polygon fill="none" stroke="black" points="334,-37 334,-55 422,-55 422,-37 334,-37"/>
<text text-anchor="start" x="337" y="-43.2" font-family="Helvetica,sans-Serif" font-size="11.00">&lt; 1</text>
<polygon fill="#ffffff" stroke="transparent" points="422,-37 422,-55 528,-55 528,-37 422,-37"/>
<polygon fill="none" stroke="black" points="422,-37 422,-55 528,-55 528,-37 422,-37"/>
<text text-anchor="start" x="458" y="-43.2" font-family="Helvetica,sans-Serif" font-size="11.00">698,835 rows</text>
<polygon fill="#ffffff" stroke="transparent" points="528,-37 528,-55 584,-55 584,-37 528,-37"/>
<polygon fill="none" stroke="black" points="528,-37 528,-55 584,-55 584,-37 528,-37"/>
<text text-anchor="start" x="565" y="-43.2" font-family="Helvetica,sans-Serif" font-size="11.00">1 &gt;</text>
</a>
</g>
</g>
<!-- grids -->
<g id="node4" class="node">
<title>grids</title>
<g id="a_node4"><a xlink:href="../../tables/grids.html" xlink:title="grids" target="_top">
<polygon fill="#ffffff" stroke="transparent" points="192,-167 192,-225 267,-225 267,-167 192,-167"/>
<polygon fill="#f5f5f5" stroke="transparent" points="192.5,-203 192.5,-225 267.5,-225 267.5,-203 192.5,-203"/>
<polygon fill="none" stroke="black" points="192.5,-203 192.5,-225 267.5,-225 267.5,-203 192.5,-203"/>
<text text-anchor="start" x="197.5" y="-212.2" font-family="Helvetica,sans-Serif" font-weight="bold" font-size="11.00">grids</text>
<text text-anchor="start" x="232.5" y="-211.2" font-family="Helvetica,sans-Serif" font-size="11.00">[table]</text>
<polygon fill="none" stroke="black" points="192.5,-185 192.5,-203 267.5,-203 267.5,-185 192.5,-185"/>
<text text-anchor="start" x="195.5" y="-191.2" font-family="Helvetica,sans-Serif" font-size="11.00">...</text>
<polygon fill="#ffffff" stroke="transparent" points="192.5,-167 192.5,-185 205.5,-185 205.5,-167 192.5,-167"/>
<polygon fill="none" stroke="black" points="192.5,-167 192.5,-185 205.5,-185 205.5,-167 192.5,-167"/>
<text text-anchor="start" x="195.5" y="-173.2" font-family="Helvetica,sans-Serif" font-size="11.00"> &#160;</text>
<polygon fill="#ffffff" stroke="transparent" points="205.5,-167 205.5,-185 245.5,-185 245.5,-167 205.5,-167"/>
<polygon fill="none" stroke="black" points="205.5,-167 205.5,-185 245.5,-185 245.5,-167 205.5,-167"/>
<text text-anchor="start" x="208.5" y="-173.2" font-family="Helvetica,sans-Serif" font-size="11.00">2 rows</text>
<polygon fill="#ffffff" stroke="transparent" points="245.5,-167 245.5,-185 267.5,-185 267.5,-167 245.5,-167"/>
<polygon fill="none" stroke="black" points="245.5,-167 245.5,-185 267.5,-185 267.5,-167 245.5,-167"/>
<text text-anchor="start" x="248.5" y="-173.2" font-family="Helvetica,sans-Serif" font-size="11.00">1 &gt;</text>
</a>
</g>
</g>
<!-- grid_squares&#45;&gt;grids -->
<g id="edge2" class="edge">
<title>grid_squares:w&#45;&gt;grids:e</title>
<path fill="none" stroke="black" d="M318.34,-194C300.71,-194 291.57,-194 268.5,-194"/>
<polygon fill="black" stroke="black" points="325,-194 333,-197.6 329,-194 333,-194 333,-194 333,-194 329,-194 333,-190.4 325,-194 325,-194"/>
<ellipse fill="none" stroke="black" cx="321.8" cy="-194" rx="3.2" ry="3.2"/>
</g>
<!-- loc_grid_squares -->
<g id="node5" class="node">
<title>loc_grid_squares</title>
<g id="a_node5"><a xlink:href="../../tables/loc_grid_squares.html" xlink:title="loc_grid_squares" target="_top">
<polygon fill="#ffffff" stroke="transparent" points="633,-253 633,-363 808,-363 808,-253 633,-253"/>
<polygon fill="#f5f5f5" stroke="transparent" points="635.5,-339 635.5,-361 806.5,-361 806.5,-339 635.5,-339"/>
<polygon fill="none" stroke="black" points="635.5,-339 635.5,-361 806.5,-361 806.5,-339 635.5,-339"/>
<text text-anchor="start" x="640.5" y="-348.2" font-family="Helvetica,sans-Serif" font-weight="bold" font-size="11.00">loc_grid_squares</text>
<text text-anchor="start" x="771.5" y="-347.2" font-family="Helvetica,sans-Serif" font-size="11.00">[table]</text>
<polygon fill="none" stroke="black" points="635.5,-317 635.5,-339 755.5,-339 755.5,-317 635.5,-317"/>
<image xlink:href="../../images/primaryKeys.png" width="11px" height="12px" preserveAspectRatio="xMinYMin meet" x="640.5" y="-334"/>
<text text-anchor="start" x="655.5" y="-325.2" font-family="Helvetica,sans-Serif" font-size="11.00">id</text>
<polygon fill="none" stroke="black" points="755.5,-317 755.5,-339 806.5,-339 806.5,-317 755.5,-317"/>
<text text-anchor="start" x="758.5" y="-325.2" font-family="Helvetica,sans-Serif" font-size="11.00">serial[10]</text>
<polygon fill="#ffffff" stroke="transparent" points="635.5,-295 635.5,-317 755.5,-317 755.5,-295 635.5,-295"/>
<polygon fill="none" stroke="black" points="635.5,-295 635.5,-317 755.5,-317 755.5,-295 635.5,-295"/>
<image xlink:href="../../images/foreignKeys.png" width="11px" height="12px" preserveAspectRatio="xMinYMin meet" x="640.5" y="-312"/>
<text text-anchor="start" x="655.5" y="-303.2" font-family="Helvetica,sans-Serif" font-size="11.00">loc_id</text>
<polygon fill="none" stroke="black" points="755.5,-295 755.5,-317 806.5,-317 806.5,-295 755.5,-295"/>
<text text-anchor="start" x="758.5" y="-303.2" font-family="Helvetica,sans-Serif" font-size="11.00">int4[10]</text>
<polygon fill="#ffffff" stroke="transparent" points="635.5,-273 635.5,-295 755.5,-295 755.5,-273 635.5,-273"/>
<polygon fill="none" stroke="black" points="635.5,-273 635.5,-295 755.5,-295 755.5,-273 635.5,-273"/>
<image xlink:href="../../images/foreignKeys.png" width="11px" height="12px" preserveAspectRatio="xMinYMin meet" x="640.5" y="-290"/>
<text text-anchor="start" x="655.5" y="-281.2" font-family="Helvetica,sans-Serif" font-size="11.00">grid_square_id</text>
<polygon fill="none" stroke="black" points="755.5,-273 755.5,-295 806.5,-295 806.5,-273 755.5,-273"/>
<text text-anchor="start" x="758.5" y="-281.2" font-family="Helvetica,sans-Serif" font-size="11.00">int4[10]</text>
<polygon fill="#ffffff" stroke="transparent" points="635.5,-255 635.5,-273 672.5,-273 672.5,-255 635.5,-255"/>
<polygon fill="none" stroke="black" points="635.5,-255 635.5,-273 672.5,-273 672.5,-255 635.5,-255"/>
<text text-anchor="start" x="638.5" y="-261.2" font-family="Helvetica,sans-Serif" font-size="11.00">&lt; 2</text>
<polygon fill="#ffffff" stroke="transparent" points="672.5,-255 672.5,-273 755.5,-273 755.5,-255 672.5,-255"/>
<polygon fill="none" stroke="black" points="672.5,-255 672.5,-273 755.5,-273 755.5,-255 672.5,-255"/>
<text text-anchor="start" x="691.5" y="-261.2" font-family="Helvetica,sans-Serif" font-size="11.00">81,221 rows</text>
<polygon fill="#ffffff" stroke="transparent" points="755.5,-255 755.5,-273 806.5,-273 806.5,-255 755.5,-255"/>
<polygon fill="none" stroke="black" points="755.5,-255 755.5,-273 806.5,-273 806.5,-255 755.5,-255"/>
<text text-anchor="start" x="787.5" y="-261.2" font-family="Helvetica,sans-Serif" font-size="11.00">0 &gt;</text>
<polygon fill="none" stroke="black" stroke-width="2" points="634,-254 634,-362 807,-362 807,-254 634,-254"/>
</a>
</g>
</g>
<!-- loc_grid_squares&#45;&gt;grid_squares -->
<g id="edge3" class="edge">
<title>loc_grid_squares:w&#45;&gt;grid_squares:e</title>
<path fill="none" stroke="black" d="M620.61,-279.11C603.72,-263.52 616.25,-216 585,-216"/>
<polygon fill="black" stroke="black" points="626.95,-281.34 633.3,-287.4 630.73,-282.67 634.5,-284 634.5,-284 634.5,-284 630.73,-282.67 635.7,-280.6 626.95,-281.34 626.95,-281.34"/>
<ellipse fill="none" stroke="black" cx="623.94" cy="-280.28" rx="3.2" ry="3.2"/>
</g>
<!-- locations -->
<g id="node6" class="node">
<title>locations</title>
<g id="a_node6"><a xlink:href="../../tables/locations.html" xlink:title="locations" target="_top">
<polygon fill="#ffffff" stroke="transparent" points="352.5,-270 352.5,-592 565.5,-592 565.5,-270 352.5,-270"/>
<polygon fill="#f5f5f5" stroke="transparent" points="353,-570 353,-592 566,-592 566,-570 353,-570"/>
<polygon fill="none" stroke="black" points="353,-570 353,-592 566,-592 566,-570 353,-570"/>
<text text-anchor="start" x="358" y="-579.2" font-family="Helvetica,sans-Serif" font-weight="bold" font-size="11.00">locations</text>
<text text-anchor="start" x="531" y="-578.2" font-family="Helvetica,sans-Serif" font-size="11.00">[table]</text>
<polygon fill="none" stroke="black" points="353,-548 353,-570 566,-570 566,-548 353,-548"/>
<image xlink:href="../../images/primaryKeys.png" width="11px" height="12px" preserveAspectRatio="xMinYMin meet" x="358" y="-565"/>
<text text-anchor="start" x="373" y="-556.2" font-family="Helvetica,sans-Serif" font-size="11.00">id</text>
<polygon fill="#ffffff" stroke="transparent" points="353,-526 353,-548 566,-548 566,-526 353,-526"/>
<polygon fill="none" stroke="black" points="353,-526 353,-548 566,-548 566,-526 353,-526"/>
<image xlink:href="../../images/foreignKeys.png" width="11px" height="12px" preserveAspectRatio="xMinYMin meet" x="358" y="-543"/>
<text text-anchor="start" x="373" y="-534.2" font-family="Helvetica,sans-Serif" font-size="11.00">asset_id</text>
<polygon fill="#ffffff" stroke="transparent" points="353,-504 353,-526 566,-526 566,-504 353,-504"/>
<polygon fill="none" stroke="black" points="353,-504 353,-526 566,-526 566,-504 353,-504"/>
<text text-anchor="start" x="373" y="-512.2" font-family="Helvetica,sans-Serif" font-size="11.00">name</text>
<polygon fill="#ffffff" stroke="transparent" points="353,-482 353,-504 566,-504 566,-482 353,-482"/>
<polygon fill="none" stroke="black" points="353,-482 353,-504 566,-504 566,-482 353,-482"/>
<text text-anchor="start" x="373" y="-490.2" font-family="Helvetica,sans-Serif" font-size="11.00">admin_area_level0</text>
<polygon fill="#ffffff" stroke="transparent" points="353,-460 353,-482 566,-482 566,-460 353,-460"/>
<polygon fill="none" stroke="black" points="353,-460 353,-482 566,-482 566,-460 353,-460"/>
<text text-anchor="start" x="373" y="-468.2" font-family="Helvetica,sans-Serif" font-size="11.00">admin_area_level1</text>
<polygon fill="#ffffff" stroke="transparent" points="353,-438 353,-460 566,-460 566,-438 353,-438"/>
<polygon fill="none" stroke="black" points="353,-438 353,-460 566,-460 566,-438 353,-438"/>
<text text-anchor="start" x="373" y="-446.2" font-family="Helvetica,sans-Serif" font-size="11.00">admin_area_level2</text>
<polygon fill="#ffffff" stroke="transparent" points="353,-416 353,-438 566,-438 566,-416 353,-416"/>
<polygon fill="none" stroke="black" points="353,-416 353,-438 566,-438 566,-416 353,-416"/>
<text text-anchor="start" x="373" y="-424.2" font-family="Helvetica,sans-Serif" font-size="11.00">proc_flag_loc_eval_risks</text>
<polygon fill="#ffffff" stroke="transparent" points="353,-394 353,-416 566,-416 566,-394 353,-394"/>
<polygon fill="none" stroke="black" points="353,-394 353,-416 566,-416 566,-394 353,-394"/>
<text text-anchor="start" x="373" y="-402.2" font-family="Helvetica,sans-Serif" font-size="11.00">proc_flag_loc_assign_gridded</text>
<polygon fill="#ffffff" stroke="transparent" points="353,-372 353,-394 566,-394 566,-372 353,-372"/>
<polygon fill="none" stroke="black" points="353,-372 353,-394 566,-394 566,-372 353,-372"/>
<text text-anchor="start" x="373" y="-380.2" font-family="Helvetica,sans-Serif" font-size="11.00">proc_flag_loc_assign_segmented</text>
<polygon fill="#ffffff" stroke="transparent" points="353,-350 353,-372 566,-372 566,-350 353,-350"/>
<polygon fill="none" stroke="black" points="353,-350 353,-372 566,-372 566,-350 353,-350"/>
<text text-anchor="start" x="373" y="-358.2" font-family="Helvetica,sans-Serif" font-size="11.00">proc_flag_loc_assign_point</text>
<polygon fill="#ffffff" stroke="transparent" points="353,-328 353,-350 566,-350 566,-328 353,-328"/>
<polygon fill="none" stroke="black" points="353,-328 353,-350 566,-350 566,-328 353,-328"/>
<text text-anchor="start" x="373" y="-336.2" font-family="Helvetica,sans-Serif" font-size="11.00">proc_flag_loc_assign_regional</text>
<polygon fill="#ffffff" stroke="transparent" points="353,-306 353,-328 566,-328 566,-306 353,-306"/>
<polygon fill="none" stroke="black" points="353,-306 353,-328 566,-328 566,-306 353,-306"/>
<image xlink:href="../../images/foreignKeys.png" width="11px" height="12px" preserveAspectRatio="xMinYMin meet" x="358" y="-323"/>
<text text-anchor="start" x="373" y="-314.2" font-family="Helvetica,sans-Serif" font-size="11.00">ref_id</text>
<polygon fill="none" stroke="black" points="353,-288 353,-306 566,-306 566,-288 353,-288"/>
<text text-anchor="start" x="356" y="-294.2" font-family="Helvetica,sans-Serif" font-size="11.00">...</text>
<polygon fill="#ffffff" stroke="transparent" points="353,-270 353,-288 426,-288 426,-270 353,-270"/>
<polygon fill="none" stroke="black" points="353,-270 353,-288 426,-288 426,-270 353,-270"/>
<text text-anchor="start" x="356" y="-276.2" font-family="Helvetica,sans-Serif" font-size="11.00">&lt; 2</text>
<polygon fill="#ffffff" stroke="transparent" points="426,-270 426,-288 518,-288 518,-270 426,-270"/>
<polygon fill="none" stroke="black" points="426,-270 426,-288 518,-288 518,-270 426,-270"/>
<text text-anchor="start" x="454" y="-276.2" font-family="Helvetica,sans-Serif" font-size="11.00">81,629 rows</text>
<polygon fill="#ffffff" stroke="transparent" points="518,-270 518,-288 566,-288 566,-270 518,-270"/>
<polygon fill="none" stroke="black" points="518,-270 518,-288 566,-288 566,-270 518,-270"/>
<text text-anchor="start" x="547" y="-276.2" font-family="Helvetica,sans-Serif" font-size="11.00">3 &gt;</text>
</a>
</g>
</g>
<!-- loc_grid_squares&#45;&gt;locations -->
<g id="edge4" class="edge">
<title>loc_grid_squares:w&#45;&gt;locations:e</title>
<path fill="none" stroke="black" d="M619.93,-307.62C533,-329.16 677.92,-559 567,-559"/>
<polygon fill="black" stroke="black" points="626.55,-306.88 634.9,-309.58 630.52,-306.44 634.5,-306 634.5,-306 634.5,-306 630.52,-306.44 634.1,-302.42 626.55,-306.88 626.55,-306.88"/>
<ellipse fill="none" stroke="black" cx="623.37" cy="-307.23" rx="3.2" ry="3.2"/>
</g>
<!-- locations&#45;&gt;assets -->
<g id="edge6" class="edge">
<title>locations:w&#45;&gt;assets:e</title>
<path fill="none" stroke="black" d="M337.66,-533.91C317.49,-524.05 315.61,-494 286.5,-494"/>
<polygon fill="black" stroke="black" points="344.18,-535.31 351.24,-540.52 348.09,-536.16 352,-537 352,-537 352,-537 348.09,-536.16 352.76,-533.48 344.18,-535.31 344.18,-535.31"/>
<ellipse fill="none" stroke="black" cx="341.05" cy="-534.64" rx="3.2" ry="3.2"/>
</g>
<!-- locations&#45;&gt;ref_id -->
<g id="edge7" class="edge">
<title>locations:w&#45;&gt;ref_id:e</title>
<path fill="none" stroke="black" d="M337.43,-317.73C236.6,-328.17 237.1,-447 126.5,-447"/>
<polygon fill="black" stroke="black" points="344.01,-317.4 352.18,-320.6 348.01,-317.2 352,-317 352,-317 352,-317 348.01,-317.2 351.82,-313.4 344.01,-317.4 344.01,-317.4"/>
<ellipse fill="none" stroke="black" cx="340.81" cy="-317.56" rx="3.2" ry="3.2"/>
</g>
<!-- loc_regions -->
<g id="node7" class="node">
<title>loc_regions</title>
<g id="a_node7"><a xlink:href="../../tables/loc_regions.html" xlink:title="loc_regions" target="_top">
<polygon fill="#ffffff" stroke="transparent" points="667,-571 667,-629 774,-629 774,-571 667,-571"/>
<polygon fill="#f5f5f5" stroke="transparent" points="667.5,-607 667.5,-629 774.5,-629 774.5,-607 667.5,-607"/>
<polygon fill="none" stroke="black" points="667.5,-607 667.5,-629 774.5,-629 774.5,-607 667.5,-607"/>
<text text-anchor="start" x="672.5" y="-616.2" font-family="Helvetica,sans-Serif" font-weight="bold" font-size="11.00">loc_regions</text>
<text text-anchor="start" x="739.5" y="-615.2" font-family="Helvetica,sans-Serif" font-size="11.00">[table]</text>
<polygon fill="none" stroke="black" points="667.5,-589 667.5,-607 774.5,-607 774.5,-589 667.5,-589"/>
<text text-anchor="start" x="670.5" y="-595.2" font-family="Helvetica,sans-Serif" font-size="11.00">...</text>
<polygon fill="#ffffff" stroke="transparent" points="667.5,-571 667.5,-589 691.5,-589 691.5,-571 667.5,-571"/>
<polygon fill="none" stroke="black" points="667.5,-571 667.5,-589 691.5,-589 691.5,-571 667.5,-571"/>
<text text-anchor="start" x="670.5" y="-577.2" font-family="Helvetica,sans-Serif" font-size="11.00">&lt; 2</text>
<polygon fill="#ffffff" stroke="transparent" points="691.5,-571 691.5,-589 759.5,-589 759.5,-571 691.5,-571"/>
<polygon fill="none" stroke="black" points="691.5,-571 691.5,-589 759.5,-589 759.5,-571 691.5,-571"/>
<text text-anchor="start" x="695.5" y="-577.2" font-family="Helvetica,sans-Serif" font-size="11.00">79,140 rows</text>
<polygon fill="#ffffff" stroke="transparent" points="759.5,-571 759.5,-589 774.5,-589 774.5,-571 759.5,-571"/>
<polygon fill="none" stroke="black" points="759.5,-571 759.5,-589 774.5,-589 774.5,-571 759.5,-571"/>
<text text-anchor="start" x="764.5" y="-577.2" font-family="Helvetica,sans-Serif" font-size="11.00"> &#160;</text>
</a>
</g>
</g>
<!-- loc_regions&#45;&gt;locations -->
<g id="edge5" class="edge">
<title>loc_regions:w&#45;&gt;locations:e</title>
<path fill="none" stroke="black" d="M656.11,-597.32C618.04,-592.14 610.79,-559 567,-559"/>
<polygon fill="black" stroke="black" points="665.96,-593.96 665.44,-601.94 663.84,-601.84 664.37,-593.85 665.96,-593.96"/>
<polyline fill="none" stroke="black" points="666.5,-598 662.51,-597.74 "/>
<ellipse fill="none" stroke="black" cx="659.32" cy="-597.53" rx="3.2" ry="3.2"/>
</g>
<!-- risks -->
<g id="node8" class="node">
<title>risks</title>
<g id="a_node8"><a xlink:href="../../tables/risks.html" xlink:title="risks" target="_top">
<polygon fill="#ffffff" stroke="transparent" points="659,-492 659,-550 782,-550 782,-492 659,-492"/>
<polygon fill="#f5f5f5" stroke="transparent" points="659.5,-528 659.5,-550 782.5,-550 782.5,-528 659.5,-528"/>
<polygon fill="none" stroke="black" points="659.5,-528 659.5,-550 782.5,-550 782.5,-528 659.5,-528"/>
<text text-anchor="start" x="664.5" y="-537.2" font-family="Helvetica,sans-Serif" font-weight="bold" font-size="11.00">risks</text>
<text text-anchor="start" x="747.5" y="-536.2" font-family="Helvetica,sans-Serif" font-size="11.00">[table]</text>
<polygon fill="none" stroke="black" points="659.5,-510 659.5,-528 782.5,-528 782.5,-510 659.5,-510"/>
<text text-anchor="start" x="662.5" y="-516.2" font-family="Helvetica,sans-Serif" font-size="11.00">...</text>
<polygon fill="#ffffff" stroke="transparent" points="659.5,-492 659.5,-510 681.5,-510 681.5,-492 659.5,-492"/>
<polygon fill="none" stroke="black" points="659.5,-492 659.5,-510 681.5,-510 681.5,-492 659.5,-492"/>
<text text-anchor="start" x="662.5" y="-498.2" font-family="Helvetica,sans-Serif" font-size="11.00">&lt; 3</text>
<polygon fill="#ffffff" stroke="transparent" points="681.5,-492 681.5,-510 769.5,-510 769.5,-492 681.5,-492"/>
<polygon fill="none" stroke="black" points="681.5,-492 681.5,-510 769.5,-510 769.5,-492 681.5,-492"/>
<text text-anchor="start" x="684.5" y="-498.2" font-family="Helvetica,sans-Serif" font-size="11.00">28,657,312 rows</text>
<polygon fill="#ffffff" stroke="transparent" points="769.5,-492 769.5,-510 782.5,-510 782.5,-492 769.5,-492"/>
<polygon fill="none" stroke="black" points="769.5,-492 769.5,-510 782.5,-510 782.5,-492 769.5,-492"/>
<text text-anchor="start" x="772.5" y="-498.2" font-family="Helvetica,sans-Serif" font-size="11.00"> &#160;</text>
</a>
</g>
</g>
<!-- risks&#45;&gt;locations -->
<g id="edge8" class="edge">
<title>risks:w&#45;&gt;locations:e</title>
<path fill="none" stroke="black" d="M644.06,-520.62C612.84,-528.1 606.01,-559 567,-559"/>
<polygon fill="black" stroke="black" points="650.55,-519.89 658.9,-522.58 654.52,-519.45 658.5,-519 658.5,-519 658.5,-519 654.52,-519.45 658.1,-515.42 650.55,-519.89 650.55,-519.89"/>
<ellipse fill="none" stroke="black" cx="647.37" cy="-520.25" rx="3.2" ry="3.2"/>
</g>
</g>
</svg>
