<?xml version="1.0" encoding="UTF-8" standalone="no"?>
<!DOCTYPE svg PUBLIC "-//W3C//DTD SVG 1.1//EN"
 "http://www.w3.org/Graphics/SVG/1.1/DTD/svg11.dtd">
<!-- Generated by graphviz version 2.50.0 (20211204.2007)
 -->
<!-- Title: oneDegreeRelationshipsDiagram Pages: 1 -->
<svg width="498pt" height="604pt"
 viewBox="0.00 0.00 498.00 604.00" xmlns="http://www.w3.org/2000/svg" xmlns:xlink="http://www.w3.org/1999/xlink">
<g id="graph0" class="graph" transform="scale(1 1) rotate(0) translate(4 600)">
<title>oneDegreeRelationshipsDiagram</title>
<polygon fill="#ffffff" stroke="transparent" points="-4,4 -4,-600 494,-600 494,4 -4,4"/>
<text text-anchor="middle" x="72.5" y="-7.2" font-family="Helvetica,sans-Serif" font-size="11.00">Generated by SchemaSpy</text>
<!-- loc_grid_squares -->
<g id="node1" class="node">
<title>loc_grid_squares</title>
<g id="a_node1"><a xlink:href="../../tables/loc_grid_squares.html" xlink:title="loc_grid_squares" target="_top">
<polygon fill="#ffffff" stroke="transparent" points="307,-345 307,-455 482,-455 482,-345 307,-345"/>
<polygon fill="#f5f5f5" stroke="transparent" points="309.5,-431 309.5,-453 480.5,-453 480.5,-431 309.5,-431"/>
<polygon fill="none" stroke="black" points="309.5,-431 309.5,-453 480.5,-453 480.5,-431 309.5,-431"/>
<text text-anchor="start" x="314.5" y="-440.2" font-family="Helvetica,sans-Serif" font-weight="bold" font-size="11.00">loc_grid_squares</text>
<text text-anchor="start" x="445.5" y="-439.2" font-family="Helvetica,sans-Serif" font-size="11.00">[table]</text>
<polygon fill="none" stroke="black" points="309.5,-409 309.5,-431 429.5,-431 429.5,-409 309.5,-409"/>
<image xlink:href="../../images/primaryKeys.png" width="11px" height="12px" preserveAspectRatio="xMinYMin meet" x="314.5" y="-426"/>
<text text-anchor="start" x="329.5" y="-417.2" font-family="Helvetica,sans-Serif" font-size="11.00">id</text>
<polygon fill="none" stroke="black" points="429.5,-409 429.5,-431 480.5,-431 480.5,-409 429.5,-409"/>
<text text-anchor="start" x="432.5" y="-417.2" font-family="Helvetica,sans-Serif" font-size="11.00">serial[10]</text>
<polygon fill="#ffffff" stroke="transparent" points="309.5,-387 309.5,-409 429.5,-409 429.5,-387 309.5,-387"/>
<polygon fill="none" stroke="black" points="309.5,-387 309.5,-409 429.5,-409 429.5,-387 309.5,-387"/>
<image xlink:href="../../images/foreignKeys.png" width="11px" height="12px" preserveAspectRatio="xMinYMin meet" x="314.5" y="-404"/>
<text text-anchor="start" x="329.5" y="-395.2" font-family="Helvetica,sans-Serif" font-size="11.00">loc_id</text>
<polygon fill="none" stroke="black" points="429.5,-387 429.5,-409 480.5,-409 480.5,-387 429.5,-387"/>
<text text-anchor="start" x="432.5" y="-395.2" font-family="Helvetica,sans-Serif" font-size="11.00">int4[10]</text>
<polygon fill="#ffffff" stroke="transparent" points="309.5,-365 309.5,-387 429.5,-387 429.5,-365 309.5,-365"/>
<polygon fill="none" stroke="black" points="309.5,-365 309.5,-387 429.5,-387 429.5,-365 309.5,-365"/>
<image xlink:href="../../images/foreignKeys.png" width="11px" height="12px" preserveAspectRatio="xMinYMin meet" x="314.5" y="-382"/>
<text text-anchor="start" x="329.5" y="-373.2" font-family="Helvetica,sans-Serif" font-size="11.00">grid_square_id</text>
<polygon fill="none" stroke="black" points="429.5,-365 429.5,-387 480.5,-387 480.5,-365 429.5,-365"/>
<text text-anchor="start" x="432.5" y="-373.2" font-family="Helvetica,sans-Serif" font-size="11.00">int4[10]</text>
<polygon fill="#ffffff" stroke="transparent" points="309.5,-347 309.5,-365 346.5,-365 346.5,-347 309.5,-347"/>
<polygon fill="none" stroke="black" points="309.5,-347 309.5,-365 346.5,-365 346.5,-347 309.5,-347"/>
<text text-anchor="start" x="312.5" y="-353.2" font-family="Helvetica,sans-Serif" font-size="11.00">&lt; 2</text>
<polygon fill="#ffffff" stroke="transparent" points="346.5,-347 346.5,-365 429.5,-365 429.5,-347 346.5,-347"/>
<polygon fill="none" stroke="black" points="346.5,-347 346.5,-365 429.5,-365 429.5,-347 346.5,-347"/>
<text text-anchor="start" x="365.5" y="-353.2" font-family="Helvetica,sans-Serif" font-size="11.00">81,221 rows</text>
<polygon fill="#ffffff" stroke="transparent" points="429.5,-347 429.5,-365 480.5,-365 480.5,-347 429.5,-347"/>
<polygon fill="none" stroke="black" points="429.5,-347 429.5,-365 480.5,-365 480.5,-347 429.5,-347"/>
<text text-anchor="start" x="461.5" y="-353.2" font-family="Helvetica,sans-Serif" font-size="11.00">0 &gt;</text>
<polygon fill="none" stroke="black" stroke-width="2" points="308,-346 308,-454 481,-454 481,-346 308,-346"/>
</a>
</g>
</g>
<!-- grid_squares -->
<g id="node2" class="node">
<title>grid_squares</title>
<g id="a_node2"><a xlink:href="../../tables/grid_squares.html" xlink:title="grid_squares" target="_top">
<polygon fill="#ffffff" stroke="transparent" points="8,-37 8,-249 258,-249 258,-37 8,-37"/>
<polygon fill="#f5f5f5" stroke="transparent" points="8,-227 8,-249 258,-249 258,-227 8,-227"/>
<polygon fill="none" stroke="black" points="8,-227 8,-249 258,-249 258,-227 8,-227"/>
<text text-anchor="start" x="13" y="-236.2" font-family="Helvetica,sans-Serif" font-weight="bold" font-size="11.00">grid_squares</text>
<text text-anchor="start" x="223" y="-235.2" font-family="Helvetica,sans-Serif" font-size="11.00">[table]</text>
<polygon fill="none" stroke="black" points="8,-205 8,-227 258,-227 258,-205 8,-205"/>
<image xlink:href="../../images/primaryKeys.png" width="11px" height="12px" preserveAspectRatio="xMinYMin meet" x="13" y="-222"/>
<text text-anchor="start" x="28" y="-213.2" font-family="Helvetica,sans-Serif" font-size="11.00">id</text>
<polygon fill="#ffffff" stroke="transparent" points="8,-183 8,-205 258,-205 258,-183 8,-183"/>
<polygon fill="none" stroke="black" points="8,-183 8,-205 258,-205 258,-183 8,-183"/>
<image xlink:href="../../images/foreignKeys.png" width="11px" height="12px" preserveAspectRatio="xMinYMin meet" x="13" y="-200"/>
<text text-anchor="start" x="28" y="-191.2" font-family="Helvetica,sans-Serif" font-size="11.00">grid_id</text>
<polygon fill="#ffffff" stroke="transparent" points="8,-161 8,-183 258,-183 258,-161 8,-161"/>
<polygon fill="none" stroke="black" points="8,-161 8,-183 258,-183 258,-161 8,-161"/>
<text text-anchor="start" x="28" y="-169.2" font-family="Helvetica,sans-Serif" font-size="11.00">serial_lngid</text>
<polygon fill="#ffffff" stroke="transparent" points="8,-139 8,-161 258,-161 258,-139 8,-139"/>
<polygon fill="none" stroke="black" points="8,-139 8,-161 258,-161 258,-139 8,-139"/>
<text text-anchor="start" x="28" y="-147.2" font-family="Helvetica,sans-Serif" font-size="11.00">serial_latid</text>
<polygon fill="#ffffff" stroke="transparent" points="8,-117 8,-139 258,-139 258,-117 8,-117"/>
<polygon fill="none" stroke="black" points="8,-117 8,-139 258,-139 258,-117 8,-117"/>
<text text-anchor="start" x="28" y="-125.2" font-family="Helvetica,sans-Serif" font-size="11.00">name_etl</text>
<polygon fill="#ffffff" stroke="transparent" points="8,-95 8,-117 258,-117 258,-95 8,-95"/>
<polygon fill="none" stroke="black" points="8,-95 8,-117 258,-117 258,-95 8,-95"/>
<text text-anchor="start" x="28" y="-103.2" font-family="Helvetica,sans-Serif" font-size="11.00">version</text>
<polygon fill="#ffffff" stroke="transparent" points="8,-73 8,-95 258,-95 258,-73 8,-73"/>
<polygon fill="none" stroke="black" points="8,-73 8,-95 258,-95 258,-73 8,-73"/>
<text text-anchor="start" x="28" y="-81.2" font-family="Helvetica,sans-Serif" font-size="11.00">proc_flag_gridsquare_has_current_data</text>
<polygon fill="none" stroke="black" points="8,-55 8,-73 258,-73 258,-55 8,-55"/>
<text text-anchor="start" x="11" y="-61.2" font-family="Helvetica,sans-Serif" font-size="11.00">...</text>
<polygon fill="#ffffff" stroke="transparent" points="8,-37 8,-55 96,-55 96,-37 8,-37"/>
<polygon fill="none" stroke="black" points="8,-37 8,-55 96,-55 96,-37 8,-37"/>
<text text-anchor="start" x="11" y="-43.2" font-family="Helvetica,sans-Serif" font-size="11.00">&lt; 1</text>
<polygon fill="#ffffff" stroke="transparent" points="96,-37 96,-55 202,-55 202,-37 96,-37"/>
<polygon fill="none" stroke="black" points="96,-37 96,-55 202,-55 202,-37 96,-37"/>
<text text-anchor="start" x="132" y="-43.2" font-family="Helvetica,sans-Serif" font-size="11.00">698,835 rows</text>
<polygon fill="#ffffff" stroke="transparent" points="202,-37 202,-55 258,-55 258,-37 202,-37"/>
<polygon fill="none" stroke="black" points="202,-37 202,-55 258,-55 258,-37 202,-37"/>
<text text-anchor="start" x="239" y="-43.2" font-family="Helvetica,sans-Serif" font-size="11.00">1 &gt;</text>
</a>
</g>
</g>
<!-- loc_grid_squares&#45;&gt;grid_squares -->
<g id="edge1" class="edge">
<title>loc_grid_squares:w&#45;&gt;grid_squares:e</title>
<path fill="none" stroke="black" d="M294.07,-373.22C248.53,-351.98 327.62,-216 259,-216"/>
<polygon fill="black" stroke="black" points="300.64,-374.49 307.82,-379.54 304.57,-375.24 308.5,-376 308.5,-376 308.5,-376 304.57,-375.24 309.18,-372.46 300.64,-374.49 300.64,-374.49"/>
<ellipse fill="none" stroke="black" cx="297.5" cy="-373.88" rx="3.2" ry="3.2"/>
</g>
<!-- locations -->
<g id="node3" class="node">
<title>locations</title>
<g id="a_node3"><a xlink:href="../../tables/locations.html" xlink:title="locations" target="_top">
<polygon fill="#ffffff" stroke="transparent" points="26.5,-270 26.5,-592 239.5,-592 239.5,-270 26.5,-270"/>
<polygon fill="#f5f5f5" stroke="transparent" points="27,-570 27,-592 240,-592 240,-570 27,-570"/>
<polygon fill="none" stroke="black" points="27,-570 27,-592 240,-592 240,-570 27,-570"/>
<text text-anchor="start" x="32" y="-579.2" font-family="Helvetica,sans-Serif" font-weight="bold" font-size="11.00">locations</text>
<text text-anchor="start" x="205" y="-578.2" font-family="Helvetica,sans-Serif" font-size="11.00">[table]</text>
<polygon fill="none" stroke="black" points="27,-548 27,-570 240,-570 240,-548 27,-548"/>
<image xlink:href="../../images/primaryKeys.png" width="11px" height="12px" preserveAspectRatio="xMinYMin meet" x="32" y="-565"/>
<text text-anchor="start" x="47" y="-556.2" font-family="Helvetica,sans-Serif" font-size="11.00">id</text>
<polygon fill="#ffffff" stroke="transparent" points="27,-526 27,-548 240,-548 240,-526 27,-526"/>
<polygon fill="none" stroke="black" points="27,-526 27,-548 240,-548 240,-526 27,-526"/>
<image xlink:href="../../images/foreignKeys.png" width="11px" height="12px" preserveAspectRatio="xMinYMin meet" x="32" y="-543"/>
<text text-anchor="start" x="47" y="-534.2" font-family="Helvetica,sans-Serif" font-size="11.00">asset_id</text>
<polygon fill="#ffffff" stroke="transparent" points="27,-504 27,-526 240,-526 240,-504 27,-504"/>
<polygon fill="none" stroke="black" points="27,-504 27,-526 240,-526 240,-504 27,-504"/>
<text text-anchor="start" x="47" y="-512.2" font-family="Helvetica,sans-Serif" font-size="11.00">name</text>
<polygon fill="#ffffff" stroke="transparent" points="27,-482 27,-504 240,-504 240,-482 27,-482"/>
<polygon fill="none" stroke="black" points="27,-482 27,-504 240,-504 240,-482 27,-482"/>
<text text-anchor="start" x="47" y="-490.2" font-family="Helvetica,sans-Serif" font-size="11.00">admin_area_level0</text>
<polygon fill="#ffffff" stroke="transparent" points="27,-460 27,-482 240,-482 240,-460 27,-460"/>
<polygon fill="none" stroke="black" points="27,-460 27,-482 240,-482 240,-460 27,-460"/>
<text text-anchor="start" x="47" y="-468.2" font-family="Helvetica,sans-Serif" font-size="11.00">admin_area_level1</text>
<polygon fill="#ffffff" stroke="transparent" points="27,-438 27,-460 240,-460 240,-438 27,-438"/>
<polygon fill="none" stroke="black" points="27,-438 27,-460 240,-460 240,-438 27,-438"/>
<text text-anchor="start" x="47" y="-446.2" font-family="Helvetica,sans-Serif" font-size="11.00">admin_area_level2</text>
<polygon fill="#ffffff" stroke="transparent" points="27,-416 27,-438 240,-438 240,-416 27,-416"/>
<polygon fill="none" stroke="black" points="27,-416 27,-438 240,-438 240,-416 27,-416"/>
<text text-anchor="start" x="47" y="-424.2" font-family="Helvetica,sans-Serif" font-size="11.00">proc_flag_loc_eval_risks</text>
<polygon fill="#ffffff" stroke="transparent" points="27,-394 27,-416 240,-416 240,-394 27,-394"/>
<polygon fill="none" stroke="black" points="27,-394 27,-416 240,-416 240,-394 27,-394"/>
<text text-anchor="start" x="47" y="-402.2" font-family="Helvetica,sans-Serif" font-size="11.00">proc_flag_loc_assign_gridded</text>
<polygon fill="#ffffff" stroke="transparent" points="27,-372 27,-394 240,-394 240,-372 27,-372"/>
<polygon fill="none" stroke="black" points="27,-372 27,-394 240,-394 240,-372 27,-372"/>
<text text-anchor="start" x="47" y="-380.2" font-family="Helvetica,sans-Serif" font-size="11.00">proc_flag_loc_assign_segmented</text>
<polygon fill="#ffffff" stroke="transparent" points="27,-350 27,-372 240,-372 240,-350 27,-350"/>
<polygon fill="none" stroke="black" points="27,-350 27,-372 240,-372 240,-350 27,-350"/>
<text text-anchor="start" x="47" y="-358.2" font-family="Helvetica,sans-Serif" font-size="11.00">proc_flag_loc_assign_point</text>
<polygon fill="#ffffff" stroke="transparent" points="27,-328 27,-350 240,-350 240,-328 27,-328"/>
<polygon fill="none" stroke="black" points="27,-328 27,-350 240,-350 240,-328 27,-328"/>
<text text-anchor="start" x="47" y="-336.2" font-family="Helvetica,sans-Serif" font-size="11.00">proc_flag_loc_assign_regional</text>
<polygon fill="#ffffff" stroke="transparent" points="27,-306 27,-328 240,-328 240,-306 27,-306"/>
<polygon fill="none" stroke="black" points="27,-306 27,-328 240,-328 240,-306 27,-306"/>
<image xlink:href="../../images/foreignKeys.png" width="11px" height="12px" preserveAspectRatio="xMinYMin meet" x="32" y="-323"/>
<text text-anchor="start" x="47" y="-314.2" font-family="Helvetica,sans-Serif" font-size="11.00">ref_id</text>
<polygon fill="none" stroke="black" points="27,-288 27,-306 240,-306 240,-288 27,-288"/>
<text text-anchor="start" x="30" y="-294.2" font-family="Helvetica,sans-Serif" font-size="11.00">...</text>
<polygon fill="#ffffff" stroke="transparent" points="27,-270 27,-288 100,-288 100,-270 27,-270"/>
<polygon fill="none" stroke="black" points="27,-270 27,-288 100,-288 100,-270 27,-270"/>
<text text-anchor="start" x="30" y="-276.2" font-family="Helvetica,sans-Serif" font-size="11.00">&lt; 2</text>
<polygon fill="#ffffff" stroke="transparent" points="100,-270 100,-288 192,-288 192,-270 100,-270"/>
<polygon fill="none" stroke="black" points="100,-270 100,-288 192,-288 192,-270 100,-270"/>
<text text-anchor="start" x="128" y="-276.2" font-family="Helvetica,sans-Serif" font-size="11.00">81,629 rows</text>
<polygon fill="#ffffff" stroke="transparent" points="192,-270 192,-288 240,-288 240,-270 192,-270"/>
<polygon fill="none" stroke="black" points="192,-270 192,-288 240,-288 240,-270 192,-270"/>
<text text-anchor="start" x="221" y="-276.2" font-family="Helvetica,sans-Serif" font-size="11.00">3 &gt;</text>
</a>
</g>
</g>
<!-- loc_grid_squares&#45;&gt;locations -->
<g id="edge2" class="edge">
<title>loc_grid_squares:w&#45;&gt;locations:e</title>
<path fill="none" stroke="black" d="M294.14,-400.4C242.72,-420.43 312.98,-559 241,-559"/>
<polygon fill="black" stroke="black" points="300.61,-399.32 309.09,-401.55 304.55,-398.66 308.5,-398 308.5,-398 308.5,-398 304.55,-398.66 307.91,-394.45 300.61,-399.32 300.61,-399.32"/>
<ellipse fill="none" stroke="black" cx="297.45" cy="-399.85" rx="3.2" ry="3.2"/>
</g>
</g>
</svg>
