<?xml version="1.0" encoding="UTF-8" standalone="no"?>
<!DOCTYPE svg PUBLIC "-//W3C//DTD SVG 1.1//EN"
 "http://www.w3.org/Graphics/SVG/1.1/DTD/svg11.dtd">
<!-- Generated by graphviz version 2.50.0 (20211204.2007)
 -->
<!-- Title: oneDegreeRelationshipsDiagram Pages: 1 -->
<svg width="851pt" height="702pt"
 viewBox="0.00 0.00 851.00 702.00" xmlns="http://www.w3.org/2000/svg" xmlns:xlink="http://www.w3.org/1999/xlink">
<g id="graph0" class="graph" transform="scale(1 1) rotate(0) translate(4 698)">
<title>oneDegreeRelationshipsDiagram</title>
<polygon fill="#ffffff" stroke="transparent" points="-4,4 -4,-698 847,-698 847,4 -4,4"/>
<text text-anchor="middle" x="72.5" y="-7.2" font-family="Helvetica,sans-Serif" font-size="11.00">Generated by SchemaSpy</text>
<!-- assets -->
<g id="node1" class="node">
<title>assets</title>
<g id="a_node1"><a xlink:href="../../tables/assets.html" xlink:title="assets" target="_top">
<polygon fill="#ffffff" stroke="transparent" points="174,-286 174,-454 299,-454 299,-286 174,-286"/>
<polygon fill="#f5f5f5" stroke="transparent" points="174.5,-432 174.5,-454 299.5,-454 299.5,-432 174.5,-432"/>
<polygon fill="none" stroke="black" points="174.5,-432 174.5,-454 299.5,-454 299.5,-432 174.5,-432"/>
<text text-anchor="start" x="179.5" y="-441.2" font-family="Helvetica,sans-Serif" font-weight="bold" font-size="11.00">assets</text>
<text text-anchor="start" x="264.5" y="-440.2" font-family="Helvetica,sans-Serif" font-size="11.00">[table]</text>
<polygon fill="none" stroke="black" points="174.5,-410 174.5,-432 299.5,-432 299.5,-410 174.5,-410"/>
<image xlink:href="../../images/primaryKeys.png" width="11px" height="12px" preserveAspectRatio="xMinYMin meet" x="179.5" y="-427"/>
<text text-anchor="start" x="194.5" y="-418.2" font-family="Helvetica,sans-Serif" font-size="11.00">id</text>
<polygon fill="none" stroke="black" points="174.5,-388 174.5,-410 299.5,-410 299.5,-388 174.5,-388"/>
<image xlink:href="../../images/foreignKeys.png" width="11px" height="12px" preserveAspectRatio="xMinYMin meet" x="179.5" y="-405"/>
<text text-anchor="start" x="194.5" y="-396.2" font-family="Helvetica,sans-Serif" font-size="11.00">investment_id</text>
<polygon fill="none" stroke="black" points="174.5,-366 174.5,-388 299.5,-388 299.5,-366 174.5,-366"/>
<image xlink:href="../../images/foreignKeys.png" width="11px" height="12px" preserveAspectRatio="xMinYMin meet" x="179.5" y="-383"/>
<text text-anchor="start" x="194.5" y="-374.2" font-family="Helvetica,sans-Serif" font-size="11.00">asset_type_id</text>
<polygon fill="#ffffff" stroke="transparent" points="174.5,-344 174.5,-366 299.5,-366 299.5,-344 174.5,-344"/>
<polygon fill="none" stroke="black" points="174.5,-344 174.5,-366 299.5,-366 299.5,-344 174.5,-344"/>
<text text-anchor="start" x="194.5" y="-352.2" font-family="Helvetica,sans-Serif" font-size="11.00">is_active</text>
<polygon fill="#ffffff" stroke="transparent" points="174.5,-322 174.5,-344 299.5,-344 299.5,-322 174.5,-322"/>
<polygon fill="none" stroke="black" points="174.5,-322 174.5,-344 299.5,-344 299.5,-322 174.5,-322"/>
<image xlink:href="../../images/foreignKeys.png" width="11px" height="12px" preserveAspectRatio="xMinYMin meet" x="179.5" y="-339"/>
<text text-anchor="start" x="194.5" y="-330.2" font-family="Helvetica,sans-Serif" font-size="11.00">ref_id</text>
<polygon fill="none" stroke="black" points="174.5,-304 174.5,-322 299.5,-322 299.5,-304 174.5,-304"/>
<text text-anchor="start" x="177.5" y="-310.2" font-family="Helvetica,sans-Serif" font-size="11.00">...</text>
<polygon fill="#ffffff" stroke="transparent" points="174.5,-286 174.5,-304 203.5,-304 203.5,-286 174.5,-286"/>
<polygon fill="none" stroke="black" points="174.5,-286 174.5,-304 203.5,-304 203.5,-286 174.5,-286"/>
<text text-anchor="start" x="177.5" y="-292.2" font-family="Helvetica,sans-Serif" font-size="11.00">&lt; 3</text>
<polygon fill="#ffffff" stroke="transparent" points="203.5,-286 203.5,-304 273.5,-304 273.5,-286 203.5,-286"/>
<polygon fill="none" stroke="black" points="203.5,-286 203.5,-304 273.5,-304 273.5,-286 203.5,-286"/>
<text text-anchor="start" x="209.5" y="-292.2" font-family="Helvetica,sans-Serif" font-size="11.00">78,452 rows</text>
<polygon fill="#ffffff" stroke="transparent" points="273.5,-286 273.5,-304 299.5,-304 299.5,-286 273.5,-286"/>
<polygon fill="none" stroke="black" points="273.5,-286 273.5,-304 299.5,-304 299.5,-286 273.5,-286"/>
<text text-anchor="start" x="280.5" y="-292.2" font-family="Helvetica,sans-Serif" font-size="11.00">4 &gt;</text>
</a>
</g>
</g>
<!-- ref_id -->
<g id="node2" class="node">
<title>ref_id</title>
<g id="a_node2"><a xlink:href="../../tables/ref_id.html" xlink:title="ref_id" target="_top">
<polygon fill="#ffffff" stroke="transparent" points="8,-142 8,-266 125,-266 125,-142 8,-142"/>
<polygon fill="#f5f5f5" stroke="transparent" points="8.5,-244 8.5,-266 125.5,-266 125.5,-244 8.5,-244"/>
<polygon fill="none" stroke="black" points="8.5,-244 8.5,-266 125.5,-266 125.5,-244 8.5,-244"/>
<text text-anchor="start" x="13.5" y="-253.2" font-family="Helvetica,sans-Serif" font-weight="bold" font-size="11.00">ref_id</text>
<text text-anchor="start" x="90.5" y="-252.2" font-family="Helvetica,sans-Serif" font-size="11.00">[table]</text>
<polygon fill="none" stroke="black" points="8.5,-222 8.5,-244 125.5,-244 125.5,-222 8.5,-222"/>
<image xlink:href="../../images/primaryKeys.png" width="11px" height="12px" preserveAspectRatio="xMinYMin meet" x="13.5" y="-239"/>
<text text-anchor="start" x="41.5" y="-230.2" font-family="Helvetica,sans-Serif" font-size="11.00">id</text>
<polygon fill="none" stroke="black" points="8.5,-200 8.5,-222 125.5,-222 125.5,-200 8.5,-200"/>
<image xlink:href="../../images/foreignKeys.png" width="11px" height="12px" preserveAspectRatio="xMinYMin meet" x="13.5" y="-217"/>
<text text-anchor="start" x="41.5" y="-208.2" font-family="Helvetica,sans-Serif" font-size="11.00">customer_id</text>
<polygon fill="#ffffff" stroke="transparent" points="8.5,-178 8.5,-200 125.5,-200 125.5,-178 8.5,-178"/>
<polygon fill="none" stroke="black" points="8.5,-178 8.5,-200 125.5,-200 125.5,-178 8.5,-178"/>
<text text-anchor="start" x="41.5" y="-186.2" font-family="Helvetica,sans-Serif" font-size="11.00">is_active</text>
<polygon fill="none" stroke="black" points="8.5,-160 8.5,-178 125.5,-178 125.5,-160 8.5,-160"/>
<text text-anchor="start" x="11.5" y="-166.2" font-family="Helvetica,sans-Serif" font-size="11.00">...</text>
<polygon fill="#ffffff" stroke="transparent" points="8.5,-142 8.5,-160 30.5,-160 30.5,-142 8.5,-142"/>
<polygon fill="none" stroke="black" points="8.5,-142 8.5,-160 30.5,-160 30.5,-142 8.5,-142"/>
<text text-anchor="start" x="11.5" y="-148.2" font-family="Helvetica,sans-Serif" font-size="11.00">&lt; 1</text>
<polygon fill="#ffffff" stroke="transparent" points="30.5,-142 30.5,-160 103.5,-160 103.5,-142 30.5,-142"/>
<polygon fill="none" stroke="black" points="30.5,-142 30.5,-160 103.5,-160 103.5,-142 30.5,-142"/>
<text text-anchor="start" x="33.5" y="-148.2" font-family="Helvetica,sans-Serif" font-size="11.00">140,067 rows</text>
<polygon fill="#ffffff" stroke="transparent" points="103.5,-142 103.5,-160 125.5,-160 125.5,-142 103.5,-142"/>
<polygon fill="none" stroke="black" points="103.5,-142 103.5,-160 125.5,-160 125.5,-142 103.5,-142"/>
<text text-anchor="start" x="106.5" y="-148.2" font-family="Helvetica,sans-Serif" font-size="11.00">2 &gt;</text>
</a>
</g>
</g>
<!-- assets&#45;&gt;ref_id -->
<g id="edge1" class="edge">
<title>assets:w&#45;&gt;ref_id:e</title>
<path fill="none" stroke="black" d="M162.93,-330.91C132.45,-316.55 171.39,-233 126.5,-233"/>
<polygon fill="black" stroke="black" points="173.49,-328.92 171.94,-336.77 170.37,-336.46 171.92,-328.61 173.49,-328.92"/>
<polyline fill="none" stroke="black" points="173.5,-333 169.58,-332.22 "/>
<ellipse fill="none" stroke="black" cx="166.44" cy="-331.6" rx="3.2" ry="3.2"/>
</g>
<!-- loc_grid_squares -->
<g id="node3" class="node">
<title>loc_grid_squares</title>
<g id="a_node3"><a xlink:href="../../tables/loc_grid_squares.html" xlink:title="loc_grid_squares" target="_top">
<polygon fill="#ffffff" stroke="transparent" points="699,-584 699,-690 835,-690 835,-584 699,-584"/>
<polygon fill="#f5f5f5" stroke="transparent" points="699,-668 699,-690 835,-690 835,-668 699,-668"/>
<polygon fill="none" stroke="black" points="699,-668 699,-690 835,-690 835,-668 699,-668"/>
<text text-anchor="start" x="704" y="-677.2" font-family="Helvetica,sans-Serif" font-weight="bold" font-size="11.00">loc_grid_squares</text>
<text text-anchor="start" x="800" y="-676.2" font-family="Helvetica,sans-Serif" font-size="11.00">[table]</text>
<polygon fill="none" stroke="black" points="699,-646 699,-668 835,-668 835,-646 699,-646"/>
<image xlink:href="../../images/primaryKeys.png" width="11px" height="12px" preserveAspectRatio="xMinYMin meet" x="704" y="-663"/>
<text text-anchor="start" x="727" y="-654.2" font-family="Helvetica,sans-Serif" font-size="11.00">id</text>
<polygon fill="#ffffff" stroke="transparent" points="699,-624 699,-646 835,-646 835,-624 699,-624"/>
<polygon fill="none" stroke="black" points="699,-624 699,-646 835,-646 835,-624 699,-624"/>
<image xlink:href="../../images/foreignKeys.png" width="11px" height="12px" preserveAspectRatio="xMinYMin meet" x="704" y="-641"/>
<text text-anchor="start" x="727" y="-632.2" font-family="Helvetica,sans-Serif" font-size="11.00">loc_id</text>
<polygon fill="#ffffff" stroke="transparent" points="699,-602 699,-624 835,-624 835,-602 699,-602"/>
<polygon fill="none" stroke="black" points="699,-602 699,-624 835,-624 835,-602 699,-602"/>
<image xlink:href="../../images/foreignKeys.png" width="11px" height="12px" preserveAspectRatio="xMinYMin meet" x="704" y="-619"/>
<text text-anchor="start" x="727" y="-610.2" font-family="Helvetica,sans-Serif" font-size="11.00">grid_square_id</text>
<polygon fill="#ffffff" stroke="transparent" points="699,-584 699,-602 738,-602 738,-584 699,-584"/>
<polygon fill="none" stroke="black" points="699,-584 699,-602 738,-602 738,-584 699,-584"/>
<text text-anchor="start" x="702" y="-590.2" font-family="Helvetica,sans-Serif" font-size="11.00">&lt; 2</text>
<polygon fill="#ffffff" stroke="transparent" points="738,-584 738,-602 813,-602 813,-584 738,-584"/>
<polygon fill="none" stroke="black" points="738,-584 738,-602 813,-602 813,-584 738,-584"/>
<text text-anchor="start" x="749" y="-590.2" font-family="Helvetica,sans-Serif" font-size="11.00">81,221 rows</text>
<polygon fill="#ffffff" stroke="transparent" points="813,-584 813,-602 835,-602 835,-584 813,-584"/>
<polygon fill="none" stroke="black" points="813,-584 813,-602 835,-602 835,-584 813,-584"/>
<text text-anchor="start" x="825" y="-590.2" font-family="Helvetica,sans-Serif" font-size="11.00"> &#160;</text>
</a>
</g>
</g>
<!-- locations -->
<g id="node4" class="node">
<title>locations</title>
<g id="a_node4"><a xlink:href="../../tables/locations.html" xlink:title="locations" target="_top">
<polygon fill="#ffffff" stroke="transparent" points="348,-37 348,-543 650,-543 650,-37 348,-37"/>
<polygon fill="#f5f5f5" stroke="transparent" points="350,-519 350,-541 648,-541 648,-519 350,-519"/>
<polygon fill="none" stroke="black" points="350,-519 350,-541 648,-541 648,-519 350,-519"/>
<text text-anchor="start" x="355" y="-528.2" font-family="Helvetica,sans-Serif" font-weight="bold" font-size="11.00">locations</text>
<text text-anchor="start" x="613" y="-527.2" font-family="Helvetica,sans-Serif" font-size="11.00">[table]</text>
<polygon fill="none" stroke="black" points="350,-497 350,-519 563,-519 563,-497 350,-497"/>
<image xlink:href="../../images/primaryKeys.png" width="11px" height="12px" preserveAspectRatio="xMinYMin meet" x="355" y="-514"/>
<text text-anchor="start" x="370" y="-505.2" font-family="Helvetica,sans-Serif" font-size="11.00">id</text>
<polygon fill="none" stroke="black" points="563,-497 563,-519 648,-519 648,-497 563,-497"/>
<text text-anchor="start" x="566" y="-505.2" font-family="Helvetica,sans-Serif" font-size="11.00">serial[10]</text>
<polygon fill="#ffffff" stroke="transparent" points="350,-475 350,-497 563,-497 563,-475 350,-475"/>
<polygon fill="none" stroke="black" points="350,-475 350,-497 563,-497 563,-475 350,-475"/>
<image xlink:href="../../images/foreignKeys.png" width="11px" height="12px" preserveAspectRatio="xMinYMin meet" x="355" y="-492"/>
<text text-anchor="start" x="370" y="-483.2" font-family="Helvetica,sans-Serif" font-size="11.00">asset_id</text>
<polygon fill="none" stroke="black" points="563,-475 563,-497 648,-497 648,-475 563,-475"/>
<text text-anchor="start" x="566" y="-483.2" font-family="Helvetica,sans-Serif" font-size="11.00">int4[10]</text>
<polygon fill="#ffffff" stroke="transparent" points="350,-453 350,-475 563,-475 563,-453 350,-453"/>
<polygon fill="none" stroke="black" points="350,-453 350,-475 563,-475 563,-453 350,-453"/>
<text text-anchor="start" x="370" y="-461.2" font-family="Helvetica,sans-Serif" font-size="11.00">name</text>
<polygon fill="none" stroke="black" points="563,-453 563,-475 648,-475 648,-453 563,-453"/>
<text text-anchor="start" x="566" y="-461.2" font-family="Helvetica,sans-Serif" font-size="11.00">varchar[128]</text>
<polygon fill="none" stroke="black" points="350,-431 350,-453 563,-453 563,-431 350,-431"/>
<text text-anchor="start" x="370" y="-439.2" font-family="Helvetica,sans-Serif" font-size="11.00">lng</text>
<polygon fill="none" stroke="black" points="563,-431 563,-453 648,-453 648,-431 563,-431"/>
<text text-anchor="start" x="566" y="-439.2" font-family="Helvetica,sans-Serif" font-size="11.00">float8[17,17]</text>
<polygon fill="none" stroke="black" points="350,-409 350,-431 563,-431 563,-409 350,-409"/>
<text text-anchor="start" x="370" y="-417.2" font-family="Helvetica,sans-Serif" font-size="11.00">lat</text>
<polygon fill="none" stroke="black" points="563,-409 563,-431 648,-431 648,-409 563,-409"/>
<text text-anchor="start" x="566" y="-417.2" font-family="Helvetica,sans-Serif" font-size="11.00">float8[17,17]</text>
<polygon fill="none" stroke="black" points="350,-387 350,-409 563,-409 563,-387 350,-387"/>
<text text-anchor="start" x="370" y="-395.2" font-family="Helvetica,sans-Serif" font-size="11.00">notes</text>
<polygon fill="none" stroke="black" points="563,-387 563,-409 648,-409 648,-387 563,-387"/>
<text text-anchor="start" x="566" y="-395.2" font-family="Helvetica,sans-Serif" font-size="11.00">varchar[256]</text>
<polygon fill="none" stroke="black" points="350,-365 350,-387 563,-387 563,-365 350,-365"/>
<text text-anchor="start" x="370" y="-373.2" font-family="Helvetica,sans-Serif" font-size="11.00">elevation_m_rel2lmsl</text>
<polygon fill="none" stroke="black" points="563,-365 563,-387 648,-387 648,-365 563,-365"/>
<text text-anchor="start" x="566" y="-373.2" font-family="Helvetica,sans-Serif" font-size="11.00">float8[17,17]</text>
<polygon fill="none" stroke="black" points="350,-343 350,-365 563,-365 563,-343 350,-343"/>
<text text-anchor="start" x="370" y="-351.2" font-family="Helvetica,sans-Serif" font-size="11.00">address_1</text>
<polygon fill="none" stroke="black" points="563,-343 563,-365 648,-365 648,-343 563,-343"/>
<text text-anchor="start" x="566" y="-351.2" font-family="Helvetica,sans-Serif" font-size="11.00">varchar[256]</text>
<polygon fill="none" stroke="black" points="350,-321 350,-343 563,-343 563,-321 350,-321"/>
<text text-anchor="start" x="370" y="-329.2" font-family="Helvetica,sans-Serif" font-size="11.00">address_2</text>
<polygon fill="none" stroke="black" points="563,-321 563,-343 648,-343 648,-321 563,-321"/>
<text text-anchor="start" x="566" y="-329.2" font-family="Helvetica,sans-Serif" font-size="11.00">varchar[256]</text>
<polygon fill="none" stroke="black" points="350,-299 350,-321 563,-321 563,-299 350,-299"/>
<text text-anchor="start" x="370" y="-307.2" font-family="Helvetica,sans-Serif" font-size="11.00">address_3</text>
<polygon fill="none" stroke="black" points="563,-299 563,-321 648,-321 648,-299 563,-299"/>
<text text-anchor="start" x="566" y="-307.2" font-family="Helvetica,sans-Serif" font-size="11.00">varchar[256]</text>
<polygon fill="#ffffff" stroke="transparent" points="350,-277 350,-299 563,-299 563,-277 350,-277"/>
<polygon fill="none" stroke="black" points="350,-277 350,-299 563,-299 563,-277 350,-277"/>
<text text-anchor="start" x="370" y="-285.2" font-family="Helvetica,sans-Serif" font-size="11.00">admin_area_level0</text>
<polygon fill="none" stroke="black" points="563,-277 563,-299 648,-299 648,-277 563,-277"/>
<text text-anchor="start" x="566" y="-285.2" font-family="Helvetica,sans-Serif" font-size="11.00">varchar[64]</text>
<polygon fill="#ffffff" stroke="transparent" points="350,-255 350,-277 563,-277 563,-255 350,-255"/>
<polygon fill="none" stroke="black" points="350,-255 350,-277 563,-277 563,-255 350,-255"/>
<text text-anchor="start" x="370" y="-263.2" font-family="Helvetica,sans-Serif" font-size="11.00">admin_area_level1</text>
<polygon fill="none" stroke="black" points="563,-255 563,-277 648,-277 648,-255 563,-255"/>
<text text-anchor="start" x="566" y="-263.2" font-family="Helvetica,sans-Serif" font-size="11.00">varchar[64]</text>
<polygon fill="#ffffff" stroke="transparent" points="350,-233 350,-255 563,-255 563,-233 350,-233"/>
<polygon fill="none" stroke="black" points="350,-233 350,-255 563,-255 563,-233 350,-233"/>
<text text-anchor="start" x="370" y="-241.2" font-family="Helvetica,sans-Serif" font-size="11.00">admin_area_level2</text>
<polygon fill="none" stroke="black" points="563,-233 563,-255 648,-255 648,-233 563,-233"/>
<text text-anchor="start" x="566" y="-241.2" font-family="Helvetica,sans-Serif" font-size="11.00">varchar[64]</text>
<polygon fill="#ffffff" stroke="transparent" points="350,-211 350,-233 563,-233 563,-211 350,-211"/>
<polygon fill="none" stroke="black" points="350,-211 350,-233 563,-233 563,-211 350,-211"/>
<text text-anchor="start" x="370" y="-219.2" font-family="Helvetica,sans-Serif" font-size="11.00">proc_flag_loc_eval_risks</text>
<polygon fill="none" stroke="black" points="563,-211 563,-233 648,-233 648,-211 563,-211"/>
<text text-anchor="start" x="566" y="-219.2" font-family="Helvetica,sans-Serif" font-size="11.00">int4[10]</text>
<polygon fill="#ffffff" stroke="transparent" points="350,-189 350,-211 563,-211 563,-189 350,-189"/>
<polygon fill="none" stroke="black" points="350,-189 350,-211 563,-211 563,-189 350,-189"/>
<text text-anchor="start" x="370" y="-197.2" font-family="Helvetica,sans-Serif" font-size="11.00">proc_flag_loc_assign_gridded</text>
<polygon fill="none" stroke="black" points="563,-189 563,-211 648,-211 648,-189 563,-189"/>
<text text-anchor="start" x="566" y="-197.2" font-family="Helvetica,sans-Serif" font-size="11.00">int4[10]</text>
<polygon fill="#ffffff" stroke="transparent" points="350,-167 350,-189 563,-189 563,-167 350,-167"/>
<polygon fill="none" stroke="black" points="350,-167 350,-189 563,-189 563,-167 350,-167"/>
<text text-anchor="start" x="370" y="-175.2" font-family="Helvetica,sans-Serif" font-size="11.00">proc_flag_loc_assign_segmented</text>
<polygon fill="none" stroke="black" points="563,-167 563,-189 648,-189 648,-167 563,-167"/>
<text text-anchor="start" x="566" y="-175.2" font-family="Helvetica,sans-Serif" font-size="11.00">int4[10]</text>
<polygon fill="#ffffff" stroke="transparent" points="350,-145 350,-167 563,-167 563,-145 350,-145"/>
<polygon fill="none" stroke="black" points="350,-145 350,-167 563,-167 563,-145 350,-145"/>
<text text-anchor="start" x="370" y="-153.2" font-family="Helvetica,sans-Serif" font-size="11.00">proc_flag_loc_assign_point</text>
<polygon fill="none" stroke="black" points="563,-145 563,-167 648,-167 648,-145 563,-145"/>
<text text-anchor="start" x="566" y="-153.2" font-family="Helvetica,sans-Serif" font-size="11.00">int4[10]</text>
<polygon fill="#ffffff" stroke="transparent" points="350,-123 350,-145 563,-145 563,-123 350,-123"/>
<polygon fill="none" stroke="black" points="350,-123 350,-145 563,-145 563,-123 350,-123"/>
<text text-anchor="start" x="370" y="-131.2" font-family="Helvetica,sans-Serif" font-size="11.00">proc_flag_loc_assign_regional</text>
<polygon fill="none" stroke="black" points="563,-123 563,-145 648,-145 648,-123 563,-123"/>
<text text-anchor="start" x="566" y="-131.2" font-family="Helvetica,sans-Serif" font-size="11.00">int4[10]</text>
<polygon fill="none" stroke="black" points="350,-101 350,-123 563,-123 563,-101 350,-101"/>
<text text-anchor="start" x="370" y="-109.2" font-family="Helvetica,sans-Serif" font-size="11.00">created_at</text>
<polygon fill="none" stroke="black" points="563,-101 563,-123 648,-123 648,-101 563,-101"/>
<text text-anchor="start" x="566" y="-109.2" font-family="Helvetica,sans-Serif" font-size="11.00">timestamp[29,6]</text>
<polygon fill="none" stroke="black" points="350,-79 350,-101 563,-101 563,-79 350,-79"/>
<text text-anchor="start" x="370" y="-87.2" font-family="Helvetica,sans-Serif" font-size="11.00">updated_at</text>
<polygon fill="none" stroke="black" points="563,-79 563,-101 648,-101 648,-79 563,-79"/>
<text text-anchor="start" x="566" y="-87.2" font-family="Helvetica,sans-Serif" font-size="11.00">timestamp[29,6]</text>
<polygon fill="#ffffff" stroke="transparent" points="350,-57 350,-79 563,-79 563,-57 350,-57"/>
<polygon fill="none" stroke="black" points="350,-57 350,-79 563,-79 563,-57 350,-57"/>
<image xlink:href="../../images/foreignKeys.png" width="11px" height="12px" preserveAspectRatio="xMinYMin meet" x="355" y="-74"/>
<text text-anchor="start" x="370" y="-65.2" font-family="Helvetica,sans-Serif" font-size="11.00">ref_id</text>
<polygon fill="none" stroke="black" points="563,-57 563,-79 648,-79 648,-57 563,-57"/>
<text text-anchor="start" x="566" y="-65.2" font-family="Helvetica,sans-Serif" font-size="11.00">int4[10]</text>
<polygon fill="#ffffff" stroke="transparent" points="350,-39 350,-57 434,-57 434,-39 350,-39"/>
<polygon fill="none" stroke="black" points="350,-39 350,-57 434,-57 434,-39 350,-39"/>
<text text-anchor="start" x="353" y="-45.2" font-family="Helvetica,sans-Serif" font-size="11.00">&lt; 2</text>
<polygon fill="#ffffff" stroke="transparent" points="434,-39 434,-57 563,-57 563,-39 434,-39"/>
<polygon fill="none" stroke="black" points="434,-39 434,-57 563,-57 563,-39 434,-39"/>
<text text-anchor="start" x="499" y="-45.2" font-family="Helvetica,sans-Serif" font-size="11.00">81,629 rows</text>
<polygon fill="#ffffff" stroke="transparent" points="563,-39 563,-57 648,-57 648,-39 563,-39"/>
<polygon fill="none" stroke="black" points="563,-39 563,-57 648,-57 648,-39 563,-39"/>
<text text-anchor="start" x="629" y="-45.2" font-family="Helvetica,sans-Serif" font-size="11.00">3 &gt;</text>
<polygon fill="none" stroke="black" stroke-width="2" points="349,-38 349,-542 649,-542 649,-38 349,-38"/>
</a>
</g>
</g>
<!-- loc_grid_squares&#45;&gt;locations -->
<g id="edge2" class="edge">
<title>loc_grid_squares:w&#45;&gt;locations:e</title>
<path fill="none" stroke="black" d="M683.82,-631.6C650.3,-611.41 703.59,-508 649,-508"/>
<polygon fill="black" stroke="black" points="690.22,-633.14 697.16,-638.5 694.11,-634.07 698,-635 698,-635 698,-635 694.11,-634.07 698.84,-631.5 690.22,-633.14 690.22,-633.14"/>
<ellipse fill="none" stroke="black" cx="687.11" cy="-632.39" rx="3.2" ry="3.2"/>
</g>
<!-- locations&#45;&gt;assets -->
<g id="edge4" class="edge">
<title>locations:w&#45;&gt;assets:e</title>
<path fill="none" stroke="black" d="M335.09,-480.9C319.3,-465.58 330.35,-421 300.5,-421"/>
<polygon fill="black" stroke="black" points="341.49,-483.25 347.76,-489.38 345.24,-484.62 349,-486 349,-486 349,-486 345.24,-484.62 350.24,-482.62 341.49,-483.25 341.49,-483.25"/>
<ellipse fill="none" stroke="black" cx="338.48" cy="-482.14" rx="3.2" ry="3.2"/>
</g>
<!-- locations&#45;&gt;ref_id -->
<g id="edge5" class="edge">
<title>locations:w&#45;&gt;ref_id:e</title>
<path fill="none" stroke="black" d="M334.57,-68.81C227.59,-81.26 244.56,-233 126.5,-233"/>
<polygon fill="black" stroke="black" points="341.01,-68.45 349.2,-71.59 345.01,-68.22 349,-68 349,-68 349,-68 345.01,-68.22 348.8,-64.41 341.01,-68.45 341.01,-68.45"/>
<ellipse fill="none" stroke="black" cx="337.82" cy="-68.63" rx="3.2" ry="3.2"/>
</g>
<!-- loc_regions -->
<g id="node5" class="node">
<title>loc_regions</title>
<g id="a_node5"><a xlink:href="../../tables/loc_regions.html" xlink:title="loc_regions" target="_top">
<polygon fill="#ffffff" stroke="transparent" points="713.5,-457 713.5,-563 820.5,-563 820.5,-457 713.5,-457"/>
<polygon fill="#f5f5f5" stroke="transparent" points="714,-541 714,-563 821,-563 821,-541 714,-541"/>
<polygon fill="none" stroke="black" points="714,-541 714,-563 821,-563 821,-541 714,-541"/>
<text text-anchor="start" x="719" y="-550.2" font-family="Helvetica,sans-Serif" font-weight="bold" font-size="11.00">loc_regions</text>
<text text-anchor="start" x="786" y="-549.2" font-family="Helvetica,sans-Serif" font-size="11.00">[table]</text>
<polygon fill="none" stroke="black" points="714,-519 714,-541 821,-541 821,-519 714,-519"/>
<image xlink:href="../../images/primaryKeys.png" width="11px" height="12px" preserveAspectRatio="xMinYMin meet" x="719" y="-536"/>
<text text-anchor="start" x="744" y="-527.2" font-family="Helvetica,sans-Serif" font-size="11.00">id</text>
<polygon fill="#ffffff" stroke="transparent" points="714,-497 714,-519 821,-519 821,-497 714,-497"/>
<polygon fill="none" stroke="black" points="714,-497 714,-519 821,-519 821,-497 714,-497"/>
<image xlink:href="../../images/foreignKeys.png" width="11px" height="12px" preserveAspectRatio="xMinYMin meet" x="719" y="-514"/>
<text text-anchor="start" x="744" y="-505.2" font-family="Helvetica,sans-Serif" font-size="11.00">loc_id</text>
<polygon fill="none" stroke="black" points="714,-475 714,-497 821,-497 821,-475 714,-475"/>
<image xlink:href="../../images/foreignKeys.png" width="11px" height="12px" preserveAspectRatio="xMinYMin meet" x="719" y="-492"/>
<text text-anchor="start" x="744" y="-483.2" font-family="Helvetica,sans-Serif" font-size="11.00">region_id</text>
<polygon fill="#ffffff" stroke="transparent" points="714,-457 714,-475 738,-475 738,-457 714,-457"/>
<polygon fill="none" stroke="black" points="714,-457 714,-475 738,-475 738,-457 714,-457"/>
<text text-anchor="start" x="717" y="-463.2" font-family="Helvetica,sans-Serif" font-size="11.00">&lt; 2</text>
<polygon fill="#ffffff" stroke="transparent" points="738,-457 738,-475 806,-475 806,-457 738,-457"/>
<polygon fill="none" stroke="black" points="738,-457 738,-475 806,-475 806,-457 738,-457"/>
<text text-anchor="start" x="742" y="-463.2" font-family="Helvetica,sans-Serif" font-size="11.00">79,140 rows</text>
<polygon fill="#ffffff" stroke="transparent" points="806,-457 806,-475 821,-475 821,-457 806,-457"/>
<polygon fill="none" stroke="black" points="806,-457 806,-475 821,-475 821,-457 806,-457"/>
<text text-anchor="start" x="811" y="-463.2" font-family="Helvetica,sans-Serif" font-size="11.00"> &#160;</text>
</a>
</g>
</g>
<!-- loc_regions&#45;&gt;locations -->
<g id="edge3" class="edge">
<title>loc_regions:w&#45;&gt;locations:e</title>
<path fill="none" stroke="black" d="M702.42,-508C682.21,-508 673.56,-508 649,-508"/>
<polygon fill="black" stroke="black" points="712.2,-504 712.2,-512 710.6,-512 710.6,-504 712.2,-504"/>
<polyline fill="none" stroke="black" points="713,-508 709,-508 "/>
<ellipse fill="none" stroke="black" cx="705.8" cy="-508" rx="3.2" ry="3.2"/>
</g>
<!-- risks -->
<g id="node6" class="node">
<title>risks</title>
<g id="a_node6"><a xlink:href="../../tables/risks.html" xlink:title="risks" target="_top">
<polygon fill="#ffffff" stroke="transparent" points="701.5,-268 701.5,-436 832.5,-436 832.5,-268 701.5,-268"/>
<polygon fill="#f5f5f5" stroke="transparent" points="702,-414 702,-436 833,-436 833,-414 702,-414"/>
<polygon fill="none" stroke="black" points="702,-414 702,-436 833,-436 833,-414 702,-414"/>
<text text-anchor="start" x="707" y="-423.2" font-family="Helvetica,sans-Serif" font-weight="bold" font-size="11.00">risks</text>
<text text-anchor="start" x="798" y="-422.2" font-family="Helvetica,sans-Serif" font-size="11.00">[table]</text>
<polygon fill="none" stroke="black" points="702,-392 702,-414 833,-414 833,-392 702,-392"/>
<image xlink:href="../../images/primaryKeys.png" width="11px" height="12px" preserveAspectRatio="xMinYMin meet" x="707" y="-409"/>
<text text-anchor="start" x="722" y="-400.2" font-family="Helvetica,sans-Serif" font-size="11.00">id</text>
<polygon fill="#ffffff" stroke="transparent" points="702,-370 702,-392 833,-392 833,-370 702,-370"/>
<polygon fill="none" stroke="black" points="702,-370 702,-392 833,-392 833,-370 702,-370"/>
<image xlink:href="../../images/foreignKeys.png" width="11px" height="12px" preserveAspectRatio="xMinYMin meet" x="707" y="-387"/>
<text text-anchor="start" x="722" y="-378.2" font-family="Helvetica,sans-Serif" font-size="11.00">location_id</text>
<polygon fill="#ffffff" stroke="transparent" points="702,-348 702,-370 833,-370 833,-348 702,-348"/>
<polygon fill="none" stroke="black" points="702,-348 702,-370 833,-370 833,-348 702,-348"/>
<image xlink:href="../../images/foreignKeys.png" width="11px" height="12px" preserveAspectRatio="xMinYMin meet" x="707" y="-365"/>
<text text-anchor="start" x="722" y="-356.2" font-family="Helvetica,sans-Serif" font-size="11.00">impact_pathway_id</text>
<polygon fill="#ffffff" stroke="transparent" points="702,-326 702,-348 833,-348 833,-326 702,-326"/>
<polygon fill="none" stroke="black" points="702,-326 702,-348 833,-348 833,-326 702,-326"/>
<image xlink:href="../../images/foreignKeys.png" width="11px" height="12px" preserveAspectRatio="xMinYMin meet" x="707" y="-343"/>
<text text-anchor="start" x="722" y="-334.2" font-family="Helvetica,sans-Serif" font-size="11.00">scenario_id</text>
<polygon fill="#ffffff" stroke="transparent" points="702,-304 702,-326 833,-326 833,-304 702,-304"/>
<polygon fill="none" stroke="black" points="702,-304 702,-326 833,-326 833,-304 702,-304"/>
<text text-anchor="start" x="722" y="-312.2" font-family="Helvetica,sans-Serif" font-size="11.00">yr</text>
<polygon fill="none" stroke="black" points="702,-286 702,-304 833,-304 833,-286 702,-286"/>
<text text-anchor="start" x="705" y="-292.2" font-family="Helvetica,sans-Serif" font-size="11.00">...</text>
<polygon fill="#ffffff" stroke="transparent" points="702,-268 702,-286 728,-286 728,-268 702,-268"/>
<polygon fill="none" stroke="black" points="702,-268 702,-286 728,-286 728,-268 702,-268"/>
<text text-anchor="start" x="705" y="-274.2" font-family="Helvetica,sans-Serif" font-size="11.00">&lt; 3</text>
<polygon fill="#ffffff" stroke="transparent" points="728,-268 728,-286 818,-286 818,-268 728,-268"/>
<polygon fill="none" stroke="black" points="728,-268 728,-286 818,-286 818,-268 728,-268"/>
<text text-anchor="start" x="733" y="-274.2" font-family="Helvetica,sans-Serif" font-size="11.00">28,657,312 rows</text>
<polygon fill="#ffffff" stroke="transparent" points="818,-268 818,-286 833,-286 833,-268 818,-268"/>
<polygon fill="none" stroke="black" points="818,-268 818,-286 833,-286 833,-268 818,-268"/>
<text text-anchor="start" x="823" y="-274.2" font-family="Helvetica,sans-Serif" font-size="11.00"> &#160;</text>
</a>
</g>
</g>
<!-- risks&#45;&gt;locations -->
<g id="edge6" class="edge">
<title>risks:w&#45;&gt;locations:e</title>
<path fill="none" stroke="black" d="M686.63,-384.4C652.43,-404.59 704.04,-508 649,-508"/>
<polygon fill="black" stroke="black" points="693.21,-382.84 701.83,-384.5 697.11,-381.92 701,-381 701,-381 701,-381 697.11,-381.92 700.17,-377.5 693.21,-382.84 693.21,-382.84"/>
<ellipse fill="none" stroke="black" cx="690.1" cy="-383.58" rx="3.2" ry="3.2"/>
</g>
</g>
</svg>
