<?xml version="1.0" encoding="UTF-8" standalone="no"?>
<!DOCTYPE svg PUBLIC "-//W3C//DTD SVG 1.1//EN"
 "http://www.w3.org/Graphics/SVG/1.1/DTD/svg11.dtd">
<!-- Generated by graphviz version 2.50.0 (20211204.2007)
 -->
<!-- Title: oneDegreeRelationshipsDiagram Pages: 1 -->
<svg width="792pt" height="384pt"
 viewBox="0.00 0.00 792.00 384.00" xmlns="http://www.w3.org/2000/svg" xmlns:xlink="http://www.w3.org/1999/xlink">
<g id="graph0" class="graph" transform="scale(1 1) rotate(0) translate(4 380)">
<title>oneDegreeRelationshipsDiagram</title>
<polygon fill="#ffffff" stroke="transparent" points="-4,4 -4,-380 788,-380 788,4 -4,4"/>
<text text-anchor="middle" x="72.5" y="-7.2" font-family="Helvetica,sans-Serif" font-size="11.00">Generated by SchemaSpy</text>
<!-- assets -->
<g id="node1" class="node">
<title>assets</title>
<g id="a_node1"><a xlink:href="../../tables/assets.html" xlink:title="assets" target="_top">
<polygon fill="#ffffff" stroke="transparent" points="389,-152 389,-320 514,-320 514,-152 389,-152"/>
<polygon fill="#f5f5f5" stroke="transparent" points="389.5,-298 389.5,-320 514.5,-320 514.5,-298 389.5,-298"/>
<polygon fill="none" stroke="black" points="389.5,-298 389.5,-320 514.5,-320 514.5,-298 389.5,-298"/>
<text text-anchor="start" x="394.5" y="-307.2" font-family="Helvetica,sans-Serif" font-weight="bold" font-size="11.00">assets</text>
<text text-anchor="start" x="479.5" y="-306.2" font-family="Helvetica,sans-Serif" font-size="11.00">[table]</text>
<polygon fill="none" stroke="black" points="389.5,-276 389.5,-298 514.5,-298 514.5,-276 389.5,-276"/>
<image xlink:href="../../images/primaryKeys.png" width="11px" height="12px" preserveAspectRatio="xMinYMin meet" x="394.5" y="-293"/>
<text text-anchor="start" x="409.5" y="-284.2" font-family="Helvetica,sans-Serif" font-size="11.00">id</text>
<polygon fill="none" stroke="black" points="389.5,-254 389.5,-276 514.5,-276 514.5,-254 389.5,-254"/>
<image xlink:href="../../images/foreignKeys.png" width="11px" height="12px" preserveAspectRatio="xMinYMin meet" x="394.5" y="-271"/>
<text text-anchor="start" x="409.5" y="-262.2" font-family="Helvetica,sans-Serif" font-size="11.00">investment_id</text>
<polygon fill="none" stroke="black" points="389.5,-232 389.5,-254 514.5,-254 514.5,-232 389.5,-232"/>
<image xlink:href="../../images/foreignKeys.png" width="11px" height="12px" preserveAspectRatio="xMinYMin meet" x="394.5" y="-249"/>
<text text-anchor="start" x="409.5" y="-240.2" font-family="Helvetica,sans-Serif" font-size="11.00">asset_type_id</text>
<polygon fill="#ffffff" stroke="transparent" points="389.5,-210 389.5,-232 514.5,-232 514.5,-210 389.5,-210"/>
<polygon fill="none" stroke="black" points="389.5,-210 389.5,-232 514.5,-232 514.5,-210 389.5,-210"/>
<text text-anchor="start" x="409.5" y="-218.2" font-family="Helvetica,sans-Serif" font-size="11.00">is_active</text>
<polygon fill="#ffffff" stroke="transparent" points="389.5,-188 389.5,-210 514.5,-210 514.5,-188 389.5,-188"/>
<polygon fill="none" stroke="black" points="389.5,-188 389.5,-210 514.5,-210 514.5,-188 389.5,-188"/>
<image xlink:href="../../images/foreignKeys.png" width="11px" height="12px" preserveAspectRatio="xMinYMin meet" x="394.5" y="-205"/>
<text text-anchor="start" x="409.5" y="-196.2" font-family="Helvetica,sans-Serif" font-size="11.00">ref_id</text>
<polygon fill="none" stroke="black" points="389.5,-170 389.5,-188 514.5,-188 514.5,-170 389.5,-170"/>
<text text-anchor="start" x="392.5" y="-176.2" font-family="Helvetica,sans-Serif" font-size="11.00">...</text>
<polygon fill="#ffffff" stroke="transparent" points="389.5,-152 389.5,-170 418.5,-170 418.5,-152 389.5,-152"/>
<polygon fill="none" stroke="black" points="389.5,-152 389.5,-170 418.5,-170 418.5,-152 389.5,-152"/>
<text text-anchor="start" x="392.5" y="-158.2" font-family="Helvetica,sans-Serif" font-size="11.00">&lt; 3</text>
<polygon fill="#ffffff" stroke="transparent" points="418.5,-152 418.5,-170 488.5,-170 488.5,-152 418.5,-152"/>
<polygon fill="none" stroke="black" points="418.5,-152 418.5,-170 488.5,-170 488.5,-152 418.5,-152"/>
<text text-anchor="start" x="424.5" y="-158.2" font-family="Helvetica,sans-Serif" font-size="11.00">78,452 rows</text>
<polygon fill="#ffffff" stroke="transparent" points="488.5,-152 488.5,-170 514.5,-170 514.5,-152 488.5,-152"/>
<polygon fill="none" stroke="black" points="488.5,-152 488.5,-170 514.5,-170 514.5,-152 488.5,-152"/>
<text text-anchor="start" x="495.5" y="-158.2" font-family="Helvetica,sans-Serif" font-size="11.00">4 &gt;</text>
</a>
</g>
</g>
<!-- ref_id -->
<g id="node2" class="node">
<title>ref_id</title>
<g id="a_node2"><a xlink:href="../../tables/ref_id.html" xlink:title="ref_id" target="_top">
<polygon fill="#ffffff" stroke="transparent" points="174,-37 174,-191 340,-191 340,-37 174,-37"/>
<polygon fill="#f5f5f5" stroke="transparent" points="176,-167 176,-189 338,-189 338,-167 176,-167"/>
<polygon fill="none" stroke="black" points="176,-167 176,-189 338,-189 338,-167 176,-167"/>
<text text-anchor="start" x="181" y="-176.2" font-family="Helvetica,sans-Serif" font-weight="bold" font-size="11.00">ref_id</text>
<text text-anchor="start" x="303" y="-175.2" font-family="Helvetica,sans-Serif" font-size="11.00">[table]</text>
<polygon fill="none" stroke="black" points="176,-145 176,-167 271,-167 271,-145 176,-145"/>
<image xlink:href="../../images/primaryKeys.png" width="11px" height="12px" preserveAspectRatio="xMinYMin meet" x="181" y="-162"/>
<text text-anchor="start" x="198" y="-153.2" font-family="Helvetica,sans-Serif" font-size="11.00">id</text>
<polygon fill="none" stroke="black" points="271,-145 271,-167 338,-167 338,-145 271,-145"/>
<text text-anchor="start" x="274" y="-153.2" font-family="Helvetica,sans-Serif" font-size="11.00">serial[10]</text>
<polygon fill="none" stroke="black" points="176,-123 176,-145 271,-145 271,-123 176,-123"/>
<image xlink:href="../../images/foreignKeys.png" width="11px" height="12px" preserveAspectRatio="xMinYMin meet" x="181" y="-140"/>
<text text-anchor="start" x="198" y="-131.2" font-family="Helvetica,sans-Serif" font-size="11.00">customer_id</text>
<polygon fill="none" stroke="black" points="271,-123 271,-145 338,-145 338,-123 271,-123"/>
<text text-anchor="start" x="274" y="-131.2" font-family="Helvetica,sans-Serif" font-size="11.00">int4[10]</text>
<polygon fill="none" stroke="black" points="176,-101 176,-123 271,-123 271,-101 176,-101"/>
<text text-anchor="start" x="198" y="-109.2" font-family="Helvetica,sans-Serif" font-size="11.00">ref_name</text>
<polygon fill="none" stroke="black" points="271,-101 271,-123 338,-123 338,-101 271,-101"/>
<text text-anchor="start" x="274" y="-109.2" font-family="Helvetica,sans-Serif" font-size="11.00">varchar[128]</text>
<polygon fill="#ffffff" stroke="transparent" points="176,-79 176,-101 271,-101 271,-79 176,-79"/>
<polygon fill="none" stroke="black" points="176,-79 176,-101 271,-101 271,-79 176,-79"/>
<text text-anchor="start" x="198" y="-87.2" font-family="Helvetica,sans-Serif" font-size="11.00">is_active</text>
<polygon fill="none" stroke="black" points="271,-79 271,-101 338,-101 338,-79 271,-79"/>
<text text-anchor="start" x="274" y="-87.2" font-family="Helvetica,sans-Serif" font-size="11.00">int4[10]</text>
<polygon fill="none" stroke="black" points="176,-57 176,-79 271,-79 271,-57 176,-57"/>
<text text-anchor="start" x="198" y="-65.2" font-family="Helvetica,sans-Serif" font-size="11.00">ref_type</text>
<polygon fill="none" stroke="black" points="271,-57 271,-79 338,-79 338,-57 271,-57"/>
<text text-anchor="start" x="274" y="-65.2" font-family="Helvetica,sans-Serif" font-size="11.00">varchar[255]</text>
<polygon fill="#ffffff" stroke="transparent" points="176,-39 176,-57 198,-57 198,-39 176,-39"/>
<polygon fill="none" stroke="black" points="176,-39 176,-57 198,-57 198,-39 176,-39"/>
<text text-anchor="start" x="179" y="-45.2" font-family="Helvetica,sans-Serif" font-size="11.00">&lt; 1</text>
<polygon fill="#ffffff" stroke="transparent" points="198,-39 198,-57 271,-57 271,-39 198,-39"/>
<polygon fill="none" stroke="black" points="198,-39 198,-57 271,-57 271,-39 198,-39"/>
<text text-anchor="start" x="201" y="-45.2" font-family="Helvetica,sans-Serif" font-size="11.00">140,067 rows</text>
<polygon fill="#ffffff" stroke="transparent" points="271,-39 271,-57 338,-57 338,-39 271,-39"/>
<polygon fill="none" stroke="black" points="271,-39 271,-57 338,-57 338,-39 271,-39"/>
<text text-anchor="start" x="319" y="-45.2" font-family="Helvetica,sans-Serif" font-size="11.00">2 &gt;</text>
<polygon fill="none" stroke="black" stroke-width="2" points="175,-38 175,-190 339,-190 339,-38 175,-38"/>
</a>
</g>
</g>
<!-- assets&#45;&gt;ref_id -->
<g id="edge1" class="edge">
<title>assets:w&#45;&gt;ref_id:e</title>
<path fill="none" stroke="black" d="M378.24,-196.69C361.08,-187.76 364.04,-156 339,-156"/>
<polygon fill="black" stroke="black" points="388.6,-194.92 386.84,-202.73 385.28,-202.37 387.04,-194.57 388.6,-194.92"/>
<polyline fill="none" stroke="black" points="388.5,-199 384.6,-198.12 "/>
<ellipse fill="none" stroke="black" cx="381.48" cy="-197.42" rx="3.2" ry="3.2"/>
</g>
<!-- customers -->
<g id="node4" class="node">
<title>customers</title>
<g id="a_node4"><a xlink:href="../../tables/customers.html" xlink:title="customers" target="_top">
<polygon fill="#ffffff" stroke="transparent" points="8,-65 8,-167 125,-167 125,-65 8,-65"/>
<polygon fill="#f5f5f5" stroke="transparent" points="8.5,-145 8.5,-167 125.5,-167 125.5,-145 8.5,-145"/>
<polygon fill="none" stroke="black" points="8.5,-145 8.5,-167 125.5,-167 125.5,-145 8.5,-145"/>
<text text-anchor="start" x="13.5" y="-154.2" font-family="Helvetica,sans-Serif" font-weight="bold" font-size="11.00">customers</text>
<text text-anchor="start" x="90.5" y="-153.2" font-family="Helvetica,sans-Serif" font-size="11.00">[table]</text>
<polygon fill="none" stroke="black" points="8.5,-123 8.5,-145 125.5,-145 125.5,-123 8.5,-123"/>
<image xlink:href="../../images/primaryKeys.png" width="11px" height="12px" preserveAspectRatio="xMinYMin meet" x="13.5" y="-140"/>
<text text-anchor="start" x="28.5" y="-131.2" font-family="Helvetica,sans-Serif" font-size="11.00">id</text>
<polygon fill="#ffffff" stroke="transparent" points="8.5,-101 8.5,-123 125.5,-123 125.5,-101 8.5,-101"/>
<polygon fill="none" stroke="black" points="8.5,-101 8.5,-123 125.5,-123 125.5,-101 8.5,-101"/>
<text text-anchor="start" x="28.5" y="-109.2" font-family="Helvetica,sans-Serif" font-size="11.00">name</text>
<polygon fill="none" stroke="black" points="8.5,-83 8.5,-101 125.5,-101 125.5,-83 8.5,-83"/>
<text text-anchor="start" x="11.5" y="-89.2" font-family="Helvetica,sans-Serif" font-size="11.00">...</text>
<polygon fill="#ffffff" stroke="transparent" points="8.5,-65 8.5,-83 36.5,-83 36.5,-65 8.5,-65"/>
<polygon fill="none" stroke="black" points="8.5,-65 8.5,-83 36.5,-83 36.5,-65 8.5,-65"/>
<text text-anchor="start" x="11.5" y="-71.2" font-family="Helvetica,sans-Serif" font-size="11.00"> &#160;</text>
<polygon fill="#ffffff" stroke="transparent" points="36.5,-65 36.5,-83 95.5,-83 95.5,-65 36.5,-65"/>
<polygon fill="none" stroke="black" points="36.5,-65 36.5,-83 95.5,-83 95.5,-65 36.5,-65"/>
<text text-anchor="start" x="46.5" y="-71.2" font-family="Helvetica,sans-Serif" font-size="11.00">938 rows</text>
<polygon fill="#ffffff" stroke="transparent" points="95.5,-65 95.5,-83 125.5,-83 125.5,-65 95.5,-65"/>
<polygon fill="none" stroke="black" points="95.5,-65 95.5,-83 125.5,-83 125.5,-65 95.5,-65"/>
<text text-anchor="start" x="106.5" y="-71.2" font-family="Helvetica,sans-Serif" font-size="11.00">5 &gt;</text>
</a>
</g>
</g>
<!-- ref_id&#45;&gt;customers -->
<g id="edge4" class="edge">
<title>ref_id:w&#45;&gt;customers:e</title>
<path fill="none" stroke="black" d="M160.28,-134C149.29,-134 142.16,-134 126.5,-134"/>
<polygon fill="black" stroke="black" points="167,-134 175,-137.6 171,-134 175,-134 175,-134 175,-134 171,-134 175,-130.4 167,-134 167,-134"/>
<ellipse fill="none" stroke="black" cx="163.8" cy="-134" rx="3.2" ry="3.2"/>
</g>
<!-- locations -->
<g id="node3" class="node">
<title>locations</title>
<g id="a_node3"><a xlink:href="../../tables/locations.html" xlink:title="locations" target="_top">
<polygon fill="#ffffff" stroke="transparent" points="563,-50 563,-372 776,-372 776,-50 563,-50"/>
<polygon fill="#f5f5f5" stroke="transparent" points="563.5,-350 563.5,-372 776.5,-372 776.5,-350 563.5,-350"/>
<polygon fill="none" stroke="black" points="563.5,-350 563.5,-372 776.5,-372 776.5,-350 563.5,-350"/>
<text text-anchor="start" x="568.5" y="-359.2" font-family="Helvetica,sans-Serif" font-weight="bold" font-size="11.00">locations</text>
<text text-anchor="start" x="741.5" y="-358.2" font-family="Helvetica,sans-Serif" font-size="11.00">[table]</text>
<polygon fill="none" stroke="black" points="563.5,-328 563.5,-350 776.5,-350 776.5,-328 563.5,-328"/>
<image xlink:href="../../images/primaryKeys.png" width="11px" height="12px" preserveAspectRatio="xMinYMin meet" x="568.5" y="-345"/>
<text text-anchor="start" x="583.5" y="-336.2" font-family="Helvetica,sans-Serif" font-size="11.00">id</text>
<polygon fill="#ffffff" stroke="transparent" points="563.5,-306 563.5,-328 776.5,-328 776.5,-306 563.5,-306"/>
<polygon fill="none" stroke="black" points="563.5,-306 563.5,-328 776.5,-328 776.5,-306 563.5,-306"/>
<image xlink:href="../../images/foreignKeys.png" width="11px" height="12px" preserveAspectRatio="xMinYMin meet" x="568.5" y="-323"/>
<text text-anchor="start" x="583.5" y="-314.2" font-family="Helvetica,sans-Serif" font-size="11.00">asset_id</text>
<polygon fill="#ffffff" stroke="transparent" points="563.5,-284 563.5,-306 776.5,-306 776.5,-284 563.5,-284"/>
<polygon fill="none" stroke="black" points="563.5,-284 563.5,-306 776.5,-306 776.5,-284 563.5,-284"/>
<text text-anchor="start" x="583.5" y="-292.2" font-family="Helvetica,sans-Serif" font-size="11.00">name</text>
<polygon fill="#ffffff" stroke="transparent" points="563.5,-262 563.5,-284 776.5,-284 776.5,-262 563.5,-262"/>
<polygon fill="none" stroke="black" points="563.5,-262 563.5,-284 776.5,-284 776.5,-262 563.5,-262"/>
<text text-anchor="start" x="583.5" y="-270.2" font-family="Helvetica,sans-Serif" font-size="11.00">admin_area_level0</text>
<polygon fill="#ffffff" stroke="transparent" points="563.5,-240 563.5,-262 776.5,-262 776.5,-240 563.5,-240"/>
<polygon fill="none" stroke="black" points="563.5,-240 563.5,-262 776.5,-262 776.5,-240 563.5,-240"/>
<text text-anchor="start" x="583.5" y="-248.2" font-family="Helvetica,sans-Serif" font-size="11.00">admin_area_level1</text>
<polygon fill="#ffffff" stroke="transparent" points="563.5,-218 563.5,-240 776.5,-240 776.5,-218 563.5,-218"/>
<polygon fill="none" stroke="black" points="563.5,-218 563.5,-240 776.5,-240 776.5,-218 563.5,-218"/>
<text text-anchor="start" x="583.5" y="-226.2" font-family="Helvetica,sans-Serif" font-size="11.00">admin_area_level2</text>
<polygon fill="#ffffff" stroke="transparent" points="563.5,-196 563.5,-218 776.5,-218 776.5,-196 563.5,-196"/>
<polygon fill="none" stroke="black" points="563.5,-196 563.5,-218 776.5,-218 776.5,-196 563.5,-196"/>
<text text-anchor="start" x="583.5" y="-204.2" font-family="Helvetica,sans-Serif" font-size="11.00">proc_flag_loc_eval_risks</text>
<polygon fill="#ffffff" stroke="transparent" points="563.5,-174 563.5,-196 776.5,-196 776.5,-174 563.5,-174"/>
<polygon fill="none" stroke="black" points="563.5,-174 563.5,-196 776.5,-196 776.5,-174 563.5,-174"/>
<text text-anchor="start" x="583.5" y="-182.2" font-family="Helvetica,sans-Serif" font-size="11.00">proc_flag_loc_assign_gridded</text>
<polygon fill="#ffffff" stroke="transparent" points="563.5,-152 563.5,-174 776.5,-174 776.5,-152 563.5,-152"/>
<polygon fill="none" stroke="black" points="563.5,-152 563.5,-174 776.5,-174 776.5,-152 563.5,-152"/>
<text text-anchor="start" x="583.5" y="-160.2" font-family="Helvetica,sans-Serif" font-size="11.00">proc_flag_loc_assign_segmented</text>
<polygon fill="#ffffff" stroke="transparent" points="563.5,-130 563.5,-152 776.5,-152 776.5,-130 563.5,-130"/>
<polygon fill="none" stroke="black" points="563.5,-130 563.5,-152 776.5,-152 776.5,-130 563.5,-130"/>
<text text-anchor="start" x="583.5" y="-138.2" font-family="Helvetica,sans-Serif" font-size="11.00">proc_flag_loc_assign_point</text>
<polygon fill="#ffffff" stroke="transparent" points="563.5,-108 563.5,-130 776.5,-130 776.5,-108 563.5,-108"/>
<polygon fill="none" stroke="black" points="563.5,-108 563.5,-130 776.5,-130 776.5,-108 563.5,-108"/>
<text text-anchor="start" x="583.5" y="-116.2" font-family="Helvetica,sans-Serif" font-size="11.00">proc_flag_loc_assign_regional</text>
<polygon fill="#ffffff" stroke="transparent" points="563.5,-86 563.5,-108 776.5,-108 776.5,-86 563.5,-86"/>
<polygon fill="none" stroke="black" points="563.5,-86 563.5,-108 776.5,-108 776.5,-86 563.5,-86"/>
<image xlink:href="../../images/foreignKeys.png" width="11px" height="12px" preserveAspectRatio="xMinYMin meet" x="568.5" y="-103"/>
<text text-anchor="start" x="583.5" y="-94.2" font-family="Helvetica,sans-Serif" font-size="11.00">ref_id</text>
<polygon fill="none" stroke="black" points="563.5,-68 563.5,-86 776.5,-86 776.5,-68 563.5,-68"/>
<text text-anchor="start" x="566.5" y="-74.2" font-family="Helvetica,sans-Serif" font-size="11.00">...</text>
<polygon fill="#ffffff" stroke="transparent" points="563.5,-50 563.5,-68 636.5,-68 636.5,-50 563.5,-50"/>
<polygon fill="none" stroke="black" points="563.5,-50 563.5,-68 636.5,-68 636.5,-50 563.5,-50"/>
<text text-anchor="start" x="566.5" y="-56.2" font-family="Helvetica,sans-Serif" font-size="11.00">&lt; 2</text>
<polygon fill="#ffffff" stroke="transparent" points="636.5,-50 636.5,-68 728.5,-68 728.5,-50 636.5,-50"/>
<polygon fill="none" stroke="black" points="636.5,-50 636.5,-68 728.5,-68 728.5,-50 636.5,-50"/>
<text text-anchor="start" x="664.5" y="-56.2" font-family="Helvetica,sans-Serif" font-size="11.00">81,629 rows</text>
<polygon fill="#ffffff" stroke="transparent" points="728.5,-50 728.5,-68 776.5,-68 776.5,-50 728.5,-50"/>
<polygon fill="none" stroke="black" points="728.5,-50 728.5,-68 776.5,-68 776.5,-50 728.5,-50"/>
<text text-anchor="start" x="757.5" y="-56.2" font-family="Helvetica,sans-Serif" font-size="11.00">3 &gt;</text>
</a>
</g>
</g>
<!-- locations&#45;&gt;assets -->
<g id="edge2" class="edge">
<title>locations:w&#45;&gt;assets:e</title>
<path fill="none" stroke="black" d="M548.53,-312.57C537.36,-304.23 534.28,-287 515.5,-287"/>
<polygon fill="black" stroke="black" points="554.87,-314.58 561.41,-320.43 558.69,-315.79 562.5,-317 562.5,-317 562.5,-317 558.69,-315.79 563.59,-313.57 554.87,-314.58 554.87,-314.58"/>
<ellipse fill="none" stroke="black" cx="551.82" cy="-313.62" rx="3.2" ry="3.2"/>
</g>
<!-- locations&#45;&gt;ref_id -->
<g id="edge3" class="edge">
<title>locations:w&#45;&gt;ref_id:e</title>
<path fill="none" stroke="black" d="M548.1,-97.22C476.98,-99.46 455.71,-118.67 381,-141 362.01,-146.68 358.82,-156 339,-156"/>
<polygon fill="black" stroke="black" points="554.5,-97.12 562.55,-100.6 558.5,-97.06 562.5,-97 562.5,-97 562.5,-97 558.5,-97.06 562.45,-93.4 554.5,-97.12 554.5,-97.12"/>
<ellipse fill="none" stroke="black" cx="551.3" cy="-97.17" rx="3.2" ry="3.2"/>
</g>
</g>
</svg>
