<?xml version="1.0" encoding="UTF-8" standalone="no"?>
<!DOCTYPE svg PUBLIC "-//W3C//DTD SVG 1.1//EN"
 "http://www.w3.org/Graphics/SVG/1.1/DTD/svg11.dtd">
<!-- Generated by graphviz version 2.50.0 (20211204.2007)
 -->
<!-- Title: twoDegreesRelationshipsDiagram Pages: 1 -->
<svg width="980pt" height="689pt"
 viewBox="0.00 0.00 980.00 689.00" xmlns="http://www.w3.org/2000/svg" xmlns:xlink="http://www.w3.org/1999/xlink">
<g id="graph0" class="graph" transform="scale(1 1) rotate(0) translate(4 685)">
<title>twoDegreesRelationshipsDiagram</title>
<polygon fill="#ffffff" stroke="transparent" points="-4,4 -4,-685 976,-685 976,4 -4,4"/>
<text text-anchor="middle" x="72.5" y="-7.2" font-family="Helvetica,sans-Serif" font-size="11.00">Generated by SchemaSpy</text>
<!-- aggregate_risks -->
<g id="node1" class="node">
<title>aggregate_risks</title>
<g id="a_node1"><a xlink:href="../../tables/aggregate_risks.html" xlink:title="aggregate_risks" target="_top">
<polygon fill="#ffffff" stroke="transparent" points="193.5,-37 193.5,-95 323.5,-95 323.5,-37 193.5,-37"/>
<polygon fill="#f5f5f5" stroke="transparent" points="193.5,-73 193.5,-95 323.5,-95 323.5,-73 193.5,-73"/>
<polygon fill="none" stroke="black" points="193.5,-73 193.5,-95 323.5,-95 323.5,-73 193.5,-73"/>
<text text-anchor="start" x="198.5" y="-82.2" font-family="Helvetica,sans-Serif" font-weight="bold" font-size="11.00">aggregate_risks</text>
<text text-anchor="start" x="288.5" y="-81.2" font-family="Helvetica,sans-Serif" font-size="11.00">[table]</text>
<polygon fill="none" stroke="black" points="193.5,-55 193.5,-73 323.5,-73 323.5,-55 193.5,-55"/>
<text text-anchor="start" x="196.5" y="-61.2" font-family="Helvetica,sans-Serif" font-size="11.00">...</text>
<polygon fill="#ffffff" stroke="transparent" points="193.5,-37 193.5,-55 226.5,-55 226.5,-37 193.5,-37"/>
<polygon fill="none" stroke="black" points="193.5,-37 193.5,-55 226.5,-55 226.5,-37 193.5,-37"/>
<text text-anchor="start" x="196.5" y="-43.2" font-family="Helvetica,sans-Serif" font-size="11.00">&lt; 4</text>
<polygon fill="#ffffff" stroke="transparent" points="226.5,-37 226.5,-55 304.5,-55 304.5,-37 226.5,-37"/>
<polygon fill="none" stroke="black" points="226.5,-37 226.5,-55 304.5,-55 304.5,-37 226.5,-37"/>
<text text-anchor="start" x="234.5" y="-43.2" font-family="Helvetica,sans-Serif" font-size="11.00">133,008 rows</text>
<polygon fill="#ffffff" stroke="transparent" points="304.5,-37 304.5,-55 323.5,-55 323.5,-37 304.5,-37"/>
<polygon fill="none" stroke="black" points="304.5,-37 304.5,-55 323.5,-55 323.5,-37 304.5,-37"/>
<text text-anchor="start" x="313.5" y="-43.2" font-family="Helvetica,sans-Serif" font-size="11.00"> &#160;</text>
</a>
</g>
</g>
<!-- customers -->
<g id="node2" class="node">
<title>customers</title>
<g id="a_node2"><a xlink:href="../../tables/customers.html" xlink:title="customers" target="_top">
<polygon fill="#ffffff" stroke="transparent" points="8,-171 8,-273 125,-273 125,-171 8,-171"/>
<polygon fill="#f5f5f5" stroke="transparent" points="8.5,-251 8.5,-273 125.5,-273 125.5,-251 8.5,-251"/>
<polygon fill="none" stroke="black" points="8.5,-251 8.5,-273 125.5,-273 125.5,-251 8.5,-251"/>
<text text-anchor="start" x="13.5" y="-260.2" font-family="Helvetica,sans-Serif" font-weight="bold" font-size="11.00">customers</text>
<text text-anchor="start" x="90.5" y="-259.2" font-family="Helvetica,sans-Serif" font-size="11.00">[table]</text>
<polygon fill="none" stroke="black" points="8.5,-229 8.5,-251 125.5,-251 125.5,-229 8.5,-229"/>
<image xlink:href="../../images/primaryKeys.png" width="11px" height="12px" preserveAspectRatio="xMinYMin meet" x="13.5" y="-246"/>
<text text-anchor="start" x="28.5" y="-237.2" font-family="Helvetica,sans-Serif" font-size="11.00">id</text>
<polygon fill="#ffffff" stroke="transparent" points="8.5,-207 8.5,-229 125.5,-229 125.5,-207 8.5,-207"/>
<polygon fill="none" stroke="black" points="8.5,-207 8.5,-229 125.5,-229 125.5,-207 8.5,-207"/>
<text text-anchor="start" x="28.5" y="-215.2" font-family="Helvetica,sans-Serif" font-size="11.00">name</text>
<polygon fill="none" stroke="black" points="8.5,-189 8.5,-207 125.5,-207 125.5,-189 8.5,-189"/>
<text text-anchor="start" x="11.5" y="-195.2" font-family="Helvetica,sans-Serif" font-size="11.00">...</text>
<polygon fill="#ffffff" stroke="transparent" points="8.5,-171 8.5,-189 36.5,-189 36.5,-171 8.5,-171"/>
<polygon fill="none" stroke="black" points="8.5,-171 8.5,-189 36.5,-189 36.5,-171 8.5,-171"/>
<text text-anchor="start" x="11.5" y="-177.2" font-family="Helvetica,sans-Serif" font-size="11.00"> &#160;</text>
<polygon fill="#ffffff" stroke="transparent" points="36.5,-171 36.5,-189 95.5,-189 95.5,-171 36.5,-171"/>
<polygon fill="none" stroke="black" points="36.5,-171 36.5,-189 95.5,-189 95.5,-171 36.5,-171"/>
<text text-anchor="start" x="46.5" y="-177.2" font-family="Helvetica,sans-Serif" font-size="11.00">938 rows</text>
<polygon fill="#ffffff" stroke="transparent" points="95.5,-171 95.5,-189 125.5,-189 125.5,-171 95.5,-171"/>
<polygon fill="none" stroke="black" points="95.5,-171 95.5,-189 125.5,-189 125.5,-171 95.5,-171"/>
<text text-anchor="start" x="106.5" y="-177.2" font-family="Helvetica,sans-Serif" font-size="11.00">5 &gt;</text>
</a>
</g>
</g>
<!-- aggregate_risks&#45;&gt;customers -->
<g id="edge1" class="edge">
<title>aggregate_risks:w&#45;&gt;customers:e</title>
<path fill="none" stroke="black" d="M178.19,-66.23C121.57,-86.6 204.49,-240 126.5,-240"/>
<polygon fill="black" stroke="black" points="184.6,-65.23 193.05,-67.56 188.55,-64.61 192.5,-64 192.5,-64 192.5,-64 188.55,-64.61 191.95,-60.44 184.6,-65.23 184.6,-65.23"/>
<ellipse fill="none" stroke="black" cx="181.43" cy="-65.72" rx="3.2" ry="3.2"/>
</g>
<!-- asset_values -->
<g id="node3" class="node">
<title>asset_values</title>
<g id="a_node3"><a xlink:href="../../tables/asset_values.html" xlink:title="asset_values" target="_top">
<polygon fill="#ffffff" stroke="transparent" points="615.5,-540 615.5,-598 729.5,-598 729.5,-540 615.5,-540"/>
<polygon fill="#f5f5f5" stroke="transparent" points="615.5,-576 615.5,-598 729.5,-598 729.5,-576 615.5,-576"/>
<polygon fill="none" stroke="black" points="615.5,-576 615.5,-598 729.5,-598 729.5,-576 615.5,-576"/>
<text text-anchor="start" x="620.5" y="-585.2" font-family="Helvetica,sans-Serif" font-weight="bold" font-size="11.00">asset_values</text>
<text text-anchor="start" x="694.5" y="-584.2" font-family="Helvetica,sans-Serif" font-size="11.00">[table]</text>
<polygon fill="none" stroke="black" points="615.5,-558 615.5,-576 729.5,-576 729.5,-558 615.5,-558"/>
<text text-anchor="start" x="618.5" y="-564.2" font-family="Helvetica,sans-Serif" font-size="11.00">...</text>
<polygon fill="#ffffff" stroke="transparent" points="615.5,-540 615.5,-558 656.5,-558 656.5,-540 615.5,-540"/>
<polygon fill="none" stroke="black" points="615.5,-540 615.5,-558 656.5,-558 656.5,-540 615.5,-540"/>
<text text-anchor="start" x="618.5" y="-546.2" font-family="Helvetica,sans-Serif" font-size="11.00">&lt; 2</text>
<polygon fill="#ffffff" stroke="transparent" points="656.5,-540 656.5,-558 706.5,-558 706.5,-540 656.5,-540"/>
<polygon fill="none" stroke="black" points="656.5,-540 656.5,-558 706.5,-558 706.5,-540 656.5,-540"/>
<text text-anchor="start" x="669.5" y="-546.2" font-family="Helvetica,sans-Serif" font-size="11.00">8 rows</text>
<polygon fill="#ffffff" stroke="transparent" points="706.5,-540 706.5,-558 729.5,-558 729.5,-540 706.5,-540"/>
<polygon fill="none" stroke="black" points="706.5,-540 706.5,-558 729.5,-558 729.5,-540 706.5,-540"/>
<text text-anchor="start" x="719.5" y="-546.2" font-family="Helvetica,sans-Serif" font-size="11.00"> &#160;</text>
</a>
</g>
</g>
<!-- assets -->
<g id="node4" class="node">
<title>assets</title>
<g id="a_node4"><a xlink:href="../../tables/assets.html" xlink:title="assets" target="_top">
<polygon fill="#ffffff" stroke="transparent" points="392,-333 392,-501 517,-501 517,-333 392,-333"/>
<polygon fill="#f5f5f5" stroke="transparent" points="392.5,-479 392.5,-501 517.5,-501 517.5,-479 392.5,-479"/>
<polygon fill="none" stroke="black" points="392.5,-479 392.5,-501 517.5,-501 517.5,-479 392.5,-479"/>
<text text-anchor="start" x="397.5" y="-488.2" font-family="Helvetica,sans-Serif" font-weight="bold" font-size="11.00">assets</text>
<text text-anchor="start" x="482.5" y="-487.2" font-family="Helvetica,sans-Serif" font-size="11.00">[table]</text>
<polygon fill="none" stroke="black" points="392.5,-457 392.5,-479 517.5,-479 517.5,-457 392.5,-457"/>
<image xlink:href="../../images/primaryKeys.png" width="11px" height="12px" preserveAspectRatio="xMinYMin meet" x="397.5" y="-474"/>
<text text-anchor="start" x="412.5" y="-465.2" font-family="Helvetica,sans-Serif" font-size="11.00">id</text>
<polygon fill="none" stroke="black" points="392.5,-435 392.5,-457 517.5,-457 517.5,-435 392.5,-435"/>
<image xlink:href="../../images/foreignKeys.png" width="11px" height="12px" preserveAspectRatio="xMinYMin meet" x="397.5" y="-452"/>
<text text-anchor="start" x="412.5" y="-443.2" font-family="Helvetica,sans-Serif" font-size="11.00">investment_id</text>
<polygon fill="none" stroke="black" points="392.5,-413 392.5,-435 517.5,-435 517.5,-413 392.5,-413"/>
<image xlink:href="../../images/foreignKeys.png" width="11px" height="12px" preserveAspectRatio="xMinYMin meet" x="397.5" y="-430"/>
<text text-anchor="start" x="412.5" y="-421.2" font-family="Helvetica,sans-Serif" font-size="11.00">asset_type_id</text>
<polygon fill="#ffffff" stroke="transparent" points="392.5,-391 392.5,-413 517.5,-413 517.5,-391 392.5,-391"/>
<polygon fill="none" stroke="black" points="392.5,-391 392.5,-413 517.5,-413 517.5,-391 392.5,-391"/>
<text text-anchor="start" x="412.5" y="-399.2" font-family="Helvetica,sans-Serif" font-size="11.00">is_active</text>
<polygon fill="#ffffff" stroke="transparent" points="392.5,-369 392.5,-391 517.5,-391 517.5,-369 392.5,-369"/>
<polygon fill="none" stroke="black" points="392.5,-369 392.5,-391 517.5,-391 517.5,-369 392.5,-369"/>
<image xlink:href="../../images/foreignKeys.png" width="11px" height="12px" preserveAspectRatio="xMinYMin meet" x="397.5" y="-386"/>
<text text-anchor="start" x="412.5" y="-377.2" font-family="Helvetica,sans-Serif" font-size="11.00">ref_id</text>
<polygon fill="none" stroke="black" points="392.5,-351 392.5,-369 517.5,-369 517.5,-351 392.5,-351"/>
<text text-anchor="start" x="395.5" y="-357.2" font-family="Helvetica,sans-Serif" font-size="11.00">...</text>
<polygon fill="#ffffff" stroke="transparent" points="392.5,-333 392.5,-351 421.5,-351 421.5,-333 392.5,-333"/>
<polygon fill="none" stroke="black" points="392.5,-333 392.5,-351 421.5,-351 421.5,-333 392.5,-333"/>
<text text-anchor="start" x="395.5" y="-339.2" font-family="Helvetica,sans-Serif" font-size="11.00">&lt; 3</text>
<polygon fill="#ffffff" stroke="transparent" points="421.5,-333 421.5,-351 491.5,-351 491.5,-333 421.5,-333"/>
<polygon fill="none" stroke="black" points="421.5,-333 421.5,-351 491.5,-351 491.5,-333 421.5,-333"/>
<text text-anchor="start" x="427.5" y="-339.2" font-family="Helvetica,sans-Serif" font-size="11.00">78,452 rows</text>
<polygon fill="#ffffff" stroke="transparent" points="491.5,-333 491.5,-351 517.5,-351 517.5,-333 491.5,-333"/>
<polygon fill="none" stroke="black" points="491.5,-333 491.5,-351 517.5,-351 517.5,-333 491.5,-333"/>
<text text-anchor="start" x="498.5" y="-339.2" font-family="Helvetica,sans-Serif" font-size="11.00">4 &gt;</text>
</a>
</g>
</g>
<!-- asset_values&#45;&gt;assets -->
<g id="edge2" class="edge">
<title>asset_values:w&#45;&gt;assets:e</title>
<path fill="none" stroke="black" d="M599.95,-565.42C581.91,-560.93 575.14,-547.35 558,-530 535.04,-506.75 551.17,-468 518.5,-468"/>
<polygon fill="black" stroke="black" points="606.55,-566.13 614.11,-570.58 610.52,-566.57 614.5,-567 614.5,-567 614.5,-567 610.52,-566.57 614.89,-563.42 606.55,-566.13 606.55,-566.13"/>
<ellipse fill="none" stroke="black" cx="603.37" cy="-565.79" rx="3.2" ry="3.2"/>
</g>
<!-- asset_types -->
<g id="node5" class="node">
<title>asset_types</title>
<g id="a_node5"><a xlink:href="../../tables/asset_types.html" xlink:title="asset_types" target="_top">
<polygon fill="#ffffff" stroke="transparent" points="204.5,-397 204.5,-455 312.5,-455 312.5,-397 204.5,-397"/>
<polygon fill="#f5f5f5" stroke="transparent" points="204.5,-433 204.5,-455 312.5,-455 312.5,-433 204.5,-433"/>
<polygon fill="none" stroke="black" points="204.5,-433 204.5,-455 312.5,-455 312.5,-433 204.5,-433"/>
<text text-anchor="start" x="209.5" y="-442.2" font-family="Helvetica,sans-Serif" font-weight="bold" font-size="11.00">asset_types</text>
<text text-anchor="start" x="277.5" y="-441.2" font-family="Helvetica,sans-Serif" font-size="11.00">[table]</text>
<polygon fill="none" stroke="black" points="204.5,-415 204.5,-433 312.5,-433 312.5,-415 204.5,-415"/>
<text text-anchor="start" x="207.5" y="-421.2" font-family="Helvetica,sans-Serif" font-size="11.00">...</text>
<polygon fill="#ffffff" stroke="transparent" points="204.5,-397 204.5,-415 223.5,-415 223.5,-397 204.5,-397"/>
<polygon fill="none" stroke="black" points="204.5,-397 204.5,-415 223.5,-415 223.5,-397 204.5,-397"/>
<text text-anchor="start" x="207.5" y="-403.2" font-family="Helvetica,sans-Serif" font-size="11.00"> &#160;</text>
<polygon fill="#ffffff" stroke="transparent" points="223.5,-397 223.5,-415 287.5,-415 287.5,-397 223.5,-397"/>
<polygon fill="none" stroke="black" points="223.5,-397 223.5,-415 287.5,-415 287.5,-397 223.5,-397"/>
<text text-anchor="start" x="229.5" y="-403.2" font-family="Helvetica,sans-Serif" font-size="11.00">1,156 rows</text>
<polygon fill="#ffffff" stroke="transparent" points="287.5,-397 287.5,-415 312.5,-415 312.5,-397 287.5,-397"/>
<polygon fill="none" stroke="black" points="287.5,-397 287.5,-415 312.5,-415 312.5,-397 287.5,-397"/>
<text text-anchor="start" x="293.5" y="-403.2" font-family="Helvetica,sans-Serif" font-size="11.00">3 &gt;</text>
</a>
</g>
</g>
<!-- assets&#45;&gt;asset_types -->
<g id="edge3" class="edge">
<title>assets:w&#45;&gt;asset_types:e</title>
<path fill="none" stroke="black" d="M376.96,-424C353.49,-424 342.75,-424 313.5,-424"/>
<polygon fill="black" stroke="black" points="383.5,-424 391.5,-427.6 387.5,-424 391.5,-424 391.5,-424 391.5,-424 387.5,-424 391.5,-420.4 383.5,-424 383.5,-424"/>
<ellipse fill="none" stroke="black" cx="380.3" cy="-424" rx="3.2" ry="3.2"/>
</g>
<!-- investments -->
<g id="node6" class="node">
<title>investments</title>
<g id="a_node6"><a xlink:href="../../tables/investments.html" xlink:title="investments" target="_top">
<polygon fill="#ffffff" stroke="transparent" points="203.5,-476 203.5,-534 313.5,-534 313.5,-476 203.5,-476"/>
<polygon fill="#f5f5f5" stroke="transparent" points="203.5,-512 203.5,-534 313.5,-534 313.5,-512 203.5,-512"/>
<polygon fill="none" stroke="black" points="203.5,-512 203.5,-534 313.5,-534 313.5,-512 203.5,-512"/>
<text text-anchor="start" x="208.5" y="-521.2" font-family="Helvetica,sans-Serif" font-weight="bold" font-size="11.00">investments</text>
<text text-anchor="start" x="278.5" y="-520.2" font-family="Helvetica,sans-Serif" font-size="11.00">[table]</text>
<polygon fill="none" stroke="black" points="203.5,-494 203.5,-512 313.5,-512 313.5,-494 203.5,-494"/>
<text text-anchor="start" x="206.5" y="-500.2" font-family="Helvetica,sans-Serif" font-size="11.00">...</text>
<polygon fill="#ffffff" stroke="transparent" points="203.5,-476 203.5,-494 227.5,-494 227.5,-476 203.5,-476"/>
<polygon fill="none" stroke="black" points="203.5,-476 203.5,-494 227.5,-494 227.5,-476 203.5,-476"/>
<text text-anchor="start" x="206.5" y="-482.2" font-family="Helvetica,sans-Serif" font-size="11.00">&lt; 1</text>
<polygon fill="#ffffff" stroke="transparent" points="227.5,-476 227.5,-494 289.5,-494 289.5,-476 227.5,-476"/>
<polygon fill="none" stroke="black" points="227.5,-476 227.5,-494 289.5,-494 289.5,-476 227.5,-476"/>
<text text-anchor="start" x="231.5" y="-482.2" font-family="Helvetica,sans-Serif" font-size="11.00">2,996 rows</text>
<polygon fill="#ffffff" stroke="transparent" points="289.5,-476 289.5,-494 313.5,-494 313.5,-476 289.5,-476"/>
<polygon fill="none" stroke="black" points="289.5,-476 289.5,-494 313.5,-494 313.5,-476 289.5,-476"/>
<text text-anchor="start" x="294.5" y="-482.2" font-family="Helvetica,sans-Serif" font-size="11.00">2 &gt;</text>
</a>
</g>
</g>
<!-- assets&#45;&gt;investments -->
<g id="edge4" class="edge">
<title>assets:w&#45;&gt;investments:e</title>
<path fill="none" stroke="black" d="M376.98,-448.75C350.19,-460.14 351.42,-503 314.5,-503"/>
<polygon fill="black" stroke="black" points="383.64,-447.49 392.17,-449.54 387.57,-446.74 391.5,-446 391.5,-446 391.5,-446 387.57,-446.74 390.83,-442.46 383.64,-447.49 383.64,-447.49"/>
<ellipse fill="none" stroke="black" cx="380.5" cy="-448.08" rx="3.2" ry="3.2"/>
</g>
<!-- ref_id -->
<g id="node7" class="node">
<title>ref_id</title>
<g id="a_node7"><a xlink:href="../../tables/ref_id.html" xlink:title="ref_id" target="_top">
<polygon fill="#ffffff" stroke="transparent" points="175.5,-143 175.5,-297 341.5,-297 341.5,-143 175.5,-143"/>
<polygon fill="#f5f5f5" stroke="transparent" points="177.5,-273 177.5,-295 339.5,-295 339.5,-273 177.5,-273"/>
<polygon fill="none" stroke="black" points="177.5,-273 177.5,-295 339.5,-295 339.5,-273 177.5,-273"/>
<text text-anchor="start" x="182.5" y="-282.2" font-family="Helvetica,sans-Serif" font-weight="bold" font-size="11.00">ref_id</text>
<text text-anchor="start" x="304.5" y="-281.2" font-family="Helvetica,sans-Serif" font-size="11.00">[table]</text>
<polygon fill="none" stroke="black" points="177.5,-251 177.5,-273 272.5,-273 272.5,-251 177.5,-251"/>
<image xlink:href="../../images/primaryKeys.png" width="11px" height="12px" preserveAspectRatio="xMinYMin meet" x="182.5" y="-268"/>
<text text-anchor="start" x="199.5" y="-259.2" font-family="Helvetica,sans-Serif" font-size="11.00">id</text>
<polygon fill="none" stroke="black" points="272.5,-251 272.5,-273 339.5,-273 339.5,-251 272.5,-251"/>
<text text-anchor="start" x="275.5" y="-259.2" font-family="Helvetica,sans-Serif" font-size="11.00">serial[10]</text>
<polygon fill="none" stroke="black" points="177.5,-229 177.5,-251 272.5,-251 272.5,-229 177.5,-229"/>
<image xlink:href="../../images/foreignKeys.png" width="11px" height="12px" preserveAspectRatio="xMinYMin meet" x="182.5" y="-246"/>
<text text-anchor="start" x="199.5" y="-237.2" font-family="Helvetica,sans-Serif" font-size="11.00">customer_id</text>
<polygon fill="none" stroke="black" points="272.5,-229 272.5,-251 339.5,-251 339.5,-229 272.5,-229"/>
<text text-anchor="start" x="275.5" y="-237.2" font-family="Helvetica,sans-Serif" font-size="11.00">int4[10]</text>
<polygon fill="none" stroke="black" points="177.5,-207 177.5,-229 272.5,-229 272.5,-207 177.5,-207"/>
<text text-anchor="start" x="199.5" y="-215.2" font-family="Helvetica,sans-Serif" font-size="11.00">ref_name</text>
<polygon fill="none" stroke="black" points="272.5,-207 272.5,-229 339.5,-229 339.5,-207 272.5,-207"/>
<text text-anchor="start" x="275.5" y="-215.2" font-family="Helvetica,sans-Serif" font-size="11.00">varchar[128]</text>
<polygon fill="#ffffff" stroke="transparent" points="177.5,-185 177.5,-207 272.5,-207 272.5,-185 177.5,-185"/>
<polygon fill="none" stroke="black" points="177.5,-185 177.5,-207 272.5,-207 272.5,-185 177.5,-185"/>
<text text-anchor="start" x="199.5" y="-193.2" font-family="Helvetica,sans-Serif" font-size="11.00">is_active</text>
<polygon fill="none" stroke="black" points="272.5,-185 272.5,-207 339.5,-207 339.5,-185 272.5,-185"/>
<text text-anchor="start" x="275.5" y="-193.2" font-family="Helvetica,sans-Serif" font-size="11.00">int4[10]</text>
<polygon fill="none" stroke="black" points="177.5,-163 177.5,-185 272.5,-185 272.5,-163 177.5,-163"/>
<text text-anchor="start" x="199.5" y="-171.2" font-family="Helvetica,sans-Serif" font-size="11.00">ref_type</text>
<polygon fill="none" stroke="black" points="272.5,-163 272.5,-185 339.5,-185 339.5,-163 272.5,-163"/>
<text text-anchor="start" x="275.5" y="-171.2" font-family="Helvetica,sans-Serif" font-size="11.00">varchar[255]</text>
<polygon fill="#ffffff" stroke="transparent" points="177.5,-145 177.5,-163 199.5,-163 199.5,-145 177.5,-145"/>
<polygon fill="none" stroke="black" points="177.5,-145 177.5,-163 199.5,-163 199.5,-145 177.5,-145"/>
<text text-anchor="start" x="180.5" y="-151.2" font-family="Helvetica,sans-Serif" font-size="11.00">&lt; 1</text>
<polygon fill="#ffffff" stroke="transparent" points="199.5,-145 199.5,-163 272.5,-163 272.5,-145 199.5,-145"/>
<polygon fill="none" stroke="black" points="199.5,-145 199.5,-163 272.5,-163 272.5,-145 199.5,-145"/>
<text text-anchor="start" x="202.5" y="-151.2" font-family="Helvetica,sans-Serif" font-size="11.00">140,067 rows</text>
<polygon fill="#ffffff" stroke="transparent" points="272.5,-145 272.5,-163 339.5,-163 339.5,-145 272.5,-145"/>
<polygon fill="none" stroke="black" points="272.5,-145 272.5,-163 339.5,-163 339.5,-145 272.5,-145"/>
<text text-anchor="start" x="320.5" y="-151.2" font-family="Helvetica,sans-Serif" font-size="11.00">2 &gt;</text>
<polygon fill="none" stroke="black" stroke-width="2" points="176.5,-144 176.5,-296 340.5,-296 340.5,-144 176.5,-144"/>
</a>
</g>
</g>
<!-- assets&#45;&gt;ref_id -->
<g id="edge5" class="edge">
<title>assets:w&#45;&gt;ref_id:e</title>
<path fill="none" stroke="black" d="M381.15,-378.33C342.67,-363.99 393.62,-262 340.5,-262"/>
<polygon fill="black" stroke="black" points="391.35,-375.92 390.07,-383.82 388.49,-383.57 389.77,-375.67 391.35,-375.92"/>
<polyline fill="none" stroke="black" points="391.5,-380 387.55,-379.36 "/>
<ellipse fill="none" stroke="black" cx="384.39" cy="-378.85" rx="3.2" ry="3.2"/>
</g>
<!-- ref_id&#45;&gt;customers -->
<g id="edge14" class="edge">
<title>ref_id:w&#45;&gt;customers:e</title>
<path fill="none" stroke="black" d="M162.06,-240C150.31,-240 142.99,-240 126.5,-240"/>
<polygon fill="black" stroke="black" points="168.5,-240 176.5,-243.6 172.5,-240 176.5,-240 176.5,-240 176.5,-240 172.5,-240 176.5,-236.4 168.5,-240 168.5,-240"/>
<ellipse fill="none" stroke="black" cx="165.3" cy="-240" rx="3.2" ry="3.2"/>
</g>
<!-- assets_impact_functions -->
<g id="node8" class="node">
<title>assets_impact_functions</title>
<g id="a_node8"><a xlink:href="../../tables/assets_impact_functions.html" xlink:title="assets_impact_functions" target="_top">
<polygon fill="#ffffff" stroke="transparent" points="585,-619 585,-677 760,-677 760,-619 585,-619"/>
<polygon fill="#f5f5f5" stroke="transparent" points="585.5,-655 585.5,-677 760.5,-677 760.5,-655 585.5,-655"/>
<polygon fill="none" stroke="black" points="585.5,-655 585.5,-677 760.5,-677 760.5,-655 585.5,-655"/>
<text text-anchor="start" x="590.5" y="-664.2" font-family="Helvetica,sans-Serif" font-weight="bold" font-size="11.00">assets_impact_functions</text>
<text text-anchor="start" x="725.5" y="-663.2" font-family="Helvetica,sans-Serif" font-size="11.00">[table]</text>
<polygon fill="none" stroke="black" points="585.5,-637 585.5,-655 760.5,-655 760.5,-637 585.5,-637"/>
<text text-anchor="start" x="588.5" y="-643.2" font-family="Helvetica,sans-Serif" font-size="11.00">...</text>
<polygon fill="#ffffff" stroke="transparent" points="585.5,-619 585.5,-637 640.5,-637 640.5,-619 585.5,-619"/>
<polygon fill="none" stroke="black" points="585.5,-619 585.5,-637 640.5,-637 640.5,-619 585.5,-619"/>
<text text-anchor="start" x="588.5" y="-625.2" font-family="Helvetica,sans-Serif" font-size="11.00">&lt; 3</text>
<polygon fill="#ffffff" stroke="transparent" points="640.5,-619 640.5,-637 730.5,-637 730.5,-619 640.5,-619"/>
<polygon fill="none" stroke="black" points="640.5,-619 640.5,-637 730.5,-637 730.5,-619 640.5,-619"/>
<text text-anchor="start" x="660.5" y="-625.2" font-family="Helvetica,sans-Serif" font-size="11.00">654,369 rows</text>
<polygon fill="#ffffff" stroke="transparent" points="730.5,-619 730.5,-637 760.5,-637 760.5,-619 730.5,-619"/>
<polygon fill="none" stroke="black" points="730.5,-619 730.5,-637 760.5,-637 760.5,-619 730.5,-619"/>
<text text-anchor="start" x="750.5" y="-625.2" font-family="Helvetica,sans-Serif" font-size="11.00"> &#160;</text>
</a>
</g>
</g>
<!-- assets_impact_functions&#45;&gt;assets -->
<g id="edge6" class="edge">
<title>assets_impact_functions:w&#45;&gt;assets:e</title>
<path fill="none" stroke="black" d="M570.06,-643.75C512.95,-623.14 597.27,-468 518.5,-468"/>
<polygon fill="black" stroke="black" points="576.6,-644.77 583.95,-649.56 580.55,-645.38 584.5,-646 584.5,-646 584.5,-646 580.55,-645.38 585.05,-642.44 576.6,-644.77 576.6,-644.77"/>
<ellipse fill="none" stroke="black" cx="573.43" cy="-644.28" rx="3.2" ry="3.2"/>
</g>
<!-- assets_tags -->
<g id="node9" class="node">
<title>assets_tags</title>
<g id="a_node9"><a xlink:href="../../tables/assets_tags.html" xlink:title="assets_tags" target="_top">
<polygon fill="#ffffff" stroke="transparent" points="618.5,-103 618.5,-161 726.5,-161 726.5,-103 618.5,-103"/>
<polygon fill="#f5f5f5" stroke="transparent" points="618.5,-139 618.5,-161 726.5,-161 726.5,-139 618.5,-139"/>
<polygon fill="none" stroke="black" points="618.5,-139 618.5,-161 726.5,-161 726.5,-139 618.5,-139"/>
<text text-anchor="start" x="623.5" y="-148.2" font-family="Helvetica,sans-Serif" font-weight="bold" font-size="11.00">assets_tags</text>
<text text-anchor="start" x="691.5" y="-147.2" font-family="Helvetica,sans-Serif" font-size="11.00">[table]</text>
<polygon fill="none" stroke="black" points="618.5,-121 618.5,-139 726.5,-139 726.5,-121 618.5,-121"/>
<text text-anchor="start" x="621.5" y="-127.2" font-family="Helvetica,sans-Serif" font-size="11.00">...</text>
<polygon fill="#ffffff" stroke="transparent" points="618.5,-103 618.5,-121 643.5,-121 643.5,-103 618.5,-103"/>
<polygon fill="none" stroke="black" points="618.5,-103 618.5,-121 643.5,-121 643.5,-103 618.5,-103"/>
<text text-anchor="start" x="621.5" y="-109.2" font-family="Helvetica,sans-Serif" font-size="11.00">&lt; 2</text>
<polygon fill="#ffffff" stroke="transparent" points="643.5,-103 643.5,-121 711.5,-121 711.5,-103 643.5,-103"/>
<polygon fill="none" stroke="black" points="643.5,-103 643.5,-121 711.5,-121 711.5,-103 643.5,-103"/>
<text text-anchor="start" x="647.5" y="-109.2" font-family="Helvetica,sans-Serif" font-size="11.00">22,144 rows</text>
<polygon fill="#ffffff" stroke="transparent" points="711.5,-103 711.5,-121 726.5,-121 726.5,-103 711.5,-103"/>
<polygon fill="none" stroke="black" points="711.5,-103 711.5,-121 726.5,-121 726.5,-103 711.5,-103"/>
<text text-anchor="start" x="716.5" y="-109.2" font-family="Helvetica,sans-Serif" font-size="11.00"> &#160;</text>
</a>
</g>
</g>
<!-- assets_tags&#45;&gt;assets -->
<g id="edge7" class="edge">
<title>assets_tags:w&#45;&gt;assets:e</title>
<path fill="none" stroke="black" d="M603.17,-131.52C579.03,-137.24 572.21,-158.53 558,-186 528.92,-242.2 581.78,-468 518.5,-468"/>
<polygon fill="black" stroke="black" points="609.54,-130.84 617.88,-133.58 613.52,-130.42 617.5,-130 617.5,-130 617.5,-130 613.52,-130.42 617.12,-126.42 609.54,-130.84 609.54,-130.84"/>
<ellipse fill="none" stroke="black" cx="606.36" cy="-131.18" rx="3.2" ry="3.2"/>
</g>
<!-- tags -->
<g id="node10" class="node">
<title>tags</title>
<g id="a_node10"><a xlink:href="../../tables/tags.html" xlink:title="tags" target="_top">
<polygon fill="#ffffff" stroke="transparent" points="406.5,-99 406.5,-157 502.5,-157 502.5,-99 406.5,-99"/>
<polygon fill="#f5f5f5" stroke="transparent" points="406.5,-135 406.5,-157 502.5,-157 502.5,-135 406.5,-135"/>
<polygon fill="none" stroke="black" points="406.5,-135 406.5,-157 502.5,-157 502.5,-135 406.5,-135"/>
<text text-anchor="start" x="411.5" y="-144.2" font-family="Helvetica,sans-Serif" font-weight="bold" font-size="11.00">tags</text>
<text text-anchor="start" x="467.5" y="-143.2" font-family="Helvetica,sans-Serif" font-size="11.00">[table]</text>
<polygon fill="none" stroke="black" points="406.5,-117 406.5,-135 502.5,-135 502.5,-117 406.5,-117"/>
<text text-anchor="start" x="409.5" y="-123.2" font-family="Helvetica,sans-Serif" font-size="11.00">...</text>
<polygon fill="#ffffff" stroke="transparent" points="406.5,-99 406.5,-117 428.5,-117 428.5,-99 406.5,-99"/>
<polygon fill="none" stroke="black" points="406.5,-99 406.5,-117 428.5,-117 428.5,-99 406.5,-99"/>
<text text-anchor="start" x="409.5" y="-105.2" font-family="Helvetica,sans-Serif" font-size="11.00">&lt; 1</text>
<polygon fill="#ffffff" stroke="transparent" points="428.5,-99 428.5,-117 480.5,-117 480.5,-99 428.5,-99"/>
<polygon fill="none" stroke="black" points="428.5,-99 428.5,-117 480.5,-117 480.5,-99 428.5,-99"/>
<text text-anchor="start" x="431.5" y="-105.2" font-family="Helvetica,sans-Serif" font-size="11.00">339 rows</text>
<polygon fill="#ffffff" stroke="transparent" points="480.5,-99 480.5,-117 502.5,-117 502.5,-99 480.5,-99"/>
<polygon fill="none" stroke="black" points="480.5,-99 480.5,-117 502.5,-117 502.5,-99 480.5,-99"/>
<text text-anchor="start" x="483.5" y="-105.2" font-family="Helvetica,sans-Serif" font-size="11.00">1 &gt;</text>
</a>
</g>
</g>
<!-- assets_tags&#45;&gt;tags -->
<g id="edge8" class="edge">
<title>assets_tags:w&#45;&gt;tags:e</title>
<path fill="none" stroke="black" d="M602.9,-129.88C563.78,-129.21 548.95,-126 503.5,-126"/>
<polygon fill="black" stroke="black" points="609.5,-129.93 617.47,-133.6 613.5,-129.97 617.5,-130 617.5,-130 617.5,-130 613.5,-129.97 617.53,-126.4 609.5,-129.93 609.5,-129.93"/>
<ellipse fill="none" stroke="black" cx="606.3" cy="-129.91" rx="3.2" ry="3.2"/>
</g>
<!-- tags&#45;&gt;customers -->
<g id="edge16" class="edge">
<title>tags:w&#45;&gt;customers:e</title>
<path fill="none" stroke="black" d="M391.08,-125.56C330,-122.35 205.79,-103.44 166,-132 124.48,-161.8 177.61,-240 126.5,-240"/>
<polygon fill="black" stroke="black" points="397.5,-125.76 405.39,-129.6 401.5,-125.88 405.5,-126 405.5,-126 405.5,-126 401.5,-125.88 405.61,-122.4 397.5,-125.76 397.5,-125.76"/>
<ellipse fill="none" stroke="black" cx="394.31" cy="-125.66" rx="3.2" ry="3.2"/>
</g>
<!-- groups -->
<g id="node11" class="node">
<title>groups</title>
<g id="a_node11"><a xlink:href="../../tables/groups.html" xlink:title="groups" target="_top">
<polygon fill="#ffffff" stroke="transparent" points="210.5,-555 210.5,-613 306.5,-613 306.5,-555 210.5,-555"/>
<polygon fill="#f5f5f5" stroke="transparent" points="210.5,-591 210.5,-613 306.5,-613 306.5,-591 210.5,-591"/>
<polygon fill="none" stroke="black" points="210.5,-591 210.5,-613 306.5,-613 306.5,-591 210.5,-591"/>
<text text-anchor="start" x="215.5" y="-600.2" font-family="Helvetica,sans-Serif" font-weight="bold" font-size="11.00">groups</text>
<text text-anchor="start" x="271.5" y="-599.2" font-family="Helvetica,sans-Serif" font-size="11.00">[table]</text>
<polygon fill="none" stroke="black" points="210.5,-573 210.5,-591 306.5,-591 306.5,-573 210.5,-573"/>
<text text-anchor="start" x="213.5" y="-579.2" font-family="Helvetica,sans-Serif" font-size="11.00">...</text>
<polygon fill="#ffffff" stroke="transparent" points="210.5,-555 210.5,-573 232.5,-573 232.5,-555 210.5,-555"/>
<polygon fill="none" stroke="black" points="210.5,-555 210.5,-573 232.5,-573 232.5,-555 210.5,-555"/>
<text text-anchor="start" x="213.5" y="-561.2" font-family="Helvetica,sans-Serif" font-size="11.00">&lt; 1</text>
<polygon fill="#ffffff" stroke="transparent" points="232.5,-555 232.5,-573 284.5,-573 284.5,-555 232.5,-555"/>
<polygon fill="none" stroke="black" points="232.5,-555 232.5,-573 284.5,-573 284.5,-555 232.5,-555"/>
<text text-anchor="start" x="235.5" y="-561.2" font-family="Helvetica,sans-Serif" font-size="11.00">150 rows</text>
<polygon fill="#ffffff" stroke="transparent" points="284.5,-555 284.5,-573 306.5,-573 306.5,-555 284.5,-555"/>
<polygon fill="none" stroke="black" points="284.5,-555 284.5,-573 306.5,-573 306.5,-555 284.5,-555"/>
<text text-anchor="start" x="287.5" y="-561.2" font-family="Helvetica,sans-Serif" font-size="11.00">2 &gt;</text>
</a>
</g>
</g>
<!-- groups&#45;&gt;customers -->
<g id="edge9" class="edge">
<title>groups:w&#45;&gt;customers:e</title>
<path fill="none" stroke="black" d="M194.94,-579.82C181.08,-574.95 175.37,-562.25 166,-545 133.39,-484.94 194.84,-240 126.5,-240"/>
<polygon fill="black" stroke="black" points="201.59,-580.82 208.97,-585.56 205.54,-581.41 209.5,-582 209.5,-582 209.5,-582 205.54,-581.41 210.03,-578.44 201.59,-580.82 201.59,-580.82"/>
<ellipse fill="none" stroke="black" cx="198.42" cy="-580.34" rx="3.2" ry="3.2"/>
</g>
<!-- loc_grid_squares -->
<g id="node12" class="node">
<title>loc_grid_squares</title>
<g id="a_node12"><a xlink:href="../../tables/loc_grid_squares.html" xlink:title="loc_grid_squares" target="_top">
<polygon fill="#ffffff" stroke="transparent" points="828,-538 828,-596 964,-596 964,-538 828,-538"/>
<polygon fill="#f5f5f5" stroke="transparent" points="828,-574 828,-596 964,-596 964,-574 828,-574"/>
<polygon fill="none" stroke="black" points="828,-574 828,-596 964,-596 964,-574 828,-574"/>
<text text-anchor="start" x="833" y="-583.2" font-family="Helvetica,sans-Serif" font-weight="bold" font-size="11.00">loc_grid_squares</text>
<text text-anchor="start" x="929" y="-582.2" font-family="Helvetica,sans-Serif" font-size="11.00">[table]</text>
<polygon fill="none" stroke="black" points="828,-556 828,-574 964,-574 964,-556 828,-556"/>
<text text-anchor="start" x="831" y="-562.2" font-family="Helvetica,sans-Serif" font-size="11.00">...</text>
<polygon fill="#ffffff" stroke="transparent" points="828,-538 828,-556 867,-556 867,-538 828,-538"/>
<polygon fill="none" stroke="black" points="828,-538 828,-556 867,-556 867,-538 828,-538"/>
<text text-anchor="start" x="831" y="-544.2" font-family="Helvetica,sans-Serif" font-size="11.00">&lt; 2</text>
<polygon fill="#ffffff" stroke="transparent" points="867,-538 867,-556 942,-556 942,-538 867,-538"/>
<polygon fill="none" stroke="black" points="867,-538 867,-556 942,-556 942,-538 867,-538"/>
<text text-anchor="start" x="878" y="-544.2" font-family="Helvetica,sans-Serif" font-size="11.00">81,221 rows</text>
<polygon fill="#ffffff" stroke="transparent" points="942,-538 942,-556 964,-556 964,-538 942,-538"/>
<polygon fill="none" stroke="black" points="942,-538 942,-556 964,-556 964,-538 942,-538"/>
<text text-anchor="start" x="954" y="-544.2" font-family="Helvetica,sans-Serif" font-size="11.00"> &#160;</text>
</a>
</g>
</g>
<!-- locations -->
<g id="node13" class="node">
<title>locations</title>
<g id="a_node13"><a xlink:href="../../tables/locations.html" xlink:title="locations" target="_top">
<polygon fill="#ffffff" stroke="transparent" points="566,-197 566,-519 779,-519 779,-197 566,-197"/>
<polygon fill="#f5f5f5" stroke="transparent" points="566.5,-497 566.5,-519 779.5,-519 779.5,-497 566.5,-497"/>
<polygon fill="none" stroke="black" points="566.5,-497 566.5,-519 779.5,-519 779.5,-497 566.5,-497"/>
<text text-anchor="start" x="571.5" y="-506.2" font-family="Helvetica,sans-Serif" font-weight="bold" font-size="11.00">locations</text>
<text text-anchor="start" x="744.5" y="-505.2" font-family="Helvetica,sans-Serif" font-size="11.00">[table]</text>
<polygon fill="none" stroke="black" points="566.5,-475 566.5,-497 779.5,-497 779.5,-475 566.5,-475"/>
<image xlink:href="../../images/primaryKeys.png" width="11px" height="12px" preserveAspectRatio="xMinYMin meet" x="571.5" y="-492"/>
<text text-anchor="start" x="586.5" y="-483.2" font-family="Helvetica,sans-Serif" font-size="11.00">id</text>
<polygon fill="#ffffff" stroke="transparent" points="566.5,-453 566.5,-475 779.5,-475 779.5,-453 566.5,-453"/>
<polygon fill="none" stroke="black" points="566.5,-453 566.5,-475 779.5,-475 779.5,-453 566.5,-453"/>
<image xlink:href="../../images/foreignKeys.png" width="11px" height="12px" preserveAspectRatio="xMinYMin meet" x="571.5" y="-470"/>
<text text-anchor="start" x="586.5" y="-461.2" font-family="Helvetica,sans-Serif" font-size="11.00">asset_id</text>
<polygon fill="#ffffff" stroke="transparent" points="566.5,-431 566.5,-453 779.5,-453 779.5,-431 566.5,-431"/>
<polygon fill="none" stroke="black" points="566.5,-431 566.5,-453 779.5,-453 779.5,-431 566.5,-431"/>
<text text-anchor="start" x="586.5" y="-439.2" font-family="Helvetica,sans-Serif" font-size="11.00">name</text>
<polygon fill="#ffffff" stroke="transparent" points="566.5,-409 566.5,-431 779.5,-431 779.5,-409 566.5,-409"/>
<polygon fill="none" stroke="black" points="566.5,-409 566.5,-431 779.5,-431 779.5,-409 566.5,-409"/>
<text text-anchor="start" x="586.5" y="-417.2" font-family="Helvetica,sans-Serif" font-size="11.00">admin_area_level0</text>
<polygon fill="#ffffff" stroke="transparent" points="566.5,-387 566.5,-409 779.5,-409 779.5,-387 566.5,-387"/>
<polygon fill="none" stroke="black" points="566.5,-387 566.5,-409 779.5,-409 779.5,-387 566.5,-387"/>
<text text-anchor="start" x="586.5" y="-395.2" font-family="Helvetica,sans-Serif" font-size="11.00">admin_area_level1</text>
<polygon fill="#ffffff" stroke="transparent" points="566.5,-365 566.5,-387 779.5,-387 779.5,-365 566.5,-365"/>
<polygon fill="none" stroke="black" points="566.5,-365 566.5,-387 779.5,-387 779.5,-365 566.5,-365"/>
<text text-anchor="start" x="586.5" y="-373.2" font-family="Helvetica,sans-Serif" font-size="11.00">admin_area_level2</text>
<polygon fill="#ffffff" stroke="transparent" points="566.5,-343 566.5,-365 779.5,-365 779.5,-343 566.5,-343"/>
<polygon fill="none" stroke="black" points="566.5,-343 566.5,-365 779.5,-365 779.5,-343 566.5,-343"/>
<text text-anchor="start" x="586.5" y="-351.2" font-family="Helvetica,sans-Serif" font-size="11.00">proc_flag_loc_eval_risks</text>
<polygon fill="#ffffff" stroke="transparent" points="566.5,-321 566.5,-343 779.5,-343 779.5,-321 566.5,-321"/>
<polygon fill="none" stroke="black" points="566.5,-321 566.5,-343 779.5,-343 779.5,-321 566.5,-321"/>
<text text-anchor="start" x="586.5" y="-329.2" font-family="Helvetica,sans-Serif" font-size="11.00">proc_flag_loc_assign_gridded</text>
<polygon fill="#ffffff" stroke="transparent" points="566.5,-299 566.5,-321 779.5,-321 779.5,-299 566.5,-299"/>
<polygon fill="none" stroke="black" points="566.5,-299 566.5,-321 779.5,-321 779.5,-299 566.5,-299"/>
<text text-anchor="start" x="586.5" y="-307.2" font-family="Helvetica,sans-Serif" font-size="11.00">proc_flag_loc_assign_segmented</text>
<polygon fill="#ffffff" stroke="transparent" points="566.5,-277 566.5,-299 779.5,-299 779.5,-277 566.5,-277"/>
<polygon fill="none" stroke="black" points="566.5,-277 566.5,-299 779.5,-299 779.5,-277 566.5,-277"/>
<text text-anchor="start" x="586.5" y="-285.2" font-family="Helvetica,sans-Serif" font-size="11.00">proc_flag_loc_assign_point</text>
<polygon fill="#ffffff" stroke="transparent" points="566.5,-255 566.5,-277 779.5,-277 779.5,-255 566.5,-255"/>
<polygon fill="none" stroke="black" points="566.5,-255 566.5,-277 779.5,-277 779.5,-255 566.5,-255"/>
<text text-anchor="start" x="586.5" y="-263.2" font-family="Helvetica,sans-Serif" font-size="11.00">proc_flag_loc_assign_regional</text>
<polygon fill="#ffffff" stroke="transparent" points="566.5,-233 566.5,-255 779.5,-255 779.5,-233 566.5,-233"/>
<polygon fill="none" stroke="black" points="566.5,-233 566.5,-255 779.5,-255 779.5,-233 566.5,-233"/>
<image xlink:href="../../images/foreignKeys.png" width="11px" height="12px" preserveAspectRatio="xMinYMin meet" x="571.5" y="-250"/>
<text text-anchor="start" x="586.5" y="-241.2" font-family="Helvetica,sans-Serif" font-size="11.00">ref_id</text>
<polygon fill="none" stroke="black" points="566.5,-215 566.5,-233 779.5,-233 779.5,-215 566.5,-215"/>
<text text-anchor="start" x="569.5" y="-221.2" font-family="Helvetica,sans-Serif" font-size="11.00">...</text>
<polygon fill="#ffffff" stroke="transparent" points="566.5,-197 566.5,-215 639.5,-215 639.5,-197 566.5,-197"/>
<polygon fill="none" stroke="black" points="566.5,-197 566.5,-215 639.5,-215 639.5,-197 566.5,-197"/>
<text text-anchor="start" x="569.5" y="-203.2" font-family="Helvetica,sans-Serif" font-size="11.00">&lt; 2</text>
<polygon fill="#ffffff" stroke="transparent" points="639.5,-197 639.5,-215 731.5,-215 731.5,-197 639.5,-197"/>
<polygon fill="none" stroke="black" points="639.5,-197 639.5,-215 731.5,-215 731.5,-197 639.5,-197"/>
<text text-anchor="start" x="667.5" y="-203.2" font-family="Helvetica,sans-Serif" font-size="11.00">81,629 rows</text>
<polygon fill="#ffffff" stroke="transparent" points="731.5,-197 731.5,-215 779.5,-215 779.5,-197 731.5,-197"/>
<polygon fill="none" stroke="black" points="731.5,-197 731.5,-215 779.5,-215 779.5,-197 731.5,-197"/>
<text text-anchor="start" x="760.5" y="-203.2" font-family="Helvetica,sans-Serif" font-size="11.00">3 &gt;</text>
</a>
</g>
</g>
<!-- loc_grid_squares&#45;&gt;locations -->
<g id="edge10" class="edge">
<title>loc_grid_squares:w&#45;&gt;locations:e</title>
<path fill="none" stroke="black" d="M813.37,-560.29C794.98,-543.29 815.19,-486 780.5,-486"/>
<polygon fill="black" stroke="black" points="819.44,-562.39 825.83,-568.4 823.22,-563.69 827,-565 827,-565 827,-565 823.22,-563.69 828.17,-561.6 819.44,-562.39 819.44,-562.39"/>
<ellipse fill="none" stroke="black" cx="816.41" cy="-561.35" rx="3.2" ry="3.2"/>
</g>
<!-- locations&#45;&gt;assets -->
<g id="edge12" class="edge">
<title>locations:w&#45;&gt;assets:e</title>
<path fill="none" stroke="black" d="M550.88,-464.77C540.43,-465.93 533.57,-468 518.5,-468"/>
<polygon fill="black" stroke="black" points="557.51,-464.42 565.69,-467.6 561.51,-464.21 565.5,-464 565.5,-464 565.5,-464 561.51,-464.21 565.31,-460.4 557.51,-464.42 557.51,-464.42"/>
<ellipse fill="none" stroke="black" cx="554.32" cy="-464.59" rx="3.2" ry="3.2"/>
</g>
<!-- locations&#45;&gt;ref_id -->
<g id="edge13" class="edge">
<title>locations:w&#45;&gt;ref_id:e</title>
<path fill="none" stroke="black" d="M551.06,-244.13C462.57,-245.75 435.82,-262 340.5,-262"/>
<polygon fill="black" stroke="black" points="557.5,-244.07 565.53,-247.6 561.5,-244.04 565.5,-244 565.5,-244 565.5,-244 561.5,-244.04 565.47,-240.4 557.5,-244.07 557.5,-244.07"/>
<ellipse fill="none" stroke="black" cx="554.3" cy="-244.1" rx="3.2" ry="3.2"/>
</g>
<!-- loc_regions -->
<g id="node14" class="node">
<title>loc_regions</title>
<g id="a_node14"><a xlink:href="../../tables/loc_regions.html" xlink:title="loc_regions" target="_top">
<polygon fill="#ffffff" stroke="transparent" points="842.5,-459 842.5,-517 949.5,-517 949.5,-459 842.5,-459"/>
<polygon fill="#f5f5f5" stroke="transparent" points="843,-495 843,-517 950,-517 950,-495 843,-495"/>
<polygon fill="none" stroke="black" points="843,-495 843,-517 950,-517 950,-495 843,-495"/>
<text text-anchor="start" x="848" y="-504.2" font-family="Helvetica,sans-Serif" font-weight="bold" font-size="11.00">loc_regions</text>
<text text-anchor="start" x="915" y="-503.2" font-family="Helvetica,sans-Serif" font-size="11.00">[table]</text>
<polygon fill="none" stroke="black" points="843,-477 843,-495 950,-495 950,-477 843,-477"/>
<text text-anchor="start" x="846" y="-483.2" font-family="Helvetica,sans-Serif" font-size="11.00">...</text>
<polygon fill="#ffffff" stroke="transparent" points="843,-459 843,-477 867,-477 867,-459 843,-459"/>
<polygon fill="none" stroke="black" points="843,-459 843,-477 867,-477 867,-459 843,-459"/>
<text text-anchor="start" x="846" y="-465.2" font-family="Helvetica,sans-Serif" font-size="11.00">&lt; 2</text>
<polygon fill="#ffffff" stroke="transparent" points="867,-459 867,-477 935,-477 935,-459 867,-459"/>
<polygon fill="none" stroke="black" points="867,-459 867,-477 935,-477 935,-459 867,-459"/>
<text text-anchor="start" x="871" y="-465.2" font-family="Helvetica,sans-Serif" font-size="11.00">79,140 rows</text>
<polygon fill="#ffffff" stroke="transparent" points="935,-459 935,-477 950,-477 950,-459 935,-459"/>
<polygon fill="none" stroke="black" points="935,-459 935,-477 950,-477 950,-459 935,-459"/>
<text text-anchor="start" x="940" y="-465.2" font-family="Helvetica,sans-Serif" font-size="11.00"> &#160;</text>
</a>
</g>
</g>
<!-- loc_regions&#45;&gt;locations -->
<g id="edge11" class="edge">
<title>loc_regions:w&#45;&gt;locations:e</title>
<path fill="none" stroke="black" d="M831.57,-486C812.34,-486 803.99,-486 780.5,-486"/>
<polygon fill="black" stroke="black" points="841.2,-482 841.2,-490 839.6,-490 839.6,-482 841.2,-482"/>
<polyline fill="none" stroke="black" points="842,-486 838,-486 "/>
<ellipse fill="none" stroke="black" cx="834.8" cy="-486" rx="3.2" ry="3.2"/>
</g>
<!-- risks -->
<g id="node15" class="node">
<title>risks</title>
<g id="a_node15"><a xlink:href="../../tables/risks.html" xlink:title="risks" target="_top">
<polygon fill="#ffffff" stroke="transparent" points="834.5,-380 834.5,-438 957.5,-438 957.5,-380 834.5,-380"/>
<polygon fill="#f5f5f5" stroke="transparent" points="835,-416 835,-438 958,-438 958,-416 835,-416"/>
<polygon fill="none" stroke="black" points="835,-416 835,-438 958,-438 958,-416 835,-416"/>
<text text-anchor="start" x="840" y="-425.2" font-family="Helvetica,sans-Serif" font-weight="bold" font-size="11.00">risks</text>
<text text-anchor="start" x="923" y="-424.2" font-family="Helvetica,sans-Serif" font-size="11.00">[table]</text>
<polygon fill="none" stroke="black" points="835,-398 835,-416 958,-416 958,-398 835,-398"/>
<text text-anchor="start" x="838" y="-404.2" font-family="Helvetica,sans-Serif" font-size="11.00">...</text>
<polygon fill="#ffffff" stroke="transparent" points="835,-380 835,-398 857,-398 857,-380 835,-380"/>
<polygon fill="none" stroke="black" points="835,-380 835,-398 857,-398 857,-380 835,-380"/>
<text text-anchor="start" x="838" y="-386.2" font-family="Helvetica,sans-Serif" font-size="11.00">&lt; 3</text>
<polygon fill="#ffffff" stroke="transparent" points="857,-380 857,-398 945,-398 945,-380 857,-380"/>
<polygon fill="none" stroke="black" points="857,-380 857,-398 945,-398 945,-380 857,-380"/>
<text text-anchor="start" x="860" y="-386.2" font-family="Helvetica,sans-Serif" font-size="11.00">28,657,312 rows</text>
<polygon fill="#ffffff" stroke="transparent" points="945,-380 945,-398 958,-398 958,-380 945,-380"/>
<polygon fill="none" stroke="black" points="945,-380 945,-398 958,-398 958,-380 945,-380"/>
<text text-anchor="start" x="948" y="-386.2" font-family="Helvetica,sans-Serif" font-size="11.00"> &#160;</text>
</a>
</g>
</g>
<!-- risks&#45;&gt;locations -->
<g id="edge15" class="edge">
<title>risks:w&#45;&gt;locations:e</title>
<path fill="none" stroke="black" d="M820.07,-411.25C798.94,-427.66 816.94,-486 780.5,-486"/>
<polygon fill="black" stroke="black" points="826.35,-409.33 835.05,-410.44 830.17,-408.17 834,-407 834,-407 834,-407 830.17,-408.17 832.95,-403.56 826.35,-409.33 826.35,-409.33"/>
<ellipse fill="none" stroke="black" cx="823.29" cy="-410.27" rx="3.2" ry="3.2"/>
</g>
<!-- users_roles_customers -->
<g id="node16" class="node">
<title>users_roles_customers</title>
<g id="a_node16"><a xlink:href="../../tables/users_roles_customers.html" xlink:title="users_roles_customers" target="_top">
<polygon fill="#ffffff" stroke="transparent" points="174,-318 174,-376 343,-376 343,-318 174,-318"/>
<polygon fill="#f5f5f5" stroke="transparent" points="174.5,-354 174.5,-376 343.5,-376 343.5,-354 174.5,-354"/>
<polygon fill="none" stroke="black" points="174.5,-354 174.5,-376 343.5,-376 343.5,-354 174.5,-354"/>
<text text-anchor="start" x="179.5" y="-363.2" font-family="Helvetica,sans-Serif" font-weight="bold" font-size="11.00">users_roles_customers</text>
<text text-anchor="start" x="308.5" y="-362.2" font-family="Helvetica,sans-Serif" font-size="11.00">[table]</text>
<polygon fill="none" stroke="black" points="174.5,-336 174.5,-354 343.5,-354 343.5,-336 174.5,-336"/>
<text text-anchor="start" x="177.5" y="-342.2" font-family="Helvetica,sans-Serif" font-size="11.00">...</text>
<polygon fill="#ffffff" stroke="transparent" points="174.5,-318 174.5,-336 240.5,-336 240.5,-318 174.5,-318"/>
<polygon fill="none" stroke="black" points="174.5,-318 174.5,-336 240.5,-336 240.5,-318 174.5,-318"/>
<text text-anchor="start" x="177.5" y="-324.2" font-family="Helvetica,sans-Serif" font-size="11.00">&lt; 3</text>
<polygon fill="#ffffff" stroke="transparent" points="240.5,-318 240.5,-336 308.5,-336 308.5,-318 240.5,-318"/>
<polygon fill="none" stroke="black" points="240.5,-318 240.5,-336 308.5,-336 308.5,-318 240.5,-318"/>
<text text-anchor="start" x="265.5" y="-324.2" font-family="Helvetica,sans-Serif" font-size="11.00">12 rows</text>
<polygon fill="#ffffff" stroke="transparent" points="308.5,-318 308.5,-336 343.5,-336 343.5,-318 308.5,-318"/>
<polygon fill="none" stroke="black" points="308.5,-318 308.5,-336 343.5,-336 343.5,-318 308.5,-318"/>
<text text-anchor="start" x="333.5" y="-324.2" font-family="Helvetica,sans-Serif" font-size="11.00"> &#160;</text>
</a>
</g>
</g>
<!-- users_roles_customers&#45;&gt;customers -->
<g id="edge17" class="edge">
<title>users_roles_customers:w&#45;&gt;customers:e</title>
<path fill="none" stroke="black" d="M159.57,-341.01C133.86,-321.83 171.64,-240 126.5,-240"/>
<polygon fill="black" stroke="black" points="165.81,-342.8 172.51,-348.46 169.65,-343.9 173.5,-345 173.5,-345 173.5,-345 169.65,-343.9 174.49,-341.54 165.81,-342.8 165.81,-342.8"/>
<ellipse fill="none" stroke="black" cx="162.73" cy="-341.92" rx="3.2" ry="3.2"/>
</g>
</g>
</svg>
