<?xml version="1.0" encoding="UTF-8" standalone="no"?>
<!DOCTYPE svg PUBLIC "-//W3C//DTD SVG 1.1//EN"
 "http://www.w3.org/Graphics/SVG/1.1/DTD/svg11.dtd">
<!-- Generated by graphviz version 2.50.0 (20211204.2007)
 -->
<!-- Title: oneDegreeRelationshipsDiagram Pages: 1 -->
<svg width="452pt" height="603pt"
 viewBox="0.00 0.00 452.00 603.00" xmlns="http://www.w3.org/2000/svg" xmlns:xlink="http://www.w3.org/1999/xlink">
<g id="graph0" class="graph" transform="scale(1 1) rotate(0) translate(4 599)">
<title>oneDegreeRelationshipsDiagram</title>
<polygon fill="#ffffff" stroke="transparent" points="-4,4 -4,-599 448,-599 448,4 -4,4"/>
<text text-anchor="middle" x="72.5" y="-7.2" font-family="Helvetica,sans-Serif" font-size="11.00">Generated by SchemaSpy</text>
<!-- decadal_states -->
<g id="node1" class="node">
<title>decadal_states</title>
<g id="a_node1"><a xlink:href="../../tables/decadal_states.html" xlink:title="decadal_states" target="_top">
<polygon fill="#ffffff" stroke="transparent" points="209,-291 209,-591 436,-591 436,-291 209,-291"/>
<polygon fill="#f5f5f5" stroke="transparent" points="209.5,-569 209.5,-591 436.5,-591 436.5,-569 209.5,-569"/>
<polygon fill="none" stroke="black" points="209.5,-569 209.5,-591 436.5,-591 436.5,-569 209.5,-569"/>
<text text-anchor="start" x="214.5" y="-578.2" font-family="Helvetica,sans-Serif" font-weight="bold" font-size="11.00">decadal_states</text>
<text text-anchor="start" x="401.5" y="-577.2" font-family="Helvetica,sans-Serif" font-size="11.00">[table]</text>
<polygon fill="none" stroke="black" points="209.5,-547 209.5,-569 436.5,-569 436.5,-547 209.5,-547"/>
<image xlink:href="../../images/primaryKeys.png" width="11px" height="12px" preserveAspectRatio="xMinYMin meet" x="214.5" y="-564"/>
<text text-anchor="start" x="229.5" y="-555.2" font-family="Helvetica,sans-Serif" font-size="11.00">id</text>
<polygon fill="#ffffff" stroke="transparent" points="209.5,-525 209.5,-547 436.5,-547 436.5,-525 209.5,-525"/>
<polygon fill="none" stroke="black" points="209.5,-525 209.5,-547 436.5,-547 436.5,-525 209.5,-525"/>
<text text-anchor="start" x="229.5" y="-533.2" font-family="Helvetica,sans-Serif" font-size="11.00">grid_square_id</text>
<polygon fill="#ffffff" stroke="transparent" points="209.5,-503 209.5,-525 436.5,-525 436.5,-503 209.5,-503"/>
<polygon fill="none" stroke="black" points="209.5,-503 209.5,-525 436.5,-525 436.5,-503 209.5,-503"/>
<text text-anchor="start" x="229.5" y="-511.2" font-family="Helvetica,sans-Serif" font-size="11.00">point_loc_id</text>
<polygon fill="#ffffff" stroke="transparent" points="209.5,-481 209.5,-503 436.5,-503 436.5,-481 209.5,-481"/>
<polygon fill="none" stroke="black" points="209.5,-481 209.5,-503 436.5,-503 436.5,-481 209.5,-481"/>
<image xlink:href="../../images/foreignKeys.png" width="11px" height="12px" preserveAspectRatio="xMinYMin meet" x="214.5" y="-498"/>
<text text-anchor="start" x="229.5" y="-489.2" font-family="Helvetica,sans-Serif" font-size="11.00">region_id</text>
<polygon fill="#ffffff" stroke="transparent" points="209.5,-459 209.5,-481 436.5,-481 436.5,-459 209.5,-459"/>
<polygon fill="none" stroke="black" points="209.5,-459 209.5,-481 436.5,-481 436.5,-459 209.5,-459"/>
<text text-anchor="start" x="229.5" y="-467.2" font-family="Helvetica,sans-Serif" font-size="11.00">decadal_state_type</text>
<polygon fill="#ffffff" stroke="transparent" points="209.5,-437 209.5,-459 436.5,-459 436.5,-437 209.5,-437"/>
<polygon fill="none" stroke="black" points="209.5,-437 209.5,-459 436.5,-459 436.5,-437 209.5,-437"/>
<image xlink:href="../../images/foreignKeys.png" width="11px" height="12px" preserveAspectRatio="xMinYMin meet" x="214.5" y="-454"/>
<text text-anchor="start" x="229.5" y="-445.2" font-family="Helvetica,sans-Serif" font-size="11.00">hazard_metric_id</text>
<polygon fill="#ffffff" stroke="transparent" points="209.5,-415 209.5,-437 436.5,-437 436.5,-415 209.5,-415"/>
<polygon fill="none" stroke="black" points="209.5,-415 209.5,-437 436.5,-437 436.5,-415 209.5,-415"/>
<image xlink:href="../../images/foreignKeys.png" width="11px" height="12px" preserveAspectRatio="xMinYMin meet" x="214.5" y="-432"/>
<text text-anchor="start" x="229.5" y="-423.2" font-family="Helvetica,sans-Serif" font-size="11.00">scenario_id</text>
<polygon fill="#ffffff" stroke="transparent" points="209.5,-393 209.5,-415 436.5,-415 436.5,-393 209.5,-393"/>
<polygon fill="none" stroke="black" points="209.5,-393 209.5,-415 436.5,-415 436.5,-393 209.5,-393"/>
<text text-anchor="start" x="229.5" y="-401.2" font-family="Helvetica,sans-Serif" font-size="11.00">decade</text>
<polygon fill="#ffffff" stroke="transparent" points="209.5,-371 209.5,-393 436.5,-393 436.5,-371 209.5,-371"/>
<polygon fill="none" stroke="black" points="209.5,-371 209.5,-393 436.5,-393 436.5,-371 209.5,-371"/>
<text text-anchor="start" x="229.5" y="-379.2" font-family="Helvetica,sans-Serif" font-size="11.00">proc_flag_decadal_states_calc</text>
<polygon fill="#ffffff" stroke="transparent" points="209.5,-349 209.5,-371 436.5,-371 436.5,-349 209.5,-349"/>
<polygon fill="none" stroke="black" points="209.5,-349 209.5,-371 436.5,-371 436.5,-349 209.5,-349"/>
<text text-anchor="start" x="229.5" y="-357.2" font-family="Helvetica,sans-Serif" font-size="11.00">not_in_model</text>
<polygon fill="#ffffff" stroke="transparent" points="209.5,-327 209.5,-349 436.5,-349 436.5,-327 209.5,-327"/>
<polygon fill="none" stroke="black" points="209.5,-327 209.5,-349 436.5,-349 436.5,-327 209.5,-327"/>
<text text-anchor="start" x="229.5" y="-335.2" font-family="Helvetica,sans-Serif" font-size="11.00">batch_id</text>
<polygon fill="none" stroke="black" points="209.5,-309 209.5,-327 436.5,-327 436.5,-309 209.5,-309"/>
<text text-anchor="start" x="212.5" y="-315.2" font-family="Helvetica,sans-Serif" font-size="11.00">...</text>
<polygon fill="#ffffff" stroke="transparent" points="209.5,-291 209.5,-309 286.5,-309 286.5,-291 209.5,-291"/>
<polygon fill="none" stroke="black" points="209.5,-291 209.5,-309 286.5,-309 286.5,-291 209.5,-291"/>
<text text-anchor="start" x="212.5" y="-297.2" font-family="Helvetica,sans-Serif" font-size="11.00">&lt; 3</text>
<polygon fill="#ffffff" stroke="transparent" points="286.5,-291 286.5,-309 395.5,-309 395.5,-291 286.5,-291"/>
<polygon fill="none" stroke="black" points="286.5,-291 286.5,-309 395.5,-309 395.5,-291 286.5,-291"/>
<text text-anchor="start" x="316.5" y="-297.2" font-family="Helvetica,sans-Serif" font-size="11.00">7,749,532 rows</text>
<polygon fill="#ffffff" stroke="transparent" points="395.5,-291 395.5,-309 436.5,-309 436.5,-291 395.5,-291"/>
<polygon fill="none" stroke="black" points="395.5,-291 395.5,-309 436.5,-309 436.5,-291 395.5,-291"/>
<text text-anchor="start" x="426.5" y="-297.2" font-family="Helvetica,sans-Serif" font-size="11.00"> &#160;</text>
</a>
</g>
</g>
<!-- regions -->
<g id="node2" class="node">
<title>regions</title>
<g id="a_node2"><a xlink:href="../../tables/regions.html" xlink:title="regions" target="_top">
<polygon fill="#ffffff" stroke="transparent" points="8,-118 8,-228 160,-228 160,-118 8,-118"/>
<polygon fill="#f5f5f5" stroke="transparent" points="10,-204 10,-226 158,-226 158,-204 10,-204"/>
<polygon fill="none" stroke="black" points="10,-204 10,-226 158,-226 158,-204 10,-204"/>
<text text-anchor="start" x="15" y="-213.2" font-family="Helvetica,sans-Serif" font-weight="bold" font-size="11.00">regions</text>
<text text-anchor="start" x="123" y="-212.2" font-family="Helvetica,sans-Serif" font-size="11.00">[table]</text>
<polygon fill="none" stroke="black" points="10,-182 10,-204 97,-204 97,-182 10,-182"/>
<image xlink:href="../../images/primaryKeys.png" width="11px" height="12px" preserveAspectRatio="xMinYMin meet" x="15" y="-199"/>
<text text-anchor="start" x="30" y="-190.2" font-family="Helvetica,sans-Serif" font-size="11.00">id</text>
<polygon fill="none" stroke="black" points="97,-182 97,-204 158,-204 158,-182 97,-182"/>
<text text-anchor="start" x="100" y="-190.2" font-family="Helvetica,sans-Serif" font-size="11.00">serial[10]</text>
<polygon fill="none" stroke="black" points="10,-160 10,-182 97,-182 97,-160 10,-160"/>
<text text-anchor="start" x="30" y="-168.2" font-family="Helvetica,sans-Serif" font-size="11.00">reg_system</text>
<polygon fill="none" stroke="black" points="97,-160 97,-182 158,-182 158,-160 97,-160"/>
<text text-anchor="start" x="100" y="-168.2" font-family="Helvetica,sans-Serif" font-size="11.00">int4[10]</text>
<polygon fill="#ffffff" stroke="transparent" points="10,-138 10,-160 97,-160 97,-138 10,-138"/>
<polygon fill="none" stroke="black" points="10,-138 10,-160 97,-160 97,-138 10,-138"/>
<text text-anchor="start" x="30" y="-146.2" font-family="Helvetica,sans-Serif" font-size="11.00">name_etl</text>
<polygon fill="none" stroke="black" points="97,-138 97,-160 158,-160 158,-138 97,-138"/>
<text text-anchor="start" x="100" y="-146.2" font-family="Helvetica,sans-Serif" font-size="11.00">varchar[64]</text>
<polygon fill="#ffffff" stroke="transparent" points="10,-120 10,-138 44,-138 44,-120 10,-120"/>
<polygon fill="none" stroke="black" points="10,-120 10,-138 44,-138 44,-120 10,-120"/>
<text text-anchor="start" x="13" y="-126.2" font-family="Helvetica,sans-Serif" font-size="11.00">&lt; 0</text>
<polygon fill="#ffffff" stroke="transparent" points="44,-120 44,-138 97,-138 97,-120 44,-120"/>
<polygon fill="none" stroke="black" points="44,-120 44,-138 97,-138 97,-120 44,-120"/>
<text text-anchor="start" x="60" y="-126.2" font-family="Helvetica,sans-Serif" font-size="11.00">5 rows</text>
<polygon fill="#ffffff" stroke="transparent" points="97,-120 97,-138 158,-138 158,-120 97,-120"/>
<polygon fill="none" stroke="black" points="97,-120 97,-138 158,-138 158,-120 97,-120"/>
<text text-anchor="start" x="139" y="-126.2" font-family="Helvetica,sans-Serif" font-size="11.00">3 &gt;</text>
<polygon fill="none" stroke="black" stroke-width="2" points="9,-119 9,-227 159,-227 159,-119 9,-119"/>
</a>
</g>
</g>
<!-- decadal_states&#45;&gt;regions -->
<g id="edge1" class="edge">
<title>decadal_states:w&#45;&gt;regions:e</title>
<path fill="none" stroke="black" d="M195.1,-486.56C153.82,-446.03 220.96,-193 159,-193"/>
<polygon fill="black" stroke="black" points="201.09,-488.99 207.14,-495.34 204.79,-490.49 208.5,-492 208.5,-492 208.5,-492 204.79,-490.49 209.86,-488.66 201.09,-488.99 201.09,-488.99"/>
<ellipse fill="none" stroke="black" cx="198.12" cy="-487.78" rx="3.2" ry="3.2"/>
</g>
<!-- loc_regions -->
<g id="node3" class="node">
<title>loc_regions</title>
<g id="a_node3"><a xlink:href="../../tables/loc_regions.html" xlink:title="loc_regions" target="_top">
<polygon fill="#ffffff" stroke="transparent" points="269,-164 269,-270 376,-270 376,-164 269,-164"/>
<polygon fill="#f5f5f5" stroke="transparent" points="269.5,-248 269.5,-270 376.5,-270 376.5,-248 269.5,-248"/>
<polygon fill="none" stroke="black" points="269.5,-248 269.5,-270 376.5,-270 376.5,-248 269.5,-248"/>
<text text-anchor="start" x="274.5" y="-257.2" font-family="Helvetica,sans-Serif" font-weight="bold" font-size="11.00">loc_regions</text>
<text text-anchor="start" x="341.5" y="-256.2" font-family="Helvetica,sans-Serif" font-size="11.00">[table]</text>
<polygon fill="none" stroke="black" points="269.5,-226 269.5,-248 376.5,-248 376.5,-226 269.5,-226"/>
<image xlink:href="../../images/primaryKeys.png" width="11px" height="12px" preserveAspectRatio="xMinYMin meet" x="274.5" y="-243"/>
<text text-anchor="start" x="299.5" y="-234.2" font-family="Helvetica,sans-Serif" font-size="11.00">id</text>
<polygon fill="#ffffff" stroke="transparent" points="269.5,-204 269.5,-226 376.5,-226 376.5,-204 269.5,-204"/>
<polygon fill="none" stroke="black" points="269.5,-204 269.5,-226 376.5,-226 376.5,-204 269.5,-204"/>
<image xlink:href="../../images/foreignKeys.png" width="11px" height="12px" preserveAspectRatio="xMinYMin meet" x="274.5" y="-221"/>
<text text-anchor="start" x="299.5" y="-212.2" font-family="Helvetica,sans-Serif" font-size="11.00">loc_id</text>
<polygon fill="none" stroke="black" points="269.5,-182 269.5,-204 376.5,-204 376.5,-182 269.5,-182"/>
<image xlink:href="../../images/foreignKeys.png" width="11px" height="12px" preserveAspectRatio="xMinYMin meet" x="274.5" y="-199"/>
<text text-anchor="start" x="299.5" y="-190.2" font-family="Helvetica,sans-Serif" font-size="11.00">region_id</text>
<polygon fill="#ffffff" stroke="transparent" points="269.5,-164 269.5,-182 293.5,-182 293.5,-164 269.5,-164"/>
<polygon fill="none" stroke="black" points="269.5,-164 269.5,-182 293.5,-182 293.5,-164 269.5,-164"/>
<text text-anchor="start" x="272.5" y="-170.2" font-family="Helvetica,sans-Serif" font-size="11.00">&lt; 2</text>
<polygon fill="#ffffff" stroke="transparent" points="293.5,-164 293.5,-182 361.5,-182 361.5,-164 293.5,-164"/>
<polygon fill="none" stroke="black" points="293.5,-164 293.5,-182 361.5,-182 361.5,-164 293.5,-164"/>
<text text-anchor="start" x="297.5" y="-170.2" font-family="Helvetica,sans-Serif" font-size="11.00">79,140 rows</text>
<polygon fill="#ffffff" stroke="transparent" points="361.5,-164 361.5,-182 376.5,-182 376.5,-164 361.5,-164"/>
<polygon fill="none" stroke="black" points="361.5,-164 361.5,-182 376.5,-182 376.5,-164 361.5,-164"/>
<text text-anchor="start" x="366.5" y="-170.2" font-family="Helvetica,sans-Serif" font-size="11.00"> &#160;</text>
</a>
</g>
</g>
<!-- loc_regions&#45;&gt;regions -->
<g id="edge2" class="edge">
<title>loc_regions:w&#45;&gt;regions:e</title>
<path fill="none" stroke="black" d="M253.75,-193C216.74,-193 202.34,-193 159,-193"/>
<polygon fill="black" stroke="black" points="260.5,-193 268.5,-196.6 264.5,-193 268.5,-193 268.5,-193 268.5,-193 264.5,-193 268.5,-189.4 260.5,-193 260.5,-193"/>
<ellipse fill="none" stroke="black" cx="257.3" cy="-193" rx="3.2" ry="3.2"/>
</g>
<!-- region_areas -->
<g id="node4" class="node">
<title>region_areas</title>
<g id="a_node4"><a xlink:href="../../tables/region_areas.html" xlink:title="region_areas" target="_top">
<polygon fill="#ffffff" stroke="transparent" points="265.5,-37 265.5,-143 379.5,-143 379.5,-37 265.5,-37"/>
<polygon fill="#f5f5f5" stroke="transparent" points="265.5,-121 265.5,-143 379.5,-143 379.5,-121 265.5,-121"/>
<polygon fill="none" stroke="black" points="265.5,-121 265.5,-143 379.5,-143 379.5,-121 265.5,-121"/>
<text text-anchor="start" x="270.5" y="-130.2" font-family="Helvetica,sans-Serif" font-weight="bold" font-size="11.00">region_areas</text>
<text text-anchor="start" x="344.5" y="-129.2" font-family="Helvetica,sans-Serif" font-size="11.00">[table]</text>
<polygon fill="none" stroke="black" points="265.5,-99 265.5,-121 379.5,-121 379.5,-99 265.5,-99"/>
<image xlink:href="../../images/primaryKeys.png" width="11px" height="12px" preserveAspectRatio="xMinYMin meet" x="270.5" y="-116"/>
<text text-anchor="start" x="292.5" y="-107.2" font-family="Helvetica,sans-Serif" font-size="11.00">id</text>
<polygon fill="none" stroke="black" points="265.5,-77 265.5,-99 379.5,-99 379.5,-77 265.5,-77"/>
<image xlink:href="../../images/foreignKeys.png" width="11px" height="12px" preserveAspectRatio="xMinYMin meet" x="270.5" y="-94"/>
<text text-anchor="start" x="292.5" y="-85.2" font-family="Helvetica,sans-Serif" font-size="11.00">region_id</text>
<polygon fill="#ffffff" stroke="transparent" points="265.5,-55 265.5,-77 379.5,-77 379.5,-55 265.5,-55"/>
<polygon fill="none" stroke="black" points="265.5,-55 265.5,-77 379.5,-77 379.5,-55 265.5,-55"/>
<text text-anchor="start" x="292.5" y="-63.2" font-family="Helvetica,sans-Serif" font-size="11.00">name_admin0</text>
<polygon fill="#ffffff" stroke="transparent" points="265.5,-37 265.5,-55 300.5,-55 300.5,-37 265.5,-37"/>
<polygon fill="none" stroke="black" points="265.5,-37 265.5,-55 300.5,-55 300.5,-37 265.5,-37"/>
<text text-anchor="start" x="268.5" y="-43.2" font-family="Helvetica,sans-Serif" font-size="11.00">&lt; 1</text>
<polygon fill="#ffffff" stroke="transparent" points="300.5,-37 300.5,-55 359.5,-55 359.5,-37 300.5,-37"/>
<polygon fill="none" stroke="black" points="300.5,-37 300.5,-55 359.5,-55 359.5,-37 300.5,-37"/>
<text text-anchor="start" x="310.5" y="-43.2" font-family="Helvetica,sans-Serif" font-size="11.00">234 rows</text>
<polygon fill="#ffffff" stroke="transparent" points="359.5,-37 359.5,-55 379.5,-55 379.5,-37 359.5,-37"/>
<polygon fill="none" stroke="black" points="359.5,-37 359.5,-55 379.5,-55 379.5,-37 359.5,-37"/>
<text text-anchor="start" x="369.5" y="-43.2" font-family="Helvetica,sans-Serif" font-size="11.00"> &#160;</text>
</a>
</g>
</g>
<!-- region_areas&#45;&gt;regions -->
<g id="edge3" class="edge">
<title>region_areas:w&#45;&gt;regions:e</title>
<path fill="none" stroke="black" d="M251.97,-95.89C225.21,-120.31 172.76,-193 159,-193"/>
<polygon fill="black" stroke="black" points="257.73,-92.26 266.42,-91.05 261.12,-90.13 264.5,-88 264.5,-88 264.5,-88 261.12,-90.13 262.58,-84.95 257.73,-92.26 257.73,-92.26"/>
<ellipse fill="none" stroke="black" cx="255.02" cy="-93.97" rx="3.2" ry="3.2"/>
</g>
</g>
</svg>
