<?xml version="1.0" encoding="UTF-8" standalone="no"?>
<!DOCTYPE svg PUBLIC "-//W3C//DTD SVG 1.1//EN"
 "http://www.w3.org/Graphics/SVG/1.1/DTD/svg11.dtd">
<!-- Generated by graphviz version 2.50.0 (20211204.2007)
 -->
<!-- Title: oneDegreeRelationshipsDiagram Pages: 1 -->
<svg width="326pt" height="175pt"
 viewBox="0.00 0.00 326.00 175.00" xmlns="http://www.w3.org/2000/svg" xmlns:xlink="http://www.w3.org/1999/xlink">
<g id="graph0" class="graph" transform="scale(1 1) rotate(0) translate(4 171)">
<title>oneDegreeRelationshipsDiagram</title>
<polygon fill="#ffffff" stroke="transparent" points="-4,4 -4,-171 322,-171 322,4 -4,4"/>
<text text-anchor="middle" x="72.5" y="-7.2" font-family="Helvetica,sans-Serif" font-size="11.00">Generated by SchemaSpy</text>
<!-- region_areas -->
<g id="node1" class="node">
<title>region_areas</title>
<g id="a_node1"><a xlink:href="../../tables/region_areas.html" xlink:title="region_areas" target="_top">
<polygon fill="#ffffff" stroke="transparent" points="144,-53 144,-163 310,-163 310,-53 144,-53"/>
<polygon fill="#f5f5f5" stroke="transparent" points="146,-139 146,-161 308,-161 308,-139 146,-139"/>
<polygon fill="none" stroke="black" points="146,-139 146,-161 308,-161 308,-139 146,-139"/>
<text text-anchor="start" x="151" y="-148.2" font-family="Helvetica,sans-Serif" font-weight="bold" font-size="11.00">region_areas</text>
<text text-anchor="start" x="273" y="-147.2" font-family="Helvetica,sans-Serif" font-size="11.00">[table]</text>
<polygon fill="none" stroke="black" points="146,-117 146,-139 247,-139 247,-117 146,-117"/>
<image xlink:href="../../images/primaryKeys.png" width="11px" height="12px" preserveAspectRatio="xMinYMin meet" x="151" y="-134"/>
<text text-anchor="start" x="166" y="-125.2" font-family="Helvetica,sans-Serif" font-size="11.00">id</text>
<polygon fill="none" stroke="black" points="247,-117 247,-139 308,-139 308,-117 247,-117"/>
<text text-anchor="start" x="250" y="-125.2" font-family="Helvetica,sans-Serif" font-size="11.00">serial[10]</text>
<polygon fill="none" stroke="black" points="146,-95 146,-117 247,-117 247,-95 146,-95"/>
<image xlink:href="../../images/foreignKeys.png" width="11px" height="12px" preserveAspectRatio="xMinYMin meet" x="151" y="-112"/>
<text text-anchor="start" x="166" y="-103.2" font-family="Helvetica,sans-Serif" font-size="11.00">region_id</text>
<polygon fill="none" stroke="black" points="247,-95 247,-117 308,-117 308,-95 247,-95"/>
<text text-anchor="start" x="250" y="-103.2" font-family="Helvetica,sans-Serif" font-size="11.00">int4[10]</text>
<polygon fill="#ffffff" stroke="transparent" points="146,-73 146,-95 247,-95 247,-73 146,-73"/>
<polygon fill="none" stroke="black" points="146,-73 146,-95 247,-95 247,-73 146,-73"/>
<text text-anchor="start" x="166" y="-81.2" font-family="Helvetica,sans-Serif" font-size="11.00">name_admin0</text>
<polygon fill="none" stroke="black" points="247,-73 247,-95 308,-95 308,-73 247,-73"/>
<text text-anchor="start" x="250" y="-81.2" font-family="Helvetica,sans-Serif" font-size="11.00">varchar[64]</text>
<polygon fill="#ffffff" stroke="transparent" points="146,-55 146,-73 181,-73 181,-55 146,-55"/>
<polygon fill="none" stroke="black" points="146,-55 146,-73 181,-73 181,-55 146,-55"/>
<text text-anchor="start" x="149" y="-61.2" font-family="Helvetica,sans-Serif" font-size="11.00">&lt; 1</text>
<polygon fill="#ffffff" stroke="transparent" points="181,-55 181,-73 247,-73 247,-55 181,-55"/>
<polygon fill="none" stroke="black" points="181,-55 181,-73 247,-73 247,-55 181,-55"/>
<text text-anchor="start" x="198" y="-61.2" font-family="Helvetica,sans-Serif" font-size="11.00">234 rows</text>
<polygon fill="#ffffff" stroke="transparent" points="247,-55 247,-73 308,-73 308,-55 247,-55"/>
<polygon fill="none" stroke="black" points="247,-55 247,-73 308,-73 308,-55 247,-55"/>
<text text-anchor="start" x="289" y="-61.2" font-family="Helvetica,sans-Serif" font-size="11.00">0 &gt;</text>
<polygon fill="none" stroke="black" stroke-width="2" points="145,-54 145,-162 309,-162 309,-54 145,-54"/>
</a>
</g>
</g>
<!-- regions -->
<g id="node2" class="node">
<title>regions</title>
<g id="a_node2"><a xlink:href="../../tables/regions.html" xlink:title="regions" target="_top">
<polygon fill="#ffffff" stroke="transparent" points="8,-37 8,-139 95,-139 95,-37 8,-37"/>
<polygon fill="#f5f5f5" stroke="transparent" points="8.5,-117 8.5,-139 95.5,-139 95.5,-117 8.5,-117"/>
<polygon fill="none" stroke="black" points="8.5,-117 8.5,-139 95.5,-139 95.5,-117 8.5,-117"/>
<text text-anchor="start" x="13.5" y="-126.2" font-family="Helvetica,sans-Serif" font-weight="bold" font-size="11.00">regions</text>
<text text-anchor="start" x="60.5" y="-125.2" font-family="Helvetica,sans-Serif" font-size="11.00">[table]</text>
<polygon fill="none" stroke="black" points="8.5,-95 8.5,-117 95.5,-117 95.5,-95 8.5,-95"/>
<image xlink:href="../../images/primaryKeys.png" width="11px" height="12px" preserveAspectRatio="xMinYMin meet" x="13.5" y="-112"/>
<text text-anchor="start" x="28.5" y="-103.2" font-family="Helvetica,sans-Serif" font-size="11.00">id</text>
<polygon fill="#ffffff" stroke="transparent" points="8.5,-73 8.5,-95 95.5,-95 95.5,-73 8.5,-73"/>
<polygon fill="none" stroke="black" points="8.5,-73 8.5,-95 95.5,-95 95.5,-73 8.5,-73"/>
<text text-anchor="start" x="28.5" y="-81.2" font-family="Helvetica,sans-Serif" font-size="11.00">name_etl</text>
<polygon fill="none" stroke="black" points="8.5,-55 8.5,-73 95.5,-73 95.5,-55 8.5,-55"/>
<text text-anchor="start" x="11.5" y="-61.2" font-family="Helvetica,sans-Serif" font-size="11.00">...</text>
<polygon fill="#ffffff" stroke="transparent" points="8.5,-37 8.5,-55 27.5,-55 27.5,-37 8.5,-37"/>
<polygon fill="none" stroke="black" points="8.5,-37 8.5,-55 27.5,-55 27.5,-37 8.5,-37"/>
<text text-anchor="start" x="11.5" y="-43.2" font-family="Helvetica,sans-Serif" font-size="11.00"> &#160;</text>
<polygon fill="#ffffff" stroke="transparent" points="27.5,-37 27.5,-55 70.5,-55 70.5,-37 27.5,-37"/>
<polygon fill="none" stroke="black" points="27.5,-37 27.5,-55 70.5,-55 70.5,-37 27.5,-37"/>
<text text-anchor="start" x="33.5" y="-43.2" font-family="Helvetica,sans-Serif" font-size="11.00">5 rows</text>
<polygon fill="#ffffff" stroke="transparent" points="70.5,-37 70.5,-55 95.5,-55 95.5,-37 70.5,-37"/>
<polygon fill="none" stroke="black" points="70.5,-37 70.5,-55 95.5,-55 95.5,-37 70.5,-37"/>
<text text-anchor="start" x="76.5" y="-43.2" font-family="Helvetica,sans-Serif" font-size="11.00">3 &gt;</text>
</a>
</g>
</g>
<!-- region_areas&#45;&gt;regions -->
<g id="edge1" class="edge">
<title>region_areas:w&#45;&gt;regions:e</title>
<path fill="none" stroke="black" d="M130.28,-106C119.29,-106 112.16,-106 96.5,-106"/>
<polygon fill="black" stroke="black" points="137,-106 145,-109.6 141,-106 145,-106 145,-106 145,-106 141,-106 145,-102.4 137,-106 137,-106"/>
<ellipse fill="none" stroke="black" cx="133.8" cy="-106" rx="3.2" ry="3.2"/>
</g>
</g>
</svg>
