<?xml version="1.0" encoding="UTF-8" standalone="no"?>
<!DOCTYPE svg PUBLIC "-//W3C//DTD SVG 1.1//EN"
 "http://www.w3.org/Graphics/SVG/1.1/DTD/svg11.dtd">
<!-- Generated by graphviz version 2.50.0 (20211204.2007)
 -->
<!-- Title: twoDegreesRelationshipsDiagram Pages: 1 -->
<svg width="452pt" height="603pt"
 viewBox="0.00 0.00 452.00 603.00" xmlns="http://www.w3.org/2000/svg" xmlns:xlink="http://www.w3.org/1999/xlink">
<g id="graph0" class="graph" transform="scale(1 1) rotate(0) translate(4 599)">
<title>twoDegreesRelationshipsDiagram</title>
<polygon fill="#ffffff" stroke="transparent" points="-4,4 -4,-599 448,-599 448,4 -4,4"/>
<text text-anchor="middle" x="72.5" y="-7.2" font-family="Helvetica,sans-Serif" font-size="11.00">Generated by SchemaSpy</text>
<!-- decadal_states -->
<g id="node1" class="node">
<title>decadal_states</title>
<g id="a_node1"><a xlink:href="../../tables/decadal_states.html" xlink:title="decadal_states" target="_top">
<polygon fill="#ffffff" stroke="transparent" points="209,-291 209,-591 436,-591 436,-291 209,-291"/>
<polygon fill="#f5f5f5" stroke="transparent" points="209.5,-569 209.5,-591 436.5,-591 436.5,-569 209.5,-569"/>
<polygon fill="none" stroke="black" points="209.5,-569 209.5,-591 436.5,-591 436.5,-569 209.5,-569"/>
<text text-anchor="start" x="214.5" y="-578.2" font-family="Helvetica,sans-Serif" font-weight="bold" font-size="11.00">decadal_states</text>
<text text-anchor="start" x="401.5" y="-577.2" font-family="Helvetica,sans-Serif" font-size="11.00">[table]</text>
<polygon fill="none" stroke="black" points="209.5,-547 209.5,-569 436.5,-569 436.5,-547 209.5,-547"/>
<image xlink:href="../../images/primaryKeys.png" width="11px" height="12px" preserveAspectRatio="xMinYMin meet" x="214.5" y="-564"/>
<text text-anchor="start" x="229.5" y="-555.2" font-family="Helvetica,sans-Serif" font-size="11.00">id</text>
<polygon fill="#ffffff" stroke="transparent" points="209.5,-525 209.5,-547 436.5,-547 436.5,-525 209.5,-525"/>
<polygon fill="none" stroke="black" points="209.5,-525 209.5,-547 436.5,-547 436.5,-525 209.5,-525"/>
<text text-anchor="start" x="229.5" y="-533.2" font-family="Helvetica,sans-Serif" font-size="11.00">grid_square_id</text>
<polygon fill="#ffffff" stroke="transparent" points="209.5,-503 209.5,-525 436.5,-525 436.5,-503 209.5,-503"/>
<polygon fill="none" stroke="black" points="209.5,-503 209.5,-525 436.5,-525 436.5,-503 209.5,-503"/>
<text text-anchor="start" x="229.5" y="-511.2" font-family="Helvetica,sans-Serif" font-size="11.00">point_loc_id</text>
<polygon fill="#ffffff" stroke="transparent" points="209.5,-481 209.5,-503 436.5,-503 436.5,-481 209.5,-481"/>
<polygon fill="none" stroke="black" points="209.5,-481 209.5,-503 436.5,-503 436.5,-481 209.5,-481"/>
<image xlink:href="../../images/foreignKeys.png" width="11px" height="12px" preserveAspectRatio="xMinYMin meet" x="214.5" y="-498"/>
<text text-anchor="start" x="229.5" y="-489.2" font-family="Helvetica,sans-Serif" font-size="11.00">region_id</text>
<polygon fill="#ffffff" stroke="transparent" points="209.5,-459 209.5,-481 436.5,-481 436.5,-459 209.5,-459"/>
<polygon fill="none" stroke="black" points="209.5,-459 209.5,-481 436.5,-481 436.5,-459 209.5,-459"/>
<text text-anchor="start" x="229.5" y="-467.2" font-family="Helvetica,sans-Serif" font-size="11.00">decadal_state_type</text>
<polygon fill="#ffffff" stroke="transparent" points="209.5,-437 209.5,-459 436.5,-459 436.5,-437 209.5,-437"/>
<polygon fill="none" stroke="black" points="209.5,-437 209.5,-459 436.5,-459 436.5,-437 209.5,-437"/>
<image xlink:href="../../images/foreignKeys.png" width="11px" height="12px" preserveAspectRatio="xMinYMin meet" x="214.5" y="-454"/>
<text text-anchor="start" x="229.5" y="-445.2" font-family="Helvetica,sans-Serif" font-size="11.00">hazard_metric_id</text>
<polygon fill="#ffffff" stroke="transparent" points="209.5,-415 209.5,-437 436.5,-437 436.5,-415 209.5,-415"/>
<polygon fill="none" stroke="black" points="209.5,-415 209.5,-437 436.5,-437 436.5,-415 209.5,-415"/>
<image xlink:href="../../images/foreignKeys.png" width="11px" height="12px" preserveAspectRatio="xMinYMin meet" x="214.5" y="-432"/>
<text text-anchor="start" x="229.5" y="-423.2" font-family="Helvetica,sans-Serif" font-size="11.00">scenario_id</text>
<polygon fill="#ffffff" stroke="transparent" points="209.5,-393 209.5,-415 436.5,-415 436.5,-393 209.5,-393"/>
<polygon fill="none" stroke="black" points="209.5,-393 209.5,-415 436.5,-415 436.5,-393 209.5,-393"/>
<text text-anchor="start" x="229.5" y="-401.2" font-family="Helvetica,sans-Serif" font-size="11.00">decade</text>
<polygon fill="#ffffff" stroke="transparent" points="209.5,-371 209.5,-393 436.5,-393 436.5,-371 209.5,-371"/>
<polygon fill="none" stroke="black" points="209.5,-371 209.5,-393 436.5,-393 436.5,-371 209.5,-371"/>
<text text-anchor="start" x="229.5" y="-379.2" font-family="Helvetica,sans-Serif" font-size="11.00">proc_flag_decadal_states_calc</text>
<polygon fill="#ffffff" stroke="transparent" points="209.5,-349 209.5,-371 436.5,-371 436.5,-349 209.5,-349"/>
<polygon fill="none" stroke="black" points="209.5,-349 209.5,-371 436.5,-371 436.5,-349 209.5,-349"/>
<text text-anchor="start" x="229.5" y="-357.2" font-family="Helvetica,sans-Serif" font-size="11.00">not_in_model</text>
<polygon fill="#ffffff" stroke="transparent" points="209.5,-327 209.5,-349 436.5,-349 436.5,-327 209.5,-327"/>
<polygon fill="none" stroke="black" points="209.5,-327 209.5,-349 436.5,-349 436.5,-327 209.5,-327"/>
<text text-anchor="start" x="229.5" y="-335.2" font-family="Helvetica,sans-Serif" font-size="11.00">batch_id</text>
<polygon fill="none" stroke="black" points="209.5,-309 209.5,-327 436.5,-327 436.5,-309 209.5,-309"/>
<text text-anchor="start" x="212.5" y="-315.2" font-family="Helvetica,sans-Serif" font-size="11.00">...</text>
<polygon fill="#ffffff" stroke="transparent" points="209.5,-291 209.5,-309 286.5,-309 286.5,-291 209.5,-291"/>
<polygon fill="none" stroke="black" points="209.5,-291 209.5,-309 286.5,-309 286.5,-291 209.5,-291"/>
<text text-anchor="start" x="212.5" y="-297.2" font-family="Helvetica,sans-Serif" font-size="11.00">&lt; 3</text>
<polygon fill="#ffffff" stroke="transparent" points="286.5,-291 286.5,-309 395.5,-309 395.5,-291 286.5,-291"/>
<polygon fill="none" stroke="black" points="286.5,-291 286.5,-309 395.5,-309 395.5,-291 286.5,-291"/>
<text text-anchor="start" x="316.5" y="-297.2" font-family="Helvetica,sans-Serif" font-size="11.00">7,749,532 rows</text>
<polygon fill="#ffffff" stroke="transparent" points="395.5,-291 395.5,-309 436.5,-309 436.5,-291 395.5,-291"/>
<polygon fill="none" stroke="black" points="395.5,-291 395.5,-309 436.5,-309 436.5,-291 395.5,-291"/>
<text text-anchor="start" x="426.5" y="-297.2" font-family="Helvetica,sans-Serif" font-size="11.00"> &#160;</text>
</a>
</g>
</g>
<!-- hazard_metrics -->
<g id="node2" class="node">
<title>hazard_metrics</title>
<g id="a_node2"><a xlink:href="../../tables/hazard_metrics.html" xlink:title="hazard_metrics" target="_top">
<polygon fill="#ffffff" stroke="transparent" points="21,-449 21,-507 147,-507 147,-449 21,-449"/>
<polygon fill="#f5f5f5" stroke="transparent" points="21,-485 21,-507 147,-507 147,-485 21,-485"/>
<polygon fill="none" stroke="black" points="21,-485 21,-507 147,-507 147,-485 21,-485"/>
<text text-anchor="start" x="26" y="-494.2" font-family="Helvetica,sans-Serif" font-weight="bold" font-size="11.00">hazard_metrics</text>
<text text-anchor="start" x="112" y="-493.2" font-family="Helvetica,sans-Serif" font-size="11.00">[table]</text>
<polygon fill="none" stroke="black" points="21,-467 21,-485 147,-485 147,-467 21,-467"/>
<text text-anchor="start" x="24" y="-473.2" font-family="Helvetica,sans-Serif" font-size="11.00">...</text>
<polygon fill="#ffffff" stroke="transparent" points="21,-449 21,-467 61,-467 61,-449 21,-449"/>
<polygon fill="none" stroke="black" points="21,-449 21,-467 61,-467 61,-449 21,-449"/>
<text text-anchor="start" x="24" y="-455.2" font-family="Helvetica,sans-Serif" font-size="11.00">&lt; 1</text>
<polygon fill="#ffffff" stroke="transparent" points="61,-449 61,-467 116,-467 116,-449 61,-449"/>
<polygon fill="none" stroke="black" points="61,-449 61,-467 116,-467 116,-449 61,-449"/>
<text text-anchor="start" x="73" y="-455.2" font-family="Helvetica,sans-Serif" font-size="11.00">15 rows</text>
<polygon fill="#ffffff" stroke="transparent" points="116,-449 116,-467 147,-467 147,-449 116,-449"/>
<polygon fill="none" stroke="black" points="116,-449 116,-467 147,-467 147,-449 116,-449"/>
<text text-anchor="start" x="128" y="-455.2" font-family="Helvetica,sans-Serif" font-size="11.00">3 &gt;</text>
</a>
</g>
</g>
<!-- decadal_states&#45;&gt;hazard_metrics -->
<g id="edge1" class="edge">
<title>decadal_states:w&#45;&gt;hazard_metrics:e</title>
<path fill="none" stroke="black" d="M193.96,-450.79C177.3,-457.87 171.84,-476 148,-476"/>
<polygon fill="black" stroke="black" points="200.64,-449.51 209.18,-451.54 204.57,-448.75 208.5,-448 208.5,-448 208.5,-448 204.57,-448.75 207.82,-444.46 200.64,-449.51 200.64,-449.51"/>
<ellipse fill="none" stroke="black" cx="197.5" cy="-450.11" rx="3.2" ry="3.2"/>
</g>
<!-- regions -->
<g id="node3" class="node">
<title>regions</title>
<g id="a_node3"><a xlink:href="../../tables/regions.html" xlink:title="regions" target="_top">
<polygon fill="#ffffff" stroke="transparent" points="8,-140 8,-250 160,-250 160,-140 8,-140"/>
<polygon fill="#f5f5f5" stroke="transparent" points="10,-226 10,-248 158,-248 158,-226 10,-226"/>
<polygon fill="none" stroke="black" points="10,-226 10,-248 158,-248 158,-226 10,-226"/>
<text text-anchor="start" x="15" y="-235.2" font-family="Helvetica,sans-Serif" font-weight="bold" font-size="11.00">regions</text>
<text text-anchor="start" x="123" y="-234.2" font-family="Helvetica,sans-Serif" font-size="11.00">[table]</text>
<polygon fill="none" stroke="black" points="10,-204 10,-226 97,-226 97,-204 10,-204"/>
<image xlink:href="../../images/primaryKeys.png" width="11px" height="12px" preserveAspectRatio="xMinYMin meet" x="15" y="-221"/>
<text text-anchor="start" x="30" y="-212.2" font-family="Helvetica,sans-Serif" font-size="11.00">id</text>
<polygon fill="none" stroke="black" points="97,-204 97,-226 158,-226 158,-204 97,-204"/>
<text text-anchor="start" x="100" y="-212.2" font-family="Helvetica,sans-Serif" font-size="11.00">serial[10]</text>
<polygon fill="none" stroke="black" points="10,-182 10,-204 97,-204 97,-182 10,-182"/>
<text text-anchor="start" x="30" y="-190.2" font-family="Helvetica,sans-Serif" font-size="11.00">reg_system</text>
<polygon fill="none" stroke="black" points="97,-182 97,-204 158,-204 158,-182 97,-182"/>
<text text-anchor="start" x="100" y="-190.2" font-family="Helvetica,sans-Serif" font-size="11.00">int4[10]</text>
<polygon fill="#ffffff" stroke="transparent" points="10,-160 10,-182 97,-182 97,-160 10,-160"/>
<polygon fill="none" stroke="black" points="10,-160 10,-182 97,-182 97,-160 10,-160"/>
<text text-anchor="start" x="30" y="-168.2" font-family="Helvetica,sans-Serif" font-size="11.00">name_etl</text>
<polygon fill="none" stroke="black" points="97,-160 97,-182 158,-182 158,-160 97,-160"/>
<text text-anchor="start" x="100" y="-168.2" font-family="Helvetica,sans-Serif" font-size="11.00">varchar[64]</text>
<polygon fill="#ffffff" stroke="transparent" points="10,-142 10,-160 44,-160 44,-142 10,-142"/>
<polygon fill="none" stroke="black" points="10,-142 10,-160 44,-160 44,-142 10,-142"/>
<text text-anchor="start" x="13" y="-148.2" font-family="Helvetica,sans-Serif" font-size="11.00">&lt; 0</text>
<polygon fill="#ffffff" stroke="transparent" points="44,-142 44,-160 97,-160 97,-142 44,-142"/>
<polygon fill="none" stroke="black" points="44,-142 44,-160 97,-160 97,-142 44,-142"/>
<text text-anchor="start" x="60" y="-148.2" font-family="Helvetica,sans-Serif" font-size="11.00">5 rows</text>
<polygon fill="#ffffff" stroke="transparent" points="97,-142 97,-160 158,-160 158,-142 97,-142"/>
<polygon fill="none" stroke="black" points="97,-142 97,-160 158,-160 158,-142 97,-142"/>
<text text-anchor="start" x="139" y="-148.2" font-family="Helvetica,sans-Serif" font-size="11.00">3 &gt;</text>
<polygon fill="none" stroke="black" stroke-width="2" points="9,-141 9,-249 159,-249 159,-141 9,-141"/>
</a>
</g>
</g>
<!-- decadal_states&#45;&gt;regions -->
<g id="edge2" class="edge">
<title>decadal_states:w&#45;&gt;regions:e</title>
<path fill="none" stroke="black" d="M195.26,-486.21C157.94,-446.44 216.16,-215 159,-215"/>
<polygon fill="black" stroke="black" points="201.17,-488.8 207.06,-495.3 204.83,-490.4 208.5,-492 208.5,-492 208.5,-492 204.83,-490.4 209.94,-488.7 201.17,-488.8 201.17,-488.8"/>
<ellipse fill="none" stroke="black" cx="198.24" cy="-487.51" rx="3.2" ry="3.2"/>
</g>
<!-- scenarios -->
<g id="node4" class="node">
<title>scenarios</title>
<g id="a_node4"><a xlink:href="../../tables/scenarios.html" xlink:title="scenarios" target="_top">
<polygon fill="#ffffff" stroke="transparent" points="36,-370 36,-428 132,-428 132,-370 36,-370"/>
<polygon fill="#f5f5f5" stroke="transparent" points="36,-406 36,-428 132,-428 132,-406 36,-406"/>
<polygon fill="none" stroke="black" points="36,-406 36,-428 132,-428 132,-406 36,-406"/>
<text text-anchor="start" x="41" y="-415.2" font-family="Helvetica,sans-Serif" font-weight="bold" font-size="11.00">scenarios</text>
<text text-anchor="start" x="97" y="-414.2" font-family="Helvetica,sans-Serif" font-size="11.00">[table]</text>
<polygon fill="none" stroke="black" points="36,-388 36,-406 132,-406 132,-388 36,-388"/>
<text text-anchor="start" x="39" y="-394.2" font-family="Helvetica,sans-Serif" font-size="11.00">...</text>
<polygon fill="#ffffff" stroke="transparent" points="36,-370 36,-388 59,-388 59,-370 36,-370"/>
<polygon fill="none" stroke="black" points="36,-370 36,-388 59,-388 59,-370 36,-370"/>
<text text-anchor="start" x="39" y="-376.2" font-family="Helvetica,sans-Serif" font-size="11.00"> &#160;</text>
<polygon fill="#ffffff" stroke="transparent" points="59,-370 59,-388 104,-388 104,-370 59,-370"/>
<polygon fill="none" stroke="black" points="59,-370 59,-388 104,-388 104,-370 59,-370"/>
<text text-anchor="start" x="67" y="-376.2" font-family="Helvetica,sans-Serif" font-size="11.00">4 rows</text>
<polygon fill="#ffffff" stroke="transparent" points="104,-370 104,-388 132,-388 132,-370 104,-370"/>
<polygon fill="none" stroke="black" points="104,-370 104,-388 132,-388 132,-370 104,-370"/>
<text text-anchor="start" x="113" y="-376.2" font-family="Helvetica,sans-Serif" font-size="11.00">4 &gt;</text>
</a>
</g>
</g>
<!-- decadal_states&#45;&gt;scenarios -->
<g id="edge3" class="edge">
<title>decadal_states:w&#45;&gt;scenarios:e</title>
<path fill="none" stroke="black" d="M194.09,-424.19C170.7,-417.84 163.47,-397 133,-397"/>
<polygon fill="black" stroke="black" points="200.56,-425 208.05,-429.57 204.53,-425.5 208.5,-426 208.5,-426 208.5,-426 204.53,-425.5 208.95,-422.43 200.56,-425 200.56,-425"/>
<ellipse fill="none" stroke="black" cx="197.39" cy="-424.6" rx="3.2" ry="3.2"/>
</g>
<!-- loc_regions -->
<g id="node5" class="node">
<title>loc_regions</title>
<g id="a_node5"><a xlink:href="../../tables/loc_regions.html" xlink:title="loc_regions" target="_top">
<polygon fill="#ffffff" stroke="transparent" points="269,-37 269,-143 376,-143 376,-37 269,-37"/>
<polygon fill="#f5f5f5" stroke="transparent" points="269.5,-121 269.5,-143 376.5,-143 376.5,-121 269.5,-121"/>
<polygon fill="none" stroke="black" points="269.5,-121 269.5,-143 376.5,-143 376.5,-121 269.5,-121"/>
<text text-anchor="start" x="274.5" y="-130.2" font-family="Helvetica,sans-Serif" font-weight="bold" font-size="11.00">loc_regions</text>
<text text-anchor="start" x="341.5" y="-129.2" font-family="Helvetica,sans-Serif" font-size="11.00">[table]</text>
<polygon fill="none" stroke="black" points="269.5,-99 269.5,-121 376.5,-121 376.5,-99 269.5,-99"/>
<image xlink:href="../../images/primaryKeys.png" width="11px" height="12px" preserveAspectRatio="xMinYMin meet" x="274.5" y="-116"/>
<text text-anchor="start" x="299.5" y="-107.2" font-family="Helvetica,sans-Serif" font-size="11.00">id</text>
<polygon fill="#ffffff" stroke="transparent" points="269.5,-77 269.5,-99 376.5,-99 376.5,-77 269.5,-77"/>
<polygon fill="none" stroke="black" points="269.5,-77 269.5,-99 376.5,-99 376.5,-77 269.5,-77"/>
<image xlink:href="../../images/foreignKeys.png" width="11px" height="12px" preserveAspectRatio="xMinYMin meet" x="274.5" y="-94"/>
<text text-anchor="start" x="299.5" y="-85.2" font-family="Helvetica,sans-Serif" font-size="11.00">loc_id</text>
<polygon fill="none" stroke="black" points="269.5,-55 269.5,-77 376.5,-77 376.5,-55 269.5,-55"/>
<image xlink:href="../../images/foreignKeys.png" width="11px" height="12px" preserveAspectRatio="xMinYMin meet" x="274.5" y="-72"/>
<text text-anchor="start" x="299.5" y="-63.2" font-family="Helvetica,sans-Serif" font-size="11.00">region_id</text>
<polygon fill="#ffffff" stroke="transparent" points="269.5,-37 269.5,-55 293.5,-55 293.5,-37 269.5,-37"/>
<polygon fill="none" stroke="black" points="269.5,-37 269.5,-55 293.5,-55 293.5,-37 269.5,-37"/>
<text text-anchor="start" x="272.5" y="-43.2" font-family="Helvetica,sans-Serif" font-size="11.00">&lt; 2</text>
<polygon fill="#ffffff" stroke="transparent" points="293.5,-37 293.5,-55 361.5,-55 361.5,-37 293.5,-37"/>
<polygon fill="none" stroke="black" points="293.5,-37 293.5,-55 361.5,-55 361.5,-37 293.5,-37"/>
<text text-anchor="start" x="297.5" y="-43.2" font-family="Helvetica,sans-Serif" font-size="11.00">79,140 rows</text>
<polygon fill="#ffffff" stroke="transparent" points="361.5,-37 361.5,-55 376.5,-55 376.5,-37 361.5,-37"/>
<polygon fill="none" stroke="black" points="361.5,-37 361.5,-55 376.5,-55 376.5,-37 361.5,-37"/>
<text text-anchor="start" x="366.5" y="-43.2" font-family="Helvetica,sans-Serif" font-size="11.00"> &#160;</text>
</a>
</g>
</g>
<!-- loc_regions&#45;&gt;regions -->
<g id="edge5" class="edge">
<title>loc_regions:w&#45;&gt;regions:e</title>
<path fill="none" stroke="black" d="M253.92,-67.77C221.14,-76.8 226.7,-118.65 201,-154 181.64,-180.62 191.92,-215 159,-215"/>
<polygon fill="black" stroke="black" points="260.56,-66.96 268.93,-69.57 264.53,-66.48 268.5,-66 268.5,-66 268.5,-66 264.53,-66.48 268.07,-62.43 260.56,-66.96 260.56,-66.96"/>
<ellipse fill="none" stroke="black" cx="257.38" cy="-67.35" rx="3.2" ry="3.2"/>
</g>
<!-- locations -->
<g id="node6" class="node">
<title>locations</title>
<g id="a_node6"><a xlink:href="../../tables/locations.html" xlink:title="locations" target="_top">
<polygon fill="#ffffff" stroke="transparent" points="28.5,-61 28.5,-119 139.5,-119 139.5,-61 28.5,-61"/>
<polygon fill="#f5f5f5" stroke="transparent" points="29,-97 29,-119 140,-119 140,-97 29,-97"/>
<polygon fill="none" stroke="black" points="29,-97 29,-119 140,-119 140,-97 29,-97"/>
<text text-anchor="start" x="34" y="-106.2" font-family="Helvetica,sans-Serif" font-weight="bold" font-size="11.00">locations</text>
<text text-anchor="start" x="105" y="-105.2" font-family="Helvetica,sans-Serif" font-size="11.00">[table]</text>
<polygon fill="none" stroke="black" points="29,-79 29,-97 140,-97 140,-79 29,-79"/>
<text text-anchor="start" x="32" y="-85.2" font-family="Helvetica,sans-Serif" font-size="11.00">...</text>
<polygon fill="#ffffff" stroke="transparent" points="29,-61 29,-79 51,-79 51,-61 29,-61"/>
<polygon fill="none" stroke="black" points="29,-61 29,-79 51,-79 51,-61 29,-61"/>
<text text-anchor="start" x="32" y="-67.2" font-family="Helvetica,sans-Serif" font-size="11.00">&lt; 2</text>
<polygon fill="#ffffff" stroke="transparent" points="51,-61 51,-79 118,-79 118,-61 51,-61"/>
<polygon fill="none" stroke="black" points="51,-61 51,-79 118,-79 118,-61 51,-61"/>
<text text-anchor="start" x="54" y="-67.2" font-family="Helvetica,sans-Serif" font-size="11.00">81,629 rows</text>
<polygon fill="#ffffff" stroke="transparent" points="118,-61 118,-79 140,-79 140,-61 118,-61"/>
<polygon fill="none" stroke="black" points="118,-61 118,-79 140,-79 140,-61 118,-61"/>
<text text-anchor="start" x="121" y="-67.2" font-family="Helvetica,sans-Serif" font-size="11.00">3 &gt;</text>
</a>
</g>
</g>
<!-- loc_regions&#45;&gt;locations -->
<g id="edge4" class="edge">
<title>loc_regions:w&#45;&gt;locations:e</title>
<path fill="none" stroke="black" d="M258.05,-88C209.83,-88 194.01,-88 141,-88"/>
<polygon fill="black" stroke="black" points="267.7,-84 267.7,-92 266.1,-92 266.1,-84 267.7,-84"/>
<polyline fill="none" stroke="black" points="268.5,-88 264.5,-88 "/>
<ellipse fill="none" stroke="black" cx="261.3" cy="-88" rx="3.2" ry="3.2"/>
</g>
<!-- region_areas -->
<g id="node7" class="node">
<title>region_areas</title>
<g id="a_node7"><a xlink:href="../../tables/region_areas.html" xlink:title="region_areas" target="_top">
<polygon fill="#ffffff" stroke="transparent" points="265.5,-164 265.5,-270 379.5,-270 379.5,-164 265.5,-164"/>
<polygon fill="#f5f5f5" stroke="transparent" points="265.5,-248 265.5,-270 379.5,-270 379.5,-248 265.5,-248"/>
<polygon fill="none" stroke="black" points="265.5,-248 265.5,-270 379.5,-270 379.5,-248 265.5,-248"/>
<text text-anchor="start" x="270.5" y="-257.2" font-family="Helvetica,sans-Serif" font-weight="bold" font-size="11.00">region_areas</text>
<text text-anchor="start" x="344.5" y="-256.2" font-family="Helvetica,sans-Serif" font-size="11.00">[table]</text>
<polygon fill="none" stroke="black" points="265.5,-226 265.5,-248 379.5,-248 379.5,-226 265.5,-226"/>
<image xlink:href="../../images/primaryKeys.png" width="11px" height="12px" preserveAspectRatio="xMinYMin meet" x="270.5" y="-243"/>
<text text-anchor="start" x="292.5" y="-234.2" font-family="Helvetica,sans-Serif" font-size="11.00">id</text>
<polygon fill="none" stroke="black" points="265.5,-204 265.5,-226 379.5,-226 379.5,-204 265.5,-204"/>
<image xlink:href="../../images/foreignKeys.png" width="11px" height="12px" preserveAspectRatio="xMinYMin meet" x="270.5" y="-221"/>
<text text-anchor="start" x="292.5" y="-212.2" font-family="Helvetica,sans-Serif" font-size="11.00">region_id</text>
<polygon fill="#ffffff" stroke="transparent" points="265.5,-182 265.5,-204 379.5,-204 379.5,-182 265.5,-182"/>
<polygon fill="none" stroke="black" points="265.5,-182 265.5,-204 379.5,-204 379.5,-182 265.5,-182"/>
<text text-anchor="start" x="292.5" y="-190.2" font-family="Helvetica,sans-Serif" font-size="11.00">name_admin0</text>
<polygon fill="#ffffff" stroke="transparent" points="265.5,-164 265.5,-182 300.5,-182 300.5,-164 265.5,-164"/>
<polygon fill="none" stroke="black" points="265.5,-164 265.5,-182 300.5,-182 300.5,-164 265.5,-164"/>
<text text-anchor="start" x="268.5" y="-170.2" font-family="Helvetica,sans-Serif" font-size="11.00">&lt; 1</text>
<polygon fill="#ffffff" stroke="transparent" points="300.5,-164 300.5,-182 359.5,-182 359.5,-164 300.5,-164"/>
<polygon fill="none" stroke="black" points="300.5,-164 300.5,-182 359.5,-182 359.5,-164 300.5,-164"/>
<text text-anchor="start" x="310.5" y="-170.2" font-family="Helvetica,sans-Serif" font-size="11.00">234 rows</text>
<polygon fill="#ffffff" stroke="transparent" points="359.5,-164 359.5,-182 379.5,-182 379.5,-164 359.5,-164"/>
<polygon fill="none" stroke="black" points="359.5,-164 359.5,-182 379.5,-182 379.5,-164 359.5,-164"/>
<text text-anchor="start" x="369.5" y="-170.2" font-family="Helvetica,sans-Serif" font-size="11.00"> &#160;</text>
</a>
</g>
</g>
<!-- region_areas&#45;&gt;regions -->
<g id="edge6" class="edge">
<title>region_areas:w&#45;&gt;regions:e</title>
<path fill="none" stroke="black" d="M249.82,-215C214.5,-215 200.58,-215 159,-215"/>
<polygon fill="black" stroke="black" points="256.5,-215 264.5,-218.6 260.5,-215 264.5,-215 264.5,-215 264.5,-215 260.5,-215 264.5,-211.4 256.5,-215 256.5,-215"/>
<ellipse fill="none" stroke="black" cx="253.3" cy="-215" rx="3.2" ry="3.2"/>
</g>
</g>
</svg>
