<?xml version="1.0" encoding="UTF-8" standalone="no"?>
<!DOCTYPE svg PUBLIC "-//W3C//DTD SVG 1.1//EN"
 "http://www.w3.org/Graphics/SVG/1.1/DTD/svg11.dtd">
<!-- Generated by graphviz version 2.50.0 (20211204.2007)
 -->
<!-- Title: twoDegreesRelationshipsDiagram Pages: 1 -->
<svg width="326pt" height="317pt"
 viewBox="0.00 0.00 326.00 317.00" xmlns="http://www.w3.org/2000/svg" xmlns:xlink="http://www.w3.org/1999/xlink">
<g id="graph0" class="graph" transform="scale(1 1) rotate(0) translate(4 313)">
<title>twoDegreesRelationshipsDiagram</title>
<polygon fill="#ffffff" stroke="transparent" points="-4,4 -4,-313 322,-313 322,4 -4,4"/>
<text text-anchor="middle" x="72.5" y="-7.2" font-family="Helvetica,sans-Serif" font-size="11.00">Generated by SchemaSpy</text>
<!-- decadal_states -->
<g id="node1" class="node">
<title>decadal_states</title>
<g id="a_node1"><a xlink:href="../../tables/decadal_states.html" xlink:title="decadal_states" target="_top">
<polygon fill="#ffffff" stroke="transparent" points="165,-247 165,-305 289,-305 289,-247 165,-247"/>
<polygon fill="#f5f5f5" stroke="transparent" points="165,-283 165,-305 289,-305 289,-283 165,-283"/>
<polygon fill="none" stroke="black" points="165,-283 165,-305 289,-305 289,-283 165,-283"/>
<text text-anchor="start" x="170" y="-292.2" font-family="Helvetica,sans-Serif" font-weight="bold" font-size="11.00">decadal_states</text>
<text text-anchor="start" x="254" y="-291.2" font-family="Helvetica,sans-Serif" font-size="11.00">[table]</text>
<polygon fill="none" stroke="black" points="165,-265 165,-283 289,-283 289,-265 165,-265"/>
<text text-anchor="start" x="168" y="-271.2" font-family="Helvetica,sans-Serif" font-size="11.00">...</text>
<polygon fill="#ffffff" stroke="transparent" points="165,-247 165,-265 190,-265 190,-247 165,-247"/>
<polygon fill="none" stroke="black" points="165,-247 165,-265 190,-265 190,-247 165,-247"/>
<text text-anchor="start" x="168" y="-253.2" font-family="Helvetica,sans-Serif" font-size="11.00">&lt; 3</text>
<polygon fill="#ffffff" stroke="transparent" points="190,-247 190,-265 274,-265 274,-247 190,-247"/>
<polygon fill="none" stroke="black" points="190,-247 190,-265 274,-265 274,-247 190,-247"/>
<text text-anchor="start" x="195" y="-253.2" font-family="Helvetica,sans-Serif" font-size="11.00">7,749,532 rows</text>
<polygon fill="#ffffff" stroke="transparent" points="274,-247 274,-265 289,-265 289,-247 274,-247"/>
<polygon fill="none" stroke="black" points="274,-247 274,-265 289,-265 289,-247 274,-247"/>
<text text-anchor="start" x="279" y="-253.2" font-family="Helvetica,sans-Serif" font-size="11.00"> &#160;</text>
</a>
</g>
</g>
<!-- regions -->
<g id="node2" class="node">
<title>regions</title>
<g id="a_node2"><a xlink:href="../../tables/regions.html" xlink:title="regions" target="_top">
<polygon fill="#ffffff" stroke="transparent" points="8,-126 8,-228 95,-228 95,-126 8,-126"/>
<polygon fill="#f5f5f5" stroke="transparent" points="8.5,-206 8.5,-228 95.5,-228 95.5,-206 8.5,-206"/>
<polygon fill="none" stroke="black" points="8.5,-206 8.5,-228 95.5,-228 95.5,-206 8.5,-206"/>
<text text-anchor="start" x="13.5" y="-215.2" font-family="Helvetica,sans-Serif" font-weight="bold" font-size="11.00">regions</text>
<text text-anchor="start" x="60.5" y="-214.2" font-family="Helvetica,sans-Serif" font-size="11.00">[table]</text>
<polygon fill="none" stroke="black" points="8.5,-184 8.5,-206 95.5,-206 95.5,-184 8.5,-184"/>
<image xlink:href="../../images/primaryKeys.png" width="11px" height="12px" preserveAspectRatio="xMinYMin meet" x="13.5" y="-201"/>
<text text-anchor="start" x="28.5" y="-192.2" font-family="Helvetica,sans-Serif" font-size="11.00">id</text>
<polygon fill="#ffffff" stroke="transparent" points="8.5,-162 8.5,-184 95.5,-184 95.5,-162 8.5,-162"/>
<polygon fill="none" stroke="black" points="8.5,-162 8.5,-184 95.5,-184 95.5,-162 8.5,-162"/>
<text text-anchor="start" x="28.5" y="-170.2" font-family="Helvetica,sans-Serif" font-size="11.00">name_etl</text>
<polygon fill="none" stroke="black" points="8.5,-144 8.5,-162 95.5,-162 95.5,-144 8.5,-144"/>
<text text-anchor="start" x="11.5" y="-150.2" font-family="Helvetica,sans-Serif" font-size="11.00">...</text>
<polygon fill="#ffffff" stroke="transparent" points="8.5,-126 8.5,-144 27.5,-144 27.5,-126 8.5,-126"/>
<polygon fill="none" stroke="black" points="8.5,-126 8.5,-144 27.5,-144 27.5,-126 8.5,-126"/>
<text text-anchor="start" x="11.5" y="-132.2" font-family="Helvetica,sans-Serif" font-size="11.00"> &#160;</text>
<polygon fill="#ffffff" stroke="transparent" points="27.5,-126 27.5,-144 70.5,-144 70.5,-126 27.5,-126"/>
<polygon fill="none" stroke="black" points="27.5,-126 27.5,-144 70.5,-144 70.5,-126 27.5,-126"/>
<text text-anchor="start" x="33.5" y="-132.2" font-family="Helvetica,sans-Serif" font-size="11.00">5 rows</text>
<polygon fill="#ffffff" stroke="transparent" points="70.5,-126 70.5,-144 95.5,-144 95.5,-126 70.5,-126"/>
<polygon fill="none" stroke="black" points="70.5,-126 70.5,-144 95.5,-144 95.5,-126 70.5,-126"/>
<text text-anchor="start" x="76.5" y="-132.2" font-family="Helvetica,sans-Serif" font-size="11.00">3 &gt;</text>
</a>
</g>
</g>
<!-- decadal_states&#45;&gt;regions -->
<g id="edge1" class="edge">
<title>decadal_states:w&#45;&gt;regions:e</title>
<path fill="none" stroke="black" d="M149.73,-270.61C122.92,-255.48 136.91,-195 96.5,-195"/>
<polygon fill="black" stroke="black" points="156.22,-272.15 163.17,-277.5 160.11,-273.07 164,-274 164,-274 164,-274 160.11,-273.07 164.83,-270.5 156.22,-272.15 156.22,-272.15"/>
<ellipse fill="none" stroke="black" cx="153.1" cy="-271.41" rx="3.2" ry="3.2"/>
</g>
<!-- loc_regions -->
<g id="node3" class="node">
<title>loc_regions</title>
<g id="a_node3"><a xlink:href="../../tables/loc_regions.html" xlink:title="loc_regions" target="_top">
<polygon fill="#ffffff" stroke="transparent" points="173.5,-168 173.5,-226 280.5,-226 280.5,-168 173.5,-168"/>
<polygon fill="#f5f5f5" stroke="transparent" points="174,-204 174,-226 281,-226 281,-204 174,-204"/>
<polygon fill="none" stroke="black" points="174,-204 174,-226 281,-226 281,-204 174,-204"/>
<text text-anchor="start" x="179" y="-213.2" font-family="Helvetica,sans-Serif" font-weight="bold" font-size="11.00">loc_regions</text>
<text text-anchor="start" x="246" y="-212.2" font-family="Helvetica,sans-Serif" font-size="11.00">[table]</text>
<polygon fill="none" stroke="black" points="174,-186 174,-204 281,-204 281,-186 174,-186"/>
<text text-anchor="start" x="177" y="-192.2" font-family="Helvetica,sans-Serif" font-size="11.00">...</text>
<polygon fill="#ffffff" stroke="transparent" points="174,-168 174,-186 198,-186 198,-168 174,-168"/>
<polygon fill="none" stroke="black" points="174,-168 174,-186 198,-186 198,-168 174,-168"/>
<text text-anchor="start" x="177" y="-174.2" font-family="Helvetica,sans-Serif" font-size="11.00">&lt; 2</text>
<polygon fill="#ffffff" stroke="transparent" points="198,-168 198,-186 266,-186 266,-168 198,-168"/>
<polygon fill="none" stroke="black" points="198,-168 198,-186 266,-186 266,-168 198,-168"/>
<text text-anchor="start" x="202" y="-174.2" font-family="Helvetica,sans-Serif" font-size="11.00">79,140 rows</text>
<polygon fill="#ffffff" stroke="transparent" points="266,-168 266,-186 281,-186 281,-168 266,-168"/>
<polygon fill="none" stroke="black" points="266,-168 266,-186 281,-186 281,-168 266,-168"/>
<text text-anchor="start" x="271" y="-174.2" font-family="Helvetica,sans-Serif" font-size="11.00"> &#160;</text>
</a>
</g>
</g>
<!-- loc_regions&#45;&gt;regions -->
<g id="edge2" class="edge">
<title>loc_regions:w&#45;&gt;regions:e</title>
<path fill="none" stroke="black" d="M158.42,-195C135.62,-195 125.05,-195 96.5,-195"/>
<polygon fill="black" stroke="black" points="165,-195 173,-198.6 169,-195 173,-195 173,-195 173,-195 169,-195 173,-191.4 165,-195 165,-195"/>
<ellipse fill="none" stroke="black" cx="161.8" cy="-195" rx="3.2" ry="3.2"/>
</g>
<!-- region_areas -->
<g id="node4" class="node">
<title>region_areas</title>
<g id="a_node4"><a xlink:href="../../tables/region_areas.html" xlink:title="region_areas" target="_top">
<polygon fill="#ffffff" stroke="transparent" points="144,-37 144,-147 310,-147 310,-37 144,-37"/>
<polygon fill="#f5f5f5" stroke="transparent" points="146,-123 146,-145 308,-145 308,-123 146,-123"/>
<polygon fill="none" stroke="black" points="146,-123 146,-145 308,-145 308,-123 146,-123"/>
<text text-anchor="start" x="151" y="-132.2" font-family="Helvetica,sans-Serif" font-weight="bold" font-size="11.00">region_areas</text>
<text text-anchor="start" x="273" y="-131.2" font-family="Helvetica,sans-Serif" font-size="11.00">[table]</text>
<polygon fill="none" stroke="black" points="146,-101 146,-123 247,-123 247,-101 146,-101"/>
<image xlink:href="../../images/primaryKeys.png" width="11px" height="12px" preserveAspectRatio="xMinYMin meet" x="151" y="-118"/>
<text text-anchor="start" x="166" y="-109.2" font-family="Helvetica,sans-Serif" font-size="11.00">id</text>
<polygon fill="none" stroke="black" points="247,-101 247,-123 308,-123 308,-101 247,-101"/>
<text text-anchor="start" x="250" y="-109.2" font-family="Helvetica,sans-Serif" font-size="11.00">serial[10]</text>
<polygon fill="none" stroke="black" points="146,-79 146,-101 247,-101 247,-79 146,-79"/>
<image xlink:href="../../images/foreignKeys.png" width="11px" height="12px" preserveAspectRatio="xMinYMin meet" x="151" y="-96"/>
<text text-anchor="start" x="166" y="-87.2" font-family="Helvetica,sans-Serif" font-size="11.00">region_id</text>
<polygon fill="none" stroke="black" points="247,-79 247,-101 308,-101 308,-79 247,-79"/>
<text text-anchor="start" x="250" y="-87.2" font-family="Helvetica,sans-Serif" font-size="11.00">int4[10]</text>
<polygon fill="#ffffff" stroke="transparent" points="146,-57 146,-79 247,-79 247,-57 146,-57"/>
<polygon fill="none" stroke="black" points="146,-57 146,-79 247,-79 247,-57 146,-57"/>
<text text-anchor="start" x="166" y="-65.2" font-family="Helvetica,sans-Serif" font-size="11.00">name_admin0</text>
<polygon fill="none" stroke="black" points="247,-57 247,-79 308,-79 308,-57 247,-57"/>
<text text-anchor="start" x="250" y="-65.2" font-family="Helvetica,sans-Serif" font-size="11.00">varchar[64]</text>
<polygon fill="#ffffff" stroke="transparent" points="146,-39 146,-57 181,-57 181,-39 146,-39"/>
<polygon fill="none" stroke="black" points="146,-39 146,-57 181,-57 181,-39 146,-39"/>
<text text-anchor="start" x="149" y="-45.2" font-family="Helvetica,sans-Serif" font-size="11.00">&lt; 1</text>
<polygon fill="#ffffff" stroke="transparent" points="181,-39 181,-57 247,-57 247,-39 181,-39"/>
<polygon fill="none" stroke="black" points="181,-39 181,-57 247,-57 247,-39 181,-39"/>
<text text-anchor="start" x="198" y="-45.2" font-family="Helvetica,sans-Serif" font-size="11.00">234 rows</text>
<polygon fill="#ffffff" stroke="transparent" points="247,-39 247,-57 308,-57 308,-39 247,-39"/>
<polygon fill="none" stroke="black" points="247,-39 247,-57 308,-57 308,-39 247,-39"/>
<text text-anchor="start" x="289" y="-45.2" font-family="Helvetica,sans-Serif" font-size="11.00">0 &gt;</text>
<polygon fill="none" stroke="black" stroke-width="2" points="145,-38 145,-146 309,-146 309,-38 145,-38"/>
</a>
</g>
</g>
<!-- region_areas&#45;&gt;regions -->
<g id="edge3" class="edge">
<title>region_areas:w&#45;&gt;regions:e</title>
<path fill="none" stroke="black" d="M130.94,-93.99C104.87,-113.17 141.88,-195 96.5,-195"/>
<polygon fill="black" stroke="black" points="137.3,-92.18 145.98,-93.46 141.15,-91.09 145,-90 145,-90 145,-90 141.15,-91.09 144.02,-86.54 137.3,-92.18 137.3,-92.18"/>
<ellipse fill="none" stroke="black" cx="134.23" cy="-93.06" rx="3.2" ry="3.2"/>
</g>
</g>
</svg>
