<?xml version="1.0" encoding="UTF-8" standalone="no"?>
<!DOCTYPE svg PUBLIC "-//W3C//DTD SVG 1.1//EN"
 "http://www.w3.org/Graphics/SVG/1.1/DTD/svg11.dtd">
<!-- Generated by graphviz version 2.50.0 (20211204.2007)
 -->
<!-- Title: oneDegreeRelationshipsDiagram Pages: 1 -->
<svg width="701pt" height="201pt"
 viewBox="0.00 0.00 701.00 201.00" xmlns="http://www.w3.org/2000/svg" xmlns:xlink="http://www.w3.org/1999/xlink">
<g id="graph0" class="graph" transform="scale(1 1) rotate(0) translate(4 197)">
<title>oneDegreeRelationshipsDiagram</title>
<polygon fill="#ffffff" stroke="transparent" points="-4,4 -4,-197 697,-197 697,4 -4,4"/>
<text text-anchor="middle" x="72.5" y="-7.2" font-family="Helvetica,sans-Serif" font-size="11.00">Generated by SchemaSpy</text>
<!-- rf_categories -->
<g id="node1" class="node">
<title>rf_categories</title>
<g id="a_node1"><a xlink:href="../../tables/rf_categories.html" xlink:title="rf_categories" target="_top">
<polygon fill="#ffffff" stroke="transparent" points="228,-37 228,-169 463,-169 463,-37 228,-37"/>
<polygon fill="#f5f5f5" stroke="transparent" points="230.5,-145 230.5,-167 461.5,-167 461.5,-145 230.5,-145"/>
<polygon fill="none" stroke="black" points="230.5,-145 230.5,-167 461.5,-167 461.5,-145 230.5,-145"/>
<text text-anchor="start" x="235.5" y="-154.2" font-family="Helvetica,sans-Serif" font-weight="bold" font-size="11.00">rf_categories</text>
<text text-anchor="start" x="426.5" y="-153.2" font-family="Helvetica,sans-Serif" font-size="11.00">[table]</text>
<polygon fill="none" stroke="black" points="230.5,-123 230.5,-145 394.5,-145 394.5,-123 230.5,-123"/>
<image xlink:href="../../images/primaryKeys.png" width="11px" height="12px" preserveAspectRatio="xMinYMin meet" x="235.5" y="-140"/>
<text text-anchor="start" x="250.5" y="-131.2" font-family="Helvetica,sans-Serif" font-size="11.00">id</text>
<polygon fill="none" stroke="black" points="394.5,-123 394.5,-145 461.5,-145 461.5,-123 394.5,-123"/>
<text text-anchor="start" x="397.5" y="-131.2" font-family="Helvetica,sans-Serif" font-size="11.00">serial[10]</text>
<polygon fill="#ffffff" stroke="transparent" points="230.5,-101 230.5,-123 394.5,-123 394.5,-101 230.5,-101"/>
<polygon fill="none" stroke="black" points="230.5,-101 230.5,-123 394.5,-123 394.5,-101 230.5,-101"/>
<image xlink:href="../../images/foreignKeys.png" width="11px" height="12px" preserveAspectRatio="xMinYMin meet" x="235.5" y="-118"/>
<text text-anchor="start" x="250.5" y="-109.2" font-family="Helvetica,sans-Serif" font-size="11.00">rf_category_hierarchy_id</text>
<polygon fill="none" stroke="black" points="394.5,-101 394.5,-123 461.5,-123 461.5,-101 394.5,-101"/>
<text text-anchor="start" x="397.5" y="-109.2" font-family="Helvetica,sans-Serif" font-size="11.00">int4[10]</text>
<polygon fill="#ffffff" stroke="transparent" points="230.5,-79 230.5,-101 394.5,-101 394.5,-79 230.5,-79"/>
<polygon fill="none" stroke="black" points="230.5,-79 230.5,-101 394.5,-101 394.5,-79 230.5,-79"/>
<text text-anchor="start" x="250.5" y="-87.2" font-family="Helvetica,sans-Serif" font-size="11.00">name</text>
<polygon fill="none" stroke="black" points="394.5,-79 394.5,-101 461.5,-101 461.5,-79 394.5,-79"/>
<text text-anchor="start" x="397.5" y="-87.2" font-family="Helvetica,sans-Serif" font-size="11.00">varchar[128]</text>
<polygon fill="none" stroke="black" points="230.5,-57 230.5,-79 394.5,-79 394.5,-57 230.5,-57"/>
<text text-anchor="start" x="250.5" y="-65.2" font-family="Helvetica,sans-Serif" font-size="11.00">parent_id</text>
<polygon fill="none" stroke="black" points="394.5,-57 394.5,-79 461.5,-79 461.5,-57 394.5,-57"/>
<text text-anchor="start" x="397.5" y="-65.2" font-family="Helvetica,sans-Serif" font-size="11.00">int4[10]</text>
<polygon fill="#ffffff" stroke="transparent" points="230.5,-39 230.5,-57 300.5,-57 300.5,-39 230.5,-39"/>
<polygon fill="none" stroke="black" points="230.5,-39 230.5,-57 300.5,-57 300.5,-39 230.5,-39"/>
<text text-anchor="start" x="233.5" y="-45.2" font-family="Helvetica,sans-Serif" font-size="11.00">&lt; 1</text>
<polygon fill="#ffffff" stroke="transparent" points="300.5,-39 300.5,-57 394.5,-57 394.5,-39 300.5,-39"/>
<polygon fill="none" stroke="black" points="300.5,-39 300.5,-57 394.5,-57 394.5,-39 300.5,-39"/>
<text text-anchor="start" x="351.5" y="-45.2" font-family="Helvetica,sans-Serif" font-size="11.00">14 rows</text>
<polygon fill="#ffffff" stroke="transparent" points="394.5,-39 394.5,-57 461.5,-57 461.5,-39 394.5,-39"/>
<polygon fill="none" stroke="black" points="394.5,-39 394.5,-57 461.5,-57 461.5,-39 394.5,-39"/>
<text text-anchor="start" x="442.5" y="-45.2" font-family="Helvetica,sans-Serif" font-size="11.00">1 &gt;</text>
<polygon fill="none" stroke="black" stroke-width="2" points="229,-38 229,-168 462,-168 462,-38 229,-38"/>
</a>
</g>
</g>
<!-- rf_category_hierarchies -->
<g id="node2" class="node">
<title>rf_category_hierarchies</title>
<g id="a_node2"><a xlink:href="../../tables/rf_category_hierarchies.html" xlink:title="rf_category_hierarchies" target="_top">
<polygon fill="#ffffff" stroke="transparent" points="8,-61 8,-145 179,-145 179,-61 8,-61"/>
<polygon fill="#f5f5f5" stroke="transparent" points="8.5,-123 8.5,-145 179.5,-145 179.5,-123 8.5,-123"/>
<polygon fill="none" stroke="black" points="8.5,-123 8.5,-145 179.5,-145 179.5,-123 8.5,-123"/>
<text text-anchor="start" x="13.5" y="-132.2" font-family="Helvetica,sans-Serif" font-weight="bold" font-size="11.00">rf_category_hierarchies</text>
<text text-anchor="start" x="144.5" y="-131.2" font-family="Helvetica,sans-Serif" font-size="11.00">[table]</text>
<polygon fill="none" stroke="black" points="8.5,-101 8.5,-123 179.5,-123 179.5,-101 8.5,-101"/>
<image xlink:href="../../images/primaryKeys.png" width="11px" height="12px" preserveAspectRatio="xMinYMin meet" x="13.5" y="-118"/>
<text text-anchor="start" x="35.5" y="-109.2" font-family="Helvetica,sans-Serif" font-size="11.00">id</text>
<polygon fill="#ffffff" stroke="transparent" points="8.5,-79 8.5,-101 179.5,-101 179.5,-79 8.5,-79"/>
<polygon fill="none" stroke="black" points="8.5,-79 8.5,-101 179.5,-101 179.5,-79 8.5,-79"/>
<text text-anchor="start" x="35.5" y="-87.2" font-family="Helvetica,sans-Serif" font-size="11.00">name</text>
<polygon fill="#ffffff" stroke="transparent" points="8.5,-61 8.5,-79 72.5,-79 72.5,-61 8.5,-61"/>
<polygon fill="none" stroke="black" points="8.5,-61 8.5,-79 72.5,-79 72.5,-61 8.5,-61"/>
<text text-anchor="start" x="11.5" y="-67.2" font-family="Helvetica,sans-Serif" font-size="11.00"> &#160;</text>
<polygon fill="#ffffff" stroke="transparent" points="72.5,-61 72.5,-79 131.5,-79 131.5,-61 72.5,-61"/>
<polygon fill="none" stroke="black" points="72.5,-61 72.5,-79 131.5,-79 131.5,-61 72.5,-61"/>
<text text-anchor="start" x="100.5" y="-67.2" font-family="Helvetica,sans-Serif" font-size="11.00">1 row</text>
<polygon fill="#ffffff" stroke="transparent" points="131.5,-61 131.5,-79 179.5,-79 179.5,-61 131.5,-61"/>
<polygon fill="none" stroke="black" points="131.5,-61 131.5,-79 179.5,-79 179.5,-61 131.5,-61"/>
<text text-anchor="start" x="160.5" y="-67.2" font-family="Helvetica,sans-Serif" font-size="11.00">1 &gt;</text>
</a>
</g>
</g>
<!-- rf_categories&#45;&gt;rf_category_hierarchies -->
<g id="edge1" class="edge">
<title>rf_categories:w&#45;&gt;rf_category_hierarchies:e</title>
<path fill="none" stroke="black" d="M214.99,-112C203.68,-112 196.49,-112 180.5,-112"/>
<polygon fill="black" stroke="black" points="221.5,-112 229.5,-115.6 225.5,-112 229.5,-112 229.5,-112 229.5,-112 225.5,-112 229.5,-108.4 221.5,-112 221.5,-112"/>
<ellipse fill="none" stroke="black" cx="218.3" cy="-112" rx="3.2" ry="3.2"/>
</g>
<!-- rf_category_risk_factors -->
<g id="node3" class="node">
<title>rf_category_risk_factors</title>
<g id="a_node3"><a xlink:href="../../tables/rf_category_risk_factors.html" xlink:title="rf_category_risk_factors" target="_top">
<polygon fill="#ffffff" stroke="transparent" points="512,-83 512,-189 685,-189 685,-83 512,-83"/>
<polygon fill="#f5f5f5" stroke="transparent" points="512.5,-167 512.5,-189 685.5,-189 685.5,-167 512.5,-167"/>
<polygon fill="none" stroke="black" points="512.5,-167 512.5,-189 685.5,-189 685.5,-167 512.5,-167"/>
<text text-anchor="start" x="517.5" y="-176.2" font-family="Helvetica,sans-Serif" font-weight="bold" font-size="11.00">rf_category_risk_factors</text>
<text text-anchor="start" x="650.5" y="-175.2" font-family="Helvetica,sans-Serif" font-size="11.00">[table]</text>
<polygon fill="none" stroke="black" points="512.5,-145 512.5,-167 685.5,-167 685.5,-145 512.5,-145"/>
<image xlink:href="../../images/primaryKeys.png" width="11px" height="12px" preserveAspectRatio="xMinYMin meet" x="517.5" y="-162"/>
<text text-anchor="start" x="538.5" y="-153.2" font-family="Helvetica,sans-Serif" font-size="11.00">id</text>
<polygon fill="#ffffff" stroke="transparent" points="512.5,-123 512.5,-145 685.5,-145 685.5,-123 512.5,-123"/>
<polygon fill="none" stroke="black" points="512.5,-123 512.5,-145 685.5,-145 685.5,-123 512.5,-123"/>
<image xlink:href="../../images/foreignKeys.png" width="11px" height="12px" preserveAspectRatio="xMinYMin meet" x="517.5" y="-140"/>
<text text-anchor="start" x="538.5" y="-131.2" font-family="Helvetica,sans-Serif" font-size="11.00">rf_category_id</text>
<polygon fill="#ffffff" stroke="transparent" points="512.5,-101 512.5,-123 685.5,-123 685.5,-101 512.5,-101"/>
<polygon fill="none" stroke="black" points="512.5,-101 512.5,-123 685.5,-123 685.5,-101 512.5,-101"/>
<image xlink:href="../../images/foreignKeys.png" width="11px" height="12px" preserveAspectRatio="xMinYMin meet" x="517.5" y="-118"/>
<text text-anchor="start" x="538.5" y="-109.2" font-family="Helvetica,sans-Serif" font-size="11.00">risk_factor_id</text>
<polygon fill="#ffffff" stroke="transparent" points="512.5,-83 512.5,-101 580.5,-101 580.5,-83 512.5,-83"/>
<polygon fill="none" stroke="black" points="512.5,-83 512.5,-101 580.5,-101 580.5,-83 512.5,-83"/>
<text text-anchor="start" x="515.5" y="-89.2" font-family="Helvetica,sans-Serif" font-size="11.00">&lt; 2</text>
<polygon fill="#ffffff" stroke="transparent" points="580.5,-83 580.5,-101 649.5,-101 649.5,-83 580.5,-83"/>
<polygon fill="none" stroke="black" points="580.5,-83 580.5,-101 649.5,-101 649.5,-83 580.5,-83"/>
<text text-anchor="start" x="606.5" y="-89.2" font-family="Helvetica,sans-Serif" font-size="11.00">17 rows</text>
<polygon fill="#ffffff" stroke="transparent" points="649.5,-83 649.5,-101 685.5,-101 685.5,-83 649.5,-83"/>
<polygon fill="none" stroke="black" points="649.5,-83 649.5,-101 685.5,-101 685.5,-83 649.5,-83"/>
<text text-anchor="start" x="675.5" y="-89.2" font-family="Helvetica,sans-Serif" font-size="11.00"> &#160;</text>
</a>
</g>
</g>
<!-- rf_category_risk_factors&#45;&gt;rf_categories -->
<g id="edge2" class="edge">
<title>rf_category_risk_factors:w&#45;&gt;rf_categories:e</title>
<path fill="none" stroke="black" d="M496.99,-134C485.68,-134 478.49,-134 462.5,-134"/>
<polygon fill="black" stroke="black" points="503.5,-134 511.5,-137.6 507.5,-134 511.5,-134 511.5,-134 511.5,-134 507.5,-134 511.5,-130.4 503.5,-134 503.5,-134"/>
<ellipse fill="none" stroke="black" cx="500.3" cy="-134" rx="3.2" ry="3.2"/>
</g>
</g>
</svg>
