<?xml version="1.0" encoding="UTF-8" standalone="no"?>
<!DOCTYPE svg PUBLIC "-//W3C//DTD SVG 1.1//EN"
 "http://www.w3.org/Graphics/SVG/1.1/DTD/svg11.dtd">
<!-- Generated by graphviz version 2.50.0 (20211204.2007)
 -->
<!-- Title: oneDegreeRelationshipsDiagram Pages: 1 -->
<svg width="453pt" height="296pt"
 viewBox="0.00 0.00 453.00 296.00" xmlns="http://www.w3.org/2000/svg" xmlns:xlink="http://www.w3.org/1999/xlink">
<g id="graph0" class="graph" transform="scale(1 1) rotate(0) translate(4 292)">
<title>oneDegreeRelationshipsDiagram</title>
<polygon fill="#ffffff" stroke="transparent" points="-4,4 -4,-292 449,-292 449,4 -4,4"/>
<text text-anchor="middle" x="72.5" y="-7.2" font-family="Helvetica,sans-Serif" font-size="11.00">Generated by SchemaSpy</text>
<!-- rf_category_risk_factors -->
<g id="node1" class="node">
<title>rf_category_risk_factors</title>
<g id="a_node1"><a xlink:href="../../tables/rf_category_risk_factors.html" xlink:title="rf_category_risk_factors" target="_top">
<polygon fill="#ffffff" stroke="transparent" points="221,-136 221,-246 437,-246 437,-136 221,-136"/>
<polygon fill="#f5f5f5" stroke="transparent" points="223,-222 223,-244 435,-244 435,-222 223,-222"/>
<polygon fill="none" stroke="black" points="223,-222 223,-244 435,-244 435,-222 223,-222"/>
<text text-anchor="start" x="228" y="-231.2" font-family="Helvetica,sans-Serif" font-weight="bold" font-size="11.00">rf_category_risk_factors</text>
<text text-anchor="start" x="400" y="-230.2" font-family="Helvetica,sans-Serif" font-size="11.00">[table]</text>
<polygon fill="none" stroke="black" points="223,-200 223,-222 384,-222 384,-200 223,-200"/>
<image xlink:href="../../images/primaryKeys.png" width="11px" height="12px" preserveAspectRatio="xMinYMin meet" x="228" y="-217"/>
<text text-anchor="start" x="243" y="-208.2" font-family="Helvetica,sans-Serif" font-size="11.00">id</text>
<polygon fill="none" stroke="black" points="384,-200 384,-222 435,-222 435,-200 384,-200"/>
<text text-anchor="start" x="387" y="-208.2" font-family="Helvetica,sans-Serif" font-size="11.00">serial[10]</text>
<polygon fill="#ffffff" stroke="transparent" points="223,-178 223,-200 384,-200 384,-178 223,-178"/>
<polygon fill="none" stroke="black" points="223,-178 223,-200 384,-200 384,-178 223,-178"/>
<image xlink:href="../../images/foreignKeys.png" width="11px" height="12px" preserveAspectRatio="xMinYMin meet" x="228" y="-195"/>
<text text-anchor="start" x="243" y="-186.2" font-family="Helvetica,sans-Serif" font-size="11.00">rf_category_id</text>
<polygon fill="none" stroke="black" points="384,-178 384,-200 435,-200 435,-178 384,-178"/>
<text text-anchor="start" x="387" y="-186.2" font-family="Helvetica,sans-Serif" font-size="11.00">int4[10]</text>
<polygon fill="#ffffff" stroke="transparent" points="223,-156 223,-178 384,-178 384,-156 223,-156"/>
<polygon fill="none" stroke="black" points="223,-156 223,-178 384,-178 384,-156 223,-156"/>
<image xlink:href="../../images/foreignKeys.png" width="11px" height="12px" preserveAspectRatio="xMinYMin meet" x="228" y="-173"/>
<text text-anchor="start" x="243" y="-164.2" font-family="Helvetica,sans-Serif" font-size="11.00">risk_factor_id</text>
<polygon fill="none" stroke="black" points="384,-156 384,-178 435,-178 435,-156 384,-156"/>
<text text-anchor="start" x="387" y="-164.2" font-family="Helvetica,sans-Serif" font-size="11.00">int4[10]</text>
<polygon fill="#ffffff" stroke="transparent" points="223,-138 223,-156 291,-156 291,-138 223,-138"/>
<polygon fill="none" stroke="black" points="223,-138 223,-156 291,-156 291,-138 223,-138"/>
<text text-anchor="start" x="226" y="-144.2" font-family="Helvetica,sans-Serif" font-size="11.00">&lt; 2</text>
<polygon fill="#ffffff" stroke="transparent" points="291,-138 291,-156 384,-156 384,-138 291,-138"/>
<polygon fill="none" stroke="black" points="291,-138 291,-156 384,-156 384,-138 291,-138"/>
<text text-anchor="start" x="341" y="-144.2" font-family="Helvetica,sans-Serif" font-size="11.00">17 rows</text>
<polygon fill="#ffffff" stroke="transparent" points="384,-138 384,-156 435,-156 435,-138 384,-138"/>
<polygon fill="none" stroke="black" points="384,-138 384,-156 435,-156 435,-138 384,-138"/>
<text text-anchor="start" x="416" y="-144.2" font-family="Helvetica,sans-Serif" font-size="11.00">0 &gt;</text>
<polygon fill="none" stroke="black" stroke-width="2" points="222,-137 222,-245 436,-245 436,-137 222,-137"/>
</a>
</g>
</g>
<!-- rf_categories -->
<g id="node2" class="node">
<title>rf_categories</title>
<g id="a_node2"><a xlink:href="../../tables/rf_categories.html" xlink:title="rf_categories" target="_top">
<polygon fill="#ffffff" stroke="transparent" points="8,-160 8,-284 172,-284 172,-160 8,-160"/>
<polygon fill="#f5f5f5" stroke="transparent" points="8,-262 8,-284 172,-284 172,-262 8,-262"/>
<polygon fill="none" stroke="black" points="8,-262 8,-284 172,-284 172,-262 8,-262"/>
<text text-anchor="start" x="13" y="-271.2" font-family="Helvetica,sans-Serif" font-weight="bold" font-size="11.00">rf_categories</text>
<text text-anchor="start" x="137" y="-270.2" font-family="Helvetica,sans-Serif" font-size="11.00">[table]</text>
<polygon fill="none" stroke="black" points="8,-240 8,-262 172,-262 172,-240 8,-240"/>
<image xlink:href="../../images/primaryKeys.png" width="11px" height="12px" preserveAspectRatio="xMinYMin meet" x="13" y="-257"/>
<text text-anchor="start" x="28" y="-248.2" font-family="Helvetica,sans-Serif" font-size="11.00">id</text>
<polygon fill="#ffffff" stroke="transparent" points="8,-218 8,-240 172,-240 172,-218 8,-218"/>
<polygon fill="none" stroke="black" points="8,-218 8,-240 172,-240 172,-218 8,-218"/>
<image xlink:href="../../images/foreignKeys.png" width="11px" height="12px" preserveAspectRatio="xMinYMin meet" x="13" y="-235"/>
<text text-anchor="start" x="28" y="-226.2" font-family="Helvetica,sans-Serif" font-size="11.00">rf_category_hierarchy_id</text>
<polygon fill="#ffffff" stroke="transparent" points="8,-196 8,-218 172,-218 172,-196 8,-196"/>
<polygon fill="none" stroke="black" points="8,-196 8,-218 172,-218 172,-196 8,-196"/>
<text text-anchor="start" x="28" y="-204.2" font-family="Helvetica,sans-Serif" font-size="11.00">name</text>
<polygon fill="none" stroke="black" points="8,-178 8,-196 172,-196 172,-178 8,-178"/>
<text text-anchor="start" x="11" y="-184.2" font-family="Helvetica,sans-Serif" font-size="11.00">...</text>
<polygon fill="#ffffff" stroke="transparent" points="8,-160 8,-178 67,-178 67,-160 8,-160"/>
<polygon fill="none" stroke="black" points="8,-160 8,-178 67,-178 67,-160 8,-160"/>
<text text-anchor="start" x="11" y="-166.2" font-family="Helvetica,sans-Serif" font-size="11.00">&lt; 1</text>
<polygon fill="#ffffff" stroke="transparent" points="67,-160 67,-178 131,-178 131,-160 67,-160"/>
<polygon fill="none" stroke="black" points="67,-160 67,-178 131,-178 131,-160 67,-160"/>
<text text-anchor="start" x="88" y="-166.2" font-family="Helvetica,sans-Serif" font-size="11.00">14 rows</text>
<polygon fill="#ffffff" stroke="transparent" points="131,-160 131,-178 172,-178 172,-160 131,-160"/>
<polygon fill="none" stroke="black" points="131,-160 131,-178 172,-178 172,-160 131,-160"/>
<text text-anchor="start" x="153" y="-166.2" font-family="Helvetica,sans-Serif" font-size="11.00">1 &gt;</text>
</a>
</g>
</g>
<!-- rf_category_risk_factors&#45;&gt;rf_categories -->
<g id="edge1" class="edge">
<title>rf_category_risk_factors:w&#45;&gt;rf_categories:e</title>
<path fill="none" stroke="black" d="M208.31,-193.87C192.52,-208.48 202.09,-251 173,-251"/>
<polygon fill="black" stroke="black" points="214.46,-191.68 223.21,-192.39 218.23,-190.34 222,-189 222,-189 222,-189 218.23,-190.34 220.79,-185.61 214.46,-191.68 214.46,-191.68"/>
<ellipse fill="none" stroke="black" cx="211.45" cy="-192.75" rx="3.2" ry="3.2"/>
</g>
<!-- risk_factors -->
<g id="node3" class="node">
<title>risk_factors</title>
<g id="a_node3"><a xlink:href="../../tables/risk_factors.html" xlink:title="risk_factors" target="_top">
<polygon fill="#ffffff" stroke="transparent" points="36.5,-37 36.5,-139 143.5,-139 143.5,-37 36.5,-37"/>
<polygon fill="#f5f5f5" stroke="transparent" points="37,-117 37,-139 144,-139 144,-117 37,-117"/>
<polygon fill="none" stroke="black" points="37,-117 37,-139 144,-139 144,-117 37,-117"/>
<text text-anchor="start" x="42" y="-126.2" font-family="Helvetica,sans-Serif" font-weight="bold" font-size="11.00">risk_factors</text>
<text text-anchor="start" x="109" y="-125.2" font-family="Helvetica,sans-Serif" font-size="11.00">[table]</text>
<polygon fill="none" stroke="black" points="37,-95 37,-117 144,-117 144,-95 37,-95"/>
<image xlink:href="../../images/primaryKeys.png" width="11px" height="12px" preserveAspectRatio="xMinYMin meet" x="42" y="-112"/>
<text text-anchor="start" x="66" y="-103.2" font-family="Helvetica,sans-Serif" font-size="11.00">id</text>
<polygon fill="#ffffff" stroke="transparent" points="37,-73 37,-95 144,-95 144,-73 37,-73"/>
<polygon fill="none" stroke="black" points="37,-73 37,-95 144,-95 144,-73 37,-73"/>
<text text-anchor="start" x="66" y="-81.2" font-family="Helvetica,sans-Serif" font-size="11.00">name</text>
<polygon fill="none" stroke="black" points="37,-55 37,-73 144,-73 144,-55 37,-55"/>
<text text-anchor="start" x="40" y="-61.2" font-family="Helvetica,sans-Serif" font-size="11.00">...</text>
<polygon fill="#ffffff" stroke="transparent" points="37,-37 37,-55 63,-55 63,-37 37,-37"/>
<polygon fill="none" stroke="black" points="37,-37 37,-55 63,-55 63,-37 37,-37"/>
<text text-anchor="start" x="40" y="-43.2" font-family="Helvetica,sans-Serif" font-size="11.00"> &#160;</text>
<polygon fill="#ffffff" stroke="transparent" points="63,-37 63,-55 115,-55 115,-37 63,-37"/>
<polygon fill="none" stroke="black" points="63,-37 63,-55 115,-55 115,-37 63,-37"/>
<text text-anchor="start" x="72" y="-43.2" font-family="Helvetica,sans-Serif" font-size="11.00">17 rows</text>
<polygon fill="#ffffff" stroke="transparent" points="115,-37 115,-55 144,-55 144,-37 115,-37"/>
<polygon fill="none" stroke="black" points="115,-37 115,-55 144,-55 144,-37 115,-37"/>
<text text-anchor="start" x="125" y="-43.2" font-family="Helvetica,sans-Serif" font-size="11.00">7 &gt;</text>
</a>
</g>
</g>
<!-- rf_category_risk_factors&#45;&gt;risk_factors -->
<g id="edge2" class="edge">
<title>rf_category_risk_factors:w&#45;&gt;risk_factors:e</title>
<path fill="none" stroke="black" d="M207.58,-164.22C180.1,-152.29 183.03,-106 145,-106"/>
<polygon fill="black" stroke="black" points="214.14,-165.49 221.32,-170.53 218.07,-166.24 222,-167 222,-167 222,-167 218.07,-166.24 222.68,-163.47 214.14,-165.49 214.14,-165.49"/>
<ellipse fill="none" stroke="black" cx="211" cy="-164.88" rx="3.2" ry="3.2"/>
</g>
</g>
</svg>
