<?xml version="1.0" encoding="UTF-8" standalone="no"?>
<!DOCTYPE svg PUBLIC "-//W3C//DTD SVG 1.1//EN"
 "http://www.w3.org/Graphics/SVG/1.1/DTD/svg11.dtd">
<!-- Generated by graphviz version 2.50.0 (20211204.2007)
 -->
<!-- Title: twoDegreesRelationshipsDiagram Pages: 1 -->
<svg width="701pt" height="260pt"
 viewBox="0.00 0.00 701.00 260.00" xmlns="http://www.w3.org/2000/svg" xmlns:xlink="http://www.w3.org/1999/xlink">
<g id="graph0" class="graph" transform="scale(1 1) rotate(0) translate(4 256)">
<title>twoDegreesRelationshipsDiagram</title>
<polygon fill="#ffffff" stroke="transparent" points="-4,4 -4,-256 697,-256 697,4 -4,4"/>
<text text-anchor="middle" x="72.5" y="-7.2" font-family="Helvetica,sans-Serif" font-size="11.00">Generated by SchemaSpy</text>
<!-- rf_categories -->
<g id="node1" class="node">
<title>rf_categories</title>
<g id="a_node1"><a xlink:href="../../tables/rf_categories.html" xlink:title="rf_categories" target="_top">
<polygon fill="#ffffff" stroke="transparent" points="228,-116 228,-248 463,-248 463,-116 228,-116"/>
<polygon fill="#f5f5f5" stroke="transparent" points="230.5,-224 230.5,-246 461.5,-246 461.5,-224 230.5,-224"/>
<polygon fill="none" stroke="black" points="230.5,-224 230.5,-246 461.5,-246 461.5,-224 230.5,-224"/>
<text text-anchor="start" x="235.5" y="-233.2" font-family="Helvetica,sans-Serif" font-weight="bold" font-size="11.00">rf_categories</text>
<text text-anchor="start" x="426.5" y="-232.2" font-family="Helvetica,sans-Serif" font-size="11.00">[table]</text>
<polygon fill="none" stroke="black" points="230.5,-202 230.5,-224 394.5,-224 394.5,-202 230.5,-202"/>
<image xlink:href="../../images/primaryKeys.png" width="11px" height="12px" preserveAspectRatio="xMinYMin meet" x="235.5" y="-219"/>
<text text-anchor="start" x="250.5" y="-210.2" font-family="Helvetica,sans-Serif" font-size="11.00">id</text>
<polygon fill="none" stroke="black" points="394.5,-202 394.5,-224 461.5,-224 461.5,-202 394.5,-202"/>
<text text-anchor="start" x="397.5" y="-210.2" font-family="Helvetica,sans-Serif" font-size="11.00">serial[10]</text>
<polygon fill="#ffffff" stroke="transparent" points="230.5,-180 230.5,-202 394.5,-202 394.5,-180 230.5,-180"/>
<polygon fill="none" stroke="black" points="230.5,-180 230.5,-202 394.5,-202 394.5,-180 230.5,-180"/>
<image xlink:href="../../images/foreignKeys.png" width="11px" height="12px" preserveAspectRatio="xMinYMin meet" x="235.5" y="-197"/>
<text text-anchor="start" x="250.5" y="-188.2" font-family="Helvetica,sans-Serif" font-size="11.00">rf_category_hierarchy_id</text>
<polygon fill="none" stroke="black" points="394.5,-180 394.5,-202 461.5,-202 461.5,-180 394.5,-180"/>
<text text-anchor="start" x="397.5" y="-188.2" font-family="Helvetica,sans-Serif" font-size="11.00">int4[10]</text>
<polygon fill="#ffffff" stroke="transparent" points="230.5,-158 230.5,-180 394.5,-180 394.5,-158 230.5,-158"/>
<polygon fill="none" stroke="black" points="230.5,-158 230.5,-180 394.5,-180 394.5,-158 230.5,-158"/>
<text text-anchor="start" x="250.5" y="-166.2" font-family="Helvetica,sans-Serif" font-size="11.00">name</text>
<polygon fill="none" stroke="black" points="394.5,-158 394.5,-180 461.5,-180 461.5,-158 394.5,-158"/>
<text text-anchor="start" x="397.5" y="-166.2" font-family="Helvetica,sans-Serif" font-size="11.00">varchar[128]</text>
<polygon fill="none" stroke="black" points="230.5,-136 230.5,-158 394.5,-158 394.5,-136 230.5,-136"/>
<text text-anchor="start" x="250.5" y="-144.2" font-family="Helvetica,sans-Serif" font-size="11.00">parent_id</text>
<polygon fill="none" stroke="black" points="394.5,-136 394.5,-158 461.5,-158 461.5,-136 394.5,-136"/>
<text text-anchor="start" x="397.5" y="-144.2" font-family="Helvetica,sans-Serif" font-size="11.00">int4[10]</text>
<polygon fill="#ffffff" stroke="transparent" points="230.5,-118 230.5,-136 300.5,-136 300.5,-118 230.5,-118"/>
<polygon fill="none" stroke="black" points="230.5,-118 230.5,-136 300.5,-136 300.5,-118 230.5,-118"/>
<text text-anchor="start" x="233.5" y="-124.2" font-family="Helvetica,sans-Serif" font-size="11.00">&lt; 1</text>
<polygon fill="#ffffff" stroke="transparent" points="300.5,-118 300.5,-136 394.5,-136 394.5,-118 300.5,-118"/>
<polygon fill="none" stroke="black" points="300.5,-118 300.5,-136 394.5,-136 394.5,-118 300.5,-118"/>
<text text-anchor="start" x="351.5" y="-124.2" font-family="Helvetica,sans-Serif" font-size="11.00">14 rows</text>
<polygon fill="#ffffff" stroke="transparent" points="394.5,-118 394.5,-136 461.5,-136 461.5,-118 394.5,-118"/>
<polygon fill="none" stroke="black" points="394.5,-118 394.5,-136 461.5,-136 461.5,-118 394.5,-118"/>
<text text-anchor="start" x="442.5" y="-124.2" font-family="Helvetica,sans-Serif" font-size="11.00">1 &gt;</text>
<polygon fill="none" stroke="black" stroke-width="2" points="229,-117 229,-247 462,-247 462,-117 229,-117"/>
</a>
</g>
</g>
<!-- rf_category_hierarchies -->
<g id="node2" class="node">
<title>rf_category_hierarchies</title>
<g id="a_node2"><a xlink:href="../../tables/rf_category_hierarchies.html" xlink:title="rf_category_hierarchies" target="_top">
<polygon fill="#ffffff" stroke="transparent" points="8,-140 8,-224 179,-224 179,-140 8,-140"/>
<polygon fill="#f5f5f5" stroke="transparent" points="8.5,-202 8.5,-224 179.5,-224 179.5,-202 8.5,-202"/>
<polygon fill="none" stroke="black" points="8.5,-202 8.5,-224 179.5,-224 179.5,-202 8.5,-202"/>
<text text-anchor="start" x="13.5" y="-211.2" font-family="Helvetica,sans-Serif" font-weight="bold" font-size="11.00">rf_category_hierarchies</text>
<text text-anchor="start" x="144.5" y="-210.2" font-family="Helvetica,sans-Serif" font-size="11.00">[table]</text>
<polygon fill="none" stroke="black" points="8.5,-180 8.5,-202 179.5,-202 179.5,-180 8.5,-180"/>
<image xlink:href="../../images/primaryKeys.png" width="11px" height="12px" preserveAspectRatio="xMinYMin meet" x="13.5" y="-197"/>
<text text-anchor="start" x="35.5" y="-188.2" font-family="Helvetica,sans-Serif" font-size="11.00">id</text>
<polygon fill="#ffffff" stroke="transparent" points="8.5,-158 8.5,-180 179.5,-180 179.5,-158 8.5,-158"/>
<polygon fill="none" stroke="black" points="8.5,-158 8.5,-180 179.5,-180 179.5,-158 8.5,-158"/>
<text text-anchor="start" x="35.5" y="-166.2" font-family="Helvetica,sans-Serif" font-size="11.00">name</text>
<polygon fill="#ffffff" stroke="transparent" points="8.5,-140 8.5,-158 72.5,-158 72.5,-140 8.5,-140"/>
<polygon fill="none" stroke="black" points="8.5,-140 8.5,-158 72.5,-158 72.5,-140 8.5,-140"/>
<text text-anchor="start" x="11.5" y="-146.2" font-family="Helvetica,sans-Serif" font-size="11.00"> &#160;</text>
<polygon fill="#ffffff" stroke="transparent" points="72.5,-140 72.5,-158 131.5,-158 131.5,-140 72.5,-140"/>
<polygon fill="none" stroke="black" points="72.5,-140 72.5,-158 131.5,-158 131.5,-140 72.5,-140"/>
<text text-anchor="start" x="100.5" y="-146.2" font-family="Helvetica,sans-Serif" font-size="11.00">1 row</text>
<polygon fill="#ffffff" stroke="transparent" points="131.5,-140 131.5,-158 179.5,-158 179.5,-140 131.5,-140"/>
<polygon fill="none" stroke="black" points="131.5,-140 131.5,-158 179.5,-158 179.5,-140 131.5,-140"/>
<text text-anchor="start" x="160.5" y="-146.2" font-family="Helvetica,sans-Serif" font-size="11.00">1 &gt;</text>
</a>
</g>
</g>
<!-- rf_categories&#45;&gt;rf_category_hierarchies -->
<g id="edge1" class="edge">
<title>rf_categories:w&#45;&gt;rf_category_hierarchies:e</title>
<path fill="none" stroke="black" d="M214.99,-191C203.68,-191 196.49,-191 180.5,-191"/>
<polygon fill="black" stroke="black" points="221.5,-191 229.5,-194.6 225.5,-191 229.5,-191 229.5,-191 229.5,-191 225.5,-191 229.5,-187.4 221.5,-191 221.5,-191"/>
<ellipse fill="none" stroke="black" cx="218.3" cy="-191" rx="3.2" ry="3.2"/>
</g>
<!-- rf_category_risk_factors -->
<g id="node3" class="node">
<title>rf_category_risk_factors</title>
<g id="a_node3"><a xlink:href="../../tables/rf_category_risk_factors.html" xlink:title="rf_category_risk_factors" target="_top">
<polygon fill="#ffffff" stroke="transparent" points="512,-98 512,-204 685,-204 685,-98 512,-98"/>
<polygon fill="#f5f5f5" stroke="transparent" points="512.5,-182 512.5,-204 685.5,-204 685.5,-182 512.5,-182"/>
<polygon fill="none" stroke="black" points="512.5,-182 512.5,-204 685.5,-204 685.5,-182 512.5,-182"/>
<text text-anchor="start" x="517.5" y="-191.2" font-family="Helvetica,sans-Serif" font-weight="bold" font-size="11.00">rf_category_risk_factors</text>
<text text-anchor="start" x="650.5" y="-190.2" font-family="Helvetica,sans-Serif" font-size="11.00">[table]</text>
<polygon fill="none" stroke="black" points="512.5,-160 512.5,-182 685.5,-182 685.5,-160 512.5,-160"/>
<image xlink:href="../../images/primaryKeys.png" width="11px" height="12px" preserveAspectRatio="xMinYMin meet" x="517.5" y="-177"/>
<text text-anchor="start" x="538.5" y="-168.2" font-family="Helvetica,sans-Serif" font-size="11.00">id</text>
<polygon fill="#ffffff" stroke="transparent" points="512.5,-138 512.5,-160 685.5,-160 685.5,-138 512.5,-138"/>
<polygon fill="none" stroke="black" points="512.5,-138 512.5,-160 685.5,-160 685.5,-138 512.5,-138"/>
<image xlink:href="../../images/foreignKeys.png" width="11px" height="12px" preserveAspectRatio="xMinYMin meet" x="517.5" y="-155"/>
<text text-anchor="start" x="538.5" y="-146.2" font-family="Helvetica,sans-Serif" font-size="11.00">rf_category_id</text>
<polygon fill="#ffffff" stroke="transparent" points="512.5,-116 512.5,-138 685.5,-138 685.5,-116 512.5,-116"/>
<polygon fill="none" stroke="black" points="512.5,-116 512.5,-138 685.5,-138 685.5,-116 512.5,-116"/>
<image xlink:href="../../images/foreignKeys.png" width="11px" height="12px" preserveAspectRatio="xMinYMin meet" x="517.5" y="-133"/>
<text text-anchor="start" x="538.5" y="-124.2" font-family="Helvetica,sans-Serif" font-size="11.00">risk_factor_id</text>
<polygon fill="#ffffff" stroke="transparent" points="512.5,-98 512.5,-116 580.5,-116 580.5,-98 512.5,-98"/>
<polygon fill="none" stroke="black" points="512.5,-98 512.5,-116 580.5,-116 580.5,-98 512.5,-98"/>
<text text-anchor="start" x="515.5" y="-104.2" font-family="Helvetica,sans-Serif" font-size="11.00">&lt; 2</text>
<polygon fill="#ffffff" stroke="transparent" points="580.5,-98 580.5,-116 649.5,-116 649.5,-98 580.5,-98"/>
<polygon fill="none" stroke="black" points="580.5,-98 580.5,-116 649.5,-116 649.5,-98 580.5,-98"/>
<text text-anchor="start" x="606.5" y="-104.2" font-family="Helvetica,sans-Serif" font-size="11.00">17 rows</text>
<polygon fill="#ffffff" stroke="transparent" points="649.5,-98 649.5,-116 685.5,-116 685.5,-98 649.5,-98"/>
<polygon fill="none" stroke="black" points="649.5,-98 649.5,-116 685.5,-116 685.5,-98 649.5,-98"/>
<text text-anchor="start" x="675.5" y="-104.2" font-family="Helvetica,sans-Serif" font-size="11.00"> &#160;</text>
</a>
</g>
</g>
<!-- rf_category_risk_factors&#45;&gt;rf_categories -->
<g id="edge2" class="edge">
<title>rf_category_risk_factors:w&#45;&gt;rf_categories:e</title>
<path fill="none" stroke="black" d="M497.62,-154.02C481.73,-169.11 492.17,-213 462.5,-213"/>
<polygon fill="black" stroke="black" points="503.98,-151.72 512.72,-152.39 507.74,-150.36 511.5,-149 511.5,-149 511.5,-149 507.74,-150.36 510.28,-145.61 503.98,-151.72 503.98,-151.72"/>
<ellipse fill="none" stroke="black" cx="500.97" cy="-152.81" rx="3.2" ry="3.2"/>
</g>
<!-- risk_factors -->
<g id="node4" class="node">
<title>risk_factors</title>
<g id="a_node4"><a xlink:href="../../tables/risk_factors.html" xlink:title="risk_factors" target="_top">
<polygon fill="#ffffff" stroke="transparent" points="292,-37 292,-95 399,-95 399,-37 292,-37"/>
<polygon fill="#f5f5f5" stroke="transparent" points="292.5,-73 292.5,-95 399.5,-95 399.5,-73 292.5,-73"/>
<polygon fill="none" stroke="black" points="292.5,-73 292.5,-95 399.5,-95 399.5,-73 292.5,-73"/>
<text text-anchor="start" x="297.5" y="-82.2" font-family="Helvetica,sans-Serif" font-weight="bold" font-size="11.00">risk_factors</text>
<text text-anchor="start" x="364.5" y="-81.2" font-family="Helvetica,sans-Serif" font-size="11.00">[table]</text>
<polygon fill="none" stroke="black" points="292.5,-55 292.5,-73 399.5,-73 399.5,-55 292.5,-55"/>
<text text-anchor="start" x="295.5" y="-61.2" font-family="Helvetica,sans-Serif" font-size="11.00">...</text>
<polygon fill="#ffffff" stroke="transparent" points="292.5,-37 292.5,-55 318.5,-55 318.5,-37 292.5,-37"/>
<polygon fill="none" stroke="black" points="292.5,-37 292.5,-55 318.5,-55 318.5,-37 292.5,-37"/>
<text text-anchor="start" x="295.5" y="-43.2" font-family="Helvetica,sans-Serif" font-size="11.00"> &#160;</text>
<polygon fill="#ffffff" stroke="transparent" points="318.5,-37 318.5,-55 370.5,-55 370.5,-37 318.5,-37"/>
<polygon fill="none" stroke="black" points="318.5,-37 318.5,-55 370.5,-55 370.5,-37 318.5,-37"/>
<text text-anchor="start" x="327.5" y="-43.2" font-family="Helvetica,sans-Serif" font-size="11.00">17 rows</text>
<polygon fill="#ffffff" stroke="transparent" points="370.5,-37 370.5,-55 399.5,-55 399.5,-37 370.5,-37"/>
<polygon fill="none" stroke="black" points="370.5,-37 370.5,-55 399.5,-55 399.5,-37 370.5,-37"/>
<text text-anchor="start" x="380.5" y="-43.2" font-family="Helvetica,sans-Serif" font-size="11.00">7 &gt;</text>
</a>
</g>
</g>
<!-- rf_category_risk_factors&#45;&gt;risk_factors -->
<g id="edge3" class="edge">
<title>rf_category_risk_factors:w&#45;&gt;risk_factors:e</title>
<path fill="none" stroke="black" d="M498.41,-120.73C470.01,-104.79 406.21,-64 400.5,-64"/>
<polygon fill="black" stroke="black" points="504.29,-123.54 509.94,-130.25 507.89,-125.27 511.5,-127 511.5,-127 511.5,-127 507.89,-125.27 513.06,-123.75 504.29,-123.54 504.29,-123.54"/>
<ellipse fill="none" stroke="black" cx="501.4" cy="-122.16" rx="3.2" ry="3.2"/>
</g>
</g>
</svg>
