<?xml version="1.0" encoding="UTF-8" standalone="no"?>
<!DOCTYPE svg PUBLIC "-//W3C//DTD SVG 1.1//EN"
 "http://www.w3.org/Graphics/SVG/1.1/DTD/svg11.dtd">
<!-- Generated by graphviz version 2.50.0 (20211204.2007)
 -->
<!-- Title: twoDegreesRelationshipsDiagram Pages: 1 -->
<svg width="1110pt" height="479pt"
 viewBox="0.00 0.00 1110.00 479.26" xmlns="http://www.w3.org/2000/svg" xmlns:xlink="http://www.w3.org/1999/xlink">
<g id="graph0" class="graph" transform="scale(1 1) rotate(0) translate(4 475.26)">
<title>twoDegreesRelationshipsDiagram</title>
<polygon fill="#ffffff" stroke="transparent" points="-4,4 -4,-475.26 1106,-475.26 1106,4 -4,4"/>
<text text-anchor="middle" x="72.5" y="-7.2" font-family="Helvetica,sans-Serif" font-size="11.00">Generated by SchemaSpy</text>
<!-- aggregate_impacts -->
<g id="node1" class="node">
<title>aggregate_impacts</title>
<g id="a_node1"><a xlink:href="../../tables/aggregate_impacts.html" xlink:title="aggregate_impacts" target="_top">
<polygon fill="#ffffff" stroke="transparent" points="476.5,-260 476.5,-318 621.5,-318 621.5,-260 476.5,-260"/>
<polygon fill="#f5f5f5" stroke="transparent" points="477,-296 477,-318 622,-318 622,-296 477,-296"/>
<polygon fill="none" stroke="black" points="477,-296 477,-318 622,-318 622,-296 477,-296"/>
<text text-anchor="start" x="482" y="-305.2" font-family="Helvetica,sans-Serif" font-weight="bold" font-size="11.00">aggregate_impacts</text>
<text text-anchor="start" x="587" y="-304.2" font-family="Helvetica,sans-Serif" font-size="11.00">[table]</text>
<polygon fill="none" stroke="black" points="477,-278 477,-296 622,-296 622,-278 477,-278"/>
<text text-anchor="start" x="480" y="-284.2" font-family="Helvetica,sans-Serif" font-size="11.00">...</text>
<polygon fill="#ffffff" stroke="transparent" points="477,-260 477,-278 513,-278 513,-260 477,-260"/>
<polygon fill="none" stroke="black" points="477,-260 477,-278 513,-278 513,-260 477,-260"/>
<text text-anchor="start" x="480" y="-266.2" font-family="Helvetica,sans-Serif" font-size="11.00">&lt; 2</text>
<polygon fill="#ffffff" stroke="transparent" points="513,-260 513,-278 602,-278 602,-260 513,-260"/>
<polygon fill="none" stroke="black" points="513,-260 513,-278 602,-278 602,-260 513,-260"/>
<text text-anchor="start" x="523" y="-266.2" font-family="Helvetica,sans-Serif" font-size="11.00">7,901,926 rows</text>
<polygon fill="#ffffff" stroke="transparent" points="602,-260 602,-278 622,-278 622,-260 602,-260"/>
<polygon fill="none" stroke="black" points="602,-260 602,-278 622,-278 622,-260 602,-260"/>
<text text-anchor="start" x="612" y="-266.2" font-family="Helvetica,sans-Serif" font-size="11.00"> &#160;</text>
</a>
</g>
</g>
<!-- risk_factors -->
<g id="node2" class="node">
<title>risk_factors</title>
<g id="a_node2"><a xlink:href="../../tables/risk_factors.html" xlink:title="risk_factors" target="_top">
<polygon fill="#ffffff" stroke="transparent" points="256.5,-218 256.5,-320 363.5,-320 363.5,-218 256.5,-218"/>
<polygon fill="#f5f5f5" stroke="transparent" points="257,-298 257,-320 364,-320 364,-298 257,-298"/>
<polygon fill="none" stroke="black" points="257,-298 257,-320 364,-320 364,-298 257,-298"/>
<text text-anchor="start" x="262" y="-307.2" font-family="Helvetica,sans-Serif" font-weight="bold" font-size="11.00">risk_factors</text>
<text text-anchor="start" x="329" y="-306.2" font-family="Helvetica,sans-Serif" font-size="11.00">[table]</text>
<polygon fill="none" stroke="black" points="257,-276 257,-298 364,-298 364,-276 257,-276"/>
<image xlink:href="../../images/primaryKeys.png" width="11px" height="12px" preserveAspectRatio="xMinYMin meet" x="262" y="-293"/>
<text text-anchor="start" x="286" y="-284.2" font-family="Helvetica,sans-Serif" font-size="11.00">id</text>
<polygon fill="#ffffff" stroke="transparent" points="257,-254 257,-276 364,-276 364,-254 257,-254"/>
<polygon fill="none" stroke="black" points="257,-254 257,-276 364,-276 364,-254 257,-254"/>
<text text-anchor="start" x="286" y="-262.2" font-family="Helvetica,sans-Serif" font-size="11.00">name</text>
<polygon fill="none" stroke="black" points="257,-236 257,-254 364,-254 364,-236 257,-236"/>
<text text-anchor="start" x="260" y="-242.2" font-family="Helvetica,sans-Serif" font-size="11.00">...</text>
<polygon fill="#ffffff" stroke="transparent" points="257,-218 257,-236 283,-236 283,-218 257,-218"/>
<polygon fill="none" stroke="black" points="257,-218 257,-236 283,-236 283,-218 257,-218"/>
<text text-anchor="start" x="260" y="-224.2" font-family="Helvetica,sans-Serif" font-size="11.00"> &#160;</text>
<polygon fill="#ffffff" stroke="transparent" points="283,-218 283,-236 335,-236 335,-218 283,-218"/>
<polygon fill="none" stroke="black" points="283,-218 283,-236 335,-236 335,-218 283,-218"/>
<text text-anchor="start" x="292" y="-224.2" font-family="Helvetica,sans-Serif" font-size="11.00">17 rows</text>
<polygon fill="#ffffff" stroke="transparent" points="335,-218 335,-236 364,-236 364,-218 335,-218"/>
<polygon fill="none" stroke="black" points="335,-218 335,-236 364,-236 364,-218 335,-218"/>
<text text-anchor="start" x="345" y="-224.2" font-family="Helvetica,sans-Serif" font-size="11.00">7 &gt;</text>
</a>
</g>
</g>
<!-- aggregate_impacts&#45;&gt;risk_factors -->
<g id="edge1" class="edge">
<title>aggregate_impacts:w&#45;&gt;risk_factors:e</title>
<path fill="none" stroke="black" d="M461.54,-287C423.65,-287 409.13,-287 365,-287"/>
<polygon fill="black" stroke="black" points="468,-287 476,-290.6 472,-287 476,-287 476,-287 476,-287 472,-287 476,-283.4 468,-287 468,-287"/>
<ellipse fill="none" stroke="black" cx="464.8" cy="-287" rx="3.2" ry="3.2"/>
</g>
<!-- aggregate_risks -->
<g id="node3" class="node">
<title>aggregate_risks</title>
<g id="a_node3"><a xlink:href="../../tables/aggregate_risks.html" xlink:title="aggregate_risks" target="_top">
<polygon fill="#ffffff" stroke="transparent" points="708.5,-246 708.5,-304 838.5,-304 838.5,-246 708.5,-246"/>
<polygon fill="#f5f5f5" stroke="transparent" points="708.5,-282 708.5,-304 838.5,-304 838.5,-282 708.5,-282"/>
<polygon fill="none" stroke="black" points="708.5,-282 708.5,-304 838.5,-304 838.5,-282 708.5,-282"/>
<text text-anchor="start" x="713.5" y="-291.2" font-family="Helvetica,sans-Serif" font-weight="bold" font-size="11.00">aggregate_risks</text>
<text text-anchor="start" x="803.5" y="-290.2" font-family="Helvetica,sans-Serif" font-size="11.00">[table]</text>
<polygon fill="none" stroke="black" points="708.5,-264 708.5,-282 838.5,-282 838.5,-264 708.5,-264"/>
<text text-anchor="start" x="711.5" y="-270.2" font-family="Helvetica,sans-Serif" font-size="11.00">...</text>
<polygon fill="#ffffff" stroke="transparent" points="708.5,-246 708.5,-264 741.5,-264 741.5,-246 708.5,-246"/>
<polygon fill="none" stroke="black" points="708.5,-246 708.5,-264 741.5,-264 741.5,-246 708.5,-246"/>
<text text-anchor="start" x="711.5" y="-252.2" font-family="Helvetica,sans-Serif" font-size="11.00">&lt; 4</text>
<polygon fill="#ffffff" stroke="transparent" points="741.5,-246 741.5,-264 819.5,-264 819.5,-246 741.5,-246"/>
<polygon fill="none" stroke="black" points="741.5,-246 741.5,-264 819.5,-264 819.5,-246 741.5,-246"/>
<text text-anchor="start" x="749.5" y="-252.2" font-family="Helvetica,sans-Serif" font-size="11.00">133,008 rows</text>
<polygon fill="#ffffff" stroke="transparent" points="819.5,-246 819.5,-264 838.5,-264 838.5,-246 819.5,-246"/>
<polygon fill="none" stroke="black" points="819.5,-246 819.5,-264 838.5,-264 838.5,-246 819.5,-246"/>
<text text-anchor="start" x="828.5" y="-252.2" font-family="Helvetica,sans-Serif" font-size="11.00"> &#160;</text>
</a>
</g>
</g>
<!-- aggregate_risks&#45;&gt;risk_factors -->
<g id="edge3" class="edge">
<title>aggregate_risks:w&#45;&gt;risk_factors:e</title>
<path fill="none" stroke="black" d="M693.5,-269.46C684.28,-264.01 679.96,-253.79 665,-250 565.04,-224.69 532.93,-224.57 433,-250 399.66,-258.48 399.41,-287 365,-287"/>
<polygon fill="black" stroke="black" points="699.74,-271.04 706.62,-276.49 703.62,-272.02 707.5,-273 707.5,-273 707.5,-273 703.62,-272.02 708.38,-269.51 699.74,-271.04 699.74,-271.04"/>
<ellipse fill="none" stroke="black" cx="696.64" cy="-270.26" rx="3.2" ry="3.2"/>
</g>
<!-- hazard_metrics -->
<g id="node4" class="node">
<title>hazard_metrics</title>
<g id="a_node4"><a xlink:href="../../tables/hazard_metrics.html" xlink:title="hazard_metrics" target="_top">
<polygon fill="#ffffff" stroke="transparent" points="486,-339 486,-397 612,-397 612,-339 486,-339"/>
<polygon fill="#f5f5f5" stroke="transparent" points="486,-375 486,-397 612,-397 612,-375 486,-375"/>
<polygon fill="none" stroke="black" points="486,-375 486,-397 612,-397 612,-375 486,-375"/>
<text text-anchor="start" x="491" y="-384.2" font-family="Helvetica,sans-Serif" font-weight="bold" font-size="11.00">hazard_metrics</text>
<text text-anchor="start" x="577" y="-383.2" font-family="Helvetica,sans-Serif" font-size="11.00">[table]</text>
<polygon fill="none" stroke="black" points="486,-357 486,-375 612,-375 612,-357 486,-357"/>
<text text-anchor="start" x="489" y="-363.2" font-family="Helvetica,sans-Serif" font-size="11.00">...</text>
<polygon fill="#ffffff" stroke="transparent" points="486,-339 486,-357 526,-357 526,-339 486,-339"/>
<polygon fill="none" stroke="black" points="486,-339 486,-357 526,-357 526,-339 486,-339"/>
<text text-anchor="start" x="489" y="-345.2" font-family="Helvetica,sans-Serif" font-size="11.00">&lt; 1</text>
<polygon fill="#ffffff" stroke="transparent" points="526,-339 526,-357 581,-357 581,-339 526,-339"/>
<polygon fill="none" stroke="black" points="526,-339 526,-357 581,-357 581,-339 526,-339"/>
<text text-anchor="start" x="538" y="-345.2" font-family="Helvetica,sans-Serif" font-size="11.00">15 rows</text>
<polygon fill="#ffffff" stroke="transparent" points="581,-339 581,-357 612,-357 612,-339 581,-339"/>
<polygon fill="none" stroke="black" points="581,-339 581,-357 612,-357 612,-339 581,-339"/>
<text text-anchor="start" x="593" y="-345.2" font-family="Helvetica,sans-Serif" font-size="11.00">3 &gt;</text>
</a>
</g>
</g>
<!-- aggregate_risks&#45;&gt;hazard_metrics -->
<g id="edge2" class="edge">
<title>aggregate_risks:w&#45;&gt;hazard_metrics:e</title>
<path fill="none" stroke="black" d="M693.48,-276.57C679.34,-285.9 683.05,-311.5 665,-329 644.64,-348.75 641.36,-366 613,-366"/>
<polygon fill="black" stroke="black" points="699.75,-274.97 708.39,-276.49 703.62,-273.99 707.5,-273 707.5,-273 707.5,-273 703.62,-273.99 706.61,-269.51 699.75,-274.97 699.75,-274.97"/>
<ellipse fill="none" stroke="black" cx="696.65" cy="-275.76" rx="3.2" ry="3.2"/>
</g>
<!-- hazard_metrics&#45;&gt;risk_factors -->
<g id="edge8" class="edge">
<title>hazard_metrics:w&#45;&gt;risk_factors:e</title>
<path fill="none" stroke="black" d="M470.65,-364.49C421.93,-353.57 423.62,-287 365,-287"/>
<polygon fill="black" stroke="black" points="477.04,-365.16 484.62,-369.58 481.02,-365.58 485,-366 485,-366 485,-366 481.02,-365.58 485.38,-362.42 477.04,-365.16 477.04,-365.16"/>
<ellipse fill="none" stroke="black" cx="473.86" cy="-364.83" rx="3.2" ry="3.2"/>
</g>
<!-- asset_types_impact_functions -->
<g id="node5" class="node">
<title>asset_types_impact_functions</title>
<g id="a_node5"><a xlink:href="../../tables/asset_types_impact_functions.html" xlink:title="asset_types_impact_functions" target="_top">
<polygon fill="#ffffff" stroke="transparent" points="890,-244 890,-302 1094,-302 1094,-244 890,-244"/>
<polygon fill="#f5f5f5" stroke="transparent" points="890,-280 890,-302 1094,-302 1094,-280 890,-280"/>
<polygon fill="none" stroke="black" points="890,-280 890,-302 1094,-302 1094,-280 890,-280"/>
<text text-anchor="start" x="895" y="-289.2" font-family="Helvetica,sans-Serif" font-weight="bold" font-size="11.00">asset_types_impact_functions</text>
<text text-anchor="start" x="1059" y="-288.2" font-family="Helvetica,sans-Serif" font-size="11.00">[table]</text>
<polygon fill="none" stroke="black" points="890,-262 890,-280 1094,-280 1094,-262 890,-262"/>
<text text-anchor="start" x="893" y="-268.2" font-family="Helvetica,sans-Serif" font-size="11.00">...</text>
<polygon fill="#ffffff" stroke="transparent" points="890,-244 890,-262 970,-262 970,-244 890,-244"/>
<polygon fill="none" stroke="black" points="890,-244 890,-262 970,-262 970,-244 890,-244"/>
<text text-anchor="start" x="893" y="-250.2" font-family="Helvetica,sans-Serif" font-size="11.00">&lt; 3</text>
<polygon fill="#ffffff" stroke="transparent" points="970,-244 970,-262 1051,-262 1051,-244 970,-244"/>
<polygon fill="none" stroke="black" points="970,-244 970,-262 1051,-262 1051,-244 970,-244"/>
<text text-anchor="start" x="1002" y="-250.2" font-family="Helvetica,sans-Serif" font-size="11.00">625 rows</text>
<polygon fill="#ffffff" stroke="transparent" points="1051,-244 1051,-262 1094,-262 1094,-244 1051,-244"/>
<polygon fill="none" stroke="black" points="1051,-244 1051,-262 1094,-262 1094,-244 1051,-244"/>
<text text-anchor="start" x="1084" y="-250.2" font-family="Helvetica,sans-Serif" font-size="11.00"> &#160;</text>
</a>
</g>
</g>
<!-- asset_types_impact_functions&#45;&gt;risk_factors -->
<g id="edge5" class="edge">
<title>asset_types_impact_functions:w&#45;&gt;risk_factors:e</title>
<path fill="none" stroke="black" d="M875.29,-266.28C866.38,-258.33 865.09,-242.5 849,-236 763.26,-201.37 519.49,-194.3 433,-227 395.3,-241.25 405.31,-287 365,-287"/>
<polygon fill="black" stroke="black" points="881.44,-268.4 887.83,-274.4 885.22,-269.7 889,-271 889,-271 889,-271 885.22,-269.7 890.17,-267.6 881.44,-268.4 881.44,-268.4"/>
<ellipse fill="none" stroke="black" cx="878.41" cy="-267.35" rx="3.2" ry="3.2"/>
</g>
<!-- impact_functions -->
<g id="node6" class="node">
<title>impact_functions</title>
<g id="a_node6"><a xlink:href="../../tables/impact_functions.html" xlink:title="impact_functions" target="_top">
<polygon fill="#ffffff" stroke="transparent" points="706,-352 706,-410 841,-410 841,-352 706,-352"/>
<polygon fill="#f5f5f5" stroke="transparent" points="706.5,-388 706.5,-410 841.5,-410 841.5,-388 706.5,-388"/>
<polygon fill="none" stroke="black" points="706.5,-388 706.5,-410 841.5,-410 841.5,-388 706.5,-388"/>
<text text-anchor="start" x="711.5" y="-397.2" font-family="Helvetica,sans-Serif" font-weight="bold" font-size="11.00">impact_functions</text>
<text text-anchor="start" x="806.5" y="-396.2" font-family="Helvetica,sans-Serif" font-size="11.00">[table]</text>
<polygon fill="none" stroke="black" points="706.5,-370 706.5,-388 841.5,-388 841.5,-370 706.5,-370"/>
<text text-anchor="start" x="709.5" y="-376.2" font-family="Helvetica,sans-Serif" font-size="11.00">...</text>
<polygon fill="#ffffff" stroke="transparent" points="706.5,-352 706.5,-370 743.5,-370 743.5,-352 706.5,-352"/>
<polygon fill="none" stroke="black" points="706.5,-352 706.5,-370 743.5,-370 743.5,-352 706.5,-352"/>
<text text-anchor="start" x="709.5" y="-358.2" font-family="Helvetica,sans-Serif" font-size="11.00">&lt; 2</text>
<polygon fill="#ffffff" stroke="transparent" points="743.5,-352 743.5,-370 811.5,-370 811.5,-352 743.5,-352"/>
<polygon fill="none" stroke="black" points="743.5,-352 743.5,-370 811.5,-370 811.5,-352 743.5,-352"/>
<text text-anchor="start" x="753.5" y="-358.2" font-family="Helvetica,sans-Serif" font-size="11.00">3,261 rows</text>
<polygon fill="#ffffff" stroke="transparent" points="811.5,-352 811.5,-370 841.5,-370 841.5,-352 811.5,-352"/>
<polygon fill="none" stroke="black" points="811.5,-352 811.5,-370 841.5,-370 841.5,-352 811.5,-352"/>
<text text-anchor="start" x="822.5" y="-358.2" font-family="Helvetica,sans-Serif" font-size="11.00">2 &gt;</text>
</a>
</g>
</g>
<!-- asset_types_impact_functions&#45;&gt;impact_functions -->
<g id="edge4" class="edge">
<title>asset_types_impact_functions:w&#45;&gt;impact_functions:e</title>
<path fill="none" stroke="black" d="M874.82,-275.1C848.82,-294.83 888.64,-379 842.5,-379"/>
<polygon fill="black" stroke="black" points="881.31,-273.22 890,-274.46 885.16,-272.11 889,-271 889,-271 889,-271 885.16,-272.11 888,-267.54 881.31,-273.22 881.31,-273.22"/>
<ellipse fill="none" stroke="black" cx="878.24" cy="-274.11" rx="3.2" ry="3.2"/>
</g>
<!-- impact_functions&#45;&gt;risk_factors -->
<g id="edge10" class="edge">
<title>impact_functions:w&#45;&gt;risk_factors:e</title>
<path fill="none" stroke="black" d="M691.64,-383.44C683.01,-390.28 680.15,-403.14 665,-408 615.91,-423.76 477.5,-434.04 433,-408 379.76,-376.85 426.69,-287 365,-287"/>
<polygon fill="black" stroke="black" points="697.88,-381.44 706.6,-382.43 701.69,-380.22 705.5,-379 705.5,-379 705.5,-379 701.69,-380.22 704.4,-375.57 697.88,-381.44 697.88,-381.44"/>
<ellipse fill="none" stroke="black" cx="694.83" cy="-382.41" rx="3.2" ry="3.2"/>
</g>
<!-- impact_functions&#45;&gt;hazard_metrics -->
<g id="edge9" class="edge">
<title>impact_functions:w&#45;&gt;hazard_metrics:e</title>
<path fill="none" stroke="black" d="M690.91,-378.41C661.01,-375.86 649.16,-366 613,-366"/>
<polygon fill="black" stroke="black" points="697.51,-378.68 705.35,-382.6 701.5,-378.84 705.5,-379 705.5,-379 705.5,-379 701.5,-378.84 705.65,-375.4 697.51,-378.68 697.51,-378.68"/>
<ellipse fill="none" stroke="black" cx="694.31" cy="-378.55" rx="3.2" ry="3.2"/>
</g>
<!-- assets_impact_functions -->
<g id="node7" class="node">
<title>assets_impact_functions</title>
<g id="a_node7"><a xlink:href="../../tables/assets_impact_functions.html" xlink:title="assets_impact_functions" target="_top">
<polygon fill="#ffffff" stroke="transparent" points="904.5,-386 904.5,-444 1079.5,-444 1079.5,-386 904.5,-386"/>
<polygon fill="#f5f5f5" stroke="transparent" points="905,-422 905,-444 1080,-444 1080,-422 905,-422"/>
<polygon fill="none" stroke="black" points="905,-422 905,-444 1080,-444 1080,-422 905,-422"/>
<text text-anchor="start" x="910" y="-431.2" font-family="Helvetica,sans-Serif" font-weight="bold" font-size="11.00">assets_impact_functions</text>
<text text-anchor="start" x="1045" y="-430.2" font-family="Helvetica,sans-Serif" font-size="11.00">[table]</text>
<polygon fill="none" stroke="black" points="905,-404 905,-422 1080,-422 1080,-404 905,-404"/>
<text text-anchor="start" x="908" y="-410.2" font-family="Helvetica,sans-Serif" font-size="11.00">...</text>
<polygon fill="#ffffff" stroke="transparent" points="905,-386 905,-404 960,-404 960,-386 905,-386"/>
<polygon fill="none" stroke="black" points="905,-386 905,-404 960,-404 960,-386 905,-386"/>
<text text-anchor="start" x="908" y="-392.2" font-family="Helvetica,sans-Serif" font-size="11.00">&lt; 3</text>
<polygon fill="#ffffff" stroke="transparent" points="960,-386 960,-404 1050,-404 1050,-386 960,-386"/>
<polygon fill="none" stroke="black" points="960,-386 960,-404 1050,-404 1050,-386 960,-386"/>
<text text-anchor="start" x="980" y="-392.2" font-family="Helvetica,sans-Serif" font-size="11.00">654,369 rows</text>
<polygon fill="#ffffff" stroke="transparent" points="1050,-386 1050,-404 1080,-404 1080,-386 1050,-386"/>
<polygon fill="none" stroke="black" points="1050,-386 1050,-404 1080,-404 1080,-386 1050,-386"/>
<text text-anchor="start" x="1070" y="-392.2" font-family="Helvetica,sans-Serif" font-size="11.00"> &#160;</text>
</a>
</g>
</g>
<!-- assets_impact_functions&#45;&gt;risk_factors -->
<g id="edge7" class="edge">
<title>assets_impact_functions:w&#45;&gt;risk_factors:e</title>
<path fill="none" stroke="black" d="M889.28,-413.85C875.59,-415.57 867.85,-419.43 849,-421 664.74,-436.35 590,-522.66 433,-425 374.94,-388.88 433.38,-287 365,-287"/>
<polygon fill="black" stroke="black" points="896.01,-413.46 904.21,-416.59 900.01,-413.23 904,-413 904,-413 904,-413 900.01,-413.23 903.79,-409.41 896.01,-413.46 896.01,-413.46"/>
<ellipse fill="none" stroke="black" cx="892.82" cy="-413.65" rx="3.2" ry="3.2"/>
</g>
<!-- assets_impact_functions&#45;&gt;impact_functions -->
<g id="edge6" class="edge">
<title>assets_impact_functions:w&#45;&gt;impact_functions:e</title>
<path fill="none" stroke="black" d="M889.66,-409.98C872.04,-401.66 868,-379 842.5,-379"/>
<polygon fill="black" stroke="black" points="896.17,-411.35 903.26,-416.52 900.09,-412.18 904,-413 904,-413 904,-413 900.09,-412.18 904.74,-409.48 896.17,-411.35 896.17,-411.35"/>
<ellipse fill="none" stroke="black" cx="893.04" cy="-410.69" rx="3.2" ry="3.2"/>
</g>
<!-- rf_categories -->
<g id="node8" class="node">
<title>rf_categories</title>
<g id="a_node8"><a xlink:href="../../tables/rf_categories.html" xlink:title="rf_categories" target="_top">
<polygon fill="#ffffff" stroke="transparent" points="228,-37 228,-161 392,-161 392,-37 228,-37"/>
<polygon fill="#f5f5f5" stroke="transparent" points="228,-139 228,-161 392,-161 392,-139 228,-139"/>
<polygon fill="none" stroke="black" points="228,-139 228,-161 392,-161 392,-139 228,-139"/>
<text text-anchor="start" x="233" y="-148.2" font-family="Helvetica,sans-Serif" font-weight="bold" font-size="11.00">rf_categories</text>
<text text-anchor="start" x="357" y="-147.2" font-family="Helvetica,sans-Serif" font-size="11.00">[table]</text>
<polygon fill="none" stroke="black" points="228,-117 228,-139 392,-139 392,-117 228,-117"/>
<image xlink:href="../../images/primaryKeys.png" width="11px" height="12px" preserveAspectRatio="xMinYMin meet" x="233" y="-134"/>
<text text-anchor="start" x="248" y="-125.2" font-family="Helvetica,sans-Serif" font-size="11.00">id</text>
<polygon fill="#ffffff" stroke="transparent" points="228,-95 228,-117 392,-117 392,-95 228,-95"/>
<polygon fill="none" stroke="black" points="228,-95 228,-117 392,-117 392,-95 228,-95"/>
<image xlink:href="../../images/foreignKeys.png" width="11px" height="12px" preserveAspectRatio="xMinYMin meet" x="233" y="-112"/>
<text text-anchor="start" x="248" y="-103.2" font-family="Helvetica,sans-Serif" font-size="11.00">rf_category_hierarchy_id</text>
<polygon fill="#ffffff" stroke="transparent" points="228,-73 228,-95 392,-95 392,-73 228,-73"/>
<polygon fill="none" stroke="black" points="228,-73 228,-95 392,-95 392,-73 228,-73"/>
<text text-anchor="start" x="248" y="-81.2" font-family="Helvetica,sans-Serif" font-size="11.00">name</text>
<polygon fill="none" stroke="black" points="228,-55 228,-73 392,-73 392,-55 228,-55"/>
<text text-anchor="start" x="231" y="-61.2" font-family="Helvetica,sans-Serif" font-size="11.00">...</text>
<polygon fill="#ffffff" stroke="transparent" points="228,-37 228,-55 287,-55 287,-37 228,-37"/>
<polygon fill="none" stroke="black" points="228,-37 228,-55 287,-55 287,-37 228,-37"/>
<text text-anchor="start" x="231" y="-43.2" font-family="Helvetica,sans-Serif" font-size="11.00">&lt; 1</text>
<polygon fill="#ffffff" stroke="transparent" points="287,-37 287,-55 351,-55 351,-37 287,-37"/>
<polygon fill="none" stroke="black" points="287,-37 287,-55 351,-55 351,-37 287,-37"/>
<text text-anchor="start" x="308" y="-43.2" font-family="Helvetica,sans-Serif" font-size="11.00">14 rows</text>
<polygon fill="#ffffff" stroke="transparent" points="351,-37 351,-55 392,-55 392,-37 351,-37"/>
<polygon fill="none" stroke="black" points="351,-37 351,-55 392,-55 392,-37 351,-37"/>
<text text-anchor="start" x="373" y="-43.2" font-family="Helvetica,sans-Serif" font-size="11.00">1 &gt;</text>
</a>
</g>
</g>
<!-- rf_category_hierarchies -->
<g id="node9" class="node">
<title>rf_category_hierarchies</title>
<g id="a_node9"><a xlink:href="../../tables/rf_category_hierarchies.html" xlink:title="rf_category_hierarchies" target="_top">
<polygon fill="#ffffff" stroke="transparent" points="8,-79 8,-137 179,-137 179,-79 8,-79"/>
<polygon fill="#f5f5f5" stroke="transparent" points="8.5,-115 8.5,-137 179.5,-137 179.5,-115 8.5,-115"/>
<polygon fill="none" stroke="black" points="8.5,-115 8.5,-137 179.5,-137 179.5,-115 8.5,-115"/>
<text text-anchor="start" x="13.5" y="-124.2" font-family="Helvetica,sans-Serif" font-weight="bold" font-size="11.00">rf_category_hierarchies</text>
<text text-anchor="start" x="144.5" y="-123.2" font-family="Helvetica,sans-Serif" font-size="11.00">[table]</text>
<polygon fill="none" stroke="black" points="8.5,-97 8.5,-115 179.5,-115 179.5,-97 8.5,-97"/>
<text text-anchor="start" x="11.5" y="-103.2" font-family="Helvetica,sans-Serif" font-size="11.00">...</text>
<polygon fill="#ffffff" stroke="transparent" points="8.5,-79 8.5,-97 72.5,-97 72.5,-79 8.5,-79"/>
<polygon fill="none" stroke="black" points="8.5,-79 8.5,-97 72.5,-97 72.5,-79 8.5,-79"/>
<text text-anchor="start" x="11.5" y="-85.2" font-family="Helvetica,sans-Serif" font-size="11.00"> &#160;</text>
<polygon fill="#ffffff" stroke="transparent" points="72.5,-79 72.5,-97 131.5,-97 131.5,-79 72.5,-79"/>
<polygon fill="none" stroke="black" points="72.5,-79 72.5,-97 131.5,-97 131.5,-79 72.5,-79"/>
<text text-anchor="start" x="100.5" y="-85.2" font-family="Helvetica,sans-Serif" font-size="11.00">1 row</text>
<polygon fill="#ffffff" stroke="transparent" points="131.5,-79 131.5,-97 179.5,-97 179.5,-79 131.5,-79"/>
<polygon fill="none" stroke="black" points="131.5,-79 131.5,-97 179.5,-97 179.5,-79 131.5,-79"/>
<text text-anchor="start" x="160.5" y="-85.2" font-family="Helvetica,sans-Serif" font-size="11.00">1 &gt;</text>
</a>
</g>
</g>
<!-- rf_categories&#45;&gt;rf_category_hierarchies -->
<g id="edge11" class="edge">
<title>rf_categories:w&#45;&gt;rf_category_hierarchies:e</title>
<path fill="none" stroke="black" d="M212.55,-106C202.2,-106 195.35,-106 180.5,-106"/>
<polygon fill="black" stroke="black" points="219,-106 227,-109.6 223,-106 227,-106 227,-106 227,-106 223,-106 227,-102.4 219,-106 219,-106"/>
<ellipse fill="none" stroke="black" cx="215.8" cy="-106" rx="3.2" ry="3.2"/>
</g>
<!-- rf_category_risk_factors -->
<g id="node10" class="node">
<title>rf_category_risk_factors</title>
<g id="a_node10"><a xlink:href="../../tables/rf_category_risk_factors.html" xlink:title="rf_category_risk_factors" target="_top">
<polygon fill="#ffffff" stroke="transparent" points="441,-75 441,-185 657,-185 657,-75 441,-75"/>
<polygon fill="#f5f5f5" stroke="transparent" points="443,-161 443,-183 655,-183 655,-161 443,-161"/>
<polygon fill="none" stroke="black" points="443,-161 443,-183 655,-183 655,-161 443,-161"/>
<text text-anchor="start" x="448" y="-170.2" font-family="Helvetica,sans-Serif" font-weight="bold" font-size="11.00">rf_category_risk_factors</text>
<text text-anchor="start" x="620" y="-169.2" font-family="Helvetica,sans-Serif" font-size="11.00">[table]</text>
<polygon fill="none" stroke="black" points="443,-139 443,-161 604,-161 604,-139 443,-139"/>
<image xlink:href="../../images/primaryKeys.png" width="11px" height="12px" preserveAspectRatio="xMinYMin meet" x="448" y="-156"/>
<text text-anchor="start" x="463" y="-147.2" font-family="Helvetica,sans-Serif" font-size="11.00">id</text>
<polygon fill="none" stroke="black" points="604,-139 604,-161 655,-161 655,-139 604,-139"/>
<text text-anchor="start" x="607" y="-147.2" font-family="Helvetica,sans-Serif" font-size="11.00">serial[10]</text>
<polygon fill="#ffffff" stroke="transparent" points="443,-117 443,-139 604,-139 604,-117 443,-117"/>
<polygon fill="none" stroke="black" points="443,-117 443,-139 604,-139 604,-117 443,-117"/>
<image xlink:href="../../images/foreignKeys.png" width="11px" height="12px" preserveAspectRatio="xMinYMin meet" x="448" y="-134"/>
<text text-anchor="start" x="463" y="-125.2" font-family="Helvetica,sans-Serif" font-size="11.00">rf_category_id</text>
<polygon fill="none" stroke="black" points="604,-117 604,-139 655,-139 655,-117 604,-117"/>
<text text-anchor="start" x="607" y="-125.2" font-family="Helvetica,sans-Serif" font-size="11.00">int4[10]</text>
<polygon fill="#ffffff" stroke="transparent" points="443,-95 443,-117 604,-117 604,-95 443,-95"/>
<polygon fill="none" stroke="black" points="443,-95 443,-117 604,-117 604,-95 443,-95"/>
<image xlink:href="../../images/foreignKeys.png" width="11px" height="12px" preserveAspectRatio="xMinYMin meet" x="448" y="-112"/>
<text text-anchor="start" x="463" y="-103.2" font-family="Helvetica,sans-Serif" font-size="11.00">risk_factor_id</text>
<polygon fill="none" stroke="black" points="604,-95 604,-117 655,-117 655,-95 604,-95"/>
<text text-anchor="start" x="607" y="-103.2" font-family="Helvetica,sans-Serif" font-size="11.00">int4[10]</text>
<polygon fill="#ffffff" stroke="transparent" points="443,-77 443,-95 511,-95 511,-77 443,-77"/>
<polygon fill="none" stroke="black" points="443,-77 443,-95 511,-95 511,-77 443,-77"/>
<text text-anchor="start" x="446" y="-83.2" font-family="Helvetica,sans-Serif" font-size="11.00">&lt; 2</text>
<polygon fill="#ffffff" stroke="transparent" points="511,-77 511,-95 604,-95 604,-77 511,-77"/>
<polygon fill="none" stroke="black" points="511,-77 511,-95 604,-95 604,-77 511,-77"/>
<text text-anchor="start" x="561" y="-83.2" font-family="Helvetica,sans-Serif" font-size="11.00">17 rows</text>
<polygon fill="#ffffff" stroke="transparent" points="604,-77 604,-95 655,-95 655,-77 604,-77"/>
<polygon fill="none" stroke="black" points="604,-77 604,-95 655,-95 655,-77 604,-77"/>
<text text-anchor="start" x="636" y="-83.2" font-family="Helvetica,sans-Serif" font-size="11.00">0 &gt;</text>
<polygon fill="none" stroke="black" stroke-width="2" points="442,-76 442,-184 656,-184 656,-76 442,-76"/>
</a>
</g>
</g>
<!-- rf_category_risk_factors&#45;&gt;risk_factors -->
<g id="edge13" class="edge">
<title>rf_category_risk_factors:w&#45;&gt;risk_factors:e</title>
<path fill="none" stroke="black" d="M427.69,-108.03C366.09,-127.92 446.96,-287 365,-287"/>
<polygon fill="black" stroke="black" points="434.08,-107.13 442.51,-109.56 438.04,-106.56 442,-106 442,-106 442,-106 438.04,-106.56 441.49,-102.44 434.08,-107.13 434.08,-107.13"/>
<ellipse fill="none" stroke="black" cx="430.91" cy="-107.58" rx="3.2" ry="3.2"/>
</g>
<!-- rf_category_risk_factors&#45;&gt;rf_categories -->
<g id="edge12" class="edge">
<title>rf_category_risk_factors:w&#45;&gt;rf_categories:e</title>
<path fill="none" stroke="black" d="M427.49,-128C416.18,-128 408.99,-128 393,-128"/>
<polygon fill="black" stroke="black" points="434,-128 442,-131.6 438,-128 442,-128 442,-128 442,-128 438,-128 442,-124.4 434,-128 434,-128"/>
<ellipse fill="none" stroke="black" cx="430.8" cy="-128" rx="3.2" ry="3.2"/>
</g>
</g>
</svg>
