<?xml version="1.0" encoding="UTF-8" standalone="no"?>
<!DOCTYPE svg PUBLIC "-//W3C//DTD SVG 1.1//EN"
 "http://www.w3.org/Graphics/SVG/1.1/DTD/svg11.dtd">
<!-- Generated by graphviz version 2.50.0 (20211204.2007)
 -->
<!-- Title: twoDegreesRelationshipsDiagram Pages: 1 -->
<svg width="687pt" height="173pt"
 viewBox="0.00 0.00 687.00 173.00" xmlns="http://www.w3.org/2000/svg" xmlns:xlink="http://www.w3.org/1999/xlink">
<g id="graph0" class="graph" transform="scale(1 1) rotate(0) translate(4 169)">
<title>twoDegreesRelationshipsDiagram</title>
<polygon fill="#ffffff" stroke="transparent" points="-4,4 -4,-169 683,-169 683,4 -4,4"/>
<text text-anchor="middle" x="72.5" y="-7.2" font-family="Helvetica,sans-Serif" font-size="11.00">Generated by SchemaSpy</text>
<!-- rf_categories -->
<g id="node1" class="node">
<title>rf_categories</title>
<g id="a_node1"><a xlink:href="../../tables/rf_categories.html" xlink:title="rf_categories" target="_top">
<polygon fill="#ffffff" stroke="transparent" points="285,-37 285,-161 449,-161 449,-37 285,-37"/>
<polygon fill="#f5f5f5" stroke="transparent" points="285,-139 285,-161 449,-161 449,-139 285,-139"/>
<polygon fill="none" stroke="black" points="285,-139 285,-161 449,-161 449,-139 285,-139"/>
<text text-anchor="start" x="290" y="-148.2" font-family="Helvetica,sans-Serif" font-weight="bold" font-size="11.00">rf_categories</text>
<text text-anchor="start" x="414" y="-147.2" font-family="Helvetica,sans-Serif" font-size="11.00">[table]</text>
<polygon fill="none" stroke="black" points="285,-117 285,-139 449,-139 449,-117 285,-117"/>
<image xlink:href="../../images/primaryKeys.png" width="11px" height="12px" preserveAspectRatio="xMinYMin meet" x="290" y="-134"/>
<text text-anchor="start" x="305" y="-125.2" font-family="Helvetica,sans-Serif" font-size="11.00">id</text>
<polygon fill="#ffffff" stroke="transparent" points="285,-95 285,-117 449,-117 449,-95 285,-95"/>
<polygon fill="none" stroke="black" points="285,-95 285,-117 449,-117 449,-95 285,-95"/>
<image xlink:href="../../images/foreignKeys.png" width="11px" height="12px" preserveAspectRatio="xMinYMin meet" x="290" y="-112"/>
<text text-anchor="start" x="305" y="-103.2" font-family="Helvetica,sans-Serif" font-size="11.00">rf_category_hierarchy_id</text>
<polygon fill="#ffffff" stroke="transparent" points="285,-73 285,-95 449,-95 449,-73 285,-73"/>
<polygon fill="none" stroke="black" points="285,-73 285,-95 449,-95 449,-73 285,-73"/>
<text text-anchor="start" x="305" y="-81.2" font-family="Helvetica,sans-Serif" font-size="11.00">name</text>
<polygon fill="none" stroke="black" points="285,-55 285,-73 449,-73 449,-55 285,-55"/>
<text text-anchor="start" x="288" y="-61.2" font-family="Helvetica,sans-Serif" font-size="11.00">...</text>
<polygon fill="#ffffff" stroke="transparent" points="285,-37 285,-55 344,-55 344,-37 285,-37"/>
<polygon fill="none" stroke="black" points="285,-37 285,-55 344,-55 344,-37 285,-37"/>
<text text-anchor="start" x="288" y="-43.2" font-family="Helvetica,sans-Serif" font-size="11.00">&lt; 1</text>
<polygon fill="#ffffff" stroke="transparent" points="344,-37 344,-55 408,-55 408,-37 344,-37"/>
<polygon fill="none" stroke="black" points="344,-37 344,-55 408,-55 408,-37 344,-37"/>
<text text-anchor="start" x="365" y="-43.2" font-family="Helvetica,sans-Serif" font-size="11.00">14 rows</text>
<polygon fill="#ffffff" stroke="transparent" points="408,-37 408,-55 449,-55 449,-37 408,-37"/>
<polygon fill="none" stroke="black" points="408,-37 408,-55 449,-55 449,-37 408,-37"/>
<text text-anchor="start" x="430" y="-43.2" font-family="Helvetica,sans-Serif" font-size="11.00">1 &gt;</text>
</a>
</g>
</g>
<!-- rf_category_hierarchies -->
<g id="node2" class="node">
<title>rf_category_hierarchies</title>
<g id="a_node2"><a xlink:href="../../tables/rf_category_hierarchies.html" xlink:title="rf_category_hierarchies" target="_top">
<polygon fill="#ffffff" stroke="transparent" points="8,-53 8,-141 236,-141 236,-53 8,-53"/>
<polygon fill="#f5f5f5" stroke="transparent" points="10,-117 10,-139 234,-139 234,-117 10,-117"/>
<polygon fill="none" stroke="black" points="10,-117 10,-139 234,-139 234,-117 10,-117"/>
<text text-anchor="start" x="15" y="-126.2" font-family="Helvetica,sans-Serif" font-weight="bold" font-size="11.00">rf_category_hierarchies</text>
<text text-anchor="start" x="199" y="-125.2" font-family="Helvetica,sans-Serif" font-size="11.00">[table]</text>
<polygon fill="none" stroke="black" points="10,-95 10,-117 167,-117 167,-95 10,-95"/>
<image xlink:href="../../images/primaryKeys.png" width="11px" height="12px" preserveAspectRatio="xMinYMin meet" x="15" y="-112"/>
<text text-anchor="start" x="30" y="-103.2" font-family="Helvetica,sans-Serif" font-size="11.00">id</text>
<polygon fill="none" stroke="black" points="167,-95 167,-117 234,-117 234,-95 167,-95"/>
<text text-anchor="start" x="170" y="-103.2" font-family="Helvetica,sans-Serif" font-size="11.00">serial[10]</text>
<polygon fill="#ffffff" stroke="transparent" points="10,-73 10,-95 167,-95 167,-73 10,-73"/>
<polygon fill="none" stroke="black" points="10,-73 10,-95 167,-95 167,-73 10,-73"/>
<text text-anchor="start" x="30" y="-81.2" font-family="Helvetica,sans-Serif" font-size="11.00">name</text>
<polygon fill="none" stroke="black" points="167,-73 167,-95 234,-95 234,-73 167,-73"/>
<text text-anchor="start" x="170" y="-81.2" font-family="Helvetica,sans-Serif" font-size="11.00">varchar[128]</text>
<polygon fill="#ffffff" stroke="transparent" points="10,-55 10,-73 82,-73 82,-55 10,-55"/>
<polygon fill="none" stroke="black" points="10,-55 10,-73 82,-73 82,-55 10,-55"/>
<text text-anchor="start" x="13" y="-61.2" font-family="Helvetica,sans-Serif" font-size="11.00">&lt; 0</text>
<polygon fill="#ffffff" stroke="transparent" points="82,-55 82,-73 167,-73 167,-55 82,-55"/>
<polygon fill="none" stroke="black" points="82,-55 82,-73 167,-73 167,-55 82,-55"/>
<text text-anchor="start" x="136" y="-61.2" font-family="Helvetica,sans-Serif" font-size="11.00">1 row</text>
<polygon fill="#ffffff" stroke="transparent" points="167,-55 167,-73 234,-73 234,-55 167,-55"/>
<polygon fill="none" stroke="black" points="167,-55 167,-73 234,-73 234,-55 167,-55"/>
<text text-anchor="start" x="215" y="-61.2" font-family="Helvetica,sans-Serif" font-size="11.00">1 &gt;</text>
<polygon fill="none" stroke="black" stroke-width="2" points="9,-54 9,-140 235,-140 235,-54 9,-54"/>
</a>
</g>
</g>
<!-- rf_categories&#45;&gt;rf_category_hierarchies -->
<g id="edge1" class="edge">
<title>rf_categories:w&#45;&gt;rf_category_hierarchies:e</title>
<path fill="none" stroke="black" d="M269.49,-106C258.18,-106 250.99,-106 235,-106"/>
<polygon fill="black" stroke="black" points="276,-106 284,-109.6 280,-106 284,-106 284,-106 284,-106 280,-106 284,-102.4 276,-106 276,-106"/>
<ellipse fill="none" stroke="black" cx="272.8" cy="-106" rx="3.2" ry="3.2"/>
</g>
<!-- rf_category_risk_factors -->
<g id="node3" class="node">
<title>rf_category_risk_factors</title>
<g id="a_node3"><a xlink:href="../../tables/rf_category_risk_factors.html" xlink:title="rf_category_risk_factors" target="_top">
<polygon fill="#ffffff" stroke="transparent" points="498,-101 498,-159 671,-159 671,-101 498,-101"/>
<polygon fill="#f5f5f5" stroke="transparent" points="498.5,-137 498.5,-159 671.5,-159 671.5,-137 498.5,-137"/>
<polygon fill="none" stroke="black" points="498.5,-137 498.5,-159 671.5,-159 671.5,-137 498.5,-137"/>
<text text-anchor="start" x="503.5" y="-146.2" font-family="Helvetica,sans-Serif" font-weight="bold" font-size="11.00">rf_category_risk_factors</text>
<text text-anchor="start" x="636.5" y="-145.2" font-family="Helvetica,sans-Serif" font-size="11.00">[table]</text>
<polygon fill="none" stroke="black" points="498.5,-119 498.5,-137 671.5,-137 671.5,-119 498.5,-119"/>
<text text-anchor="start" x="501.5" y="-125.2" font-family="Helvetica,sans-Serif" font-size="11.00">...</text>
<polygon fill="#ffffff" stroke="transparent" points="498.5,-101 498.5,-119 566.5,-119 566.5,-101 498.5,-101"/>
<polygon fill="none" stroke="black" points="498.5,-101 498.5,-119 566.5,-119 566.5,-101 498.5,-101"/>
<text text-anchor="start" x="501.5" y="-107.2" font-family="Helvetica,sans-Serif" font-size="11.00">&lt; 2</text>
<polygon fill="#ffffff" stroke="transparent" points="566.5,-101 566.5,-119 635.5,-119 635.5,-101 566.5,-101"/>
<polygon fill="none" stroke="black" points="566.5,-101 566.5,-119 635.5,-119 635.5,-101 566.5,-101"/>
<text text-anchor="start" x="592.5" y="-107.2" font-family="Helvetica,sans-Serif" font-size="11.00">17 rows</text>
<polygon fill="#ffffff" stroke="transparent" points="635.5,-101 635.5,-119 671.5,-119 671.5,-101 635.5,-101"/>
<polygon fill="none" stroke="black" points="635.5,-101 635.5,-119 671.5,-119 671.5,-101 635.5,-101"/>
<text text-anchor="start" x="661.5" y="-107.2" font-family="Helvetica,sans-Serif" font-size="11.00"> &#160;</text>
</a>
</g>
</g>
<!-- rf_category_risk_factors&#45;&gt;rf_categories -->
<g id="edge2" class="edge">
<title>rf_category_risk_factors:w&#45;&gt;rf_categories:e</title>
<path fill="none" stroke="black" d="M483.09,-128C472.32,-128 465.34,-128 450,-128"/>
<polygon fill="black" stroke="black" points="489.5,-128 497.5,-131.6 493.5,-128 497.5,-128 497.5,-128 497.5,-128 493.5,-128 497.5,-124.4 489.5,-128 489.5,-128"/>
<ellipse fill="none" stroke="black" cx="486.3" cy="-128" rx="3.2" ry="3.2"/>
</g>
</g>
</svg>
