<?xml version="1.0" encoding="UTF-8" standalone="no"?>
<!DOCTYPE svg PUBLIC "-//W3C//DTD SVG 1.1//EN"
 "http://www.w3.org/Graphics/SVG/1.1/DTD/svg11.dtd">
<!-- Generated by graphviz version 2.50.0 (20211204.2007)
 -->
<!-- Title: oneDegreeRelationshipsDiagram Pages: 1 -->
<svg width="903pt" height="663pt"
 viewBox="0.00 0.00 903.00 663.00" xmlns="http://www.w3.org/2000/svg" xmlns:xlink="http://www.w3.org/1999/xlink">
<g id="graph0" class="graph" transform="scale(1 1) rotate(0) translate(4 659)">
<title>oneDegreeRelationshipsDiagram</title>
<polygon fill="#ffffff" stroke="transparent" points="-4,4 -4,-659 899,-659 899,4 -4,4"/>
<text text-anchor="middle" x="72.5" y="-7.2" font-family="Helvetica,sans-Serif" font-size="11.00">Generated by SchemaSpy</text>
<!-- aggregate_impacts -->
<g id="node1" class="node">
<title>aggregate_impacts</title>
<g id="a_node1"><a xlink:href="../../tables/aggregate_impacts.html" xlink:title="aggregate_impacts" target="_top">
<polygon fill="#ffffff" stroke="transparent" points="249,-439 249,-651 394,-651 394,-439 249,-439"/>
<polygon fill="#f5f5f5" stroke="transparent" points="249.5,-629 249.5,-651 394.5,-651 394.5,-629 249.5,-629"/>
<polygon fill="none" stroke="black" points="249.5,-629 249.5,-651 394.5,-651 394.5,-629 249.5,-629"/>
<text text-anchor="start" x="254.5" y="-638.2" font-family="Helvetica,sans-Serif" font-weight="bold" font-size="11.00">aggregate_impacts</text>
<text text-anchor="start" x="359.5" y="-637.2" font-family="Helvetica,sans-Serif" font-size="11.00">[table]</text>
<polygon fill="none" stroke="black" points="249.5,-607 249.5,-629 394.5,-629 394.5,-607 249.5,-607"/>
<image xlink:href="../../images/primaryKeys.png" width="11px" height="12px" preserveAspectRatio="xMinYMin meet" x="254.5" y="-624"/>
<text text-anchor="start" x="277.5" y="-615.2" font-family="Helvetica,sans-Serif" font-size="11.00">id</text>
<polygon fill="#ffffff" stroke="transparent" points="249.5,-585 249.5,-607 394.5,-607 394.5,-585 249.5,-585"/>
<polygon fill="none" stroke="black" points="249.5,-585 249.5,-607 394.5,-607 394.5,-585 249.5,-585"/>
<text text-anchor="start" x="277.5" y="-593.2" font-family="Helvetica,sans-Serif" font-size="11.00">aggregate_level</text>
<polygon fill="#ffffff" stroke="transparent" points="249.5,-563 249.5,-585 394.5,-585 394.5,-563 249.5,-563"/>
<polygon fill="none" stroke="black" points="249.5,-563 249.5,-585 394.5,-585 394.5,-563 249.5,-563"/>
<text text-anchor="start" x="277.5" y="-571.2" font-family="Helvetica,sans-Serif" font-size="11.00">entity_id</text>
<polygon fill="#ffffff" stroke="transparent" points="249.5,-541 249.5,-563 394.5,-563 394.5,-541 249.5,-541"/>
<polygon fill="none" stroke="black" points="249.5,-541 249.5,-563 394.5,-563 394.5,-541 249.5,-541"/>
<text text-anchor="start" x="277.5" y="-549.2" font-family="Helvetica,sans-Serif" font-size="11.00">tags_hash_md5</text>
<polygon fill="#ffffff" stroke="transparent" points="249.5,-519 249.5,-541 394.5,-541 394.5,-519 249.5,-519"/>
<polygon fill="none" stroke="black" points="249.5,-519 249.5,-541 394.5,-541 394.5,-519 249.5,-519"/>
<image xlink:href="../../images/foreignKeys.png" width="11px" height="12px" preserveAspectRatio="xMinYMin meet" x="254.5" y="-536"/>
<text text-anchor="start" x="277.5" y="-527.2" font-family="Helvetica,sans-Serif" font-size="11.00">risk_factor_id</text>
<polygon fill="#ffffff" stroke="transparent" points="249.5,-497 249.5,-519 394.5,-519 394.5,-497 249.5,-497"/>
<polygon fill="none" stroke="black" points="249.5,-497 249.5,-519 394.5,-519 394.5,-497 249.5,-497"/>
<image xlink:href="../../images/foreignKeys.png" width="11px" height="12px" preserveAspectRatio="xMinYMin meet" x="254.5" y="-514"/>
<text text-anchor="start" x="277.5" y="-505.2" font-family="Helvetica,sans-Serif" font-size="11.00">scenario_id</text>
<polygon fill="#ffffff" stroke="transparent" points="249.5,-475 249.5,-497 394.5,-497 394.5,-475 249.5,-475"/>
<polygon fill="none" stroke="black" points="249.5,-475 249.5,-497 394.5,-497 394.5,-475 249.5,-475"/>
<text text-anchor="start" x="277.5" y="-483.2" font-family="Helvetica,sans-Serif" font-size="11.00">yr</text>
<polygon fill="none" stroke="black" points="249.5,-457 249.5,-475 394.5,-475 394.5,-457 249.5,-457"/>
<text text-anchor="start" x="252.5" y="-463.2" font-family="Helvetica,sans-Serif" font-size="11.00">...</text>
<polygon fill="#ffffff" stroke="transparent" points="249.5,-439 249.5,-457 285.5,-457 285.5,-439 249.5,-439"/>
<polygon fill="none" stroke="black" points="249.5,-439 249.5,-457 285.5,-457 285.5,-439 249.5,-439"/>
<text text-anchor="start" x="252.5" y="-445.2" font-family="Helvetica,sans-Serif" font-size="11.00">&lt; 2</text>
<polygon fill="#ffffff" stroke="transparent" points="285.5,-439 285.5,-457 374.5,-457 374.5,-439 285.5,-439"/>
<polygon fill="none" stroke="black" points="285.5,-439 285.5,-457 374.5,-457 374.5,-439 285.5,-439"/>
<text text-anchor="start" x="295.5" y="-445.2" font-family="Helvetica,sans-Serif" font-size="11.00">7,901,926 rows</text>
<polygon fill="#ffffff" stroke="transparent" points="374.5,-439 374.5,-457 394.5,-457 394.5,-439 374.5,-439"/>
<polygon fill="none" stroke="black" points="374.5,-439 374.5,-457 394.5,-457 394.5,-439 374.5,-439"/>
<text text-anchor="start" x="384.5" y="-445.2" font-family="Helvetica,sans-Serif" font-size="11.00"> &#160;</text>
</a>
</g>
</g>
<!-- risk_factors -->
<g id="node2" class="node">
<title>risk_factors</title>
<g id="a_node2"><a xlink:href="../../tables/risk_factors.html" xlink:title="risk_factors" target="_top">
<polygon fill="#ffffff" stroke="transparent" points="8,-102 8,-256 186,-256 186,-102 8,-102"/>
<polygon fill="#f5f5f5" stroke="transparent" points="10,-232 10,-254 184,-254 184,-232 10,-232"/>
<polygon fill="none" stroke="black" points="10,-232 10,-254 184,-254 184,-232 10,-232"/>
<text text-anchor="start" x="15" y="-241.2" font-family="Helvetica,sans-Serif" font-weight="bold" font-size="11.00">risk_factors</text>
<text text-anchor="start" x="149" y="-240.2" font-family="Helvetica,sans-Serif" font-size="11.00">[table]</text>
<polygon fill="none" stroke="black" points="10,-210 10,-232 99,-232 99,-210 10,-210"/>
<image xlink:href="../../images/primaryKeys.png" width="11px" height="12px" preserveAspectRatio="xMinYMin meet" x="15" y="-227"/>
<text text-anchor="start" x="30" y="-218.2" font-family="Helvetica,sans-Serif" font-size="11.00">id</text>
<polygon fill="none" stroke="black" points="99,-210 99,-232 184,-232 184,-210 99,-210"/>
<text text-anchor="start" x="102" y="-218.2" font-family="Helvetica,sans-Serif" font-size="11.00">int4[10]</text>
<polygon fill="#ffffff" stroke="transparent" points="10,-188 10,-210 99,-210 99,-188 10,-188"/>
<polygon fill="none" stroke="black" points="10,-188 10,-210 99,-210 99,-188 10,-188"/>
<text text-anchor="start" x="30" y="-196.2" font-family="Helvetica,sans-Serif" font-size="11.00">name</text>
<polygon fill="none" stroke="black" points="99,-188 99,-210 184,-210 184,-188 99,-188"/>
<text text-anchor="start" x="102" y="-196.2" font-family="Helvetica,sans-Serif" font-size="11.00">varchar[128]</text>
<polygon fill="none" stroke="black" points="10,-166 10,-188 99,-188 99,-166 10,-166"/>
<text text-anchor="start" x="30" y="-174.2" font-family="Helvetica,sans-Serif" font-size="11.00">descr</text>
<polygon fill="none" stroke="black" points="99,-166 99,-188 184,-188 184,-166 99,-166"/>
<text text-anchor="start" x="102" y="-174.2" font-family="Helvetica,sans-Serif" font-size="11.00">varchar[2048]</text>
<polygon fill="none" stroke="black" points="10,-144 10,-166 99,-166 99,-144 10,-144"/>
<text text-anchor="start" x="30" y="-152.2" font-family="Helvetica,sans-Serif" font-size="11.00">created_at</text>
<polygon fill="none" stroke="black" points="99,-144 99,-166 184,-166 184,-144 99,-144"/>
<text text-anchor="start" x="102" y="-152.2" font-family="Helvetica,sans-Serif" font-size="11.00">timestamp[29,6]</text>
<polygon fill="none" stroke="black" points="10,-122 10,-144 99,-144 99,-122 10,-122"/>
<text text-anchor="start" x="30" y="-130.2" font-family="Helvetica,sans-Serif" font-size="11.00">updated_at</text>
<polygon fill="none" stroke="black" points="99,-122 99,-144 184,-144 184,-122 99,-122"/>
<text text-anchor="start" x="102" y="-130.2" font-family="Helvetica,sans-Serif" font-size="11.00">timestamp[29,6]</text>
<polygon fill="#ffffff" stroke="transparent" points="10,-104 10,-122 42,-122 42,-104 10,-104"/>
<polygon fill="none" stroke="black" points="10,-104 10,-122 42,-122 42,-104 10,-104"/>
<text text-anchor="start" x="13" y="-110.2" font-family="Helvetica,sans-Serif" font-size="11.00">&lt; 0</text>
<polygon fill="#ffffff" stroke="transparent" points="42,-104 42,-122 99,-122 99,-104 42,-104"/>
<polygon fill="none" stroke="black" points="42,-104 42,-122 99,-122 99,-104 42,-104"/>
<text text-anchor="start" x="56" y="-110.2" font-family="Helvetica,sans-Serif" font-size="11.00">17 rows</text>
<polygon fill="#ffffff" stroke="transparent" points="99,-104 99,-122 184,-122 184,-104 99,-104"/>
<polygon fill="none" stroke="black" points="99,-104 99,-122 184,-122 184,-104 99,-104"/>
<text text-anchor="start" x="165" y="-110.2" font-family="Helvetica,sans-Serif" font-size="11.00">7 &gt;</text>
<polygon fill="none" stroke="black" stroke-width="2" points="9,-103 9,-255 185,-255 185,-103 9,-103"/>
</a>
</g>
</g>
<!-- aggregate_impacts&#45;&gt;risk_factors -->
<g id="edge1" class="edge">
<title>aggregate_impacts:w&#45;&gt;risk_factors:e</title>
<path fill="none" stroke="black" d="M234.91,-524.89C189.23,-484.72 249.76,-221 185,-221"/>
<polygon fill="black" stroke="black" points="241.01,-527.19 247.23,-533.37 244.76,-528.59 248.5,-530 248.5,-530 248.5,-530 244.76,-528.59 249.77,-526.63 241.01,-527.19 241.01,-527.19"/>
<ellipse fill="none" stroke="black" cx="238.02" cy="-526.06" rx="3.2" ry="3.2"/>
</g>
<!-- aggregate_risks -->
<g id="node3" class="node">
<title>aggregate_risks</title>
<g id="a_node3"><a xlink:href="../../tables/aggregate_risks.html" xlink:title="aggregate_risks" target="_top">
<polygon fill="#ffffff" stroke="transparent" points="457,-385 457,-597 634,-597 634,-385 457,-385"/>
<polygon fill="#f5f5f5" stroke="transparent" points="457.5,-575 457.5,-597 634.5,-597 634.5,-575 457.5,-575"/>
<polygon fill="none" stroke="black" points="457.5,-575 457.5,-597 634.5,-597 634.5,-575 457.5,-575"/>
<text text-anchor="start" x="462.5" y="-584.2" font-family="Helvetica,sans-Serif" font-weight="bold" font-size="11.00">aggregate_risks</text>
<text text-anchor="start" x="599.5" y="-583.2" font-family="Helvetica,sans-Serif" font-size="11.00">[table]</text>
<polygon fill="none" stroke="black" points="457.5,-553 457.5,-575 634.5,-575 634.5,-553 457.5,-553"/>
<image xlink:href="../../images/primaryKeys.png" width="11px" height="12px" preserveAspectRatio="xMinYMin meet" x="462.5" y="-570"/>
<text text-anchor="start" x="477.5" y="-561.2" font-family="Helvetica,sans-Serif" font-size="11.00">customer_id</text>
<polygon fill="none" stroke="black" points="457.5,-531 457.5,-553 634.5,-553 634.5,-531 457.5,-531"/>
<image xlink:href="../../images/primaryKeys.png" width="11px" height="12px" preserveAspectRatio="xMinYMin meet" x="462.5" y="-548"/>
<text text-anchor="start" x="477.5" y="-539.2" font-family="Helvetica,sans-Serif" font-size="11.00">entity_type</text>
<polygon fill="none" stroke="black" points="457.5,-509 457.5,-531 634.5,-531 634.5,-509 457.5,-509"/>
<image xlink:href="../../images/primaryKeys.png" width="11px" height="12px" preserveAspectRatio="xMinYMin meet" x="462.5" y="-526"/>
<text text-anchor="start" x="477.5" y="-517.2" font-family="Helvetica,sans-Serif" font-size="11.00">entity_id</text>
<polygon fill="none" stroke="black" points="457.5,-487 457.5,-509 634.5,-509 634.5,-487 457.5,-487"/>
<image xlink:href="../../images/primaryKeys.png" width="11px" height="12px" preserveAspectRatio="xMinYMin meet" x="462.5" y="-504"/>
<text text-anchor="start" x="477.5" y="-495.2" font-family="Helvetica,sans-Serif" font-size="11.00">scenario_id</text>
<polygon fill="none" stroke="black" points="457.5,-465 457.5,-487 634.5,-487 634.5,-465 457.5,-465"/>
<image xlink:href="../../images/primaryKeys.png" width="11px" height="12px" preserveAspectRatio="xMinYMin meet" x="462.5" y="-482"/>
<text text-anchor="start" x="477.5" y="-473.2" font-family="Helvetica,sans-Serif" font-size="11.00">decade</text>
<polygon fill="none" stroke="black" points="457.5,-443 457.5,-465 634.5,-465 634.5,-443 457.5,-443"/>
<image xlink:href="../../images/primaryKeys.png" width="11px" height="12px" preserveAspectRatio="xMinYMin meet" x="462.5" y="-460"/>
<text text-anchor="start" x="477.5" y="-451.2" font-family="Helvetica,sans-Serif" font-size="11.00">hazard_metric_id</text>
<polygon fill="none" stroke="black" points="457.5,-421 457.5,-443 634.5,-443 634.5,-421 457.5,-421"/>
<image xlink:href="../../images/primaryKeys.png" width="11px" height="12px" preserveAspectRatio="xMinYMin meet" x="462.5" y="-438"/>
<text text-anchor="start" x="477.5" y="-429.2" font-family="Helvetica,sans-Serif" font-size="11.00">risk_factor_id</text>
<polygon fill="none" stroke="black" points="457.5,-403 457.5,-421 634.5,-421 634.5,-403 457.5,-403"/>
<text text-anchor="start" x="460.5" y="-409.2" font-family="Helvetica,sans-Serif" font-size="11.00">...</text>
<polygon fill="#ffffff" stroke="transparent" points="457.5,-385 457.5,-403 513.5,-403 513.5,-385 457.5,-385"/>
<polygon fill="none" stroke="black" points="457.5,-385 457.5,-403 513.5,-403 513.5,-385 457.5,-385"/>
<text text-anchor="start" x="460.5" y="-391.2" font-family="Helvetica,sans-Serif" font-size="11.00">&lt; 4</text>
<polygon fill="#ffffff" stroke="transparent" points="513.5,-385 513.5,-403 603.5,-403 603.5,-385 513.5,-385"/>
<polygon fill="none" stroke="black" points="513.5,-385 513.5,-403 603.5,-403 603.5,-385 513.5,-385"/>
<text text-anchor="start" x="533.5" y="-391.2" font-family="Helvetica,sans-Serif" font-size="11.00">133,008 rows</text>
<polygon fill="#ffffff" stroke="transparent" points="603.5,-385 603.5,-403 634.5,-403 634.5,-385 603.5,-385"/>
<polygon fill="none" stroke="black" points="603.5,-385 603.5,-403 634.5,-403 634.5,-385 603.5,-385"/>
<text text-anchor="start" x="624.5" y="-391.2" font-family="Helvetica,sans-Serif" font-size="11.00"> &#160;</text>
</a>
</g>
</g>
<!-- aggregate_risks&#45;&gt;risk_factors -->
<g id="edge3" class="edge">
<title>aggregate_risks:w&#45;&gt;risk_factors:e</title>
<path fill="none" stroke="black" d="M441.92,-430.13C392.07,-414.85 469.38,-310.18 416,-262 384.55,-233.61 268.07,-247.39 227,-237 207.63,-232.1 204.98,-221 185,-221"/>
<polygon fill="black" stroke="black" points="448.57,-430.98 456.04,-435.57 452.53,-431.49 456.5,-432 456.5,-432 456.5,-432 452.53,-431.49 456.96,-428.43 448.57,-430.98 448.57,-430.98"/>
<ellipse fill="none" stroke="black" cx="445.39" cy="-430.57" rx="3.2" ry="3.2"/>
</g>
<!-- hazard_metrics -->
<g id="node4" class="node">
<title>hazard_metrics</title>
<g id="a_node4"><a xlink:href="../../tables/hazard_metrics.html" xlink:title="hazard_metrics" target="_top">
<polygon fill="#ffffff" stroke="transparent" points="244,-272 244,-418 399,-418 399,-272 244,-272"/>
<polygon fill="#f5f5f5" stroke="transparent" points="244.5,-396 244.5,-418 399.5,-418 399.5,-396 244.5,-396"/>
<polygon fill="none" stroke="black" points="244.5,-396 244.5,-418 399.5,-418 399.5,-396 244.5,-396"/>
<text text-anchor="start" x="249.5" y="-405.2" font-family="Helvetica,sans-Serif" font-weight="bold" font-size="11.00">hazard_metrics</text>
<text text-anchor="start" x="364.5" y="-404.2" font-family="Helvetica,sans-Serif" font-size="11.00">[table]</text>
<polygon fill="none" stroke="black" points="244.5,-374 244.5,-396 399.5,-396 399.5,-374 244.5,-374"/>
<image xlink:href="../../images/primaryKeys.png" width="11px" height="12px" preserveAspectRatio="xMinYMin meet" x="249.5" y="-391"/>
<text text-anchor="start" x="264.5" y="-382.2" font-family="Helvetica,sans-Serif" font-size="11.00">id</text>
<polygon fill="#ffffff" stroke="transparent" points="244.5,-352 244.5,-374 399.5,-374 399.5,-352 244.5,-352"/>
<polygon fill="none" stroke="black" points="244.5,-352 244.5,-374 399.5,-374 399.5,-352 244.5,-352"/>
<text text-anchor="start" x="264.5" y="-360.2" font-family="Helvetica,sans-Serif" font-size="11.00">name</text>
<polygon fill="#ffffff" stroke="transparent" points="244.5,-330 244.5,-352 399.5,-352 399.5,-330 244.5,-330"/>
<polygon fill="none" stroke="black" points="244.5,-330 244.5,-352 399.5,-352 399.5,-330 244.5,-330"/>
<text text-anchor="start" x="264.5" y="-338.2" font-family="Helvetica,sans-Serif" font-size="11.00">name_etl</text>
<polygon fill="none" stroke="black" points="244.5,-308 244.5,-330 399.5,-330 399.5,-308 244.5,-308"/>
<image xlink:href="../../images/foreignKeys.png" width="11px" height="12px" preserveAspectRatio="xMinYMin meet" x="249.5" y="-325"/>
<text text-anchor="start" x="264.5" y="-316.2" font-family="Helvetica,sans-Serif" font-size="11.00">risk_factor_id</text>
<polygon fill="none" stroke="black" points="244.5,-290 244.5,-308 399.5,-308 399.5,-290 244.5,-290"/>
<text text-anchor="start" x="247.5" y="-296.2" font-family="Helvetica,sans-Serif" font-size="11.00">...</text>
<polygon fill="#ffffff" stroke="transparent" points="244.5,-272 244.5,-290 298.5,-290 298.5,-272 244.5,-272"/>
<polygon fill="none" stroke="black" points="244.5,-272 244.5,-290 298.5,-290 298.5,-272 244.5,-272"/>
<text text-anchor="start" x="247.5" y="-278.2" font-family="Helvetica,sans-Serif" font-size="11.00">&lt; 1</text>
<polygon fill="#ffffff" stroke="transparent" points="298.5,-272 298.5,-290 360.5,-290 360.5,-272 298.5,-272"/>
<polygon fill="none" stroke="black" points="298.5,-272 298.5,-290 360.5,-290 360.5,-272 298.5,-272"/>
<text text-anchor="start" x="317.5" y="-278.2" font-family="Helvetica,sans-Serif" font-size="11.00">15 rows</text>
<polygon fill="#ffffff" stroke="transparent" points="360.5,-272 360.5,-290 399.5,-290 399.5,-272 360.5,-272"/>
<polygon fill="none" stroke="black" points="360.5,-272 360.5,-290 399.5,-290 399.5,-272 360.5,-272"/>
<text text-anchor="start" x="380.5" y="-278.2" font-family="Helvetica,sans-Serif" font-size="11.00">3 &gt;</text>
</a>
</g>
</g>
<!-- aggregate_risks&#45;&gt;hazard_metrics -->
<g id="edge2" class="edge">
<title>aggregate_risks:w&#45;&gt;hazard_metrics:e</title>
<path fill="none" stroke="black" d="M442.63,-449.89C422.45,-435.04 434.13,-385 400.5,-385"/>
<polygon fill="black" stroke="black" points="448.83,-451.73 455.48,-457.45 452.66,-452.86 456.5,-454 456.5,-454 456.5,-454 452.66,-452.86 457.52,-450.55 448.83,-451.73 448.83,-451.73"/>
<ellipse fill="none" stroke="black" cx="445.76" cy="-450.82" rx="3.2" ry="3.2"/>
</g>
<!-- hazard_metrics&#45;&gt;risk_factors -->
<g id="edge8" class="edge">
<title>hazard_metrics:w&#45;&gt;risk_factors:e</title>
<path fill="none" stroke="black" d="M229.22,-315.28C201.55,-297.38 229.78,-221 185,-221"/>
<polygon fill="black" stroke="black" points="235.76,-316.98 242.59,-322.48 239.63,-317.99 243.5,-319 243.5,-319 243.5,-319 239.63,-317.99 244.41,-315.52 235.76,-316.98 235.76,-316.98"/>
<ellipse fill="none" stroke="black" cx="232.66" cy="-316.17" rx="3.2" ry="3.2"/>
</g>
<!-- asset_types_impact_functions -->
<g id="node5" class="node">
<title>asset_types_impact_functions</title>
<g id="a_node5"><a xlink:href="../../tables/asset_types_impact_functions.html" xlink:title="asset_types_impact_functions" target="_top">
<polygon fill="#ffffff" stroke="transparent" points="683,-274 683,-398 887,-398 887,-274 683,-274"/>
<polygon fill="#f5f5f5" stroke="transparent" points="683,-376 683,-398 887,-398 887,-376 683,-376"/>
<polygon fill="none" stroke="black" points="683,-376 683,-398 887,-398 887,-376 683,-376"/>
<text text-anchor="start" x="688" y="-385.2" font-family="Helvetica,sans-Serif" font-weight="bold" font-size="11.00">asset_types_impact_functions</text>
<text text-anchor="start" x="852" y="-384.2" font-family="Helvetica,sans-Serif" font-size="11.00">[table]</text>
<polygon fill="none" stroke="black" points="683,-354 683,-376 887,-376 887,-354 683,-354"/>
<image xlink:href="../../images/primaryKeys.png" width="11px" height="12px" preserveAspectRatio="xMinYMin meet" x="688" y="-371"/>
<text text-anchor="start" x="708" y="-362.2" font-family="Helvetica,sans-Serif" font-size="11.00">asset_type_id</text>
<polygon fill="none" stroke="black" points="683,-332 683,-354 887,-354 887,-332 683,-332"/>
<image xlink:href="../../images/primaryKeys.png" width="11px" height="12px" preserveAspectRatio="xMinYMin meet" x="688" y="-349"/>
<text text-anchor="start" x="708" y="-340.2" font-family="Helvetica,sans-Serif" font-size="11.00">impact_function_id</text>
<polygon fill="none" stroke="black" points="683,-310 683,-332 887,-332 887,-310 683,-310"/>
<image xlink:href="../../images/foreignKeys.png" width="11px" height="12px" preserveAspectRatio="xMinYMin meet" x="688" y="-327"/>
<text text-anchor="start" x="708" y="-318.2" font-family="Helvetica,sans-Serif" font-size="11.00">risk_factor_id</text>
<polygon fill="none" stroke="black" points="683,-292 683,-310 887,-310 887,-292 683,-292"/>
<text text-anchor="start" x="686" y="-298.2" font-family="Helvetica,sans-Serif" font-size="11.00">...</text>
<polygon fill="#ffffff" stroke="transparent" points="683,-274 683,-292 763,-292 763,-274 683,-274"/>
<polygon fill="none" stroke="black" points="683,-274 683,-292 763,-292 763,-274 683,-274"/>
<text text-anchor="start" x="686" y="-280.2" font-family="Helvetica,sans-Serif" font-size="11.00">&lt; 3</text>
<polygon fill="#ffffff" stroke="transparent" points="763,-274 763,-292 844,-292 844,-274 763,-274"/>
<polygon fill="none" stroke="black" points="763,-274 763,-292 844,-292 844,-274 763,-274"/>
<text text-anchor="start" x="795" y="-280.2" font-family="Helvetica,sans-Serif" font-size="11.00">625 rows</text>
<polygon fill="#ffffff" stroke="transparent" points="844,-274 844,-292 887,-292 887,-274 844,-274"/>
<polygon fill="none" stroke="black" points="844,-274 844,-292 887,-292 887,-274 844,-274"/>
<text text-anchor="start" x="877" y="-280.2" font-family="Helvetica,sans-Serif" font-size="11.00"> &#160;</text>
</a>
</g>
</g>
<!-- asset_types_impact_functions&#45;&gt;risk_factors -->
<g id="edge5" class="edge">
<title>asset_types_impact_functions:w&#45;&gt;risk_factors:e</title>
<path fill="none" stroke="black" d="M667.83,-318.03C640.3,-303.03 680.58,-235.27 642,-208 624.35,-195.52 234.79,-215.4 227,-216 208.26,-217.45 203.8,-221 185,-221"/>
<polygon fill="black" stroke="black" points="674.17,-319.36 681.26,-324.52 678.09,-320.18 682,-321 682,-321 682,-321 678.09,-320.18 682.74,-317.48 674.17,-319.36 674.17,-319.36"/>
<ellipse fill="none" stroke="black" cx="671.04" cy="-318.7" rx="3.2" ry="3.2"/>
</g>
<!-- impact_functions -->
<g id="node6" class="node">
<title>impact_functions</title>
<g id="a_node6"><a xlink:href="../../tables/impact_functions.html" xlink:title="impact_functions" target="_top">
<polygon fill="#ffffff" stroke="transparent" points="476,-218 476,-364 615,-364 615,-218 476,-218"/>
<polygon fill="#f5f5f5" stroke="transparent" points="476.5,-342 476.5,-364 615.5,-364 615.5,-342 476.5,-342"/>
<polygon fill="none" stroke="black" points="476.5,-342 476.5,-364 615.5,-364 615.5,-342 476.5,-342"/>
<text text-anchor="start" x="481.5" y="-351.2" font-family="Helvetica,sans-Serif" font-weight="bold" font-size="11.00">impact_functions</text>
<text text-anchor="start" x="580.5" y="-350.2" font-family="Helvetica,sans-Serif" font-size="11.00">[table]</text>
<polygon fill="none" stroke="black" points="476.5,-320 476.5,-342 615.5,-342 615.5,-320 476.5,-320"/>
<image xlink:href="../../images/primaryKeys.png" width="11px" height="12px" preserveAspectRatio="xMinYMin meet" x="481.5" y="-337"/>
<text text-anchor="start" x="496.5" y="-328.2" font-family="Helvetica,sans-Serif" font-size="11.00">id</text>
<polygon fill="#ffffff" stroke="transparent" points="476.5,-298 476.5,-320 615.5,-320 615.5,-298 476.5,-298"/>
<polygon fill="none" stroke="black" points="476.5,-298 476.5,-320 615.5,-320 615.5,-298 476.5,-298"/>
<text text-anchor="start" x="496.5" y="-306.2" font-family="Helvetica,sans-Serif" font-size="11.00">name</text>
<polygon fill="none" stroke="black" points="476.5,-276 476.5,-298 615.5,-298 615.5,-276 476.5,-276"/>
<image xlink:href="../../images/foreignKeys.png" width="11px" height="12px" preserveAspectRatio="xMinYMin meet" x="481.5" y="-293"/>
<text text-anchor="start" x="496.5" y="-284.2" font-family="Helvetica,sans-Serif" font-size="11.00">hazard_metric_id</text>
<polygon fill="none" stroke="black" points="476.5,-254 476.5,-276 615.5,-276 615.5,-254 476.5,-254"/>
<image xlink:href="../../images/foreignKeys.png" width="11px" height="12px" preserveAspectRatio="xMinYMin meet" x="481.5" y="-271"/>
<text text-anchor="start" x="496.5" y="-262.2" font-family="Helvetica,sans-Serif" font-size="11.00">risk_factor_id</text>
<polygon fill="none" stroke="black" points="476.5,-236 476.5,-254 615.5,-254 615.5,-236 476.5,-236"/>
<text text-anchor="start" x="479.5" y="-242.2" font-family="Helvetica,sans-Serif" font-size="11.00">...</text>
<polygon fill="#ffffff" stroke="transparent" points="476.5,-218 476.5,-236 515.5,-236 515.5,-218 476.5,-218"/>
<polygon fill="none" stroke="black" points="476.5,-218 476.5,-236 515.5,-236 515.5,-218 476.5,-218"/>
<text text-anchor="start" x="479.5" y="-224.2" font-family="Helvetica,sans-Serif" font-size="11.00">&lt; 2</text>
<polygon fill="#ffffff" stroke="transparent" points="515.5,-218 515.5,-236 584.5,-236 584.5,-218 515.5,-218"/>
<polygon fill="none" stroke="black" points="515.5,-218 515.5,-236 584.5,-236 584.5,-218 515.5,-218"/>
<text text-anchor="start" x="526.5" y="-224.2" font-family="Helvetica,sans-Serif" font-size="11.00">3,261 rows</text>
<polygon fill="#ffffff" stroke="transparent" points="584.5,-218 584.5,-236 615.5,-236 615.5,-218 584.5,-218"/>
<polygon fill="none" stroke="black" points="584.5,-218 584.5,-236 615.5,-236 615.5,-218 584.5,-218"/>
<text text-anchor="start" x="596.5" y="-224.2" font-family="Helvetica,sans-Serif" font-size="11.00">2 &gt;</text>
</a>
</g>
</g>
<!-- asset_types_impact_functions&#45;&gt;impact_functions -->
<g id="edge4" class="edge">
<title>asset_types_impact_functions:w&#45;&gt;impact_functions:e</title>
<path fill="none" stroke="black" d="M667.5,-341.89C649.22,-338.92 640.55,-331 616.5,-331"/>
<polygon fill="black" stroke="black" points="674.02,-342.39 681.73,-346.59 678.01,-342.7 682,-343 682,-343 682,-343 678.01,-342.7 682.27,-339.41 674.02,-342.39 674.02,-342.39"/>
<ellipse fill="none" stroke="black" cx="670.83" cy="-342.15" rx="3.2" ry="3.2"/>
</g>
<!-- impact_functions&#45;&gt;risk_factors -->
<g id="edge10" class="edge">
<title>impact_functions:w&#45;&gt;risk_factors:e</title>
<path fill="none" stroke="black" d="M461.15,-262.97C444.57,-257.74 438.64,-243.78 416,-238 316.25,-212.56 287.94,-221 185,-221"/>
<polygon fill="black" stroke="black" points="467.58,-263.88 475,-268.56 471.54,-264.44 475.5,-265 475.5,-265 475.5,-265 471.54,-264.44 476,-261.44 467.58,-263.88 467.58,-263.88"/>
<ellipse fill="none" stroke="black" cx="464.41" cy="-263.43" rx="3.2" ry="3.2"/>
</g>
<!-- impact_functions&#45;&gt;hazard_metrics -->
<g id="edge9" class="edge">
<title>impact_functions:w&#45;&gt;hazard_metrics:e</title>
<path fill="none" stroke="black" d="M461.37,-289.83C426.78,-305.9 449.78,-385 400.5,-385"/>
<polygon fill="black" stroke="black" points="467.66,-288.57 476.21,-290.53 471.58,-287.78 475.5,-287 475.5,-287 475.5,-287 471.58,-287.78 474.79,-283.47 467.66,-288.57 467.66,-288.57"/>
<ellipse fill="none" stroke="black" cx="464.52" cy="-289.2" rx="3.2" ry="3.2"/>
</g>
<!-- assets_impact_functions -->
<g id="node7" class="node">
<title>assets_impact_functions</title>
<g id="a_node7"><a xlink:href="../../tables/assets_impact_functions.html" xlink:title="assets_impact_functions" target="_top">
<polygon fill="#ffffff" stroke="transparent" points="697.5,-107 697.5,-253 872.5,-253 872.5,-107 697.5,-107"/>
<polygon fill="#f5f5f5" stroke="transparent" points="698,-231 698,-253 873,-253 873,-231 698,-231"/>
<polygon fill="none" stroke="black" points="698,-231 698,-253 873,-253 873,-231 698,-231"/>
<text text-anchor="start" x="703" y="-240.2" font-family="Helvetica,sans-Serif" font-weight="bold" font-size="11.00">assets_impact_functions</text>
<text text-anchor="start" x="838" y="-239.2" font-family="Helvetica,sans-Serif" font-size="11.00">[table]</text>
<polygon fill="none" stroke="black" points="698,-209 698,-231 873,-231 873,-209 698,-209"/>
<image xlink:href="../../images/primaryKeys.png" width="11px" height="12px" preserveAspectRatio="xMinYMin meet" x="703" y="-226"/>
<text text-anchor="start" x="724" y="-217.2" font-family="Helvetica,sans-Serif" font-size="11.00">id</text>
<polygon fill="#ffffff" stroke="transparent" points="698,-187 698,-209 873,-209 873,-187 698,-187"/>
<polygon fill="none" stroke="black" points="698,-187 698,-209 873,-209 873,-187 698,-187"/>
<image xlink:href="../../images/foreignKeys.png" width="11px" height="12px" preserveAspectRatio="xMinYMin meet" x="703" y="-204"/>
<text text-anchor="start" x="724" y="-195.2" font-family="Helvetica,sans-Serif" font-size="11.00">asset_id</text>
<polygon fill="none" stroke="black" points="698,-165 698,-187 873,-187 873,-165 698,-165"/>
<image xlink:href="../../images/foreignKeys.png" width="11px" height="12px" preserveAspectRatio="xMinYMin meet" x="703" y="-182"/>
<text text-anchor="start" x="724" y="-173.2" font-family="Helvetica,sans-Serif" font-size="11.00">impact_function_id</text>
<polygon fill="#ffffff" stroke="transparent" points="698,-143 698,-165 873,-165 873,-143 698,-143"/>
<polygon fill="none" stroke="black" points="698,-143 698,-165 873,-165 873,-143 698,-143"/>
<image xlink:href="../../images/foreignKeys.png" width="11px" height="12px" preserveAspectRatio="xMinYMin meet" x="703" y="-160"/>
<text text-anchor="start" x="724" y="-151.2" font-family="Helvetica,sans-Serif" font-size="11.00">risk_factor_id</text>
<polygon fill="none" stroke="black" points="698,-125 698,-143 873,-143 873,-125 698,-125"/>
<text text-anchor="start" x="701" y="-131.2" font-family="Helvetica,sans-Serif" font-size="11.00">...</text>
<polygon fill="#ffffff" stroke="transparent" points="698,-107 698,-125 753,-125 753,-107 698,-107"/>
<polygon fill="none" stroke="black" points="698,-107 698,-125 753,-125 753,-107 698,-107"/>
<text text-anchor="start" x="701" y="-113.2" font-family="Helvetica,sans-Serif" font-size="11.00">&lt; 3</text>
<polygon fill="#ffffff" stroke="transparent" points="753,-107 753,-125 843,-125 843,-107 753,-107"/>
<polygon fill="none" stroke="black" points="753,-107 753,-125 843,-125 843,-107 753,-107"/>
<text text-anchor="start" x="773" y="-113.2" font-family="Helvetica,sans-Serif" font-size="11.00">654,369 rows</text>
<polygon fill="#ffffff" stroke="transparent" points="843,-107 843,-125 873,-125 873,-107 843,-107"/>
<polygon fill="none" stroke="black" points="843,-107 843,-125 873,-125 873,-107 843,-107"/>
<text text-anchor="start" x="863" y="-113.2" font-family="Helvetica,sans-Serif" font-size="11.00"> &#160;</text>
</a>
</g>
</g>
<!-- assets_impact_functions&#45;&gt;risk_factors -->
<g id="edge7" class="edge">
<title>assets_impact_functions:w&#45;&gt;risk_factors:e</title>
<path fill="none" stroke="black" d="M682.28,-153.95C569.06,-153.21 319.43,-145.68 227,-184 204.02,-193.53 209.88,-221 185,-221"/>
<polygon fill="black" stroke="black" points="689,-153.97 696.99,-157.6 693,-153.99 697,-154 697,-154 697,-154 693,-153.99 697.01,-150.4 689,-153.97 689,-153.97"/>
<ellipse fill="none" stroke="black" cx="685.8" cy="-153.96" rx="3.2" ry="3.2"/>
</g>
<!-- assets_impact_functions&#45;&gt;impact_functions -->
<g id="edge6" class="edge">
<title>assets_impact_functions:w&#45;&gt;impact_functions:e</title>
<path fill="none" stroke="black" d="M682.44,-178.31C629.38,-197.59 688.52,-331 616.5,-331"/>
<polygon fill="black" stroke="black" points="689.1,-177.25 697.56,-179.56 693.05,-176.63 697,-176 697,-176 697,-176 693.05,-176.63 696.44,-172.44 689.1,-177.25 689.1,-177.25"/>
<ellipse fill="none" stroke="black" cx="685.94" cy="-177.76" rx="3.2" ry="3.2"/>
</g>
<!-- rf_category_risk_factors -->
<g id="node8" class="node">
<title>rf_category_risk_factors</title>
<g id="a_node8"><a xlink:href="../../tables/rf_category_risk_factors.html" xlink:title="rf_category_risk_factors" target="_top">
<polygon fill="#ffffff" stroke="transparent" points="235,-37 235,-143 408,-143 408,-37 235,-37"/>
<polygon fill="#f5f5f5" stroke="transparent" points="235.5,-121 235.5,-143 408.5,-143 408.5,-121 235.5,-121"/>
<polygon fill="none" stroke="black" points="235.5,-121 235.5,-143 408.5,-143 408.5,-121 235.5,-121"/>
<text text-anchor="start" x="240.5" y="-130.2" font-family="Helvetica,sans-Serif" font-weight="bold" font-size="11.00">rf_category_risk_factors</text>
<text text-anchor="start" x="373.5" y="-129.2" font-family="Helvetica,sans-Serif" font-size="11.00">[table]</text>
<polygon fill="none" stroke="black" points="235.5,-99 235.5,-121 408.5,-121 408.5,-99 235.5,-99"/>
<image xlink:href="../../images/primaryKeys.png" width="11px" height="12px" preserveAspectRatio="xMinYMin meet" x="240.5" y="-116"/>
<text text-anchor="start" x="261.5" y="-107.2" font-family="Helvetica,sans-Serif" font-size="11.00">id</text>
<polygon fill="#ffffff" stroke="transparent" points="235.5,-77 235.5,-99 408.5,-99 408.5,-77 235.5,-77"/>
<polygon fill="none" stroke="black" points="235.5,-77 235.5,-99 408.5,-99 408.5,-77 235.5,-77"/>
<image xlink:href="../../images/foreignKeys.png" width="11px" height="12px" preserveAspectRatio="xMinYMin meet" x="240.5" y="-94"/>
<text text-anchor="start" x="261.5" y="-85.2" font-family="Helvetica,sans-Serif" font-size="11.00">rf_category_id</text>
<polygon fill="#ffffff" stroke="transparent" points="235.5,-55 235.5,-77 408.5,-77 408.5,-55 235.5,-55"/>
<polygon fill="none" stroke="black" points="235.5,-55 235.5,-77 408.5,-77 408.5,-55 235.5,-55"/>
<image xlink:href="../../images/foreignKeys.png" width="11px" height="12px" preserveAspectRatio="xMinYMin meet" x="240.5" y="-72"/>
<text text-anchor="start" x="261.5" y="-63.2" font-family="Helvetica,sans-Serif" font-size="11.00">risk_factor_id</text>
<polygon fill="#ffffff" stroke="transparent" points="235.5,-37 235.5,-55 303.5,-55 303.5,-37 235.5,-37"/>
<polygon fill="none" stroke="black" points="235.5,-37 235.5,-55 303.5,-55 303.5,-37 235.5,-37"/>
<text text-anchor="start" x="238.5" y="-43.2" font-family="Helvetica,sans-Serif" font-size="11.00">&lt; 2</text>
<polygon fill="#ffffff" stroke="transparent" points="303.5,-37 303.5,-55 372.5,-55 372.5,-37 303.5,-37"/>
<polygon fill="none" stroke="black" points="303.5,-37 303.5,-55 372.5,-55 372.5,-37 303.5,-37"/>
<text text-anchor="start" x="329.5" y="-43.2" font-family="Helvetica,sans-Serif" font-size="11.00">17 rows</text>
<polygon fill="#ffffff" stroke="transparent" points="372.5,-37 372.5,-55 408.5,-55 408.5,-37 372.5,-37"/>
<polygon fill="none" stroke="black" points="372.5,-37 372.5,-55 408.5,-55 408.5,-37 372.5,-37"/>
<text text-anchor="start" x="398.5" y="-43.2" font-family="Helvetica,sans-Serif" font-size="11.00"> &#160;</text>
</a>
</g>
</g>
<!-- rf_category_risk_factors&#45;&gt;risk_factors -->
<g id="edge11" class="edge">
<title>rf_category_risk_factors:w&#45;&gt;risk_factors:e</title>
<path fill="none" stroke="black" d="M220.18,-68.82C176.35,-89.83 251.53,-221 185,-221"/>
<polygon fill="black" stroke="black" points="226.65,-67.55 235.2,-69.53 230.58,-66.77 234.5,-66 234.5,-66 234.5,-66 230.58,-66.77 233.8,-62.47 226.65,-67.55 226.65,-67.55"/>
<ellipse fill="none" stroke="black" cx="223.51" cy="-68.17" rx="3.2" ry="3.2"/>
</g>
</g>
</svg>
