<?xml version="1.0" encoding="UTF-8" standalone="no"?>
<!DOCTYPE svg PUBLIC "-//W3C//DTD SVG 1.1//EN"
 "http://www.w3.org/Graphics/SVG/1.1/DTD/svg11.dtd">
<!-- Generated by graphviz version 2.50.0 (20211204.2007)
 -->
<!-- Title: oneDegreeRelationshipsDiagram Pages: 1 -->
<svg width="511pt" height="661pt"
 viewBox="0.00 0.00 511.00 661.00" xmlns="http://www.w3.org/2000/svg" xmlns:xlink="http://www.w3.org/1999/xlink">
<g id="graph0" class="graph" transform="scale(1 1) rotate(0) translate(4 657)">
<title>oneDegreeRelationshipsDiagram</title>
<polygon fill="#ffffff" stroke="transparent" points="-4,4 -4,-657 507,-657 507,4 -4,4"/>
<text text-anchor="middle" x="72.5" y="-7.2" font-family="Helvetica,sans-Serif" font-size="11.00">Generated by SchemaSpy</text>
<!-- risks -->
<g id="node1" class="node">
<title>risks</title>
<g id="a_node1"><a xlink:href="../../tables/risks.html" xlink:title="risks" target="_top">
<polygon fill="#ffffff" stroke="transparent" points="270,-88 270,-352 495,-352 495,-88 270,-88"/>
<polygon fill="#f5f5f5" stroke="transparent" points="272.5,-328 272.5,-350 493.5,-350 493.5,-328 272.5,-328"/>
<polygon fill="none" stroke="black" points="272.5,-328 272.5,-350 493.5,-350 493.5,-328 272.5,-328"/>
<text text-anchor="start" x="277.5" y="-337.2" font-family="Helvetica,sans-Serif" font-weight="bold" font-size="11.00">risks</text>
<text text-anchor="start" x="458.5" y="-336.2" font-family="Helvetica,sans-Serif" font-size="11.00">[table]</text>
<polygon fill="none" stroke="black" points="272.5,-306 272.5,-328 403.5,-328 403.5,-306 272.5,-306"/>
<image xlink:href="../../images/primaryKeys.png" width="11px" height="12px" preserveAspectRatio="xMinYMin meet" x="277.5" y="-323"/>
<text text-anchor="start" x="292.5" y="-314.2" font-family="Helvetica,sans-Serif" font-size="11.00">id</text>
<polygon fill="none" stroke="black" points="403.5,-306 403.5,-328 493.5,-328 493.5,-306 403.5,-306"/>
<text text-anchor="start" x="406.5" y="-314.2" font-family="Helvetica,sans-Serif" font-size="11.00">bigserial[19]</text>
<polygon fill="#ffffff" stroke="transparent" points="272.5,-284 272.5,-306 403.5,-306 403.5,-284 272.5,-284"/>
<polygon fill="none" stroke="black" points="272.5,-284 272.5,-306 403.5,-306 403.5,-284 272.5,-284"/>
<image xlink:href="../../images/foreignKeys.png" width="11px" height="12px" preserveAspectRatio="xMinYMin meet" x="277.5" y="-301"/>
<text text-anchor="start" x="292.5" y="-292.2" font-family="Helvetica,sans-Serif" font-size="11.00">location_id</text>
<polygon fill="none" stroke="black" points="403.5,-284 403.5,-306 493.5,-306 493.5,-284 403.5,-284"/>
<text text-anchor="start" x="406.5" y="-292.2" font-family="Helvetica,sans-Serif" font-size="11.00">int4[10]</text>
<polygon fill="#ffffff" stroke="transparent" points="272.5,-262 272.5,-284 403.5,-284 403.5,-262 272.5,-262"/>
<polygon fill="none" stroke="black" points="272.5,-262 272.5,-284 403.5,-284 403.5,-262 272.5,-262"/>
<image xlink:href="../../images/foreignKeys.png" width="11px" height="12px" preserveAspectRatio="xMinYMin meet" x="277.5" y="-279"/>
<text text-anchor="start" x="292.5" y="-270.2" font-family="Helvetica,sans-Serif" font-size="11.00">impact_pathway_id</text>
<polygon fill="none" stroke="black" points="403.5,-262 403.5,-284 493.5,-284 493.5,-262 403.5,-262"/>
<text text-anchor="start" x="406.5" y="-270.2" font-family="Helvetica,sans-Serif" font-size="11.00">int4[10]</text>
<polygon fill="#ffffff" stroke="transparent" points="272.5,-240 272.5,-262 403.5,-262 403.5,-240 272.5,-240"/>
<polygon fill="none" stroke="black" points="272.5,-240 272.5,-262 403.5,-262 403.5,-240 272.5,-240"/>
<image xlink:href="../../images/foreignKeys.png" width="11px" height="12px" preserveAspectRatio="xMinYMin meet" x="277.5" y="-257"/>
<text text-anchor="start" x="292.5" y="-248.2" font-family="Helvetica,sans-Serif" font-size="11.00">scenario_id</text>
<polygon fill="none" stroke="black" points="403.5,-240 403.5,-262 493.5,-262 493.5,-240 403.5,-240"/>
<text text-anchor="start" x="406.5" y="-248.2" font-family="Helvetica,sans-Serif" font-size="11.00">int4[10]</text>
<polygon fill="#ffffff" stroke="transparent" points="272.5,-218 272.5,-240 403.5,-240 403.5,-218 272.5,-218"/>
<polygon fill="none" stroke="black" points="272.5,-218 272.5,-240 403.5,-240 403.5,-218 272.5,-218"/>
<text text-anchor="start" x="292.5" y="-226.2" font-family="Helvetica,sans-Serif" font-size="11.00">yr</text>
<polygon fill="none" stroke="black" points="403.5,-218 403.5,-240 493.5,-240 493.5,-218 403.5,-218"/>
<text text-anchor="start" x="406.5" y="-226.2" font-family="Helvetica,sans-Serif" font-size="11.00">int4[10]</text>
<polygon fill="none" stroke="black" points="272.5,-196 272.5,-218 403.5,-218 403.5,-196 272.5,-196"/>
<text text-anchor="start" x="292.5" y="-204.2" font-family="Helvetica,sans-Serif" font-size="11.00">portion_at_risk</text>
<polygon fill="none" stroke="black" points="403.5,-196 403.5,-218 493.5,-218 493.5,-196 403.5,-196"/>
<text text-anchor="start" x="406.5" y="-204.2" font-family="Helvetica,sans-Serif" font-size="11.00">float8[17,17]</text>
<polygon fill="none" stroke="black" points="272.5,-174 272.5,-196 403.5,-196 403.5,-174 272.5,-174"/>
<text text-anchor="start" x="292.5" y="-182.2" font-family="Helvetica,sans-Serif" font-size="11.00">is_deleted</text>
<polygon fill="none" stroke="black" points="403.5,-174 403.5,-196 493.5,-196 493.5,-174 403.5,-174"/>
<text text-anchor="start" x="406.5" y="-182.2" font-family="Helvetica,sans-Serif" font-size="11.00">int4[10]</text>
<polygon fill="none" stroke="black" points="272.5,-152 272.5,-174 403.5,-174 403.5,-152 272.5,-152"/>
<text text-anchor="start" x="292.5" y="-160.2" font-family="Helvetica,sans-Serif" font-size="11.00">created_at</text>
<polygon fill="none" stroke="black" points="403.5,-152 403.5,-174 493.5,-174 493.5,-152 403.5,-152"/>
<text text-anchor="start" x="406.5" y="-160.2" font-family="Helvetica,sans-Serif" font-size="11.00">timestamp[29,6]</text>
<polygon fill="none" stroke="black" points="272.5,-130 272.5,-152 403.5,-152 403.5,-130 272.5,-130"/>
<text text-anchor="start" x="292.5" y="-138.2" font-family="Helvetica,sans-Serif" font-size="11.00">updated_at</text>
<polygon fill="none" stroke="black" points="403.5,-130 403.5,-152 493.5,-152 493.5,-130 403.5,-130"/>
<text text-anchor="start" x="406.5" y="-138.2" font-family="Helvetica,sans-Serif" font-size="11.00">timestamp[29,6]</text>
<polygon fill="none" stroke="black" points="272.5,-108 272.5,-130 403.5,-130 403.5,-108 272.5,-108"/>
<text text-anchor="start" x="292.5" y="-116.2" font-family="Helvetica,sans-Serif" font-size="11.00">batch_id</text>
<polygon fill="none" stroke="black" points="403.5,-108 403.5,-130 493.5,-130 493.5,-108 403.5,-108"/>
<text text-anchor="start" x="406.5" y="-116.2" font-family="Helvetica,sans-Serif" font-size="11.00">text[2147483647]</text>
<polygon fill="#ffffff" stroke="transparent" points="272.5,-90 272.5,-108 304.5,-108 304.5,-90 272.5,-90"/>
<polygon fill="none" stroke="black" points="272.5,-90 272.5,-108 304.5,-108 304.5,-90 272.5,-90"/>
<text text-anchor="start" x="275.5" y="-96.2" font-family="Helvetica,sans-Serif" font-size="11.00">&lt; 3</text>
<polygon fill="#ffffff" stroke="transparent" points="304.5,-90 304.5,-108 403.5,-108 403.5,-90 304.5,-90"/>
<polygon fill="none" stroke="black" points="304.5,-90 304.5,-108 403.5,-108 403.5,-90 304.5,-90"/>
<text text-anchor="start" x="318.5" y="-96.2" font-family="Helvetica,sans-Serif" font-size="11.00">28,657,312 rows</text>
<polygon fill="#ffffff" stroke="transparent" points="403.5,-90 403.5,-108 493.5,-108 493.5,-90 403.5,-90"/>
<polygon fill="none" stroke="black" points="403.5,-90 403.5,-108 493.5,-108 493.5,-90 403.5,-90"/>
<text text-anchor="start" x="474.5" y="-96.2" font-family="Helvetica,sans-Serif" font-size="11.00">0 &gt;</text>
<polygon fill="none" stroke="black" stroke-width="2" points="271,-89 271,-351 494,-351 494,-89 271,-89"/>
</a>
</g>
</g>
<!-- impact_pathways -->
<g id="node2" class="node">
<title>impact_pathways</title>
<g id="a_node2"><a xlink:href="../../tables/impact_pathways.html" xlink:title="impact_pathways" target="_top">
<polygon fill="#ffffff" stroke="transparent" points="45,-182 45,-306 184,-306 184,-182 45,-182"/>
<polygon fill="#f5f5f5" stroke="transparent" points="45.5,-284 45.5,-306 184.5,-306 184.5,-284 45.5,-284"/>
<polygon fill="none" stroke="black" points="45.5,-284 45.5,-306 184.5,-306 184.5,-284 45.5,-284"/>
<text text-anchor="start" x="50.5" y="-293.2" font-family="Helvetica,sans-Serif" font-weight="bold" font-size="11.00">impact_pathways</text>
<text text-anchor="start" x="149.5" y="-292.2" font-family="Helvetica,sans-Serif" font-size="11.00">[table]</text>
<polygon fill="none" stroke="black" points="45.5,-262 45.5,-284 184.5,-284 184.5,-262 45.5,-262"/>
<image xlink:href="../../images/primaryKeys.png" width="11px" height="12px" preserveAspectRatio="xMinYMin meet" x="50.5" y="-279"/>
<text text-anchor="start" x="65.5" y="-270.2" font-family="Helvetica,sans-Serif" font-size="11.00">id</text>
<polygon fill="#ffffff" stroke="transparent" points="45.5,-240 45.5,-262 184.5,-262 184.5,-240 45.5,-240"/>
<polygon fill="none" stroke="black" points="45.5,-240 45.5,-262 184.5,-262 184.5,-240 45.5,-240"/>
<text text-anchor="start" x="65.5" y="-248.2" font-family="Helvetica,sans-Serif" font-size="11.00">name</text>
<polygon fill="#ffffff" stroke="transparent" points="45.5,-218 45.5,-240 184.5,-240 184.5,-218 45.5,-218"/>
<polygon fill="none" stroke="black" points="45.5,-218 45.5,-240 184.5,-240 184.5,-218 45.5,-218"/>
<text text-anchor="start" x="65.5" y="-226.2" font-family="Helvetica,sans-Serif" font-size="11.00">impact_function_id</text>
<polygon fill="none" stroke="black" points="45.5,-200 45.5,-218 184.5,-218 184.5,-200 45.5,-200"/>
<text text-anchor="start" x="48.5" y="-206.2" font-family="Helvetica,sans-Serif" font-size="11.00">...</text>
<polygon fill="#ffffff" stroke="transparent" points="45.5,-182 45.5,-200 79.5,-200 79.5,-182 45.5,-182"/>
<polygon fill="none" stroke="black" points="45.5,-182 45.5,-200 79.5,-200 79.5,-182 45.5,-182"/>
<text text-anchor="start" x="48.5" y="-188.2" font-family="Helvetica,sans-Serif" font-size="11.00"> &#160;</text>
<polygon fill="#ffffff" stroke="transparent" points="79.5,-182 79.5,-200 151.5,-200 151.5,-182 79.5,-182"/>
<polygon fill="none" stroke="black" points="79.5,-182 79.5,-200 151.5,-200 151.5,-182 79.5,-182"/>
<text text-anchor="start" x="93.5" y="-188.2" font-family="Helvetica,sans-Serif" font-size="11.00">5,279 rows</text>
<polygon fill="#ffffff" stroke="transparent" points="151.5,-182 151.5,-200 184.5,-200 184.5,-182 151.5,-182"/>
<polygon fill="none" stroke="black" points="151.5,-182 151.5,-200 184.5,-200 184.5,-182 151.5,-182"/>
<text text-anchor="start" x="165.5" y="-188.2" font-family="Helvetica,sans-Serif" font-size="11.00">1 &gt;</text>
</a>
</g>
</g>
<!-- risks&#45;&gt;impact_pathways -->
<g id="edge1" class="edge">
<title>risks:w&#45;&gt;impact_pathways:e</title>
<path fill="none" stroke="black" d="M256.92,-273C230.02,-273 218.35,-273 185.5,-273"/>
<polygon fill="black" stroke="black" points="263.5,-273 271.5,-276.6 267.5,-273 271.5,-273 271.5,-273 271.5,-273 267.5,-273 271.5,-269.4 263.5,-273 263.5,-273"/>
<ellipse fill="none" stroke="black" cx="260.3" cy="-273" rx="3.2" ry="3.2"/>
</g>
<!-- locations -->
<g id="node3" class="node">
<title>locations</title>
<g id="a_node3"><a xlink:href="../../tables/locations.html" xlink:title="locations" target="_top">
<polygon fill="#ffffff" stroke="transparent" points="8,-327 8,-649 221,-649 221,-327 8,-327"/>
<polygon fill="#f5f5f5" stroke="transparent" points="8.5,-627 8.5,-649 221.5,-649 221.5,-627 8.5,-627"/>
<polygon fill="none" stroke="black" points="8.5,-627 8.5,-649 221.5,-649 221.5,-627 8.5,-627"/>
<text text-anchor="start" x="13.5" y="-636.2" font-family="Helvetica,sans-Serif" font-weight="bold" font-size="11.00">locations</text>
<text text-anchor="start" x="186.5" y="-635.2" font-family="Helvetica,sans-Serif" font-size="11.00">[table]</text>
<polygon fill="none" stroke="black" points="8.5,-605 8.5,-627 221.5,-627 221.5,-605 8.5,-605"/>
<image xlink:href="../../images/primaryKeys.png" width="11px" height="12px" preserveAspectRatio="xMinYMin meet" x="13.5" y="-622"/>
<text text-anchor="start" x="28.5" y="-613.2" font-family="Helvetica,sans-Serif" font-size="11.00">id</text>
<polygon fill="#ffffff" stroke="transparent" points="8.5,-583 8.5,-605 221.5,-605 221.5,-583 8.5,-583"/>
<polygon fill="none" stroke="black" points="8.5,-583 8.5,-605 221.5,-605 221.5,-583 8.5,-583"/>
<image xlink:href="../../images/foreignKeys.png" width="11px" height="12px" preserveAspectRatio="xMinYMin meet" x="13.5" y="-600"/>
<text text-anchor="start" x="28.5" y="-591.2" font-family="Helvetica,sans-Serif" font-size="11.00">asset_id</text>
<polygon fill="#ffffff" stroke="transparent" points="8.5,-561 8.5,-583 221.5,-583 221.5,-561 8.5,-561"/>
<polygon fill="none" stroke="black" points="8.5,-561 8.5,-583 221.5,-583 221.5,-561 8.5,-561"/>
<text text-anchor="start" x="28.5" y="-569.2" font-family="Helvetica,sans-Serif" font-size="11.00">name</text>
<polygon fill="#ffffff" stroke="transparent" points="8.5,-539 8.5,-561 221.5,-561 221.5,-539 8.5,-539"/>
<polygon fill="none" stroke="black" points="8.5,-539 8.5,-561 221.5,-561 221.5,-539 8.5,-539"/>
<text text-anchor="start" x="28.5" y="-547.2" font-family="Helvetica,sans-Serif" font-size="11.00">admin_area_level0</text>
<polygon fill="#ffffff" stroke="transparent" points="8.5,-517 8.5,-539 221.5,-539 221.5,-517 8.5,-517"/>
<polygon fill="none" stroke="black" points="8.5,-517 8.5,-539 221.5,-539 221.5,-517 8.5,-517"/>
<text text-anchor="start" x="28.5" y="-525.2" font-family="Helvetica,sans-Serif" font-size="11.00">admin_area_level1</text>
<polygon fill="#ffffff" stroke="transparent" points="8.5,-495 8.5,-517 221.5,-517 221.5,-495 8.5,-495"/>
<polygon fill="none" stroke="black" points="8.5,-495 8.5,-517 221.5,-517 221.5,-495 8.5,-495"/>
<text text-anchor="start" x="28.5" y="-503.2" font-family="Helvetica,sans-Serif" font-size="11.00">admin_area_level2</text>
<polygon fill="#ffffff" stroke="transparent" points="8.5,-473 8.5,-495 221.5,-495 221.5,-473 8.5,-473"/>
<polygon fill="none" stroke="black" points="8.5,-473 8.5,-495 221.5,-495 221.5,-473 8.5,-473"/>
<text text-anchor="start" x="28.5" y="-481.2" font-family="Helvetica,sans-Serif" font-size="11.00">proc_flag_loc_eval_risks</text>
<polygon fill="#ffffff" stroke="transparent" points="8.5,-451 8.5,-473 221.5,-473 221.5,-451 8.5,-451"/>
<polygon fill="none" stroke="black" points="8.5,-451 8.5,-473 221.5,-473 221.5,-451 8.5,-451"/>
<text text-anchor="start" x="28.5" y="-459.2" font-family="Helvetica,sans-Serif" font-size="11.00">proc_flag_loc_assign_gridded</text>
<polygon fill="#ffffff" stroke="transparent" points="8.5,-429 8.5,-451 221.5,-451 221.5,-429 8.5,-429"/>
<polygon fill="none" stroke="black" points="8.5,-429 8.5,-451 221.5,-451 221.5,-429 8.5,-429"/>
<text text-anchor="start" x="28.5" y="-437.2" font-family="Helvetica,sans-Serif" font-size="11.00">proc_flag_loc_assign_segmented</text>
<polygon fill="#ffffff" stroke="transparent" points="8.5,-407 8.5,-429 221.5,-429 221.5,-407 8.5,-407"/>
<polygon fill="none" stroke="black" points="8.5,-407 8.5,-429 221.5,-429 221.5,-407 8.5,-407"/>
<text text-anchor="start" x="28.5" y="-415.2" font-family="Helvetica,sans-Serif" font-size="11.00">proc_flag_loc_assign_point</text>
<polygon fill="#ffffff" stroke="transparent" points="8.5,-385 8.5,-407 221.5,-407 221.5,-385 8.5,-385"/>
<polygon fill="none" stroke="black" points="8.5,-385 8.5,-407 221.5,-407 221.5,-385 8.5,-385"/>
<text text-anchor="start" x="28.5" y="-393.2" font-family="Helvetica,sans-Serif" font-size="11.00">proc_flag_loc_assign_regional</text>
<polygon fill="#ffffff" stroke="transparent" points="8.5,-363 8.5,-385 221.5,-385 221.5,-363 8.5,-363"/>
<polygon fill="none" stroke="black" points="8.5,-363 8.5,-385 221.5,-385 221.5,-363 8.5,-363"/>
<image xlink:href="../../images/foreignKeys.png" width="11px" height="12px" preserveAspectRatio="xMinYMin meet" x="13.5" y="-380"/>
<text text-anchor="start" x="28.5" y="-371.2" font-family="Helvetica,sans-Serif" font-size="11.00">ref_id</text>
<polygon fill="none" stroke="black" points="8.5,-345 8.5,-363 221.5,-363 221.5,-345 8.5,-345"/>
<text text-anchor="start" x="11.5" y="-351.2" font-family="Helvetica,sans-Serif" font-size="11.00">...</text>
<polygon fill="#ffffff" stroke="transparent" points="8.5,-327 8.5,-345 81.5,-345 81.5,-327 8.5,-327"/>
<polygon fill="none" stroke="black" points="8.5,-327 8.5,-345 81.5,-345 81.5,-327 8.5,-327"/>
<text text-anchor="start" x="11.5" y="-333.2" font-family="Helvetica,sans-Serif" font-size="11.00">&lt; 2</text>
<polygon fill="#ffffff" stroke="transparent" points="81.5,-327 81.5,-345 173.5,-345 173.5,-327 81.5,-327"/>
<polygon fill="none" stroke="black" points="81.5,-327 81.5,-345 173.5,-345 173.5,-327 81.5,-327"/>
<text text-anchor="start" x="109.5" y="-333.2" font-family="Helvetica,sans-Serif" font-size="11.00">81,629 rows</text>
<polygon fill="#ffffff" stroke="transparent" points="173.5,-327 173.5,-345 221.5,-345 221.5,-327 173.5,-327"/>
<polygon fill="none" stroke="black" points="173.5,-327 173.5,-345 221.5,-345 221.5,-327 173.5,-327"/>
<text text-anchor="start" x="202.5" y="-333.2" font-family="Helvetica,sans-Serif" font-size="11.00">3 &gt;</text>
</a>
</g>
</g>
<!-- risks&#45;&gt;locations -->
<g id="edge2" class="edge">
<title>risks:w&#45;&gt;locations:e</title>
<path fill="none" stroke="black" d="M257.78,-300.3C212.89,-342.04 289.16,-616 222.5,-616"/>
<polygon fill="black" stroke="black" points="264.04,-297.88 272.8,-298.36 267.77,-296.44 271.5,-295 271.5,-295 271.5,-295 267.77,-296.44 270.2,-291.64 264.04,-297.88 264.04,-297.88"/>
<ellipse fill="none" stroke="black" cx="261.05" cy="-299.04" rx="3.2" ry="3.2"/>
</g>
<!-- scenarios -->
<g id="node4" class="node">
<title>scenarios</title>
<g id="a_node4"><a xlink:href="../../tables/scenarios.html" xlink:title="scenarios" target="_top">
<polygon fill="#ffffff" stroke="transparent" points="45,-37 45,-161 184,-161 184,-37 45,-37"/>
<polygon fill="#f5f5f5" stroke="transparent" points="45.5,-139 45.5,-161 184.5,-161 184.5,-139 45.5,-139"/>
<polygon fill="none" stroke="black" points="45.5,-139 45.5,-161 184.5,-161 184.5,-139 45.5,-139"/>
<text text-anchor="start" x="50.5" y="-148.2" font-family="Helvetica,sans-Serif" font-weight="bold" font-size="11.00">scenarios</text>
<text text-anchor="start" x="149.5" y="-147.2" font-family="Helvetica,sans-Serif" font-size="11.00">[table]</text>
<polygon fill="none" stroke="black" points="45.5,-117 45.5,-139 184.5,-139 184.5,-117 45.5,-117"/>
<image xlink:href="../../images/primaryKeys.png" width="11px" height="12px" preserveAspectRatio="xMinYMin meet" x="50.5" y="-134"/>
<text text-anchor="start" x="65.5" y="-125.2" font-family="Helvetica,sans-Serif" font-size="11.00">id</text>
<polygon fill="#ffffff" stroke="transparent" points="45.5,-95 45.5,-117 184.5,-117 184.5,-95 45.5,-95"/>
<polygon fill="none" stroke="black" points="45.5,-95 45.5,-117 184.5,-117 184.5,-95 45.5,-95"/>
<text text-anchor="start" x="65.5" y="-103.2" font-family="Helvetica,sans-Serif" font-size="11.00">name</text>
<polygon fill="#ffffff" stroke="transparent" points="45.5,-73 45.5,-95 184.5,-95 184.5,-73 45.5,-73"/>
<polygon fill="none" stroke="black" points="45.5,-73 45.5,-95 184.5,-95 184.5,-73 45.5,-73"/>
<text text-anchor="start" x="65.5" y="-81.2" font-family="Helvetica,sans-Serif" font-size="11.00">name_etl</text>
<polygon fill="none" stroke="black" points="45.5,-55 45.5,-73 184.5,-73 184.5,-55 45.5,-55"/>
<text text-anchor="start" x="48.5" y="-61.2" font-family="Helvetica,sans-Serif" font-size="11.00">...</text>
<polygon fill="#ffffff" stroke="transparent" points="45.5,-37 45.5,-55 90.5,-55 90.5,-37 45.5,-37"/>
<polygon fill="none" stroke="black" points="45.5,-37 45.5,-55 90.5,-55 90.5,-37 45.5,-37"/>
<text text-anchor="start" x="48.5" y="-43.2" font-family="Helvetica,sans-Serif" font-size="11.00"> &#160;</text>
<polygon fill="#ffffff" stroke="transparent" points="90.5,-37 90.5,-55 146.5,-55 146.5,-37 90.5,-37"/>
<polygon fill="none" stroke="black" points="90.5,-37 90.5,-55 146.5,-55 146.5,-37 90.5,-37"/>
<text text-anchor="start" x="109.5" y="-43.2" font-family="Helvetica,sans-Serif" font-size="11.00">4 rows</text>
<polygon fill="#ffffff" stroke="transparent" points="146.5,-37 146.5,-55 184.5,-55 184.5,-37 146.5,-37"/>
<polygon fill="none" stroke="black" points="146.5,-37 146.5,-55 184.5,-55 184.5,-37 146.5,-37"/>
<text text-anchor="start" x="165.5" y="-43.2" font-family="Helvetica,sans-Serif" font-size="11.00">4 &gt;</text>
</a>
</g>
</g>
<!-- risks&#45;&gt;scenarios -->
<g id="edge3" class="edge">
<title>risks:w&#45;&gt;scenarios:e</title>
<path fill="none" stroke="black" d="M257.15,-247.95C237.01,-237.04 249.09,-199.18 229,-172 212.65,-149.89 213,-128 185.5,-128"/>
<polygon fill="black" stroke="black" points="263.67,-249.34 270.75,-254.52 267.59,-250.17 271.5,-251 271.5,-251 271.5,-251 267.59,-250.17 272.25,-247.48 263.67,-249.34 263.67,-249.34"/>
<ellipse fill="none" stroke="black" cx="260.54" cy="-248.67" rx="3.2" ry="3.2"/>
</g>
</g>
</svg>
