<?xml version="1.0" encoding="UTF-8" standalone="no"?>
<!DOCTYPE svg PUBLIC "-//W3C//DTD SVG 1.1//EN"
 "http://www.w3.org/Graphics/SVG/1.1/DTD/svg11.dtd">
<!-- Generated by graphviz version 2.50.0 (20211204.2007)
 -->
<!-- Title: twoDegreesRelationshipsDiagram Pages: 1 -->
<svg width="837pt" height="891pt"
 viewBox="0.00 0.00 837.00 891.00" xmlns="http://www.w3.org/2000/svg" xmlns:xlink="http://www.w3.org/1999/xlink">
<g id="graph0" class="graph" transform="scale(1 1) rotate(0) translate(4 887)">
<title>twoDegreesRelationshipsDiagram</title>
<polygon fill="#ffffff" stroke="transparent" points="-4,4 -4,-887 833,-887 833,4 -4,4"/>
<text text-anchor="middle" x="72.5" y="-7.2" font-family="Helvetica,sans-Serif" font-size="11.00">Generated by SchemaSpy</text>
<!-- aggregate_impacts -->
<g id="node1" class="node">
<title>aggregate_impacts</title>
<g id="a_node1"><a xlink:href="../../tables/aggregate_impacts.html" xlink:title="aggregate_impacts" target="_top">
<polygon fill="#ffffff" stroke="transparent" points="636,-821 636,-879 781,-879 781,-821 636,-821"/>
<polygon fill="#f5f5f5" stroke="transparent" points="636.5,-857 636.5,-879 781.5,-879 781.5,-857 636.5,-857"/>
<polygon fill="none" stroke="black" points="636.5,-857 636.5,-879 781.5,-879 781.5,-857 636.5,-857"/>
<text text-anchor="start" x="641.5" y="-866.2" font-family="Helvetica,sans-Serif" font-weight="bold" font-size="11.00">aggregate_impacts</text>
<text text-anchor="start" x="746.5" y="-865.2" font-family="Helvetica,sans-Serif" font-size="11.00">[table]</text>
<polygon fill="none" stroke="black" points="636.5,-839 636.5,-857 781.5,-857 781.5,-839 636.5,-839"/>
<text text-anchor="start" x="639.5" y="-845.2" font-family="Helvetica,sans-Serif" font-size="11.00">...</text>
<polygon fill="#ffffff" stroke="transparent" points="636.5,-821 636.5,-839 672.5,-839 672.5,-821 636.5,-821"/>
<polygon fill="none" stroke="black" points="636.5,-821 636.5,-839 672.5,-839 672.5,-821 636.5,-821"/>
<text text-anchor="start" x="639.5" y="-827.2" font-family="Helvetica,sans-Serif" font-size="11.00">&lt; 2</text>
<polygon fill="#ffffff" stroke="transparent" points="672.5,-821 672.5,-839 761.5,-839 761.5,-821 672.5,-821"/>
<polygon fill="none" stroke="black" points="672.5,-821 672.5,-839 761.5,-839 761.5,-821 672.5,-821"/>
<text text-anchor="start" x="682.5" y="-827.2" font-family="Helvetica,sans-Serif" font-size="11.00">7,901,926 rows</text>
<polygon fill="#ffffff" stroke="transparent" points="761.5,-821 761.5,-839 781.5,-839 781.5,-821 761.5,-821"/>
<polygon fill="none" stroke="black" points="761.5,-821 761.5,-839 781.5,-839 781.5,-821 761.5,-821"/>
<text text-anchor="start" x="771.5" y="-827.2" font-family="Helvetica,sans-Serif" font-size="11.00"> &#160;</text>
</a>
</g>
</g>
<!-- scenarios -->
<g id="node2" class="node">
<title>scenarios</title>
<g id="a_node2"><a xlink:href="../../tables/scenarios.html" xlink:title="scenarios" target="_top">
<polygon fill="#ffffff" stroke="transparent" points="371,-647 371,-771 510,-771 510,-647 371,-647"/>
<polygon fill="#f5f5f5" stroke="transparent" points="371.5,-749 371.5,-771 510.5,-771 510.5,-749 371.5,-749"/>
<polygon fill="none" stroke="black" points="371.5,-749 371.5,-771 510.5,-771 510.5,-749 371.5,-749"/>
<text text-anchor="start" x="376.5" y="-758.2" font-family="Helvetica,sans-Serif" font-weight="bold" font-size="11.00">scenarios</text>
<text text-anchor="start" x="475.5" y="-757.2" font-family="Helvetica,sans-Serif" font-size="11.00">[table]</text>
<polygon fill="none" stroke="black" points="371.5,-727 371.5,-749 510.5,-749 510.5,-727 371.5,-727"/>
<image xlink:href="../../images/primaryKeys.png" width="11px" height="12px" preserveAspectRatio="xMinYMin meet" x="376.5" y="-744"/>
<text text-anchor="start" x="391.5" y="-735.2" font-family="Helvetica,sans-Serif" font-size="11.00">id</text>
<polygon fill="#ffffff" stroke="transparent" points="371.5,-705 371.5,-727 510.5,-727 510.5,-705 371.5,-705"/>
<polygon fill="none" stroke="black" points="371.5,-705 371.5,-727 510.5,-727 510.5,-705 371.5,-705"/>
<text text-anchor="start" x="391.5" y="-713.2" font-family="Helvetica,sans-Serif" font-size="11.00">name</text>
<polygon fill="#ffffff" stroke="transparent" points="371.5,-683 371.5,-705 510.5,-705 510.5,-683 371.5,-683"/>
<polygon fill="none" stroke="black" points="371.5,-683 371.5,-705 510.5,-705 510.5,-683 371.5,-683"/>
<text text-anchor="start" x="391.5" y="-691.2" font-family="Helvetica,sans-Serif" font-size="11.00">name_etl</text>
<polygon fill="none" stroke="black" points="371.5,-665 371.5,-683 510.5,-683 510.5,-665 371.5,-665"/>
<text text-anchor="start" x="374.5" y="-671.2" font-family="Helvetica,sans-Serif" font-size="11.00">...</text>
<polygon fill="#ffffff" stroke="transparent" points="371.5,-647 371.5,-665 416.5,-665 416.5,-647 371.5,-647"/>
<polygon fill="none" stroke="black" points="371.5,-647 371.5,-665 416.5,-665 416.5,-647 371.5,-647"/>
<text text-anchor="start" x="374.5" y="-653.2" font-family="Helvetica,sans-Serif" font-size="11.00"> &#160;</text>
<polygon fill="#ffffff" stroke="transparent" points="416.5,-647 416.5,-665 472.5,-665 472.5,-647 416.5,-647"/>
<polygon fill="none" stroke="black" points="416.5,-647 416.5,-665 472.5,-665 472.5,-647 416.5,-647"/>
<text text-anchor="start" x="435.5" y="-653.2" font-family="Helvetica,sans-Serif" font-size="11.00">4 rows</text>
<polygon fill="#ffffff" stroke="transparent" points="472.5,-647 472.5,-665 510.5,-665 510.5,-647 472.5,-647"/>
<polygon fill="none" stroke="black" points="472.5,-647 472.5,-665 510.5,-665 510.5,-647 472.5,-647"/>
<text text-anchor="start" x="491.5" y="-653.2" font-family="Helvetica,sans-Serif" font-size="11.00">4 &gt;</text>
</a>
</g>
</g>
<!-- aggregate_impacts&#45;&gt;scenarios -->
<g id="edge1" class="edge">
<title>aggregate_impacts:w&#45;&gt;scenarios:e</title>
<path fill="none" stroke="black" d="M620.98,-846.36C564.7,-832.68 579.85,-738 511.5,-738"/>
<polygon fill="black" stroke="black" points="627.55,-847.1 635.1,-851.58 631.53,-847.55 635.5,-848 635.5,-848 635.5,-848 631.53,-847.55 635.9,-844.42 627.55,-847.1 627.55,-847.1"/>
<ellipse fill="none" stroke="black" cx="624.37" cy="-846.74" rx="3.2" ry="3.2"/>
</g>
<!-- aggregate_risks -->
<g id="node3" class="node">
<title>aggregate_risks</title>
<g id="a_node3"><a xlink:href="../../tables/aggregate_risks.html" xlink:title="aggregate_risks" target="_top">
<polygon fill="#ffffff" stroke="transparent" points="643.5,-742 643.5,-800 773.5,-800 773.5,-742 643.5,-742"/>
<polygon fill="#f5f5f5" stroke="transparent" points="643.5,-778 643.5,-800 773.5,-800 773.5,-778 643.5,-778"/>
<polygon fill="none" stroke="black" points="643.5,-778 643.5,-800 773.5,-800 773.5,-778 643.5,-778"/>
<text text-anchor="start" x="648.5" y="-787.2" font-family="Helvetica,sans-Serif" font-weight="bold" font-size="11.00">aggregate_risks</text>
<text text-anchor="start" x="738.5" y="-786.2" font-family="Helvetica,sans-Serif" font-size="11.00">[table]</text>
<polygon fill="none" stroke="black" points="643.5,-760 643.5,-778 773.5,-778 773.5,-760 643.5,-760"/>
<text text-anchor="start" x="646.5" y="-766.2" font-family="Helvetica,sans-Serif" font-size="11.00">...</text>
<polygon fill="#ffffff" stroke="transparent" points="643.5,-742 643.5,-760 676.5,-760 676.5,-742 643.5,-742"/>
<polygon fill="none" stroke="black" points="643.5,-742 643.5,-760 676.5,-760 676.5,-742 643.5,-742"/>
<text text-anchor="start" x="646.5" y="-748.2" font-family="Helvetica,sans-Serif" font-size="11.00">&lt; 4</text>
<polygon fill="#ffffff" stroke="transparent" points="676.5,-742 676.5,-760 754.5,-760 754.5,-742 676.5,-742"/>
<polygon fill="none" stroke="black" points="676.5,-742 676.5,-760 754.5,-760 754.5,-742 676.5,-742"/>
<text text-anchor="start" x="684.5" y="-748.2" font-family="Helvetica,sans-Serif" font-size="11.00">133,008 rows</text>
<polygon fill="#ffffff" stroke="transparent" points="754.5,-742 754.5,-760 773.5,-760 773.5,-742 754.5,-742"/>
<polygon fill="none" stroke="black" points="754.5,-742 754.5,-760 773.5,-760 773.5,-742 754.5,-742"/>
<text text-anchor="start" x="763.5" y="-748.2" font-family="Helvetica,sans-Serif" font-size="11.00"> &#160;</text>
</a>
</g>
</g>
<!-- aggregate_risks&#45;&gt;scenarios -->
<g id="edge2" class="edge">
<title>aggregate_risks:w&#45;&gt;scenarios:e</title>
<path fill="none" stroke="black" d="M628.09,-768.35C580.36,-763.9 566.19,-738 511.5,-738"/>
<polygon fill="black" stroke="black" points="634.51,-768.64 642.34,-772.6 638.5,-768.82 642.5,-769 642.5,-769 642.5,-769 638.5,-768.82 642.66,-765.4 634.51,-768.64 634.51,-768.64"/>
<ellipse fill="none" stroke="black" cx="631.31" cy="-768.5" rx="3.2" ry="3.2"/>
</g>
<!-- assets -->
<g id="node4" class="node">
<title>assets</title>
<g id="a_node4"><a xlink:href="../../tables/assets.html" xlink:title="assets" target="_top">
<polygon fill="#ffffff" stroke="transparent" points="174,-235 174,-293 285,-293 285,-235 174,-235"/>
<polygon fill="#f5f5f5" stroke="transparent" points="174.5,-271 174.5,-293 285.5,-293 285.5,-271 174.5,-271"/>
<polygon fill="none" stroke="black" points="174.5,-271 174.5,-293 285.5,-293 285.5,-271 174.5,-271"/>
<text text-anchor="start" x="179.5" y="-280.2" font-family="Helvetica,sans-Serif" font-weight="bold" font-size="11.00">assets</text>
<text text-anchor="start" x="250.5" y="-279.2" font-family="Helvetica,sans-Serif" font-size="11.00">[table]</text>
<polygon fill="none" stroke="black" points="174.5,-253 174.5,-271 285.5,-271 285.5,-253 174.5,-253"/>
<text text-anchor="start" x="177.5" y="-259.2" font-family="Helvetica,sans-Serif" font-size="11.00">...</text>
<polygon fill="#ffffff" stroke="transparent" points="174.5,-235 174.5,-253 196.5,-253 196.5,-235 174.5,-235"/>
<polygon fill="none" stroke="black" points="174.5,-235 174.5,-253 196.5,-253 196.5,-235 174.5,-235"/>
<text text-anchor="start" x="177.5" y="-241.2" font-family="Helvetica,sans-Serif" font-size="11.00">&lt; 3</text>
<polygon fill="#ffffff" stroke="transparent" points="196.5,-235 196.5,-253 263.5,-253 263.5,-235 196.5,-235"/>
<polygon fill="none" stroke="black" points="196.5,-235 196.5,-253 263.5,-253 263.5,-235 196.5,-235"/>
<text text-anchor="start" x="199.5" y="-241.2" font-family="Helvetica,sans-Serif" font-size="11.00">78,452 rows</text>
<polygon fill="#ffffff" stroke="transparent" points="263.5,-235 263.5,-253 285.5,-253 285.5,-235 263.5,-235"/>
<polygon fill="none" stroke="black" points="263.5,-235 263.5,-253 285.5,-253 285.5,-235 263.5,-235"/>
<text text-anchor="start" x="266.5" y="-241.2" font-family="Helvetica,sans-Serif" font-size="11.00">4 &gt;</text>
</a>
</g>
</g>
<!-- ref_id -->
<g id="node5" class="node">
<title>ref_id</title>
<g id="a_node5"><a xlink:href="../../tables/ref_id.html" xlink:title="ref_id" target="_top">
<polygon fill="#ffffff" stroke="transparent" points="8,-125 8,-183 125,-183 125,-125 8,-125"/>
<polygon fill="#f5f5f5" stroke="transparent" points="8.5,-161 8.5,-183 125.5,-183 125.5,-161 8.5,-161"/>
<polygon fill="none" stroke="black" points="8.5,-161 8.5,-183 125.5,-183 125.5,-161 8.5,-161"/>
<text text-anchor="start" x="13.5" y="-170.2" font-family="Helvetica,sans-Serif" font-weight="bold" font-size="11.00">ref_id</text>
<text text-anchor="start" x="90.5" y="-169.2" font-family="Helvetica,sans-Serif" font-size="11.00">[table]</text>
<polygon fill="none" stroke="black" points="8.5,-143 8.5,-161 125.5,-161 125.5,-143 8.5,-143"/>
<text text-anchor="start" x="11.5" y="-149.2" font-family="Helvetica,sans-Serif" font-size="11.00">...</text>
<polygon fill="#ffffff" stroke="transparent" points="8.5,-125 8.5,-143 30.5,-143 30.5,-125 8.5,-125"/>
<polygon fill="none" stroke="black" points="8.5,-125 8.5,-143 30.5,-143 30.5,-125 8.5,-125"/>
<text text-anchor="start" x="11.5" y="-131.2" font-family="Helvetica,sans-Serif" font-size="11.00">&lt; 1</text>
<polygon fill="#ffffff" stroke="transparent" points="30.5,-125 30.5,-143 103.5,-143 103.5,-125 30.5,-125"/>
<polygon fill="none" stroke="black" points="30.5,-125 30.5,-143 103.5,-143 103.5,-125 30.5,-125"/>
<text text-anchor="start" x="33.5" y="-131.2" font-family="Helvetica,sans-Serif" font-size="11.00">140,067 rows</text>
<polygon fill="#ffffff" stroke="transparent" points="103.5,-125 103.5,-143 125.5,-143 125.5,-125 103.5,-125"/>
<polygon fill="none" stroke="black" points="103.5,-125 103.5,-143 125.5,-143 125.5,-125 103.5,-125"/>
<text text-anchor="start" x="106.5" y="-131.2" font-family="Helvetica,sans-Serif" font-size="11.00">2 &gt;</text>
</a>
</g>
</g>
<!-- assets&#45;&gt;ref_id -->
<g id="edge3" class="edge">
<title>assets:w&#45;&gt;ref_id:e</title>
<path fill="none" stroke="black" d="M162.99,-260.09C128.92,-245.48 175.51,-152 126.5,-152"/>
<polygon fill="black" stroke="black" points="173.43,-257.92 172,-265.79 170.42,-265.51 171.85,-257.64 173.43,-257.92"/>
<polyline fill="none" stroke="black" points="173.5,-262 169.56,-261.28 "/>
<ellipse fill="none" stroke="black" cx="166.42" cy="-260.71" rx="3.2" ry="3.2"/>
</g>
<!-- decadal_states -->
<g id="node6" class="node">
<title>decadal_states</title>
<g id="a_node6"><a xlink:href="../../tables/decadal_states.html" xlink:title="decadal_states" target="_top">
<polygon fill="#ffffff" stroke="transparent" points="646.5,-663 646.5,-721 770.5,-721 770.5,-663 646.5,-663"/>
<polygon fill="#f5f5f5" stroke="transparent" points="646.5,-699 646.5,-721 770.5,-721 770.5,-699 646.5,-699"/>
<polygon fill="none" stroke="black" points="646.5,-699 646.5,-721 770.5,-721 770.5,-699 646.5,-699"/>
<text text-anchor="start" x="651.5" y="-708.2" font-family="Helvetica,sans-Serif" font-weight="bold" font-size="11.00">decadal_states</text>
<text text-anchor="start" x="735.5" y="-707.2" font-family="Helvetica,sans-Serif" font-size="11.00">[table]</text>
<polygon fill="none" stroke="black" points="646.5,-681 646.5,-699 770.5,-699 770.5,-681 646.5,-681"/>
<text text-anchor="start" x="649.5" y="-687.2" font-family="Helvetica,sans-Serif" font-size="11.00">...</text>
<polygon fill="#ffffff" stroke="transparent" points="646.5,-663 646.5,-681 671.5,-681 671.5,-663 646.5,-663"/>
<polygon fill="none" stroke="black" points="646.5,-663 646.5,-681 671.5,-681 671.5,-663 646.5,-663"/>
<text text-anchor="start" x="649.5" y="-669.2" font-family="Helvetica,sans-Serif" font-size="11.00">&lt; 3</text>
<polygon fill="#ffffff" stroke="transparent" points="671.5,-663 671.5,-681 755.5,-681 755.5,-663 671.5,-663"/>
<polygon fill="none" stroke="black" points="671.5,-663 671.5,-681 755.5,-681 755.5,-663 671.5,-663"/>
<text text-anchor="start" x="676.5" y="-669.2" font-family="Helvetica,sans-Serif" font-size="11.00">7,749,532 rows</text>
<polygon fill="#ffffff" stroke="transparent" points="755.5,-663 755.5,-681 770.5,-681 770.5,-663 755.5,-663"/>
<polygon fill="none" stroke="black" points="755.5,-663 755.5,-681 770.5,-681 770.5,-663 755.5,-663"/>
<text text-anchor="start" x="760.5" y="-669.2" font-family="Helvetica,sans-Serif" font-size="11.00"> &#160;</text>
</a>
</g>
</g>
<!-- decadal_states&#45;&gt;scenarios -->
<g id="edge4" class="edge">
<title>decadal_states:w&#45;&gt;scenarios:e</title>
<path fill="none" stroke="black" d="M631,-690.92C580.64,-697.55 569.57,-738 511.5,-738"/>
<polygon fill="black" stroke="black" points="637.52,-690.5 645.73,-693.59 641.51,-690.25 645.5,-690 645.5,-690 645.5,-690 641.51,-690.25 645.27,-686.41 637.52,-690.5 637.52,-690.5"/>
<ellipse fill="none" stroke="black" cx="634.32" cy="-690.71" rx="3.2" ry="3.2"/>
</g>
<!-- loc_grid_squares -->
<g id="node7" class="node">
<title>loc_grid_squares</title>
<g id="a_node7"><a xlink:href="../../tables/loc_grid_squares.html" xlink:title="loc_grid_squares" target="_top">
<polygon fill="#ffffff" stroke="transparent" points="640.5,-299 640.5,-357 776.5,-357 776.5,-299 640.5,-299"/>
<polygon fill="#f5f5f5" stroke="transparent" points="640.5,-335 640.5,-357 776.5,-357 776.5,-335 640.5,-335"/>
<polygon fill="none" stroke="black" points="640.5,-335 640.5,-357 776.5,-357 776.5,-335 640.5,-335"/>
<text text-anchor="start" x="645.5" y="-344.2" font-family="Helvetica,sans-Serif" font-weight="bold" font-size="11.00">loc_grid_squares</text>
<text text-anchor="start" x="741.5" y="-343.2" font-family="Helvetica,sans-Serif" font-size="11.00">[table]</text>
<polygon fill="none" stroke="black" points="640.5,-317 640.5,-335 776.5,-335 776.5,-317 640.5,-317"/>
<text text-anchor="start" x="643.5" y="-323.2" font-family="Helvetica,sans-Serif" font-size="11.00">...</text>
<polygon fill="#ffffff" stroke="transparent" points="640.5,-299 640.5,-317 679.5,-317 679.5,-299 640.5,-299"/>
<polygon fill="none" stroke="black" points="640.5,-299 640.5,-317 679.5,-317 679.5,-299 640.5,-299"/>
<text text-anchor="start" x="643.5" y="-305.2" font-family="Helvetica,sans-Serif" font-size="11.00">&lt; 2</text>
<polygon fill="#ffffff" stroke="transparent" points="679.5,-299 679.5,-317 754.5,-317 754.5,-299 679.5,-299"/>
<polygon fill="none" stroke="black" points="679.5,-299 679.5,-317 754.5,-317 754.5,-299 679.5,-299"/>
<text text-anchor="start" x="690.5" y="-305.2" font-family="Helvetica,sans-Serif" font-size="11.00">81,221 rows</text>
<polygon fill="#ffffff" stroke="transparent" points="754.5,-299 754.5,-317 776.5,-317 776.5,-299 754.5,-299"/>
<polygon fill="none" stroke="black" points="754.5,-299 754.5,-317 776.5,-317 776.5,-299 754.5,-299"/>
<text text-anchor="start" x="766.5" y="-305.2" font-family="Helvetica,sans-Serif" font-size="11.00"> &#160;</text>
</a>
</g>
</g>
<!-- locations -->
<g id="node8" class="node">
<title>locations</title>
<g id="a_node8"><a xlink:href="../../tables/locations.html" xlink:title="locations" target="_top">
<polygon fill="#ffffff" stroke="transparent" points="334,-37 334,-359 547,-359 547,-37 334,-37"/>
<polygon fill="#f5f5f5" stroke="transparent" points="334.5,-337 334.5,-359 547.5,-359 547.5,-337 334.5,-337"/>
<polygon fill="none" stroke="black" points="334.5,-337 334.5,-359 547.5,-359 547.5,-337 334.5,-337"/>
<text text-anchor="start" x="339.5" y="-346.2" font-family="Helvetica,sans-Serif" font-weight="bold" font-size="11.00">locations</text>
<text text-anchor="start" x="512.5" y="-345.2" font-family="Helvetica,sans-Serif" font-size="11.00">[table]</text>
<polygon fill="none" stroke="black" points="334.5,-315 334.5,-337 547.5,-337 547.5,-315 334.5,-315"/>
<image xlink:href="../../images/primaryKeys.png" width="11px" height="12px" preserveAspectRatio="xMinYMin meet" x="339.5" y="-332"/>
<text text-anchor="start" x="354.5" y="-323.2" font-family="Helvetica,sans-Serif" font-size="11.00">id</text>
<polygon fill="#ffffff" stroke="transparent" points="334.5,-293 334.5,-315 547.5,-315 547.5,-293 334.5,-293"/>
<polygon fill="none" stroke="black" points="334.5,-293 334.5,-315 547.5,-315 547.5,-293 334.5,-293"/>
<image xlink:href="../../images/foreignKeys.png" width="11px" height="12px" preserveAspectRatio="xMinYMin meet" x="339.5" y="-310"/>
<text text-anchor="start" x="354.5" y="-301.2" font-family="Helvetica,sans-Serif" font-size="11.00">asset_id</text>
<polygon fill="#ffffff" stroke="transparent" points="334.5,-271 334.5,-293 547.5,-293 547.5,-271 334.5,-271"/>
<polygon fill="none" stroke="black" points="334.5,-271 334.5,-293 547.5,-293 547.5,-271 334.5,-271"/>
<text text-anchor="start" x="354.5" y="-279.2" font-family="Helvetica,sans-Serif" font-size="11.00">name</text>
<polygon fill="#ffffff" stroke="transparent" points="334.5,-249 334.5,-271 547.5,-271 547.5,-249 334.5,-249"/>
<polygon fill="none" stroke="black" points="334.5,-249 334.5,-271 547.5,-271 547.5,-249 334.5,-249"/>
<text text-anchor="start" x="354.5" y="-257.2" font-family="Helvetica,sans-Serif" font-size="11.00">admin_area_level0</text>
<polygon fill="#ffffff" stroke="transparent" points="334.5,-227 334.5,-249 547.5,-249 547.5,-227 334.5,-227"/>
<polygon fill="none" stroke="black" points="334.5,-227 334.5,-249 547.5,-249 547.5,-227 334.5,-227"/>
<text text-anchor="start" x="354.5" y="-235.2" font-family="Helvetica,sans-Serif" font-size="11.00">admin_area_level1</text>
<polygon fill="#ffffff" stroke="transparent" points="334.5,-205 334.5,-227 547.5,-227 547.5,-205 334.5,-205"/>
<polygon fill="none" stroke="black" points="334.5,-205 334.5,-227 547.5,-227 547.5,-205 334.5,-205"/>
<text text-anchor="start" x="354.5" y="-213.2" font-family="Helvetica,sans-Serif" font-size="11.00">admin_area_level2</text>
<polygon fill="#ffffff" stroke="transparent" points="334.5,-183 334.5,-205 547.5,-205 547.5,-183 334.5,-183"/>
<polygon fill="none" stroke="black" points="334.5,-183 334.5,-205 547.5,-205 547.5,-183 334.5,-183"/>
<text text-anchor="start" x="354.5" y="-191.2" font-family="Helvetica,sans-Serif" font-size="11.00">proc_flag_loc_eval_risks</text>
<polygon fill="#ffffff" stroke="transparent" points="334.5,-161 334.5,-183 547.5,-183 547.5,-161 334.5,-161"/>
<polygon fill="none" stroke="black" points="334.5,-161 334.5,-183 547.5,-183 547.5,-161 334.5,-161"/>
<text text-anchor="start" x="354.5" y="-169.2" font-family="Helvetica,sans-Serif" font-size="11.00">proc_flag_loc_assign_gridded</text>
<polygon fill="#ffffff" stroke="transparent" points="334.5,-139 334.5,-161 547.5,-161 547.5,-139 334.5,-139"/>
<polygon fill="none" stroke="black" points="334.5,-139 334.5,-161 547.5,-161 547.5,-139 334.5,-139"/>
<text text-anchor="start" x="354.5" y="-147.2" font-family="Helvetica,sans-Serif" font-size="11.00">proc_flag_loc_assign_segmented</text>
<polygon fill="#ffffff" stroke="transparent" points="334.5,-117 334.5,-139 547.5,-139 547.5,-117 334.5,-117"/>
<polygon fill="none" stroke="black" points="334.5,-117 334.5,-139 547.5,-139 547.5,-117 334.5,-117"/>
<text text-anchor="start" x="354.5" y="-125.2" font-family="Helvetica,sans-Serif" font-size="11.00">proc_flag_loc_assign_point</text>
<polygon fill="#ffffff" stroke="transparent" points="334.5,-95 334.5,-117 547.5,-117 547.5,-95 334.5,-95"/>
<polygon fill="none" stroke="black" points="334.5,-95 334.5,-117 547.5,-117 547.5,-95 334.5,-95"/>
<text text-anchor="start" x="354.5" y="-103.2" font-family="Helvetica,sans-Serif" font-size="11.00">proc_flag_loc_assign_regional</text>
<polygon fill="#ffffff" stroke="transparent" points="334.5,-73 334.5,-95 547.5,-95 547.5,-73 334.5,-73"/>
<polygon fill="none" stroke="black" points="334.5,-73 334.5,-95 547.5,-95 547.5,-73 334.5,-73"/>
<image xlink:href="../../images/foreignKeys.png" width="11px" height="12px" preserveAspectRatio="xMinYMin meet" x="339.5" y="-90"/>
<text text-anchor="start" x="354.5" y="-81.2" font-family="Helvetica,sans-Serif" font-size="11.00">ref_id</text>
<polygon fill="none" stroke="black" points="334.5,-55 334.5,-73 547.5,-73 547.5,-55 334.5,-55"/>
<text text-anchor="start" x="337.5" y="-61.2" font-family="Helvetica,sans-Serif" font-size="11.00">...</text>
<polygon fill="#ffffff" stroke="transparent" points="334.5,-37 334.5,-55 407.5,-55 407.5,-37 334.5,-37"/>
<polygon fill="none" stroke="black" points="334.5,-37 334.5,-55 407.5,-55 407.5,-37 334.5,-37"/>
<text text-anchor="start" x="337.5" y="-43.2" font-family="Helvetica,sans-Serif" font-size="11.00">&lt; 2</text>
<polygon fill="#ffffff" stroke="transparent" points="407.5,-37 407.5,-55 499.5,-55 499.5,-37 407.5,-37"/>
<polygon fill="none" stroke="black" points="407.5,-37 407.5,-55 499.5,-55 499.5,-37 407.5,-37"/>
<text text-anchor="start" x="435.5" y="-43.2" font-family="Helvetica,sans-Serif" font-size="11.00">81,629 rows</text>
<polygon fill="#ffffff" stroke="transparent" points="499.5,-37 499.5,-55 547.5,-55 547.5,-37 499.5,-37"/>
<polygon fill="none" stroke="black" points="499.5,-37 499.5,-55 547.5,-55 547.5,-37 499.5,-37"/>
<text text-anchor="start" x="528.5" y="-43.2" font-family="Helvetica,sans-Serif" font-size="11.00">3 &gt;</text>
</a>
</g>
</g>
<!-- loc_grid_squares&#45;&gt;locations -->
<g id="edge5" class="edge">
<title>loc_grid_squares:w&#45;&gt;locations:e</title>
<path fill="none" stroke="black" d="M624.85,-326C595.83,-326 583.57,-326 548.5,-326"/>
<polygon fill="black" stroke="black" points="631.5,-326 639.5,-329.6 635.5,-326 639.5,-326 639.5,-326 639.5,-326 635.5,-326 639.5,-322.4 631.5,-326 631.5,-326"/>
<ellipse fill="none" stroke="black" cx="628.3" cy="-326" rx="3.2" ry="3.2"/>
</g>
<!-- locations&#45;&gt;assets -->
<g id="edge7" class="edge">
<title>locations:w&#45;&gt;assets:e</title>
<path fill="none" stroke="black" d="M319.66,-298.85C307.66,-287.63 308.39,-262 286.5,-262"/>
<polygon fill="black" stroke="black" points="326,-301.21 332.24,-307.37 329.75,-302.61 333.5,-304 333.5,-304 333.5,-304 329.75,-302.61 334.76,-300.63 326,-301.21 326,-301.21"/>
<ellipse fill="none" stroke="black" cx="323" cy="-300.09" rx="3.2" ry="3.2"/>
</g>
<!-- locations&#45;&gt;ref_id -->
<g id="edge8" class="edge">
<title>locations:w&#45;&gt;ref_id:e</title>
<path fill="none" stroke="black" d="M318.85,-84.55C235.03,-90.98 218.23,-152 126.5,-152"/>
<polygon fill="black" stroke="black" points="325.51,-84.3 333.63,-87.6 329.5,-84.15 333.5,-84 333.5,-84 333.5,-84 329.5,-84.15 333.37,-80.4 325.51,-84.3 325.51,-84.3"/>
<ellipse fill="none" stroke="black" cx="322.31" cy="-84.42" rx="3.2" ry="3.2"/>
</g>
<!-- loc_regions -->
<g id="node9" class="node">
<title>loc_regions</title>
<g id="a_node9"><a xlink:href="../../tables/loc_regions.html" xlink:title="loc_regions" target="_top">
<polygon fill="#ffffff" stroke="transparent" points="655,-220 655,-278 762,-278 762,-220 655,-220"/>
<polygon fill="#f5f5f5" stroke="transparent" points="655.5,-256 655.5,-278 762.5,-278 762.5,-256 655.5,-256"/>
<polygon fill="none" stroke="black" points="655.5,-256 655.5,-278 762.5,-278 762.5,-256 655.5,-256"/>
<text text-anchor="start" x="660.5" y="-265.2" font-family="Helvetica,sans-Serif" font-weight="bold" font-size="11.00">loc_regions</text>
<text text-anchor="start" x="727.5" y="-264.2" font-family="Helvetica,sans-Serif" font-size="11.00">[table]</text>
<polygon fill="none" stroke="black" points="655.5,-238 655.5,-256 762.5,-256 762.5,-238 655.5,-238"/>
<text text-anchor="start" x="658.5" y="-244.2" font-family="Helvetica,sans-Serif" font-size="11.00">...</text>
<polygon fill="#ffffff" stroke="transparent" points="655.5,-220 655.5,-238 679.5,-238 679.5,-220 655.5,-220"/>
<polygon fill="none" stroke="black" points="655.5,-220 655.5,-238 679.5,-238 679.5,-220 655.5,-220"/>
<text text-anchor="start" x="658.5" y="-226.2" font-family="Helvetica,sans-Serif" font-size="11.00">&lt; 2</text>
<polygon fill="#ffffff" stroke="transparent" points="679.5,-220 679.5,-238 747.5,-238 747.5,-220 679.5,-220"/>
<polygon fill="none" stroke="black" points="679.5,-220 679.5,-238 747.5,-238 747.5,-220 679.5,-220"/>
<text text-anchor="start" x="683.5" y="-226.2" font-family="Helvetica,sans-Serif" font-size="11.00">79,140 rows</text>
<polygon fill="#ffffff" stroke="transparent" points="747.5,-220 747.5,-238 762.5,-238 762.5,-220 747.5,-220"/>
<polygon fill="none" stroke="black" points="747.5,-220 747.5,-238 762.5,-238 762.5,-220 747.5,-220"/>
<text text-anchor="start" x="752.5" y="-226.2" font-family="Helvetica,sans-Serif" font-size="11.00"> &#160;</text>
</a>
</g>
</g>
<!-- loc_regions&#45;&gt;locations -->
<g id="edge6" class="edge">
<title>loc_regions:w&#45;&gt;locations:e</title>
<path fill="none" stroke="black" d="M643.79,-247.73C618.5,-251.49 612.34,-269.14 588,-288 568.74,-302.92 572.86,-326 548.5,-326"/>
<polygon fill="black" stroke="black" points="653.43,-243.06 653.98,-251.05 652.38,-251.15 651.83,-243.17 653.43,-243.06"/>
<polyline fill="none" stroke="black" points="654.5,-247 650.51,-247.27 "/>
<ellipse fill="none" stroke="black" cx="647.32" cy="-247.49" rx="3.2" ry="3.2"/>
</g>
<!-- risks -->
<g id="node10" class="node">
<title>risks</title>
<g id="a_node10"><a xlink:href="../../tables/risks.html" xlink:title="risks" target="_top">
<polygon fill="#ffffff" stroke="transparent" points="596,-378 596,-642 821,-642 821,-378 596,-378"/>
<polygon fill="#f5f5f5" stroke="transparent" points="598.5,-618 598.5,-640 819.5,-640 819.5,-618 598.5,-618"/>
<polygon fill="none" stroke="black" points="598.5,-618 598.5,-640 819.5,-640 819.5,-618 598.5,-618"/>
<text text-anchor="start" x="603.5" y="-627.2" font-family="Helvetica,sans-Serif" font-weight="bold" font-size="11.00">risks</text>
<text text-anchor="start" x="784.5" y="-626.2" font-family="Helvetica,sans-Serif" font-size="11.00">[table]</text>
<polygon fill="none" stroke="black" points="598.5,-596 598.5,-618 729.5,-618 729.5,-596 598.5,-596"/>
<image xlink:href="../../images/primaryKeys.png" width="11px" height="12px" preserveAspectRatio="xMinYMin meet" x="603.5" y="-613"/>
<text text-anchor="start" x="618.5" y="-604.2" font-family="Helvetica,sans-Serif" font-size="11.00">id</text>
<polygon fill="none" stroke="black" points="729.5,-596 729.5,-618 819.5,-618 819.5,-596 729.5,-596"/>
<text text-anchor="start" x="732.5" y="-604.2" font-family="Helvetica,sans-Serif" font-size="11.00">bigserial[19]</text>
<polygon fill="#ffffff" stroke="transparent" points="598.5,-574 598.5,-596 729.5,-596 729.5,-574 598.5,-574"/>
<polygon fill="none" stroke="black" points="598.5,-574 598.5,-596 729.5,-596 729.5,-574 598.5,-574"/>
<image xlink:href="../../images/foreignKeys.png" width="11px" height="12px" preserveAspectRatio="xMinYMin meet" x="603.5" y="-591"/>
<text text-anchor="start" x="618.5" y="-582.2" font-family="Helvetica,sans-Serif" font-size="11.00">location_id</text>
<polygon fill="none" stroke="black" points="729.5,-574 729.5,-596 819.5,-596 819.5,-574 729.5,-574"/>
<text text-anchor="start" x="732.5" y="-582.2" font-family="Helvetica,sans-Serif" font-size="11.00">int4[10]</text>
<polygon fill="#ffffff" stroke="transparent" points="598.5,-552 598.5,-574 729.5,-574 729.5,-552 598.5,-552"/>
<polygon fill="none" stroke="black" points="598.5,-552 598.5,-574 729.5,-574 729.5,-552 598.5,-552"/>
<image xlink:href="../../images/foreignKeys.png" width="11px" height="12px" preserveAspectRatio="xMinYMin meet" x="603.5" y="-569"/>
<text text-anchor="start" x="618.5" y="-560.2" font-family="Helvetica,sans-Serif" font-size="11.00">impact_pathway_id</text>
<polygon fill="none" stroke="black" points="729.5,-552 729.5,-574 819.5,-574 819.5,-552 729.5,-552"/>
<text text-anchor="start" x="732.5" y="-560.2" font-family="Helvetica,sans-Serif" font-size="11.00">int4[10]</text>
<polygon fill="#ffffff" stroke="transparent" points="598.5,-530 598.5,-552 729.5,-552 729.5,-530 598.5,-530"/>
<polygon fill="none" stroke="black" points="598.5,-530 598.5,-552 729.5,-552 729.5,-530 598.5,-530"/>
<image xlink:href="../../images/foreignKeys.png" width="11px" height="12px" preserveAspectRatio="xMinYMin meet" x="603.5" y="-547"/>
<text text-anchor="start" x="618.5" y="-538.2" font-family="Helvetica,sans-Serif" font-size="11.00">scenario_id</text>
<polygon fill="none" stroke="black" points="729.5,-530 729.5,-552 819.5,-552 819.5,-530 729.5,-530"/>
<text text-anchor="start" x="732.5" y="-538.2" font-family="Helvetica,sans-Serif" font-size="11.00">int4[10]</text>
<polygon fill="#ffffff" stroke="transparent" points="598.5,-508 598.5,-530 729.5,-530 729.5,-508 598.5,-508"/>
<polygon fill="none" stroke="black" points="598.5,-508 598.5,-530 729.5,-530 729.5,-508 598.5,-508"/>
<text text-anchor="start" x="618.5" y="-516.2" font-family="Helvetica,sans-Serif" font-size="11.00">yr</text>
<polygon fill="none" stroke="black" points="729.5,-508 729.5,-530 819.5,-530 819.5,-508 729.5,-508"/>
<text text-anchor="start" x="732.5" y="-516.2" font-family="Helvetica,sans-Serif" font-size="11.00">int4[10]</text>
<polygon fill="none" stroke="black" points="598.5,-486 598.5,-508 729.5,-508 729.5,-486 598.5,-486"/>
<text text-anchor="start" x="618.5" y="-494.2" font-family="Helvetica,sans-Serif" font-size="11.00">portion_at_risk</text>
<polygon fill="none" stroke="black" points="729.5,-486 729.5,-508 819.5,-508 819.5,-486 729.5,-486"/>
<text text-anchor="start" x="732.5" y="-494.2" font-family="Helvetica,sans-Serif" font-size="11.00">float8[17,17]</text>
<polygon fill="none" stroke="black" points="598.5,-464 598.5,-486 729.5,-486 729.5,-464 598.5,-464"/>
<text text-anchor="start" x="618.5" y="-472.2" font-family="Helvetica,sans-Serif" font-size="11.00">is_deleted</text>
<polygon fill="none" stroke="black" points="729.5,-464 729.5,-486 819.5,-486 819.5,-464 729.5,-464"/>
<text text-anchor="start" x="732.5" y="-472.2" font-family="Helvetica,sans-Serif" font-size="11.00">int4[10]</text>
<polygon fill="none" stroke="black" points="598.5,-442 598.5,-464 729.5,-464 729.5,-442 598.5,-442"/>
<text text-anchor="start" x="618.5" y="-450.2" font-family="Helvetica,sans-Serif" font-size="11.00">created_at</text>
<polygon fill="none" stroke="black" points="729.5,-442 729.5,-464 819.5,-464 819.5,-442 729.5,-442"/>
<text text-anchor="start" x="732.5" y="-450.2" font-family="Helvetica,sans-Serif" font-size="11.00">timestamp[29,6]</text>
<polygon fill="none" stroke="black" points="598.5,-420 598.5,-442 729.5,-442 729.5,-420 598.5,-420"/>
<text text-anchor="start" x="618.5" y="-428.2" font-family="Helvetica,sans-Serif" font-size="11.00">updated_at</text>
<polygon fill="none" stroke="black" points="729.5,-420 729.5,-442 819.5,-442 819.5,-420 729.5,-420"/>
<text text-anchor="start" x="732.5" y="-428.2" font-family="Helvetica,sans-Serif" font-size="11.00">timestamp[29,6]</text>
<polygon fill="none" stroke="black" points="598.5,-398 598.5,-420 729.5,-420 729.5,-398 598.5,-398"/>
<text text-anchor="start" x="618.5" y="-406.2" font-family="Helvetica,sans-Serif" font-size="11.00">batch_id</text>
<polygon fill="none" stroke="black" points="729.5,-398 729.5,-420 819.5,-420 819.5,-398 729.5,-398"/>
<text text-anchor="start" x="732.5" y="-406.2" font-family="Helvetica,sans-Serif" font-size="11.00">text[2147483647]</text>
<polygon fill="#ffffff" stroke="transparent" points="598.5,-380 598.5,-398 630.5,-398 630.5,-380 598.5,-380"/>
<polygon fill="none" stroke="black" points="598.5,-380 598.5,-398 630.5,-398 630.5,-380 598.5,-380"/>
<text text-anchor="start" x="601.5" y="-386.2" font-family="Helvetica,sans-Serif" font-size="11.00">&lt; 3</text>
<polygon fill="#ffffff" stroke="transparent" points="630.5,-380 630.5,-398 729.5,-398 729.5,-380 630.5,-380"/>
<polygon fill="none" stroke="black" points="630.5,-380 630.5,-398 729.5,-398 729.5,-380 630.5,-380"/>
<text text-anchor="start" x="644.5" y="-386.2" font-family="Helvetica,sans-Serif" font-size="11.00">28,657,312 rows</text>
<polygon fill="#ffffff" stroke="transparent" points="729.5,-380 729.5,-398 819.5,-398 819.5,-380 729.5,-380"/>
<polygon fill="none" stroke="black" points="729.5,-380 729.5,-398 819.5,-398 819.5,-380 729.5,-380"/>
<text text-anchor="start" x="800.5" y="-386.2" font-family="Helvetica,sans-Serif" font-size="11.00">0 &gt;</text>
<polygon fill="none" stroke="black" stroke-width="2" points="597,-379 597,-641 820,-641 820,-379 597,-379"/>
</a>
</g>
</g>
<!-- risks&#45;&gt;scenarios -->
<g id="edge11" class="edge">
<title>risks:w&#45;&gt;scenarios:e</title>
<path fill="none" stroke="black" d="M584.16,-547.11C551.11,-580.36 554.23,-738 511.5,-738"/>
<polygon fill="black" stroke="black" points="590.23,-544.33 599,-544.27 593.86,-542.67 597.5,-541 597.5,-541 597.5,-541 593.86,-542.67 596,-537.73 590.23,-544.33 590.23,-544.33"/>
<ellipse fill="none" stroke="black" cx="587.32" cy="-545.67" rx="3.2" ry="3.2"/>
</g>
<!-- risks&#45;&gt;locations -->
<g id="edge10" class="edge">
<title>risks:w&#45;&gt;locations:e</title>
<path fill="none" stroke="black" d="M584.16,-578.6C550.59,-538.71 601.58,-326 548.5,-326"/>
<polygon fill="black" stroke="black" points="590.29,-581.54 595.94,-588.25 593.89,-583.27 597.5,-585 597.5,-585 597.5,-585 593.89,-583.27 599.06,-581.75 590.29,-581.54 590.29,-581.54"/>
<ellipse fill="none" stroke="black" cx="587.4" cy="-580.15" rx="3.2" ry="3.2"/>
</g>
<!-- impact_pathways -->
<g id="node11" class="node">
<title>impact_pathways</title>
<g id="a_node11"><a xlink:href="../../tables/impact_pathways.html" xlink:title="impact_pathways" target="_top">
<polygon fill="#ffffff" stroke="transparent" points="371,-472 371,-596 510,-596 510,-472 371,-472"/>
<polygon fill="#f5f5f5" stroke="transparent" points="371.5,-574 371.5,-596 510.5,-596 510.5,-574 371.5,-574"/>
<polygon fill="none" stroke="black" points="371.5,-574 371.5,-596 510.5,-596 510.5,-574 371.5,-574"/>
<text text-anchor="start" x="376.5" y="-583.2" font-family="Helvetica,sans-Serif" font-weight="bold" font-size="11.00">impact_pathways</text>
<text text-anchor="start" x="475.5" y="-582.2" font-family="Helvetica,sans-Serif" font-size="11.00">[table]</text>
<polygon fill="none" stroke="black" points="371.5,-552 371.5,-574 510.5,-574 510.5,-552 371.5,-552"/>
<image xlink:href="../../images/primaryKeys.png" width="11px" height="12px" preserveAspectRatio="xMinYMin meet" x="376.5" y="-569"/>
<text text-anchor="start" x="391.5" y="-560.2" font-family="Helvetica,sans-Serif" font-size="11.00">id</text>
<polygon fill="#ffffff" stroke="transparent" points="371.5,-530 371.5,-552 510.5,-552 510.5,-530 371.5,-530"/>
<polygon fill="none" stroke="black" points="371.5,-530 371.5,-552 510.5,-552 510.5,-530 371.5,-530"/>
<text text-anchor="start" x="391.5" y="-538.2" font-family="Helvetica,sans-Serif" font-size="11.00">name</text>
<polygon fill="#ffffff" stroke="transparent" points="371.5,-508 371.5,-530 510.5,-530 510.5,-508 371.5,-508"/>
<polygon fill="none" stroke="black" points="371.5,-508 371.5,-530 510.5,-530 510.5,-508 371.5,-508"/>
<text text-anchor="start" x="391.5" y="-516.2" font-family="Helvetica,sans-Serif" font-size="11.00">impact_function_id</text>
<polygon fill="none" stroke="black" points="371.5,-490 371.5,-508 510.5,-508 510.5,-490 371.5,-490"/>
<text text-anchor="start" x="374.5" y="-496.2" font-family="Helvetica,sans-Serif" font-size="11.00">...</text>
<polygon fill="#ffffff" stroke="transparent" points="371.5,-472 371.5,-490 405.5,-490 405.5,-472 371.5,-472"/>
<polygon fill="none" stroke="black" points="371.5,-472 371.5,-490 405.5,-490 405.5,-472 371.5,-472"/>
<text text-anchor="start" x="374.5" y="-478.2" font-family="Helvetica,sans-Serif" font-size="11.00"> &#160;</text>
<polygon fill="#ffffff" stroke="transparent" points="405.5,-472 405.5,-490 477.5,-490 477.5,-472 405.5,-472"/>
<polygon fill="none" stroke="black" points="405.5,-472 405.5,-490 477.5,-490 477.5,-472 405.5,-472"/>
<text text-anchor="start" x="419.5" y="-478.2" font-family="Helvetica,sans-Serif" font-size="11.00">5,279 rows</text>
<polygon fill="#ffffff" stroke="transparent" points="477.5,-472 477.5,-490 510.5,-490 510.5,-472 477.5,-472"/>
<polygon fill="none" stroke="black" points="477.5,-472 477.5,-490 510.5,-490 510.5,-472 477.5,-472"/>
<text text-anchor="start" x="491.5" y="-478.2" font-family="Helvetica,sans-Serif" font-size="11.00">1 &gt;</text>
</a>
</g>
</g>
<!-- risks&#45;&gt;impact_pathways -->
<g id="edge9" class="edge">
<title>risks:w&#45;&gt;impact_pathways:e</title>
<path fill="none" stroke="black" d="M582.92,-563C556.02,-563 544.35,-563 511.5,-563"/>
<polygon fill="black" stroke="black" points="589.5,-563 597.5,-566.6 593.5,-563 597.5,-563 597.5,-563 597.5,-563 593.5,-563 597.5,-559.4 589.5,-563 589.5,-563"/>
<ellipse fill="none" stroke="black" cx="586.3" cy="-563" rx="3.2" ry="3.2"/>
</g>
</g>
</svg>
