<?xml version="1.0" encoding="UTF-8" standalone="no"?>
<!DOCTYPE svg PUBLIC "-//W3C//DTD SVG 1.1//EN"
 "http://www.w3.org/Graphics/SVG/1.1/DTD/svg11.dtd">
<!-- Generated by graphviz version 2.50.0 (20211204.2007)
 -->
<!-- Title: oneDegreeRelationshipsDiagram Pages: 1 -->
<svg width="416pt" height="340pt"
 viewBox="0.00 0.00 416.00 340.00" xmlns="http://www.w3.org/2000/svg" xmlns:xlink="http://www.w3.org/1999/xlink">
<g id="graph0" class="graph" transform="scale(1 1) rotate(0) translate(4 336)">
<title>oneDegreeRelationshipsDiagram</title>
<polygon fill="#ffffff" stroke="transparent" points="-4,4 -4,-336 412,-336 412,4 -4,4"/>
<text text-anchor="middle" x="72.5" y="-7.2" font-family="Helvetica,sans-Serif" font-size="11.00">Generated by SchemaSpy</text>
<!-- roles_scopes -->
<g id="node1" class="node">
<title>roles_scopes</title>
<g id="a_node1"><a xlink:href="../../tables/roles_scopes.html" xlink:title="roles_scopes" target="_top">
<polygon fill="#ffffff" stroke="transparent" points="257.5,-204 257.5,-328 373.5,-328 373.5,-204 257.5,-204"/>
<polygon fill="#f5f5f5" stroke="transparent" points="257.5,-306 257.5,-328 373.5,-328 373.5,-306 257.5,-306"/>
<polygon fill="none" stroke="black" points="257.5,-306 257.5,-328 373.5,-328 373.5,-306 257.5,-306"/>
<text text-anchor="start" x="262.5" y="-315.2" font-family="Helvetica,sans-Serif" font-weight="bold" font-size="11.00">roles_scopes</text>
<text text-anchor="start" x="338.5" y="-314.2" font-family="Helvetica,sans-Serif" font-size="11.00">[table]</text>
<polygon fill="none" stroke="black" points="257.5,-284 257.5,-306 373.5,-306 373.5,-284 257.5,-284"/>
<image xlink:href="../../images/primaryKeys.png" width="11px" height="12px" preserveAspectRatio="xMinYMin meet" x="262.5" y="-301"/>
<text text-anchor="start" x="287.5" y="-292.2" font-family="Helvetica,sans-Serif" font-size="11.00">id</text>
<polygon fill="#ffffff" stroke="transparent" points="257.5,-262 257.5,-284 373.5,-284 373.5,-262 257.5,-262"/>
<polygon fill="none" stroke="black" points="257.5,-262 257.5,-284 373.5,-284 373.5,-262 257.5,-262"/>
<image xlink:href="../../images/foreignKeys.png" width="11px" height="12px" preserveAspectRatio="xMinYMin meet" x="262.5" y="-279"/>
<text text-anchor="start" x="287.5" y="-270.2" font-family="Helvetica,sans-Serif" font-size="11.00">role_id</text>
<polygon fill="#ffffff" stroke="transparent" points="257.5,-240 257.5,-262 373.5,-262 373.5,-240 257.5,-240"/>
<polygon fill="none" stroke="black" points="257.5,-240 257.5,-262 373.5,-262 373.5,-240 257.5,-240"/>
<image xlink:href="../../images/foreignKeys.png" width="11px" height="12px" preserveAspectRatio="xMinYMin meet" x="262.5" y="-257"/>
<text text-anchor="start" x="287.5" y="-248.2" font-family="Helvetica,sans-Serif" font-size="11.00">scope_id</text>
<polygon fill="none" stroke="black" points="257.5,-222 257.5,-240 373.5,-240 373.5,-222 257.5,-222"/>
<text text-anchor="start" x="260.5" y="-228.2" font-family="Helvetica,sans-Serif" font-size="11.00">...</text>
<polygon fill="#ffffff" stroke="transparent" points="257.5,-204 257.5,-222 296.5,-222 296.5,-204 257.5,-204"/>
<polygon fill="none" stroke="black" points="257.5,-204 257.5,-222 296.5,-222 296.5,-204 257.5,-204"/>
<text text-anchor="start" x="260.5" y="-210.2" font-family="Helvetica,sans-Serif" font-size="11.00">&lt; 2</text>
<polygon fill="#ffffff" stroke="transparent" points="296.5,-204 296.5,-222 351.5,-222 351.5,-204 296.5,-204"/>
<polygon fill="none" stroke="black" points="296.5,-204 296.5,-222 351.5,-222 351.5,-204 296.5,-204"/>
<text text-anchor="start" x="308.5" y="-210.2" font-family="Helvetica,sans-Serif" font-size="11.00">52 rows</text>
<polygon fill="#ffffff" stroke="transparent" points="351.5,-204 351.5,-222 373.5,-222 373.5,-204 351.5,-204"/>
<polygon fill="none" stroke="black" points="351.5,-204 351.5,-222 373.5,-222 373.5,-204 351.5,-204"/>
<text text-anchor="start" x="363.5" y="-210.2" font-family="Helvetica,sans-Serif" font-size="11.00"> &#160;</text>
</a>
</g>
</g>
<!-- roles -->
<g id="node2" class="node">
<title>roles</title>
<g id="a_node2"><a xlink:href="../../tables/roles.html" xlink:title="roles" target="_top">
<polygon fill="#ffffff" stroke="transparent" points="8,-70 8,-224 182,-224 182,-70 8,-70"/>
<polygon fill="#f5f5f5" stroke="transparent" points="10,-200 10,-222 180,-222 180,-200 10,-200"/>
<polygon fill="none" stroke="black" points="10,-200 10,-222 180,-222 180,-200 10,-200"/>
<text text-anchor="start" x="15" y="-209.2" font-family="Helvetica,sans-Serif" font-weight="bold" font-size="11.00">roles</text>
<text text-anchor="start" x="145" y="-208.2" font-family="Helvetica,sans-Serif" font-size="11.00">[table]</text>
<polygon fill="none" stroke="black" points="10,-178 10,-200 95,-200 95,-178 10,-178"/>
<image xlink:href="../../images/primaryKeys.png" width="11px" height="12px" preserveAspectRatio="xMinYMin meet" x="15" y="-195"/>
<text text-anchor="start" x="30" y="-186.2" font-family="Helvetica,sans-Serif" font-size="11.00">id</text>
<polygon fill="none" stroke="black" points="95,-178 95,-200 180,-200 180,-178 95,-178"/>
<text text-anchor="start" x="98" y="-186.2" font-family="Helvetica,sans-Serif" font-size="11.00">serial[10]</text>
<polygon fill="#ffffff" stroke="transparent" points="10,-156 10,-178 95,-178 95,-156 10,-156"/>
<polygon fill="none" stroke="black" points="10,-156 10,-178 95,-178 95,-156 10,-156"/>
<text text-anchor="start" x="30" y="-164.2" font-family="Helvetica,sans-Serif" font-size="11.00">name</text>
<polygon fill="none" stroke="black" points="95,-156 95,-178 180,-178 180,-156 95,-156"/>
<text text-anchor="start" x="98" y="-164.2" font-family="Helvetica,sans-Serif" font-size="11.00">varchar[256]</text>
<polygon fill="none" stroke="black" points="10,-134 10,-156 95,-156 95,-134 10,-134"/>
<text text-anchor="start" x="30" y="-142.2" font-family="Helvetica,sans-Serif" font-size="11.00">description</text>
<polygon fill="none" stroke="black" points="95,-134 95,-156 180,-156 180,-134 95,-134"/>
<text text-anchor="start" x="98" y="-142.2" font-family="Helvetica,sans-Serif" font-size="11.00">varchar[256]</text>
<polygon fill="none" stroke="black" points="10,-112 10,-134 95,-134 95,-112 10,-112"/>
<text text-anchor="start" x="30" y="-120.2" font-family="Helvetica,sans-Serif" font-size="11.00">created_at</text>
<polygon fill="none" stroke="black" points="95,-112 95,-134 180,-134 180,-112 95,-112"/>
<text text-anchor="start" x="98" y="-120.2" font-family="Helvetica,sans-Serif" font-size="11.00">timestamp[29,6]</text>
<polygon fill="none" stroke="black" points="10,-90 10,-112 95,-112 95,-90 10,-90"/>
<text text-anchor="start" x="30" y="-98.2" font-family="Helvetica,sans-Serif" font-size="11.00">updated_at</text>
<polygon fill="none" stroke="black" points="95,-90 95,-112 180,-112 180,-90 95,-90"/>
<text text-anchor="start" x="98" y="-98.2" font-family="Helvetica,sans-Serif" font-size="11.00">timestamp[29,6]</text>
<polygon fill="#ffffff" stroke="transparent" points="10,-72 10,-90 43,-90 43,-72 10,-72"/>
<polygon fill="none" stroke="black" points="10,-72 10,-90 43,-90 43,-72 10,-72"/>
<text text-anchor="start" x="13" y="-78.2" font-family="Helvetica,sans-Serif" font-size="11.00">&lt; 0</text>
<polygon fill="#ffffff" stroke="transparent" points="43,-72 43,-90 95,-90 95,-72 43,-72"/>
<polygon fill="none" stroke="black" points="43,-72 43,-90 95,-90 95,-72 43,-72"/>
<text text-anchor="start" x="58" y="-78.2" font-family="Helvetica,sans-Serif" font-size="11.00">3 rows</text>
<polygon fill="#ffffff" stroke="transparent" points="95,-72 95,-90 180,-90 180,-72 95,-72"/>
<polygon fill="none" stroke="black" points="95,-72 95,-90 180,-90 180,-72 95,-72"/>
<text text-anchor="start" x="161" y="-78.2" font-family="Helvetica,sans-Serif" font-size="11.00">2 &gt;</text>
<polygon fill="none" stroke="black" stroke-width="2" points="9,-71 9,-223 181,-223 181,-71 9,-71"/>
</a>
</g>
</g>
<!-- roles_scopes&#45;&gt;roles -->
<g id="edge1" class="edge">
<title>roles_scopes:w&#45;&gt;roles:e</title>
<path fill="none" stroke="black" d="M242.11,-270.01C210.98,-255.05 225.51,-189 181,-189"/>
<polygon fill="black" stroke="black" points="248.67,-271.37 255.77,-276.52 252.58,-272.19 256.5,-273 256.5,-273 256.5,-273 252.58,-272.19 257.23,-269.48 248.67,-271.37 248.67,-271.37"/>
<ellipse fill="none" stroke="black" cx="245.53" cy="-270.72" rx="3.2" ry="3.2"/>
</g>
<!-- users_roles_customers -->
<g id="node3" class="node">
<title>users_roles_customers</title>
<g id="a_node3"><a xlink:href="../../tables/users_roles_customers.html" xlink:title="users_roles_customers" target="_top">
<polygon fill="#ffffff" stroke="transparent" points="231,-37 231,-183 400,-183 400,-37 231,-37"/>
<polygon fill="#f5f5f5" stroke="transparent" points="231.5,-161 231.5,-183 400.5,-183 400.5,-161 231.5,-161"/>
<polygon fill="none" stroke="black" points="231.5,-161 231.5,-183 400.5,-183 400.5,-161 231.5,-161"/>
<text text-anchor="start" x="236.5" y="-170.2" font-family="Helvetica,sans-Serif" font-weight="bold" font-size="11.00">users_roles_customers</text>
<text text-anchor="start" x="365.5" y="-169.2" font-family="Helvetica,sans-Serif" font-size="11.00">[table]</text>
<polygon fill="none" stroke="black" points="231.5,-139 231.5,-161 400.5,-161 400.5,-139 231.5,-139"/>
<image xlink:href="../../images/primaryKeys.png" width="11px" height="12px" preserveAspectRatio="xMinYMin meet" x="236.5" y="-156"/>
<text text-anchor="start" x="258.5" y="-147.2" font-family="Helvetica,sans-Serif" font-size="11.00">id</text>
<polygon fill="#ffffff" stroke="transparent" points="231.5,-117 231.5,-139 400.5,-139 400.5,-117 231.5,-117"/>
<polygon fill="none" stroke="black" points="231.5,-117 231.5,-139 400.5,-139 400.5,-117 231.5,-117"/>
<image xlink:href="../../images/foreignKeys.png" width="11px" height="12px" preserveAspectRatio="xMinYMin meet" x="236.5" y="-134"/>
<text text-anchor="start" x="258.5" y="-125.2" font-family="Helvetica,sans-Serif" font-size="11.00">user_id</text>
<polygon fill="none" stroke="black" points="231.5,-95 231.5,-117 400.5,-117 400.5,-95 231.5,-95"/>
<image xlink:href="../../images/foreignKeys.png" width="11px" height="12px" preserveAspectRatio="xMinYMin meet" x="236.5" y="-112"/>
<text text-anchor="start" x="258.5" y="-103.2" font-family="Helvetica,sans-Serif" font-size="11.00">role_id</text>
<polygon fill="#ffffff" stroke="transparent" points="231.5,-73 231.5,-95 400.5,-95 400.5,-73 231.5,-73"/>
<polygon fill="none" stroke="black" points="231.5,-73 231.5,-95 400.5,-95 400.5,-73 231.5,-73"/>
<image xlink:href="../../images/foreignKeys.png" width="11px" height="12px" preserveAspectRatio="xMinYMin meet" x="236.5" y="-90"/>
<text text-anchor="start" x="258.5" y="-81.2" font-family="Helvetica,sans-Serif" font-size="11.00">customer_id</text>
<polygon fill="none" stroke="black" points="231.5,-55 231.5,-73 400.5,-73 400.5,-55 231.5,-55"/>
<text text-anchor="start" x="234.5" y="-61.2" font-family="Helvetica,sans-Serif" font-size="11.00">...</text>
<polygon fill="#ffffff" stroke="transparent" points="231.5,-37 231.5,-55 297.5,-55 297.5,-37 231.5,-37"/>
<polygon fill="none" stroke="black" points="231.5,-37 231.5,-55 297.5,-55 297.5,-37 231.5,-37"/>
<text text-anchor="start" x="234.5" y="-43.2" font-family="Helvetica,sans-Serif" font-size="11.00">&lt; 3</text>
<polygon fill="#ffffff" stroke="transparent" points="297.5,-37 297.5,-55 365.5,-55 365.5,-37 297.5,-37"/>
<polygon fill="none" stroke="black" points="297.5,-37 297.5,-55 365.5,-55 365.5,-37 297.5,-37"/>
<text text-anchor="start" x="322.5" y="-43.2" font-family="Helvetica,sans-Serif" font-size="11.00">12 rows</text>
<polygon fill="#ffffff" stroke="transparent" points="365.5,-37 365.5,-55 400.5,-55 400.5,-37 365.5,-37"/>
<polygon fill="none" stroke="black" points="365.5,-37 365.5,-55 400.5,-55 400.5,-37 365.5,-37"/>
<text text-anchor="start" x="390.5" y="-43.2" font-family="Helvetica,sans-Serif" font-size="11.00"> &#160;</text>
</a>
</g>
</g>
<!-- users_roles_customers&#45;&gt;roles -->
<g id="edge2" class="edge">
<title>users_roles_customers:w&#45;&gt;roles:e</title>
<path fill="none" stroke="black" d="M216.65,-110.46C196.22,-127.7 217.91,-189 181,-189"/>
<polygon fill="black" stroke="black" points="222.89,-108.45 231.6,-109.43 226.69,-107.23 230.5,-106 230.5,-106 230.5,-106 226.69,-107.23 229.4,-102.57 222.89,-108.45 222.89,-108.45"/>
<ellipse fill="none" stroke="black" cx="219.84" cy="-109.43" rx="3.2" ry="3.2"/>
</g>
</g>
</svg>
