<?xml version="1.0" encoding="UTF-8" standalone="no"?>
<!DOCTYPE svg PUBLIC "-//W3C//DTD SVG 1.1//EN"
 "http://www.w3.org/Graphics/SVG/1.1/DTD/svg11.dtd">
<!-- Generated by graphviz version 2.50.0 (20211204.2007)
 -->
<!-- Title: twoDegreesRelationshipsDiagram Pages: 1 -->
<svg width="416pt" height="440pt"
 viewBox="0.00 0.00 416.00 440.00" xmlns="http://www.w3.org/2000/svg" xmlns:xlink="http://www.w3.org/1999/xlink">
<g id="graph0" class="graph" transform="scale(1 1) rotate(0) translate(4 436)">
<title>twoDegreesRelationshipsDiagram</title>
<polygon fill="#ffffff" stroke="transparent" points="-4,4 -4,-436 412,-436 412,4 -4,4"/>
<text text-anchor="middle" x="72.5" y="-7.2" font-family="Helvetica,sans-Serif" font-size="11.00">Generated by SchemaSpy</text>
<!-- roles_scopes -->
<g id="node1" class="node">
<title>roles_scopes</title>
<g id="a_node1"><a xlink:href="../../tables/roles_scopes.html" xlink:title="roles_scopes" target="_top">
<polygon fill="#ffffff" stroke="transparent" points="257.5,-71 257.5,-195 373.5,-195 373.5,-71 257.5,-71"/>
<polygon fill="#f5f5f5" stroke="transparent" points="257.5,-173 257.5,-195 373.5,-195 373.5,-173 257.5,-173"/>
<polygon fill="none" stroke="black" points="257.5,-173 257.5,-195 373.5,-195 373.5,-173 257.5,-173"/>
<text text-anchor="start" x="262.5" y="-182.2" font-family="Helvetica,sans-Serif" font-weight="bold" font-size="11.00">roles_scopes</text>
<text text-anchor="start" x="338.5" y="-181.2" font-family="Helvetica,sans-Serif" font-size="11.00">[table]</text>
<polygon fill="none" stroke="black" points="257.5,-151 257.5,-173 373.5,-173 373.5,-151 257.5,-151"/>
<image xlink:href="../../images/primaryKeys.png" width="11px" height="12px" preserveAspectRatio="xMinYMin meet" x="262.5" y="-168"/>
<text text-anchor="start" x="287.5" y="-159.2" font-family="Helvetica,sans-Serif" font-size="11.00">id</text>
<polygon fill="#ffffff" stroke="transparent" points="257.5,-129 257.5,-151 373.5,-151 373.5,-129 257.5,-129"/>
<polygon fill="none" stroke="black" points="257.5,-129 257.5,-151 373.5,-151 373.5,-129 257.5,-129"/>
<image xlink:href="../../images/foreignKeys.png" width="11px" height="12px" preserveAspectRatio="xMinYMin meet" x="262.5" y="-146"/>
<text text-anchor="start" x="287.5" y="-137.2" font-family="Helvetica,sans-Serif" font-size="11.00">role_id</text>
<polygon fill="#ffffff" stroke="transparent" points="257.5,-107 257.5,-129 373.5,-129 373.5,-107 257.5,-107"/>
<polygon fill="none" stroke="black" points="257.5,-107 257.5,-129 373.5,-129 373.5,-107 257.5,-107"/>
<image xlink:href="../../images/foreignKeys.png" width="11px" height="12px" preserveAspectRatio="xMinYMin meet" x="262.5" y="-124"/>
<text text-anchor="start" x="287.5" y="-115.2" font-family="Helvetica,sans-Serif" font-size="11.00">scope_id</text>
<polygon fill="none" stroke="black" points="257.5,-89 257.5,-107 373.5,-107 373.5,-89 257.5,-89"/>
<text text-anchor="start" x="260.5" y="-95.2" font-family="Helvetica,sans-Serif" font-size="11.00">...</text>
<polygon fill="#ffffff" stroke="transparent" points="257.5,-71 257.5,-89 296.5,-89 296.5,-71 257.5,-71"/>
<polygon fill="none" stroke="black" points="257.5,-71 257.5,-89 296.5,-89 296.5,-71 257.5,-71"/>
<text text-anchor="start" x="260.5" y="-77.2" font-family="Helvetica,sans-Serif" font-size="11.00">&lt; 2</text>
<polygon fill="#ffffff" stroke="transparent" points="296.5,-71 296.5,-89 351.5,-89 351.5,-71 296.5,-71"/>
<polygon fill="none" stroke="black" points="296.5,-71 296.5,-89 351.5,-89 351.5,-71 296.5,-71"/>
<text text-anchor="start" x="308.5" y="-77.2" font-family="Helvetica,sans-Serif" font-size="11.00">52 rows</text>
<polygon fill="#ffffff" stroke="transparent" points="351.5,-71 351.5,-89 373.5,-89 373.5,-71 351.5,-71"/>
<polygon fill="none" stroke="black" points="351.5,-71 351.5,-89 373.5,-89 373.5,-71 351.5,-71"/>
<text text-anchor="start" x="363.5" y="-77.2" font-family="Helvetica,sans-Serif" font-size="11.00"> &#160;</text>
</a>
</g>
</g>
<!-- roles -->
<g id="node2" class="node">
<title>roles</title>
<g id="a_node2"><a xlink:href="../../tables/roles.html" xlink:title="roles" target="_top">
<polygon fill="#ffffff" stroke="transparent" points="8,-116 8,-270 182,-270 182,-116 8,-116"/>
<polygon fill="#f5f5f5" stroke="transparent" points="10,-246 10,-268 180,-268 180,-246 10,-246"/>
<polygon fill="none" stroke="black" points="10,-246 10,-268 180,-268 180,-246 10,-246"/>
<text text-anchor="start" x="15" y="-255.2" font-family="Helvetica,sans-Serif" font-weight="bold" font-size="11.00">roles</text>
<text text-anchor="start" x="145" y="-254.2" font-family="Helvetica,sans-Serif" font-size="11.00">[table]</text>
<polygon fill="none" stroke="black" points="10,-224 10,-246 95,-246 95,-224 10,-224"/>
<image xlink:href="../../images/primaryKeys.png" width="11px" height="12px" preserveAspectRatio="xMinYMin meet" x="15" y="-241"/>
<text text-anchor="start" x="30" y="-232.2" font-family="Helvetica,sans-Serif" font-size="11.00">id</text>
<polygon fill="none" stroke="black" points="95,-224 95,-246 180,-246 180,-224 95,-224"/>
<text text-anchor="start" x="98" y="-232.2" font-family="Helvetica,sans-Serif" font-size="11.00">serial[10]</text>
<polygon fill="#ffffff" stroke="transparent" points="10,-202 10,-224 95,-224 95,-202 10,-202"/>
<polygon fill="none" stroke="black" points="10,-202 10,-224 95,-224 95,-202 10,-202"/>
<text text-anchor="start" x="30" y="-210.2" font-family="Helvetica,sans-Serif" font-size="11.00">name</text>
<polygon fill="none" stroke="black" points="95,-202 95,-224 180,-224 180,-202 95,-202"/>
<text text-anchor="start" x="98" y="-210.2" font-family="Helvetica,sans-Serif" font-size="11.00">varchar[256]</text>
<polygon fill="none" stroke="black" points="10,-180 10,-202 95,-202 95,-180 10,-180"/>
<text text-anchor="start" x="30" y="-188.2" font-family="Helvetica,sans-Serif" font-size="11.00">description</text>
<polygon fill="none" stroke="black" points="95,-180 95,-202 180,-202 180,-180 95,-180"/>
<text text-anchor="start" x="98" y="-188.2" font-family="Helvetica,sans-Serif" font-size="11.00">varchar[256]</text>
<polygon fill="none" stroke="black" points="10,-158 10,-180 95,-180 95,-158 10,-158"/>
<text text-anchor="start" x="30" y="-166.2" font-family="Helvetica,sans-Serif" font-size="11.00">created_at</text>
<polygon fill="none" stroke="black" points="95,-158 95,-180 180,-180 180,-158 95,-158"/>
<text text-anchor="start" x="98" y="-166.2" font-family="Helvetica,sans-Serif" font-size="11.00">timestamp[29,6]</text>
<polygon fill="none" stroke="black" points="10,-136 10,-158 95,-158 95,-136 10,-136"/>
<text text-anchor="start" x="30" y="-144.2" font-family="Helvetica,sans-Serif" font-size="11.00">updated_at</text>
<polygon fill="none" stroke="black" points="95,-136 95,-158 180,-158 180,-136 95,-136"/>
<text text-anchor="start" x="98" y="-144.2" font-family="Helvetica,sans-Serif" font-size="11.00">timestamp[29,6]</text>
<polygon fill="#ffffff" stroke="transparent" points="10,-118 10,-136 43,-136 43,-118 10,-118"/>
<polygon fill="none" stroke="black" points="10,-118 10,-136 43,-136 43,-118 10,-118"/>
<text text-anchor="start" x="13" y="-124.2" font-family="Helvetica,sans-Serif" font-size="11.00">&lt; 0</text>
<polygon fill="#ffffff" stroke="transparent" points="43,-118 43,-136 95,-136 95,-118 43,-118"/>
<polygon fill="none" stroke="black" points="43,-118 43,-136 95,-136 95,-118 43,-118"/>
<text text-anchor="start" x="58" y="-124.2" font-family="Helvetica,sans-Serif" font-size="11.00">3 rows</text>
<polygon fill="#ffffff" stroke="transparent" points="95,-118 95,-136 180,-136 180,-118 95,-118"/>
<polygon fill="none" stroke="black" points="95,-118 95,-136 180,-136 180,-118 95,-118"/>
<text text-anchor="start" x="161" y="-124.2" font-family="Helvetica,sans-Serif" font-size="11.00">2 &gt;</text>
<polygon fill="none" stroke="black" stroke-width="2" points="9,-117 9,-269 181,-269 181,-117 9,-117"/>
</a>
</g>
</g>
<!-- roles_scopes&#45;&gt;roles -->
<g id="edge1" class="edge">
<title>roles_scopes:w&#45;&gt;roles:e</title>
<path fill="none" stroke="black" d="M242.11,-142.95C208.43,-158.98 229.24,-235 181,-235"/>
<polygon fill="black" stroke="black" points="248.66,-141.61 257.22,-143.53 252.58,-140.8 256.5,-140 256.5,-140 256.5,-140 252.58,-140.8 255.78,-136.47 248.66,-141.61 248.66,-141.61"/>
<ellipse fill="none" stroke="black" cx="245.53" cy="-142.25" rx="3.2" ry="3.2"/>
</g>
<!-- scopes -->
<g id="node3" class="node">
<title>scopes</title>
<g id="a_node3"><a xlink:href="../../tables/scopes.html" xlink:title="scopes" target="_top">
<polygon fill="#ffffff" stroke="transparent" points="53.5,-37 53.5,-95 136.5,-95 136.5,-37 53.5,-37"/>
<polygon fill="#f5f5f5" stroke="transparent" points="54,-73 54,-95 137,-95 137,-73 54,-73"/>
<polygon fill="none" stroke="black" points="54,-73 54,-95 137,-95 137,-73 54,-73"/>
<text text-anchor="start" x="59" y="-82.2" font-family="Helvetica,sans-Serif" font-weight="bold" font-size="11.00">scopes</text>
<text text-anchor="start" x="102" y="-81.2" font-family="Helvetica,sans-Serif" font-size="11.00">[table]</text>
<polygon fill="none" stroke="black" points="54,-55 54,-73 137,-73 137,-55 54,-55"/>
<text text-anchor="start" x="57" y="-61.2" font-family="Helvetica,sans-Serif" font-size="11.00">...</text>
<polygon fill="#ffffff" stroke="transparent" points="54,-37 54,-55 68,-55 68,-37 54,-37"/>
<polygon fill="none" stroke="black" points="54,-37 54,-55 68,-55 68,-37 54,-37"/>
<text text-anchor="start" x="57" y="-43.2" font-family="Helvetica,sans-Serif" font-size="11.00"> &#160;</text>
<polygon fill="#ffffff" stroke="transparent" points="68,-37 68,-55 114,-55 114,-37 68,-37"/>
<polygon fill="none" stroke="black" points="68,-37 68,-55 114,-55 114,-37 68,-37"/>
<text text-anchor="start" x="71" y="-43.2" font-family="Helvetica,sans-Serif" font-size="11.00">28 rows</text>
<polygon fill="#ffffff" stroke="transparent" points="114,-37 114,-55 137,-55 137,-37 114,-37"/>
<polygon fill="none" stroke="black" points="114,-37 114,-55 137,-55 137,-37 114,-37"/>
<text text-anchor="start" x="118" y="-43.2" font-family="Helvetica,sans-Serif" font-size="11.00">1 &gt;</text>
</a>
</g>
</g>
<!-- roles_scopes&#45;&gt;scopes -->
<g id="edge2" class="edge">
<title>roles_scopes:w&#45;&gt;scopes:e</title>
<path fill="none" stroke="black" d="M241.87,-116.72C197.65,-108.54 190.56,-64 138,-64"/>
<polygon fill="black" stroke="black" points="248.53,-117.3 256.19,-121.59 252.52,-117.65 256.5,-118 256.5,-118 256.5,-118 252.52,-117.65 256.81,-114.41 248.53,-117.3 248.53,-117.3"/>
<ellipse fill="none" stroke="black" cx="245.34" cy="-117.02" rx="3.2" ry="3.2"/>
</g>
<!-- users_roles_customers -->
<g id="node4" class="node">
<title>users_roles_customers</title>
<g id="a_node4"><a xlink:href="../../tables/users_roles_customers.html" xlink:title="users_roles_customers" target="_top">
<polygon fill="#ffffff" stroke="transparent" points="231,-271 231,-417 400,-417 400,-271 231,-271"/>
<polygon fill="#f5f5f5" stroke="transparent" points="231.5,-395 231.5,-417 400.5,-417 400.5,-395 231.5,-395"/>
<polygon fill="none" stroke="black" points="231.5,-395 231.5,-417 400.5,-417 400.5,-395 231.5,-395"/>
<text text-anchor="start" x="236.5" y="-404.2" font-family="Helvetica,sans-Serif" font-weight="bold" font-size="11.00">users_roles_customers</text>
<text text-anchor="start" x="365.5" y="-403.2" font-family="Helvetica,sans-Serif" font-size="11.00">[table]</text>
<polygon fill="none" stroke="black" points="231.5,-373 231.5,-395 400.5,-395 400.5,-373 231.5,-373"/>
<image xlink:href="../../images/primaryKeys.png" width="11px" height="12px" preserveAspectRatio="xMinYMin meet" x="236.5" y="-390"/>
<text text-anchor="start" x="258.5" y="-381.2" font-family="Helvetica,sans-Serif" font-size="11.00">id</text>
<polygon fill="#ffffff" stroke="transparent" points="231.5,-351 231.5,-373 400.5,-373 400.5,-351 231.5,-351"/>
<polygon fill="none" stroke="black" points="231.5,-351 231.5,-373 400.5,-373 400.5,-351 231.5,-351"/>
<image xlink:href="../../images/foreignKeys.png" width="11px" height="12px" preserveAspectRatio="xMinYMin meet" x="236.5" y="-368"/>
<text text-anchor="start" x="258.5" y="-359.2" font-family="Helvetica,sans-Serif" font-size="11.00">user_id</text>
<polygon fill="none" stroke="black" points="231.5,-329 231.5,-351 400.5,-351 400.5,-329 231.5,-329"/>
<image xlink:href="../../images/foreignKeys.png" width="11px" height="12px" preserveAspectRatio="xMinYMin meet" x="236.5" y="-346"/>
<text text-anchor="start" x="258.5" y="-337.2" font-family="Helvetica,sans-Serif" font-size="11.00">role_id</text>
<polygon fill="#ffffff" stroke="transparent" points="231.5,-307 231.5,-329 400.5,-329 400.5,-307 231.5,-307"/>
<polygon fill="none" stroke="black" points="231.5,-307 231.5,-329 400.5,-329 400.5,-307 231.5,-307"/>
<image xlink:href="../../images/foreignKeys.png" width="11px" height="12px" preserveAspectRatio="xMinYMin meet" x="236.5" y="-324"/>
<text text-anchor="start" x="258.5" y="-315.2" font-family="Helvetica,sans-Serif" font-size="11.00">customer_id</text>
<polygon fill="none" stroke="black" points="231.5,-289 231.5,-307 400.5,-307 400.5,-289 231.5,-289"/>
<text text-anchor="start" x="234.5" y="-295.2" font-family="Helvetica,sans-Serif" font-size="11.00">...</text>
<polygon fill="#ffffff" stroke="transparent" points="231.5,-271 231.5,-289 297.5,-289 297.5,-271 231.5,-271"/>
<polygon fill="none" stroke="black" points="231.5,-271 231.5,-289 297.5,-289 297.5,-271 231.5,-271"/>
<text text-anchor="start" x="234.5" y="-277.2" font-family="Helvetica,sans-Serif" font-size="11.00">&lt; 3</text>
<polygon fill="#ffffff" stroke="transparent" points="297.5,-271 297.5,-289 365.5,-289 365.5,-271 297.5,-271"/>
<polygon fill="none" stroke="black" points="297.5,-271 297.5,-289 365.5,-289 365.5,-271 297.5,-271"/>
<text text-anchor="start" x="322.5" y="-277.2" font-family="Helvetica,sans-Serif" font-size="11.00">12 rows</text>
<polygon fill="#ffffff" stroke="transparent" points="365.5,-271 365.5,-289 400.5,-289 400.5,-271 365.5,-271"/>
<polygon fill="none" stroke="black" points="365.5,-271 365.5,-289 400.5,-289 400.5,-271 365.5,-271"/>
<text text-anchor="start" x="390.5" y="-277.2" font-family="Helvetica,sans-Serif" font-size="11.00"> &#160;</text>
</a>
</g>
</g>
<!-- users_roles_customers&#45;&gt;roles -->
<g id="edge4" class="edge">
<title>users_roles_customers:w&#45;&gt;roles:e</title>
<path fill="none" stroke="black" d="M216.36,-336.01C190.04,-316.83 226.55,-235 181,-235"/>
<polygon fill="black" stroke="black" points="222.8,-337.83 229.52,-343.46 226.65,-338.91 230.5,-340 230.5,-340 230.5,-340 226.65,-338.91 231.48,-336.54 222.8,-337.83 222.8,-337.83"/>
<ellipse fill="none" stroke="black" cx="219.72" cy="-336.96" rx="3.2" ry="3.2"/>
</g>
<!-- customers -->
<g id="node5" class="node">
<title>customers</title>
<g id="a_node5"><a xlink:href="../../tables/customers.html" xlink:title="customers" target="_top">
<polygon fill="#ffffff" stroke="transparent" points="45,-291 45,-349 145,-349 145,-291 45,-291"/>
<polygon fill="#f5f5f5" stroke="transparent" points="45,-327 45,-349 145,-349 145,-327 45,-327"/>
<polygon fill="none" stroke="black" points="45,-327 45,-349 145,-349 145,-327 45,-327"/>
<text text-anchor="start" x="50" y="-336.2" font-family="Helvetica,sans-Serif" font-weight="bold" font-size="11.00">customers</text>
<text text-anchor="start" x="110" y="-335.2" font-family="Helvetica,sans-Serif" font-size="11.00">[table]</text>
<polygon fill="none" stroke="black" points="45,-309 45,-327 145,-327 145,-309 45,-309"/>
<text text-anchor="start" x="48" y="-315.2" font-family="Helvetica,sans-Serif" font-size="11.00">...</text>
<polygon fill="#ffffff" stroke="transparent" points="45,-291 45,-309 64,-309 64,-291 45,-291"/>
<polygon fill="none" stroke="black" points="45,-291 45,-309 64,-309 64,-291 45,-291"/>
<text text-anchor="start" x="48" y="-297.2" font-family="Helvetica,sans-Serif" font-size="11.00"> &#160;</text>
<polygon fill="#ffffff" stroke="transparent" points="64,-291 64,-309 119,-309 119,-291 64,-291"/>
<polygon fill="none" stroke="black" points="64,-291 64,-309 119,-309 119,-291 64,-291"/>
<text text-anchor="start" x="70" y="-297.2" font-family="Helvetica,sans-Serif" font-size="11.00">938 rows</text>
<polygon fill="#ffffff" stroke="transparent" points="119,-291 119,-309 145,-309 145,-291 119,-291"/>
<polygon fill="none" stroke="black" points="119,-291 119,-309 145,-309 145,-291 119,-291"/>
<text text-anchor="start" x="126" y="-297.2" font-family="Helvetica,sans-Serif" font-size="11.00">5 &gt;</text>
</a>
</g>
</g>
<!-- users_roles_customers&#45;&gt;customers -->
<g id="edge3" class="edge">
<title>users_roles_customers:w&#45;&gt;customers:e</title>
<path fill="none" stroke="black" d="M215.81,-318C189.64,-318 178.13,-318 146,-318"/>
<polygon fill="black" stroke="black" points="222.5,-318 230.5,-321.6 226.5,-318 230.5,-318 230.5,-318 230.5,-318 226.5,-318 230.5,-314.4 222.5,-318 222.5,-318"/>
<ellipse fill="none" stroke="black" cx="219.3" cy="-318" rx="3.2" ry="3.2"/>
</g>
<!-- users -->
<g id="node6" class="node">
<title>users</title>
<g id="a_node6"><a xlink:href="../../tables/users.html" xlink:title="users" target="_top">
<polygon fill="#ffffff" stroke="transparent" points="54.5,-370 54.5,-428 135.5,-428 135.5,-370 54.5,-370"/>
<polygon fill="#f5f5f5" stroke="transparent" points="55,-406 55,-428 136,-428 136,-406 55,-406"/>
<polygon fill="none" stroke="black" points="55,-406 55,-428 136,-428 136,-406 55,-406"/>
<text text-anchor="start" x="60" y="-415.2" font-family="Helvetica,sans-Serif" font-weight="bold" font-size="11.00">users</text>
<text text-anchor="start" x="101" y="-414.2" font-family="Helvetica,sans-Serif" font-size="11.00">[table]</text>
<polygon fill="none" stroke="black" points="55,-388 55,-406 136,-406 136,-388 55,-388"/>
<text text-anchor="start" x="58" y="-394.2" font-family="Helvetica,sans-Serif" font-size="11.00">...</text>
<polygon fill="#ffffff" stroke="transparent" points="55,-370 55,-388 68,-388 68,-370 55,-370"/>
<polygon fill="none" stroke="black" points="55,-370 55,-388 68,-388 68,-370 55,-370"/>
<text text-anchor="start" x="58" y="-376.2" font-family="Helvetica,sans-Serif" font-size="11.00"> &#160;</text>
<polygon fill="#ffffff" stroke="transparent" points="68,-370 68,-388 114,-388 114,-370 68,-370"/>
<polygon fill="none" stroke="black" points="68,-370 68,-388 114,-388 114,-370 68,-370"/>
<text text-anchor="start" x="71" y="-376.2" font-family="Helvetica,sans-Serif" font-size="11.00">11 rows</text>
<polygon fill="#ffffff" stroke="transparent" points="114,-370 114,-388 136,-388 136,-370 114,-370"/>
<polygon fill="none" stroke="black" points="114,-370 114,-388 136,-388 136,-370 114,-370"/>
<text text-anchor="start" x="117" y="-376.2" font-family="Helvetica,sans-Serif" font-size="11.00">2 &gt;</text>
</a>
</g>
</g>
<!-- users_roles_customers&#45;&gt;users -->
<g id="edge5" class="edge">
<title>users_roles_customers:w&#45;&gt;users:e</title>
<path fill="none" stroke="black" d="M215.98,-363.42C184.4,-369.96 176,-397 137,-397"/>
<polygon fill="black" stroke="black" points="222.54,-362.78 230.85,-365.58 226.52,-362.39 230.5,-362 230.5,-362 230.5,-362 226.52,-362.39 230.15,-358.42 222.54,-362.78 222.54,-362.78"/>
<ellipse fill="none" stroke="black" cx="219.35" cy="-363.09" rx="3.2" ry="3.2"/>
</g>
</g>
</svg>
