<?xml version="1.0" encoding="UTF-8" standalone="no"?>
<!DOCTYPE svg PUBLIC "-//W3C//DTD SVG 1.1//EN"
 "http://www.w3.org/Graphics/SVG/1.1/DTD/svg11.dtd">
<!-- Generated by graphviz version 2.50.0 (20211204.2007)
 -->
<!-- Title: twoDegreesRelationshipsDiagram Pages: 1 -->
<svg width="344pt" height="282pt"
 viewBox="0.00 0.00 344.00 282.00" xmlns="http://www.w3.org/2000/svg" xmlns:xlink="http://www.w3.org/1999/xlink">
<g id="graph0" class="graph" transform="scale(1 1) rotate(0) translate(4 278)">
<title>twoDegreesRelationshipsDiagram</title>
<polygon fill="#ffffff" stroke="transparent" points="-4,4 -4,-278 340,-278 340,4 -4,4"/>
<text text-anchor="middle" x="72.5" y="-7.2" font-family="Helvetica,sans-Serif" font-size="11.00">Generated by SchemaSpy</text>
<!-- roles_scopes -->
<g id="node1" class="node">
<title>roles_scopes</title>
<g id="a_node1"><a xlink:href="../../tables/roles_scopes.html" xlink:title="roles_scopes" target="_top">
<polygon fill="#ffffff" stroke="transparent" points="142,-37 142,-191 328,-191 328,-37 142,-37"/>
<polygon fill="#f5f5f5" stroke="transparent" points="144,-167 144,-189 326,-189 326,-167 144,-167"/>
<polygon fill="none" stroke="black" points="144,-167 144,-189 326,-189 326,-167 144,-167"/>
<text text-anchor="start" x="149" y="-176.2" font-family="Helvetica,sans-Serif" font-weight="bold" font-size="11.00">roles_scopes</text>
<text text-anchor="start" x="291" y="-175.2" font-family="Helvetica,sans-Serif" font-size="11.00">[table]</text>
<polygon fill="none" stroke="black" points="144,-145 144,-167 241,-167 241,-145 144,-145"/>
<image xlink:href="../../images/primaryKeys.png" width="11px" height="12px" preserveAspectRatio="xMinYMin meet" x="149" y="-162"/>
<text text-anchor="start" x="164" y="-153.2" font-family="Helvetica,sans-Serif" font-size="11.00">id</text>
<polygon fill="none" stroke="black" points="241,-145 241,-167 326,-167 326,-145 241,-145"/>
<text text-anchor="start" x="244" y="-153.2" font-family="Helvetica,sans-Serif" font-size="11.00">serial[10]</text>
<polygon fill="#ffffff" stroke="transparent" points="144,-123 144,-145 241,-145 241,-123 144,-123"/>
<polygon fill="none" stroke="black" points="144,-123 144,-145 241,-145 241,-123 144,-123"/>
<image xlink:href="../../images/foreignKeys.png" width="11px" height="12px" preserveAspectRatio="xMinYMin meet" x="149" y="-140"/>
<text text-anchor="start" x="164" y="-131.2" font-family="Helvetica,sans-Serif" font-size="11.00">role_id</text>
<polygon fill="none" stroke="black" points="241,-123 241,-145 326,-145 326,-123 241,-123"/>
<text text-anchor="start" x="244" y="-131.2" font-family="Helvetica,sans-Serif" font-size="11.00">int4[10]</text>
<polygon fill="#ffffff" stroke="transparent" points="144,-101 144,-123 241,-123 241,-101 144,-101"/>
<polygon fill="none" stroke="black" points="144,-101 144,-123 241,-123 241,-101 144,-101"/>
<image xlink:href="../../images/foreignKeys.png" width="11px" height="12px" preserveAspectRatio="xMinYMin meet" x="149" y="-118"/>
<text text-anchor="start" x="164" y="-109.2" font-family="Helvetica,sans-Serif" font-size="11.00">scope_id</text>
<polygon fill="none" stroke="black" points="241,-101 241,-123 326,-123 326,-101 241,-101"/>
<text text-anchor="start" x="244" y="-109.2" font-family="Helvetica,sans-Serif" font-size="11.00">int4[10]</text>
<polygon fill="none" stroke="black" points="144,-79 144,-101 241,-101 241,-79 144,-79"/>
<text text-anchor="start" x="164" y="-87.2" font-family="Helvetica,sans-Serif" font-size="11.00">created_at</text>
<polygon fill="none" stroke="black" points="241,-79 241,-101 326,-101 326,-79 241,-79"/>
<text text-anchor="start" x="244" y="-87.2" font-family="Helvetica,sans-Serif" font-size="11.00">timestamp[29,6]</text>
<polygon fill="none" stroke="black" points="144,-57 144,-79 241,-79 241,-57 144,-57"/>
<text text-anchor="start" x="164" y="-65.2" font-family="Helvetica,sans-Serif" font-size="11.00">updated_at</text>
<polygon fill="none" stroke="black" points="241,-57 241,-79 326,-79 326,-57 241,-57"/>
<text text-anchor="start" x="244" y="-65.2" font-family="Helvetica,sans-Serif" font-size="11.00">timestamp[29,6]</text>
<polygon fill="#ffffff" stroke="transparent" points="144,-39 144,-57 180,-57 180,-39 144,-39"/>
<polygon fill="none" stroke="black" points="144,-39 144,-57 180,-57 180,-39 144,-39"/>
<text text-anchor="start" x="147" y="-45.2" font-family="Helvetica,sans-Serif" font-size="11.00">&lt; 2</text>
<polygon fill="#ffffff" stroke="transparent" points="180,-39 180,-57 241,-57 241,-39 180,-39"/>
<polygon fill="none" stroke="black" points="180,-39 180,-57 241,-57 241,-39 180,-39"/>
<text text-anchor="start" x="198" y="-45.2" font-family="Helvetica,sans-Serif" font-size="11.00">52 rows</text>
<polygon fill="#ffffff" stroke="transparent" points="241,-39 241,-57 326,-57 326,-39 241,-39"/>
<polygon fill="none" stroke="black" points="241,-39 241,-57 326,-57 326,-39 241,-39"/>
<text text-anchor="start" x="307" y="-45.2" font-family="Helvetica,sans-Serif" font-size="11.00">0 &gt;</text>
<polygon fill="none" stroke="black" stroke-width="2" points="143,-38 143,-190 327,-190 327,-38 143,-38"/>
</a>
</g>
</g>
<!-- roles -->
<g id="node2" class="node">
<title>roles</title>
<g id="a_node2"><a xlink:href="../../tables/roles.html" xlink:title="roles" target="_top">
<polygon fill="#ffffff" stroke="transparent" points="8,-168 8,-270 93,-270 93,-168 8,-168"/>
<polygon fill="#f5f5f5" stroke="transparent" points="8.5,-248 8.5,-270 93.5,-270 93.5,-248 8.5,-248"/>
<polygon fill="none" stroke="black" points="8.5,-248 8.5,-270 93.5,-270 93.5,-248 8.5,-248"/>
<text text-anchor="start" x="13.5" y="-257.2" font-family="Helvetica,sans-Serif" font-weight="bold" font-size="11.00">roles</text>
<text text-anchor="start" x="58.5" y="-256.2" font-family="Helvetica,sans-Serif" font-size="11.00">[table]</text>
<polygon fill="none" stroke="black" points="8.5,-226 8.5,-248 93.5,-248 93.5,-226 8.5,-226"/>
<image xlink:href="../../images/primaryKeys.png" width="11px" height="12px" preserveAspectRatio="xMinYMin meet" x="13.5" y="-243"/>
<text text-anchor="start" x="28.5" y="-234.2" font-family="Helvetica,sans-Serif" font-size="11.00">id</text>
<polygon fill="#ffffff" stroke="transparent" points="8.5,-204 8.5,-226 93.5,-226 93.5,-204 8.5,-204"/>
<polygon fill="none" stroke="black" points="8.5,-204 8.5,-226 93.5,-226 93.5,-204 8.5,-204"/>
<text text-anchor="start" x="28.5" y="-212.2" font-family="Helvetica,sans-Serif" font-size="11.00">name</text>
<polygon fill="none" stroke="black" points="8.5,-186 8.5,-204 93.5,-204 93.5,-186 8.5,-186"/>
<text text-anchor="start" x="11.5" y="-192.2" font-family="Helvetica,sans-Serif" font-size="11.00">...</text>
<polygon fill="#ffffff" stroke="transparent" points="8.5,-168 8.5,-186 26.5,-186 26.5,-168 8.5,-168"/>
<polygon fill="none" stroke="black" points="8.5,-168 8.5,-186 26.5,-186 26.5,-168 8.5,-168"/>
<text text-anchor="start" x="11.5" y="-174.2" font-family="Helvetica,sans-Serif" font-size="11.00"> &#160;</text>
<polygon fill="#ffffff" stroke="transparent" points="26.5,-168 26.5,-186 68.5,-186 68.5,-168 26.5,-168"/>
<polygon fill="none" stroke="black" points="26.5,-168 26.5,-186 68.5,-186 68.5,-168 26.5,-168"/>
<text text-anchor="start" x="31.5" y="-174.2" font-family="Helvetica,sans-Serif" font-size="11.00">3 rows</text>
<polygon fill="#ffffff" stroke="transparent" points="68.5,-168 68.5,-186 93.5,-186 93.5,-168 68.5,-168"/>
<polygon fill="none" stroke="black" points="68.5,-168 68.5,-186 93.5,-186 93.5,-168 68.5,-168"/>
<text text-anchor="start" x="74.5" y="-174.2" font-family="Helvetica,sans-Serif" font-size="11.00">2 &gt;</text>
</a>
</g>
</g>
<!-- roles_scopes&#45;&gt;roles -->
<g id="edge1" class="edge">
<title>roles_scopes:w&#45;&gt;roles:e</title>
<path fill="none" stroke="black" d="M129.13,-137.91C103.33,-156.73 139.17,-237 94.5,-237"/>
<polygon fill="black" stroke="black" points="135.3,-136.17 143.98,-137.46 139.15,-135.09 143,-134 143,-134 143,-134 139.15,-135.09 142.02,-130.54 135.3,-136.17 135.3,-136.17"/>
<ellipse fill="none" stroke="black" cx="132.22" cy="-137.04" rx="3.2" ry="3.2"/>
</g>
<!-- scopes -->
<g id="node3" class="node">
<title>scopes</title>
<g id="a_node3"><a xlink:href="../../tables/scopes.html" xlink:title="scopes" target="_top">
<polygon fill="#ffffff" stroke="transparent" points="8,-43 8,-145 93,-145 93,-43 8,-43"/>
<polygon fill="#f5f5f5" stroke="transparent" points="8.5,-123 8.5,-145 93.5,-145 93.5,-123 8.5,-123"/>
<polygon fill="none" stroke="black" points="8.5,-123 8.5,-145 93.5,-145 93.5,-123 8.5,-123"/>
<text text-anchor="start" x="13.5" y="-132.2" font-family="Helvetica,sans-Serif" font-weight="bold" font-size="11.00">scopes</text>
<text text-anchor="start" x="58.5" y="-131.2" font-family="Helvetica,sans-Serif" font-size="11.00">[table]</text>
<polygon fill="none" stroke="black" points="8.5,-101 8.5,-123 93.5,-123 93.5,-101 8.5,-101"/>
<image xlink:href="../../images/primaryKeys.png" width="11px" height="12px" preserveAspectRatio="xMinYMin meet" x="13.5" y="-118"/>
<text text-anchor="start" x="28.5" y="-109.2" font-family="Helvetica,sans-Serif" font-size="11.00">id</text>
<polygon fill="#ffffff" stroke="transparent" points="8.5,-79 8.5,-101 93.5,-101 93.5,-79 8.5,-79"/>
<polygon fill="none" stroke="black" points="8.5,-79 8.5,-101 93.5,-101 93.5,-79 8.5,-79"/>
<text text-anchor="start" x="28.5" y="-87.2" font-family="Helvetica,sans-Serif" font-size="11.00">name</text>
<polygon fill="none" stroke="black" points="8.5,-61 8.5,-79 93.5,-79 93.5,-61 8.5,-61"/>
<text text-anchor="start" x="11.5" y="-67.2" font-family="Helvetica,sans-Serif" font-size="11.00">...</text>
<polygon fill="#ffffff" stroke="transparent" points="8.5,-43 8.5,-61 23.5,-61 23.5,-43 8.5,-43"/>
<polygon fill="none" stroke="black" points="8.5,-43 8.5,-61 23.5,-61 23.5,-43 8.5,-43"/>
<text text-anchor="start" x="11.5" y="-49.2" font-family="Helvetica,sans-Serif" font-size="11.00"> &#160;</text>
<polygon fill="#ffffff" stroke="transparent" points="23.5,-43 23.5,-61 70.5,-61 70.5,-43 23.5,-43"/>
<polygon fill="none" stroke="black" points="23.5,-43 23.5,-61 70.5,-61 70.5,-43 23.5,-43"/>
<text text-anchor="start" x="27.5" y="-49.2" font-family="Helvetica,sans-Serif" font-size="11.00">28 rows</text>
<polygon fill="#ffffff" stroke="transparent" points="70.5,-43 70.5,-61 93.5,-61 93.5,-43 70.5,-43"/>
<polygon fill="none" stroke="black" points="70.5,-43 70.5,-61 93.5,-61 93.5,-43 70.5,-43"/>
<text text-anchor="start" x="74.5" y="-49.2" font-family="Helvetica,sans-Serif" font-size="11.00">1 &gt;</text>
</a>
</g>
</g>
<!-- roles_scopes&#45;&gt;scopes -->
<g id="edge2" class="edge">
<title>roles_scopes:w&#45;&gt;scopes:e</title>
<path fill="none" stroke="black" d="M128.28,-112C117.29,-112 110.16,-112 94.5,-112"/>
<polygon fill="black" stroke="black" points="135,-112 143,-115.6 139,-112 143,-112 143,-112 143,-112 139,-112 143,-108.4 135,-112 135,-112"/>
<ellipse fill="none" stroke="black" cx="131.8" cy="-112" rx="3.2" ry="3.2"/>
</g>
<!-- users_roles_customers -->
<g id="node4" class="node">
<title>users_roles_customers</title>
<g id="a_node4"><a xlink:href="../../tables/users_roles_customers.html" xlink:title="users_roles_customers" target="_top">
<polygon fill="#ffffff" stroke="transparent" points="150.5,-212 150.5,-270 319.5,-270 319.5,-212 150.5,-212"/>
<polygon fill="#f5f5f5" stroke="transparent" points="151,-248 151,-270 320,-270 320,-248 151,-248"/>
<polygon fill="none" stroke="black" points="151,-248 151,-270 320,-270 320,-248 151,-248"/>
<text text-anchor="start" x="156" y="-257.2" font-family="Helvetica,sans-Serif" font-weight="bold" font-size="11.00">users_roles_customers</text>
<text text-anchor="start" x="285" y="-256.2" font-family="Helvetica,sans-Serif" font-size="11.00">[table]</text>
<polygon fill="none" stroke="black" points="151,-230 151,-248 320,-248 320,-230 151,-230"/>
<text text-anchor="start" x="154" y="-236.2" font-family="Helvetica,sans-Serif" font-size="11.00">...</text>
<polygon fill="#ffffff" stroke="transparent" points="151,-212 151,-230 217,-230 217,-212 151,-212"/>
<polygon fill="none" stroke="black" points="151,-212 151,-230 217,-230 217,-212 151,-212"/>
<text text-anchor="start" x="154" y="-218.2" font-family="Helvetica,sans-Serif" font-size="11.00">&lt; 3</text>
<polygon fill="#ffffff" stroke="transparent" points="217,-212 217,-230 285,-230 285,-212 217,-212"/>
<polygon fill="none" stroke="black" points="217,-212 217,-230 285,-230 285,-212 217,-212"/>
<text text-anchor="start" x="242" y="-218.2" font-family="Helvetica,sans-Serif" font-size="11.00">12 rows</text>
<polygon fill="#ffffff" stroke="transparent" points="285,-212 285,-230 320,-230 320,-212 285,-212"/>
<polygon fill="none" stroke="black" points="285,-212 285,-230 320,-230 320,-212 285,-212"/>
<text text-anchor="start" x="310" y="-218.2" font-family="Helvetica,sans-Serif" font-size="11.00"> &#160;</text>
</a>
</g>
</g>
<!-- users_roles_customers&#45;&gt;roles -->
<g id="edge3" class="edge">
<title>users_roles_customers:w&#45;&gt;roles:e</title>
<path fill="none" stroke="black" d="M135.22,-238.72C121.42,-238.17 113.4,-237 94.5,-237"/>
<polygon fill="black" stroke="black" points="142,-238.85 149.93,-242.6 146,-238.92 150,-239 150,-239 150,-239 146,-238.92 150.07,-235.4 142,-238.85 142,-238.85"/>
<ellipse fill="none" stroke="black" cx="138.8" cy="-238.79" rx="3.2" ry="3.2"/>
</g>
</g>
</svg>
