<?xml version="1.0" encoding="UTF-8" standalone="no"?>
<!DOCTYPE svg PUBLIC "-//W3C//DTD SVG 1.1//EN"
 "http://www.w3.org/Graphics/SVG/1.1/DTD/svg11.dtd">
<!-- Generated by graphviz version 2.50.0 (20211204.2007)
 -->
<!-- Title: oneDegreeRelationshipsDiagram Pages: 1 -->
<svg width="344pt" height="274pt"
 viewBox="0.00 0.00 344.00 274.00" xmlns="http://www.w3.org/2000/svg" xmlns:xlink="http://www.w3.org/1999/xlink">
<g id="graph0" class="graph" transform="scale(1 1) rotate(0) translate(4 270)">
<title>oneDegreeRelationshipsDiagram</title>
<polygon fill="#ffffff" stroke="transparent" points="-4,4 -4,-270 340,-270 340,4 -4,4"/>
<text text-anchor="middle" x="72.5" y="-7.2" font-family="Helvetica,sans-Serif" font-size="11.00">Generated by SchemaSpy</text>
<!-- roles_scopes -->
<g id="node1" class="node">
<title>roles_scopes</title>
<g id="a_node1"><a xlink:href="../../tables/roles_scopes.html" xlink:title="roles_scopes" target="_top">
<polygon fill="#ffffff" stroke="transparent" points="142,-81 142,-235 328,-235 328,-81 142,-81"/>
<polygon fill="#f5f5f5" stroke="transparent" points="144,-211 144,-233 326,-233 326,-211 144,-211"/>
<polygon fill="none" stroke="black" points="144,-211 144,-233 326,-233 326,-211 144,-211"/>
<text text-anchor="start" x="149" y="-220.2" font-family="Helvetica,sans-Serif" font-weight="bold" font-size="11.00">roles_scopes</text>
<text text-anchor="start" x="291" y="-219.2" font-family="Helvetica,sans-Serif" font-size="11.00">[table]</text>
<polygon fill="none" stroke="black" points="144,-189 144,-211 241,-211 241,-189 144,-189"/>
<image xlink:href="../../images/primaryKeys.png" width="11px" height="12px" preserveAspectRatio="xMinYMin meet" x="149" y="-206"/>
<text text-anchor="start" x="164" y="-197.2" font-family="Helvetica,sans-Serif" font-size="11.00">id</text>
<polygon fill="none" stroke="black" points="241,-189 241,-211 326,-211 326,-189 241,-189"/>
<text text-anchor="start" x="244" y="-197.2" font-family="Helvetica,sans-Serif" font-size="11.00">serial[10]</text>
<polygon fill="#ffffff" stroke="transparent" points="144,-167 144,-189 241,-189 241,-167 144,-167"/>
<polygon fill="none" stroke="black" points="144,-167 144,-189 241,-189 241,-167 144,-167"/>
<image xlink:href="../../images/foreignKeys.png" width="11px" height="12px" preserveAspectRatio="xMinYMin meet" x="149" y="-184"/>
<text text-anchor="start" x="164" y="-175.2" font-family="Helvetica,sans-Serif" font-size="11.00">role_id</text>
<polygon fill="none" stroke="black" points="241,-167 241,-189 326,-189 326,-167 241,-167"/>
<text text-anchor="start" x="244" y="-175.2" font-family="Helvetica,sans-Serif" font-size="11.00">int4[10]</text>
<polygon fill="#ffffff" stroke="transparent" points="144,-145 144,-167 241,-167 241,-145 144,-145"/>
<polygon fill="none" stroke="black" points="144,-145 144,-167 241,-167 241,-145 144,-145"/>
<image xlink:href="../../images/foreignKeys.png" width="11px" height="12px" preserveAspectRatio="xMinYMin meet" x="149" y="-162"/>
<text text-anchor="start" x="164" y="-153.2" font-family="Helvetica,sans-Serif" font-size="11.00">scope_id</text>
<polygon fill="none" stroke="black" points="241,-145 241,-167 326,-167 326,-145 241,-145"/>
<text text-anchor="start" x="244" y="-153.2" font-family="Helvetica,sans-Serif" font-size="11.00">int4[10]</text>
<polygon fill="none" stroke="black" points="144,-123 144,-145 241,-145 241,-123 144,-123"/>
<text text-anchor="start" x="164" y="-131.2" font-family="Helvetica,sans-Serif" font-size="11.00">created_at</text>
<polygon fill="none" stroke="black" points="241,-123 241,-145 326,-145 326,-123 241,-123"/>
<text text-anchor="start" x="244" y="-131.2" font-family="Helvetica,sans-Serif" font-size="11.00">timestamp[29,6]</text>
<polygon fill="none" stroke="black" points="144,-101 144,-123 241,-123 241,-101 144,-101"/>
<text text-anchor="start" x="164" y="-109.2" font-family="Helvetica,sans-Serif" font-size="11.00">updated_at</text>
<polygon fill="none" stroke="black" points="241,-101 241,-123 326,-123 326,-101 241,-101"/>
<text text-anchor="start" x="244" y="-109.2" font-family="Helvetica,sans-Serif" font-size="11.00">timestamp[29,6]</text>
<polygon fill="#ffffff" stroke="transparent" points="144,-83 144,-101 180,-101 180,-83 144,-83"/>
<polygon fill="none" stroke="black" points="144,-83 144,-101 180,-101 180,-83 144,-83"/>
<text text-anchor="start" x="147" y="-89.2" font-family="Helvetica,sans-Serif" font-size="11.00">&lt; 2</text>
<polygon fill="#ffffff" stroke="transparent" points="180,-83 180,-101 241,-101 241,-83 180,-83"/>
<polygon fill="none" stroke="black" points="180,-83 180,-101 241,-101 241,-83 180,-83"/>
<text text-anchor="start" x="198" y="-89.2" font-family="Helvetica,sans-Serif" font-size="11.00">52 rows</text>
<polygon fill="#ffffff" stroke="transparent" points="241,-83 241,-101 326,-101 326,-83 241,-83"/>
<polygon fill="none" stroke="black" points="241,-83 241,-101 326,-101 326,-83 241,-83"/>
<text text-anchor="start" x="307" y="-89.2" font-family="Helvetica,sans-Serif" font-size="11.00">0 &gt;</text>
<polygon fill="none" stroke="black" stroke-width="2" points="143,-82 143,-234 327,-234 327,-82 143,-82"/>
</a>
</g>
</g>
<!-- roles -->
<g id="node2" class="node">
<title>roles</title>
<g id="a_node2"><a xlink:href="../../tables/roles.html" xlink:title="roles" target="_top">
<polygon fill="#ffffff" stroke="transparent" points="8,-160 8,-262 93,-262 93,-160 8,-160"/>
<polygon fill="#f5f5f5" stroke="transparent" points="8.5,-240 8.5,-262 93.5,-262 93.5,-240 8.5,-240"/>
<polygon fill="none" stroke="black" points="8.5,-240 8.5,-262 93.5,-262 93.5,-240 8.5,-240"/>
<text text-anchor="start" x="13.5" y="-249.2" font-family="Helvetica,sans-Serif" font-weight="bold" font-size="11.00">roles</text>
<text text-anchor="start" x="58.5" y="-248.2" font-family="Helvetica,sans-Serif" font-size="11.00">[table]</text>
<polygon fill="none" stroke="black" points="8.5,-218 8.5,-240 93.5,-240 93.5,-218 8.5,-218"/>
<image xlink:href="../../images/primaryKeys.png" width="11px" height="12px" preserveAspectRatio="xMinYMin meet" x="13.5" y="-235"/>
<text text-anchor="start" x="28.5" y="-226.2" font-family="Helvetica,sans-Serif" font-size="11.00">id</text>
<polygon fill="#ffffff" stroke="transparent" points="8.5,-196 8.5,-218 93.5,-218 93.5,-196 8.5,-196"/>
<polygon fill="none" stroke="black" points="8.5,-196 8.5,-218 93.5,-218 93.5,-196 8.5,-196"/>
<text text-anchor="start" x="28.5" y="-204.2" font-family="Helvetica,sans-Serif" font-size="11.00">name</text>
<polygon fill="none" stroke="black" points="8.5,-178 8.5,-196 93.5,-196 93.5,-178 8.5,-178"/>
<text text-anchor="start" x="11.5" y="-184.2" font-family="Helvetica,sans-Serif" font-size="11.00">...</text>
<polygon fill="#ffffff" stroke="transparent" points="8.5,-160 8.5,-178 26.5,-178 26.5,-160 8.5,-160"/>
<polygon fill="none" stroke="black" points="8.5,-160 8.5,-178 26.5,-178 26.5,-160 8.5,-160"/>
<text text-anchor="start" x="11.5" y="-166.2" font-family="Helvetica,sans-Serif" font-size="11.00"> &#160;</text>
<polygon fill="#ffffff" stroke="transparent" points="26.5,-160 26.5,-178 68.5,-178 68.5,-160 26.5,-160"/>
<polygon fill="none" stroke="black" points="26.5,-160 26.5,-178 68.5,-178 68.5,-160 26.5,-160"/>
<text text-anchor="start" x="31.5" y="-166.2" font-family="Helvetica,sans-Serif" font-size="11.00">3 rows</text>
<polygon fill="#ffffff" stroke="transparent" points="68.5,-160 68.5,-178 93.5,-178 93.5,-160 68.5,-160"/>
<polygon fill="none" stroke="black" points="68.5,-160 68.5,-178 93.5,-178 93.5,-160 68.5,-160"/>
<text text-anchor="start" x="74.5" y="-166.2" font-family="Helvetica,sans-Serif" font-size="11.00">2 &gt;</text>
</a>
</g>
</g>
<!-- roles_scopes&#45;&gt;roles -->
<g id="edge1" class="edge">
<title>roles_scopes:w&#45;&gt;roles:e</title>
<path fill="none" stroke="black" d="M129.19,-183.08C115.48,-195.98 119.67,-229 94.5,-229"/>
<polygon fill="black" stroke="black" points="135.49,-180.76 144.24,-181.38 139.25,-179.38 143,-178 143,-178 143,-178 139.25,-179.38 141.76,-174.62 135.49,-180.76 135.49,-180.76"/>
<ellipse fill="none" stroke="black" cx="132.49" cy="-181.86" rx="3.2" ry="3.2"/>
</g>
<!-- scopes -->
<g id="node3" class="node">
<title>scopes</title>
<g id="a_node3"><a xlink:href="../../tables/scopes.html" xlink:title="scopes" target="_top">
<polygon fill="#ffffff" stroke="transparent" points="8,-37 8,-139 93,-139 93,-37 8,-37"/>
<polygon fill="#f5f5f5" stroke="transparent" points="8.5,-117 8.5,-139 93.5,-139 93.5,-117 8.5,-117"/>
<polygon fill="none" stroke="black" points="8.5,-117 8.5,-139 93.5,-139 93.5,-117 8.5,-117"/>
<text text-anchor="start" x="13.5" y="-126.2" font-family="Helvetica,sans-Serif" font-weight="bold" font-size="11.00">scopes</text>
<text text-anchor="start" x="58.5" y="-125.2" font-family="Helvetica,sans-Serif" font-size="11.00">[table]</text>
<polygon fill="none" stroke="black" points="8.5,-95 8.5,-117 93.5,-117 93.5,-95 8.5,-95"/>
<image xlink:href="../../images/primaryKeys.png" width="11px" height="12px" preserveAspectRatio="xMinYMin meet" x="13.5" y="-112"/>
<text text-anchor="start" x="28.5" y="-103.2" font-family="Helvetica,sans-Serif" font-size="11.00">id</text>
<polygon fill="#ffffff" stroke="transparent" points="8.5,-73 8.5,-95 93.5,-95 93.5,-73 8.5,-73"/>
<polygon fill="none" stroke="black" points="8.5,-73 8.5,-95 93.5,-95 93.5,-73 8.5,-73"/>
<text text-anchor="start" x="28.5" y="-81.2" font-family="Helvetica,sans-Serif" font-size="11.00">name</text>
<polygon fill="none" stroke="black" points="8.5,-55 8.5,-73 93.5,-73 93.5,-55 8.5,-55"/>
<text text-anchor="start" x="11.5" y="-61.2" font-family="Helvetica,sans-Serif" font-size="11.00">...</text>
<polygon fill="#ffffff" stroke="transparent" points="8.5,-37 8.5,-55 23.5,-55 23.5,-37 8.5,-37"/>
<polygon fill="none" stroke="black" points="8.5,-37 8.5,-55 23.5,-55 23.5,-37 8.5,-37"/>
<text text-anchor="start" x="11.5" y="-43.2" font-family="Helvetica,sans-Serif" font-size="11.00"> &#160;</text>
<polygon fill="#ffffff" stroke="transparent" points="23.5,-37 23.5,-55 70.5,-55 70.5,-37 23.5,-37"/>
<polygon fill="none" stroke="black" points="23.5,-37 23.5,-55 70.5,-55 70.5,-37 23.5,-37"/>
<text text-anchor="start" x="27.5" y="-43.2" font-family="Helvetica,sans-Serif" font-size="11.00">28 rows</text>
<polygon fill="#ffffff" stroke="transparent" points="70.5,-37 70.5,-55 93.5,-55 93.5,-37 70.5,-37"/>
<polygon fill="none" stroke="black" points="70.5,-37 70.5,-55 93.5,-55 93.5,-37 70.5,-37"/>
<text text-anchor="start" x="74.5" y="-43.2" font-family="Helvetica,sans-Serif" font-size="11.00">1 &gt;</text>
</a>
</g>
</g>
<!-- roles_scopes&#45;&gt;scopes -->
<g id="edge2" class="edge">
<title>roles_scopes:w&#45;&gt;scopes:e</title>
<path fill="none" stroke="black" d="M129.28,-151.02C115.59,-138.38 119.41,-106 94.5,-106"/>
<polygon fill="black" stroke="black" points="135.48,-153.27 141.77,-159.38 139.24,-154.64 143,-156 143,-156 143,-156 139.24,-154.64 144.23,-152.62 135.48,-153.27 135.48,-153.27"/>
<ellipse fill="none" stroke="black" cx="132.47" cy="-152.18" rx="3.2" ry="3.2"/>
</g>
</g>
</svg>
