<?xml version="1.0" encoding="UTF-8" standalone="no"?>
<!DOCTYPE svg PUBLIC "-//W3C//DTD SVG 1.1//EN"
 "http://www.w3.org/Graphics/SVG/1.1/DTD/svg11.dtd">
<!-- Generated by graphviz version 2.50.0 (20211204.2007)
 -->
<!-- Title: oneDegreeRelationshipsDiagram Pages: 1 -->
<svg width="510pt" height="1004pt"
 viewBox="0.00 0.00 510.00 1004.00" xmlns="http://www.w3.org/2000/svg" xmlns:xlink="http://www.w3.org/1999/xlink">
<g id="graph0" class="graph" transform="scale(1 1) rotate(0) translate(4 1000)">
<title>oneDegreeRelationshipsDiagram</title>
<polygon fill="#ffffff" stroke="transparent" points="-4,4 -4,-1000 506,-1000 506,4 -4,4"/>
<text text-anchor="middle" x="72.5" y="-7.2" font-family="Helvetica,sans-Serif" font-size="11.00">Generated by SchemaSpy</text>
<!-- aggregate_impacts -->
<g id="node1" class="node">
<title>aggregate_impacts</title>
<g id="a_node1"><a xlink:href="../../tables/aggregate_impacts.html" xlink:title="aggregate_impacts" target="_top">
<polygon fill="#ffffff" stroke="transparent" points="308,-780 308,-992 453,-992 453,-780 308,-780"/>
<polygon fill="#f5f5f5" stroke="transparent" points="308.5,-970 308.5,-992 453.5,-992 453.5,-970 308.5,-970"/>
<polygon fill="none" stroke="black" points="308.5,-970 308.5,-992 453.5,-992 453.5,-970 308.5,-970"/>
<text text-anchor="start" x="313.5" y="-979.2" font-family="Helvetica,sans-Serif" font-weight="bold" font-size="11.00">aggregate_impacts</text>
<text text-anchor="start" x="418.5" y="-978.2" font-family="Helvetica,sans-Serif" font-size="11.00">[table]</text>
<polygon fill="none" stroke="black" points="308.5,-948 308.5,-970 453.5,-970 453.5,-948 308.5,-948"/>
<image xlink:href="../../images/primaryKeys.png" width="11px" height="12px" preserveAspectRatio="xMinYMin meet" x="313.5" y="-965"/>
<text text-anchor="start" x="336.5" y="-956.2" font-family="Helvetica,sans-Serif" font-size="11.00">id</text>
<polygon fill="#ffffff" stroke="transparent" points="308.5,-926 308.5,-948 453.5,-948 453.5,-926 308.5,-926"/>
<polygon fill="none" stroke="black" points="308.5,-926 308.5,-948 453.5,-948 453.5,-926 308.5,-926"/>
<text text-anchor="start" x="336.5" y="-934.2" font-family="Helvetica,sans-Serif" font-size="11.00">aggregate_level</text>
<polygon fill="#ffffff" stroke="transparent" points="308.5,-904 308.5,-926 453.5,-926 453.5,-904 308.5,-904"/>
<polygon fill="none" stroke="black" points="308.5,-904 308.5,-926 453.5,-926 453.5,-904 308.5,-904"/>
<text text-anchor="start" x="336.5" y="-912.2" font-family="Helvetica,sans-Serif" font-size="11.00">entity_id</text>
<polygon fill="#ffffff" stroke="transparent" points="308.5,-882 308.5,-904 453.5,-904 453.5,-882 308.5,-882"/>
<polygon fill="none" stroke="black" points="308.5,-882 308.5,-904 453.5,-904 453.5,-882 308.5,-882"/>
<text text-anchor="start" x="336.5" y="-890.2" font-family="Helvetica,sans-Serif" font-size="11.00">tags_hash_md5</text>
<polygon fill="#ffffff" stroke="transparent" points="308.5,-860 308.5,-882 453.5,-882 453.5,-860 308.5,-860"/>
<polygon fill="none" stroke="black" points="308.5,-860 308.5,-882 453.5,-882 453.5,-860 308.5,-860"/>
<image xlink:href="../../images/foreignKeys.png" width="11px" height="12px" preserveAspectRatio="xMinYMin meet" x="313.5" y="-877"/>
<text text-anchor="start" x="336.5" y="-868.2" font-family="Helvetica,sans-Serif" font-size="11.00">risk_factor_id</text>
<polygon fill="#ffffff" stroke="transparent" points="308.5,-838 308.5,-860 453.5,-860 453.5,-838 308.5,-838"/>
<polygon fill="none" stroke="black" points="308.5,-838 308.5,-860 453.5,-860 453.5,-838 308.5,-838"/>
<image xlink:href="../../images/foreignKeys.png" width="11px" height="12px" preserveAspectRatio="xMinYMin meet" x="313.5" y="-855"/>
<text text-anchor="start" x="336.5" y="-846.2" font-family="Helvetica,sans-Serif" font-size="11.00">scenario_id</text>
<polygon fill="#ffffff" stroke="transparent" points="308.5,-816 308.5,-838 453.5,-838 453.5,-816 308.5,-816"/>
<polygon fill="none" stroke="black" points="308.5,-816 308.5,-838 453.5,-838 453.5,-816 308.5,-816"/>
<text text-anchor="start" x="336.5" y="-824.2" font-family="Helvetica,sans-Serif" font-size="11.00">yr</text>
<polygon fill="none" stroke="black" points="308.5,-798 308.5,-816 453.5,-816 453.5,-798 308.5,-798"/>
<text text-anchor="start" x="311.5" y="-804.2" font-family="Helvetica,sans-Serif" font-size="11.00">...</text>
<polygon fill="#ffffff" stroke="transparent" points="308.5,-780 308.5,-798 344.5,-798 344.5,-780 308.5,-780"/>
<polygon fill="none" stroke="black" points="308.5,-780 308.5,-798 344.5,-798 344.5,-780 308.5,-780"/>
<text text-anchor="start" x="311.5" y="-786.2" font-family="Helvetica,sans-Serif" font-size="11.00">&lt; 2</text>
<polygon fill="#ffffff" stroke="transparent" points="344.5,-780 344.5,-798 433.5,-798 433.5,-780 344.5,-780"/>
<polygon fill="none" stroke="black" points="344.5,-780 344.5,-798 433.5,-798 433.5,-780 344.5,-780"/>
<text text-anchor="start" x="354.5" y="-786.2" font-family="Helvetica,sans-Serif" font-size="11.00">7,901,926 rows</text>
<polygon fill="#ffffff" stroke="transparent" points="433.5,-780 433.5,-798 453.5,-798 453.5,-780 433.5,-780"/>
<polygon fill="none" stroke="black" points="433.5,-780 433.5,-798 453.5,-798 453.5,-780 433.5,-780"/>
<text text-anchor="start" x="443.5" y="-786.2" font-family="Helvetica,sans-Serif" font-size="11.00"> &#160;</text>
</a>
</g>
</g>
<!-- scenarios -->
<g id="node2" class="node">
<title>scenarios</title>
<g id="a_node2"><a xlink:href="../../tables/scenarios.html" xlink:title="scenarios" target="_top">
<polygon fill="#ffffff" stroke="transparent" points="8,-391 8,-545 218,-545 218,-391 8,-391"/>
<polygon fill="#f5f5f5" stroke="transparent" points="10,-521 10,-543 216,-543 216,-521 10,-521"/>
<polygon fill="none" stroke="black" points="10,-521 10,-543 216,-543 216,-521 10,-521"/>
<text text-anchor="start" x="15" y="-530.2" font-family="Helvetica,sans-Serif" font-weight="bold" font-size="11.00">scenarios</text>
<text text-anchor="start" x="181" y="-529.2" font-family="Helvetica,sans-Serif" font-size="11.00">[table]</text>
<polygon fill="none" stroke="black" points="10,-499 10,-521 149,-521 149,-499 10,-499"/>
<image xlink:href="../../images/primaryKeys.png" width="11px" height="12px" preserveAspectRatio="xMinYMin meet" x="15" y="-516"/>
<text text-anchor="start" x="30" y="-507.2" font-family="Helvetica,sans-Serif" font-size="11.00">id</text>
<polygon fill="none" stroke="black" points="149,-499 149,-521 216,-521 216,-499 149,-499"/>
<text text-anchor="start" x="152" y="-507.2" font-family="Helvetica,sans-Serif" font-size="11.00">serial[10]</text>
<polygon fill="#ffffff" stroke="transparent" points="10,-477 10,-499 149,-499 149,-477 10,-477"/>
<polygon fill="none" stroke="black" points="10,-477 10,-499 149,-499 149,-477 10,-477"/>
<text text-anchor="start" x="30" y="-485.2" font-family="Helvetica,sans-Serif" font-size="11.00">name</text>
<polygon fill="none" stroke="black" points="149,-477 149,-499 216,-499 216,-477 149,-477"/>
<text text-anchor="start" x="152" y="-485.2" font-family="Helvetica,sans-Serif" font-size="11.00">varchar[32]</text>
<polygon fill="#ffffff" stroke="transparent" points="10,-455 10,-477 149,-477 149,-455 10,-455"/>
<polygon fill="none" stroke="black" points="10,-455 10,-477 149,-477 149,-455 10,-455"/>
<text text-anchor="start" x="30" y="-463.2" font-family="Helvetica,sans-Serif" font-size="11.00">name_etl</text>
<polygon fill="none" stroke="black" points="149,-455 149,-477 216,-477 216,-455 149,-455"/>
<text text-anchor="start" x="152" y="-463.2" font-family="Helvetica,sans-Serif" font-size="11.00">varchar[16]</text>
<polygon fill="none" stroke="black" points="10,-433 10,-455 149,-455 149,-433 10,-433"/>
<text text-anchor="start" x="30" y="-441.2" font-family="Helvetica,sans-Serif" font-size="11.00">proc_flag_risks_calc</text>
<polygon fill="none" stroke="black" points="149,-433 149,-455 216,-455 216,-433 149,-433"/>
<text text-anchor="start" x="152" y="-441.2" font-family="Helvetica,sans-Serif" font-size="11.00">int4[10]</text>
<polygon fill="none" stroke="black" points="10,-411 10,-433 149,-433 149,-411 10,-411"/>
<text text-anchor="start" x="30" y="-419.2" font-family="Helvetica,sans-Serif" font-size="11.00">descr</text>
<polygon fill="none" stroke="black" points="149,-411 149,-433 216,-433 216,-411 149,-411"/>
<text text-anchor="start" x="152" y="-419.2" font-family="Helvetica,sans-Serif" font-size="11.00">varchar[256]</text>
<polygon fill="#ffffff" stroke="transparent" points="10,-393 10,-411 70,-411 70,-393 10,-393"/>
<polygon fill="none" stroke="black" points="10,-393 10,-411 70,-411 70,-393 10,-393"/>
<text text-anchor="start" x="13" y="-399.2" font-family="Helvetica,sans-Serif" font-size="11.00">&lt; 0</text>
<polygon fill="#ffffff" stroke="transparent" points="70,-393 70,-411 149,-411 149,-393 70,-393"/>
<polygon fill="none" stroke="black" points="70,-393 70,-411 149,-411 149,-393 70,-393"/>
<text text-anchor="start" x="112" y="-399.2" font-family="Helvetica,sans-Serif" font-size="11.00">4 rows</text>
<polygon fill="#ffffff" stroke="transparent" points="149,-393 149,-411 216,-411 216,-393 149,-393"/>
<polygon fill="none" stroke="black" points="149,-393 149,-411 216,-411 216,-393 149,-393"/>
<text text-anchor="start" x="197" y="-399.2" font-family="Helvetica,sans-Serif" font-size="11.00">4 &gt;</text>
<polygon fill="none" stroke="black" stroke-width="2" points="9,-392 9,-544 217,-544 217,-392 9,-392"/>
</a>
</g>
</g>
<!-- aggregate_impacts&#45;&gt;scenarios -->
<g id="edge1" class="edge">
<title>aggregate_impacts:w&#45;&gt;scenarios:e</title>
<path fill="none" stroke="black" d="M293.13,-846.84C267.82,-837.99 271.38,-803.34 259,-770 238.64,-715.13 275.53,-510 217,-510"/>
<polygon fill="black" stroke="black" points="299.59,-847.81 306.97,-852.56 303.54,-848.41 307.5,-849 307.5,-849 307.5,-849 303.54,-848.41 308.03,-845.44 299.59,-847.81 299.59,-847.81"/>
<ellipse fill="none" stroke="black" cx="296.42" cy="-847.34" rx="3.2" ry="3.2"/>
</g>
<!-- aggregate_risks -->
<g id="node3" class="node">
<title>aggregate_risks</title>
<g id="a_node3"><a xlink:href="../../tables/aggregate_risks.html" xlink:title="aggregate_risks" target="_top">
<polygon fill="#ffffff" stroke="transparent" points="292,-547 292,-759 469,-759 469,-547 292,-547"/>
<polygon fill="#f5f5f5" stroke="transparent" points="292.5,-737 292.5,-759 469.5,-759 469.5,-737 292.5,-737"/>
<polygon fill="none" stroke="black" points="292.5,-737 292.5,-759 469.5,-759 469.5,-737 292.5,-737"/>
<text text-anchor="start" x="297.5" y="-746.2" font-family="Helvetica,sans-Serif" font-weight="bold" font-size="11.00">aggregate_risks</text>
<text text-anchor="start" x="434.5" y="-745.2" font-family="Helvetica,sans-Serif" font-size="11.00">[table]</text>
<polygon fill="none" stroke="black" points="292.5,-715 292.5,-737 469.5,-737 469.5,-715 292.5,-715"/>
<image xlink:href="../../images/primaryKeys.png" width="11px" height="12px" preserveAspectRatio="xMinYMin meet" x="297.5" y="-732"/>
<text text-anchor="start" x="312.5" y="-723.2" font-family="Helvetica,sans-Serif" font-size="11.00">customer_id</text>
<polygon fill="none" stroke="black" points="292.5,-693 292.5,-715 469.5,-715 469.5,-693 292.5,-693"/>
<image xlink:href="../../images/primaryKeys.png" width="11px" height="12px" preserveAspectRatio="xMinYMin meet" x="297.5" y="-710"/>
<text text-anchor="start" x="312.5" y="-701.2" font-family="Helvetica,sans-Serif" font-size="11.00">entity_type</text>
<polygon fill="none" stroke="black" points="292.5,-671 292.5,-693 469.5,-693 469.5,-671 292.5,-671"/>
<image xlink:href="../../images/primaryKeys.png" width="11px" height="12px" preserveAspectRatio="xMinYMin meet" x="297.5" y="-688"/>
<text text-anchor="start" x="312.5" y="-679.2" font-family="Helvetica,sans-Serif" font-size="11.00">entity_id</text>
<polygon fill="none" stroke="black" points="292.5,-649 292.5,-671 469.5,-671 469.5,-649 292.5,-649"/>
<image xlink:href="../../images/primaryKeys.png" width="11px" height="12px" preserveAspectRatio="xMinYMin meet" x="297.5" y="-666"/>
<text text-anchor="start" x="312.5" y="-657.2" font-family="Helvetica,sans-Serif" font-size="11.00">scenario_id</text>
<polygon fill="none" stroke="black" points="292.5,-627 292.5,-649 469.5,-649 469.5,-627 292.5,-627"/>
<image xlink:href="../../images/primaryKeys.png" width="11px" height="12px" preserveAspectRatio="xMinYMin meet" x="297.5" y="-644"/>
<text text-anchor="start" x="312.5" y="-635.2" font-family="Helvetica,sans-Serif" font-size="11.00">decade</text>
<polygon fill="none" stroke="black" points="292.5,-605 292.5,-627 469.5,-627 469.5,-605 292.5,-605"/>
<image xlink:href="../../images/primaryKeys.png" width="11px" height="12px" preserveAspectRatio="xMinYMin meet" x="297.5" y="-622"/>
<text text-anchor="start" x="312.5" y="-613.2" font-family="Helvetica,sans-Serif" font-size="11.00">hazard_metric_id</text>
<polygon fill="none" stroke="black" points="292.5,-583 292.5,-605 469.5,-605 469.5,-583 292.5,-583"/>
<image xlink:href="../../images/primaryKeys.png" width="11px" height="12px" preserveAspectRatio="xMinYMin meet" x="297.5" y="-600"/>
<text text-anchor="start" x="312.5" y="-591.2" font-family="Helvetica,sans-Serif" font-size="11.00">risk_factor_id</text>
<polygon fill="none" stroke="black" points="292.5,-565 292.5,-583 469.5,-583 469.5,-565 292.5,-565"/>
<text text-anchor="start" x="295.5" y="-571.2" font-family="Helvetica,sans-Serif" font-size="11.00">...</text>
<polygon fill="#ffffff" stroke="transparent" points="292.5,-547 292.5,-565 348.5,-565 348.5,-547 292.5,-547"/>
<polygon fill="none" stroke="black" points="292.5,-547 292.5,-565 348.5,-565 348.5,-547 292.5,-547"/>
<text text-anchor="start" x="295.5" y="-553.2" font-family="Helvetica,sans-Serif" font-size="11.00">&lt; 4</text>
<polygon fill="#ffffff" stroke="transparent" points="348.5,-547 348.5,-565 438.5,-565 438.5,-547 348.5,-547"/>
<polygon fill="none" stroke="black" points="348.5,-547 348.5,-565 438.5,-565 438.5,-547 348.5,-547"/>
<text text-anchor="start" x="368.5" y="-553.2" font-family="Helvetica,sans-Serif" font-size="11.00">133,008 rows</text>
<polygon fill="#ffffff" stroke="transparent" points="438.5,-547 438.5,-565 469.5,-565 469.5,-547 438.5,-547"/>
<polygon fill="none" stroke="black" points="438.5,-547 438.5,-565 469.5,-565 469.5,-547 438.5,-547"/>
<text text-anchor="start" x="459.5" y="-553.2" font-family="Helvetica,sans-Serif" font-size="11.00"> &#160;</text>
</a>
</g>
</g>
<!-- aggregate_risks&#45;&gt;scenarios -->
<g id="edge2" class="edge">
<title>aggregate_risks:w&#45;&gt;scenarios:e</title>
<path fill="none" stroke="black" d="M277.26,-657.64C227.28,-638.56 285.91,-510 217,-510"/>
<polygon fill="black" stroke="black" points="283.61,-658.69 290.91,-663.55 287.55,-659.35 291.5,-660 291.5,-660 291.5,-660 287.55,-659.35 292.09,-656.45 283.61,-658.69 283.61,-658.69"/>
<ellipse fill="none" stroke="black" cx="280.45" cy="-658.17" rx="3.2" ry="3.2"/>
</g>
<!-- decadal_states -->
<g id="node4" class="node">
<title>decadal_states</title>
<g id="a_node4"><a xlink:href="../../tables/decadal_states.html" xlink:title="decadal_states" target="_top">
<polygon fill="#ffffff" stroke="transparent" points="267,-226 267,-526 494,-526 494,-226 267,-226"/>
<polygon fill="#f5f5f5" stroke="transparent" points="267.5,-504 267.5,-526 494.5,-526 494.5,-504 267.5,-504"/>
<polygon fill="none" stroke="black" points="267.5,-504 267.5,-526 494.5,-526 494.5,-504 267.5,-504"/>
<text text-anchor="start" x="272.5" y="-513.2" font-family="Helvetica,sans-Serif" font-weight="bold" font-size="11.00">decadal_states</text>
<text text-anchor="start" x="459.5" y="-512.2" font-family="Helvetica,sans-Serif" font-size="11.00">[table]</text>
<polygon fill="none" stroke="black" points="267.5,-482 267.5,-504 494.5,-504 494.5,-482 267.5,-482"/>
<image xlink:href="../../images/primaryKeys.png" width="11px" height="12px" preserveAspectRatio="xMinYMin meet" x="272.5" y="-499"/>
<text text-anchor="start" x="287.5" y="-490.2" font-family="Helvetica,sans-Serif" font-size="11.00">id</text>
<polygon fill="#ffffff" stroke="transparent" points="267.5,-460 267.5,-482 494.5,-482 494.5,-460 267.5,-460"/>
<polygon fill="none" stroke="black" points="267.5,-460 267.5,-482 494.5,-482 494.5,-460 267.5,-460"/>
<text text-anchor="start" x="287.5" y="-468.2" font-family="Helvetica,sans-Serif" font-size="11.00">grid_square_id</text>
<polygon fill="#ffffff" stroke="transparent" points="267.5,-438 267.5,-460 494.5,-460 494.5,-438 267.5,-438"/>
<polygon fill="none" stroke="black" points="267.5,-438 267.5,-460 494.5,-460 494.5,-438 267.5,-438"/>
<text text-anchor="start" x="287.5" y="-446.2" font-family="Helvetica,sans-Serif" font-size="11.00">point_loc_id</text>
<polygon fill="#ffffff" stroke="transparent" points="267.5,-416 267.5,-438 494.5,-438 494.5,-416 267.5,-416"/>
<polygon fill="none" stroke="black" points="267.5,-416 267.5,-438 494.5,-438 494.5,-416 267.5,-416"/>
<image xlink:href="../../images/foreignKeys.png" width="11px" height="12px" preserveAspectRatio="xMinYMin meet" x="272.5" y="-433"/>
<text text-anchor="start" x="287.5" y="-424.2" font-family="Helvetica,sans-Serif" font-size="11.00">region_id</text>
<polygon fill="#ffffff" stroke="transparent" points="267.5,-394 267.5,-416 494.5,-416 494.5,-394 267.5,-394"/>
<polygon fill="none" stroke="black" points="267.5,-394 267.5,-416 494.5,-416 494.5,-394 267.5,-394"/>
<text text-anchor="start" x="287.5" y="-402.2" font-family="Helvetica,sans-Serif" font-size="11.00">decadal_state_type</text>
<polygon fill="#ffffff" stroke="transparent" points="267.5,-372 267.5,-394 494.5,-394 494.5,-372 267.5,-372"/>
<polygon fill="none" stroke="black" points="267.5,-372 267.5,-394 494.5,-394 494.5,-372 267.5,-372"/>
<image xlink:href="../../images/foreignKeys.png" width="11px" height="12px" preserveAspectRatio="xMinYMin meet" x="272.5" y="-389"/>
<text text-anchor="start" x="287.5" y="-380.2" font-family="Helvetica,sans-Serif" font-size="11.00">hazard_metric_id</text>
<polygon fill="#ffffff" stroke="transparent" points="267.5,-350 267.5,-372 494.5,-372 494.5,-350 267.5,-350"/>
<polygon fill="none" stroke="black" points="267.5,-350 267.5,-372 494.5,-372 494.5,-350 267.5,-350"/>
<image xlink:href="../../images/foreignKeys.png" width="11px" height="12px" preserveAspectRatio="xMinYMin meet" x="272.5" y="-367"/>
<text text-anchor="start" x="287.5" y="-358.2" font-family="Helvetica,sans-Serif" font-size="11.00">scenario_id</text>
<polygon fill="#ffffff" stroke="transparent" points="267.5,-328 267.5,-350 494.5,-350 494.5,-328 267.5,-328"/>
<polygon fill="none" stroke="black" points="267.5,-328 267.5,-350 494.5,-350 494.5,-328 267.5,-328"/>
<text text-anchor="start" x="287.5" y="-336.2" font-family="Helvetica,sans-Serif" font-size="11.00">decade</text>
<polygon fill="#ffffff" stroke="transparent" points="267.5,-306 267.5,-328 494.5,-328 494.5,-306 267.5,-306"/>
<polygon fill="none" stroke="black" points="267.5,-306 267.5,-328 494.5,-328 494.5,-306 267.5,-306"/>
<text text-anchor="start" x="287.5" y="-314.2" font-family="Helvetica,sans-Serif" font-size="11.00">proc_flag_decadal_states_calc</text>
<polygon fill="#ffffff" stroke="transparent" points="267.5,-284 267.5,-306 494.5,-306 494.5,-284 267.5,-284"/>
<polygon fill="none" stroke="black" points="267.5,-284 267.5,-306 494.5,-306 494.5,-284 267.5,-284"/>
<text text-anchor="start" x="287.5" y="-292.2" font-family="Helvetica,sans-Serif" font-size="11.00">not_in_model</text>
<polygon fill="#ffffff" stroke="transparent" points="267.5,-262 267.5,-284 494.5,-284 494.5,-262 267.5,-262"/>
<polygon fill="none" stroke="black" points="267.5,-262 267.5,-284 494.5,-284 494.5,-262 267.5,-262"/>
<text text-anchor="start" x="287.5" y="-270.2" font-family="Helvetica,sans-Serif" font-size="11.00">batch_id</text>
<polygon fill="none" stroke="black" points="267.5,-244 267.5,-262 494.5,-262 494.5,-244 267.5,-244"/>
<text text-anchor="start" x="270.5" y="-250.2" font-family="Helvetica,sans-Serif" font-size="11.00">...</text>
<polygon fill="#ffffff" stroke="transparent" points="267.5,-226 267.5,-244 344.5,-244 344.5,-226 267.5,-226"/>
<polygon fill="none" stroke="black" points="267.5,-226 267.5,-244 344.5,-244 344.5,-226 267.5,-226"/>
<text text-anchor="start" x="270.5" y="-232.2" font-family="Helvetica,sans-Serif" font-size="11.00">&lt; 3</text>
<polygon fill="#ffffff" stroke="transparent" points="344.5,-226 344.5,-244 453.5,-244 453.5,-226 344.5,-226"/>
<polygon fill="none" stroke="black" points="344.5,-226 344.5,-244 453.5,-244 453.5,-226 344.5,-226"/>
<text text-anchor="start" x="374.5" y="-232.2" font-family="Helvetica,sans-Serif" font-size="11.00">7,749,532 rows</text>
<polygon fill="#ffffff" stroke="transparent" points="453.5,-226 453.5,-244 494.5,-244 494.5,-226 453.5,-226"/>
<polygon fill="none" stroke="black" points="453.5,-226 453.5,-244 494.5,-244 494.5,-226 453.5,-226"/>
<text text-anchor="start" x="484.5" y="-232.2" font-family="Helvetica,sans-Serif" font-size="11.00"> &#160;</text>
</a>
</g>
</g>
<!-- decadal_states&#45;&gt;scenarios -->
<g id="edge3" class="edge">
<title>decadal_states:w&#45;&gt;scenarios:e</title>
<path fill="none" stroke="black" d="M252.38,-363.84C210.42,-384.44 281.06,-510 217,-510"/>
<polygon fill="black" stroke="black" points="258.66,-362.58 267.21,-364.53 262.58,-361.79 266.5,-361 266.5,-361 266.5,-361 262.58,-361.79 265.79,-357.47 258.66,-362.58 258.66,-362.58"/>
<ellipse fill="none" stroke="black" cx="255.52" cy="-363.21" rx="3.2" ry="3.2"/>
</g>
<!-- risks -->
<g id="node5" class="node">
<title>risks</title>
<g id="a_node5"><a xlink:href="../../tables/risks.html" xlink:title="risks" target="_top">
<polygon fill="#ffffff" stroke="transparent" points="315,-37 315,-205 446,-205 446,-37 315,-37"/>
<polygon fill="#f5f5f5" stroke="transparent" points="315.5,-183 315.5,-205 446.5,-205 446.5,-183 315.5,-183"/>
<polygon fill="none" stroke="black" points="315.5,-183 315.5,-205 446.5,-205 446.5,-183 315.5,-183"/>
<text text-anchor="start" x="320.5" y="-192.2" font-family="Helvetica,sans-Serif" font-weight="bold" font-size="11.00">risks</text>
<text text-anchor="start" x="411.5" y="-191.2" font-family="Helvetica,sans-Serif" font-size="11.00">[table]</text>
<polygon fill="none" stroke="black" points="315.5,-161 315.5,-183 446.5,-183 446.5,-161 315.5,-161"/>
<image xlink:href="../../images/primaryKeys.png" width="11px" height="12px" preserveAspectRatio="xMinYMin meet" x="320.5" y="-178"/>
<text text-anchor="start" x="335.5" y="-169.2" font-family="Helvetica,sans-Serif" font-size="11.00">id</text>
<polygon fill="#ffffff" stroke="transparent" points="315.5,-139 315.5,-161 446.5,-161 446.5,-139 315.5,-139"/>
<polygon fill="none" stroke="black" points="315.5,-139 315.5,-161 446.5,-161 446.5,-139 315.5,-139"/>
<image xlink:href="../../images/foreignKeys.png" width="11px" height="12px" preserveAspectRatio="xMinYMin meet" x="320.5" y="-156"/>
<text text-anchor="start" x="335.5" y="-147.2" font-family="Helvetica,sans-Serif" font-size="11.00">location_id</text>
<polygon fill="#ffffff" stroke="transparent" points="315.5,-117 315.5,-139 446.5,-139 446.5,-117 315.5,-117"/>
<polygon fill="none" stroke="black" points="315.5,-117 315.5,-139 446.5,-139 446.5,-117 315.5,-117"/>
<image xlink:href="../../images/foreignKeys.png" width="11px" height="12px" preserveAspectRatio="xMinYMin meet" x="320.5" y="-134"/>
<text text-anchor="start" x="335.5" y="-125.2" font-family="Helvetica,sans-Serif" font-size="11.00">impact_pathway_id</text>
<polygon fill="#ffffff" stroke="transparent" points="315.5,-95 315.5,-117 446.5,-117 446.5,-95 315.5,-95"/>
<polygon fill="none" stroke="black" points="315.5,-95 315.5,-117 446.5,-117 446.5,-95 315.5,-95"/>
<image xlink:href="../../images/foreignKeys.png" width="11px" height="12px" preserveAspectRatio="xMinYMin meet" x="320.5" y="-112"/>
<text text-anchor="start" x="335.5" y="-103.2" font-family="Helvetica,sans-Serif" font-size="11.00">scenario_id</text>
<polygon fill="#ffffff" stroke="transparent" points="315.5,-73 315.5,-95 446.5,-95 446.5,-73 315.5,-73"/>
<polygon fill="none" stroke="black" points="315.5,-73 315.5,-95 446.5,-95 446.5,-73 315.5,-73"/>
<text text-anchor="start" x="335.5" y="-81.2" font-family="Helvetica,sans-Serif" font-size="11.00">yr</text>
<polygon fill="none" stroke="black" points="315.5,-55 315.5,-73 446.5,-73 446.5,-55 315.5,-55"/>
<text text-anchor="start" x="318.5" y="-61.2" font-family="Helvetica,sans-Serif" font-size="11.00">...</text>
<polygon fill="#ffffff" stroke="transparent" points="315.5,-37 315.5,-55 341.5,-55 341.5,-37 315.5,-37"/>
<polygon fill="none" stroke="black" points="315.5,-37 315.5,-55 341.5,-55 341.5,-37 315.5,-37"/>
<text text-anchor="start" x="318.5" y="-43.2" font-family="Helvetica,sans-Serif" font-size="11.00">&lt; 3</text>
<polygon fill="#ffffff" stroke="transparent" points="341.5,-37 341.5,-55 431.5,-55 431.5,-37 341.5,-37"/>
<polygon fill="none" stroke="black" points="341.5,-37 341.5,-55 431.5,-55 431.5,-37 341.5,-37"/>
<text text-anchor="start" x="346.5" y="-43.2" font-family="Helvetica,sans-Serif" font-size="11.00">28,657,312 rows</text>
<polygon fill="#ffffff" stroke="transparent" points="431.5,-37 431.5,-55 446.5,-55 446.5,-37 431.5,-37"/>
<polygon fill="none" stroke="black" points="431.5,-37 431.5,-55 446.5,-55 446.5,-37 431.5,-37"/>
<text text-anchor="start" x="436.5" y="-43.2" font-family="Helvetica,sans-Serif" font-size="11.00"> &#160;</text>
</a>
</g>
</g>
<!-- risks&#45;&gt;scenarios -->
<g id="edge4" class="edge">
<title>risks:w&#45;&gt;scenarios:e</title>
<path fill="none" stroke="black" d="M299.89,-107.72C262.59,-117.68 273.75,-169.07 259,-216 239.21,-278.96 283,-510 217,-510"/>
<polygon fill="black" stroke="black" points="306.55,-106.94 314.92,-109.58 310.53,-106.47 314.5,-106 314.5,-106 314.5,-106 310.53,-106.47 314.08,-102.42 306.55,-106.94 306.55,-106.94"/>
<ellipse fill="none" stroke="black" cx="303.38" cy="-107.31" rx="3.2" ry="3.2"/>
</g>
</g>
</svg>
