<?xml version="1.0" encoding="UTF-8" standalone="no"?>
<!DOCTYPE svg PUBLIC "-//W3C//DTD SVG 1.1//EN"
 "http://www.w3.org/Graphics/SVG/1.1/DTD/svg11.dtd">
<!-- Generated by graphviz version 2.50.0 (20211204.2007)
 -->
<!-- Title: twoDegreesRelationshipsDiagram Pages: 1 -->
<svg width="666pt" height="1004pt"
 viewBox="0.00 0.00 666.00 1004.00" xmlns="http://www.w3.org/2000/svg" xmlns:xlink="http://www.w3.org/1999/xlink">
<g id="graph0" class="graph" transform="scale(1 1) rotate(0) translate(4 1000)">
<title>twoDegreesRelationshipsDiagram</title>
<polygon fill="#ffffff" stroke="transparent" points="-4,4 -4,-1000 662,-1000 662,4 -4,4"/>
<text text-anchor="middle" x="72.5" y="-7.2" font-family="Helvetica,sans-Serif" font-size="11.00">Generated by SchemaSpy</text>
<!-- aggregate_impacts -->
<g id="node1" class="node">
<title>aggregate_impacts</title>
<g id="a_node1"><a xlink:href="../../tables/aggregate_impacts.html" xlink:title="aggregate_impacts" target="_top">
<polygon fill="#ffffff" stroke="transparent" points="464,-226 464,-438 609,-438 609,-226 464,-226"/>
<polygon fill="#f5f5f5" stroke="transparent" points="464.5,-416 464.5,-438 609.5,-438 609.5,-416 464.5,-416"/>
<polygon fill="none" stroke="black" points="464.5,-416 464.5,-438 609.5,-438 609.5,-416 464.5,-416"/>
<text text-anchor="start" x="469.5" y="-425.2" font-family="Helvetica,sans-Serif" font-weight="bold" font-size="11.00">aggregate_impacts</text>
<text text-anchor="start" x="574.5" y="-424.2" font-family="Helvetica,sans-Serif" font-size="11.00">[table]</text>
<polygon fill="none" stroke="black" points="464.5,-394 464.5,-416 609.5,-416 609.5,-394 464.5,-394"/>
<image xlink:href="../../images/primaryKeys.png" width="11px" height="12px" preserveAspectRatio="xMinYMin meet" x="469.5" y="-411"/>
<text text-anchor="start" x="492.5" y="-402.2" font-family="Helvetica,sans-Serif" font-size="11.00">id</text>
<polygon fill="#ffffff" stroke="transparent" points="464.5,-372 464.5,-394 609.5,-394 609.5,-372 464.5,-372"/>
<polygon fill="none" stroke="black" points="464.5,-372 464.5,-394 609.5,-394 609.5,-372 464.5,-372"/>
<text text-anchor="start" x="492.5" y="-380.2" font-family="Helvetica,sans-Serif" font-size="11.00">aggregate_level</text>
<polygon fill="#ffffff" stroke="transparent" points="464.5,-350 464.5,-372 609.5,-372 609.5,-350 464.5,-350"/>
<polygon fill="none" stroke="black" points="464.5,-350 464.5,-372 609.5,-372 609.5,-350 464.5,-350"/>
<text text-anchor="start" x="492.5" y="-358.2" font-family="Helvetica,sans-Serif" font-size="11.00">entity_id</text>
<polygon fill="#ffffff" stroke="transparent" points="464.5,-328 464.5,-350 609.5,-350 609.5,-328 464.5,-328"/>
<polygon fill="none" stroke="black" points="464.5,-328 464.5,-350 609.5,-350 609.5,-328 464.5,-328"/>
<text text-anchor="start" x="492.5" y="-336.2" font-family="Helvetica,sans-Serif" font-size="11.00">tags_hash_md5</text>
<polygon fill="#ffffff" stroke="transparent" points="464.5,-306 464.5,-328 609.5,-328 609.5,-306 464.5,-306"/>
<polygon fill="none" stroke="black" points="464.5,-306 464.5,-328 609.5,-328 609.5,-306 464.5,-306"/>
<image xlink:href="../../images/foreignKeys.png" width="11px" height="12px" preserveAspectRatio="xMinYMin meet" x="469.5" y="-323"/>
<text text-anchor="start" x="492.5" y="-314.2" font-family="Helvetica,sans-Serif" font-size="11.00">risk_factor_id</text>
<polygon fill="#ffffff" stroke="transparent" points="464.5,-284 464.5,-306 609.5,-306 609.5,-284 464.5,-284"/>
<polygon fill="none" stroke="black" points="464.5,-284 464.5,-306 609.5,-306 609.5,-284 464.5,-284"/>
<image xlink:href="../../images/foreignKeys.png" width="11px" height="12px" preserveAspectRatio="xMinYMin meet" x="469.5" y="-301"/>
<text text-anchor="start" x="492.5" y="-292.2" font-family="Helvetica,sans-Serif" font-size="11.00">scenario_id</text>
<polygon fill="#ffffff" stroke="transparent" points="464.5,-262 464.5,-284 609.5,-284 609.5,-262 464.5,-262"/>
<polygon fill="none" stroke="black" points="464.5,-262 464.5,-284 609.5,-284 609.5,-262 464.5,-262"/>
<text text-anchor="start" x="492.5" y="-270.2" font-family="Helvetica,sans-Serif" font-size="11.00">yr</text>
<polygon fill="none" stroke="black" points="464.5,-244 464.5,-262 609.5,-262 609.5,-244 464.5,-244"/>
<text text-anchor="start" x="467.5" y="-250.2" font-family="Helvetica,sans-Serif" font-size="11.00">...</text>
<polygon fill="#ffffff" stroke="transparent" points="464.5,-226 464.5,-244 500.5,-244 500.5,-226 464.5,-226"/>
<polygon fill="none" stroke="black" points="464.5,-226 464.5,-244 500.5,-244 500.5,-226 464.5,-226"/>
<text text-anchor="start" x="467.5" y="-232.2" font-family="Helvetica,sans-Serif" font-size="11.00">&lt; 2</text>
<polygon fill="#ffffff" stroke="transparent" points="500.5,-226 500.5,-244 589.5,-244 589.5,-226 500.5,-226"/>
<polygon fill="none" stroke="black" points="500.5,-226 500.5,-244 589.5,-244 589.5,-226 500.5,-226"/>
<text text-anchor="start" x="510.5" y="-232.2" font-family="Helvetica,sans-Serif" font-size="11.00">7,901,926 rows</text>
<polygon fill="#ffffff" stroke="transparent" points="589.5,-226 589.5,-244 609.5,-244 609.5,-226 589.5,-226"/>
<polygon fill="none" stroke="black" points="589.5,-226 589.5,-244 609.5,-244 609.5,-226 589.5,-226"/>
<text text-anchor="start" x="599.5" y="-232.2" font-family="Helvetica,sans-Serif" font-size="11.00"> &#160;</text>
</a>
</g>
</g>
<!-- risk_factors -->
<g id="node2" class="node">
<title>risk_factors</title>
<g id="a_node2"><a xlink:href="../../tables/risk_factors.html" xlink:title="risk_factors" target="_top">
<polygon fill="#ffffff" stroke="transparent" points="8,-729 8,-787 115,-787 115,-729 8,-729"/>
<polygon fill="#f5f5f5" stroke="transparent" points="8.5,-765 8.5,-787 115.5,-787 115.5,-765 8.5,-765"/>
<polygon fill="none" stroke="black" points="8.5,-765 8.5,-787 115.5,-787 115.5,-765 8.5,-765"/>
<text text-anchor="start" x="13.5" y="-774.2" font-family="Helvetica,sans-Serif" font-weight="bold" font-size="11.00">risk_factors</text>
<text text-anchor="start" x="80.5" y="-773.2" font-family="Helvetica,sans-Serif" font-size="11.00">[table]</text>
<polygon fill="none" stroke="black" points="8.5,-747 8.5,-765 115.5,-765 115.5,-747 8.5,-747"/>
<text text-anchor="start" x="11.5" y="-753.2" font-family="Helvetica,sans-Serif" font-size="11.00">...</text>
<polygon fill="#ffffff" stroke="transparent" points="8.5,-729 8.5,-747 34.5,-747 34.5,-729 8.5,-729"/>
<polygon fill="none" stroke="black" points="8.5,-729 8.5,-747 34.5,-747 34.5,-729 8.5,-729"/>
<text text-anchor="start" x="11.5" y="-735.2" font-family="Helvetica,sans-Serif" font-size="11.00"> &#160;</text>
<polygon fill="#ffffff" stroke="transparent" points="34.5,-729 34.5,-747 86.5,-747 86.5,-729 34.5,-729"/>
<polygon fill="none" stroke="black" points="34.5,-729 34.5,-747 86.5,-747 86.5,-729 34.5,-729"/>
<text text-anchor="start" x="43.5" y="-735.2" font-family="Helvetica,sans-Serif" font-size="11.00">17 rows</text>
<polygon fill="#ffffff" stroke="transparent" points="86.5,-729 86.5,-747 115.5,-747 115.5,-729 86.5,-729"/>
<polygon fill="none" stroke="black" points="86.5,-729 86.5,-747 115.5,-747 115.5,-729 86.5,-729"/>
<text text-anchor="start" x="96.5" y="-735.2" font-family="Helvetica,sans-Serif" font-size="11.00">7 &gt;</text>
</a>
</g>
</g>
<!-- aggregate_impacts&#45;&gt;risk_factors -->
<g id="edge1" class="edge">
<title>aggregate_impacts:w&#45;&gt;risk_factors:e</title>
<path fill="none" stroke="black" d="M448.98,-316.97C314.53,-316.48 243.83,-311.18 156,-419 108.38,-477.46 191.9,-756 116.5,-756"/>
<polygon fill="black" stroke="black" points="455.5,-316.98 463.49,-320.6 459.5,-316.99 463.5,-317 463.5,-317 463.5,-317 459.5,-316.99 463.51,-313.4 455.5,-316.98 455.5,-316.98"/>
<ellipse fill="none" stroke="black" cx="452.3" cy="-316.98" rx="3.2" ry="3.2"/>
</g>
<!-- scenarios -->
<g id="node3" class="node">
<title>scenarios</title>
<g id="a_node3"><a xlink:href="../../tables/scenarios.html" xlink:title="scenarios" target="_top">
<polygon fill="#ffffff" stroke="transparent" points="164,-429 164,-583 374,-583 374,-429 164,-429"/>
<polygon fill="#f5f5f5" stroke="transparent" points="166,-559 166,-581 372,-581 372,-559 166,-559"/>
<polygon fill="none" stroke="black" points="166,-559 166,-581 372,-581 372,-559 166,-559"/>
<text text-anchor="start" x="171" y="-568.2" font-family="Helvetica,sans-Serif" font-weight="bold" font-size="11.00">scenarios</text>
<text text-anchor="start" x="337" y="-567.2" font-family="Helvetica,sans-Serif" font-size="11.00">[table]</text>
<polygon fill="none" stroke="black" points="166,-537 166,-559 305,-559 305,-537 166,-537"/>
<image xlink:href="../../images/primaryKeys.png" width="11px" height="12px" preserveAspectRatio="xMinYMin meet" x="171" y="-554"/>
<text text-anchor="start" x="186" y="-545.2" font-family="Helvetica,sans-Serif" font-size="11.00">id</text>
<polygon fill="none" stroke="black" points="305,-537 305,-559 372,-559 372,-537 305,-537"/>
<text text-anchor="start" x="308" y="-545.2" font-family="Helvetica,sans-Serif" font-size="11.00">serial[10]</text>
<polygon fill="#ffffff" stroke="transparent" points="166,-515 166,-537 305,-537 305,-515 166,-515"/>
<polygon fill="none" stroke="black" points="166,-515 166,-537 305,-537 305,-515 166,-515"/>
<text text-anchor="start" x="186" y="-523.2" font-family="Helvetica,sans-Serif" font-size="11.00">name</text>
<polygon fill="none" stroke="black" points="305,-515 305,-537 372,-537 372,-515 305,-515"/>
<text text-anchor="start" x="308" y="-523.2" font-family="Helvetica,sans-Serif" font-size="11.00">varchar[32]</text>
<polygon fill="#ffffff" stroke="transparent" points="166,-493 166,-515 305,-515 305,-493 166,-493"/>
<polygon fill="none" stroke="black" points="166,-493 166,-515 305,-515 305,-493 166,-493"/>
<text text-anchor="start" x="186" y="-501.2" font-family="Helvetica,sans-Serif" font-size="11.00">name_etl</text>
<polygon fill="none" stroke="black" points="305,-493 305,-515 372,-515 372,-493 305,-493"/>
<text text-anchor="start" x="308" y="-501.2" font-family="Helvetica,sans-Serif" font-size="11.00">varchar[16]</text>
<polygon fill="none" stroke="black" points="166,-471 166,-493 305,-493 305,-471 166,-471"/>
<text text-anchor="start" x="186" y="-479.2" font-family="Helvetica,sans-Serif" font-size="11.00">proc_flag_risks_calc</text>
<polygon fill="none" stroke="black" points="305,-471 305,-493 372,-493 372,-471 305,-471"/>
<text text-anchor="start" x="308" y="-479.2" font-family="Helvetica,sans-Serif" font-size="11.00">int4[10]</text>
<polygon fill="none" stroke="black" points="166,-449 166,-471 305,-471 305,-449 166,-449"/>
<text text-anchor="start" x="186" y="-457.2" font-family="Helvetica,sans-Serif" font-size="11.00">descr</text>
<polygon fill="none" stroke="black" points="305,-449 305,-471 372,-471 372,-449 305,-449"/>
<text text-anchor="start" x="308" y="-457.2" font-family="Helvetica,sans-Serif" font-size="11.00">varchar[256]</text>
<polygon fill="#ffffff" stroke="transparent" points="166,-431 166,-449 226,-449 226,-431 166,-431"/>
<polygon fill="none" stroke="black" points="166,-431 166,-449 226,-449 226,-431 166,-431"/>
<text text-anchor="start" x="169" y="-437.2" font-family="Helvetica,sans-Serif" font-size="11.00">&lt; 0</text>
<polygon fill="#ffffff" stroke="transparent" points="226,-431 226,-449 305,-449 305,-431 226,-431"/>
<polygon fill="none" stroke="black" points="226,-431 226,-449 305,-449 305,-431 226,-431"/>
<text text-anchor="start" x="268" y="-437.2" font-family="Helvetica,sans-Serif" font-size="11.00">4 rows</text>
<polygon fill="#ffffff" stroke="transparent" points="305,-431 305,-449 372,-449 372,-431 305,-431"/>
<polygon fill="none" stroke="black" points="305,-431 305,-449 372,-449 372,-431 305,-431"/>
<text text-anchor="start" x="353" y="-437.2" font-family="Helvetica,sans-Serif" font-size="11.00">4 &gt;</text>
<polygon fill="none" stroke="black" stroke-width="2" points="165,-430 165,-582 373,-582 373,-430 165,-430"/>
</a>
</g>
</g>
<!-- aggregate_impacts&#45;&gt;scenarios -->
<g id="edge2" class="edge">
<title>aggregate_impacts:w&#45;&gt;scenarios:e</title>
<path fill="none" stroke="black" d="M449.96,-300.28C408.11,-336.62 427.58,-548 373,-548"/>
<polygon fill="black" stroke="black" points="456.05,-297.91 464.81,-298.35 459.77,-296.45 463.5,-295 463.5,-295 463.5,-295 459.77,-296.45 462.19,-291.65 456.05,-297.91 456.05,-297.91"/>
<ellipse fill="none" stroke="black" cx="453.07" cy="-299.07" rx="3.2" ry="3.2"/>
</g>
<!-- aggregate_risks -->
<g id="node4" class="node">
<title>aggregate_risks</title>
<g id="a_node4"><a xlink:href="../../tables/aggregate_risks.html" xlink:title="aggregate_risks" target="_top">
<polygon fill="#ffffff" stroke="transparent" points="448,-780 448,-992 625,-992 625,-780 448,-780"/>
<polygon fill="#f5f5f5" stroke="transparent" points="448.5,-970 448.5,-992 625.5,-992 625.5,-970 448.5,-970"/>
<polygon fill="none" stroke="black" points="448.5,-970 448.5,-992 625.5,-992 625.5,-970 448.5,-970"/>
<text text-anchor="start" x="453.5" y="-979.2" font-family="Helvetica,sans-Serif" font-weight="bold" font-size="11.00">aggregate_risks</text>
<text text-anchor="start" x="590.5" y="-978.2" font-family="Helvetica,sans-Serif" font-size="11.00">[table]</text>
<polygon fill="none" stroke="black" points="448.5,-948 448.5,-970 625.5,-970 625.5,-948 448.5,-948"/>
<image xlink:href="../../images/primaryKeys.png" width="11px" height="12px" preserveAspectRatio="xMinYMin meet" x="453.5" y="-965"/>
<text text-anchor="start" x="468.5" y="-956.2" font-family="Helvetica,sans-Serif" font-size="11.00">customer_id</text>
<polygon fill="none" stroke="black" points="448.5,-926 448.5,-948 625.5,-948 625.5,-926 448.5,-926"/>
<image xlink:href="../../images/primaryKeys.png" width="11px" height="12px" preserveAspectRatio="xMinYMin meet" x="453.5" y="-943"/>
<text text-anchor="start" x="468.5" y="-934.2" font-family="Helvetica,sans-Serif" font-size="11.00">entity_type</text>
<polygon fill="none" stroke="black" points="448.5,-904 448.5,-926 625.5,-926 625.5,-904 448.5,-904"/>
<image xlink:href="../../images/primaryKeys.png" width="11px" height="12px" preserveAspectRatio="xMinYMin meet" x="453.5" y="-921"/>
<text text-anchor="start" x="468.5" y="-912.2" font-family="Helvetica,sans-Serif" font-size="11.00">entity_id</text>
<polygon fill="none" stroke="black" points="448.5,-882 448.5,-904 625.5,-904 625.5,-882 448.5,-882"/>
<image xlink:href="../../images/primaryKeys.png" width="11px" height="12px" preserveAspectRatio="xMinYMin meet" x="453.5" y="-899"/>
<text text-anchor="start" x="468.5" y="-890.2" font-family="Helvetica,sans-Serif" font-size="11.00">scenario_id</text>
<polygon fill="none" stroke="black" points="448.5,-860 448.5,-882 625.5,-882 625.5,-860 448.5,-860"/>
<image xlink:href="../../images/primaryKeys.png" width="11px" height="12px" preserveAspectRatio="xMinYMin meet" x="453.5" y="-877"/>
<text text-anchor="start" x="468.5" y="-868.2" font-family="Helvetica,sans-Serif" font-size="11.00">decade</text>
<polygon fill="none" stroke="black" points="448.5,-838 448.5,-860 625.5,-860 625.5,-838 448.5,-838"/>
<image xlink:href="../../images/primaryKeys.png" width="11px" height="12px" preserveAspectRatio="xMinYMin meet" x="453.5" y="-855"/>
<text text-anchor="start" x="468.5" y="-846.2" font-family="Helvetica,sans-Serif" font-size="11.00">hazard_metric_id</text>
<polygon fill="none" stroke="black" points="448.5,-816 448.5,-838 625.5,-838 625.5,-816 448.5,-816"/>
<image xlink:href="../../images/primaryKeys.png" width="11px" height="12px" preserveAspectRatio="xMinYMin meet" x="453.5" y="-833"/>
<text text-anchor="start" x="468.5" y="-824.2" font-family="Helvetica,sans-Serif" font-size="11.00">risk_factor_id</text>
<polygon fill="none" stroke="black" points="448.5,-798 448.5,-816 625.5,-816 625.5,-798 448.5,-798"/>
<text text-anchor="start" x="451.5" y="-804.2" font-family="Helvetica,sans-Serif" font-size="11.00">...</text>
<polygon fill="#ffffff" stroke="transparent" points="448.5,-780 448.5,-798 504.5,-798 504.5,-780 448.5,-780"/>
<polygon fill="none" stroke="black" points="448.5,-780 448.5,-798 504.5,-798 504.5,-780 448.5,-780"/>
<text text-anchor="start" x="451.5" y="-786.2" font-family="Helvetica,sans-Serif" font-size="11.00">&lt; 4</text>
<polygon fill="#ffffff" stroke="transparent" points="504.5,-780 504.5,-798 594.5,-798 594.5,-780 504.5,-780"/>
<polygon fill="none" stroke="black" points="504.5,-780 504.5,-798 594.5,-798 594.5,-780 504.5,-780"/>
<text text-anchor="start" x="524.5" y="-786.2" font-family="Helvetica,sans-Serif" font-size="11.00">133,008 rows</text>
<polygon fill="#ffffff" stroke="transparent" points="594.5,-780 594.5,-798 625.5,-798 625.5,-780 594.5,-780"/>
<polygon fill="none" stroke="black" points="594.5,-780 594.5,-798 625.5,-798 625.5,-780 594.5,-780"/>
<text text-anchor="start" x="615.5" y="-786.2" font-family="Helvetica,sans-Serif" font-size="11.00"> &#160;</text>
</a>
</g>
</g>
<!-- aggregate_risks&#45;&gt;risk_factors -->
<g id="edge5" class="edge">
<title>aggregate_risks:w&#45;&gt;risk_factors:e</title>
<path fill="none" stroke="black" d="M433.15,-824.42C410.56,-814.99 412.46,-782.32 382,-770 272.46,-725.69 234.66,-756 116.5,-756"/>
<polygon fill="black" stroke="black" points="439.63,-825.58 446.86,-830.54 443.56,-826.29 447.5,-827 447.5,-827 447.5,-827 443.56,-826.29 448.14,-823.46 439.63,-825.58 439.63,-825.58"/>
<ellipse fill="none" stroke="black" cx="436.48" cy="-825.02" rx="3.2" ry="3.2"/>
</g>
<!-- aggregate_risks&#45;&gt;scenarios -->
<g id="edge6" class="edge">
<title>aggregate_risks:w&#45;&gt;scenarios:e</title>
<path fill="none" stroke="black" d="M433.57,-888.38C379.58,-847.44 446.07,-548 373,-548"/>
<polygon fill="black" stroke="black" points="439.91,-890.48 446.37,-896.42 443.7,-891.74 447.5,-893 447.5,-893 447.5,-893 443.7,-891.74 448.63,-889.58 439.91,-890.48 439.91,-890.48"/>
<ellipse fill="none" stroke="black" cx="436.87" cy="-889.48" rx="3.2" ry="3.2"/>
</g>
<!-- customers -->
<g id="node5" class="node">
<title>customers</title>
<g id="a_node5"><a xlink:href="../../tables/customers.html" xlink:title="customers" target="_top">
<polygon fill="#ffffff" stroke="transparent" points="219,-932 219,-990 319,-990 319,-932 219,-932"/>
<polygon fill="#f5f5f5" stroke="transparent" points="219,-968 219,-990 319,-990 319,-968 219,-968"/>
<polygon fill="none" stroke="black" points="219,-968 219,-990 319,-990 319,-968 219,-968"/>
<text text-anchor="start" x="224" y="-977.2" font-family="Helvetica,sans-Serif" font-weight="bold" font-size="11.00">customers</text>
<text text-anchor="start" x="284" y="-976.2" font-family="Helvetica,sans-Serif" font-size="11.00">[table]</text>
<polygon fill="none" stroke="black" points="219,-950 219,-968 319,-968 319,-950 219,-950"/>
<text text-anchor="start" x="222" y="-956.2" font-family="Helvetica,sans-Serif" font-size="11.00">...</text>
<polygon fill="#ffffff" stroke="transparent" points="219,-932 219,-950 238,-950 238,-932 219,-932"/>
<polygon fill="none" stroke="black" points="219,-932 219,-950 238,-950 238,-932 219,-932"/>
<text text-anchor="start" x="222" y="-938.2" font-family="Helvetica,sans-Serif" font-size="11.00"> &#160;</text>
<polygon fill="#ffffff" stroke="transparent" points="238,-932 238,-950 293,-950 293,-932 238,-932"/>
<polygon fill="none" stroke="black" points="238,-932 238,-950 293,-950 293,-932 238,-932"/>
<text text-anchor="start" x="244" y="-938.2" font-family="Helvetica,sans-Serif" font-size="11.00">938 rows</text>
<polygon fill="#ffffff" stroke="transparent" points="293,-932 293,-950 319,-950 319,-932 293,-932"/>
<polygon fill="none" stroke="black" points="293,-932 293,-950 319,-950 319,-932 293,-932"/>
<text text-anchor="start" x="300" y="-938.2" font-family="Helvetica,sans-Serif" font-size="11.00">5 &gt;</text>
</a>
</g>
</g>
<!-- aggregate_risks&#45;&gt;customers -->
<g id="edge3" class="edge">
<title>aggregate_risks:w&#45;&gt;customers:e</title>
<path fill="none" stroke="black" d="M432.9,-959C387.87,-959 371.46,-959 320,-959"/>
<polygon fill="black" stroke="black" points="439.5,-959 447.5,-962.6 443.5,-959 447.5,-959 447.5,-959 447.5,-959 443.5,-959 447.5,-955.4 439.5,-959 439.5,-959"/>
<ellipse fill="none" stroke="black" cx="436.3" cy="-959" rx="3.2" ry="3.2"/>
</g>
<!-- hazard_metrics -->
<g id="node6" class="node">
<title>hazard_metrics</title>
<g id="a_node6"><a xlink:href="../../tables/hazard_metrics.html" xlink:title="hazard_metrics" target="_top">
<polygon fill="#ffffff" stroke="transparent" points="206,-780 206,-838 332,-838 332,-780 206,-780"/>
<polygon fill="#f5f5f5" stroke="transparent" points="206,-816 206,-838 332,-838 332,-816 206,-816"/>
<polygon fill="none" stroke="black" points="206,-816 206,-838 332,-838 332,-816 206,-816"/>
<text text-anchor="start" x="211" y="-825.2" font-family="Helvetica,sans-Serif" font-weight="bold" font-size="11.00">hazard_metrics</text>
<text text-anchor="start" x="297" y="-824.2" font-family="Helvetica,sans-Serif" font-size="11.00">[table]</text>
<polygon fill="none" stroke="black" points="206,-798 206,-816 332,-816 332,-798 206,-798"/>
<text text-anchor="start" x="209" y="-804.2" font-family="Helvetica,sans-Serif" font-size="11.00">...</text>
<polygon fill="#ffffff" stroke="transparent" points="206,-780 206,-798 246,-798 246,-780 206,-780"/>
<polygon fill="none" stroke="black" points="206,-780 206,-798 246,-798 246,-780 206,-780"/>
<text text-anchor="start" x="209" y="-786.2" font-family="Helvetica,sans-Serif" font-size="11.00">&lt; 1</text>
<polygon fill="#ffffff" stroke="transparent" points="246,-780 246,-798 301,-798 301,-780 246,-780"/>
<polygon fill="none" stroke="black" points="246,-780 246,-798 301,-798 301,-780 246,-780"/>
<text text-anchor="start" x="258" y="-786.2" font-family="Helvetica,sans-Serif" font-size="11.00">15 rows</text>
<polygon fill="#ffffff" stroke="transparent" points="301,-780 301,-798 332,-798 332,-780 301,-780"/>
<polygon fill="none" stroke="black" points="301,-780 301,-798 332,-798 332,-780 301,-780"/>
<text text-anchor="start" x="313" y="-786.2" font-family="Helvetica,sans-Serif" font-size="11.00">3 &gt;</text>
</a>
</g>
</g>
<!-- aggregate_risks&#45;&gt;hazard_metrics -->
<g id="edge4" class="edge">
<title>aggregate_risks:w&#45;&gt;hazard_metrics:e</title>
<path fill="none" stroke="black" d="M432.91,-847.88C391.65,-841.2 381.91,-807 333,-807"/>
<polygon fill="black" stroke="black" points="439.52,-848.39 447.22,-852.59 443.51,-848.69 447.5,-849 447.5,-849 447.5,-849 443.51,-848.69 447.78,-845.41 439.52,-848.39 439.52,-848.39"/>
<ellipse fill="none" stroke="black" cx="436.33" cy="-848.14" rx="3.2" ry="3.2"/>
</g>
<!-- hazard_metrics&#45;&gt;risk_factors -->
<g id="edge10" class="edge">
<title>hazard_metrics:w&#45;&gt;risk_factors:e</title>
<path fill="none" stroke="black" d="M190.44,-804.94C159.46,-795.4 156.4,-756 116.5,-756"/>
<polygon fill="black" stroke="black" points="197.08,-805.88 204.5,-810.56 201.04,-806.44 205,-807 205,-807 205,-807 201.04,-806.44 205.5,-803.44 197.08,-805.88 197.08,-805.88"/>
<ellipse fill="none" stroke="black" cx="193.91" cy="-805.43" rx="3.2" ry="3.2"/>
</g>
<!-- decadal_states -->
<g id="node7" class="node">
<title>decadal_states</title>
<g id="a_node7"><a xlink:href="../../tables/decadal_states.html" xlink:title="decadal_states" target="_top">
<polygon fill="#ffffff" stroke="transparent" points="423,-459 423,-759 650,-759 650,-459 423,-459"/>
<polygon fill="#f5f5f5" stroke="transparent" points="423.5,-737 423.5,-759 650.5,-759 650.5,-737 423.5,-737"/>
<polygon fill="none" stroke="black" points="423.5,-737 423.5,-759 650.5,-759 650.5,-737 423.5,-737"/>
<text text-anchor="start" x="428.5" y="-746.2" font-family="Helvetica,sans-Serif" font-weight="bold" font-size="11.00">decadal_states</text>
<text text-anchor="start" x="615.5" y="-745.2" font-family="Helvetica,sans-Serif" font-size="11.00">[table]</text>
<polygon fill="none" stroke="black" points="423.5,-715 423.5,-737 650.5,-737 650.5,-715 423.5,-715"/>
<image xlink:href="../../images/primaryKeys.png" width="11px" height="12px" preserveAspectRatio="xMinYMin meet" x="428.5" y="-732"/>
<text text-anchor="start" x="443.5" y="-723.2" font-family="Helvetica,sans-Serif" font-size="11.00">id</text>
<polygon fill="#ffffff" stroke="transparent" points="423.5,-693 423.5,-715 650.5,-715 650.5,-693 423.5,-693"/>
<polygon fill="none" stroke="black" points="423.5,-693 423.5,-715 650.5,-715 650.5,-693 423.5,-693"/>
<text text-anchor="start" x="443.5" y="-701.2" font-family="Helvetica,sans-Serif" font-size="11.00">grid_square_id</text>
<polygon fill="#ffffff" stroke="transparent" points="423.5,-671 423.5,-693 650.5,-693 650.5,-671 423.5,-671"/>
<polygon fill="none" stroke="black" points="423.5,-671 423.5,-693 650.5,-693 650.5,-671 423.5,-671"/>
<text text-anchor="start" x="443.5" y="-679.2" font-family="Helvetica,sans-Serif" font-size="11.00">point_loc_id</text>
<polygon fill="#ffffff" stroke="transparent" points="423.5,-649 423.5,-671 650.5,-671 650.5,-649 423.5,-649"/>
<polygon fill="none" stroke="black" points="423.5,-649 423.5,-671 650.5,-671 650.5,-649 423.5,-649"/>
<image xlink:href="../../images/foreignKeys.png" width="11px" height="12px" preserveAspectRatio="xMinYMin meet" x="428.5" y="-666"/>
<text text-anchor="start" x="443.5" y="-657.2" font-family="Helvetica,sans-Serif" font-size="11.00">region_id</text>
<polygon fill="#ffffff" stroke="transparent" points="423.5,-627 423.5,-649 650.5,-649 650.5,-627 423.5,-627"/>
<polygon fill="none" stroke="black" points="423.5,-627 423.5,-649 650.5,-649 650.5,-627 423.5,-627"/>
<text text-anchor="start" x="443.5" y="-635.2" font-family="Helvetica,sans-Serif" font-size="11.00">decadal_state_type</text>
<polygon fill="#ffffff" stroke="transparent" points="423.5,-605 423.5,-627 650.5,-627 650.5,-605 423.5,-605"/>
<polygon fill="none" stroke="black" points="423.5,-605 423.5,-627 650.5,-627 650.5,-605 423.5,-605"/>
<image xlink:href="../../images/foreignKeys.png" width="11px" height="12px" preserveAspectRatio="xMinYMin meet" x="428.5" y="-622"/>
<text text-anchor="start" x="443.5" y="-613.2" font-family="Helvetica,sans-Serif" font-size="11.00">hazard_metric_id</text>
<polygon fill="#ffffff" stroke="transparent" points="423.5,-583 423.5,-605 650.5,-605 650.5,-583 423.5,-583"/>
<polygon fill="none" stroke="black" points="423.5,-583 423.5,-605 650.5,-605 650.5,-583 423.5,-583"/>
<image xlink:href="../../images/foreignKeys.png" width="11px" height="12px" preserveAspectRatio="xMinYMin meet" x="428.5" y="-600"/>
<text text-anchor="start" x="443.5" y="-591.2" font-family="Helvetica,sans-Serif" font-size="11.00">scenario_id</text>
<polygon fill="#ffffff" stroke="transparent" points="423.5,-561 423.5,-583 650.5,-583 650.5,-561 423.5,-561"/>
<polygon fill="none" stroke="black" points="423.5,-561 423.5,-583 650.5,-583 650.5,-561 423.5,-561"/>
<text text-anchor="start" x="443.5" y="-569.2" font-family="Helvetica,sans-Serif" font-size="11.00">decade</text>
<polygon fill="#ffffff" stroke="transparent" points="423.5,-539 423.5,-561 650.5,-561 650.5,-539 423.5,-539"/>
<polygon fill="none" stroke="black" points="423.5,-539 423.5,-561 650.5,-561 650.5,-539 423.5,-539"/>
<text text-anchor="start" x="443.5" y="-547.2" font-family="Helvetica,sans-Serif" font-size="11.00">proc_flag_decadal_states_calc</text>
<polygon fill="#ffffff" stroke="transparent" points="423.5,-517 423.5,-539 650.5,-539 650.5,-517 423.5,-517"/>
<polygon fill="none" stroke="black" points="423.5,-517 423.5,-539 650.5,-539 650.5,-517 423.5,-517"/>
<text text-anchor="start" x="443.5" y="-525.2" font-family="Helvetica,sans-Serif" font-size="11.00">not_in_model</text>
<polygon fill="#ffffff" stroke="transparent" points="423.5,-495 423.5,-517 650.5,-517 650.5,-495 423.5,-495"/>
<polygon fill="none" stroke="black" points="423.5,-495 423.5,-517 650.5,-517 650.5,-495 423.5,-495"/>
<text text-anchor="start" x="443.5" y="-503.2" font-family="Helvetica,sans-Serif" font-size="11.00">batch_id</text>
<polygon fill="none" stroke="black" points="423.5,-477 423.5,-495 650.5,-495 650.5,-477 423.5,-477"/>
<text text-anchor="start" x="426.5" y="-483.2" font-family="Helvetica,sans-Serif" font-size="11.00">...</text>
<polygon fill="#ffffff" stroke="transparent" points="423.5,-459 423.5,-477 500.5,-477 500.5,-459 423.5,-459"/>
<polygon fill="none" stroke="black" points="423.5,-459 423.5,-477 500.5,-477 500.5,-459 423.5,-459"/>
<text text-anchor="start" x="426.5" y="-465.2" font-family="Helvetica,sans-Serif" font-size="11.00">&lt; 3</text>
<polygon fill="#ffffff" stroke="transparent" points="500.5,-459 500.5,-477 609.5,-477 609.5,-459 500.5,-459"/>
<polygon fill="none" stroke="black" points="500.5,-459 500.5,-477 609.5,-477 609.5,-459 500.5,-459"/>
<text text-anchor="start" x="530.5" y="-465.2" font-family="Helvetica,sans-Serif" font-size="11.00">7,749,532 rows</text>
<polygon fill="#ffffff" stroke="transparent" points="609.5,-459 609.5,-477 650.5,-477 650.5,-459 609.5,-459"/>
<polygon fill="none" stroke="black" points="609.5,-459 609.5,-477 650.5,-477 650.5,-459 609.5,-459"/>
<text text-anchor="start" x="640.5" y="-465.2" font-family="Helvetica,sans-Serif" font-size="11.00"> &#160;</text>
</a>
</g>
</g>
<!-- decadal_states&#45;&gt;scenarios -->
<g id="edge9" class="edge">
<title>decadal_states:w&#45;&gt;scenarios:e</title>
<path fill="none" stroke="black" d="M408.54,-589.08C395.08,-577.21 396.93,-548 373,-548"/>
<polygon fill="black" stroke="black" points="414.96,-591.34 421.3,-597.39 418.73,-592.67 422.5,-594 422.5,-594 422.5,-594 418.73,-592.67 423.7,-590.61 414.96,-591.34 414.96,-591.34"/>
<ellipse fill="none" stroke="black" cx="411.94" cy="-590.27" rx="3.2" ry="3.2"/>
</g>
<!-- decadal_states&#45;&gt;hazard_metrics -->
<g id="edge7" class="edge">
<title>decadal_states:w&#45;&gt;hazard_metrics:e</title>
<path fill="none" stroke="black" d="M415.69,-628.83C395.13,-671.65 335.47,-807 333,-807"/>
<polygon fill="black" stroke="black" points="418.75,-623.07 425.68,-617.69 420.62,-619.53 422.5,-616 422.5,-616 422.5,-616 420.62,-619.53 419.32,-614.31 418.75,-623.07 418.75,-623.07"/>
<ellipse fill="none" stroke="black" cx="417.25" cy="-625.89" rx="3.2" ry="3.2"/>
</g>
<!-- regions -->
<g id="node8" class="node">
<title>regions</title>
<g id="a_node8"><a xlink:href="../../tables/regions.html" xlink:title="regions" target="_top">
<polygon fill="#ffffff" stroke="transparent" points="226.5,-633 226.5,-691 311.5,-691 311.5,-633 226.5,-633"/>
<polygon fill="#f5f5f5" stroke="transparent" points="227,-669 227,-691 312,-691 312,-669 227,-669"/>
<polygon fill="none" stroke="black" points="227,-669 227,-691 312,-691 312,-669 227,-669"/>
<text text-anchor="start" x="232" y="-678.2" font-family="Helvetica,sans-Serif" font-weight="bold" font-size="11.00">regions</text>
<text text-anchor="start" x="277" y="-677.2" font-family="Helvetica,sans-Serif" font-size="11.00">[table]</text>
<polygon fill="none" stroke="black" points="227,-651 227,-669 312,-669 312,-651 227,-651"/>
<text text-anchor="start" x="230" y="-657.2" font-family="Helvetica,sans-Serif" font-size="11.00">...</text>
<polygon fill="#ffffff" stroke="transparent" points="227,-633 227,-651 245,-651 245,-633 227,-633"/>
<polygon fill="none" stroke="black" points="227,-633 227,-651 245,-651 245,-633 227,-633"/>
<text text-anchor="start" x="230" y="-639.2" font-family="Helvetica,sans-Serif" font-size="11.00"> &#160;</text>
<polygon fill="#ffffff" stroke="transparent" points="245,-633 245,-651 287,-651 287,-633 245,-633"/>
<polygon fill="none" stroke="black" points="245,-633 245,-651 287,-651 287,-633 245,-633"/>
<text text-anchor="start" x="250" y="-639.2" font-family="Helvetica,sans-Serif" font-size="11.00">5 rows</text>
<polygon fill="#ffffff" stroke="transparent" points="287,-633 287,-651 312,-651 312,-633 287,-633"/>
<polygon fill="none" stroke="black" points="287,-633 287,-651 312,-651 312,-633 287,-633"/>
<text text-anchor="start" x="293" y="-639.2" font-family="Helvetica,sans-Serif" font-size="11.00">3 &gt;</text>
</a>
</g>
</g>
<!-- decadal_states&#45;&gt;regions -->
<g id="edge8" class="edge">
<title>decadal_states:w&#45;&gt;regions:e</title>
<path fill="none" stroke="black" d="M407.75,-660C370.74,-660 356.34,-660 313,-660"/>
<polygon fill="black" stroke="black" points="414.5,-660 422.5,-663.6 418.5,-660 422.5,-660 422.5,-660 422.5,-660 418.5,-660 422.5,-656.4 414.5,-660 414.5,-660"/>
<ellipse fill="none" stroke="black" cx="411.3" cy="-660" rx="3.2" ry="3.2"/>
</g>
<!-- risks -->
<g id="node9" class="node">
<title>risks</title>
<g id="a_node9"><a xlink:href="../../tables/risks.html" xlink:title="risks" target="_top">
<polygon fill="#ffffff" stroke="transparent" points="471,-37 471,-205 602,-205 602,-37 471,-37"/>
<polygon fill="#f5f5f5" stroke="transparent" points="471.5,-183 471.5,-205 602.5,-205 602.5,-183 471.5,-183"/>
<polygon fill="none" stroke="black" points="471.5,-183 471.5,-205 602.5,-205 602.5,-183 471.5,-183"/>
<text text-anchor="start" x="476.5" y="-192.2" font-family="Helvetica,sans-Serif" font-weight="bold" font-size="11.00">risks</text>
<text text-anchor="start" x="567.5" y="-191.2" font-family="Helvetica,sans-Serif" font-size="11.00">[table]</text>
<polygon fill="none" stroke="black" points="471.5,-161 471.5,-183 602.5,-183 602.5,-161 471.5,-161"/>
<image xlink:href="../../images/primaryKeys.png" width="11px" height="12px" preserveAspectRatio="xMinYMin meet" x="476.5" y="-178"/>
<text text-anchor="start" x="491.5" y="-169.2" font-family="Helvetica,sans-Serif" font-size="11.00">id</text>
<polygon fill="#ffffff" stroke="transparent" points="471.5,-139 471.5,-161 602.5,-161 602.5,-139 471.5,-139"/>
<polygon fill="none" stroke="black" points="471.5,-139 471.5,-161 602.5,-161 602.5,-139 471.5,-139"/>
<image xlink:href="../../images/foreignKeys.png" width="11px" height="12px" preserveAspectRatio="xMinYMin meet" x="476.5" y="-156"/>
<text text-anchor="start" x="491.5" y="-147.2" font-family="Helvetica,sans-Serif" font-size="11.00">location_id</text>
<polygon fill="#ffffff" stroke="transparent" points="471.5,-117 471.5,-139 602.5,-139 602.5,-117 471.5,-117"/>
<polygon fill="none" stroke="black" points="471.5,-117 471.5,-139 602.5,-139 602.5,-117 471.5,-117"/>
<image xlink:href="../../images/foreignKeys.png" width="11px" height="12px" preserveAspectRatio="xMinYMin meet" x="476.5" y="-134"/>
<text text-anchor="start" x="491.5" y="-125.2" font-family="Helvetica,sans-Serif" font-size="11.00">impact_pathway_id</text>
<polygon fill="#ffffff" stroke="transparent" points="471.5,-95 471.5,-117 602.5,-117 602.5,-95 471.5,-95"/>
<polygon fill="none" stroke="black" points="471.5,-95 471.5,-117 602.5,-117 602.5,-95 471.5,-95"/>
<image xlink:href="../../images/foreignKeys.png" width="11px" height="12px" preserveAspectRatio="xMinYMin meet" x="476.5" y="-112"/>
<text text-anchor="start" x="491.5" y="-103.2" font-family="Helvetica,sans-Serif" font-size="11.00">scenario_id</text>
<polygon fill="#ffffff" stroke="transparent" points="471.5,-73 471.5,-95 602.5,-95 602.5,-73 471.5,-73"/>
<polygon fill="none" stroke="black" points="471.5,-73 471.5,-95 602.5,-95 602.5,-73 471.5,-73"/>
<text text-anchor="start" x="491.5" y="-81.2" font-family="Helvetica,sans-Serif" font-size="11.00">yr</text>
<polygon fill="none" stroke="black" points="471.5,-55 471.5,-73 602.5,-73 602.5,-55 471.5,-55"/>
<text text-anchor="start" x="474.5" y="-61.2" font-family="Helvetica,sans-Serif" font-size="11.00">...</text>
<polygon fill="#ffffff" stroke="transparent" points="471.5,-37 471.5,-55 497.5,-55 497.5,-37 471.5,-37"/>
<polygon fill="none" stroke="black" points="471.5,-37 471.5,-55 497.5,-55 497.5,-37 471.5,-37"/>
<text text-anchor="start" x="474.5" y="-43.2" font-family="Helvetica,sans-Serif" font-size="11.00">&lt; 3</text>
<polygon fill="#ffffff" stroke="transparent" points="497.5,-37 497.5,-55 587.5,-55 587.5,-37 497.5,-37"/>
<polygon fill="none" stroke="black" points="497.5,-37 497.5,-55 587.5,-55 587.5,-37 497.5,-37"/>
<text text-anchor="start" x="502.5" y="-43.2" font-family="Helvetica,sans-Serif" font-size="11.00">28,657,312 rows</text>
<polygon fill="#ffffff" stroke="transparent" points="587.5,-37 587.5,-55 602.5,-55 602.5,-37 587.5,-37"/>
<polygon fill="none" stroke="black" points="587.5,-37 587.5,-55 602.5,-55 602.5,-37 587.5,-37"/>
<text text-anchor="start" x="592.5" y="-43.2" font-family="Helvetica,sans-Serif" font-size="11.00"> &#160;</text>
</a>
</g>
</g>
<!-- risks&#45;&gt;scenarios -->
<g id="edge13" class="edge">
<title>risks:w&#45;&gt;scenarios:e</title>
<path fill="none" stroke="black" d="M455.88,-107.72C418.52,-117.65 429.38,-168.95 415,-216 393.27,-287.12 447.37,-548 373,-548"/>
<polygon fill="black" stroke="black" points="462.55,-106.93 470.92,-109.58 466.53,-106.47 470.5,-106 470.5,-106 470.5,-106 466.53,-106.47 470.08,-102.42 462.55,-106.93 462.55,-106.93"/>
<ellipse fill="none" stroke="black" cx="459.38" cy="-107.31" rx="3.2" ry="3.2"/>
</g>
<!-- impact_pathways -->
<g id="node10" class="node">
<title>impact_pathways</title>
<g id="a_node10"><a xlink:href="../../tables/impact_pathways.html" xlink:title="impact_pathways" target="_top">
<polygon fill="#ffffff" stroke="transparent" points="202,-73 202,-131 336,-131 336,-73 202,-73"/>
<polygon fill="#f5f5f5" stroke="transparent" points="202,-109 202,-131 336,-131 336,-109 202,-109"/>
<polygon fill="none" stroke="black" points="202,-109 202,-131 336,-131 336,-109 202,-109"/>
<text text-anchor="start" x="207" y="-118.2" font-family="Helvetica,sans-Serif" font-weight="bold" font-size="11.00">impact_pathways</text>
<text text-anchor="start" x="301" y="-117.2" font-family="Helvetica,sans-Serif" font-size="11.00">[table]</text>
<polygon fill="none" stroke="black" points="202,-91 202,-109 336,-109 336,-91 202,-91"/>
<text text-anchor="start" x="205" y="-97.2" font-family="Helvetica,sans-Serif" font-size="11.00">...</text>
<polygon fill="#ffffff" stroke="transparent" points="202,-73 202,-91 234,-91 234,-73 202,-73"/>
<polygon fill="none" stroke="black" points="202,-73 202,-91 234,-91 234,-73 202,-73"/>
<text text-anchor="start" x="205" y="-79.2" font-family="Helvetica,sans-Serif" font-size="11.00"> &#160;</text>
<polygon fill="#ffffff" stroke="transparent" points="234,-73 234,-91 304,-91 304,-73 234,-73"/>
<polygon fill="none" stroke="black" points="234,-73 234,-91 304,-91 304,-73 234,-73"/>
<text text-anchor="start" x="246" y="-79.2" font-family="Helvetica,sans-Serif" font-size="11.00">5,279 rows</text>
<polygon fill="#ffffff" stroke="transparent" points="304,-73 304,-91 336,-91 336,-73 304,-73"/>
<polygon fill="none" stroke="black" points="304,-73 304,-91 336,-91 336,-73 304,-73"/>
<text text-anchor="start" x="317" y="-79.2" font-family="Helvetica,sans-Serif" font-size="11.00">1 &gt;</text>
</a>
</g>
</g>
<!-- risks&#45;&gt;impact_pathways -->
<g id="edge11" class="edge">
<title>risks:w&#45;&gt;impact_pathways:e</title>
<path fill="none" stroke="black" d="M455.88,-127.42C407.41,-123.39 392.41,-100 337,-100"/>
<polygon fill="black" stroke="black" points="462.51,-127.68 470.36,-131.6 466.5,-127.84 470.5,-128 470.5,-128 470.5,-128 466.5,-127.84 470.64,-124.4 462.51,-127.68 462.51,-127.68"/>
<ellipse fill="none" stroke="black" cx="459.31" cy="-127.55" rx="3.2" ry="3.2"/>
</g>
<!-- locations -->
<g id="node11" class="node">
<title>locations</title>
<g id="a_node11"><a xlink:href="../../tables/locations.html" xlink:title="locations" target="_top">
<polygon fill="#ffffff" stroke="transparent" points="213.5,-152 213.5,-210 324.5,-210 324.5,-152 213.5,-152"/>
<polygon fill="#f5f5f5" stroke="transparent" points="214,-188 214,-210 325,-210 325,-188 214,-188"/>
<polygon fill="none" stroke="black" points="214,-188 214,-210 325,-210 325,-188 214,-188"/>
<text text-anchor="start" x="219" y="-197.2" font-family="Helvetica,sans-Serif" font-weight="bold" font-size="11.00">locations</text>
<text text-anchor="start" x="290" y="-196.2" font-family="Helvetica,sans-Serif" font-size="11.00">[table]</text>
<polygon fill="none" stroke="black" points="214,-170 214,-188 325,-188 325,-170 214,-170"/>
<text text-anchor="start" x="217" y="-176.2" font-family="Helvetica,sans-Serif" font-size="11.00">...</text>
<polygon fill="#ffffff" stroke="transparent" points="214,-152 214,-170 236,-170 236,-152 214,-152"/>
<polygon fill="none" stroke="black" points="214,-152 214,-170 236,-170 236,-152 214,-152"/>
<text text-anchor="start" x="217" y="-158.2" font-family="Helvetica,sans-Serif" font-size="11.00">&lt; 2</text>
<polygon fill="#ffffff" stroke="transparent" points="236,-152 236,-170 303,-170 303,-152 236,-152"/>
<polygon fill="none" stroke="black" points="236,-152 236,-170 303,-170 303,-152 236,-152"/>
<text text-anchor="start" x="239" y="-158.2" font-family="Helvetica,sans-Serif" font-size="11.00">81,629 rows</text>
<polygon fill="#ffffff" stroke="transparent" points="303,-152 303,-170 325,-170 325,-152 303,-152"/>
<polygon fill="none" stroke="black" points="303,-152 303,-170 325,-170 325,-152 303,-152"/>
<text text-anchor="start" x="306" y="-158.2" font-family="Helvetica,sans-Serif" font-size="11.00">3 &gt;</text>
</a>
</g>
</g>
<!-- risks&#45;&gt;locations -->
<g id="edge12" class="edge">
<title>risks:w&#45;&gt;locations:e</title>
<path fill="none" stroke="black" d="M456.05,-150.5C402.57,-154.35 386.39,-179 326,-179"/>
<polygon fill="black" stroke="black" points="462.5,-150.28 470.63,-153.6 466.5,-150.14 470.5,-150 470.5,-150 470.5,-150 466.5,-150.14 470.37,-146.4 462.5,-150.28 462.5,-150.28"/>
<ellipse fill="none" stroke="black" cx="459.31" cy="-150.39" rx="3.2" ry="3.2"/>
</g>
</g>
</svg>
