<?xml version="1.0" encoding="UTF-8" standalone="no"?>
<!DOCTYPE svg PUBLIC "-//W3C//DTD SVG 1.1//EN"
 "http://www.w3.org/Graphics/SVG/1.1/DTD/svg11.dtd">
<!-- Generated by graphviz version 2.50.0 (20211204.2007)
 -->
<!-- Title: twoDegreesRelationshipsDiagram Pages: 1 -->
<svg width="363pt" height="282pt"
 viewBox="0.00 0.00 363.00 282.00" xmlns="http://www.w3.org/2000/svg" xmlns:xlink="http://www.w3.org/1999/xlink">
<g id="graph0" class="graph" transform="scale(1 1) rotate(0) translate(4 278)">
<title>twoDegreesRelationshipsDiagram</title>
<polygon fill="#ffffff" stroke="transparent" points="-4,4 -4,-278 359,-278 359,4 -4,4"/>
<text text-anchor="middle" x="72.5" y="-7.2" font-family="Helvetica,sans-Serif" font-size="11.00">Generated by SchemaSpy</text>
<!-- roles_scopes -->
<g id="node1" class="node">
<title>roles_scopes</title>
<g id="a_node1"><a xlink:href="../../tables/roles_scopes.html" xlink:title="roles_scopes" target="_top">
<polygon fill="#ffffff" stroke="transparent" points="231,-139 231,-263 347,-263 347,-139 231,-139"/>
<polygon fill="#f5f5f5" stroke="transparent" points="231,-241 231,-263 347,-263 347,-241 231,-241"/>
<polygon fill="none" stroke="black" points="231,-241 231,-263 347,-263 347,-241 231,-241"/>
<text text-anchor="start" x="236" y="-250.2" font-family="Helvetica,sans-Serif" font-weight="bold" font-size="11.00">roles_scopes</text>
<text text-anchor="start" x="312" y="-249.2" font-family="Helvetica,sans-Serif" font-size="11.00">[table]</text>
<polygon fill="none" stroke="black" points="231,-219 231,-241 347,-241 347,-219 231,-219"/>
<image xlink:href="../../images/primaryKeys.png" width="11px" height="12px" preserveAspectRatio="xMinYMin meet" x="236" y="-236"/>
<text text-anchor="start" x="261" y="-227.2" font-family="Helvetica,sans-Serif" font-size="11.00">id</text>
<polygon fill="#ffffff" stroke="transparent" points="231,-197 231,-219 347,-219 347,-197 231,-197"/>
<polygon fill="none" stroke="black" points="231,-197 231,-219 347,-219 347,-197 231,-197"/>
<image xlink:href="../../images/foreignKeys.png" width="11px" height="12px" preserveAspectRatio="xMinYMin meet" x="236" y="-214"/>
<text text-anchor="start" x="261" y="-205.2" font-family="Helvetica,sans-Serif" font-size="11.00">role_id</text>
<polygon fill="#ffffff" stroke="transparent" points="231,-175 231,-197 347,-197 347,-175 231,-175"/>
<polygon fill="none" stroke="black" points="231,-175 231,-197 347,-197 347,-175 231,-175"/>
<image xlink:href="../../images/foreignKeys.png" width="11px" height="12px" preserveAspectRatio="xMinYMin meet" x="236" y="-192"/>
<text text-anchor="start" x="261" y="-183.2" font-family="Helvetica,sans-Serif" font-size="11.00">scope_id</text>
<polygon fill="none" stroke="black" points="231,-157 231,-175 347,-175 347,-157 231,-157"/>
<text text-anchor="start" x="234" y="-163.2" font-family="Helvetica,sans-Serif" font-size="11.00">...</text>
<polygon fill="#ffffff" stroke="transparent" points="231,-139 231,-157 270,-157 270,-139 231,-139"/>
<polygon fill="none" stroke="black" points="231,-139 231,-157 270,-157 270,-139 231,-139"/>
<text text-anchor="start" x="234" y="-145.2" font-family="Helvetica,sans-Serif" font-size="11.00">&lt; 2</text>
<polygon fill="#ffffff" stroke="transparent" points="270,-139 270,-157 325,-157 325,-139 270,-139"/>
<polygon fill="none" stroke="black" points="270,-139 270,-157 325,-157 325,-139 270,-139"/>
<text text-anchor="start" x="282" y="-145.2" font-family="Helvetica,sans-Serif" font-size="11.00">52 rows</text>
<polygon fill="#ffffff" stroke="transparent" points="325,-139 325,-157 347,-157 347,-139 325,-139"/>
<polygon fill="none" stroke="black" points="325,-139 325,-157 347,-157 347,-139 325,-139"/>
<text text-anchor="start" x="337" y="-145.2" font-family="Helvetica,sans-Serif" font-size="11.00"> &#160;</text>
</a>
</g>
</g>
<!-- roles -->
<g id="node2" class="node">
<title>roles</title>
<g id="a_node2"><a xlink:href="../../tables/roles.html" xlink:title="roles" target="_top">
<polygon fill="#ffffff" stroke="transparent" points="57.5,-212 57.5,-270 132.5,-270 132.5,-212 57.5,-212"/>
<polygon fill="#f5f5f5" stroke="transparent" points="58,-248 58,-270 133,-270 133,-248 58,-248"/>
<polygon fill="none" stroke="black" points="58,-248 58,-270 133,-270 133,-248 58,-248"/>
<text text-anchor="start" x="63" y="-257.2" font-family="Helvetica,sans-Serif" font-weight="bold" font-size="11.00">roles</text>
<text text-anchor="start" x="98" y="-256.2" font-family="Helvetica,sans-Serif" font-size="11.00">[table]</text>
<polygon fill="none" stroke="black" points="58,-230 58,-248 133,-248 133,-230 58,-230"/>
<text text-anchor="start" x="61" y="-236.2" font-family="Helvetica,sans-Serif" font-size="11.00">...</text>
<polygon fill="#ffffff" stroke="transparent" points="58,-212 58,-230 71,-230 71,-212 58,-212"/>
<polygon fill="none" stroke="black" points="58,-212 58,-230 71,-230 71,-212 58,-212"/>
<text text-anchor="start" x="61" y="-218.2" font-family="Helvetica,sans-Serif" font-size="11.00"> &#160;</text>
<polygon fill="#ffffff" stroke="transparent" points="71,-212 71,-230 111,-230 111,-212 71,-212"/>
<polygon fill="none" stroke="black" points="71,-212 71,-230 111,-230 111,-212 71,-212"/>
<text text-anchor="start" x="74" y="-218.2" font-family="Helvetica,sans-Serif" font-size="11.00">3 rows</text>
<polygon fill="#ffffff" stroke="transparent" points="111,-212 111,-230 133,-230 133,-212 111,-212"/>
<polygon fill="none" stroke="black" points="111,-212 111,-230 133,-230 133,-212 111,-212"/>
<text text-anchor="start" x="114" y="-218.2" font-family="Helvetica,sans-Serif" font-size="11.00">2 &gt;</text>
</a>
</g>
</g>
<!-- roles_scopes&#45;&gt;roles -->
<g id="edge1" class="edge">
<title>roles_scopes:w&#45;&gt;roles:e</title>
<path fill="none" stroke="black" d="M215.27,-209.25C183.07,-215.05 173.41,-239 134,-239"/>
<polygon fill="black" stroke="black" points="222.03,-208.68 230.31,-211.59 226.01,-208.34 230,-208 230,-208 230,-208 226.01,-208.34 229.69,-204.41 222.03,-208.68 222.03,-208.68"/>
<ellipse fill="none" stroke="black" cx="218.84" cy="-208.95" rx="3.2" ry="3.2"/>
</g>
<!-- scopes -->
<g id="node3" class="node">
<title>scopes</title>
<g id="a_node3"><a xlink:href="../../tables/scopes.html" xlink:title="scopes" target="_top">
<polygon fill="#ffffff" stroke="transparent" points="8,-37 8,-191 182,-191 182,-37 8,-37"/>
<polygon fill="#f5f5f5" stroke="transparent" points="10,-167 10,-189 180,-189 180,-167 10,-167"/>
<polygon fill="none" stroke="black" points="10,-167 10,-189 180,-189 180,-167 10,-167"/>
<text text-anchor="start" x="15" y="-176.2" font-family="Helvetica,sans-Serif" font-weight="bold" font-size="11.00">scopes</text>
<text text-anchor="start" x="145" y="-175.2" font-family="Helvetica,sans-Serif" font-size="11.00">[table]</text>
<polygon fill="none" stroke="black" points="10,-145 10,-167 95,-167 95,-145 10,-145"/>
<image xlink:href="../../images/primaryKeys.png" width="11px" height="12px" preserveAspectRatio="xMinYMin meet" x="15" y="-162"/>
<text text-anchor="start" x="30" y="-153.2" font-family="Helvetica,sans-Serif" font-size="11.00">id</text>
<polygon fill="none" stroke="black" points="95,-145 95,-167 180,-167 180,-145 95,-145"/>
<text text-anchor="start" x="98" y="-153.2" font-family="Helvetica,sans-Serif" font-size="11.00">serial[10]</text>
<polygon fill="#ffffff" stroke="transparent" points="10,-123 10,-145 95,-145 95,-123 10,-123"/>
<polygon fill="none" stroke="black" points="10,-123 10,-145 95,-145 95,-123 10,-123"/>
<text text-anchor="start" x="30" y="-131.2" font-family="Helvetica,sans-Serif" font-size="11.00">name</text>
<polygon fill="none" stroke="black" points="95,-123 95,-145 180,-145 180,-123 95,-123"/>
<text text-anchor="start" x="98" y="-131.2" font-family="Helvetica,sans-Serif" font-size="11.00">varchar[256]</text>
<polygon fill="none" stroke="black" points="10,-101 10,-123 95,-123 95,-101 10,-101"/>
<text text-anchor="start" x="30" y="-109.2" font-family="Helvetica,sans-Serif" font-size="11.00">description</text>
<polygon fill="none" stroke="black" points="95,-101 95,-123 180,-123 180,-101 95,-101"/>
<text text-anchor="start" x="98" y="-109.2" font-family="Helvetica,sans-Serif" font-size="11.00">varchar[256]</text>
<polygon fill="none" stroke="black" points="10,-79 10,-101 95,-101 95,-79 10,-79"/>
<text text-anchor="start" x="30" y="-87.2" font-family="Helvetica,sans-Serif" font-size="11.00">created_at</text>
<polygon fill="none" stroke="black" points="95,-79 95,-101 180,-101 180,-79 95,-79"/>
<text text-anchor="start" x="98" y="-87.2" font-family="Helvetica,sans-Serif" font-size="11.00">timestamp[29,6]</text>
<polygon fill="none" stroke="black" points="10,-57 10,-79 95,-79 95,-57 10,-57"/>
<text text-anchor="start" x="30" y="-65.2" font-family="Helvetica,sans-Serif" font-size="11.00">updated_at</text>
<polygon fill="none" stroke="black" points="95,-57 95,-79 180,-79 180,-57 95,-57"/>
<text text-anchor="start" x="98" y="-65.2" font-family="Helvetica,sans-Serif" font-size="11.00">timestamp[29,6]</text>
<polygon fill="#ffffff" stroke="transparent" points="10,-39 10,-57 40,-57 40,-39 10,-39"/>
<polygon fill="none" stroke="black" points="10,-39 10,-57 40,-57 40,-39 10,-39"/>
<text text-anchor="start" x="13" y="-45.2" font-family="Helvetica,sans-Serif" font-size="11.00">&lt; 0</text>
<polygon fill="#ffffff" stroke="transparent" points="40,-39 40,-57 95,-57 95,-39 40,-39"/>
<polygon fill="none" stroke="black" points="40,-39 40,-57 95,-57 95,-39 40,-39"/>
<text text-anchor="start" x="52" y="-45.2" font-family="Helvetica,sans-Serif" font-size="11.00">28 rows</text>
<polygon fill="#ffffff" stroke="transparent" points="95,-39 95,-57 180,-57 180,-39 95,-39"/>
<polygon fill="none" stroke="black" points="95,-39 95,-57 180,-57 180,-39 95,-39"/>
<text text-anchor="start" x="161" y="-45.2" font-family="Helvetica,sans-Serif" font-size="11.00">1 &gt;</text>
<polygon fill="none" stroke="black" stroke-width="2" points="9,-38 9,-190 181,-190 181,-38 9,-38"/>
</a>
</g>
</g>
<!-- roles_scopes&#45;&gt;scopes -->
<g id="edge2" class="edge">
<title>roles_scopes:w&#45;&gt;scopes:e</title>
<path fill="none" stroke="black" d="M215.88,-181.83C203.92,-173.59 200.55,-156 181,-156"/>
<polygon fill="black" stroke="black" points="222.33,-183.73 228.98,-189.45 226.16,-184.87 230,-186 230,-186 230,-186 226.16,-184.87 231.02,-182.55 222.33,-183.73 222.33,-183.73"/>
<ellipse fill="none" stroke="black" cx="219.26" cy="-182.83" rx="3.2" ry="3.2"/>
</g>
</g>
</svg>
