<?xml version="1.0" encoding="UTF-8" standalone="no"?>
<!DOCTYPE svg PUBLIC "-//W3C//DTD SVG 1.1//EN"
 "http://www.w3.org/Graphics/SVG/1.1/DTD/svg11.dtd">
<!-- Generated by graphviz version 2.50.0 (20211204.2007)
 -->
<!-- Title: oneDegreeRelationshipsDiagram Pages: 1 -->
<svg width="363pt" height="245pt"
 viewBox="0.00 0.00 363.00 245.00" xmlns="http://www.w3.org/2000/svg" xmlns:xlink="http://www.w3.org/1999/xlink">
<g id="graph0" class="graph" transform="scale(1 1) rotate(0) translate(4 241)">
<title>oneDegreeRelationshipsDiagram</title>
<polygon fill="#ffffff" stroke="transparent" points="-4,4 -4,-241 359,-241 359,4 -4,4"/>
<text text-anchor="middle" x="72.5" y="-7.2" font-family="Helvetica,sans-Serif" font-size="11.00">Generated by SchemaSpy</text>
<!-- roles_scopes -->
<g id="node1" class="node">
<title>roles_scopes</title>
<g id="a_node1"><a xlink:href="../../tables/roles_scopes.html" xlink:title="roles_scopes" target="_top">
<polygon fill="#ffffff" stroke="transparent" points="231,-109 231,-233 347,-233 347,-109 231,-109"/>
<polygon fill="#f5f5f5" stroke="transparent" points="231,-211 231,-233 347,-233 347,-211 231,-211"/>
<polygon fill="none" stroke="black" points="231,-211 231,-233 347,-233 347,-211 231,-211"/>
<text text-anchor="start" x="236" y="-220.2" font-family="Helvetica,sans-Serif" font-weight="bold" font-size="11.00">roles_scopes</text>
<text text-anchor="start" x="312" y="-219.2" font-family="Helvetica,sans-Serif" font-size="11.00">[table]</text>
<polygon fill="none" stroke="black" points="231,-189 231,-211 347,-211 347,-189 231,-189"/>
<image xlink:href="../../images/primaryKeys.png" width="11px" height="12px" preserveAspectRatio="xMinYMin meet" x="236" y="-206"/>
<text text-anchor="start" x="261" y="-197.2" font-family="Helvetica,sans-Serif" font-size="11.00">id</text>
<polygon fill="#ffffff" stroke="transparent" points="231,-167 231,-189 347,-189 347,-167 231,-167"/>
<polygon fill="none" stroke="black" points="231,-167 231,-189 347,-189 347,-167 231,-167"/>
<image xlink:href="../../images/foreignKeys.png" width="11px" height="12px" preserveAspectRatio="xMinYMin meet" x="236" y="-184"/>
<text text-anchor="start" x="261" y="-175.2" font-family="Helvetica,sans-Serif" font-size="11.00">role_id</text>
<polygon fill="#ffffff" stroke="transparent" points="231,-145 231,-167 347,-167 347,-145 231,-145"/>
<polygon fill="none" stroke="black" points="231,-145 231,-167 347,-167 347,-145 231,-145"/>
<image xlink:href="../../images/foreignKeys.png" width="11px" height="12px" preserveAspectRatio="xMinYMin meet" x="236" y="-162"/>
<text text-anchor="start" x="261" y="-153.2" font-family="Helvetica,sans-Serif" font-size="11.00">scope_id</text>
<polygon fill="none" stroke="black" points="231,-127 231,-145 347,-145 347,-127 231,-127"/>
<text text-anchor="start" x="234" y="-133.2" font-family="Helvetica,sans-Serif" font-size="11.00">...</text>
<polygon fill="#ffffff" stroke="transparent" points="231,-109 231,-127 270,-127 270,-109 231,-109"/>
<polygon fill="none" stroke="black" points="231,-109 231,-127 270,-127 270,-109 231,-109"/>
<text text-anchor="start" x="234" y="-115.2" font-family="Helvetica,sans-Serif" font-size="11.00">&lt; 2</text>
<polygon fill="#ffffff" stroke="transparent" points="270,-109 270,-127 325,-127 325,-109 270,-109"/>
<polygon fill="none" stroke="black" points="270,-109 270,-127 325,-127 325,-109 270,-109"/>
<text text-anchor="start" x="282" y="-115.2" font-family="Helvetica,sans-Serif" font-size="11.00">52 rows</text>
<polygon fill="#ffffff" stroke="transparent" points="325,-109 325,-127 347,-127 347,-109 325,-109"/>
<polygon fill="none" stroke="black" points="325,-109 325,-127 347,-127 347,-109 325,-109"/>
<text text-anchor="start" x="337" y="-115.2" font-family="Helvetica,sans-Serif" font-size="11.00"> &#160;</text>
</a>
</g>
</g>
<!-- scopes -->
<g id="node2" class="node">
<title>scopes</title>
<g id="a_node2"><a xlink:href="../../tables/scopes.html" xlink:title="scopes" target="_top">
<polygon fill="#ffffff" stroke="transparent" points="8,-37 8,-191 182,-191 182,-37 8,-37"/>
<polygon fill="#f5f5f5" stroke="transparent" points="10,-167 10,-189 180,-189 180,-167 10,-167"/>
<polygon fill="none" stroke="black" points="10,-167 10,-189 180,-189 180,-167 10,-167"/>
<text text-anchor="start" x="15" y="-176.2" font-family="Helvetica,sans-Serif" font-weight="bold" font-size="11.00">scopes</text>
<text text-anchor="start" x="145" y="-175.2" font-family="Helvetica,sans-Serif" font-size="11.00">[table]</text>
<polygon fill="none" stroke="black" points="10,-145 10,-167 95,-167 95,-145 10,-145"/>
<image xlink:href="../../images/primaryKeys.png" width="11px" height="12px" preserveAspectRatio="xMinYMin meet" x="15" y="-162"/>
<text text-anchor="start" x="30" y="-153.2" font-family="Helvetica,sans-Serif" font-size="11.00">id</text>
<polygon fill="none" stroke="black" points="95,-145 95,-167 180,-167 180,-145 95,-145"/>
<text text-anchor="start" x="98" y="-153.2" font-family="Helvetica,sans-Serif" font-size="11.00">serial[10]</text>
<polygon fill="#ffffff" stroke="transparent" points="10,-123 10,-145 95,-145 95,-123 10,-123"/>
<polygon fill="none" stroke="black" points="10,-123 10,-145 95,-145 95,-123 10,-123"/>
<text text-anchor="start" x="30" y="-131.2" font-family="Helvetica,sans-Serif" font-size="11.00">name</text>
<polygon fill="none" stroke="black" points="95,-123 95,-145 180,-145 180,-123 95,-123"/>
<text text-anchor="start" x="98" y="-131.2" font-family="Helvetica,sans-Serif" font-size="11.00">varchar[256]</text>
<polygon fill="none" stroke="black" points="10,-101 10,-123 95,-123 95,-101 10,-101"/>
<text text-anchor="start" x="30" y="-109.2" font-family="Helvetica,sans-Serif" font-size="11.00">description</text>
<polygon fill="none" stroke="black" points="95,-101 95,-123 180,-123 180,-101 95,-101"/>
<text text-anchor="start" x="98" y="-109.2" font-family="Helvetica,sans-Serif" font-size="11.00">varchar[256]</text>
<polygon fill="none" stroke="black" points="10,-79 10,-101 95,-101 95,-79 10,-79"/>
<text text-anchor="start" x="30" y="-87.2" font-family="Helvetica,sans-Serif" font-size="11.00">created_at</text>
<polygon fill="none" stroke="black" points="95,-79 95,-101 180,-101 180,-79 95,-79"/>
<text text-anchor="start" x="98" y="-87.2" font-family="Helvetica,sans-Serif" font-size="11.00">timestamp[29,6]</text>
<polygon fill="none" stroke="black" points="10,-57 10,-79 95,-79 95,-57 10,-57"/>
<text text-anchor="start" x="30" y="-65.2" font-family="Helvetica,sans-Serif" font-size="11.00">updated_at</text>
<polygon fill="none" stroke="black" points="95,-57 95,-79 180,-79 180,-57 95,-57"/>
<text text-anchor="start" x="98" y="-65.2" font-family="Helvetica,sans-Serif" font-size="11.00">timestamp[29,6]</text>
<polygon fill="#ffffff" stroke="transparent" points="10,-39 10,-57 40,-57 40,-39 10,-39"/>
<polygon fill="none" stroke="black" points="10,-39 10,-57 40,-57 40,-39 10,-39"/>
<text text-anchor="start" x="13" y="-45.2" font-family="Helvetica,sans-Serif" font-size="11.00">&lt; 0</text>
<polygon fill="#ffffff" stroke="transparent" points="40,-39 40,-57 95,-57 95,-39 40,-39"/>
<polygon fill="none" stroke="black" points="40,-39 40,-57 95,-57 95,-39 40,-39"/>
<text text-anchor="start" x="52" y="-45.2" font-family="Helvetica,sans-Serif" font-size="11.00">28 rows</text>
<polygon fill="#ffffff" stroke="transparent" points="95,-39 95,-57 180,-57 180,-39 95,-39"/>
<polygon fill="none" stroke="black" points="95,-39 95,-57 180,-57 180,-39 95,-39"/>
<text text-anchor="start" x="161" y="-45.2" font-family="Helvetica,sans-Serif" font-size="11.00">1 &gt;</text>
<polygon fill="none" stroke="black" stroke-width="2" points="9,-38 9,-190 181,-190 181,-38 9,-38"/>
</a>
</g>
</g>
<!-- roles_scopes&#45;&gt;scopes -->
<g id="edge1" class="edge">
<title>roles_scopes:w&#45;&gt;scopes:e</title>
<path fill="none" stroke="black" d="M215.49,-156C204.18,-156 196.99,-156 181,-156"/>
<polygon fill="black" stroke="black" points="222,-156 230,-159.6 226,-156 230,-156 230,-156 230,-156 226,-156 230,-152.4 222,-156 222,-156"/>
<ellipse fill="none" stroke="black" cx="218.8" cy="-156" rx="3.2" ry="3.2"/>
</g>
</g>
</svg>
