<?xml version="1.0" encoding="UTF-8" standalone="no"?>
<!DOCTYPE svg PUBLIC "-//W3C//DTD SVG 1.1//EN"
 "http://www.w3.org/Graphics/SVG/1.1/DTD/svg11.dtd">
<!-- Generated by graphviz version 2.50.0 (20211204.2007)
 -->
<!-- Title: oneDegreeRelationshipsDiagram Pages: 1 -->
<svg width="384pt" height="201pt"
 viewBox="0.00 0.00 384.00 201.00" xmlns="http://www.w3.org/2000/svg" xmlns:xlink="http://www.w3.org/1999/xlink">
<g id="graph0" class="graph" transform="scale(1 1) rotate(0) translate(4 197)">
<title>oneDegreeRelationshipsDiagram</title>
<polygon fill="#ffffff" stroke="transparent" points="-4,4 -4,-197 380,-197 380,4 -4,4"/>
<text text-anchor="middle" x="72.5" y="-7.2" font-family="Helvetica,sans-Serif" font-size="11.00">Generated by SchemaSpy</text>
<!-- investments -->
<g id="node1" class="node">
<title>investments</title>
<g id="a_node1"><a xlink:href="../../tables/investments.html" xlink:title="investments" target="_top">
<polygon fill="#ffffff" stroke="transparent" points="231,-87 231,-189 368,-189 368,-87 231,-87"/>
<polygon fill="#f5f5f5" stroke="transparent" points="231.5,-167 231.5,-189 368.5,-189 368.5,-167 231.5,-167"/>
<polygon fill="none" stroke="black" points="231.5,-167 231.5,-189 368.5,-189 368.5,-167 231.5,-167"/>
<text text-anchor="start" x="236.5" y="-176.2" font-family="Helvetica,sans-Serif" font-weight="bold" font-size="11.00">investments</text>
<text text-anchor="start" x="333.5" y="-175.2" font-family="Helvetica,sans-Serif" font-size="11.00">[table]</text>
<polygon fill="none" stroke="black" points="231.5,-145 231.5,-167 368.5,-167 368.5,-145 231.5,-145"/>
<image xlink:href="../../images/primaryKeys.png" width="11px" height="12px" preserveAspectRatio="xMinYMin meet" x="236.5" y="-162"/>
<text text-anchor="start" x="251.5" y="-153.2" font-family="Helvetica,sans-Serif" font-size="11.00">id</text>
<polygon fill="none" stroke="black" points="231.5,-123 231.5,-145 368.5,-145 368.5,-123 231.5,-123"/>
<image xlink:href="../../images/foreignKeys.png" width="11px" height="12px" preserveAspectRatio="xMinYMin meet" x="236.5" y="-140"/>
<text text-anchor="start" x="251.5" y="-131.2" font-family="Helvetica,sans-Serif" font-size="11.00">sector_id</text>
<polygon fill="none" stroke="black" points="231.5,-105 231.5,-123 368.5,-123 368.5,-105 231.5,-105"/>
<text text-anchor="start" x="234.5" y="-111.2" font-family="Helvetica,sans-Serif" font-size="11.00">...</text>
<polygon fill="#ffffff" stroke="transparent" points="231.5,-87 231.5,-105 269.5,-105 269.5,-87 231.5,-87"/>
<polygon fill="none" stroke="black" points="231.5,-87 231.5,-105 269.5,-105 269.5,-87 231.5,-87"/>
<text text-anchor="start" x="234.5" y="-93.2" font-family="Helvetica,sans-Serif" font-size="11.00">&lt; 1</text>
<polygon fill="#ffffff" stroke="transparent" points="269.5,-87 269.5,-105 338.5,-105 338.5,-87 269.5,-87"/>
<polygon fill="none" stroke="black" points="269.5,-87 269.5,-105 338.5,-105 338.5,-87 269.5,-87"/>
<text text-anchor="start" x="280.5" y="-93.2" font-family="Helvetica,sans-Serif" font-size="11.00">2,996 rows</text>
<polygon fill="#ffffff" stroke="transparent" points="338.5,-87 338.5,-105 368.5,-105 368.5,-87 338.5,-87"/>
<polygon fill="none" stroke="black" points="338.5,-87 338.5,-105 368.5,-105 368.5,-87 338.5,-87"/>
<text text-anchor="start" x="349.5" y="-93.2" font-family="Helvetica,sans-Serif" font-size="11.00">2 &gt;</text>
</a>
</g>
</g>
<!-- sectors -->
<g id="node2" class="node">
<title>sectors</title>
<g id="a_node2"><a xlink:href="../../tables/sectors.html" xlink:title="sectors" target="_top">
<polygon fill="#ffffff" stroke="transparent" points="8,-37 8,-169 182,-169 182,-37 8,-37"/>
<polygon fill="#f5f5f5" stroke="transparent" points="10,-145 10,-167 180,-167 180,-145 10,-145"/>
<polygon fill="none" stroke="black" points="10,-145 10,-167 180,-167 180,-145 10,-145"/>
<text text-anchor="start" x="15" y="-154.2" font-family="Helvetica,sans-Serif" font-weight="bold" font-size="11.00">sectors</text>
<text text-anchor="start" x="145" y="-153.2" font-family="Helvetica,sans-Serif" font-size="11.00">[table]</text>
<polygon fill="none" stroke="black" points="10,-123 10,-145 95,-145 95,-123 10,-123"/>
<image xlink:href="../../images/primaryKeys.png" width="11px" height="12px" preserveAspectRatio="xMinYMin meet" x="15" y="-140"/>
<text text-anchor="start" x="30" y="-131.2" font-family="Helvetica,sans-Serif" font-size="11.00">id</text>
<polygon fill="none" stroke="black" points="95,-123 95,-145 180,-145 180,-123 95,-123"/>
<text text-anchor="start" x="98" y="-131.2" font-family="Helvetica,sans-Serif" font-size="11.00">varchar[18]</text>
<polygon fill="#ffffff" stroke="transparent" points="10,-101 10,-123 95,-123 95,-101 10,-101"/>
<polygon fill="none" stroke="black" points="10,-101 10,-123 95,-123 95,-101 10,-101"/>
<text text-anchor="start" x="30" y="-109.2" font-family="Helvetica,sans-Serif" font-size="11.00">name</text>
<polygon fill="none" stroke="black" points="95,-101 95,-123 180,-123 180,-101 95,-101"/>
<text text-anchor="start" x="98" y="-109.2" font-family="Helvetica,sans-Serif" font-size="11.00">varchar[128]</text>
<polygon fill="none" stroke="black" points="10,-79 10,-101 95,-101 95,-79 10,-79"/>
<text text-anchor="start" x="30" y="-87.2" font-family="Helvetica,sans-Serif" font-size="11.00">created_at</text>
<polygon fill="none" stroke="black" points="95,-79 95,-101 180,-101 180,-79 95,-79"/>
<text text-anchor="start" x="98" y="-87.2" font-family="Helvetica,sans-Serif" font-size="11.00">timestamp[29,6]</text>
<polygon fill="none" stroke="black" points="10,-57 10,-79 95,-79 95,-57 10,-57"/>
<text text-anchor="start" x="30" y="-65.2" font-family="Helvetica,sans-Serif" font-size="11.00">updated_at</text>
<polygon fill="none" stroke="black" points="95,-57 95,-79 180,-79 180,-57 95,-57"/>
<text text-anchor="start" x="98" y="-65.2" font-family="Helvetica,sans-Serif" font-size="11.00">timestamp[29,6]</text>
<polygon fill="#ffffff" stroke="transparent" points="10,-39 10,-57 40,-57 40,-39 10,-39"/>
<polygon fill="none" stroke="black" points="10,-39 10,-57 40,-57 40,-39 10,-39"/>
<text text-anchor="start" x="13" y="-45.2" font-family="Helvetica,sans-Serif" font-size="11.00">&lt; 0</text>
<polygon fill="#ffffff" stroke="transparent" points="40,-39 40,-57 95,-57 95,-39 40,-39"/>
<polygon fill="none" stroke="black" points="40,-39 40,-57 95,-57 95,-39 40,-39"/>
<text text-anchor="start" x="52" y="-45.2" font-family="Helvetica,sans-Serif" font-size="11.00">12 rows</text>
<polygon fill="#ffffff" stroke="transparent" points="95,-39 95,-57 180,-57 180,-39 95,-39"/>
<polygon fill="none" stroke="black" points="95,-39 95,-57 180,-57 180,-39 95,-39"/>
<text text-anchor="start" x="161" y="-45.2" font-family="Helvetica,sans-Serif" font-size="11.00">1 &gt;</text>
<polygon fill="none" stroke="black" stroke-width="2" points="9,-38 9,-168 181,-168 181,-38 9,-38"/>
</a>
</g>
</g>
<!-- investments&#45;&gt;sectors -->
<g id="edge1" class="edge">
<title>investments:w&#45;&gt;sectors:e</title>
<path fill="none" stroke="black" d="M215.84,-134C204.41,-134 197.16,-134 181,-134"/>
<polygon fill="black" stroke="black" points="222.5,-134 230.5,-137.6 226.5,-134 230.5,-134 230.5,-134 230.5,-134 226.5,-134 230.5,-130.4 222.5,-134 222.5,-134"/>
<ellipse fill="none" stroke="black" cx="219.3" cy="-134" rx="3.2" ry="3.2"/>
</g>
</g>
</svg>
