<?xml version="1.0" encoding="UTF-8" standalone="no"?>
<!DOCTYPE svg PUBLIC "-//W3C//DTD SVG 1.1//EN"
 "http://www.w3.org/Graphics/SVG/1.1/DTD/svg11.dtd">
<!-- Generated by graphviz version 2.50.0 (20211204.2007)
 -->
<!-- Title: twoDegreesRelationshipsDiagram Pages: 1 -->
<svg width="746pt" height="371pt"
 viewBox="0.00 0.00 746.00 371.00" xmlns="http://www.w3.org/2000/svg" xmlns:xlink="http://www.w3.org/1999/xlink">
<g id="graph0" class="graph" transform="scale(1 1) rotate(0) translate(4 367)">
<title>twoDegreesRelationshipsDiagram</title>
<polygon fill="#ffffff" stroke="transparent" points="-4,4 -4,-367 742,-367 742,4 -4,4"/>
<text text-anchor="middle" x="72.5" y="-7.2" font-family="Helvetica,sans-Serif" font-size="11.00">Generated by SchemaSpy</text>
<!-- aggregate_risks -->
<g id="node1" class="node">
<title>aggregate_risks</title>
<g id="a_node1"><a xlink:href="../../tables/aggregate_risks.html" xlink:title="aggregate_risks" target="_top">
<polygon fill="#ffffff" stroke="transparent" points="193.5,-301 193.5,-359 323.5,-359 323.5,-301 193.5,-301"/>
<polygon fill="#f5f5f5" stroke="transparent" points="193.5,-337 193.5,-359 323.5,-359 323.5,-337 193.5,-337"/>
<polygon fill="none" stroke="black" points="193.5,-337 193.5,-359 323.5,-359 323.5,-337 193.5,-337"/>
<text text-anchor="start" x="198.5" y="-346.2" font-family="Helvetica,sans-Serif" font-weight="bold" font-size="11.00">aggregate_risks</text>
<text text-anchor="start" x="288.5" y="-345.2" font-family="Helvetica,sans-Serif" font-size="11.00">[table]</text>
<polygon fill="none" stroke="black" points="193.5,-319 193.5,-337 323.5,-337 323.5,-319 193.5,-319"/>
<text text-anchor="start" x="196.5" y="-325.2" font-family="Helvetica,sans-Serif" font-size="11.00">...</text>
<polygon fill="#ffffff" stroke="transparent" points="193.5,-301 193.5,-319 226.5,-319 226.5,-301 193.5,-301"/>
<polygon fill="none" stroke="black" points="193.5,-301 193.5,-319 226.5,-319 226.5,-301 193.5,-301"/>
<text text-anchor="start" x="196.5" y="-307.2" font-family="Helvetica,sans-Serif" font-size="11.00">&lt; 4</text>
<polygon fill="#ffffff" stroke="transparent" points="226.5,-301 226.5,-319 304.5,-319 304.5,-301 226.5,-301"/>
<polygon fill="none" stroke="black" points="226.5,-301 226.5,-319 304.5,-319 304.5,-301 226.5,-301"/>
<text text-anchor="start" x="234.5" y="-307.2" font-family="Helvetica,sans-Serif" font-size="11.00">133,008 rows</text>
<polygon fill="#ffffff" stroke="transparent" points="304.5,-301 304.5,-319 323.5,-319 323.5,-301 304.5,-301"/>
<polygon fill="none" stroke="black" points="304.5,-301 304.5,-319 323.5,-319 323.5,-301 304.5,-301"/>
<text text-anchor="start" x="313.5" y="-307.2" font-family="Helvetica,sans-Serif" font-size="11.00"> &#160;</text>
</a>
</g>
</g>
<!-- customers -->
<g id="node2" class="node">
<title>customers</title>
<g id="a_node2"><a xlink:href="../../tables/customers.html" xlink:title="customers" target="_top">
<polygon fill="#ffffff" stroke="transparent" points="8,-129 8,-231 125,-231 125,-129 8,-129"/>
<polygon fill="#f5f5f5" stroke="transparent" points="8.5,-209 8.5,-231 125.5,-231 125.5,-209 8.5,-209"/>
<polygon fill="none" stroke="black" points="8.5,-209 8.5,-231 125.5,-231 125.5,-209 8.5,-209"/>
<text text-anchor="start" x="13.5" y="-218.2" font-family="Helvetica,sans-Serif" font-weight="bold" font-size="11.00">customers</text>
<text text-anchor="start" x="90.5" y="-217.2" font-family="Helvetica,sans-Serif" font-size="11.00">[table]</text>
<polygon fill="none" stroke="black" points="8.5,-187 8.5,-209 125.5,-209 125.5,-187 8.5,-187"/>
<image xlink:href="../../images/primaryKeys.png" width="11px" height="12px" preserveAspectRatio="xMinYMin meet" x="13.5" y="-204"/>
<text text-anchor="start" x="28.5" y="-195.2" font-family="Helvetica,sans-Serif" font-size="11.00">id</text>
<polygon fill="#ffffff" stroke="transparent" points="8.5,-165 8.5,-187 125.5,-187 125.5,-165 8.5,-165"/>
<polygon fill="none" stroke="black" points="8.5,-165 8.5,-187 125.5,-187 125.5,-165 8.5,-165"/>
<text text-anchor="start" x="28.5" y="-173.2" font-family="Helvetica,sans-Serif" font-size="11.00">name</text>
<polygon fill="none" stroke="black" points="8.5,-147 8.5,-165 125.5,-165 125.5,-147 8.5,-147"/>
<text text-anchor="start" x="11.5" y="-153.2" font-family="Helvetica,sans-Serif" font-size="11.00">...</text>
<polygon fill="#ffffff" stroke="transparent" points="8.5,-129 8.5,-147 36.5,-147 36.5,-129 8.5,-129"/>
<polygon fill="none" stroke="black" points="8.5,-129 8.5,-147 36.5,-147 36.5,-129 8.5,-129"/>
<text text-anchor="start" x="11.5" y="-135.2" font-family="Helvetica,sans-Serif" font-size="11.00"> &#160;</text>
<polygon fill="#ffffff" stroke="transparent" points="36.5,-129 36.5,-147 95.5,-147 95.5,-129 36.5,-129"/>
<polygon fill="none" stroke="black" points="36.5,-129 36.5,-147 95.5,-147 95.5,-129 36.5,-129"/>
<text text-anchor="start" x="46.5" y="-135.2" font-family="Helvetica,sans-Serif" font-size="11.00">938 rows</text>
<polygon fill="#ffffff" stroke="transparent" points="95.5,-129 95.5,-147 125.5,-147 125.5,-129 95.5,-129"/>
<polygon fill="none" stroke="black" points="95.5,-129 95.5,-147 125.5,-147 125.5,-129 95.5,-129"/>
<text text-anchor="start" x="106.5" y="-135.2" font-family="Helvetica,sans-Serif" font-size="11.00">5 &gt;</text>
</a>
</g>
</g>
<!-- aggregate_risks&#45;&gt;customers -->
<g id="edge1" class="edge">
<title>aggregate_risks:w&#45;&gt;customers:e</title>
<path fill="none" stroke="black" d="M178.22,-325.16C137.89,-306.15 185.6,-198 126.5,-198"/>
<polygon fill="black" stroke="black" points="184.65,-326.44 191.8,-331.53 188.58,-327.22 192.5,-328 192.5,-328 192.5,-328 188.58,-327.22 193.2,-324.47 184.65,-326.44 184.65,-326.44"/>
<ellipse fill="none" stroke="black" cx="181.51" cy="-325.82" rx="3.2" ry="3.2"/>
</g>
<!-- assets -->
<g id="node3" class="node">
<title>assets</title>
<g id="a_node3"><a xlink:href="../../tables/assets.html" xlink:title="assets" target="_top">
<polygon fill="#ffffff" stroke="transparent" points="427,-249 427,-307 538,-307 538,-249 427,-249"/>
<polygon fill="#f5f5f5" stroke="transparent" points="427.5,-285 427.5,-307 538.5,-307 538.5,-285 427.5,-285"/>
<polygon fill="none" stroke="black" points="427.5,-285 427.5,-307 538.5,-307 538.5,-285 427.5,-285"/>
<text text-anchor="start" x="432.5" y="-294.2" font-family="Helvetica,sans-Serif" font-weight="bold" font-size="11.00">assets</text>
<text text-anchor="start" x="503.5" y="-293.2" font-family="Helvetica,sans-Serif" font-size="11.00">[table]</text>
<polygon fill="none" stroke="black" points="427.5,-267 427.5,-285 538.5,-285 538.5,-267 427.5,-267"/>
<text text-anchor="start" x="430.5" y="-273.2" font-family="Helvetica,sans-Serif" font-size="11.00">...</text>
<polygon fill="#ffffff" stroke="transparent" points="427.5,-249 427.5,-267 449.5,-267 449.5,-249 427.5,-249"/>
<polygon fill="none" stroke="black" points="427.5,-249 427.5,-267 449.5,-267 449.5,-249 427.5,-249"/>
<text text-anchor="start" x="430.5" y="-255.2" font-family="Helvetica,sans-Serif" font-size="11.00">&lt; 3</text>
<polygon fill="#ffffff" stroke="transparent" points="449.5,-249 449.5,-267 516.5,-267 516.5,-249 449.5,-249"/>
<polygon fill="none" stroke="black" points="449.5,-249 449.5,-267 516.5,-267 516.5,-249 449.5,-249"/>
<text text-anchor="start" x="452.5" y="-255.2" font-family="Helvetica,sans-Serif" font-size="11.00">78,452 rows</text>
<polygon fill="#ffffff" stroke="transparent" points="516.5,-249 516.5,-267 538.5,-267 538.5,-249 516.5,-249"/>
<polygon fill="none" stroke="black" points="516.5,-249 516.5,-267 538.5,-267 538.5,-249 516.5,-249"/>
<text text-anchor="start" x="519.5" y="-255.2" font-family="Helvetica,sans-Serif" font-size="11.00">4 &gt;</text>
</a>
</g>
</g>
<!-- ref_id -->
<g id="node4" class="node">
<title>ref_id</title>
<g id="a_node4"><a xlink:href="../../tables/ref_id.html" xlink:title="ref_id" target="_top">
<polygon fill="#ffffff" stroke="transparent" points="200,-222 200,-280 317,-280 317,-222 200,-222"/>
<polygon fill="#f5f5f5" stroke="transparent" points="200.5,-258 200.5,-280 317.5,-280 317.5,-258 200.5,-258"/>
<polygon fill="none" stroke="black" points="200.5,-258 200.5,-280 317.5,-280 317.5,-258 200.5,-258"/>
<text text-anchor="start" x="205.5" y="-267.2" font-family="Helvetica,sans-Serif" font-weight="bold" font-size="11.00">ref_id</text>
<text text-anchor="start" x="282.5" y="-266.2" font-family="Helvetica,sans-Serif" font-size="11.00">[table]</text>
<polygon fill="none" stroke="black" points="200.5,-240 200.5,-258 317.5,-258 317.5,-240 200.5,-240"/>
<text text-anchor="start" x="203.5" y="-246.2" font-family="Helvetica,sans-Serif" font-size="11.00">...</text>
<polygon fill="#ffffff" stroke="transparent" points="200.5,-222 200.5,-240 222.5,-240 222.5,-222 200.5,-222"/>
<polygon fill="none" stroke="black" points="200.5,-222 200.5,-240 222.5,-240 222.5,-222 200.5,-222"/>
<text text-anchor="start" x="203.5" y="-228.2" font-family="Helvetica,sans-Serif" font-size="11.00">&lt; 1</text>
<polygon fill="#ffffff" stroke="transparent" points="222.5,-222 222.5,-240 295.5,-240 295.5,-222 222.5,-222"/>
<polygon fill="none" stroke="black" points="222.5,-222 222.5,-240 295.5,-240 295.5,-222 222.5,-222"/>
<text text-anchor="start" x="225.5" y="-228.2" font-family="Helvetica,sans-Serif" font-size="11.00">140,067 rows</text>
<polygon fill="#ffffff" stroke="transparent" points="295.5,-222 295.5,-240 317.5,-240 317.5,-222 295.5,-222"/>
<polygon fill="none" stroke="black" points="295.5,-222 295.5,-240 317.5,-240 317.5,-222 295.5,-222"/>
<text text-anchor="start" x="298.5" y="-228.2" font-family="Helvetica,sans-Serif" font-size="11.00">2 &gt;</text>
</a>
</g>
</g>
<!-- assets&#45;&gt;ref_id -->
<g id="edge2" class="edge">
<title>assets:w&#45;&gt;ref_id:e</title>
<path fill="none" stroke="black" d="M415.86,-275.55C375.41,-272.04 364.21,-249 318.5,-249"/>
<polygon fill="black" stroke="black" points="425.87,-271.97 425.53,-279.96 423.93,-279.9 424.27,-271.9 425.87,-271.97"/>
<polyline fill="none" stroke="black" points="426.5,-276 422.5,-275.83 "/>
<ellipse fill="none" stroke="black" cx="419.31" cy="-275.7" rx="3.2" ry="3.2"/>
</g>
<!-- ref_id&#45;&gt;customers -->
<g id="edge6" class="edge">
<title>ref_id:w&#45;&gt;customers:e</title>
<path fill="none" stroke="black" d="M185.26,-246.26C160.75,-235.66 160.51,-198 126.5,-198"/>
<polygon fill="black" stroke="black" points="191.64,-247.49 198.82,-252.54 195.57,-248.24 199.5,-249 199.5,-249 199.5,-249 195.57,-248.24 200.18,-245.46 191.64,-247.49 191.64,-247.49"/>
<ellipse fill="none" stroke="black" cx="188.5" cy="-246.88" rx="3.2" ry="3.2"/>
</g>
<!-- assets_tags -->
<g id="node5" class="node">
<title>assets_tags</title>
<g id="a_node5"><a xlink:href="../../tables/assets_tags.html" xlink:title="assets_tags" target="_top">
<polygon fill="#ffffff" stroke="transparent" points="622,-194 622,-278 730,-278 730,-194 622,-194"/>
<polygon fill="#f5f5f5" stroke="transparent" points="622,-256 622,-278 730,-278 730,-256 622,-256"/>
<polygon fill="none" stroke="black" points="622,-256 622,-278 730,-278 730,-256 622,-256"/>
<text text-anchor="start" x="627" y="-265.2" font-family="Helvetica,sans-Serif" font-weight="bold" font-size="11.00">assets_tags</text>
<text text-anchor="start" x="695" y="-264.2" font-family="Helvetica,sans-Serif" font-size="11.00">[table]</text>
<polygon fill="none" stroke="black" points="622,-234 622,-256 730,-256 730,-234 622,-234"/>
<image xlink:href="../../images/primaryKeys.png" width="11px" height="12px" preserveAspectRatio="xMinYMin meet" x="627" y="-251"/>
<text text-anchor="start" x="652" y="-242.2" font-family="Helvetica,sans-Serif" font-size="11.00">asset_id</text>
<polygon fill="none" stroke="black" points="622,-212 622,-234 730,-234 730,-212 622,-212"/>
<image xlink:href="../../images/primaryKeys.png" width="11px" height="12px" preserveAspectRatio="xMinYMin meet" x="627" y="-229"/>
<text text-anchor="start" x="652" y="-220.2" font-family="Helvetica,sans-Serif" font-size="11.00">tag_id</text>
<polygon fill="#ffffff" stroke="transparent" points="622,-194 622,-212 647,-212 647,-194 622,-194"/>
<polygon fill="none" stroke="black" points="622,-194 622,-212 647,-212 647,-194 622,-194"/>
<text text-anchor="start" x="625" y="-200.2" font-family="Helvetica,sans-Serif" font-size="11.00">&lt; 2</text>
<polygon fill="#ffffff" stroke="transparent" points="647,-194 647,-212 715,-212 715,-194 647,-194"/>
<polygon fill="none" stroke="black" points="647,-194 647,-212 715,-212 715,-194 647,-194"/>
<text text-anchor="start" x="651" y="-200.2" font-family="Helvetica,sans-Serif" font-size="11.00">22,144 rows</text>
<polygon fill="#ffffff" stroke="transparent" points="715,-194 715,-212 730,-212 730,-194 715,-194"/>
<polygon fill="none" stroke="black" points="715,-194 715,-212 730,-212 730,-194 715,-194"/>
<text text-anchor="start" x="720" y="-200.2" font-family="Helvetica,sans-Serif" font-size="11.00"> &#160;</text>
</a>
</g>
</g>
<!-- assets_tags&#45;&gt;assets -->
<g id="edge3" class="edge">
<title>assets_tags:w&#45;&gt;assets:e</title>
<path fill="none" stroke="black" d="M606.52,-246.67C580.44,-253.11 572.8,-276 539.5,-276"/>
<polygon fill="black" stroke="black" points="613.05,-245.91 621.41,-248.58 617.03,-245.46 621,-245 621,-245 621,-245 617.03,-245.46 620.59,-241.42 613.05,-245.91 613.05,-245.91"/>
<ellipse fill="none" stroke="black" cx="609.87" cy="-246.28" rx="3.2" ry="3.2"/>
</g>
<!-- tags -->
<g id="node6" class="node">
<title>tags</title>
<g id="a_node6"><a xlink:href="../../tables/tags.html" xlink:title="tags" target="_top">
<polygon fill="#ffffff" stroke="transparent" points="392,-74 392,-228 573,-228 573,-74 392,-74"/>
<polygon fill="#f5f5f5" stroke="transparent" points="394.5,-204 394.5,-226 571.5,-226 571.5,-204 394.5,-204"/>
<polygon fill="none" stroke="black" points="394.5,-204 394.5,-226 571.5,-226 571.5,-204 394.5,-204"/>
<text text-anchor="start" x="399.5" y="-213.2" font-family="Helvetica,sans-Serif" font-weight="bold" font-size="11.00">tags</text>
<text text-anchor="start" x="536.5" y="-212.2" font-family="Helvetica,sans-Serif" font-size="11.00">[table]</text>
<polygon fill="none" stroke="black" points="394.5,-182 394.5,-204 486.5,-204 486.5,-182 394.5,-182"/>
<image xlink:href="../../images/primaryKeys.png" width="11px" height="12px" preserveAspectRatio="xMinYMin meet" x="399.5" y="-199"/>
<text text-anchor="start" x="414.5" y="-190.2" font-family="Helvetica,sans-Serif" font-size="11.00">id</text>
<polygon fill="none" stroke="black" points="486.5,-182 486.5,-204 571.5,-204 571.5,-182 486.5,-182"/>
<text text-anchor="start" x="489.5" y="-190.2" font-family="Helvetica,sans-Serif" font-size="11.00">serial[10]</text>
<polygon fill="#ffffff" stroke="transparent" points="394.5,-160 394.5,-182 486.5,-182 486.5,-160 394.5,-160"/>
<polygon fill="none" stroke="black" points="394.5,-160 394.5,-182 486.5,-182 486.5,-160 394.5,-160"/>
<image xlink:href="../../images/foreignKeys.png" width="11px" height="12px" preserveAspectRatio="xMinYMin meet" x="399.5" y="-177"/>
<text text-anchor="start" x="414.5" y="-168.2" font-family="Helvetica,sans-Serif" font-size="11.00">customer_id</text>
<polygon fill="none" stroke="black" points="486.5,-160 486.5,-182 571.5,-182 571.5,-160 486.5,-160"/>
<text text-anchor="start" x="489.5" y="-168.2" font-family="Helvetica,sans-Serif" font-size="11.00">int4[10]</text>
<polygon fill="#ffffff" stroke="transparent" points="394.5,-138 394.5,-160 486.5,-160 486.5,-138 394.5,-138"/>
<polygon fill="none" stroke="black" points="394.5,-138 394.5,-160 486.5,-160 486.5,-138 394.5,-138"/>
<text text-anchor="start" x="414.5" y="-146.2" font-family="Helvetica,sans-Serif" font-size="11.00">name</text>
<polygon fill="none" stroke="black" points="486.5,-138 486.5,-160 571.5,-160 571.5,-138 486.5,-138"/>
<text text-anchor="start" x="489.5" y="-146.2" font-family="Helvetica,sans-Serif" font-size="11.00">varchar[128]</text>
<polygon fill="none" stroke="black" points="394.5,-116 394.5,-138 486.5,-138 486.5,-116 394.5,-116"/>
<text text-anchor="start" x="414.5" y="-124.2" font-family="Helvetica,sans-Serif" font-size="11.00">created_at</text>
<polygon fill="none" stroke="black" points="486.5,-116 486.5,-138 571.5,-138 571.5,-116 486.5,-116"/>
<text text-anchor="start" x="489.5" y="-124.2" font-family="Helvetica,sans-Serif" font-size="11.00">timestamp[29,6]</text>
<polygon fill="none" stroke="black" points="394.5,-94 394.5,-116 486.5,-116 486.5,-94 394.5,-94"/>
<text text-anchor="start" x="414.5" y="-102.2" font-family="Helvetica,sans-Serif" font-size="11.00">updated_at</text>
<polygon fill="none" stroke="black" points="486.5,-94 486.5,-116 571.5,-116 571.5,-94 486.5,-94"/>
<text text-anchor="start" x="489.5" y="-102.2" font-family="Helvetica,sans-Serif" font-size="11.00">timestamp[29,6]</text>
<polygon fill="#ffffff" stroke="transparent" points="394.5,-76 394.5,-94 425.5,-94 425.5,-76 394.5,-76"/>
<polygon fill="none" stroke="black" points="394.5,-76 394.5,-94 425.5,-94 425.5,-76 394.5,-76"/>
<text text-anchor="start" x="397.5" y="-82.2" font-family="Helvetica,sans-Serif" font-size="11.00">&lt; 1</text>
<polygon fill="#ffffff" stroke="transparent" points="425.5,-76 425.5,-94 486.5,-94 486.5,-76 425.5,-76"/>
<polygon fill="none" stroke="black" points="425.5,-76 425.5,-94 486.5,-94 486.5,-76 425.5,-76"/>
<text text-anchor="start" x="437.5" y="-82.2" font-family="Helvetica,sans-Serif" font-size="11.00">339 rows</text>
<polygon fill="#ffffff" stroke="transparent" points="486.5,-76 486.5,-94 571.5,-94 571.5,-76 486.5,-76"/>
<polygon fill="none" stroke="black" points="486.5,-76 486.5,-94 571.5,-94 571.5,-76 486.5,-76"/>
<text text-anchor="start" x="552.5" y="-82.2" font-family="Helvetica,sans-Serif" font-size="11.00">1 &gt;</text>
<polygon fill="none" stroke="black" stroke-width="2" points="393,-75 393,-227 572,-227 572,-75 393,-75"/>
</a>
</g>
</g>
<!-- assets_tags&#45;&gt;tags -->
<g id="edge4" class="edge">
<title>assets_tags:w&#45;&gt;tags:e</title>
<path fill="none" stroke="black" d="M607.01,-218.83C595.17,-210.59 591.91,-193 572.5,-193"/>
<polygon fill="black" stroke="black" points="613.33,-220.71 619.97,-226.45 617.17,-221.86 621,-223 621,-223 621,-223 617.17,-221.86 622.03,-219.55 613.33,-220.71 613.33,-220.71"/>
<ellipse fill="none" stroke="black" cx="610.27" cy="-219.8" rx="3.2" ry="3.2"/>
</g>
<!-- tags&#45;&gt;customers -->
<g id="edge7" class="edge">
<title>tags:w&#45;&gt;customers:e</title>
<path fill="none" stroke="black" d="M379.06,-173.39C370.21,-176.66 364.58,-182.42 351,-185 252.82,-203.68 226.44,-198 126.5,-198"/>
<polygon fill="black" stroke="black" points="385.61,-172.31 394.09,-174.55 389.55,-171.65 393.5,-171 393.5,-171 393.5,-171 389.55,-171.65 392.91,-167.45 385.61,-172.31 385.61,-172.31"/>
<ellipse fill="none" stroke="black" cx="382.45" cy="-172.83" rx="3.2" ry="3.2"/>
</g>
<!-- groups -->
<g id="node7" class="node">
<title>groups</title>
<g id="a_node7"><a xlink:href="../../tables/groups.html" xlink:title="groups" target="_top">
<polygon fill="#ffffff" stroke="transparent" points="210.5,-116 210.5,-174 306.5,-174 306.5,-116 210.5,-116"/>
<polygon fill="#f5f5f5" stroke="transparent" points="210.5,-152 210.5,-174 306.5,-174 306.5,-152 210.5,-152"/>
<polygon fill="none" stroke="black" points="210.5,-152 210.5,-174 306.5,-174 306.5,-152 210.5,-152"/>
<text text-anchor="start" x="215.5" y="-161.2" font-family="Helvetica,sans-Serif" font-weight="bold" font-size="11.00">groups</text>
<text text-anchor="start" x="271.5" y="-160.2" font-family="Helvetica,sans-Serif" font-size="11.00">[table]</text>
<polygon fill="none" stroke="black" points="210.5,-134 210.5,-152 306.5,-152 306.5,-134 210.5,-134"/>
<text text-anchor="start" x="213.5" y="-140.2" font-family="Helvetica,sans-Serif" font-size="11.00">...</text>
<polygon fill="#ffffff" stroke="transparent" points="210.5,-116 210.5,-134 232.5,-134 232.5,-116 210.5,-116"/>
<polygon fill="none" stroke="black" points="210.5,-116 210.5,-134 232.5,-134 232.5,-116 210.5,-116"/>
<text text-anchor="start" x="213.5" y="-122.2" font-family="Helvetica,sans-Serif" font-size="11.00">&lt; 1</text>
<polygon fill="#ffffff" stroke="transparent" points="232.5,-116 232.5,-134 284.5,-134 284.5,-116 232.5,-116"/>
<polygon fill="none" stroke="black" points="232.5,-116 232.5,-134 284.5,-134 284.5,-116 232.5,-116"/>
<text text-anchor="start" x="235.5" y="-122.2" font-family="Helvetica,sans-Serif" font-size="11.00">150 rows</text>
<polygon fill="#ffffff" stroke="transparent" points="284.5,-116 284.5,-134 306.5,-134 306.5,-116 284.5,-116"/>
<polygon fill="none" stroke="black" points="284.5,-116 284.5,-134 306.5,-134 306.5,-116 284.5,-116"/>
<text text-anchor="start" x="287.5" y="-122.2" font-family="Helvetica,sans-Serif" font-size="11.00">2 &gt;</text>
</a>
</g>
</g>
<!-- groups&#45;&gt;customers -->
<g id="edge5" class="edge">
<title>groups:w&#45;&gt;customers:e</title>
<path fill="none" stroke="black" d="M195.04,-145.36C165.85,-155.89 165.22,-198 126.5,-198"/>
<polygon fill="black" stroke="black" points="201.6,-144.29 210.08,-146.55 205.55,-143.65 209.5,-143 209.5,-143 209.5,-143 205.55,-143.65 208.92,-139.45 201.6,-144.29 201.6,-144.29"/>
<ellipse fill="none" stroke="black" cx="198.45" cy="-144.81" rx="3.2" ry="3.2"/>
</g>
<!-- users_roles_customers -->
<g id="node8" class="node">
<title>users_roles_customers</title>
<g id="a_node8"><a xlink:href="../../tables/users_roles_customers.html" xlink:title="users_roles_customers" target="_top">
<polygon fill="#ffffff" stroke="transparent" points="174,-37 174,-95 343,-95 343,-37 174,-37"/>
<polygon fill="#f5f5f5" stroke="transparent" points="174.5,-73 174.5,-95 343.5,-95 343.5,-73 174.5,-73"/>
<polygon fill="none" stroke="black" points="174.5,-73 174.5,-95 343.5,-95 343.5,-73 174.5,-73"/>
<text text-anchor="start" x="179.5" y="-82.2" font-family="Helvetica,sans-Serif" font-weight="bold" font-size="11.00">users_roles_customers</text>
<text text-anchor="start" x="308.5" y="-81.2" font-family="Helvetica,sans-Serif" font-size="11.00">[table]</text>
<polygon fill="none" stroke="black" points="174.5,-55 174.5,-73 343.5,-73 343.5,-55 174.5,-55"/>
<text text-anchor="start" x="177.5" y="-61.2" font-family="Helvetica,sans-Serif" font-size="11.00">...</text>
<polygon fill="#ffffff" stroke="transparent" points="174.5,-37 174.5,-55 240.5,-55 240.5,-37 174.5,-37"/>
<polygon fill="none" stroke="black" points="174.5,-37 174.5,-55 240.5,-55 240.5,-37 174.5,-37"/>
<text text-anchor="start" x="177.5" y="-43.2" font-family="Helvetica,sans-Serif" font-size="11.00">&lt; 3</text>
<polygon fill="#ffffff" stroke="transparent" points="240.5,-37 240.5,-55 308.5,-55 308.5,-37 240.5,-37"/>
<polygon fill="none" stroke="black" points="240.5,-37 240.5,-55 308.5,-55 308.5,-37 240.5,-37"/>
<text text-anchor="start" x="265.5" y="-43.2" font-family="Helvetica,sans-Serif" font-size="11.00">12 rows</text>
<polygon fill="#ffffff" stroke="transparent" points="308.5,-37 308.5,-55 343.5,-55 343.5,-37 308.5,-37"/>
<polygon fill="none" stroke="black" points="308.5,-37 308.5,-55 343.5,-55 343.5,-37 308.5,-37"/>
<text text-anchor="start" x="333.5" y="-43.2" font-family="Helvetica,sans-Serif" font-size="11.00"> &#160;</text>
</a>
</g>
</g>
<!-- users_roles_customers&#45;&gt;customers -->
<g id="edge8" class="edge">
<title>users_roles_customers:w&#45;&gt;customers:e</title>
<path fill="none" stroke="black" d="M159.27,-67.31C123.99,-87.95 183.7,-198 126.5,-198"/>
<polygon fill="black" stroke="black" points="165.71,-65.81 174.32,-67.51 169.6,-64.91 173.5,-64 173.5,-64 173.5,-64 169.6,-64.91 172.68,-60.49 165.71,-65.81 165.71,-65.81"/>
<ellipse fill="none" stroke="black" cx="162.59" cy="-66.54" rx="3.2" ry="3.2"/>
</g>
</g>
</svg>
