<?xml version="1.0" encoding="UTF-8" standalone="no"?>
<!DOCTYPE svg PUBLIC "-//W3C//DTD SVG 1.1//EN"
 "http://www.w3.org/Graphics/SVG/1.1/DTD/svg11.dtd">
<!-- Generated by graphviz version 2.50.0 (20211204.2007)
 -->
<!-- Title: oneDegreeRelationshipsDiagram Pages: 1 -->
<svg width="528pt" height="223pt"
 viewBox="0.00 0.00 528.00 223.00" xmlns="http://www.w3.org/2000/svg" xmlns:xlink="http://www.w3.org/1999/xlink">
<g id="graph0" class="graph" transform="scale(1 1) rotate(0) translate(4 219)">
<title>oneDegreeRelationshipsDiagram</title>
<polygon fill="#ffffff" stroke="transparent" points="-4,4 -4,-219 524,-219 524,4 -4,4"/>
<text text-anchor="middle" x="72.5" y="-7.2" font-family="Helvetica,sans-Serif" font-size="11.00">Generated by SchemaSpy</text>
<!-- assets_tags -->
<g id="node1" class="node">
<title>assets_tags</title>
<g id="a_node1"><a xlink:href="../../tables/assets_tags.html" xlink:title="assets_tags" target="_top">
<polygon fill="#ffffff" stroke="transparent" points="404,-127 404,-211 512,-211 512,-127 404,-127"/>
<polygon fill="#f5f5f5" stroke="transparent" points="404,-189 404,-211 512,-211 512,-189 404,-189"/>
<polygon fill="none" stroke="black" points="404,-189 404,-211 512,-211 512,-189 404,-189"/>
<text text-anchor="start" x="409" y="-198.2" font-family="Helvetica,sans-Serif" font-weight="bold" font-size="11.00">assets_tags</text>
<text text-anchor="start" x="477" y="-197.2" font-family="Helvetica,sans-Serif" font-size="11.00">[table]</text>
<polygon fill="none" stroke="black" points="404,-167 404,-189 512,-189 512,-167 404,-167"/>
<image xlink:href="../../images/primaryKeys.png" width="11px" height="12px" preserveAspectRatio="xMinYMin meet" x="409" y="-184"/>
<text text-anchor="start" x="434" y="-175.2" font-family="Helvetica,sans-Serif" font-size="11.00">asset_id</text>
<polygon fill="none" stroke="black" points="404,-145 404,-167 512,-167 512,-145 404,-145"/>
<image xlink:href="../../images/primaryKeys.png" width="11px" height="12px" preserveAspectRatio="xMinYMin meet" x="409" y="-162"/>
<text text-anchor="start" x="434" y="-153.2" font-family="Helvetica,sans-Serif" font-size="11.00">tag_id</text>
<polygon fill="#ffffff" stroke="transparent" points="404,-127 404,-145 429,-145 429,-127 404,-127"/>
<polygon fill="none" stroke="black" points="404,-127 404,-145 429,-145 429,-127 404,-127"/>
<text text-anchor="start" x="407" y="-133.2" font-family="Helvetica,sans-Serif" font-size="11.00">&lt; 2</text>
<polygon fill="#ffffff" stroke="transparent" points="429,-127 429,-145 497,-145 497,-127 429,-127"/>
<polygon fill="none" stroke="black" points="429,-127 429,-145 497,-145 497,-127 429,-127"/>
<text text-anchor="start" x="433" y="-133.2" font-family="Helvetica,sans-Serif" font-size="11.00">22,144 rows</text>
<polygon fill="#ffffff" stroke="transparent" points="497,-127 497,-145 512,-145 512,-127 497,-127"/>
<polygon fill="none" stroke="black" points="497,-127 497,-145 512,-145 512,-127 497,-127"/>
<text text-anchor="start" x="502" y="-133.2" font-family="Helvetica,sans-Serif" font-size="11.00"> &#160;</text>
</a>
</g>
</g>
<!-- tags -->
<g id="node2" class="node">
<title>tags</title>
<g id="a_node2"><a xlink:href="../../tables/tags.html" xlink:title="tags" target="_top">
<polygon fill="#ffffff" stroke="transparent" points="174,-37 174,-191 355,-191 355,-37 174,-37"/>
<polygon fill="#f5f5f5" stroke="transparent" points="176.5,-167 176.5,-189 353.5,-189 353.5,-167 176.5,-167"/>
<polygon fill="none" stroke="black" points="176.5,-167 176.5,-189 353.5,-189 353.5,-167 176.5,-167"/>
<text text-anchor="start" x="181.5" y="-176.2" font-family="Helvetica,sans-Serif" font-weight="bold" font-size="11.00">tags</text>
<text text-anchor="start" x="318.5" y="-175.2" font-family="Helvetica,sans-Serif" font-size="11.00">[table]</text>
<polygon fill="none" stroke="black" points="176.5,-145 176.5,-167 268.5,-167 268.5,-145 176.5,-145"/>
<image xlink:href="../../images/primaryKeys.png" width="11px" height="12px" preserveAspectRatio="xMinYMin meet" x="181.5" y="-162"/>
<text text-anchor="start" x="196.5" y="-153.2" font-family="Helvetica,sans-Serif" font-size="11.00">id</text>
<polygon fill="none" stroke="black" points="268.5,-145 268.5,-167 353.5,-167 353.5,-145 268.5,-145"/>
<text text-anchor="start" x="271.5" y="-153.2" font-family="Helvetica,sans-Serif" font-size="11.00">serial[10]</text>
<polygon fill="#ffffff" stroke="transparent" points="176.5,-123 176.5,-145 268.5,-145 268.5,-123 176.5,-123"/>
<polygon fill="none" stroke="black" points="176.5,-123 176.5,-145 268.5,-145 268.5,-123 176.5,-123"/>
<image xlink:href="../../images/foreignKeys.png" width="11px" height="12px" preserveAspectRatio="xMinYMin meet" x="181.5" y="-140"/>
<text text-anchor="start" x="196.5" y="-131.2" font-family="Helvetica,sans-Serif" font-size="11.00">customer_id</text>
<polygon fill="none" stroke="black" points="268.5,-123 268.5,-145 353.5,-145 353.5,-123 268.5,-123"/>
<text text-anchor="start" x="271.5" y="-131.2" font-family="Helvetica,sans-Serif" font-size="11.00">int4[10]</text>
<polygon fill="#ffffff" stroke="transparent" points="176.5,-101 176.5,-123 268.5,-123 268.5,-101 176.5,-101"/>
<polygon fill="none" stroke="black" points="176.5,-101 176.5,-123 268.5,-123 268.5,-101 176.5,-101"/>
<text text-anchor="start" x="196.5" y="-109.2" font-family="Helvetica,sans-Serif" font-size="11.00">name</text>
<polygon fill="none" stroke="black" points="268.5,-101 268.5,-123 353.5,-123 353.5,-101 268.5,-101"/>
<text text-anchor="start" x="271.5" y="-109.2" font-family="Helvetica,sans-Serif" font-size="11.00">varchar[128]</text>
<polygon fill="none" stroke="black" points="176.5,-79 176.5,-101 268.5,-101 268.5,-79 176.5,-79"/>
<text text-anchor="start" x="196.5" y="-87.2" font-family="Helvetica,sans-Serif" font-size="11.00">created_at</text>
<polygon fill="none" stroke="black" points="268.5,-79 268.5,-101 353.5,-101 353.5,-79 268.5,-79"/>
<text text-anchor="start" x="271.5" y="-87.2" font-family="Helvetica,sans-Serif" font-size="11.00">timestamp[29,6]</text>
<polygon fill="none" stroke="black" points="176.5,-57 176.5,-79 268.5,-79 268.5,-57 176.5,-57"/>
<text text-anchor="start" x="196.5" y="-65.2" font-family="Helvetica,sans-Serif" font-size="11.00">updated_at</text>
<polygon fill="none" stroke="black" points="268.5,-57 268.5,-79 353.5,-79 353.5,-57 268.5,-57"/>
<text text-anchor="start" x="271.5" y="-65.2" font-family="Helvetica,sans-Serif" font-size="11.00">timestamp[29,6]</text>
<polygon fill="#ffffff" stroke="transparent" points="176.5,-39 176.5,-57 207.5,-57 207.5,-39 176.5,-39"/>
<polygon fill="none" stroke="black" points="176.5,-39 176.5,-57 207.5,-57 207.5,-39 176.5,-39"/>
<text text-anchor="start" x="179.5" y="-45.2" font-family="Helvetica,sans-Serif" font-size="11.00">&lt; 1</text>
<polygon fill="#ffffff" stroke="transparent" points="207.5,-39 207.5,-57 268.5,-57 268.5,-39 207.5,-39"/>
<polygon fill="none" stroke="black" points="207.5,-39 207.5,-57 268.5,-57 268.5,-39 207.5,-39"/>
<text text-anchor="start" x="219.5" y="-45.2" font-family="Helvetica,sans-Serif" font-size="11.00">339 rows</text>
<polygon fill="#ffffff" stroke="transparent" points="268.5,-39 268.5,-57 353.5,-57 353.5,-39 268.5,-39"/>
<polygon fill="none" stroke="black" points="268.5,-39 268.5,-57 353.5,-57 353.5,-39 268.5,-39"/>
<text text-anchor="start" x="334.5" y="-45.2" font-family="Helvetica,sans-Serif" font-size="11.00">1 &gt;</text>
<polygon fill="none" stroke="black" stroke-width="2" points="175,-38 175,-190 354,-190 354,-38 175,-38"/>
</a>
</g>
</g>
<!-- assets_tags&#45;&gt;tags -->
<g id="edge1" class="edge">
<title>assets_tags:w&#45;&gt;tags:e</title>
<path fill="none" stroke="black" d="M388.28,-156C377.29,-156 370.16,-156 354.5,-156"/>
<polygon fill="black" stroke="black" points="395,-156 403,-159.6 399,-156 403,-156 403,-156 403,-156 399,-156 403,-152.4 395,-156 395,-156"/>
<ellipse fill="none" stroke="black" cx="391.8" cy="-156" rx="3.2" ry="3.2"/>
</g>
<!-- customers -->
<g id="node3" class="node">
<title>customers</title>
<g id="a_node3"><a xlink:href="../../tables/customers.html" xlink:title="customers" target="_top">
<polygon fill="#ffffff" stroke="transparent" points="8,-65 8,-167 125,-167 125,-65 8,-65"/>
<polygon fill="#f5f5f5" stroke="transparent" points="8.5,-145 8.5,-167 125.5,-167 125.5,-145 8.5,-145"/>
<polygon fill="none" stroke="black" points="8.5,-145 8.5,-167 125.5,-167 125.5,-145 8.5,-145"/>
<text text-anchor="start" x="13.5" y="-154.2" font-family="Helvetica,sans-Serif" font-weight="bold" font-size="11.00">customers</text>
<text text-anchor="start" x="90.5" y="-153.2" font-family="Helvetica,sans-Serif" font-size="11.00">[table]</text>
<polygon fill="none" stroke="black" points="8.5,-123 8.5,-145 125.5,-145 125.5,-123 8.5,-123"/>
<image xlink:href="../../images/primaryKeys.png" width="11px" height="12px" preserveAspectRatio="xMinYMin meet" x="13.5" y="-140"/>
<text text-anchor="start" x="28.5" y="-131.2" font-family="Helvetica,sans-Serif" font-size="11.00">id</text>
<polygon fill="#ffffff" stroke="transparent" points="8.5,-101 8.5,-123 125.5,-123 125.5,-101 8.5,-101"/>
<polygon fill="none" stroke="black" points="8.5,-101 8.5,-123 125.5,-123 125.5,-101 8.5,-101"/>
<text text-anchor="start" x="28.5" y="-109.2" font-family="Helvetica,sans-Serif" font-size="11.00">name</text>
<polygon fill="none" stroke="black" points="8.5,-83 8.5,-101 125.5,-101 125.5,-83 8.5,-83"/>
<text text-anchor="start" x="11.5" y="-89.2" font-family="Helvetica,sans-Serif" font-size="11.00">...</text>
<polygon fill="#ffffff" stroke="transparent" points="8.5,-65 8.5,-83 36.5,-83 36.5,-65 8.5,-65"/>
<polygon fill="none" stroke="black" points="8.5,-65 8.5,-83 36.5,-83 36.5,-65 8.5,-65"/>
<text text-anchor="start" x="11.5" y="-71.2" font-family="Helvetica,sans-Serif" font-size="11.00"> &#160;</text>
<polygon fill="#ffffff" stroke="transparent" points="36.5,-65 36.5,-83 95.5,-83 95.5,-65 36.5,-65"/>
<polygon fill="none" stroke="black" points="36.5,-65 36.5,-83 95.5,-83 95.5,-65 36.5,-65"/>
<text text-anchor="start" x="46.5" y="-71.2" font-family="Helvetica,sans-Serif" font-size="11.00">938 rows</text>
<polygon fill="#ffffff" stroke="transparent" points="95.5,-65 95.5,-83 125.5,-83 125.5,-65 95.5,-65"/>
<polygon fill="none" stroke="black" points="95.5,-65 95.5,-83 125.5,-83 125.5,-65 95.5,-65"/>
<text text-anchor="start" x="106.5" y="-71.2" font-family="Helvetica,sans-Serif" font-size="11.00">5 &gt;</text>
</a>
</g>
</g>
<!-- tags&#45;&gt;customers -->
<g id="edge2" class="edge">
<title>tags:w&#45;&gt;customers:e</title>
<path fill="none" stroke="black" d="M160.99,-134C149.68,-134 142.49,-134 126.5,-134"/>
<polygon fill="black" stroke="black" points="167.5,-134 175.5,-137.6 171.5,-134 175.5,-134 175.5,-134 175.5,-134 171.5,-134 175.5,-130.4 167.5,-134 167.5,-134"/>
<ellipse fill="none" stroke="black" cx="164.3" cy="-134" rx="3.2" ry="3.2"/>
</g>
</g>
</svg>
