<?xml version="1.0" encoding="UTF-8" standalone="no"?>
<!DOCTYPE svg PUBLIC "-//W3C//DTD SVG 1.1//EN"
 "http://www.w3.org/Graphics/SVG/1.1/DTD/svg11.dtd">
<!-- Generated by graphviz version 2.50.0 (20211204.2007)
 -->
<!-- Title: oneDegreeRelationshipsDiagram Pages: 1 -->
<svg width="421pt" height="245pt"
 viewBox="0.00 0.00 421.00 245.00" xmlns="http://www.w3.org/2000/svg" xmlns:xlink="http://www.w3.org/1999/xlink">
<g id="graph0" class="graph" transform="scale(1 1) rotate(0) translate(4 241)">
<title>oneDegreeRelationshipsDiagram</title>
<polygon fill="#ffffff" stroke="transparent" points="-4,4 -4,-241 417,-241 417,4 -4,4"/>
<text text-anchor="middle" x="72.5" y="-7.2" font-family="Helvetica,sans-Serif" font-size="11.00">Generated by SchemaSpy</text>
<!-- asset_types_metadata -->
<g id="node1" class="node">
<title>asset_types_metadata</title>
<g id="a_node1"><a xlink:href="../../tables/asset_types_metadata.html" xlink:title="asset_types_metadata" target="_top">
<polygon fill="#ffffff" stroke="transparent" points="243,-127 243,-233 405,-233 405,-127 243,-127"/>
<polygon fill="#f5f5f5" stroke="transparent" points="243,-211 243,-233 405,-233 405,-211 243,-211"/>
<polygon fill="none" stroke="black" points="243,-211 243,-233 405,-233 405,-211 243,-211"/>
<text text-anchor="start" x="248" y="-220.2" font-family="Helvetica,sans-Serif" font-weight="bold" font-size="11.00">asset_types_metadata</text>
<text text-anchor="start" x="370" y="-219.2" font-family="Helvetica,sans-Serif" font-size="11.00">[table]</text>
<polygon fill="none" stroke="black" points="243,-189 243,-211 405,-211 405,-189 243,-189"/>
<image xlink:href="../../images/primaryKeys.png" width="11px" height="12px" preserveAspectRatio="xMinYMin meet" x="248" y="-206"/>
<text text-anchor="start" x="270" y="-197.2" font-family="Helvetica,sans-Serif" font-size="11.00">asset_type_id</text>
<polygon fill="none" stroke="black" points="243,-167 243,-189 405,-189 405,-167 243,-167"/>
<image xlink:href="../../images/primaryKeys.png" width="11px" height="12px" preserveAspectRatio="xMinYMin meet" x="248" y="-184"/>
<text text-anchor="start" x="270" y="-175.2" font-family="Helvetica,sans-Serif" font-size="11.00">metadata_category_id</text>
<polygon fill="none" stroke="black" points="243,-145 243,-167 405,-167 405,-145 243,-145"/>
<image xlink:href="../../images/foreignKeys.png" width="11px" height="12px" preserveAspectRatio="xMinYMin meet" x="248" y="-162"/>
<text text-anchor="start" x="270" y="-153.2" font-family="Helvetica,sans-Serif" font-size="11.00">metadata_id</text>
<polygon fill="#ffffff" stroke="transparent" points="243,-127 243,-145 298,-145 298,-127 243,-127"/>
<polygon fill="none" stroke="black" points="243,-127 243,-145 298,-145 298,-127 243,-127"/>
<text text-anchor="start" x="246" y="-133.2" font-family="Helvetica,sans-Serif" font-size="11.00">&lt; 2</text>
<polygon fill="#ffffff" stroke="transparent" points="298,-127 298,-145 375,-145 375,-127 298,-127"/>
<polygon fill="none" stroke="black" points="298,-127 298,-145 375,-145 375,-127 298,-127"/>
<text text-anchor="start" x="317" y="-133.2" font-family="Helvetica,sans-Serif" font-size="11.00">4,002 rows</text>
<polygon fill="#ffffff" stroke="transparent" points="375,-127 375,-145 405,-145 405,-127 375,-127"/>
<polygon fill="none" stroke="black" points="375,-127 375,-145 405,-145 405,-127 375,-127"/>
<text text-anchor="start" x="395" y="-133.2" font-family="Helvetica,sans-Serif" font-size="11.00"> &#160;</text>
</a>
</g>
</g>
<!-- tcs_metadata -->
<g id="node2" class="node">
<title>tcs_metadata</title>
<g id="a_node2"><a xlink:href="../../tables/tcs_metadata.html" xlink:title="tcs_metadata" target="_top">
<polygon fill="#ffffff" stroke="transparent" points="8,-37 8,-191 194,-191 194,-37 8,-37"/>
<polygon fill="#f5f5f5" stroke="transparent" points="10,-167 10,-189 192,-189 192,-167 10,-167"/>
<polygon fill="none" stroke="black" points="10,-167 10,-189 192,-189 192,-167 10,-167"/>
<text text-anchor="start" x="15" y="-176.2" font-family="Helvetica,sans-Serif" font-weight="bold" font-size="11.00">tcs_metadata</text>
<text text-anchor="start" x="157" y="-175.2" font-family="Helvetica,sans-Serif" font-size="11.00">[table]</text>
<polygon fill="none" stroke="black" points="10,-145 10,-167 119,-167 119,-145 10,-145"/>
<image xlink:href="../../images/primaryKeys.png" width="11px" height="12px" preserveAspectRatio="xMinYMin meet" x="15" y="-162"/>
<text text-anchor="start" x="30" y="-153.2" font-family="Helvetica,sans-Serif" font-size="11.00">id</text>
<polygon fill="none" stroke="black" points="119,-145 119,-167 192,-167 192,-145 119,-145"/>
<text text-anchor="start" x="122" y="-153.2" font-family="Helvetica,sans-Serif" font-size="11.00">serial[10]</text>
<polygon fill="none" stroke="black" points="10,-123 10,-145 119,-145 119,-123 10,-123"/>
<text text-anchor="start" x="30" y="-131.2" font-family="Helvetica,sans-Serif" font-size="11.00">category_id</text>
<polygon fill="none" stroke="black" points="119,-123 119,-145 192,-145 192,-123 119,-123"/>
<text text-anchor="start" x="122" y="-131.2" font-family="Helvetica,sans-Serif" font-size="11.00">int4[10]</text>
<polygon fill="none" stroke="black" points="10,-101 10,-123 119,-123 119,-101 10,-101"/>
<text text-anchor="start" x="30" y="-109.2" font-family="Helvetica,sans-Serif" font-size="11.00">category_name</text>
<polygon fill="none" stroke="black" points="119,-101 119,-123 192,-123 192,-101 119,-101"/>
<text text-anchor="start" x="122" y="-109.2" font-family="Helvetica,sans-Serif" font-size="11.00">varchar[64]</text>
<polygon fill="#ffffff" stroke="transparent" points="10,-79 10,-101 119,-101 119,-79 10,-79"/>
<polygon fill="none" stroke="black" points="10,-79 10,-101 119,-101 119,-79 10,-79"/>
<text text-anchor="start" x="30" y="-87.2" font-family="Helvetica,sans-Serif" font-size="11.00">value</text>
<polygon fill="none" stroke="black" points="119,-79 119,-101 192,-101 192,-79 119,-79"/>
<text text-anchor="start" x="122" y="-87.2" font-family="Helvetica,sans-Serif" font-size="11.00">varchar[64]</text>
<polygon fill="none" stroke="black" points="10,-57 10,-79 119,-79 119,-57 10,-57"/>
<text text-anchor="start" x="30" y="-65.2" font-family="Helvetica,sans-Serif" font-size="11.00">description</text>
<polygon fill="none" stroke="black" points="119,-57 119,-79 192,-79 192,-57 119,-57"/>
<text text-anchor="start" x="122" y="-65.2" font-family="Helvetica,sans-Serif" font-size="11.00">varchar[1024]</text>
<polygon fill="#ffffff" stroke="transparent" points="10,-39 10,-57 52,-57 52,-39 10,-39"/>
<polygon fill="none" stroke="black" points="10,-39 10,-57 52,-57 52,-39 10,-39"/>
<text text-anchor="start" x="13" y="-45.2" font-family="Helvetica,sans-Serif" font-size="11.00">&lt; 0</text>
<polygon fill="#ffffff" stroke="transparent" points="52,-39 52,-57 119,-57 119,-39 52,-39"/>
<polygon fill="none" stroke="black" points="52,-39 52,-57 119,-57 119,-39 52,-39"/>
<text text-anchor="start" x="76" y="-45.2" font-family="Helvetica,sans-Serif" font-size="11.00">31 rows</text>
<polygon fill="#ffffff" stroke="transparent" points="119,-39 119,-57 192,-57 192,-39 119,-39"/>
<polygon fill="none" stroke="black" points="119,-39 119,-57 192,-57 192,-39 119,-39"/>
<text text-anchor="start" x="173" y="-45.2" font-family="Helvetica,sans-Serif" font-size="11.00">1 &gt;</text>
<polygon fill="none" stroke="black" stroke-width="2" points="9,-38 9,-190 193,-190 193,-38 9,-38"/>
</a>
</g>
</g>
<!-- asset_types_metadata&#45;&gt;tcs_metadata -->
<g id="edge1" class="edge">
<title>asset_types_metadata:w&#45;&gt;tcs_metadata:e</title>
<path fill="none" stroke="black" d="M227.49,-156C216.18,-156 208.99,-156 193,-156"/>
<polygon fill="black" stroke="black" points="234,-156 242,-159.6 238,-156 242,-156 242,-156 242,-156 238,-156 242,-152.4 234,-156 234,-156"/>
<ellipse fill="none" stroke="black" cx="230.8" cy="-156" rx="3.2" ry="3.2"/>
</g>
</g>
</svg>
