<?xml version="1.0" encoding="UTF-8" standalone="no"?>
<!DOCTYPE svg PUBLIC "-//W3C//DTD SVG 1.1//EN"
 "http://www.w3.org/Graphics/SVG/1.1/DTD/svg11.dtd">
<!-- Generated by graphviz version 2.50.0 (20211204.2007)
 -->
<!-- Title: twoDegreesRelationshipsDiagram Pages: 1 -->
<svg width="649pt" height="531pt"
 viewBox="0.00 0.00 649.00 530.87" xmlns="http://www.w3.org/2000/svg" xmlns:xlink="http://www.w3.org/1999/xlink">
<g id="graph0" class="graph" transform="scale(1 1) rotate(0) translate(4 526.87)">
<title>twoDegreesRelationshipsDiagram</title>
<polygon fill="#ffffff" stroke="transparent" points="-4,4 -4,-526.87 645,-526.87 645,4 -4,4"/>
<text text-anchor="middle" x="72.5" y="-7.2" font-family="Helvetica,sans-Serif" font-size="11.00">Generated by SchemaSpy</text>
<!-- allowed_configuration_values -->
<g id="node1" class="node">
<title>allowed_configuration_values</title>
<g id="a_node1"><a xlink:href="../../tables/allowed_configuration_values.html" xlink:title="allowed_configuration_values" target="_top">
<polygon fill="#ffffff" stroke="transparent" points="178,-195 178,-253 381,-253 381,-195 178,-195"/>
<polygon fill="#f5f5f5" stroke="transparent" points="178.5,-231 178.5,-253 381.5,-253 381.5,-231 178.5,-231"/>
<polygon fill="none" stroke="black" points="178.5,-231 178.5,-253 381.5,-253 381.5,-231 178.5,-231"/>
<text text-anchor="start" x="183.5" y="-240.2" font-family="Helvetica,sans-Serif" font-weight="bold" font-size="11.00">allowed_configuration_values</text>
<text text-anchor="start" x="346.5" y="-239.2" font-family="Helvetica,sans-Serif" font-size="11.00">[table]</text>
<polygon fill="none" stroke="black" points="178.5,-213 178.5,-231 381.5,-231 381.5,-213 178.5,-213"/>
<text text-anchor="start" x="181.5" y="-219.2" font-family="Helvetica,sans-Serif" font-size="11.00">...</text>
<polygon fill="#ffffff" stroke="transparent" points="178.5,-195 178.5,-213 262.5,-213 262.5,-195 178.5,-195"/>
<polygon fill="none" stroke="black" points="178.5,-195 178.5,-213 262.5,-213 262.5,-195 178.5,-195"/>
<text text-anchor="start" x="181.5" y="-201.2" font-family="Helvetica,sans-Serif" font-size="11.00">&lt; 1</text>
<polygon fill="#ffffff" stroke="transparent" points="262.5,-195 262.5,-213 327.5,-213 327.5,-195 262.5,-195"/>
<polygon fill="none" stroke="black" points="262.5,-195 262.5,-213 327.5,-213 327.5,-195 262.5,-195"/>
<text text-anchor="start" x="296.5" y="-201.2" font-family="Helvetica,sans-Serif" font-size="11.00">1 row</text>
<polygon fill="#ffffff" stroke="transparent" points="327.5,-195 327.5,-213 381.5,-213 381.5,-195 327.5,-195"/>
<polygon fill="none" stroke="black" points="327.5,-195 327.5,-213 381.5,-213 381.5,-195 327.5,-195"/>
<text text-anchor="start" x="362.5" y="-201.2" font-family="Helvetica,sans-Serif" font-size="11.00">1 &gt;</text>
</a>
</g>
</g>
<!-- configurations -->
<g id="node2" class="node">
<title>configurations</title>
<g id="a_node2"><a xlink:href="../../tables/configurations.html" xlink:title="configurations" target="_top">
<polygon fill="#ffffff" stroke="transparent" points="8,-332 8,-390 129,-390 129,-332 8,-332"/>
<polygon fill="#f5f5f5" stroke="transparent" points="8.5,-368 8.5,-390 129.5,-390 129.5,-368 8.5,-368"/>
<polygon fill="none" stroke="black" points="8.5,-368 8.5,-390 129.5,-390 129.5,-368 8.5,-368"/>
<text text-anchor="start" x="13.5" y="-377.2" font-family="Helvetica,sans-Serif" font-weight="bold" font-size="11.00">configurations</text>
<text text-anchor="start" x="94.5" y="-376.2" font-family="Helvetica,sans-Serif" font-size="11.00">[table]</text>
<polygon fill="none" stroke="black" points="8.5,-350 8.5,-368 129.5,-368 129.5,-350 8.5,-350"/>
<text text-anchor="start" x="11.5" y="-356.2" font-family="Helvetica,sans-Serif" font-size="11.00">...</text>
<polygon fill="#ffffff" stroke="transparent" points="8.5,-332 8.5,-350 41.5,-350 41.5,-332 8.5,-332"/>
<polygon fill="none" stroke="black" points="8.5,-332 8.5,-350 41.5,-350 41.5,-332 8.5,-332"/>
<text text-anchor="start" x="11.5" y="-338.2" font-family="Helvetica,sans-Serif" font-size="11.00"> &#160;</text>
<polygon fill="#ffffff" stroke="transparent" points="41.5,-332 41.5,-350 97.5,-350 97.5,-332 41.5,-332"/>
<polygon fill="none" stroke="black" points="41.5,-332 41.5,-350 97.5,-350 97.5,-332 41.5,-332"/>
<text text-anchor="start" x="54.5" y="-338.2" font-family="Helvetica,sans-Serif" font-size="11.00">18 rows</text>
<polygon fill="#ffffff" stroke="transparent" points="97.5,-332 97.5,-350 129.5,-350 129.5,-332 97.5,-332"/>
<polygon fill="none" stroke="black" points="97.5,-332 97.5,-350 129.5,-350 129.5,-332 97.5,-332"/>
<text text-anchor="start" x="110.5" y="-338.2" font-family="Helvetica,sans-Serif" font-size="11.00">2 &gt;</text>
</a>
</g>
</g>
<!-- allowed_configuration_values&#45;&gt;configurations -->
<g id="edge1" class="edge">
<title>allowed_configuration_values:w&#45;&gt;configurations:e</title>
<path fill="none" stroke="black" d="M163.01,-225.39C127.17,-246.48 188.84,-359 130.5,-359"/>
<polygon fill="black" stroke="black" points="169.71,-223.82 178.32,-225.51 173.6,-222.91 177.5,-222 177.5,-222 177.5,-222 173.6,-222.91 176.68,-218.49 169.71,-223.82 169.71,-223.82"/>
<ellipse fill="none" stroke="black" cx="166.59" cy="-224.55" rx="3.2" ry="3.2"/>
</g>
<!-- users_configurations -->
<g id="node3" class="node">
<title>users_configurations</title>
<g id="a_node3"><a xlink:href="../../tables/users_configurations.html" xlink:title="users_configurations" target="_top">
<polygon fill="#ffffff" stroke="transparent" points="430,-346 430,-492 633,-492 633,-346 430,-346"/>
<polygon fill="#f5f5f5" stroke="transparent" points="430.5,-470 430.5,-492 633.5,-492 633.5,-470 430.5,-470"/>
<polygon fill="none" stroke="black" points="430.5,-470 430.5,-492 633.5,-492 633.5,-470 430.5,-470"/>
<text text-anchor="start" x="435.5" y="-479.2" font-family="Helvetica,sans-Serif" font-weight="bold" font-size="11.00">users_configurations</text>
<text text-anchor="start" x="598.5" y="-478.2" font-family="Helvetica,sans-Serif" font-size="11.00">[table]</text>
<polygon fill="none" stroke="black" points="430.5,-448 430.5,-470 633.5,-470 633.5,-448 430.5,-448"/>
<image xlink:href="../../images/primaryKeys.png" width="11px" height="12px" preserveAspectRatio="xMinYMin meet" x="435.5" y="-465"/>
<text text-anchor="start" x="450.5" y="-456.2" font-family="Helvetica,sans-Serif" font-size="11.00">id</text>
<polygon fill="none" stroke="black" points="430.5,-426 430.5,-448 633.5,-448 633.5,-426 430.5,-426"/>
<image xlink:href="../../images/foreignKeys.png" width="11px" height="12px" preserveAspectRatio="xMinYMin meet" x="435.5" y="-443"/>
<text text-anchor="start" x="450.5" y="-434.2" font-family="Helvetica,sans-Serif" font-size="11.00">user_id</text>
<polygon fill="none" stroke="black" points="430.5,-404 430.5,-426 633.5,-426 633.5,-404 430.5,-404"/>
<image xlink:href="../../images/foreignKeys.png" width="11px" height="12px" preserveAspectRatio="xMinYMin meet" x="435.5" y="-421"/>
<text text-anchor="start" x="450.5" y="-412.2" font-family="Helvetica,sans-Serif" font-size="11.00">configuration_id</text>
<polygon fill="none" stroke="black" points="430.5,-382 430.5,-404 633.5,-404 633.5,-382 430.5,-382"/>
<image xlink:href="../../images/foreignKeys.png" width="11px" height="12px" preserveAspectRatio="xMinYMin meet" x="435.5" y="-399"/>
<text text-anchor="start" x="450.5" y="-390.2" font-family="Helvetica,sans-Serif" font-size="11.00">allowed_configuration_value_id</text>
<polygon fill="none" stroke="black" points="430.5,-364 430.5,-382 633.5,-382 633.5,-364 430.5,-364"/>
<text text-anchor="start" x="433.5" y="-370.2" font-family="Helvetica,sans-Serif" font-size="11.00">...</text>
<polygon fill="#ffffff" stroke="transparent" points="430.5,-346 430.5,-364 513.5,-364 513.5,-346 430.5,-346"/>
<polygon fill="none" stroke="black" points="430.5,-346 430.5,-364 513.5,-364 513.5,-346 430.5,-346"/>
<text text-anchor="start" x="433.5" y="-352.2" font-family="Helvetica,sans-Serif" font-size="11.00">&lt; 3</text>
<polygon fill="#ffffff" stroke="transparent" points="513.5,-346 513.5,-364 589.5,-364 589.5,-346 513.5,-346"/>
<polygon fill="none" stroke="black" points="513.5,-346 513.5,-364 589.5,-364 589.5,-346 513.5,-346"/>
<text text-anchor="start" x="546.5" y="-352.2" font-family="Helvetica,sans-Serif" font-size="11.00">11 rows</text>
<polygon fill="#ffffff" stroke="transparent" points="589.5,-346 589.5,-364 633.5,-364 633.5,-346 589.5,-346"/>
<polygon fill="none" stroke="black" points="589.5,-346 589.5,-364 633.5,-364 633.5,-346 589.5,-346"/>
<text text-anchor="start" x="623.5" y="-352.2" font-family="Helvetica,sans-Serif" font-size="11.00"> &#160;</text>
</a>
</g>
</g>
<!-- users_configurations&#45;&gt;allowed_configuration_values -->
<g id="edge2" class="edge">
<title>users_configurations:w&#45;&gt;allowed_configuration_values:e</title>
<path fill="none" stroke="black" d="M415.24,-390.45C365.68,-369.18 455.62,-222 382.5,-222"/>
<polygon fill="black" stroke="black" points="421.62,-391.59 428.87,-396.54 425.56,-392.3 429.5,-393 429.5,-393 429.5,-393 425.56,-392.3 430.13,-389.46 421.62,-391.59 421.62,-391.59"/>
<ellipse fill="none" stroke="black" cx="418.47" cy="-391.03" rx="3.2" ry="3.2"/>
</g>
<!-- users_configurations&#45;&gt;configurations -->
<g id="edge3" class="edge">
<title>users_configurations:w&#45;&gt;configurations:e</title>
<path fill="none" stroke="black" d="M415.72,-419.42C401.6,-432.12 414.09,-468.74 389,-483 304.38,-531.09 248.58,-540.44 170,-483 123.31,-448.87 188.34,-359 130.5,-359"/>
<polygon fill="black" stroke="black" points="421.88,-417.44 430.6,-418.43 425.69,-416.22 429.5,-415 429.5,-415 429.5,-415 425.69,-416.22 428.4,-411.57 421.88,-417.44 421.88,-417.44"/>
<ellipse fill="none" stroke="black" cx="418.83" cy="-418.42" rx="3.2" ry="3.2"/>
</g>
<!-- users -->
<g id="node4" class="node">
<title>users</title>
<g id="a_node4"><a xlink:href="../../tables/users.html" xlink:title="users" target="_top">
<polygon fill="#ffffff" stroke="transparent" points="188.5,-274 188.5,-472 370.5,-472 370.5,-274 188.5,-274"/>
<polygon fill="#f5f5f5" stroke="transparent" points="190.5,-448 190.5,-470 368.5,-470 368.5,-448 190.5,-448"/>
<polygon fill="none" stroke="black" points="190.5,-448 190.5,-470 368.5,-470 368.5,-448 190.5,-448"/>
<text text-anchor="start" x="195.5" y="-457.2" font-family="Helvetica,sans-Serif" font-weight="bold" font-size="11.00">users</text>
<text text-anchor="start" x="333.5" y="-456.2" font-family="Helvetica,sans-Serif" font-size="11.00">[table]</text>
<polygon fill="none" stroke="black" points="190.5,-426 190.5,-448 275.5,-448 275.5,-426 190.5,-426"/>
<image xlink:href="../../images/primaryKeys.png" width="11px" height="12px" preserveAspectRatio="xMinYMin meet" x="195.5" y="-443"/>
<text text-anchor="start" x="210.5" y="-434.2" font-family="Helvetica,sans-Serif" font-size="11.00">id</text>
<polygon fill="none" stroke="black" points="275.5,-426 275.5,-448 368.5,-448 368.5,-426 275.5,-426"/>
<text text-anchor="start" x="278.5" y="-434.2" font-family="Helvetica,sans-Serif" font-size="11.00">serial[10]</text>
<polygon fill="none" stroke="black" points="190.5,-404 190.5,-426 275.5,-426 275.5,-404 190.5,-404"/>
<text text-anchor="start" x="210.5" y="-412.2" font-family="Helvetica,sans-Serif" font-size="11.00">guid</text>
<polygon fill="none" stroke="black" points="275.5,-404 275.5,-426 368.5,-426 368.5,-404 275.5,-404"/>
<text text-anchor="start" x="278.5" y="-412.2" font-family="Helvetica,sans-Serif" font-size="11.00">uuid[2147483647]</text>
<polygon fill="none" stroke="black" points="190.5,-382 190.5,-404 275.5,-404 275.5,-382 190.5,-382"/>
<text text-anchor="start" x="210.5" y="-390.2" font-family="Helvetica,sans-Serif" font-size="11.00">name</text>
<polygon fill="none" stroke="black" points="275.5,-382 275.5,-404 368.5,-404 368.5,-382 275.5,-382"/>
<text text-anchor="start" x="278.5" y="-390.2" font-family="Helvetica,sans-Serif" font-size="11.00">varchar[256]</text>
<polygon fill="#ffffff" stroke="transparent" points="190.5,-360 190.5,-382 275.5,-382 275.5,-360 190.5,-360"/>
<polygon fill="none" stroke="black" points="190.5,-360 190.5,-382 275.5,-382 275.5,-360 190.5,-360"/>
<text text-anchor="start" x="210.5" y="-368.2" font-family="Helvetica,sans-Serif" font-size="11.00">email</text>
<polygon fill="none" stroke="black" points="275.5,-360 275.5,-382 368.5,-382 368.5,-360 275.5,-360"/>
<text text-anchor="start" x="278.5" y="-368.2" font-family="Helvetica,sans-Serif" font-size="11.00">varchar[255]</text>
<polygon fill="none" stroke="black" points="190.5,-338 190.5,-360 275.5,-360 275.5,-338 190.5,-338"/>
<text text-anchor="start" x="210.5" y="-346.2" font-family="Helvetica,sans-Serif" font-size="11.00">created_at</text>
<polygon fill="none" stroke="black" points="275.5,-338 275.5,-360 368.5,-360 368.5,-338 275.5,-338"/>
<text text-anchor="start" x="278.5" y="-346.2" font-family="Helvetica,sans-Serif" font-size="11.00">timestamp[29,6]</text>
<polygon fill="none" stroke="black" points="190.5,-316 190.5,-338 275.5,-338 275.5,-316 190.5,-316"/>
<text text-anchor="start" x="210.5" y="-324.2" font-family="Helvetica,sans-Serif" font-size="11.00">updated_at</text>
<polygon fill="none" stroke="black" points="275.5,-316 275.5,-338 368.5,-338 368.5,-316 275.5,-316"/>
<text text-anchor="start" x="278.5" y="-324.2" font-family="Helvetica,sans-Serif" font-size="11.00">timestamp[29,6]</text>
<polygon fill="none" stroke="black" points="190.5,-294 190.5,-316 275.5,-316 275.5,-294 190.5,-294"/>
<text text-anchor="start" x="210.5" y="-302.2" font-family="Helvetica,sans-Serif" font-size="11.00">is_active</text>
<polygon fill="none" stroke="black" points="275.5,-294 275.5,-316 368.5,-316 368.5,-294 275.5,-294"/>
<text text-anchor="start" x="278.5" y="-302.2" font-family="Helvetica,sans-Serif" font-size="11.00">bool[1]</text>
<polygon fill="#ffffff" stroke="transparent" points="190.5,-276 190.5,-294 220.5,-294 220.5,-276 190.5,-276"/>
<polygon fill="none" stroke="black" points="190.5,-276 190.5,-294 220.5,-294 220.5,-276 190.5,-276"/>
<text text-anchor="start" x="193.5" y="-282.2" font-family="Helvetica,sans-Serif" font-size="11.00">&lt; 0</text>
<polygon fill="#ffffff" stroke="transparent" points="220.5,-276 220.5,-294 275.5,-294 275.5,-276 220.5,-276"/>
<polygon fill="none" stroke="black" points="220.5,-276 220.5,-294 275.5,-294 275.5,-276 220.5,-276"/>
<text text-anchor="start" x="232.5" y="-282.2" font-family="Helvetica,sans-Serif" font-size="11.00">11 rows</text>
<polygon fill="#ffffff" stroke="transparent" points="275.5,-276 275.5,-294 368.5,-294 368.5,-276 275.5,-276"/>
<polygon fill="none" stroke="black" points="275.5,-276 275.5,-294 368.5,-294 368.5,-276 275.5,-276"/>
<text text-anchor="start" x="349.5" y="-282.2" font-family="Helvetica,sans-Serif" font-size="11.00">2 &gt;</text>
<polygon fill="none" stroke="black" stroke-width="2" points="189.5,-275 189.5,-471 369.5,-471 369.5,-275 189.5,-275"/>
</a>
</g>
</g>
<!-- users_configurations&#45;&gt;users -->
<g id="edge4" class="edge">
<title>users_configurations:w&#45;&gt;users:e</title>
<path fill="none" stroke="black" d="M414.92,-437C399.13,-437 390.54,-437 369.5,-437"/>
<polygon fill="black" stroke="black" points="421.5,-437 429.5,-440.6 425.5,-437 429.5,-437 429.5,-437 429.5,-437 425.5,-437 429.5,-433.4 421.5,-437 421.5,-437"/>
<ellipse fill="none" stroke="black" cx="418.3" cy="-437" rx="3.2" ry="3.2"/>
</g>
<!-- users_roles_customers -->
<g id="node5" class="node">
<title>users_roles_customers</title>
<g id="a_node5"><a xlink:href="../../tables/users_roles_customers.html" xlink:title="users_roles_customers" target="_top">
<polygon fill="#ffffff" stroke="transparent" points="447,-74 447,-220 616,-220 616,-74 447,-74"/>
<polygon fill="#f5f5f5" stroke="transparent" points="447.5,-198 447.5,-220 616.5,-220 616.5,-198 447.5,-198"/>
<polygon fill="none" stroke="black" points="447.5,-198 447.5,-220 616.5,-220 616.5,-198 447.5,-198"/>
<text text-anchor="start" x="452.5" y="-207.2" font-family="Helvetica,sans-Serif" font-weight="bold" font-size="11.00">users_roles_customers</text>
<text text-anchor="start" x="581.5" y="-206.2" font-family="Helvetica,sans-Serif" font-size="11.00">[table]</text>
<polygon fill="none" stroke="black" points="447.5,-176 447.5,-198 616.5,-198 616.5,-176 447.5,-176"/>
<image xlink:href="../../images/primaryKeys.png" width="11px" height="12px" preserveAspectRatio="xMinYMin meet" x="452.5" y="-193"/>
<text text-anchor="start" x="474.5" y="-184.2" font-family="Helvetica,sans-Serif" font-size="11.00">id</text>
<polygon fill="#ffffff" stroke="transparent" points="447.5,-154 447.5,-176 616.5,-176 616.5,-154 447.5,-154"/>
<polygon fill="none" stroke="black" points="447.5,-154 447.5,-176 616.5,-176 616.5,-154 447.5,-154"/>
<image xlink:href="../../images/foreignKeys.png" width="11px" height="12px" preserveAspectRatio="xMinYMin meet" x="452.5" y="-171"/>
<text text-anchor="start" x="474.5" y="-162.2" font-family="Helvetica,sans-Serif" font-size="11.00">user_id</text>
<polygon fill="none" stroke="black" points="447.5,-132 447.5,-154 616.5,-154 616.5,-132 447.5,-132"/>
<image xlink:href="../../images/foreignKeys.png" width="11px" height="12px" preserveAspectRatio="xMinYMin meet" x="452.5" y="-149"/>
<text text-anchor="start" x="474.5" y="-140.2" font-family="Helvetica,sans-Serif" font-size="11.00">role_id</text>
<polygon fill="#ffffff" stroke="transparent" points="447.5,-110 447.5,-132 616.5,-132 616.5,-110 447.5,-110"/>
<polygon fill="none" stroke="black" points="447.5,-110 447.5,-132 616.5,-132 616.5,-110 447.5,-110"/>
<image xlink:href="../../images/foreignKeys.png" width="11px" height="12px" preserveAspectRatio="xMinYMin meet" x="452.5" y="-127"/>
<text text-anchor="start" x="474.5" y="-118.2" font-family="Helvetica,sans-Serif" font-size="11.00">customer_id</text>
<polygon fill="none" stroke="black" points="447.5,-92 447.5,-110 616.5,-110 616.5,-92 447.5,-92"/>
<text text-anchor="start" x="450.5" y="-98.2" font-family="Helvetica,sans-Serif" font-size="11.00">...</text>
<polygon fill="#ffffff" stroke="transparent" points="447.5,-74 447.5,-92 513.5,-92 513.5,-74 447.5,-74"/>
<polygon fill="none" stroke="black" points="447.5,-74 447.5,-92 513.5,-92 513.5,-74 447.5,-74"/>
<text text-anchor="start" x="450.5" y="-80.2" font-family="Helvetica,sans-Serif" font-size="11.00">&lt; 3</text>
<polygon fill="#ffffff" stroke="transparent" points="513.5,-74 513.5,-92 581.5,-92 581.5,-74 513.5,-74"/>
<polygon fill="none" stroke="black" points="513.5,-74 513.5,-92 581.5,-92 581.5,-74 513.5,-74"/>
<text text-anchor="start" x="538.5" y="-80.2" font-family="Helvetica,sans-Serif" font-size="11.00">12 rows</text>
<polygon fill="#ffffff" stroke="transparent" points="581.5,-74 581.5,-92 616.5,-92 616.5,-74 581.5,-74"/>
<polygon fill="none" stroke="black" points="581.5,-74 581.5,-92 616.5,-92 616.5,-74 581.5,-74"/>
<text text-anchor="start" x="606.5" y="-80.2" font-family="Helvetica,sans-Serif" font-size="11.00"> &#160;</text>
</a>
</g>
</g>
<!-- users_roles_customers&#45;&gt;users -->
<g id="edge7" class="edge">
<title>users_roles_customers:w&#45;&gt;users:e</title>
<path fill="none" stroke="black" d="M431.92,-166.46C335.28,-187.87 489.74,-437 369.5,-437"/>
<polygon fill="black" stroke="black" points="438.54,-165.8 446.86,-168.58 442.52,-165.4 446.5,-165 446.5,-165 446.5,-165 442.52,-165.4 446.14,-161.42 438.54,-165.8 438.54,-165.8"/>
<ellipse fill="none" stroke="black" cx="435.36" cy="-166.12" rx="3.2" ry="3.2"/>
</g>
<!-- customers -->
<g id="node6" class="node">
<title>customers</title>
<g id="a_node6"><a xlink:href="../../tables/customers.html" xlink:title="customers" target="_top">
<polygon fill="#ffffff" stroke="transparent" points="229.5,-37 229.5,-95 329.5,-95 329.5,-37 229.5,-37"/>
<polygon fill="#f5f5f5" stroke="transparent" points="229.5,-73 229.5,-95 329.5,-95 329.5,-73 229.5,-73"/>
<polygon fill="none" stroke="black" points="229.5,-73 229.5,-95 329.5,-95 329.5,-73 229.5,-73"/>
<text text-anchor="start" x="234.5" y="-82.2" font-family="Helvetica,sans-Serif" font-weight="bold" font-size="11.00">customers</text>
<text text-anchor="start" x="294.5" y="-81.2" font-family="Helvetica,sans-Serif" font-size="11.00">[table]</text>
<polygon fill="none" stroke="black" points="229.5,-55 229.5,-73 329.5,-73 329.5,-55 229.5,-55"/>
<text text-anchor="start" x="232.5" y="-61.2" font-family="Helvetica,sans-Serif" font-size="11.00">...</text>
<polygon fill="#ffffff" stroke="transparent" points="229.5,-37 229.5,-55 248.5,-55 248.5,-37 229.5,-37"/>
<polygon fill="none" stroke="black" points="229.5,-37 229.5,-55 248.5,-55 248.5,-37 229.5,-37"/>
<text text-anchor="start" x="232.5" y="-43.2" font-family="Helvetica,sans-Serif" font-size="11.00"> &#160;</text>
<polygon fill="#ffffff" stroke="transparent" points="248.5,-37 248.5,-55 303.5,-55 303.5,-37 248.5,-37"/>
<polygon fill="none" stroke="black" points="248.5,-37 248.5,-55 303.5,-55 303.5,-37 248.5,-37"/>
<text text-anchor="start" x="254.5" y="-43.2" font-family="Helvetica,sans-Serif" font-size="11.00">938 rows</text>
<polygon fill="#ffffff" stroke="transparent" points="303.5,-37 303.5,-55 329.5,-55 329.5,-37 303.5,-37"/>
<polygon fill="none" stroke="black" points="303.5,-37 303.5,-55 329.5,-55 329.5,-37 303.5,-37"/>
<text text-anchor="start" x="310.5" y="-43.2" font-family="Helvetica,sans-Serif" font-size="11.00">5 &gt;</text>
</a>
</g>
</g>
<!-- users_roles_customers&#45;&gt;customers -->
<g id="edge5" class="edge">
<title>users_roles_customers:w&#45;&gt;customers:e</title>
<path fill="none" stroke="black" d="M432.02,-119.65C388.38,-111.02 382.67,-64 330.5,-64"/>
<polygon fill="black" stroke="black" points="438.53,-120.26 446.17,-124.58 442.52,-120.63 446.5,-121 446.5,-121 446.5,-121 442.52,-120.63 446.83,-117.42 438.53,-120.26 438.53,-120.26"/>
<ellipse fill="none" stroke="black" cx="435.35" cy="-119.96" rx="3.2" ry="3.2"/>
</g>
<!-- roles -->
<g id="node7" class="node">
<title>roles</title>
<g id="a_node7"><a xlink:href="../../tables/roles.html" xlink:title="roles" target="_top">
<polygon fill="#ffffff" stroke="transparent" points="242,-116 242,-174 317,-174 317,-116 242,-116"/>
<polygon fill="#f5f5f5" stroke="transparent" points="242.5,-152 242.5,-174 317.5,-174 317.5,-152 242.5,-152"/>
<polygon fill="none" stroke="black" points="242.5,-152 242.5,-174 317.5,-174 317.5,-152 242.5,-152"/>
<text text-anchor="start" x="247.5" y="-161.2" font-family="Helvetica,sans-Serif" font-weight="bold" font-size="11.00">roles</text>
<text text-anchor="start" x="282.5" y="-160.2" font-family="Helvetica,sans-Serif" font-size="11.00">[table]</text>
<polygon fill="none" stroke="black" points="242.5,-134 242.5,-152 317.5,-152 317.5,-134 242.5,-134"/>
<text text-anchor="start" x="245.5" y="-140.2" font-family="Helvetica,sans-Serif" font-size="11.00">...</text>
<polygon fill="#ffffff" stroke="transparent" points="242.5,-116 242.5,-134 255.5,-134 255.5,-116 242.5,-116"/>
<polygon fill="none" stroke="black" points="242.5,-116 242.5,-134 255.5,-134 255.5,-116 242.5,-116"/>
<text text-anchor="start" x="245.5" y="-122.2" font-family="Helvetica,sans-Serif" font-size="11.00"> &#160;</text>
<polygon fill="#ffffff" stroke="transparent" points="255.5,-116 255.5,-134 295.5,-134 295.5,-116 255.5,-116"/>
<polygon fill="none" stroke="black" points="255.5,-116 255.5,-134 295.5,-134 295.5,-116 255.5,-116"/>
<text text-anchor="start" x="258.5" y="-122.2" font-family="Helvetica,sans-Serif" font-size="11.00">3 rows</text>
<polygon fill="#ffffff" stroke="transparent" points="295.5,-116 295.5,-134 317.5,-134 317.5,-116 295.5,-116"/>
<polygon fill="none" stroke="black" points="295.5,-116 295.5,-134 317.5,-134 317.5,-116 295.5,-116"/>
<text text-anchor="start" x="298.5" y="-122.2" font-family="Helvetica,sans-Serif" font-size="11.00">2 &gt;</text>
</a>
</g>
</g>
<!-- users_roles_customers&#45;&gt;roles -->
<g id="edge6" class="edge">
<title>users_roles_customers:w&#45;&gt;roles:e</title>
<path fill="none" stroke="black" d="M431.85,-143C386.64,-143 370.17,-143 318.5,-143"/>
<polygon fill="black" stroke="black" points="438.5,-143 446.5,-146.6 442.5,-143 446.5,-143 446.5,-143 446.5,-143 442.5,-143 446.5,-139.4 438.5,-143 438.5,-143"/>
<ellipse fill="none" stroke="black" cx="435.3" cy="-143" rx="3.2" ry="3.2"/>
</g>
</g>
</svg>
