<?xml version="1.0" encoding="UTF-8" standalone="no"?>
<!DOCTYPE svg PUBLIC "-//W3C//DTD SVG 1.1//EN"
 "http://www.w3.org/Graphics/SVG/1.1/DTD/svg11.dtd">
<!-- Generated by graphviz version 2.50.0 (20211204.2007)
 -->
<!-- Title: oneDegreeRelationshipsDiagram Pages: 1 -->
<svg width="458pt" height="362pt"
 viewBox="0.00 0.00 458.00 362.00" xmlns="http://www.w3.org/2000/svg" xmlns:xlink="http://www.w3.org/1999/xlink">
<g id="graph0" class="graph" transform="scale(1 1) rotate(0) translate(4 358)">
<title>oneDegreeRelationshipsDiagram</title>
<polygon fill="#ffffff" stroke="transparent" points="-4,4 -4,-358 454,-358 454,4 -4,4"/>
<text text-anchor="middle" x="72.5" y="-7.2" font-family="Helvetica,sans-Serif" font-size="11.00">Generated by SchemaSpy</text>
<!-- users_configurations -->
<g id="node1" class="node">
<title>users_configurations</title>
<g id="a_node1"><a xlink:href="../../tables/users_configurations.html" xlink:title="users_configurations" target="_top">
<polygon fill="#ffffff" stroke="transparent" points="239,-204 239,-350 442,-350 442,-204 239,-204"/>
<polygon fill="#f5f5f5" stroke="transparent" points="239.5,-328 239.5,-350 442.5,-350 442.5,-328 239.5,-328"/>
<polygon fill="none" stroke="black" points="239.5,-328 239.5,-350 442.5,-350 442.5,-328 239.5,-328"/>
<text text-anchor="start" x="244.5" y="-337.2" font-family="Helvetica,sans-Serif" font-weight="bold" font-size="11.00">users_configurations</text>
<text text-anchor="start" x="407.5" y="-336.2" font-family="Helvetica,sans-Serif" font-size="11.00">[table]</text>
<polygon fill="none" stroke="black" points="239.5,-306 239.5,-328 442.5,-328 442.5,-306 239.5,-306"/>
<image xlink:href="../../images/primaryKeys.png" width="11px" height="12px" preserveAspectRatio="xMinYMin meet" x="244.5" y="-323"/>
<text text-anchor="start" x="259.5" y="-314.2" font-family="Helvetica,sans-Serif" font-size="11.00">id</text>
<polygon fill="none" stroke="black" points="239.5,-284 239.5,-306 442.5,-306 442.5,-284 239.5,-284"/>
<image xlink:href="../../images/foreignKeys.png" width="11px" height="12px" preserveAspectRatio="xMinYMin meet" x="244.5" y="-301"/>
<text text-anchor="start" x="259.5" y="-292.2" font-family="Helvetica,sans-Serif" font-size="11.00">user_id</text>
<polygon fill="none" stroke="black" points="239.5,-262 239.5,-284 442.5,-284 442.5,-262 239.5,-262"/>
<image xlink:href="../../images/foreignKeys.png" width="11px" height="12px" preserveAspectRatio="xMinYMin meet" x="244.5" y="-279"/>
<text text-anchor="start" x="259.5" y="-270.2" font-family="Helvetica,sans-Serif" font-size="11.00">configuration_id</text>
<polygon fill="none" stroke="black" points="239.5,-240 239.5,-262 442.5,-262 442.5,-240 239.5,-240"/>
<image xlink:href="../../images/foreignKeys.png" width="11px" height="12px" preserveAspectRatio="xMinYMin meet" x="244.5" y="-257"/>
<text text-anchor="start" x="259.5" y="-248.2" font-family="Helvetica,sans-Serif" font-size="11.00">allowed_configuration_value_id</text>
<polygon fill="none" stroke="black" points="239.5,-222 239.5,-240 442.5,-240 442.5,-222 239.5,-222"/>
<text text-anchor="start" x="242.5" y="-228.2" font-family="Helvetica,sans-Serif" font-size="11.00">...</text>
<polygon fill="#ffffff" stroke="transparent" points="239.5,-204 239.5,-222 322.5,-222 322.5,-204 239.5,-204"/>
<polygon fill="none" stroke="black" points="239.5,-204 239.5,-222 322.5,-222 322.5,-204 239.5,-204"/>
<text text-anchor="start" x="242.5" y="-210.2" font-family="Helvetica,sans-Serif" font-size="11.00">&lt; 3</text>
<polygon fill="#ffffff" stroke="transparent" points="322.5,-204 322.5,-222 398.5,-222 398.5,-204 322.5,-204"/>
<polygon fill="none" stroke="black" points="322.5,-204 322.5,-222 398.5,-222 398.5,-204 322.5,-204"/>
<text text-anchor="start" x="355.5" y="-210.2" font-family="Helvetica,sans-Serif" font-size="11.00">11 rows</text>
<polygon fill="#ffffff" stroke="transparent" points="398.5,-204 398.5,-222 442.5,-222 442.5,-204 398.5,-204"/>
<polygon fill="none" stroke="black" points="398.5,-204 398.5,-222 442.5,-222 442.5,-204 398.5,-204"/>
<text text-anchor="start" x="432.5" y="-210.2" font-family="Helvetica,sans-Serif" font-size="11.00"> &#160;</text>
</a>
</g>
</g>
<!-- users -->
<g id="node2" class="node">
<title>users</title>
<g id="a_node2"><a xlink:href="../../tables/users.html" xlink:title="users" target="_top">
<polygon fill="#ffffff" stroke="transparent" points="8,-48 8,-246 190,-246 190,-48 8,-48"/>
<polygon fill="#f5f5f5" stroke="transparent" points="10,-222 10,-244 188,-244 188,-222 10,-222"/>
<polygon fill="none" stroke="black" points="10,-222 10,-244 188,-244 188,-222 10,-222"/>
<text text-anchor="start" x="15" y="-231.2" font-family="Helvetica,sans-Serif" font-weight="bold" font-size="11.00">users</text>
<text text-anchor="start" x="153" y="-230.2" font-family="Helvetica,sans-Serif" font-size="11.00">[table]</text>
<polygon fill="none" stroke="black" points="10,-200 10,-222 95,-222 95,-200 10,-200"/>
<image xlink:href="../../images/primaryKeys.png" width="11px" height="12px" preserveAspectRatio="xMinYMin meet" x="15" y="-217"/>
<text text-anchor="start" x="30" y="-208.2" font-family="Helvetica,sans-Serif" font-size="11.00">id</text>
<polygon fill="none" stroke="black" points="95,-200 95,-222 188,-222 188,-200 95,-200"/>
<text text-anchor="start" x="98" y="-208.2" font-family="Helvetica,sans-Serif" font-size="11.00">serial[10]</text>
<polygon fill="none" stroke="black" points="10,-178 10,-200 95,-200 95,-178 10,-178"/>
<text text-anchor="start" x="30" y="-186.2" font-family="Helvetica,sans-Serif" font-size="11.00">guid</text>
<polygon fill="none" stroke="black" points="95,-178 95,-200 188,-200 188,-178 95,-178"/>
<text text-anchor="start" x="98" y="-186.2" font-family="Helvetica,sans-Serif" font-size="11.00">uuid[2147483647]</text>
<polygon fill="none" stroke="black" points="10,-156 10,-178 95,-178 95,-156 10,-156"/>
<text text-anchor="start" x="30" y="-164.2" font-family="Helvetica,sans-Serif" font-size="11.00">name</text>
<polygon fill="none" stroke="black" points="95,-156 95,-178 188,-178 188,-156 95,-156"/>
<text text-anchor="start" x="98" y="-164.2" font-family="Helvetica,sans-Serif" font-size="11.00">varchar[256]</text>
<polygon fill="#ffffff" stroke="transparent" points="10,-134 10,-156 95,-156 95,-134 10,-134"/>
<polygon fill="none" stroke="black" points="10,-134 10,-156 95,-156 95,-134 10,-134"/>
<text text-anchor="start" x="30" y="-142.2" font-family="Helvetica,sans-Serif" font-size="11.00">email</text>
<polygon fill="none" stroke="black" points="95,-134 95,-156 188,-156 188,-134 95,-134"/>
<text text-anchor="start" x="98" y="-142.2" font-family="Helvetica,sans-Serif" font-size="11.00">varchar[255]</text>
<polygon fill="none" stroke="black" points="10,-112 10,-134 95,-134 95,-112 10,-112"/>
<text text-anchor="start" x="30" y="-120.2" font-family="Helvetica,sans-Serif" font-size="11.00">created_at</text>
<polygon fill="none" stroke="black" points="95,-112 95,-134 188,-134 188,-112 95,-112"/>
<text text-anchor="start" x="98" y="-120.2" font-family="Helvetica,sans-Serif" font-size="11.00">timestamp[29,6]</text>
<polygon fill="none" stroke="black" points="10,-90 10,-112 95,-112 95,-90 10,-90"/>
<text text-anchor="start" x="30" y="-98.2" font-family="Helvetica,sans-Serif" font-size="11.00">updated_at</text>
<polygon fill="none" stroke="black" points="95,-90 95,-112 188,-112 188,-90 95,-90"/>
<text text-anchor="start" x="98" y="-98.2" font-family="Helvetica,sans-Serif" font-size="11.00">timestamp[29,6]</text>
<polygon fill="none" stroke="black" points="10,-68 10,-90 95,-90 95,-68 10,-68"/>
<text text-anchor="start" x="30" y="-76.2" font-family="Helvetica,sans-Serif" font-size="11.00">is_active</text>
<polygon fill="none" stroke="black" points="95,-68 95,-90 188,-90 188,-68 95,-68"/>
<text text-anchor="start" x="98" y="-76.2" font-family="Helvetica,sans-Serif" font-size="11.00">bool[1]</text>
<polygon fill="#ffffff" stroke="transparent" points="10,-50 10,-68 40,-68 40,-50 10,-50"/>
<polygon fill="none" stroke="black" points="10,-50 10,-68 40,-68 40,-50 10,-50"/>
<text text-anchor="start" x="13" y="-56.2" font-family="Helvetica,sans-Serif" font-size="11.00">&lt; 0</text>
<polygon fill="#ffffff" stroke="transparent" points="40,-50 40,-68 95,-68 95,-50 40,-50"/>
<polygon fill="none" stroke="black" points="40,-50 40,-68 95,-68 95,-50 40,-50"/>
<text text-anchor="start" x="52" y="-56.2" font-family="Helvetica,sans-Serif" font-size="11.00">11 rows</text>
<polygon fill="#ffffff" stroke="transparent" points="95,-50 95,-68 188,-68 188,-50 95,-50"/>
<polygon fill="none" stroke="black" points="95,-50 95,-68 188,-68 188,-50 95,-50"/>
<text text-anchor="start" x="169" y="-56.2" font-family="Helvetica,sans-Serif" font-size="11.00">2 &gt;</text>
<polygon fill="none" stroke="black" stroke-width="2" points="9,-49 9,-245 189,-245 189,-49 9,-49"/>
</a>
</g>
</g>
<!-- users_configurations&#45;&gt;users -->
<g id="edge1" class="edge">
<title>users_configurations:w&#45;&gt;users:e</title>
<path fill="none" stroke="black" d="M224.55,-290.48C204.03,-273.04 226.24,-211 189,-211"/>
<polygon fill="black" stroke="black" points="230.89,-292.54 237.39,-298.43 234.69,-293.77 238.5,-295 238.5,-295 238.5,-295 234.69,-293.77 239.61,-291.57 230.89,-292.54 230.89,-292.54"/>
<ellipse fill="none" stroke="black" cx="227.84" cy="-291.55" rx="3.2" ry="3.2"/>
</g>
<!-- users_roles_customers -->
<g id="node3" class="node">
<title>users_roles_customers</title>
<g id="a_node3"><a xlink:href="../../tables/users_roles_customers.html" xlink:title="users_roles_customers" target="_top">
<polygon fill="#ffffff" stroke="transparent" points="256,-37 256,-183 425,-183 425,-37 256,-37"/>
<polygon fill="#f5f5f5" stroke="transparent" points="256.5,-161 256.5,-183 425.5,-183 425.5,-161 256.5,-161"/>
<polygon fill="none" stroke="black" points="256.5,-161 256.5,-183 425.5,-183 425.5,-161 256.5,-161"/>
<text text-anchor="start" x="261.5" y="-170.2" font-family="Helvetica,sans-Serif" font-weight="bold" font-size="11.00">users_roles_customers</text>
<text text-anchor="start" x="390.5" y="-169.2" font-family="Helvetica,sans-Serif" font-size="11.00">[table]</text>
<polygon fill="none" stroke="black" points="256.5,-139 256.5,-161 425.5,-161 425.5,-139 256.5,-139"/>
<image xlink:href="../../images/primaryKeys.png" width="11px" height="12px" preserveAspectRatio="xMinYMin meet" x="261.5" y="-156"/>
<text text-anchor="start" x="283.5" y="-147.2" font-family="Helvetica,sans-Serif" font-size="11.00">id</text>
<polygon fill="#ffffff" stroke="transparent" points="256.5,-117 256.5,-139 425.5,-139 425.5,-117 256.5,-117"/>
<polygon fill="none" stroke="black" points="256.5,-117 256.5,-139 425.5,-139 425.5,-117 256.5,-117"/>
<image xlink:href="../../images/foreignKeys.png" width="11px" height="12px" preserveAspectRatio="xMinYMin meet" x="261.5" y="-134"/>
<text text-anchor="start" x="283.5" y="-125.2" font-family="Helvetica,sans-Serif" font-size="11.00">user_id</text>
<polygon fill="none" stroke="black" points="256.5,-95 256.5,-117 425.5,-117 425.5,-95 256.5,-95"/>
<image xlink:href="../../images/foreignKeys.png" width="11px" height="12px" preserveAspectRatio="xMinYMin meet" x="261.5" y="-112"/>
<text text-anchor="start" x="283.5" y="-103.2" font-family="Helvetica,sans-Serif" font-size="11.00">role_id</text>
<polygon fill="#ffffff" stroke="transparent" points="256.5,-73 256.5,-95 425.5,-95 425.5,-73 256.5,-73"/>
<polygon fill="none" stroke="black" points="256.5,-73 256.5,-95 425.5,-95 425.5,-73 256.5,-73"/>
<image xlink:href="../../images/foreignKeys.png" width="11px" height="12px" preserveAspectRatio="xMinYMin meet" x="261.5" y="-90"/>
<text text-anchor="start" x="283.5" y="-81.2" font-family="Helvetica,sans-Serif" font-size="11.00">customer_id</text>
<polygon fill="none" stroke="black" points="256.5,-55 256.5,-73 425.5,-73 425.5,-55 256.5,-55"/>
<text text-anchor="start" x="259.5" y="-61.2" font-family="Helvetica,sans-Serif" font-size="11.00">...</text>
<polygon fill="#ffffff" stroke="transparent" points="256.5,-37 256.5,-55 322.5,-55 322.5,-37 256.5,-37"/>
<polygon fill="none" stroke="black" points="256.5,-37 256.5,-55 322.5,-55 322.5,-37 256.5,-37"/>
<text text-anchor="start" x="259.5" y="-43.2" font-family="Helvetica,sans-Serif" font-size="11.00">&lt; 3</text>
<polygon fill="#ffffff" stroke="transparent" points="322.5,-37 322.5,-55 390.5,-55 390.5,-37 322.5,-37"/>
<polygon fill="none" stroke="black" points="322.5,-37 322.5,-55 390.5,-55 390.5,-37 322.5,-37"/>
<text text-anchor="start" x="347.5" y="-43.2" font-family="Helvetica,sans-Serif" font-size="11.00">12 rows</text>
<polygon fill="#ffffff" stroke="transparent" points="390.5,-37 390.5,-55 425.5,-55 425.5,-37 390.5,-37"/>
<polygon fill="none" stroke="black" points="390.5,-37 390.5,-55 425.5,-55 425.5,-37 390.5,-37"/>
<text text-anchor="start" x="415.5" y="-43.2" font-family="Helvetica,sans-Serif" font-size="11.00"> &#160;</text>
</a>
</g>
</g>
<!-- users_roles_customers&#45;&gt;users -->
<g id="edge2" class="edge">
<title>users_roles_customers:w&#45;&gt;users:e</title>
<path fill="none" stroke="black" d="M241.37,-131.36C213.92,-146.88 230.54,-211 189,-211"/>
<polygon fill="black" stroke="black" points="247.72,-129.85 256.33,-131.5 251.61,-128.92 255.5,-128 255.5,-128 255.5,-128 251.61,-128.92 254.67,-124.5 247.72,-129.85 247.72,-129.85"/>
<ellipse fill="none" stroke="black" cx="244.6" cy="-130.59" rx="3.2" ry="3.2"/>
</g>
</g>
</svg>
