<?xml version="1.0" encoding="UTF-8" standalone="no"?>
<!DOCTYPE svg PUBLIC "-//W3C//DTD SVG 1.1//EN"
 "http://www.w3.org/Graphics/SVG/1.1/DTD/svg11.dtd">
<!-- Generated by graphviz version 2.50.0 (20211204.2007)
 -->
<!-- Title: twoDegreesRelationshipsDiagram Pages: 1 -->
<svg width="434pt" height="721pt"
 viewBox="0.00 0.00 434.00 721.00" xmlns="http://www.w3.org/2000/svg" xmlns:xlink="http://www.w3.org/1999/xlink">
<g id="graph0" class="graph" transform="scale(1 1) rotate(0) translate(4 717)">
<title>twoDegreesRelationshipsDiagram</title>
<polygon fill="#ffffff" stroke="transparent" points="-4,4 -4,-717 430,-717 430,4 -4,4"/>
<text text-anchor="middle" x="72.5" y="-7.2" font-family="Helvetica,sans-Serif" font-size="11.00">Generated by SchemaSpy</text>
<!-- aggregate_risks -->
<g id="node1" class="node">
<title>aggregate_risks</title>
<g id="a_node1"><a xlink:href="../../tables/aggregate_risks.html" xlink:title="aggregate_risks" target="_top">
<polygon fill="#ffffff" stroke="transparent" points="231,-572 231,-630 361,-630 361,-572 231,-572"/>
<polygon fill="#f5f5f5" stroke="transparent" points="231,-608 231,-630 361,-630 361,-608 231,-608"/>
<polygon fill="none" stroke="black" points="231,-608 231,-630 361,-630 361,-608 231,-608"/>
<text text-anchor="start" x="236" y="-617.2" font-family="Helvetica,sans-Serif" font-weight="bold" font-size="11.00">aggregate_risks</text>
<text text-anchor="start" x="326" y="-616.2" font-family="Helvetica,sans-Serif" font-size="11.00">[table]</text>
<polygon fill="none" stroke="black" points="231,-590 231,-608 361,-608 361,-590 231,-590"/>
<text text-anchor="start" x="234" y="-596.2" font-family="Helvetica,sans-Serif" font-size="11.00">...</text>
<polygon fill="#ffffff" stroke="transparent" points="231,-572 231,-590 264,-590 264,-572 231,-572"/>
<polygon fill="none" stroke="black" points="231,-572 231,-590 264,-590 264,-572 231,-572"/>
<text text-anchor="start" x="234" y="-578.2" font-family="Helvetica,sans-Serif" font-size="11.00">&lt; 4</text>
<polygon fill="#ffffff" stroke="transparent" points="264,-572 264,-590 342,-590 342,-572 264,-572"/>
<polygon fill="none" stroke="black" points="264,-572 264,-590 342,-590 342,-572 264,-572"/>
<text text-anchor="start" x="272" y="-578.2" font-family="Helvetica,sans-Serif" font-size="11.00">133,008 rows</text>
<polygon fill="#ffffff" stroke="transparent" points="342,-572 342,-590 361,-590 361,-572 342,-572"/>
<polygon fill="none" stroke="black" points="342,-572 342,-590 361,-590 361,-572 342,-572"/>
<text text-anchor="start" x="351" y="-578.2" font-family="Helvetica,sans-Serif" font-size="11.00"> &#160;</text>
</a>
</g>
</g>
<!-- customers -->
<g id="node2" class="node">
<title>customers</title>
<g id="a_node2"><a xlink:href="../../tables/customers.html" xlink:title="customers" target="_top">
<polygon fill="#ffffff" stroke="transparent" points="8,-451 8,-553 125,-553 125,-451 8,-451"/>
<polygon fill="#f5f5f5" stroke="transparent" points="8.5,-531 8.5,-553 125.5,-553 125.5,-531 8.5,-531"/>
<polygon fill="none" stroke="black" points="8.5,-531 8.5,-553 125.5,-553 125.5,-531 8.5,-531"/>
<text text-anchor="start" x="13.5" y="-540.2" font-family="Helvetica,sans-Serif" font-weight="bold" font-size="11.00">customers</text>
<text text-anchor="start" x="90.5" y="-539.2" font-family="Helvetica,sans-Serif" font-size="11.00">[table]</text>
<polygon fill="none" stroke="black" points="8.5,-509 8.5,-531 125.5,-531 125.5,-509 8.5,-509"/>
<image xlink:href="../../images/primaryKeys.png" width="11px" height="12px" preserveAspectRatio="xMinYMin meet" x="13.5" y="-526"/>
<text text-anchor="start" x="28.5" y="-517.2" font-family="Helvetica,sans-Serif" font-size="11.00">id</text>
<polygon fill="#ffffff" stroke="transparent" points="8.5,-487 8.5,-509 125.5,-509 125.5,-487 8.5,-487"/>
<polygon fill="none" stroke="black" points="8.5,-487 8.5,-509 125.5,-509 125.5,-487 8.5,-487"/>
<text text-anchor="start" x="28.5" y="-495.2" font-family="Helvetica,sans-Serif" font-size="11.00">name</text>
<polygon fill="none" stroke="black" points="8.5,-469 8.5,-487 125.5,-487 125.5,-469 8.5,-469"/>
<text text-anchor="start" x="11.5" y="-475.2" font-family="Helvetica,sans-Serif" font-size="11.00">...</text>
<polygon fill="#ffffff" stroke="transparent" points="8.5,-451 8.5,-469 36.5,-469 36.5,-451 8.5,-451"/>
<polygon fill="none" stroke="black" points="8.5,-451 8.5,-469 36.5,-469 36.5,-451 8.5,-451"/>
<text text-anchor="start" x="11.5" y="-457.2" font-family="Helvetica,sans-Serif" font-size="11.00"> &#160;</text>
<polygon fill="#ffffff" stroke="transparent" points="36.5,-451 36.5,-469 95.5,-469 95.5,-451 36.5,-451"/>
<polygon fill="none" stroke="black" points="36.5,-451 36.5,-469 95.5,-469 95.5,-451 36.5,-451"/>
<text text-anchor="start" x="46.5" y="-457.2" font-family="Helvetica,sans-Serif" font-size="11.00">938 rows</text>
<polygon fill="#ffffff" stroke="transparent" points="95.5,-451 95.5,-469 125.5,-469 125.5,-451 95.5,-451"/>
<polygon fill="none" stroke="black" points="95.5,-451 95.5,-469 125.5,-469 125.5,-451 95.5,-451"/>
<text text-anchor="start" x="106.5" y="-457.2" font-family="Helvetica,sans-Serif" font-size="11.00">5 &gt;</text>
</a>
</g>
</g>
<!-- aggregate_risks&#45;&gt;customers -->
<g id="edge1" class="edge">
<title>aggregate_risks:w&#45;&gt;customers:e</title>
<path fill="none" stroke="black" d="M215.54,-597.66C194.76,-593.32 187.43,-578.98 166,-562 145.92,-546.08 152.13,-520 126.5,-520"/>
<polygon fill="black" stroke="black" points="222.03,-598.26 229.67,-602.58 226.02,-598.63 230,-599 230,-599 230,-599 226.02,-598.63 230.33,-595.42 222.03,-598.26 222.03,-598.26"/>
<ellipse fill="none" stroke="black" cx="218.85" cy="-597.96" rx="3.2" ry="3.2"/>
</g>
<!-- groups -->
<g id="node3" class="node">
<title>groups</title>
<g id="a_node3"><a xlink:href="../../tables/groups.html" xlink:title="groups" target="_top">
<polygon fill="#ffffff" stroke="transparent" points="248,-493 248,-551 344,-551 344,-493 248,-493"/>
<polygon fill="#f5f5f5" stroke="transparent" points="248,-529 248,-551 344,-551 344,-529 248,-529"/>
<polygon fill="none" stroke="black" points="248,-529 248,-551 344,-551 344,-529 248,-529"/>
<text text-anchor="start" x="253" y="-538.2" font-family="Helvetica,sans-Serif" font-weight="bold" font-size="11.00">groups</text>
<text text-anchor="start" x="309" y="-537.2" font-family="Helvetica,sans-Serif" font-size="11.00">[table]</text>
<polygon fill="none" stroke="black" points="248,-511 248,-529 344,-529 344,-511 248,-511"/>
<text text-anchor="start" x="251" y="-517.2" font-family="Helvetica,sans-Serif" font-size="11.00">...</text>
<polygon fill="#ffffff" stroke="transparent" points="248,-493 248,-511 270,-511 270,-493 248,-493"/>
<polygon fill="none" stroke="black" points="248,-493 248,-511 270,-511 270,-493 248,-493"/>
<text text-anchor="start" x="251" y="-499.2" font-family="Helvetica,sans-Serif" font-size="11.00">&lt; 1</text>
<polygon fill="#ffffff" stroke="transparent" points="270,-493 270,-511 322,-511 322,-493 270,-493"/>
<polygon fill="none" stroke="black" points="270,-493 270,-511 322,-511 322,-493 270,-493"/>
<text text-anchor="start" x="273" y="-499.2" font-family="Helvetica,sans-Serif" font-size="11.00">150 rows</text>
<polygon fill="#ffffff" stroke="transparent" points="322,-493 322,-511 344,-511 344,-493 322,-493"/>
<polygon fill="none" stroke="black" points="322,-493 322,-511 344,-511 344,-493 322,-493"/>
<text text-anchor="start" x="325" y="-499.2" font-family="Helvetica,sans-Serif" font-size="11.00">2 &gt;</text>
</a>
</g>
</g>
<!-- groups&#45;&gt;customers -->
<g id="edge2" class="edge">
<title>groups:w&#45;&gt;customers:e</title>
<path fill="none" stroke="black" d="M232.38,-520C190.45,-520 174.83,-520 126.5,-520"/>
<polygon fill="black" stroke="black" points="239,-520 247,-523.6 243,-520 247,-520 247,-520 247,-520 243,-520 247,-516.4 239,-520 239,-520"/>
<ellipse fill="none" stroke="black" cx="235.8" cy="-520" rx="3.2" ry="3.2"/>
</g>
<!-- ref_id -->
<g id="node4" class="node">
<title>ref_id</title>
<g id="a_node4"><a xlink:href="../../tables/ref_id.html" xlink:title="ref_id" target="_top">
<polygon fill="#ffffff" stroke="transparent" points="237.5,-414 237.5,-472 354.5,-472 354.5,-414 237.5,-414"/>
<polygon fill="#f5f5f5" stroke="transparent" points="238,-450 238,-472 355,-472 355,-450 238,-450"/>
<polygon fill="none" stroke="black" points="238,-450 238,-472 355,-472 355,-450 238,-450"/>
<text text-anchor="start" x="243" y="-459.2" font-family="Helvetica,sans-Serif" font-weight="bold" font-size="11.00">ref_id</text>
<text text-anchor="start" x="320" y="-458.2" font-family="Helvetica,sans-Serif" font-size="11.00">[table]</text>
<polygon fill="none" stroke="black" points="238,-432 238,-450 355,-450 355,-432 238,-432"/>
<text text-anchor="start" x="241" y="-438.2" font-family="Helvetica,sans-Serif" font-size="11.00">...</text>
<polygon fill="#ffffff" stroke="transparent" points="238,-414 238,-432 260,-432 260,-414 238,-414"/>
<polygon fill="none" stroke="black" points="238,-414 238,-432 260,-432 260,-414 238,-414"/>
<text text-anchor="start" x="241" y="-420.2" font-family="Helvetica,sans-Serif" font-size="11.00">&lt; 1</text>
<polygon fill="#ffffff" stroke="transparent" points="260,-414 260,-432 333,-432 333,-414 260,-414"/>
<polygon fill="none" stroke="black" points="260,-414 260,-432 333,-432 333,-414 260,-414"/>
<text text-anchor="start" x="263" y="-420.2" font-family="Helvetica,sans-Serif" font-size="11.00">140,067 rows</text>
<polygon fill="#ffffff" stroke="transparent" points="333,-414 333,-432 355,-432 355,-414 333,-414"/>
<polygon fill="none" stroke="black" points="333,-414 333,-432 355,-432 355,-414 333,-414"/>
<text text-anchor="start" x="336" y="-420.2" font-family="Helvetica,sans-Serif" font-size="11.00">2 &gt;</text>
</a>
</g>
</g>
<!-- ref_id&#45;&gt;customers -->
<g id="edge3" class="edge">
<title>ref_id:w&#45;&gt;customers:e</title>
<path fill="none" stroke="black" d="M222.58,-442.26C198.31,-446.98 190.98,-464.27 166,-483 146.76,-497.43 150.55,-520 126.5,-520"/>
<polygon fill="black" stroke="black" points="229.03,-441.7 237.31,-444.59 233.02,-441.35 237,-441 237,-441 237,-441 233.02,-441.35 236.69,-437.41 229.03,-441.7 229.03,-441.7"/>
<ellipse fill="none" stroke="black" cx="225.84" cy="-441.98" rx="3.2" ry="3.2"/>
</g>
<!-- roles_scopes -->
<g id="node5" class="node">
<title>roles_scopes</title>
<g id="a_node5"><a xlink:href="../../tables/roles_scopes.html" xlink:title="roles_scopes" target="_top">
<polygon fill="#ffffff" stroke="transparent" points="238,-37 238,-95 354,-95 354,-37 238,-37"/>
<polygon fill="#f5f5f5" stroke="transparent" points="238,-73 238,-95 354,-95 354,-73 238,-73"/>
<polygon fill="none" stroke="black" points="238,-73 238,-95 354,-95 354,-73 238,-73"/>
<text text-anchor="start" x="243" y="-82.2" font-family="Helvetica,sans-Serif" font-weight="bold" font-size="11.00">roles_scopes</text>
<text text-anchor="start" x="319" y="-81.2" font-family="Helvetica,sans-Serif" font-size="11.00">[table]</text>
<polygon fill="none" stroke="black" points="238,-55 238,-73 354,-73 354,-55 238,-55"/>
<text text-anchor="start" x="241" y="-61.2" font-family="Helvetica,sans-Serif" font-size="11.00">...</text>
<polygon fill="#ffffff" stroke="transparent" points="238,-37 238,-55 277,-55 277,-37 238,-37"/>
<polygon fill="none" stroke="black" points="238,-37 238,-55 277,-55 277,-37 238,-37"/>
<text text-anchor="start" x="241" y="-43.2" font-family="Helvetica,sans-Serif" font-size="11.00">&lt; 2</text>
<polygon fill="#ffffff" stroke="transparent" points="277,-37 277,-55 332,-55 332,-37 277,-37"/>
<polygon fill="none" stroke="black" points="277,-37 277,-55 332,-55 332,-37 277,-37"/>
<text text-anchor="start" x="289" y="-43.2" font-family="Helvetica,sans-Serif" font-size="11.00">52 rows</text>
<polygon fill="#ffffff" stroke="transparent" points="332,-37 332,-55 354,-55 354,-37 332,-37"/>
<polygon fill="none" stroke="black" points="332,-37 332,-55 354,-55 354,-37 332,-37"/>
<text text-anchor="start" x="344" y="-43.2" font-family="Helvetica,sans-Serif" font-size="11.00"> &#160;</text>
</a>
</g>
</g>
<!-- roles -->
<g id="node6" class="node">
<title>roles</title>
<g id="a_node6"><a xlink:href="../../tables/roles.html" xlink:title="roles" target="_top">
<polygon fill="#ffffff" stroke="transparent" points="24,-56 24,-158 109,-158 109,-56 24,-56"/>
<polygon fill="#f5f5f5" stroke="transparent" points="24.5,-136 24.5,-158 109.5,-158 109.5,-136 24.5,-136"/>
<polygon fill="none" stroke="black" points="24.5,-136 24.5,-158 109.5,-158 109.5,-136 24.5,-136"/>
<text text-anchor="start" x="29.5" y="-145.2" font-family="Helvetica,sans-Serif" font-weight="bold" font-size="11.00">roles</text>
<text text-anchor="start" x="74.5" y="-144.2" font-family="Helvetica,sans-Serif" font-size="11.00">[table]</text>
<polygon fill="none" stroke="black" points="24.5,-114 24.5,-136 109.5,-136 109.5,-114 24.5,-114"/>
<image xlink:href="../../images/primaryKeys.png" width="11px" height="12px" preserveAspectRatio="xMinYMin meet" x="29.5" y="-131"/>
<text text-anchor="start" x="44.5" y="-122.2" font-family="Helvetica,sans-Serif" font-size="11.00">id</text>
<polygon fill="#ffffff" stroke="transparent" points="24.5,-92 24.5,-114 109.5,-114 109.5,-92 24.5,-92"/>
<polygon fill="none" stroke="black" points="24.5,-92 24.5,-114 109.5,-114 109.5,-92 24.5,-92"/>
<text text-anchor="start" x="44.5" y="-100.2" font-family="Helvetica,sans-Serif" font-size="11.00">name</text>
<polygon fill="none" stroke="black" points="24.5,-74 24.5,-92 109.5,-92 109.5,-74 24.5,-74"/>
<text text-anchor="start" x="27.5" y="-80.2" font-family="Helvetica,sans-Serif" font-size="11.00">...</text>
<polygon fill="#ffffff" stroke="transparent" points="24.5,-56 24.5,-74 42.5,-74 42.5,-56 24.5,-56"/>
<polygon fill="none" stroke="black" points="24.5,-56 24.5,-74 42.5,-74 42.5,-56 24.5,-56"/>
<text text-anchor="start" x="27.5" y="-62.2" font-family="Helvetica,sans-Serif" font-size="11.00"> &#160;</text>
<polygon fill="#ffffff" stroke="transparent" points="42.5,-56 42.5,-74 84.5,-74 84.5,-56 42.5,-56"/>
<polygon fill="none" stroke="black" points="42.5,-56 42.5,-74 84.5,-74 84.5,-56 42.5,-56"/>
<text text-anchor="start" x="47.5" y="-62.2" font-family="Helvetica,sans-Serif" font-size="11.00">3 rows</text>
<polygon fill="#ffffff" stroke="transparent" points="84.5,-56 84.5,-74 109.5,-74 109.5,-56 84.5,-56"/>
<polygon fill="none" stroke="black" points="84.5,-56 84.5,-74 109.5,-74 109.5,-56 84.5,-56"/>
<text text-anchor="start" x="90.5" y="-62.2" font-family="Helvetica,sans-Serif" font-size="11.00">2 &gt;</text>
</a>
</g>
</g>
<!-- roles_scopes&#45;&gt;roles -->
<g id="edge4" class="edge">
<title>roles_scopes:w&#45;&gt;roles:e</title>
<path fill="none" stroke="black" d="M222.49,-65.22C173.87,-73.82 167.68,-125 110.5,-125"/>
<polygon fill="black" stroke="black" points="229.03,-64.67 237.3,-67.59 233.01,-64.33 237,-64 237,-64 237,-64 233.01,-64.33 236.7,-60.41 229.03,-64.67 229.03,-64.67"/>
<ellipse fill="none" stroke="black" cx="225.84" cy="-64.94" rx="3.2" ry="3.2"/>
</g>
<!-- tags -->
<g id="node7" class="node">
<title>tags</title>
<g id="a_node7"><a xlink:href="../../tables/tags.html" xlink:title="tags" target="_top">
<polygon fill="#ffffff" stroke="transparent" points="248,-651 248,-709 344,-709 344,-651 248,-651"/>
<polygon fill="#f5f5f5" stroke="transparent" points="248,-687 248,-709 344,-709 344,-687 248,-687"/>
<polygon fill="none" stroke="black" points="248,-687 248,-709 344,-709 344,-687 248,-687"/>
<text text-anchor="start" x="253" y="-696.2" font-family="Helvetica,sans-Serif" font-weight="bold" font-size="11.00">tags</text>
<text text-anchor="start" x="309" y="-695.2" font-family="Helvetica,sans-Serif" font-size="11.00">[table]</text>
<polygon fill="none" stroke="black" points="248,-669 248,-687 344,-687 344,-669 248,-669"/>
<text text-anchor="start" x="251" y="-675.2" font-family="Helvetica,sans-Serif" font-size="11.00">...</text>
<polygon fill="#ffffff" stroke="transparent" points="248,-651 248,-669 270,-669 270,-651 248,-651"/>
<polygon fill="none" stroke="black" points="248,-651 248,-669 270,-669 270,-651 248,-651"/>
<text text-anchor="start" x="251" y="-657.2" font-family="Helvetica,sans-Serif" font-size="11.00">&lt; 1</text>
<polygon fill="#ffffff" stroke="transparent" points="270,-651 270,-669 322,-669 322,-651 270,-651"/>
<polygon fill="none" stroke="black" points="270,-651 270,-669 322,-669 322,-651 270,-651"/>
<text text-anchor="start" x="273" y="-657.2" font-family="Helvetica,sans-Serif" font-size="11.00">339 rows</text>
<polygon fill="#ffffff" stroke="transparent" points="322,-651 322,-669 344,-669 344,-651 322,-651"/>
<polygon fill="none" stroke="black" points="322,-651 322,-669 344,-669 344,-651 322,-651"/>
<text text-anchor="start" x="325" y="-657.2" font-family="Helvetica,sans-Serif" font-size="11.00">1 &gt;</text>
</a>
</g>
</g>
<!-- tags&#45;&gt;customers -->
<g id="edge5" class="edge">
<title>tags:w&#45;&gt;customers:e</title>
<path fill="none" stroke="black" d="M232.44,-677.57C203.22,-675.62 188.86,-666.6 166,-641 128.32,-598.8 183.07,-520 126.5,-520"/>
<polygon fill="black" stroke="black" points="239,-677.76 246.89,-681.6 243,-677.88 247,-678 247,-678 247,-678 243,-677.88 247.11,-674.4 239,-677.76 239,-677.76"/>
<ellipse fill="none" stroke="black" cx="235.8" cy="-677.67" rx="3.2" ry="3.2"/>
</g>
<!-- users_configurations -->
<g id="node8" class="node">
<title>users_configurations</title>
<g id="a_node8"><a xlink:href="../../tables/users_configurations.html" xlink:title="users_configurations" target="_top">
<polygon fill="#ffffff" stroke="transparent" points="217.5,-335 217.5,-393 374.5,-393 374.5,-335 217.5,-335"/>
<polygon fill="#f5f5f5" stroke="transparent" points="218,-371 218,-393 375,-393 375,-371 218,-371"/>
<polygon fill="none" stroke="black" points="218,-371 218,-393 375,-393 375,-371 218,-371"/>
<text text-anchor="start" x="223" y="-380.2" font-family="Helvetica,sans-Serif" font-weight="bold" font-size="11.00">users_configurations</text>
<text text-anchor="start" x="340" y="-379.2" font-family="Helvetica,sans-Serif" font-size="11.00">[table]</text>
<polygon fill="none" stroke="black" points="218,-353 218,-371 375,-371 375,-353 218,-353"/>
<text text-anchor="start" x="221" y="-359.2" font-family="Helvetica,sans-Serif" font-size="11.00">...</text>
<polygon fill="#ffffff" stroke="transparent" points="218,-335 218,-353 278,-353 278,-335 218,-335"/>
<polygon fill="none" stroke="black" points="218,-335 218,-353 278,-353 278,-335 218,-335"/>
<text text-anchor="start" x="221" y="-341.2" font-family="Helvetica,sans-Serif" font-size="11.00">&lt; 3</text>
<polygon fill="#ffffff" stroke="transparent" points="278,-335 278,-353 343,-353 343,-335 278,-335"/>
<polygon fill="none" stroke="black" points="278,-335 278,-353 343,-353 343,-335 278,-335"/>
<text text-anchor="start" x="300" y="-341.2" font-family="Helvetica,sans-Serif" font-size="11.00">11 rows</text>
<polygon fill="#ffffff" stroke="transparent" points="343,-335 343,-353 375,-353 375,-335 343,-335"/>
<polygon fill="none" stroke="black" points="343,-335 343,-353 375,-353 375,-335 343,-335"/>
<text text-anchor="start" x="365" y="-341.2" font-family="Helvetica,sans-Serif" font-size="11.00"> &#160;</text>
</a>
</g>
</g>
<!-- users -->
<g id="node9" class="node">
<title>users</title>
<g id="a_node9"><a xlink:href="../../tables/users.html" xlink:title="users" target="_top">
<polygon fill="#ffffff" stroke="transparent" points="24,-241 24,-343 109,-343 109,-241 24,-241"/>
<polygon fill="#f5f5f5" stroke="transparent" points="24.5,-321 24.5,-343 109.5,-343 109.5,-321 24.5,-321"/>
<polygon fill="none" stroke="black" points="24.5,-321 24.5,-343 109.5,-343 109.5,-321 24.5,-321"/>
<text text-anchor="start" x="29.5" y="-330.2" font-family="Helvetica,sans-Serif" font-weight="bold" font-size="11.00">users</text>
<text text-anchor="start" x="74.5" y="-329.2" font-family="Helvetica,sans-Serif" font-size="11.00">[table]</text>
<polygon fill="none" stroke="black" points="24.5,-299 24.5,-321 109.5,-321 109.5,-299 24.5,-299"/>
<image xlink:href="../../images/primaryKeys.png" width="11px" height="12px" preserveAspectRatio="xMinYMin meet" x="29.5" y="-316"/>
<text text-anchor="start" x="44.5" y="-307.2" font-family="Helvetica,sans-Serif" font-size="11.00">id</text>
<polygon fill="#ffffff" stroke="transparent" points="24.5,-277 24.5,-299 109.5,-299 109.5,-277 24.5,-277"/>
<polygon fill="none" stroke="black" points="24.5,-277 24.5,-299 109.5,-299 109.5,-277 24.5,-277"/>
<text text-anchor="start" x="44.5" y="-285.2" font-family="Helvetica,sans-Serif" font-size="11.00">email</text>
<polygon fill="none" stroke="black" points="24.5,-259 24.5,-277 109.5,-277 109.5,-259 24.5,-259"/>
<text text-anchor="start" x="27.5" y="-265.2" font-family="Helvetica,sans-Serif" font-size="11.00">...</text>
<polygon fill="#ffffff" stroke="transparent" points="24.5,-241 24.5,-259 39.5,-259 39.5,-241 24.5,-241"/>
<polygon fill="none" stroke="black" points="24.5,-241 24.5,-259 39.5,-259 39.5,-241 24.5,-241"/>
<text text-anchor="start" x="27.5" y="-247.2" font-family="Helvetica,sans-Serif" font-size="11.00"> &#160;</text>
<polygon fill="#ffffff" stroke="transparent" points="39.5,-241 39.5,-259 86.5,-259 86.5,-241 39.5,-241"/>
<polygon fill="none" stroke="black" points="39.5,-241 39.5,-259 86.5,-259 86.5,-241 39.5,-241"/>
<text text-anchor="start" x="43.5" y="-247.2" font-family="Helvetica,sans-Serif" font-size="11.00">11 rows</text>
<polygon fill="#ffffff" stroke="transparent" points="86.5,-241 86.5,-259 109.5,-259 109.5,-241 86.5,-241"/>
<polygon fill="none" stroke="black" points="86.5,-241 86.5,-259 109.5,-259 109.5,-241 86.5,-241"/>
<text text-anchor="start" x="90.5" y="-247.2" font-family="Helvetica,sans-Serif" font-size="11.00">2 &gt;</text>
</a>
</g>
</g>
<!-- users_configurations&#45;&gt;users -->
<g id="edge6" class="edge">
<title>users_configurations:w&#45;&gt;users:e</title>
<path fill="none" stroke="black" d="M202.44,-360.5C163.56,-351.97 157.82,-310 110.5,-310"/>
<polygon fill="black" stroke="black" points="209.04,-361.18 216.63,-365.58 213.02,-361.59 217,-362 217,-362 217,-362 213.02,-361.59 217.37,-358.42 209.04,-361.18 209.04,-361.18"/>
<ellipse fill="none" stroke="black" cx="205.86" cy="-360.85" rx="3.2" ry="3.2"/>
</g>
<!-- users_roles_customers -->
<g id="node10" class="node">
<title>users_roles_customers</title>
<g id="a_node10"><a xlink:href="../../tables/users_roles_customers.html" xlink:title="users_roles_customers" target="_top">
<polygon fill="#ffffff" stroke="transparent" points="174,-116 174,-314 418,-314 418,-116 174,-116"/>
<polygon fill="#f5f5f5" stroke="transparent" points="176,-290 176,-312 416,-312 416,-290 176,-290"/>
<polygon fill="none" stroke="black" points="176,-290 176,-312 416,-312 416,-290 176,-290"/>
<text text-anchor="start" x="181" y="-299.2" font-family="Helvetica,sans-Serif" font-weight="bold" font-size="11.00">users_roles_customers</text>
<text text-anchor="start" x="381" y="-298.2" font-family="Helvetica,sans-Serif" font-size="11.00">[table]</text>
<polygon fill="none" stroke="black" points="176,-268 176,-290 331,-290 331,-268 176,-268"/>
<image xlink:href="../../images/primaryKeys.png" width="11px" height="12px" preserveAspectRatio="xMinYMin meet" x="181" y="-285"/>
<text text-anchor="start" x="196" y="-276.2" font-family="Helvetica,sans-Serif" font-size="11.00">id</text>
<polygon fill="none" stroke="black" points="331,-268 331,-290 416,-290 416,-268 331,-268"/>
<text text-anchor="start" x="334" y="-276.2" font-family="Helvetica,sans-Serif" font-size="11.00">serial[10]</text>
<polygon fill="#ffffff" stroke="transparent" points="176,-246 176,-268 331,-268 331,-246 176,-246"/>
<polygon fill="none" stroke="black" points="176,-246 176,-268 331,-268 331,-246 176,-246"/>
<image xlink:href="../../images/foreignKeys.png" width="11px" height="12px" preserveAspectRatio="xMinYMin meet" x="181" y="-263"/>
<text text-anchor="start" x="196" y="-254.2" font-family="Helvetica,sans-Serif" font-size="11.00">user_id</text>
<polygon fill="none" stroke="black" points="331,-246 331,-268 416,-268 416,-246 331,-246"/>
<text text-anchor="start" x="334" y="-254.2" font-family="Helvetica,sans-Serif" font-size="11.00">int4[10]</text>
<polygon fill="none" stroke="black" points="176,-224 176,-246 331,-246 331,-224 176,-224"/>
<image xlink:href="../../images/foreignKeys.png" width="11px" height="12px" preserveAspectRatio="xMinYMin meet" x="181" y="-241"/>
<text text-anchor="start" x="196" y="-232.2" font-family="Helvetica,sans-Serif" font-size="11.00">role_id</text>
<polygon fill="none" stroke="black" points="331,-224 331,-246 416,-246 416,-224 331,-224"/>
<text text-anchor="start" x="334" y="-232.2" font-family="Helvetica,sans-Serif" font-size="11.00">int4[10]</text>
<polygon fill="#ffffff" stroke="transparent" points="176,-202 176,-224 331,-224 331,-202 176,-202"/>
<polygon fill="none" stroke="black" points="176,-202 176,-224 331,-224 331,-202 176,-202"/>
<image xlink:href="../../images/foreignKeys.png" width="11px" height="12px" preserveAspectRatio="xMinYMin meet" x="181" y="-219"/>
<text text-anchor="start" x="196" y="-210.2" font-family="Helvetica,sans-Serif" font-size="11.00">customer_id</text>
<polygon fill="none" stroke="black" points="331,-202 331,-224 416,-224 416,-202 331,-202"/>
<text text-anchor="start" x="334" y="-210.2" font-family="Helvetica,sans-Serif" font-size="11.00">int4[10]</text>
<polygon fill="none" stroke="black" points="176,-180 176,-202 331,-202 331,-180 176,-180"/>
<text text-anchor="start" x="196" y="-188.2" font-family="Helvetica,sans-Serif" font-size="11.00">created_at</text>
<polygon fill="none" stroke="black" points="331,-180 331,-202 416,-202 416,-180 331,-180"/>
<text text-anchor="start" x="334" y="-188.2" font-family="Helvetica,sans-Serif" font-size="11.00">timestamp[29,6]</text>
<polygon fill="none" stroke="black" points="176,-158 176,-180 331,-180 331,-158 176,-158"/>
<text text-anchor="start" x="196" y="-166.2" font-family="Helvetica,sans-Serif" font-size="11.00">updated_at</text>
<polygon fill="none" stroke="black" points="331,-158 331,-180 416,-180 416,-158 331,-158"/>
<text text-anchor="start" x="334" y="-166.2" font-family="Helvetica,sans-Serif" font-size="11.00">timestamp[29,6]</text>
<polygon fill="none" stroke="black" points="176,-136 176,-158 331,-158 331,-136 176,-136"/>
<text text-anchor="start" x="196" y="-144.2" font-family="Helvetica,sans-Serif" font-size="11.00">is_active</text>
<polygon fill="none" stroke="black" points="331,-136 331,-158 416,-158 416,-136 331,-136"/>
<text text-anchor="start" x="334" y="-144.2" font-family="Helvetica,sans-Serif" font-size="11.00">bool[1]</text>
<polygon fill="#ffffff" stroke="transparent" points="176,-118 176,-136 241,-136 241,-118 176,-118"/>
<polygon fill="none" stroke="black" points="176,-118 176,-136 241,-136 241,-118 176,-118"/>
<text text-anchor="start" x="179" y="-124.2" font-family="Helvetica,sans-Serif" font-size="11.00">&lt; 3</text>
<polygon fill="#ffffff" stroke="transparent" points="241,-118 241,-136 331,-136 331,-118 241,-118"/>
<polygon fill="none" stroke="black" points="241,-118 241,-136 331,-136 331,-118 241,-118"/>
<text text-anchor="start" x="288" y="-124.2" font-family="Helvetica,sans-Serif" font-size="11.00">12 rows</text>
<polygon fill="#ffffff" stroke="transparent" points="331,-118 331,-136 416,-136 416,-118 331,-118"/>
<polygon fill="none" stroke="black" points="331,-118 331,-136 416,-136 416,-118 331,-118"/>
<text text-anchor="start" x="397" y="-124.2" font-family="Helvetica,sans-Serif" font-size="11.00">0 &gt;</text>
<polygon fill="none" stroke="black" stroke-width="2" points="175,-117 175,-313 417,-313 417,-117 175,-117"/>
</a>
</g>
</g>
<!-- users_roles_customers&#45;&gt;customers -->
<g id="edge7" class="edge">
<title>users_roles_customers:w&#45;&gt;customers:e</title>
<path fill="none" stroke="black" d="M161.57,-218.33C118.97,-259.09 190.17,-520 126.5,-520"/>
<polygon fill="black" stroke="black" points="167.56,-215.95 176.33,-216.35 171.28,-214.47 175,-213 175,-213 175,-213 171.28,-214.47 173.67,-209.65 167.56,-215.95 167.56,-215.95"/>
<ellipse fill="none" stroke="black" cx="164.59" cy="-217.13" rx="3.2" ry="3.2"/>
</g>
<!-- users_roles_customers&#45;&gt;roles -->
<g id="edge8" class="edge">
<title>users_roles_customers:w&#45;&gt;roles:e</title>
<path fill="none" stroke="black" d="M160.78,-231.83C127.16,-213.79 161.42,-125 110.5,-125"/>
<polygon fill="black" stroke="black" points="167.19,-233.26 174.22,-238.51 171.1,-234.13 175,-235 175,-235 175,-235 171.1,-234.13 175.78,-231.49 167.19,-233.26 167.19,-233.26"/>
<ellipse fill="none" stroke="black" cx="164.07" cy="-232.56" rx="3.2" ry="3.2"/>
</g>
<!-- users_roles_customers&#45;&gt;users -->
<g id="edge9" class="edge">
<title>users_roles_customers:w&#45;&gt;users:e</title>
<path fill="none" stroke="black" d="M160.97,-260.32C139.77,-271.92 141.95,-310 110.5,-310"/>
<polygon fill="black" stroke="black" points="167.21,-258.84 175.83,-260.5 171.11,-257.92 175,-257 175,-257 175,-257 171.11,-257.92 174.17,-253.5 167.21,-258.84 167.21,-258.84"/>
<ellipse fill="none" stroke="black" cx="164.1" cy="-259.58" rx="3.2" ry="3.2"/>
</g>
</g>
</svg>
