<?xml version="1.0" encoding="UTF-8" standalone="no"?>
<!DOCTYPE svg PUBLIC "-//W3C//DTD SVG 1.1//EN"
 "http://www.w3.org/Graphics/SVG/1.1/DTD/svg11.dtd">
<!-- Generated by graphviz version 2.50.0 (20211204.2007)
 -->
<!-- Title: oneDegreeRelationshipsDiagram Pages: 1 -->
<svg width="714pt" height="301pt"
 viewBox="0.00 0.00 714.00 301.00" xmlns="http://www.w3.org/2000/svg" xmlns:xlink="http://www.w3.org/1999/xlink">
<g id="graph0" class="graph" transform="scale(1 1) rotate(0) translate(4 297)">
<title>oneDegreeRelationshipsDiagram</title>
<polygon fill="#ffffff" stroke="transparent" points="-4,4 -4,-297 710,-297 710,4 -4,4"/>
<text text-anchor="middle" x="72.5" y="-7.2" font-family="Helvetica,sans-Serif" font-size="11.00">Generated by SchemaSpy</text>
<!-- allowed_configuration_values -->
<g id="node1" class="node">
<title>allowed_configuration_values</title>
<g id="a_node1"><a xlink:href="../../tables/allowed_configuration_values.html" xlink:title="allowed_configuration_values" target="_top">
<polygon fill="#ffffff" stroke="transparent" points="178,-37 178,-139 381,-139 381,-37 178,-37"/>
<polygon fill="#f5f5f5" stroke="transparent" points="178.5,-117 178.5,-139 381.5,-139 381.5,-117 178.5,-117"/>
<polygon fill="none" stroke="black" points="178.5,-117 178.5,-139 381.5,-139 381.5,-117 178.5,-117"/>
<text text-anchor="start" x="183.5" y="-126.2" font-family="Helvetica,sans-Serif" font-weight="bold" font-size="11.00">allowed_configuration_values</text>
<text text-anchor="start" x="346.5" y="-125.2" font-family="Helvetica,sans-Serif" font-size="11.00">[table]</text>
<polygon fill="none" stroke="black" points="178.5,-95 178.5,-117 381.5,-117 381.5,-95 178.5,-95"/>
<image xlink:href="../../images/primaryKeys.png" width="11px" height="12px" preserveAspectRatio="xMinYMin meet" x="183.5" y="-112"/>
<text text-anchor="start" x="204.5" y="-103.2" font-family="Helvetica,sans-Serif" font-size="11.00">id</text>
<polygon fill="none" stroke="black" points="178.5,-73 178.5,-95 381.5,-95 381.5,-73 178.5,-73"/>
<image xlink:href="../../images/foreignKeys.png" width="11px" height="12px" preserveAspectRatio="xMinYMin meet" x="183.5" y="-90"/>
<text text-anchor="start" x="204.5" y="-81.2" font-family="Helvetica,sans-Serif" font-size="11.00">configuration_id</text>
<polygon fill="none" stroke="black" points="178.5,-55 178.5,-73 381.5,-73 381.5,-55 178.5,-55"/>
<text text-anchor="start" x="181.5" y="-61.2" font-family="Helvetica,sans-Serif" font-size="11.00">...</text>
<polygon fill="#ffffff" stroke="transparent" points="178.5,-37 178.5,-55 262.5,-55 262.5,-37 178.5,-37"/>
<polygon fill="none" stroke="black" points="178.5,-37 178.5,-55 262.5,-55 262.5,-37 178.5,-37"/>
<text text-anchor="start" x="181.5" y="-43.2" font-family="Helvetica,sans-Serif" font-size="11.00">&lt; 1</text>
<polygon fill="#ffffff" stroke="transparent" points="262.5,-37 262.5,-55 327.5,-55 327.5,-37 262.5,-37"/>
<polygon fill="none" stroke="black" points="262.5,-37 262.5,-55 327.5,-55 327.5,-37 262.5,-37"/>
<text text-anchor="start" x="296.5" y="-43.2" font-family="Helvetica,sans-Serif" font-size="11.00">1 row</text>
<polygon fill="#ffffff" stroke="transparent" points="327.5,-37 327.5,-55 381.5,-55 381.5,-37 327.5,-37"/>
<polygon fill="none" stroke="black" points="327.5,-37 327.5,-55 381.5,-55 381.5,-37 327.5,-37"/>
<text text-anchor="start" x="362.5" y="-43.2" font-family="Helvetica,sans-Serif" font-size="11.00">1 &gt;</text>
</a>
</g>
</g>
<!-- configurations -->
<g id="node2" class="node">
<title>configurations</title>
<g id="a_node2"><a xlink:href="../../tables/configurations.html" xlink:title="configurations" target="_top">
<polygon fill="#ffffff" stroke="transparent" points="8,-54 8,-156 129,-156 129,-54 8,-54"/>
<polygon fill="#f5f5f5" stroke="transparent" points="8.5,-134 8.5,-156 129.5,-156 129.5,-134 8.5,-134"/>
<polygon fill="none" stroke="black" points="8.5,-134 8.5,-156 129.5,-156 129.5,-134 8.5,-134"/>
<text text-anchor="start" x="13.5" y="-143.2" font-family="Helvetica,sans-Serif" font-weight="bold" font-size="11.00">configurations</text>
<text text-anchor="start" x="94.5" y="-142.2" font-family="Helvetica,sans-Serif" font-size="11.00">[table]</text>
<polygon fill="none" stroke="black" points="8.5,-112 8.5,-134 129.5,-134 129.5,-112 8.5,-112"/>
<image xlink:href="../../images/primaryKeys.png" width="11px" height="12px" preserveAspectRatio="xMinYMin meet" x="13.5" y="-129"/>
<text text-anchor="start" x="37.5" y="-120.2" font-family="Helvetica,sans-Serif" font-size="11.00">id</text>
<polygon fill="#ffffff" stroke="transparent" points="8.5,-90 8.5,-112 129.5,-112 129.5,-90 8.5,-90"/>
<polygon fill="none" stroke="black" points="8.5,-90 8.5,-112 129.5,-112 129.5,-90 8.5,-90"/>
<text text-anchor="start" x="37.5" y="-98.2" font-family="Helvetica,sans-Serif" font-size="11.00">name</text>
<polygon fill="none" stroke="black" points="8.5,-72 8.5,-90 129.5,-90 129.5,-72 8.5,-72"/>
<text text-anchor="start" x="11.5" y="-78.2" font-family="Helvetica,sans-Serif" font-size="11.00">...</text>
<polygon fill="#ffffff" stroke="transparent" points="8.5,-54 8.5,-72 41.5,-72 41.5,-54 8.5,-54"/>
<polygon fill="none" stroke="black" points="8.5,-54 8.5,-72 41.5,-72 41.5,-54 8.5,-54"/>
<text text-anchor="start" x="11.5" y="-60.2" font-family="Helvetica,sans-Serif" font-size="11.00"> &#160;</text>
<polygon fill="#ffffff" stroke="transparent" points="41.5,-54 41.5,-72 97.5,-72 97.5,-54 41.5,-54"/>
<polygon fill="none" stroke="black" points="41.5,-54 41.5,-72 97.5,-72 97.5,-54 41.5,-54"/>
<text text-anchor="start" x="54.5" y="-60.2" font-family="Helvetica,sans-Serif" font-size="11.00">18 rows</text>
<polygon fill="#ffffff" stroke="transparent" points="97.5,-54 97.5,-72 129.5,-72 129.5,-54 97.5,-54"/>
<polygon fill="none" stroke="black" points="97.5,-54 97.5,-72 129.5,-72 129.5,-54 97.5,-54"/>
<text text-anchor="start" x="110.5" y="-60.2" font-family="Helvetica,sans-Serif" font-size="11.00">2 &gt;</text>
</a>
</g>
</g>
<!-- allowed_configuration_values&#45;&gt;configurations -->
<g id="edge1" class="edge">
<title>allowed_configuration_values:w&#45;&gt;configurations:e</title>
<path fill="none" stroke="black" d="M163.91,-88.78C151.9,-99.2 151.71,-123 130.5,-123"/>
<polygon fill="black" stroke="black" points="169.95,-86.66 178.69,-87.4 173.73,-85.33 177.5,-84 177.5,-84 177.5,-84 173.73,-85.33 176.31,-80.6 169.95,-86.66 169.95,-86.66"/>
<ellipse fill="none" stroke="black" cx="166.93" cy="-87.72" rx="3.2" ry="3.2"/>
</g>
<!-- users_configurations -->
<g id="node3" class="node">
<title>users_configurations</title>
<g id="a_node3"><a xlink:href="../../tables/users_configurations.html" xlink:title="users_configurations" target="_top">
<polygon fill="#ffffff" stroke="transparent" points="430,-88 430,-242 698,-242 698,-88 430,-88"/>
<polygon fill="#f5f5f5" stroke="transparent" points="432,-218 432,-240 696,-240 696,-218 432,-218"/>
<polygon fill="none" stroke="black" points="432,-218 432,-240 696,-240 696,-218 432,-218"/>
<text text-anchor="start" x="437" y="-227.2" font-family="Helvetica,sans-Serif" font-weight="bold" font-size="11.00">users_configurations</text>
<text text-anchor="start" x="661" y="-226.2" font-family="Helvetica,sans-Serif" font-size="11.00">[table]</text>
<polygon fill="none" stroke="black" points="432,-196 432,-218 635,-218 635,-196 432,-196"/>
<image xlink:href="../../images/primaryKeys.png" width="11px" height="12px" preserveAspectRatio="xMinYMin meet" x="437" y="-213"/>
<text text-anchor="start" x="452" y="-204.2" font-family="Helvetica,sans-Serif" font-size="11.00">id</text>
<polygon fill="none" stroke="black" points="635,-196 635,-218 696,-218 696,-196 635,-196"/>
<text text-anchor="start" x="638" y="-204.2" font-family="Helvetica,sans-Serif" font-size="11.00">serial[10]</text>
<polygon fill="none" stroke="black" points="432,-174 432,-196 635,-196 635,-174 432,-174"/>
<image xlink:href="../../images/foreignKeys.png" width="11px" height="12px" preserveAspectRatio="xMinYMin meet" x="437" y="-191"/>
<text text-anchor="start" x="452" y="-182.2" font-family="Helvetica,sans-Serif" font-size="11.00">user_id</text>
<polygon fill="none" stroke="black" points="635,-174 635,-196 696,-196 696,-174 635,-174"/>
<text text-anchor="start" x="638" y="-182.2" font-family="Helvetica,sans-Serif" font-size="11.00">int4[10]</text>
<polygon fill="none" stroke="black" points="432,-152 432,-174 635,-174 635,-152 432,-152"/>
<image xlink:href="../../images/foreignKeys.png" width="11px" height="12px" preserveAspectRatio="xMinYMin meet" x="437" y="-169"/>
<text text-anchor="start" x="452" y="-160.2" font-family="Helvetica,sans-Serif" font-size="11.00">configuration_id</text>
<polygon fill="none" stroke="black" points="635,-152 635,-174 696,-174 696,-152 635,-152"/>
<text text-anchor="start" x="638" y="-160.2" font-family="Helvetica,sans-Serif" font-size="11.00">int4[10]</text>
<polygon fill="none" stroke="black" points="432,-130 432,-152 635,-152 635,-130 432,-130"/>
<image xlink:href="../../images/foreignKeys.png" width="11px" height="12px" preserveAspectRatio="xMinYMin meet" x="437" y="-147"/>
<text text-anchor="start" x="452" y="-138.2" font-family="Helvetica,sans-Serif" font-size="11.00">allowed_configuration_value_id</text>
<polygon fill="none" stroke="black" points="635,-130 635,-152 696,-152 696,-130 635,-130"/>
<text text-anchor="start" x="638" y="-138.2" font-family="Helvetica,sans-Serif" font-size="11.00">int4[10]</text>
<polygon fill="none" stroke="black" points="432,-108 432,-130 635,-130 635,-108 432,-108"/>
<text text-anchor="start" x="452" y="-116.2" font-family="Helvetica,sans-Serif" font-size="11.00">unconstrained_value</text>
<polygon fill="none" stroke="black" points="635,-108 635,-130 696,-130 696,-108 635,-108"/>
<text text-anchor="start" x="638" y="-116.2" font-family="Helvetica,sans-Serif" font-size="11.00">varchar[32]</text>
<polygon fill="#ffffff" stroke="transparent" points="432,-90 432,-108 521,-108 521,-90 432,-90"/>
<polygon fill="none" stroke="black" points="432,-90 432,-108 521,-108 521,-90 432,-90"/>
<text text-anchor="start" x="435" y="-96.2" font-family="Helvetica,sans-Serif" font-size="11.00">&lt; 3</text>
<polygon fill="#ffffff" stroke="transparent" points="521,-90 521,-108 635,-108 635,-90 521,-90"/>
<polygon fill="none" stroke="black" points="521,-90 521,-108 635,-108 635,-90 521,-90"/>
<text text-anchor="start" x="592" y="-96.2" font-family="Helvetica,sans-Serif" font-size="11.00">11 rows</text>
<polygon fill="#ffffff" stroke="transparent" points="635,-90 635,-108 696,-108 696,-90 635,-90"/>
<polygon fill="none" stroke="black" points="635,-90 635,-108 696,-108 696,-90 635,-90"/>
<text text-anchor="start" x="677" y="-96.2" font-family="Helvetica,sans-Serif" font-size="11.00">0 &gt;</text>
<polygon fill="none" stroke="black" stroke-width="2" points="431,-89 431,-241 697,-241 697,-89 431,-89"/>
</a>
</g>
</g>
<!-- users_configurations&#45;&gt;allowed_configuration_values -->
<g id="edge2" class="edge">
<title>users_configurations:w&#45;&gt;allowed_configuration_values:e</title>
<path fill="none" stroke="black" d="M417.02,-136.42C404.93,-126.94 403.06,-106 382.5,-106"/>
<polygon fill="black" stroke="black" points="423.4,-138.51 429.88,-144.42 427.2,-139.76 431,-141 431,-141 431,-141 427.2,-139.76 432.12,-137.58 423.4,-138.51 423.4,-138.51"/>
<ellipse fill="none" stroke="black" cx="420.36" cy="-137.52" rx="3.2" ry="3.2"/>
</g>
<!-- users_configurations&#45;&gt;configurations -->
<g id="edge3" class="edge">
<title>users_configurations:w&#45;&gt;configurations:e</title>
<path fill="none" stroke="black" d="M416.47,-163.13C311.73,-164.95 275.35,-185.46 170,-150 149.85,-143.22 151.76,-123 130.5,-123"/>
<polygon fill="black" stroke="black" points="423,-163.07 431.03,-166.6 427,-163.03 431,-163 431,-163 431,-163 427,-163.03 430.97,-159.4 423,-163.07 423,-163.07"/>
<ellipse fill="none" stroke="black" cx="419.8" cy="-163.1" rx="3.2" ry="3.2"/>
</g>
<!-- users -->
<g id="node4" class="node">
<title>users</title>
<g id="a_node4"><a xlink:href="../../tables/users.html" xlink:title="users" target="_top">
<polygon fill="#ffffff" stroke="transparent" points="237,-187 237,-289 322,-289 322,-187 237,-187"/>
<polygon fill="#f5f5f5" stroke="transparent" points="237.5,-267 237.5,-289 322.5,-289 322.5,-267 237.5,-267"/>
<polygon fill="none" stroke="black" points="237.5,-267 237.5,-289 322.5,-289 322.5,-267 237.5,-267"/>
<text text-anchor="start" x="242.5" y="-276.2" font-family="Helvetica,sans-Serif" font-weight="bold" font-size="11.00">users</text>
<text text-anchor="start" x="287.5" y="-275.2" font-family="Helvetica,sans-Serif" font-size="11.00">[table]</text>
<polygon fill="none" stroke="black" points="237.5,-245 237.5,-267 322.5,-267 322.5,-245 237.5,-245"/>
<image xlink:href="../../images/primaryKeys.png" width="11px" height="12px" preserveAspectRatio="xMinYMin meet" x="242.5" y="-262"/>
<text text-anchor="start" x="257.5" y="-253.2" font-family="Helvetica,sans-Serif" font-size="11.00">id</text>
<polygon fill="#ffffff" stroke="transparent" points="237.5,-223 237.5,-245 322.5,-245 322.5,-223 237.5,-223"/>
<polygon fill="none" stroke="black" points="237.5,-223 237.5,-245 322.5,-245 322.5,-223 237.5,-223"/>
<text text-anchor="start" x="257.5" y="-231.2" font-family="Helvetica,sans-Serif" font-size="11.00">email</text>
<polygon fill="none" stroke="black" points="237.5,-205 237.5,-223 322.5,-223 322.5,-205 237.5,-205"/>
<text text-anchor="start" x="240.5" y="-211.2" font-family="Helvetica,sans-Serif" font-size="11.00">...</text>
<polygon fill="#ffffff" stroke="transparent" points="237.5,-187 237.5,-205 252.5,-205 252.5,-187 237.5,-187"/>
<polygon fill="none" stroke="black" points="237.5,-187 237.5,-205 252.5,-205 252.5,-187 237.5,-187"/>
<text text-anchor="start" x="240.5" y="-193.2" font-family="Helvetica,sans-Serif" font-size="11.00"> &#160;</text>
<polygon fill="#ffffff" stroke="transparent" points="252.5,-187 252.5,-205 299.5,-205 299.5,-187 252.5,-187"/>
<polygon fill="none" stroke="black" points="252.5,-187 252.5,-205 299.5,-205 299.5,-187 252.5,-187"/>
<text text-anchor="start" x="256.5" y="-193.2" font-family="Helvetica,sans-Serif" font-size="11.00">11 rows</text>
<polygon fill="#ffffff" stroke="transparent" points="299.5,-187 299.5,-205 322.5,-205 322.5,-187 299.5,-187"/>
<polygon fill="none" stroke="black" points="299.5,-187 299.5,-205 322.5,-205 322.5,-187 299.5,-187"/>
<text text-anchor="start" x="303.5" y="-193.2" font-family="Helvetica,sans-Serif" font-size="11.00">2 &gt;</text>
</a>
</g>
</g>
<!-- users_configurations&#45;&gt;users -->
<g id="edge4" class="edge">
<title>users_configurations:w&#45;&gt;users:e</title>
<path fill="none" stroke="black" d="M416.49,-186.76C374.49,-197.69 375.39,-256 323.5,-256"/>
<polygon fill="black" stroke="black" points="423.06,-185.96 431.43,-188.57 427.03,-185.48 431,-185 431,-185 431,-185 427.03,-185.48 430.57,-181.43 423.06,-185.96 423.06,-185.96"/>
<ellipse fill="none" stroke="black" cx="419.88" cy="-186.34" rx="3.2" ry="3.2"/>
</g>
</g>
</svg>
