<?xml version="1.0" encoding="UTF-8" standalone="no"?>
<!DOCTYPE svg PUBLIC "-//W3C//DTD SVG 1.1//EN"
 "http://www.w3.org/Graphics/SVG/1.1/DTD/svg11.dtd">
<!-- Generated by graphviz version 2.50.0 (20211204.2007)
 -->
<!-- Title: oneDegreeRelationshipsDiagram Pages: 1 -->
<svg width="434pt" height="397pt"
 viewBox="0.00 0.00 434.00 397.00" xmlns="http://www.w3.org/2000/svg" xmlns:xlink="http://www.w3.org/1999/xlink">
<g id="graph0" class="graph" transform="scale(1 1) rotate(0) translate(4 393)">
<title>oneDegreeRelationshipsDiagram</title>
<polygon fill="#ffffff" stroke="transparent" points="-4,4 -4,-393 430,-393 430,4 -4,4"/>
<text text-anchor="middle" x="72.5" y="-7.2" font-family="Helvetica,sans-Serif" font-size="11.00">Generated by SchemaSpy</text>
<!-- users_roles_customers -->
<g id="node1" class="node">
<title>users_roles_customers</title>
<g id="a_node1"><a xlink:href="../../tables/users_roles_customers.html" xlink:title="users_roles_customers" target="_top">
<polygon fill="#ffffff" stroke="transparent" points="174,-110 174,-308 418,-308 418,-110 174,-110"/>
<polygon fill="#f5f5f5" stroke="transparent" points="176,-284 176,-306 416,-306 416,-284 176,-284"/>
<polygon fill="none" stroke="black" points="176,-284 176,-306 416,-306 416,-284 176,-284"/>
<text text-anchor="start" x="181" y="-293.2" font-family="Helvetica,sans-Serif" font-weight="bold" font-size="11.00">users_roles_customers</text>
<text text-anchor="start" x="381" y="-292.2" font-family="Helvetica,sans-Serif" font-size="11.00">[table]</text>
<polygon fill="none" stroke="black" points="176,-262 176,-284 331,-284 331,-262 176,-262"/>
<image xlink:href="../../images/primaryKeys.png" width="11px" height="12px" preserveAspectRatio="xMinYMin meet" x="181" y="-279"/>
<text text-anchor="start" x="196" y="-270.2" font-family="Helvetica,sans-Serif" font-size="11.00">id</text>
<polygon fill="none" stroke="black" points="331,-262 331,-284 416,-284 416,-262 331,-262"/>
<text text-anchor="start" x="334" y="-270.2" font-family="Helvetica,sans-Serif" font-size="11.00">serial[10]</text>
<polygon fill="#ffffff" stroke="transparent" points="176,-240 176,-262 331,-262 331,-240 176,-240"/>
<polygon fill="none" stroke="black" points="176,-240 176,-262 331,-262 331,-240 176,-240"/>
<image xlink:href="../../images/foreignKeys.png" width="11px" height="12px" preserveAspectRatio="xMinYMin meet" x="181" y="-257"/>
<text text-anchor="start" x="196" y="-248.2" font-family="Helvetica,sans-Serif" font-size="11.00">user_id</text>
<polygon fill="none" stroke="black" points="331,-240 331,-262 416,-262 416,-240 331,-240"/>
<text text-anchor="start" x="334" y="-248.2" font-family="Helvetica,sans-Serif" font-size="11.00">int4[10]</text>
<polygon fill="none" stroke="black" points="176,-218 176,-240 331,-240 331,-218 176,-218"/>
<image xlink:href="../../images/foreignKeys.png" width="11px" height="12px" preserveAspectRatio="xMinYMin meet" x="181" y="-235"/>
<text text-anchor="start" x="196" y="-226.2" font-family="Helvetica,sans-Serif" font-size="11.00">role_id</text>
<polygon fill="none" stroke="black" points="331,-218 331,-240 416,-240 416,-218 331,-218"/>
<text text-anchor="start" x="334" y="-226.2" font-family="Helvetica,sans-Serif" font-size="11.00">int4[10]</text>
<polygon fill="#ffffff" stroke="transparent" points="176,-196 176,-218 331,-218 331,-196 176,-196"/>
<polygon fill="none" stroke="black" points="176,-196 176,-218 331,-218 331,-196 176,-196"/>
<image xlink:href="../../images/foreignKeys.png" width="11px" height="12px" preserveAspectRatio="xMinYMin meet" x="181" y="-213"/>
<text text-anchor="start" x="196" y="-204.2" font-family="Helvetica,sans-Serif" font-size="11.00">customer_id</text>
<polygon fill="none" stroke="black" points="331,-196 331,-218 416,-218 416,-196 331,-196"/>
<text text-anchor="start" x="334" y="-204.2" font-family="Helvetica,sans-Serif" font-size="11.00">int4[10]</text>
<polygon fill="none" stroke="black" points="176,-174 176,-196 331,-196 331,-174 176,-174"/>
<text text-anchor="start" x="196" y="-182.2" font-family="Helvetica,sans-Serif" font-size="11.00">created_at</text>
<polygon fill="none" stroke="black" points="331,-174 331,-196 416,-196 416,-174 331,-174"/>
<text text-anchor="start" x="334" y="-182.2" font-family="Helvetica,sans-Serif" font-size="11.00">timestamp[29,6]</text>
<polygon fill="none" stroke="black" points="176,-152 176,-174 331,-174 331,-152 176,-152"/>
<text text-anchor="start" x="196" y="-160.2" font-family="Helvetica,sans-Serif" font-size="11.00">updated_at</text>
<polygon fill="none" stroke="black" points="331,-152 331,-174 416,-174 416,-152 331,-152"/>
<text text-anchor="start" x="334" y="-160.2" font-family="Helvetica,sans-Serif" font-size="11.00">timestamp[29,6]</text>
<polygon fill="none" stroke="black" points="176,-130 176,-152 331,-152 331,-130 176,-130"/>
<text text-anchor="start" x="196" y="-138.2" font-family="Helvetica,sans-Serif" font-size="11.00">is_active</text>
<polygon fill="none" stroke="black" points="331,-130 331,-152 416,-152 416,-130 331,-130"/>
<text text-anchor="start" x="334" y="-138.2" font-family="Helvetica,sans-Serif" font-size="11.00">bool[1]</text>
<polygon fill="#ffffff" stroke="transparent" points="176,-112 176,-130 241,-130 241,-112 176,-112"/>
<polygon fill="none" stroke="black" points="176,-112 176,-130 241,-130 241,-112 176,-112"/>
<text text-anchor="start" x="179" y="-118.2" font-family="Helvetica,sans-Serif" font-size="11.00">&lt; 3</text>
<polygon fill="#ffffff" stroke="transparent" points="241,-112 241,-130 331,-130 331,-112 241,-112"/>
<polygon fill="none" stroke="black" points="241,-112 241,-130 331,-130 331,-112 241,-112"/>
<text text-anchor="start" x="288" y="-118.2" font-family="Helvetica,sans-Serif" font-size="11.00">12 rows</text>
<polygon fill="#ffffff" stroke="transparent" points="331,-112 331,-130 416,-130 416,-112 331,-112"/>
<polygon fill="none" stroke="black" points="331,-112 331,-130 416,-130 416,-112 331,-112"/>
<text text-anchor="start" x="397" y="-118.2" font-family="Helvetica,sans-Serif" font-size="11.00">0 &gt;</text>
<polygon fill="none" stroke="black" stroke-width="2" points="175,-111 175,-307 417,-307 417,-111 175,-111"/>
</a>
</g>
</g>
<!-- customers -->
<g id="node2" class="node">
<title>customers</title>
<g id="a_node2"><a xlink:href="../../tables/customers.html" xlink:title="customers" target="_top">
<polygon fill="#ffffff" stroke="transparent" points="8,-37 8,-139 125,-139 125,-37 8,-37"/>
<polygon fill="#f5f5f5" stroke="transparent" points="8.5,-117 8.5,-139 125.5,-139 125.5,-117 8.5,-117"/>
<polygon fill="none" stroke="black" points="8.5,-117 8.5,-139 125.5,-139 125.5,-117 8.5,-117"/>
<text text-anchor="start" x="13.5" y="-126.2" font-family="Helvetica,sans-Serif" font-weight="bold" font-size="11.00">customers</text>
<text text-anchor="start" x="90.5" y="-125.2" font-family="Helvetica,sans-Serif" font-size="11.00">[table]</text>
<polygon fill="none" stroke="black" points="8.5,-95 8.5,-117 125.5,-117 125.5,-95 8.5,-95"/>
<image xlink:href="../../images/primaryKeys.png" width="11px" height="12px" preserveAspectRatio="xMinYMin meet" x="13.5" y="-112"/>
<text text-anchor="start" x="28.5" y="-103.2" font-family="Helvetica,sans-Serif" font-size="11.00">id</text>
<polygon fill="#ffffff" stroke="transparent" points="8.5,-73 8.5,-95 125.5,-95 125.5,-73 8.5,-73"/>
<polygon fill="none" stroke="black" points="8.5,-73 8.5,-95 125.5,-95 125.5,-73 8.5,-73"/>
<text text-anchor="start" x="28.5" y="-81.2" font-family="Helvetica,sans-Serif" font-size="11.00">name</text>
<polygon fill="none" stroke="black" points="8.5,-55 8.5,-73 125.5,-73 125.5,-55 8.5,-55"/>
<text text-anchor="start" x="11.5" y="-61.2" font-family="Helvetica,sans-Serif" font-size="11.00">...</text>
<polygon fill="#ffffff" stroke="transparent" points="8.5,-37 8.5,-55 36.5,-55 36.5,-37 8.5,-37"/>
<polygon fill="none" stroke="black" points="8.5,-37 8.5,-55 36.5,-55 36.5,-37 8.5,-37"/>
<text text-anchor="start" x="11.5" y="-43.2" font-family="Helvetica,sans-Serif" font-size="11.00"> &#160;</text>
<polygon fill="#ffffff" stroke="transparent" points="36.5,-37 36.5,-55 95.5,-55 95.5,-37 36.5,-37"/>
<polygon fill="none" stroke="black" points="36.5,-37 36.5,-55 95.5,-55 95.5,-37 36.5,-37"/>
<text text-anchor="start" x="46.5" y="-43.2" font-family="Helvetica,sans-Serif" font-size="11.00">938 rows</text>
<polygon fill="#ffffff" stroke="transparent" points="95.5,-37 95.5,-55 125.5,-55 125.5,-37 95.5,-37"/>
<polygon fill="none" stroke="black" points="95.5,-37 95.5,-55 125.5,-55 125.5,-37 95.5,-37"/>
<text text-anchor="start" x="106.5" y="-43.2" font-family="Helvetica,sans-Serif" font-size="11.00">5 &gt;</text>
</a>
</g>
</g>
<!-- users_roles_customers&#45;&gt;customers -->
<g id="edge1" class="edge">
<title>users_roles_customers:w&#45;&gt;customers:e</title>
<path fill="none" stroke="black" d="M160.99,-202.92C136.1,-184.02 170.27,-106 126.5,-106"/>
<polygon fill="black" stroke="black" points="167.32,-204.76 173.99,-210.46 171.16,-205.88 175,-207 175,-207 175,-207 171.16,-205.88 176.01,-203.54 167.32,-204.76 167.32,-204.76"/>
<ellipse fill="none" stroke="black" cx="164.25" cy="-203.87" rx="3.2" ry="3.2"/>
</g>
<!-- roles -->
<g id="node3" class="node">
<title>roles</title>
<g id="a_node3"><a xlink:href="../../tables/roles.html" xlink:title="roles" target="_top">
<polygon fill="#ffffff" stroke="transparent" points="24,-160 24,-262 109,-262 109,-160 24,-160"/>
<polygon fill="#f5f5f5" stroke="transparent" points="24.5,-240 24.5,-262 109.5,-262 109.5,-240 24.5,-240"/>
<polygon fill="none" stroke="black" points="24.5,-240 24.5,-262 109.5,-262 109.5,-240 24.5,-240"/>
<text text-anchor="start" x="29.5" y="-249.2" font-family="Helvetica,sans-Serif" font-weight="bold" font-size="11.00">roles</text>
<text text-anchor="start" x="74.5" y="-248.2" font-family="Helvetica,sans-Serif" font-size="11.00">[table]</text>
<polygon fill="none" stroke="black" points="24.5,-218 24.5,-240 109.5,-240 109.5,-218 24.5,-218"/>
<image xlink:href="../../images/primaryKeys.png" width="11px" height="12px" preserveAspectRatio="xMinYMin meet" x="29.5" y="-235"/>
<text text-anchor="start" x="44.5" y="-226.2" font-family="Helvetica,sans-Serif" font-size="11.00">id</text>
<polygon fill="#ffffff" stroke="transparent" points="24.5,-196 24.5,-218 109.5,-218 109.5,-196 24.5,-196"/>
<polygon fill="none" stroke="black" points="24.5,-196 24.5,-218 109.5,-218 109.5,-196 24.5,-196"/>
<text text-anchor="start" x="44.5" y="-204.2" font-family="Helvetica,sans-Serif" font-size="11.00">name</text>
<polygon fill="none" stroke="black" points="24.5,-178 24.5,-196 109.5,-196 109.5,-178 24.5,-178"/>
<text text-anchor="start" x="27.5" y="-184.2" font-family="Helvetica,sans-Serif" font-size="11.00">...</text>
<polygon fill="#ffffff" stroke="transparent" points="24.5,-160 24.5,-178 42.5,-178 42.5,-160 24.5,-160"/>
<polygon fill="none" stroke="black" points="24.5,-160 24.5,-178 42.5,-178 42.5,-160 24.5,-160"/>
<text text-anchor="start" x="27.5" y="-166.2" font-family="Helvetica,sans-Serif" font-size="11.00"> &#160;</text>
<polygon fill="#ffffff" stroke="transparent" points="42.5,-160 42.5,-178 84.5,-178 84.5,-160 42.5,-160"/>
<polygon fill="none" stroke="black" points="42.5,-160 42.5,-178 84.5,-178 84.5,-160 42.5,-160"/>
<text text-anchor="start" x="47.5" y="-166.2" font-family="Helvetica,sans-Serif" font-size="11.00">3 rows</text>
<polygon fill="#ffffff" stroke="transparent" points="84.5,-160 84.5,-178 109.5,-178 109.5,-160 84.5,-160"/>
<polygon fill="none" stroke="black" points="84.5,-160 84.5,-178 109.5,-178 109.5,-160 84.5,-160"/>
<text text-anchor="start" x="90.5" y="-166.2" font-family="Helvetica,sans-Serif" font-size="11.00">2 &gt;</text>
</a>
</g>
</g>
<!-- users_roles_customers&#45;&gt;roles -->
<g id="edge2" class="edge">
<title>users_roles_customers:w&#45;&gt;roles:e</title>
<path fill="none" stroke="black" d="M160.34,-229C142.71,-229 133.57,-229 110.5,-229"/>
<polygon fill="black" stroke="black" points="167,-229 175,-232.6 171,-229 175,-229 175,-229 175,-229 171,-229 175,-225.4 167,-229 167,-229"/>
<ellipse fill="none" stroke="black" cx="163.8" cy="-229" rx="3.2" ry="3.2"/>
</g>
<!-- users -->
<g id="node4" class="node">
<title>users</title>
<g id="a_node4"><a xlink:href="../../tables/users.html" xlink:title="users" target="_top">
<polygon fill="#ffffff" stroke="transparent" points="24,-283 24,-385 109,-385 109,-283 24,-283"/>
<polygon fill="#f5f5f5" stroke="transparent" points="24.5,-363 24.5,-385 109.5,-385 109.5,-363 24.5,-363"/>
<polygon fill="none" stroke="black" points="24.5,-363 24.5,-385 109.5,-385 109.5,-363 24.5,-363"/>
<text text-anchor="start" x="29.5" y="-372.2" font-family="Helvetica,sans-Serif" font-weight="bold" font-size="11.00">users</text>
<text text-anchor="start" x="74.5" y="-371.2" font-family="Helvetica,sans-Serif" font-size="11.00">[table]</text>
<polygon fill="none" stroke="black" points="24.5,-341 24.5,-363 109.5,-363 109.5,-341 24.5,-341"/>
<image xlink:href="../../images/primaryKeys.png" width="11px" height="12px" preserveAspectRatio="xMinYMin meet" x="29.5" y="-358"/>
<text text-anchor="start" x="44.5" y="-349.2" font-family="Helvetica,sans-Serif" font-size="11.00">id</text>
<polygon fill="#ffffff" stroke="transparent" points="24.5,-319 24.5,-341 109.5,-341 109.5,-319 24.5,-319"/>
<polygon fill="none" stroke="black" points="24.5,-319 24.5,-341 109.5,-341 109.5,-319 24.5,-319"/>
<text text-anchor="start" x="44.5" y="-327.2" font-family="Helvetica,sans-Serif" font-size="11.00">email</text>
<polygon fill="none" stroke="black" points="24.5,-301 24.5,-319 109.5,-319 109.5,-301 24.5,-301"/>
<text text-anchor="start" x="27.5" y="-307.2" font-family="Helvetica,sans-Serif" font-size="11.00">...</text>
<polygon fill="#ffffff" stroke="transparent" points="24.5,-283 24.5,-301 39.5,-301 39.5,-283 24.5,-283"/>
<polygon fill="none" stroke="black" points="24.5,-283 24.5,-301 39.5,-301 39.5,-283 24.5,-283"/>
<text text-anchor="start" x="27.5" y="-289.2" font-family="Helvetica,sans-Serif" font-size="11.00"> &#160;</text>
<polygon fill="#ffffff" stroke="transparent" points="39.5,-283 39.5,-301 86.5,-301 86.5,-283 39.5,-283"/>
<polygon fill="none" stroke="black" points="39.5,-283 39.5,-301 86.5,-301 86.5,-283 39.5,-283"/>
<text text-anchor="start" x="43.5" y="-289.2" font-family="Helvetica,sans-Serif" font-size="11.00">11 rows</text>
<polygon fill="#ffffff" stroke="transparent" points="86.5,-283 86.5,-301 109.5,-301 109.5,-283 86.5,-283"/>
<polygon fill="none" stroke="black" points="86.5,-283 86.5,-301 109.5,-301 109.5,-283 86.5,-283"/>
<text text-anchor="start" x="90.5" y="-289.2" font-family="Helvetica,sans-Serif" font-size="11.00">2 &gt;</text>
</a>
</g>
</g>
<!-- users_roles_customers&#45;&gt;users -->
<g id="edge3" class="edge">
<title>users_roles_customers:w&#45;&gt;users:e</title>
<path fill="none" stroke="black" d="M160.69,-254.36C129.79,-271.89 157.94,-352 110.5,-352"/>
<polygon fill="black" stroke="black" points="167.21,-252.83 175.82,-254.5 171.11,-251.91 175,-251 175,-251 175,-251 171.11,-251.91 174.18,-247.5 167.21,-252.83 167.21,-252.83"/>
<ellipse fill="none" stroke="black" cx="164.1" cy="-253.56" rx="3.2" ry="3.2"/>
</g>
</g>
</svg>
