<?xml version="1.0" encoding="UTF-8" standalone="no"?>
<!DOCTYPE svg PUBLIC "-//W3C//DTD SVG 1.1//EN"
 "http://www.w3.org/Graphics/SVG/1.1/DTD/svg11.dtd">
<!-- Generated by graphviz version 2.50.0 (20211204.2007)
 -->
<!-- Title: twoDegreesRelationshipsDiagram Pages: 1 -->
<svg width="714pt" height="324pt"
 viewBox="0.00 0.00 714.00 324.00" xmlns="http://www.w3.org/2000/svg" xmlns:xlink="http://www.w3.org/1999/xlink">
<g id="graph0" class="graph" transform="scale(1 1) rotate(0) translate(4 320)">
<title>twoDegreesRelationshipsDiagram</title>
<polygon fill="#ffffff" stroke="transparent" points="-4,4 -4,-320 710,-320 710,4 -4,4"/>
<text text-anchor="middle" x="72.5" y="-7.2" font-family="Helvetica,sans-Serif" font-size="11.00">Generated by SchemaSpy</text>
<!-- allowed_configuration_values -->
<g id="node1" class="node">
<title>allowed_configuration_values</title>
<g id="a_node1"><a xlink:href="../../tables/allowed_configuration_values.html" xlink:title="allowed_configuration_values" target="_top">
<polygon fill="#ffffff" stroke="transparent" points="178,-37 178,-139 381,-139 381,-37 178,-37"/>
<polygon fill="#f5f5f5" stroke="transparent" points="178.5,-117 178.5,-139 381.5,-139 381.5,-117 178.5,-117"/>
<polygon fill="none" stroke="black" points="178.5,-117 178.5,-139 381.5,-139 381.5,-117 178.5,-117"/>
<text text-anchor="start" x="183.5" y="-126.2" font-family="Helvetica,sans-Serif" font-weight="bold" font-size="11.00">allowed_configuration_values</text>
<text text-anchor="start" x="346.5" y="-125.2" font-family="Helvetica,sans-Serif" font-size="11.00">[table]</text>
<polygon fill="none" stroke="black" points="178.5,-95 178.5,-117 381.5,-117 381.5,-95 178.5,-95"/>
<image xlink:href="../../images/primaryKeys.png" width="11px" height="12px" preserveAspectRatio="xMinYMin meet" x="183.5" y="-112"/>
<text text-anchor="start" x="204.5" y="-103.2" font-family="Helvetica,sans-Serif" font-size="11.00">id</text>
<polygon fill="none" stroke="black" points="178.5,-73 178.5,-95 381.5,-95 381.5,-73 178.5,-73"/>
<image xlink:href="../../images/foreignKeys.png" width="11px" height="12px" preserveAspectRatio="xMinYMin meet" x="183.5" y="-90"/>
<text text-anchor="start" x="204.5" y="-81.2" font-family="Helvetica,sans-Serif" font-size="11.00">configuration_id</text>
<polygon fill="none" stroke="black" points="178.5,-55 178.5,-73 381.5,-73 381.5,-55 178.5,-55"/>
<text text-anchor="start" x="181.5" y="-61.2" font-family="Helvetica,sans-Serif" font-size="11.00">...</text>
<polygon fill="#ffffff" stroke="transparent" points="178.5,-37 178.5,-55 262.5,-55 262.5,-37 178.5,-37"/>
<polygon fill="none" stroke="black" points="178.5,-37 178.5,-55 262.5,-55 262.5,-37 178.5,-37"/>
<text text-anchor="start" x="181.5" y="-43.2" font-family="Helvetica,sans-Serif" font-size="11.00">&lt; 1</text>
<polygon fill="#ffffff" stroke="transparent" points="262.5,-37 262.5,-55 327.5,-55 327.5,-37 262.5,-37"/>
<polygon fill="none" stroke="black" points="262.5,-37 262.5,-55 327.5,-55 327.5,-37 262.5,-37"/>
<text text-anchor="start" x="296.5" y="-43.2" font-family="Helvetica,sans-Serif" font-size="11.00">1 row</text>
<polygon fill="#ffffff" stroke="transparent" points="327.5,-37 327.5,-55 381.5,-55 381.5,-37 327.5,-37"/>
<polygon fill="none" stroke="black" points="327.5,-37 327.5,-55 381.5,-55 381.5,-37 327.5,-37"/>
<text text-anchor="start" x="362.5" y="-43.2" font-family="Helvetica,sans-Serif" font-size="11.00">1 &gt;</text>
</a>
</g>
</g>
<!-- configurations -->
<g id="node2" class="node">
<title>configurations</title>
<g id="a_node2"><a xlink:href="../../tables/configurations.html" xlink:title="configurations" target="_top">
<polygon fill="#ffffff" stroke="transparent" points="8,-54 8,-156 129,-156 129,-54 8,-54"/>
<polygon fill="#f5f5f5" stroke="transparent" points="8.5,-134 8.5,-156 129.5,-156 129.5,-134 8.5,-134"/>
<polygon fill="none" stroke="black" points="8.5,-134 8.5,-156 129.5,-156 129.5,-134 8.5,-134"/>
<text text-anchor="start" x="13.5" y="-143.2" font-family="Helvetica,sans-Serif" font-weight="bold" font-size="11.00">configurations</text>
<text text-anchor="start" x="94.5" y="-142.2" font-family="Helvetica,sans-Serif" font-size="11.00">[table]</text>
<polygon fill="none" stroke="black" points="8.5,-112 8.5,-134 129.5,-134 129.5,-112 8.5,-112"/>
<image xlink:href="../../images/primaryKeys.png" width="11px" height="12px" preserveAspectRatio="xMinYMin meet" x="13.5" y="-129"/>
<text text-anchor="start" x="37.5" y="-120.2" font-family="Helvetica,sans-Serif" font-size="11.00">id</text>
<polygon fill="#ffffff" stroke="transparent" points="8.5,-90 8.5,-112 129.5,-112 129.5,-90 8.5,-90"/>
<polygon fill="none" stroke="black" points="8.5,-90 8.5,-112 129.5,-112 129.5,-90 8.5,-90"/>
<text text-anchor="start" x="37.5" y="-98.2" font-family="Helvetica,sans-Serif" font-size="11.00">name</text>
<polygon fill="none" stroke="black" points="8.5,-72 8.5,-90 129.5,-90 129.5,-72 8.5,-72"/>
<text text-anchor="start" x="11.5" y="-78.2" font-family="Helvetica,sans-Serif" font-size="11.00">...</text>
<polygon fill="#ffffff" stroke="transparent" points="8.5,-54 8.5,-72 41.5,-72 41.5,-54 8.5,-54"/>
<polygon fill="none" stroke="black" points="8.5,-54 8.5,-72 41.5,-72 41.5,-54 8.5,-54"/>
<text text-anchor="start" x="11.5" y="-60.2" font-family="Helvetica,sans-Serif" font-size="11.00"> &#160;</text>
<polygon fill="#ffffff" stroke="transparent" points="41.5,-54 41.5,-72 97.5,-72 97.5,-54 41.5,-54"/>
<polygon fill="none" stroke="black" points="41.5,-54 41.5,-72 97.5,-72 97.5,-54 41.5,-54"/>
<text text-anchor="start" x="54.5" y="-60.2" font-family="Helvetica,sans-Serif" font-size="11.00">18 rows</text>
<polygon fill="#ffffff" stroke="transparent" points="97.5,-54 97.5,-72 129.5,-72 129.5,-54 97.5,-54"/>
<polygon fill="none" stroke="black" points="97.5,-54 97.5,-72 129.5,-72 129.5,-54 97.5,-54"/>
<text text-anchor="start" x="110.5" y="-60.2" font-family="Helvetica,sans-Serif" font-size="11.00">2 &gt;</text>
</a>
</g>
</g>
<!-- allowed_configuration_values&#45;&gt;configurations -->
<g id="edge1" class="edge">
<title>allowed_configuration_values:w&#45;&gt;configurations:e</title>
<path fill="none" stroke="black" d="M163.91,-88.78C151.9,-99.2 151.71,-123 130.5,-123"/>
<polygon fill="black" stroke="black" points="169.95,-86.66 178.69,-87.4 173.73,-85.33 177.5,-84 177.5,-84 177.5,-84 173.73,-85.33 176.31,-80.6 169.95,-86.66 169.95,-86.66"/>
<ellipse fill="none" stroke="black" cx="166.93" cy="-87.72" rx="3.2" ry="3.2"/>
</g>
<!-- users_configurations -->
<g id="node3" class="node">
<title>users_configurations</title>
<g id="a_node3"><a xlink:href="../../tables/users_configurations.html" xlink:title="users_configurations" target="_top">
<polygon fill="#ffffff" stroke="transparent" points="430,-79 430,-233 698,-233 698,-79 430,-79"/>
<polygon fill="#f5f5f5" stroke="transparent" points="432,-209 432,-231 696,-231 696,-209 432,-209"/>
<polygon fill="none" stroke="black" points="432,-209 432,-231 696,-231 696,-209 432,-209"/>
<text text-anchor="start" x="437" y="-218.2" font-family="Helvetica,sans-Serif" font-weight="bold" font-size="11.00">users_configurations</text>
<text text-anchor="start" x="661" y="-217.2" font-family="Helvetica,sans-Serif" font-size="11.00">[table]</text>
<polygon fill="none" stroke="black" points="432,-187 432,-209 635,-209 635,-187 432,-187"/>
<image xlink:href="../../images/primaryKeys.png" width="11px" height="12px" preserveAspectRatio="xMinYMin meet" x="437" y="-204"/>
<text text-anchor="start" x="452" y="-195.2" font-family="Helvetica,sans-Serif" font-size="11.00">id</text>
<polygon fill="none" stroke="black" points="635,-187 635,-209 696,-209 696,-187 635,-187"/>
<text text-anchor="start" x="638" y="-195.2" font-family="Helvetica,sans-Serif" font-size="11.00">serial[10]</text>
<polygon fill="none" stroke="black" points="432,-165 432,-187 635,-187 635,-165 432,-165"/>
<image xlink:href="../../images/foreignKeys.png" width="11px" height="12px" preserveAspectRatio="xMinYMin meet" x="437" y="-182"/>
<text text-anchor="start" x="452" y="-173.2" font-family="Helvetica,sans-Serif" font-size="11.00">user_id</text>
<polygon fill="none" stroke="black" points="635,-165 635,-187 696,-187 696,-165 635,-165"/>
<text text-anchor="start" x="638" y="-173.2" font-family="Helvetica,sans-Serif" font-size="11.00">int4[10]</text>
<polygon fill="none" stroke="black" points="432,-143 432,-165 635,-165 635,-143 432,-143"/>
<image xlink:href="../../images/foreignKeys.png" width="11px" height="12px" preserveAspectRatio="xMinYMin meet" x="437" y="-160"/>
<text text-anchor="start" x="452" y="-151.2" font-family="Helvetica,sans-Serif" font-size="11.00">configuration_id</text>
<polygon fill="none" stroke="black" points="635,-143 635,-165 696,-165 696,-143 635,-143"/>
<text text-anchor="start" x="638" y="-151.2" font-family="Helvetica,sans-Serif" font-size="11.00">int4[10]</text>
<polygon fill="none" stroke="black" points="432,-121 432,-143 635,-143 635,-121 432,-121"/>
<image xlink:href="../../images/foreignKeys.png" width="11px" height="12px" preserveAspectRatio="xMinYMin meet" x="437" y="-138"/>
<text text-anchor="start" x="452" y="-129.2" font-family="Helvetica,sans-Serif" font-size="11.00">allowed_configuration_value_id</text>
<polygon fill="none" stroke="black" points="635,-121 635,-143 696,-143 696,-121 635,-121"/>
<text text-anchor="start" x="638" y="-129.2" font-family="Helvetica,sans-Serif" font-size="11.00">int4[10]</text>
<polygon fill="none" stroke="black" points="432,-99 432,-121 635,-121 635,-99 432,-99"/>
<text text-anchor="start" x="452" y="-107.2" font-family="Helvetica,sans-Serif" font-size="11.00">unconstrained_value</text>
<polygon fill="none" stroke="black" points="635,-99 635,-121 696,-121 696,-99 635,-99"/>
<text text-anchor="start" x="638" y="-107.2" font-family="Helvetica,sans-Serif" font-size="11.00">varchar[32]</text>
<polygon fill="#ffffff" stroke="transparent" points="432,-81 432,-99 521,-99 521,-81 432,-81"/>
<polygon fill="none" stroke="black" points="432,-81 432,-99 521,-99 521,-81 432,-81"/>
<text text-anchor="start" x="435" y="-87.2" font-family="Helvetica,sans-Serif" font-size="11.00">&lt; 3</text>
<polygon fill="#ffffff" stroke="transparent" points="521,-81 521,-99 635,-99 635,-81 521,-81"/>
<polygon fill="none" stroke="black" points="521,-81 521,-99 635,-99 635,-81 521,-81"/>
<text text-anchor="start" x="592" y="-87.2" font-family="Helvetica,sans-Serif" font-size="11.00">11 rows</text>
<polygon fill="#ffffff" stroke="transparent" points="635,-81 635,-99 696,-99 696,-81 635,-81"/>
<polygon fill="none" stroke="black" points="635,-81 635,-99 696,-99 696,-81 635,-81"/>
<text text-anchor="start" x="677" y="-87.2" font-family="Helvetica,sans-Serif" font-size="11.00">0 &gt;</text>
<polygon fill="none" stroke="black" stroke-width="2" points="431,-80 431,-232 697,-232 697,-80 431,-80"/>
</a>
</g>
</g>
<!-- users_configurations&#45;&gt;allowed_configuration_values -->
<g id="edge2" class="edge">
<title>users_configurations:w&#45;&gt;allowed_configuration_values:e</title>
<path fill="none" stroke="black" d="M416.9,-128.16C405.28,-120.93 401.03,-106 382.5,-106"/>
<polygon fill="black" stroke="black" points="423.28,-129.9 430.05,-135.47 427.14,-130.95 431,-132 431,-132 431,-132 427.14,-130.95 431.95,-128.53 423.28,-129.9 423.28,-129.9"/>
<ellipse fill="none" stroke="black" cx="420.19" cy="-129.06" rx="3.2" ry="3.2"/>
</g>
<!-- users_configurations&#45;&gt;configurations -->
<g id="edge3" class="edge">
<title>users_configurations:w&#45;&gt;configurations:e</title>
<path fill="none" stroke="black" d="M416.48,-154.16C311.89,-156.55 275.82,-183.6 170,-150 149.73,-143.56 151.76,-123 130.5,-123"/>
<polygon fill="black" stroke="black" points="423,-154.09 431.04,-157.6 427,-154.05 431,-154 431,-154 431,-154 427,-154.05 430.96,-150.4 423,-154.09 423,-154.09"/>
<ellipse fill="none" stroke="black" cx="419.8" cy="-154.13" rx="3.2" ry="3.2"/>
</g>
<!-- users -->
<g id="node4" class="node">
<title>users</title>
<g id="a_node4"><a xlink:href="../../tables/users.html" xlink:title="users" target="_top">
<polygon fill="#ffffff" stroke="transparent" points="237,-195 237,-297 322,-297 322,-195 237,-195"/>
<polygon fill="#f5f5f5" stroke="transparent" points="237.5,-275 237.5,-297 322.5,-297 322.5,-275 237.5,-275"/>
<polygon fill="none" stroke="black" points="237.5,-275 237.5,-297 322.5,-297 322.5,-275 237.5,-275"/>
<text text-anchor="start" x="242.5" y="-284.2" font-family="Helvetica,sans-Serif" font-weight="bold" font-size="11.00">users</text>
<text text-anchor="start" x="287.5" y="-283.2" font-family="Helvetica,sans-Serif" font-size="11.00">[table]</text>
<polygon fill="none" stroke="black" points="237.5,-253 237.5,-275 322.5,-275 322.5,-253 237.5,-253"/>
<image xlink:href="../../images/primaryKeys.png" width="11px" height="12px" preserveAspectRatio="xMinYMin meet" x="242.5" y="-270"/>
<text text-anchor="start" x="257.5" y="-261.2" font-family="Helvetica,sans-Serif" font-size="11.00">id</text>
<polygon fill="#ffffff" stroke="transparent" points="237.5,-231 237.5,-253 322.5,-253 322.5,-231 237.5,-231"/>
<polygon fill="none" stroke="black" points="237.5,-231 237.5,-253 322.5,-253 322.5,-231 237.5,-231"/>
<text text-anchor="start" x="257.5" y="-239.2" font-family="Helvetica,sans-Serif" font-size="11.00">email</text>
<polygon fill="none" stroke="black" points="237.5,-213 237.5,-231 322.5,-231 322.5,-213 237.5,-213"/>
<text text-anchor="start" x="240.5" y="-219.2" font-family="Helvetica,sans-Serif" font-size="11.00">...</text>
<polygon fill="#ffffff" stroke="transparent" points="237.5,-195 237.5,-213 252.5,-213 252.5,-195 237.5,-195"/>
<polygon fill="none" stroke="black" points="237.5,-195 237.5,-213 252.5,-213 252.5,-195 237.5,-195"/>
<text text-anchor="start" x="240.5" y="-201.2" font-family="Helvetica,sans-Serif" font-size="11.00"> &#160;</text>
<polygon fill="#ffffff" stroke="transparent" points="252.5,-195 252.5,-213 299.5,-213 299.5,-195 252.5,-195"/>
<polygon fill="none" stroke="black" points="252.5,-195 252.5,-213 299.5,-213 299.5,-195 252.5,-195"/>
<text text-anchor="start" x="256.5" y="-201.2" font-family="Helvetica,sans-Serif" font-size="11.00">11 rows</text>
<polygon fill="#ffffff" stroke="transparent" points="299.5,-195 299.5,-213 322.5,-213 322.5,-195 299.5,-195"/>
<polygon fill="none" stroke="black" points="299.5,-195 299.5,-213 322.5,-213 322.5,-195 299.5,-195"/>
<text text-anchor="start" x="303.5" y="-201.2" font-family="Helvetica,sans-Serif" font-size="11.00">2 &gt;</text>
</a>
</g>
</g>
<!-- users_configurations&#45;&gt;users -->
<g id="edge4" class="edge">
<title>users_configurations:w&#45;&gt;users:e</title>
<path fill="none" stroke="black" d="M416.71,-177.84C371.43,-190.48 379.94,-264 323.5,-264"/>
<polygon fill="black" stroke="black" points="423.07,-177.02 431.46,-179.57 427.03,-176.51 431,-176 431,-176 431,-176 427.03,-176.51 430.54,-172.43 423.07,-177.02 423.07,-177.02"/>
<ellipse fill="none" stroke="black" cx="419.89" cy="-177.43" rx="3.2" ry="3.2"/>
</g>
<!-- users_roles_customers -->
<g id="node5" class="node">
<title>users_roles_customers</title>
<g id="a_node5"><a xlink:href="../../tables/users_roles_customers.html" xlink:title="users_roles_customers" target="_top">
<polygon fill="#ffffff" stroke="transparent" points="479.5,-254 479.5,-312 648.5,-312 648.5,-254 479.5,-254"/>
<polygon fill="#f5f5f5" stroke="transparent" points="480,-290 480,-312 649,-312 649,-290 480,-290"/>
<polygon fill="none" stroke="black" points="480,-290 480,-312 649,-312 649,-290 480,-290"/>
<text text-anchor="start" x="485" y="-299.2" font-family="Helvetica,sans-Serif" font-weight="bold" font-size="11.00">users_roles_customers</text>
<text text-anchor="start" x="614" y="-298.2" font-family="Helvetica,sans-Serif" font-size="11.00">[table]</text>
<polygon fill="none" stroke="black" points="480,-272 480,-290 649,-290 649,-272 480,-272"/>
<text text-anchor="start" x="483" y="-278.2" font-family="Helvetica,sans-Serif" font-size="11.00">...</text>
<polygon fill="#ffffff" stroke="transparent" points="480,-254 480,-272 546,-272 546,-254 480,-254"/>
<polygon fill="none" stroke="black" points="480,-254 480,-272 546,-272 546,-254 480,-254"/>
<text text-anchor="start" x="483" y="-260.2" font-family="Helvetica,sans-Serif" font-size="11.00">&lt; 3</text>
<polygon fill="#ffffff" stroke="transparent" points="546,-254 546,-272 614,-272 614,-254 546,-254"/>
<polygon fill="none" stroke="black" points="546,-254 546,-272 614,-272 614,-254 546,-254"/>
<text text-anchor="start" x="571" y="-260.2" font-family="Helvetica,sans-Serif" font-size="11.00">12 rows</text>
<polygon fill="#ffffff" stroke="transparent" points="614,-254 614,-272 649,-272 649,-254 614,-254"/>
<polygon fill="none" stroke="black" points="614,-254 614,-272 649,-272 649,-254 614,-254"/>
<text text-anchor="start" x="639" y="-260.2" font-family="Helvetica,sans-Serif" font-size="11.00"> &#160;</text>
</a>
</g>
</g>
<!-- users_roles_customers&#45;&gt;users -->
<g id="edge5" class="edge">
<title>users_roles_customers:w&#45;&gt;users:e</title>
<path fill="none" stroke="black" d="M464.35,-280.73C406.74,-278.57 387.86,-264 323.5,-264"/>
<polygon fill="black" stroke="black" points="471,-280.85 478.93,-284.6 475,-280.93 479,-281 479,-281 479,-281 475,-280.93 479.07,-277.4 471,-280.85 471,-280.85"/>
<ellipse fill="none" stroke="black" cx="467.8" cy="-280.8" rx="3.2" ry="3.2"/>
</g>
</g>
</svg>
