<?xml version="1.0" encoding="UTF-8" standalone="no"?>
<!DOCTYPE svg PUBLIC "-//W3C//DTD SVG 1.1//EN"
 "http://www.w3.org/Graphics/SVG/1.1/DTD/svg11.dtd">
<!-- Generated by graphviz version 2.50.0 (20211204.2007)
 -->
<!-- Title: aggregate_totals Pages: 1 -->
<svg width="312pt" height="324pt"
 viewBox="0.00 0.00 312.00 324.00" xmlns="http://www.w3.org/2000/svg" xmlns:xlink="http://www.w3.org/1999/xlink">
<g id="graph0" class="graph" transform="scale(1 1) rotate(0) translate(4 320)">
<title>aggregate_totals</title>
<polygon fill="#ffffff" stroke="transparent" points="-4,4 -4,-320 308,-320 308,4 -4,4"/>
<!-- aggregate_totals -->
<g id="node1" class="node">
<title>aggregate_totals</title>
<g id="a_node1"><a xlink:href="../../tables/aggregate_totals.html" xlink:title="aggregate_totals" target="_top">
<polygon fill="#ffffff" stroke="transparent" points="8,-4 8,-312 296,-312 296,-4 8,-4"/>
<polygon fill="#f5f5f5" stroke="transparent" points="10,-288 10,-310 294,-310 294,-288 10,-288"/>
<polygon fill="none" stroke="black" points="10,-288 10,-310 294,-310 294,-288 10,-288"/>
<text text-anchor="start" x="15" y="-297.2" font-family="Helvetica,sans-Serif" font-weight="bold" font-size="11.00">aggregate_totals</text>
<text text-anchor="start" x="259" y="-296.2" font-family="Helvetica,sans-Serif" font-size="11.00">[table]</text>
<polygon fill="none" stroke="black" points="10,-266 10,-288 204,-288 204,-266 10,-266"/>
<image xlink:href="../../images/primaryKeys.png" width="11px" height="12px" preserveAspectRatio="xMinYMin meet" x="15" y="-283"/>
<text text-anchor="start" x="30" y="-274.2" font-family="Helvetica,sans-Serif" font-size="11.00">id</text>
<polygon fill="none" stroke="black" points="204,-266 204,-288 294,-288 294,-266 204,-266"/>
<text text-anchor="start" x="207" y="-274.2" font-family="Helvetica,sans-Serif" font-size="11.00">bigserial[19]</text>
<polygon fill="#ffffff" stroke="transparent" points="10,-244 10,-266 204,-266 204,-244 10,-244"/>
<polygon fill="none" stroke="black" points="10,-244 10,-266 204,-266 204,-244 10,-244"/>
<text text-anchor="start" x="30" y="-252.2" font-family="Helvetica,sans-Serif" font-size="11.00">aggregate_level</text>
<polygon fill="none" stroke="black" points="204,-244 204,-266 294,-266 294,-244 204,-244"/>
<text text-anchor="start" x="207" y="-252.2" font-family="Helvetica,sans-Serif" font-size="11.00">int4[10]</text>
<polygon fill="#ffffff" stroke="transparent" points="10,-222 10,-244 204,-244 204,-222 10,-222"/>
<polygon fill="none" stroke="black" points="10,-222 10,-244 204,-244 204,-222 10,-222"/>
<text text-anchor="start" x="30" y="-230.2" font-family="Helvetica,sans-Serif" font-size="11.00">entity_id</text>
<polygon fill="none" stroke="black" points="204,-222 204,-244 294,-244 294,-222 204,-222"/>
<text text-anchor="start" x="207" y="-230.2" font-family="Helvetica,sans-Serif" font-size="11.00">int4[10]</text>
<polygon fill="none" stroke="black" points="10,-200 10,-222 204,-222 204,-200 10,-200"/>
<text text-anchor="start" x="30" y="-208.2" font-family="Helvetica,sans-Serif" font-size="11.00">parent_entity_id</text>
<polygon fill="none" stroke="black" points="204,-200 204,-222 294,-222 294,-200 204,-200"/>
<text text-anchor="start" x="207" y="-208.2" font-family="Helvetica,sans-Serif" font-size="11.00">int4[10]</text>
<polygon fill="#ffffff" stroke="transparent" points="10,-178 10,-200 204,-200 204,-178 10,-178"/>
<polygon fill="none" stroke="black" points="10,-178 10,-200 204,-200 204,-178 10,-178"/>
<text text-anchor="start" x="30" y="-186.2" font-family="Helvetica,sans-Serif" font-size="11.00">tags_hash_md5</text>
<polygon fill="none" stroke="black" points="204,-178 204,-200 294,-200 294,-178 204,-178"/>
<text text-anchor="start" x="207" y="-186.2" font-family="Helvetica,sans-Serif" font-size="11.00">text[2147483647]</text>
<polygon fill="none" stroke="black" points="10,-156 10,-178 204,-178 204,-156 10,-156"/>
<text text-anchor="start" x="30" y="-164.2" font-family="Helvetica,sans-Serif" font-size="11.00">qty_children</text>
<polygon fill="none" stroke="black" points="204,-156 204,-178 294,-178 294,-156 204,-156"/>
<text text-anchor="start" x="207" y="-164.2" font-family="Helvetica,sans-Serif" font-size="11.00">int4[10]</text>
<polygon fill="none" stroke="black" points="10,-134 10,-156 204,-156 204,-134 10,-134"/>
<text text-anchor="start" x="30" y="-142.2" font-family="Helvetica,sans-Serif" font-size="11.00">qty_children_done</text>
<polygon fill="none" stroke="black" points="204,-134 204,-156 294,-156 294,-134 204,-134"/>
<text text-anchor="start" x="207" y="-142.2" font-family="Helvetica,sans-Serif" font-size="11.00">int4[10]</text>
<polygon fill="none" stroke="black" points="10,-112 10,-134 204,-134 204,-112 10,-112"/>
<text text-anchor="start" x="30" y="-120.2" font-family="Helvetica,sans-Serif" font-size="11.00">value_abs</text>
<polygon fill="none" stroke="black" points="204,-112 204,-134 294,-134 294,-112 204,-112"/>
<text text-anchor="start" x="207" y="-120.2" font-family="Helvetica,sans-Serif" font-size="11.00">float8[17,17]</text>
<polygon fill="none" stroke="black" points="10,-90 10,-112 204,-112 204,-90 10,-90"/>
<text text-anchor="start" x="30" y="-98.2" font-family="Helvetica,sans-Serif" font-size="11.00">qty_assets</text>
<polygon fill="none" stroke="black" points="204,-90 204,-112 294,-112 294,-90 204,-90"/>
<text text-anchor="start" x="207" y="-98.2" font-family="Helvetica,sans-Serif" font-size="11.00">int4[10]</text>
<polygon fill="none" stroke="black" points="10,-68 10,-90 204,-90 204,-68 10,-68"/>
<text text-anchor="start" x="30" y="-76.2" font-family="Helvetica,sans-Serif" font-size="11.00">qty_assets_complete_hazards</text>
<polygon fill="none" stroke="black" points="204,-68 204,-90 294,-90 294,-68 204,-68"/>
<text text-anchor="start" x="207" y="-76.2" font-family="Helvetica,sans-Serif" font-size="11.00">int4[10]</text>
<polygon fill="none" stroke="black" points="10,-46 10,-68 204,-68 204,-46 10,-46"/>
<text text-anchor="start" x="30" y="-54.2" font-family="Helvetica,sans-Serif" font-size="11.00">qty_assets_complete_risks</text>
<polygon fill="none" stroke="black" points="204,-46 204,-68 294,-68 294,-46 204,-46"/>
<text text-anchor="start" x="207" y="-54.2" font-family="Helvetica,sans-Serif" font-size="11.00">int4[10]</text>
<polygon fill="none" stroke="black" points="10,-24 10,-46 204,-46 204,-24 10,-24"/>
<text text-anchor="start" x="30" y="-32.2" font-family="Helvetica,sans-Serif" font-size="11.00">created_at</text>
<polygon fill="none" stroke="black" points="204,-24 204,-46 294,-46 294,-24 204,-24"/>
<text text-anchor="start" x="207" y="-32.2" font-family="Helvetica,sans-Serif" font-size="11.00">timestamp[29,6]</text>
<polygon fill="#ffffff" stroke="transparent" points="10,-6 10,-24 84,-24 84,-6 10,-6"/>
<polygon fill="none" stroke="black" points="10,-6 10,-24 84,-24 84,-6 10,-6"/>
<text text-anchor="start" x="13" y="-12.2" font-family="Helvetica,sans-Serif" font-size="11.00">&lt; 0</text>
<polygon fill="#ffffff" stroke="transparent" points="84,-6 84,-24 204,-24 204,-6 84,-6"/>
<polygon fill="none" stroke="black" points="84,-6 84,-24 204,-24 204,-6 84,-6"/>
<text text-anchor="start" x="140" y="-12.2" font-family="Helvetica,sans-Serif" font-size="11.00">41,630 rows</text>
<polygon fill="#ffffff" stroke="transparent" points="204,-6 204,-24 294,-24 294,-6 204,-6"/>
<polygon fill="none" stroke="black" points="204,-6 204,-24 294,-24 294,-6 204,-6"/>
<text text-anchor="start" x="275" y="-12.2" font-family="Helvetica,sans-Serif" font-size="11.00">0 &gt;</text>
<polygon fill="none" stroke="black" stroke-width="2" points="9,-5 9,-311 295,-311 295,-5 9,-5"/>
</a>
</g>
</g>
</g>
</svg>
