<?xml version="1.0" encoding="UTF-8" standalone="no"?>
<!DOCTYPE svg PUBLIC "-//W3C//DTD SVG 1.1//EN"
 "http://www.w3.org/Graphics/SVG/1.1/DTD/svg11.dtd">
<!-- Generated by graphviz version 2.50.0 (20211204.2007)
 -->
<!-- Title: app_controls Pages: 1 -->
<svg width="191pt" height="104pt"
 viewBox="0.00 0.00 191.00 104.00" xmlns="http://www.w3.org/2000/svg" xmlns:xlink="http://www.w3.org/1999/xlink">
<g id="graph0" class="graph" transform="scale(1 1) rotate(0) translate(4 100)">
<title>app_controls</title>
<polygon fill="#ffffff" stroke="transparent" points="-4,4 -4,-100 187,-100 187,4 -4,4"/>
<!-- app_controls -->
<g id="node1" class="node">
<title>app_controls</title>
<g id="a_node1"><a xlink:href="../../tables/app_controls.html" xlink:title="app_controls" target="_top">
<polygon fill="#ffffff" stroke="transparent" points="8,-4 8,-92 175,-92 175,-4 8,-4"/>
<polygon fill="#f5f5f5" stroke="transparent" points="10.5,-68 10.5,-90 173.5,-90 173.5,-68 10.5,-68"/>
<polygon fill="none" stroke="black" points="10.5,-68 10.5,-90 173.5,-90 173.5,-68 10.5,-68"/>
<text text-anchor="start" x="15.5" y="-77.2" font-family="Helvetica,sans-Serif" font-weight="bold" font-size="11.00">app_controls</text>
<text text-anchor="start" x="138.5" y="-76.2" font-family="Helvetica,sans-Serif" font-size="11.00">[table]</text>
<polygon fill="#ffffff" stroke="transparent" points="10.5,-46 10.5,-68 106.5,-68 106.5,-46 10.5,-46"/>
<polygon fill="none" stroke="black" points="10.5,-46 10.5,-68 106.5,-68 106.5,-46 10.5,-46"/>
<text text-anchor="start" x="30.5" y="-54.2" font-family="Helvetica,sans-Serif" font-size="11.00">name</text>
<polygon fill="none" stroke="black" points="106.5,-46 106.5,-68 173.5,-68 173.5,-46 106.5,-46"/>
<text text-anchor="start" x="109.5" y="-54.2" font-family="Helvetica,sans-Serif" font-size="11.00">varchar[256]</text>
<polygon fill="none" stroke="black" points="10.5,-24 10.5,-46 106.5,-46 106.5,-24 10.5,-24"/>
<text text-anchor="start" x="30.5" y="-32.2" font-family="Helvetica,sans-Serif" font-size="11.00">val</text>
<polygon fill="none" stroke="black" points="106.5,-24 106.5,-46 173.5,-46 173.5,-24 106.5,-24"/>
<text text-anchor="start" x="109.5" y="-32.2" font-family="Helvetica,sans-Serif" font-size="11.00">varchar[265]</text>
<polygon fill="#ffffff" stroke="transparent" points="10.5,-6 10.5,-24 49.5,-24 49.5,-6 10.5,-6"/>
<polygon fill="none" stroke="black" points="10.5,-6 10.5,-24 49.5,-24 49.5,-6 10.5,-6"/>
<text text-anchor="start" x="13.5" y="-12.2" font-family="Helvetica,sans-Serif" font-size="11.00">&lt; 0</text>
<polygon fill="#ffffff" stroke="transparent" points="49.5,-6 49.5,-24 106.5,-24 106.5,-6 49.5,-6"/>
<polygon fill="none" stroke="black" points="49.5,-6 49.5,-24 106.5,-24 106.5,-6 49.5,-6"/>
<text text-anchor="start" x="69.5" y="-12.2" font-family="Helvetica,sans-Serif" font-size="11.00">2 rows</text>
<polygon fill="#ffffff" stroke="transparent" points="106.5,-6 106.5,-24 173.5,-24 173.5,-6 106.5,-6"/>
<polygon fill="none" stroke="black" points="106.5,-6 106.5,-24 173.5,-24 173.5,-6 106.5,-6"/>
<text text-anchor="start" x="154.5" y="-12.2" font-family="Helvetica,sans-Serif" font-size="11.00">0 &gt;</text>
<polygon fill="none" stroke="black" stroke-width="2" points="9,-5 9,-91 174,-91 174,-5 9,-5"/>
</a>
</g>
</g>
</g>
</svg>
