<?xml version="1.0" encoding="UTF-8" standalone="no"?>
<!DOCTYPE svg PUBLIC "-//W3C//DTD SVG 1.1//EN"
 "http://www.w3.org/Graphics/SVG/1.1/DTD/svg11.dtd">
<!-- Generated by graphviz version 2.50.0 (20211204.2007)
 -->
<!-- Title: customer_config Pages: 1 -->
<svg width="230pt" height="170pt"
 viewBox="0.00 0.00 230.00 170.00" xmlns="http://www.w3.org/2000/svg" xmlns:xlink="http://www.w3.org/1999/xlink">
<g id="graph0" class="graph" transform="scale(1 1) rotate(0) translate(4 166)">
<title>customer_config</title>
<polygon fill="#ffffff" stroke="transparent" points="-4,4 -4,-166 226,-166 226,4 -4,4"/>
<!-- customer_config -->
<g id="node1" class="node">
<title>customer_config</title>
<g id="a_node1"><a xlink:href="../../tables/customer_config.html" xlink:title="customer_config" target="_top">
<polygon fill="#ffffff" stroke="transparent" points="8,-4 8,-158 214,-158 214,-4 8,-4"/>
<polygon fill="#f5f5f5" stroke="transparent" points="10,-134 10,-156 212,-156 212,-134 10,-134"/>
<polygon fill="none" stroke="black" points="10,-134 10,-156 212,-156 212,-134 10,-134"/>
<text text-anchor="start" x="15" y="-143.2" font-family="Helvetica,sans-Serif" font-weight="bold" font-size="11.00">customer_config</text>
<text text-anchor="start" x="177" y="-142.2" font-family="Helvetica,sans-Serif" font-size="11.00">[table]</text>
<polygon fill="none" stroke="black" points="10,-112 10,-134 127,-134 127,-112 10,-112"/>
<image xlink:href="../../images/primaryKeys.png" width="11px" height="12px" preserveAspectRatio="xMinYMin meet" x="15" y="-129"/>
<text text-anchor="start" x="30" y="-120.2" font-family="Helvetica,sans-Serif" font-size="11.00">customer_id</text>
<polygon fill="none" stroke="black" points="127,-112 127,-134 212,-134 212,-112 127,-112"/>
<text text-anchor="start" x="130" y="-120.2" font-family="Helvetica,sans-Serif" font-size="11.00">int4[10]</text>
<polygon fill="none" stroke="black" points="10,-90 10,-112 127,-112 127,-90 10,-90"/>
<image xlink:href="../../images/primaryKeys.png" width="11px" height="12px" preserveAspectRatio="xMinYMin meet" x="15" y="-107"/>
<text text-anchor="start" x="30" y="-98.2" font-family="Helvetica,sans-Serif" font-size="11.00">name</text>
<polygon fill="none" stroke="black" points="127,-90 127,-112 212,-112 212,-90 127,-90"/>
<text text-anchor="start" x="130" y="-98.2" font-family="Helvetica,sans-Serif" font-size="11.00">varchar[32]</text>
<polygon fill="none" stroke="black" points="10,-68 10,-90 127,-90 127,-68 10,-68"/>
<image xlink:href="../../images/primaryKeys.png" width="11px" height="12px" preserveAspectRatio="xMinYMin meet" x="15" y="-85"/>
<text text-anchor="start" x="30" y="-76.2" font-family="Helvetica,sans-Serif" font-size="11.00">value</text>
<polygon fill="none" stroke="black" points="127,-68 127,-90 212,-90 212,-68 127,-68"/>
<text text-anchor="start" x="130" y="-76.2" font-family="Helvetica,sans-Serif" font-size="11.00">varchar[128]</text>
<polygon fill="none" stroke="black" points="10,-46 10,-68 127,-68 127,-46 10,-46"/>
<text text-anchor="start" x="30" y="-54.2" font-family="Helvetica,sans-Serif" font-size="11.00">created_at</text>
<polygon fill="none" stroke="black" points="127,-46 127,-68 212,-68 212,-46 127,-46"/>
<text text-anchor="start" x="130" y="-54.2" font-family="Helvetica,sans-Serif" font-size="11.00">timestamp[29,6]</text>
<polygon fill="none" stroke="black" points="10,-24 10,-46 127,-46 127,-24 10,-24"/>
<text text-anchor="start" x="30" y="-32.2" font-family="Helvetica,sans-Serif" font-size="11.00">updated_at</text>
<polygon fill="none" stroke="black" points="127,-24 127,-46 212,-46 212,-24 127,-24"/>
<text text-anchor="start" x="130" y="-32.2" font-family="Helvetica,sans-Serif" font-size="11.00">timestamp[29,6]</text>
<polygon fill="#ffffff" stroke="transparent" points="10,-6 10,-24 59,-24 59,-6 10,-6"/>
<polygon fill="none" stroke="black" points="10,-6 10,-24 59,-24 59,-6 10,-6"/>
<text text-anchor="start" x="13" y="-12.2" font-family="Helvetica,sans-Serif" font-size="11.00">&lt; 0</text>
<polygon fill="#ffffff" stroke="transparent" points="59,-6 59,-24 127,-24 127,-6 59,-6"/>
<polygon fill="none" stroke="black" points="59,-6 59,-24 127,-24 127,-6 59,-6"/>
<text text-anchor="start" x="90" y="-12.2" font-family="Helvetica,sans-Serif" font-size="11.00">8 rows</text>
<polygon fill="#ffffff" stroke="transparent" points="127,-6 127,-24 212,-24 212,-6 127,-6"/>
<polygon fill="none" stroke="black" points="127,-6 127,-24 212,-24 212,-6 127,-6"/>
<text text-anchor="start" x="193" y="-12.2" font-family="Helvetica,sans-Serif" font-size="11.00">0 &gt;</text>
<polygon fill="none" stroke="black" stroke-width="2" points="9,-5 9,-157 213,-157 213,-5 9,-5"/>
</a>
</g>
</g>
</g>
</svg>
