<?xml version="1.0" encoding="UTF-8" standalone="no"?>
<!DOCTYPE svg PUBLIC "-//W3C//DTD SVG 1.1//EN"
 "http://www.w3.org/Graphics/SVG/1.1/DTD/svg11.dtd">
<!-- Generated by graphviz version 2.50.0 (20211204.2007)
 -->
<!-- Title: decadal_states_batch Pages: 1 -->
<svg width="345pt" height="478pt"
 viewBox="0.00 0.00 345.00 478.00" xmlns="http://www.w3.org/2000/svg" xmlns:xlink="http://www.w3.org/1999/xlink">
<g id="graph0" class="graph" transform="scale(1 1) rotate(0) translate(4 474)">
<title>decadal_states_batch</title>
<polygon fill="#ffffff" stroke="transparent" points="-4,4 -4,-474 341,-474 341,4 -4,4"/>
<!-- decadal_states_batch -->
<g id="node1" class="node">
<title>decadal_states_batch</title>
<g id="a_node1"><a xlink:href="../../tables/decadal_states_batch.html" xlink:title="decadal_states_batch" target="_top">
<polygon fill="#ffffff" stroke="transparent" points="8,-4 8,-466 329,-466 329,-4 8,-4"/>
<polygon fill="#f5f5f5" stroke="transparent" points="10.5,-442 10.5,-464 327.5,-464 327.5,-442 10.5,-442"/>
<polygon fill="none" stroke="black" points="10.5,-442 10.5,-464 327.5,-464 327.5,-442 10.5,-442"/>
<text text-anchor="start" x="15.5" y="-451.2" font-family="Helvetica,sans-Serif" font-weight="bold" font-size="11.00">decadal_states_batch</text>
<text text-anchor="start" x="292.5" y="-450.2" font-family="Helvetica,sans-Serif" font-size="11.00">[table]</text>
<polygon fill="none" stroke="black" points="10.5,-420 10.5,-442 237.5,-442 237.5,-420 10.5,-420"/>
<image xlink:href="../../images/primaryKeys.png" width="11px" height="12px" preserveAspectRatio="xMinYMin meet" x="15.5" y="-437"/>
<text text-anchor="start" x="30.5" y="-428.2" font-family="Helvetica,sans-Serif" font-size="11.00">id</text>
<polygon fill="none" stroke="black" points="237.5,-420 237.5,-442 327.5,-442 327.5,-420 237.5,-420"/>
<text text-anchor="start" x="240.5" y="-428.2" font-family="Helvetica,sans-Serif" font-size="11.00">serial[10]</text>
<polygon fill="#ffffff" stroke="transparent" points="10.5,-398 10.5,-420 237.5,-420 237.5,-398 10.5,-398"/>
<polygon fill="none" stroke="black" points="10.5,-398 10.5,-420 237.5,-420 237.5,-398 10.5,-398"/>
<text text-anchor="start" x="30.5" y="-406.2" font-family="Helvetica,sans-Serif" font-size="11.00">grid_square_id</text>
<polygon fill="none" stroke="black" points="237.5,-398 237.5,-420 327.5,-420 327.5,-398 237.5,-398"/>
<text text-anchor="start" x="240.5" y="-406.2" font-family="Helvetica,sans-Serif" font-size="11.00">int4[10]</text>
<polygon fill="#ffffff" stroke="transparent" points="10.5,-376 10.5,-398 237.5,-398 237.5,-376 10.5,-376"/>
<polygon fill="none" stroke="black" points="10.5,-376 10.5,-398 237.5,-398 237.5,-376 10.5,-376"/>
<text text-anchor="start" x="30.5" y="-384.2" font-family="Helvetica,sans-Serif" font-size="11.00">point_loc_id</text>
<polygon fill="none" stroke="black" points="237.5,-376 237.5,-398 327.5,-398 327.5,-376 237.5,-376"/>
<text text-anchor="start" x="240.5" y="-384.2" font-family="Helvetica,sans-Serif" font-size="11.00">int4[10]</text>
<polygon fill="#ffffff" stroke="transparent" points="10.5,-354 10.5,-376 237.5,-376 237.5,-354 10.5,-354"/>
<polygon fill="none" stroke="black" points="10.5,-354 10.5,-376 237.5,-376 237.5,-354 10.5,-354"/>
<text text-anchor="start" x="30.5" y="-362.2" font-family="Helvetica,sans-Serif" font-size="11.00">region_id</text>
<polygon fill="none" stroke="black" points="237.5,-354 237.5,-376 327.5,-376 327.5,-354 237.5,-354"/>
<text text-anchor="start" x="240.5" y="-362.2" font-family="Helvetica,sans-Serif" font-size="11.00">int4[10]</text>
<polygon fill="#ffffff" stroke="transparent" points="10.5,-332 10.5,-354 237.5,-354 237.5,-332 10.5,-332"/>
<polygon fill="none" stroke="black" points="10.5,-332 10.5,-354 237.5,-354 237.5,-332 10.5,-332"/>
<text text-anchor="start" x="30.5" y="-340.2" font-family="Helvetica,sans-Serif" font-size="11.00">decadal_state_type</text>
<polygon fill="none" stroke="black" points="237.5,-332 237.5,-354 327.5,-354 327.5,-332 237.5,-332"/>
<text text-anchor="start" x="240.5" y="-340.2" font-family="Helvetica,sans-Serif" font-size="11.00">int4[10]</text>
<polygon fill="#ffffff" stroke="transparent" points="10.5,-310 10.5,-332 237.5,-332 237.5,-310 10.5,-310"/>
<polygon fill="none" stroke="black" points="10.5,-310 10.5,-332 237.5,-332 237.5,-310 10.5,-310"/>
<text text-anchor="start" x="30.5" y="-318.2" font-family="Helvetica,sans-Serif" font-size="11.00">hazard_metric_id</text>
<polygon fill="none" stroke="black" points="237.5,-310 237.5,-332 327.5,-332 327.5,-310 237.5,-310"/>
<text text-anchor="start" x="240.5" y="-318.2" font-family="Helvetica,sans-Serif" font-size="11.00">int4[10]</text>
<polygon fill="#ffffff" stroke="transparent" points="10.5,-288 10.5,-310 237.5,-310 237.5,-288 10.5,-288"/>
<polygon fill="none" stroke="black" points="10.5,-288 10.5,-310 237.5,-310 237.5,-288 10.5,-288"/>
<text text-anchor="start" x="30.5" y="-296.2" font-family="Helvetica,sans-Serif" font-size="11.00">scenario_id</text>
<polygon fill="none" stroke="black" points="237.5,-288 237.5,-310 327.5,-310 327.5,-288 237.5,-288"/>
<text text-anchor="start" x="240.5" y="-296.2" font-family="Helvetica,sans-Serif" font-size="11.00">int4[10]</text>
<polygon fill="#ffffff" stroke="transparent" points="10.5,-266 10.5,-288 237.5,-288 237.5,-266 10.5,-266"/>
<polygon fill="none" stroke="black" points="10.5,-266 10.5,-288 237.5,-288 237.5,-266 10.5,-266"/>
<text text-anchor="start" x="30.5" y="-274.2" font-family="Helvetica,sans-Serif" font-size="11.00">decade</text>
<polygon fill="none" stroke="black" points="237.5,-266 237.5,-288 327.5,-288 327.5,-266 237.5,-266"/>
<text text-anchor="start" x="240.5" y="-274.2" font-family="Helvetica,sans-Serif" font-size="11.00">int2[5]</text>
<polygon fill="#ffffff" stroke="transparent" points="10.5,-244 10.5,-266 237.5,-266 237.5,-244 10.5,-244"/>
<polygon fill="none" stroke="black" points="10.5,-244 10.5,-266 237.5,-266 237.5,-244 10.5,-244"/>
<text text-anchor="start" x="30.5" y="-252.2" font-family="Helvetica,sans-Serif" font-size="11.00">proc_flag_decadal_states_calc</text>
<polygon fill="none" stroke="black" points="237.5,-244 237.5,-266 327.5,-266 327.5,-244 237.5,-244"/>
<text text-anchor="start" x="240.5" y="-252.2" font-family="Helvetica,sans-Serif" font-size="11.00">int4[10]</text>
<polygon fill="none" stroke="black" points="10.5,-222 10.5,-244 237.5,-244 237.5,-222 10.5,-222"/>
<text text-anchor="start" x="30.5" y="-230.2" font-family="Helvetica,sans-Serif" font-size="11.00">descr</text>
<polygon fill="none" stroke="black" points="237.5,-222 237.5,-244 327.5,-244 327.5,-222 237.5,-222"/>
<text text-anchor="start" x="240.5" y="-230.2" font-family="Helvetica,sans-Serif" font-size="11.00">varchar[256]</text>
<polygon fill="none" stroke="black" points="10.5,-200 10.5,-222 237.5,-222 237.5,-200 10.5,-200"/>
<text text-anchor="start" x="30.5" y="-208.2" font-family="Helvetica,sans-Serif" font-size="11.00">hazard_metric_mean</text>
<polygon fill="none" stroke="black" points="237.5,-200 237.5,-222 327.5,-222 327.5,-200 237.5,-200"/>
<text text-anchor="start" x="240.5" y="-208.2" font-family="Helvetica,sans-Serif" font-size="11.00">float8[17,17]</text>
<polygon fill="none" stroke="black" points="10.5,-178 10.5,-200 237.5,-200 237.5,-178 10.5,-178"/>
<text text-anchor="start" x="30.5" y="-186.2" font-family="Helvetica,sans-Serif" font-size="11.00">approximated</text>
<polygon fill="none" stroke="black" points="237.5,-178 237.5,-200 327.5,-200 327.5,-178 237.5,-178"/>
<text text-anchor="start" x="240.5" y="-186.2" font-family="Helvetica,sans-Serif" font-size="11.00">bool[1]</text>
<polygon fill="none" stroke="black" points="10.5,-156 10.5,-178 237.5,-178 237.5,-156 10.5,-156"/>
<text text-anchor="start" x="30.5" y="-164.2" font-family="Helvetica,sans-Serif" font-size="11.00">approximated_gridsquare_span_lng</text>
<polygon fill="none" stroke="black" points="237.5,-156 237.5,-178 327.5,-178 327.5,-156 237.5,-156"/>
<text text-anchor="start" x="240.5" y="-164.2" font-family="Helvetica,sans-Serif" font-size="11.00">float8[17,17]</text>
<polygon fill="none" stroke="black" points="10.5,-134 10.5,-156 237.5,-156 237.5,-134 10.5,-134"/>
<text text-anchor="start" x="30.5" y="-142.2" font-family="Helvetica,sans-Serif" font-size="11.00">approximated_gridsquare_span_lat</text>
<polygon fill="none" stroke="black" points="237.5,-134 237.5,-156 327.5,-156 327.5,-134 237.5,-134"/>
<text text-anchor="start" x="240.5" y="-142.2" font-family="Helvetica,sans-Serif" font-size="11.00">float8[17,17]</text>
<polygon fill="#ffffff" stroke="transparent" points="10.5,-112 10.5,-134 237.5,-134 237.5,-112 10.5,-112"/>
<polygon fill="none" stroke="black" points="10.5,-112 10.5,-134 237.5,-134 237.5,-112 10.5,-112"/>
<text text-anchor="start" x="30.5" y="-120.2" font-family="Helvetica,sans-Serif" font-size="11.00">not_in_model</text>
<polygon fill="none" stroke="black" points="237.5,-112 237.5,-134 327.5,-134 327.5,-112 237.5,-112"/>
<text text-anchor="start" x="240.5" y="-120.2" font-family="Helvetica,sans-Serif" font-size="11.00">int4[10]</text>
<polygon fill="none" stroke="black" points="10.5,-90 10.5,-112 237.5,-112 237.5,-90 10.5,-90"/>
<text text-anchor="start" x="30.5" y="-98.2" font-family="Helvetica,sans-Serif" font-size="11.00">duplicate_suspected</text>
<polygon fill="none" stroke="black" points="237.5,-90 237.5,-112 327.5,-112 327.5,-90 237.5,-90"/>
<text text-anchor="start" x="240.5" y="-98.2" font-family="Helvetica,sans-Serif" font-size="11.00">int4[10]</text>
<polygon fill="none" stroke="black" points="10.5,-68 10.5,-90 237.5,-90 237.5,-68 10.5,-68"/>
<text text-anchor="start" x="30.5" y="-76.2" font-family="Helvetica,sans-Serif" font-size="11.00">created_at</text>
<polygon fill="none" stroke="black" points="237.5,-68 237.5,-90 327.5,-90 327.5,-68 237.5,-68"/>
<text text-anchor="start" x="240.5" y="-76.2" font-family="Helvetica,sans-Serif" font-size="11.00">timestamp[29,6]</text>
<polygon fill="none" stroke="black" points="10.5,-46 10.5,-68 237.5,-68 237.5,-46 10.5,-46"/>
<text text-anchor="start" x="30.5" y="-54.2" font-family="Helvetica,sans-Serif" font-size="11.00">updated_at</text>
<polygon fill="none" stroke="black" points="237.5,-46 237.5,-68 327.5,-68 327.5,-46 237.5,-46"/>
<text text-anchor="start" x="240.5" y="-54.2" font-family="Helvetica,sans-Serif" font-size="11.00">timestamp[29,6]</text>
<polygon fill="none" stroke="black" points="10.5,-24 10.5,-46 237.5,-46 237.5,-24 10.5,-24"/>
<text text-anchor="start" x="30.5" y="-32.2" font-family="Helvetica,sans-Serif" font-size="11.00">batch_id</text>
<polygon fill="none" stroke="black" points="237.5,-24 237.5,-46 327.5,-46 327.5,-24 237.5,-24"/>
<text text-anchor="start" x="240.5" y="-32.2" font-family="Helvetica,sans-Serif" font-size="11.00">text[2147483647]</text>
<polygon fill="#ffffff" stroke="transparent" points="10.5,-6 10.5,-24 114.5,-24 114.5,-6 10.5,-6"/>
<polygon fill="none" stroke="black" points="10.5,-6 10.5,-24 114.5,-24 114.5,-6 10.5,-6"/>
<text text-anchor="start" x="13.5" y="-12.2" font-family="Helvetica,sans-Serif" font-size="11.00">&lt; 0</text>
<polygon fill="#ffffff" stroke="transparent" points="114.5,-6 114.5,-24 237.5,-24 237.5,-6 114.5,-6"/>
<polygon fill="none" stroke="black" points="114.5,-6 114.5,-24 237.5,-24 237.5,-6 114.5,-6"/>
<text text-anchor="start" x="200.5" y="-12.2" font-family="Helvetica,sans-Serif" font-size="11.00">0 rows</text>
<polygon fill="#ffffff" stroke="transparent" points="237.5,-6 237.5,-24 327.5,-24 327.5,-6 237.5,-6"/>
<polygon fill="none" stroke="black" points="237.5,-6 237.5,-24 327.5,-24 327.5,-6 237.5,-6"/>
<text text-anchor="start" x="308.5" y="-12.2" font-family="Helvetica,sans-Serif" font-size="11.00">0 &gt;</text>
<polygon fill="none" stroke="black" stroke-width="2" points="9,-5 9,-465 328,-465 328,-5 9,-5"/>
</a>
</g>
</g>
</g>
</svg>
