<?xml version="1.0" encoding="UTF-8" standalone="no"?>
<!DOCTYPE svg PUBLIC "-//W3C//DTD SVG 1.1//EN"
 "http://www.w3.org/Graphics/SVG/1.1/DTD/svg11.dtd">
<!-- Generated by graphviz version 2.50.0 (20211204.2007)
 -->
<!-- Title: derived_vars Pages: 1 -->
<svg width="198pt" height="148pt"
 viewBox="0.00 0.00 198.00 148.00" xmlns="http://www.w3.org/2000/svg" xmlns:xlink="http://www.w3.org/1999/xlink">
<g id="graph0" class="graph" transform="scale(1 1) rotate(0) translate(4 144)">
<title>derived_vars</title>
<polygon fill="#ffffff" stroke="transparent" points="-4,4 -4,-144 194,-144 194,4 -4,4"/>
<!-- derived_vars -->
<g id="node1" class="node">
<title>derived_vars</title>
<g id="a_node1"><a xlink:href="../../tables/derived_vars.html" xlink:title="derived_vars" target="_top">
<polygon fill="#ffffff" stroke="transparent" points="8,-4 8,-136 182,-136 182,-4 8,-4"/>
<polygon fill="#f5f5f5" stroke="transparent" points="10,-112 10,-134 180,-134 180,-112 10,-112"/>
<polygon fill="none" stroke="black" points="10,-112 10,-134 180,-134 180,-112 10,-112"/>
<text text-anchor="start" x="15" y="-121.2" font-family="Helvetica,sans-Serif" font-weight="bold" font-size="11.00">derived_vars</text>
<text text-anchor="start" x="145" y="-120.2" font-family="Helvetica,sans-Serif" font-size="11.00">[table]</text>
<polygon fill="none" stroke="black" points="10,-90 10,-112 129,-112 129,-90 10,-90"/>
<image xlink:href="../../images/primaryKeys.png" width="11px" height="12px" preserveAspectRatio="xMinYMin meet" x="15" y="-107"/>
<text text-anchor="start" x="30" y="-98.2" font-family="Helvetica,sans-Serif" font-size="11.00">id</text>
<polygon fill="none" stroke="black" points="129,-90 129,-112 180,-112 180,-90 129,-90"/>
<text text-anchor="start" x="132" y="-98.2" font-family="Helvetica,sans-Serif" font-size="11.00">serial[10]</text>
<polygon fill="none" stroke="black" points="10,-68 10,-90 129,-90 129,-68 10,-68"/>
<text text-anchor="start" x="30" y="-76.2" font-family="Helvetica,sans-Serif" font-size="11.00">risk_factor_id</text>
<polygon fill="none" stroke="black" points="129,-68 129,-90 180,-90 180,-68 129,-68"/>
<text text-anchor="start" x="132" y="-76.2" font-family="Helvetica,sans-Serif" font-size="11.00">int4[10]</text>
<polygon fill="none" stroke="black" points="10,-46 10,-68 129,-68 129,-46 10,-46"/>
<text text-anchor="start" x="30" y="-54.2" font-family="Helvetica,sans-Serif" font-size="11.00">hazard_metric_id</text>
<polygon fill="none" stroke="black" points="129,-46 129,-68 180,-68 180,-46 129,-46"/>
<text text-anchor="start" x="132" y="-54.2" font-family="Helvetica,sans-Serif" font-size="11.00">int4[10]</text>
<polygon fill="none" stroke="black" points="10,-24 10,-46 129,-46 129,-24 10,-24"/>
<text text-anchor="start" x="30" y="-32.2" font-family="Helvetica,sans-Serif" font-size="11.00">is_primary</text>
<polygon fill="none" stroke="black" points="129,-24 129,-46 180,-46 180,-24 129,-24"/>
<text text-anchor="start" x="132" y="-32.2" font-family="Helvetica,sans-Serif" font-size="11.00">bool[1]</text>
<polygon fill="#ffffff" stroke="transparent" points="10,-6 10,-24 54,-24 54,-6 10,-6"/>
<polygon fill="none" stroke="black" points="10,-6 10,-24 54,-24 54,-6 10,-6"/>
<text text-anchor="start" x="13" y="-12.2" font-family="Helvetica,sans-Serif" font-size="11.00">&lt; 0</text>
<polygon fill="#ffffff" stroke="transparent" points="54,-6 54,-24 129,-24 129,-6 54,-6"/>
<polygon fill="none" stroke="black" points="54,-6 54,-24 129,-24 129,-6 54,-6"/>
<text text-anchor="start" x="80" y="-12.2" font-family="Helvetica,sans-Serif" font-size="11.00">342 rows</text>
<polygon fill="#ffffff" stroke="transparent" points="129,-6 129,-24 180,-24 180,-6 129,-6"/>
<polygon fill="none" stroke="black" points="129,-6 129,-24 180,-24 180,-6 129,-6"/>
<text text-anchor="start" x="161" y="-12.2" font-family="Helvetica,sans-Serif" font-size="11.00">0 &gt;</text>
<polygon fill="none" stroke="black" stroke-width="2" points="9,-5 9,-135 181,-135 181,-5 9,-5"/>
</a>
</g>
</g>
</g>
</svg>
