<?xml version="1.0" encoding="UTF-8" standalone="no"?>
<!DOCTYPE svg PUBLIC "-//W3C//DTD SVG 1.1//EN"
 "http://www.w3.org/Graphics/SVG/1.1/DTD/svg11.dtd">
<!-- Generated by graphviz version 2.50.0 (20211204.2007)
 -->
<!-- Title: etl_gridded_data Pages: 1 -->
<svg width="277pt" height="280pt"
 viewBox="0.00 0.00 277.00 280.00" xmlns="http://www.w3.org/2000/svg" xmlns:xlink="http://www.w3.org/1999/xlink">
<g id="graph0" class="graph" transform="scale(1 1) rotate(0) translate(4 276)">
<title>etl_gridded_data</title>
<polygon fill="#ffffff" stroke="transparent" points="-4,4 -4,-276 273,-276 273,4 -4,4"/>
<!-- etl_gridded_data -->
<g id="node1" class="node">
<title>etl_gridded_data</title>
<g id="a_node1"><a xlink:href="../../tables/etl_gridded_data.html" xlink:title="etl_gridded_data" target="_top">
<polygon fill="#ffffff" stroke="transparent" points="8,-4 8,-268 261,-268 261,-4 8,-4"/>
<polygon fill="#f5f5f5" stroke="transparent" points="10.5,-244 10.5,-266 259.5,-266 259.5,-244 10.5,-244"/>
<polygon fill="none" stroke="black" points="10.5,-244 10.5,-266 259.5,-266 259.5,-244 10.5,-244"/>
<text text-anchor="start" x="15.5" y="-253.2" font-family="Helvetica,sans-Serif" font-weight="bold" font-size="11.00">etl_gridded_data</text>
<text text-anchor="start" x="224.5" y="-252.2" font-family="Helvetica,sans-Serif" font-size="11.00">[table]</text>
<polygon fill="#ffffff" stroke="transparent" points="10.5,-222 10.5,-244 193.5,-244 193.5,-222 10.5,-222"/>
<polygon fill="none" stroke="black" points="10.5,-222 10.5,-244 193.5,-244 193.5,-222 10.5,-222"/>
<text text-anchor="start" x="30.5" y="-230.2" font-family="Helvetica,sans-Serif" font-size="11.00">etl_batch</text>
<polygon fill="none" stroke="black" points="193.5,-222 193.5,-244 259.5,-244 259.5,-222 193.5,-222"/>
<text text-anchor="start" x="196.5" y="-230.2" font-family="Helvetica,sans-Serif" font-size="11.00">varchar[16]</text>
<polygon fill="#ffffff" stroke="transparent" points="10.5,-200 10.5,-222 193.5,-222 193.5,-200 10.5,-200"/>
<polygon fill="none" stroke="black" points="10.5,-200 10.5,-222 193.5,-222 193.5,-200 10.5,-200"/>
<text text-anchor="start" x="30.5" y="-208.2" font-family="Helvetica,sans-Serif" font-size="11.00">etl_hazard_metric_name</text>
<polygon fill="none" stroke="black" points="193.5,-200 193.5,-222 259.5,-222 259.5,-200 193.5,-200"/>
<text text-anchor="start" x="196.5" y="-208.2" font-family="Helvetica,sans-Serif" font-size="11.00">varchar[16]</text>
<polygon fill="#ffffff" stroke="transparent" points="10.5,-178 10.5,-200 193.5,-200 193.5,-178 10.5,-178"/>
<polygon fill="none" stroke="black" points="10.5,-178 10.5,-200 193.5,-200 193.5,-178 10.5,-178"/>
<text text-anchor="start" x="30.5" y="-186.2" font-family="Helvetica,sans-Serif" font-size="11.00">etl_scenario_name</text>
<polygon fill="none" stroke="black" points="193.5,-178 193.5,-200 259.5,-200 259.5,-178 193.5,-178"/>
<text text-anchor="start" x="196.5" y="-186.2" font-family="Helvetica,sans-Serif" font-size="11.00">varchar[16]</text>
<polygon fill="#ffffff" stroke="transparent" points="10.5,-156 10.5,-178 193.5,-178 193.5,-156 10.5,-156"/>
<polygon fill="none" stroke="black" points="10.5,-156 10.5,-178 193.5,-178 193.5,-156 10.5,-156"/>
<text text-anchor="start" x="30.5" y="-164.2" font-family="Helvetica,sans-Serif" font-size="11.00">etl_grid_system_name</text>
<polygon fill="none" stroke="black" points="193.5,-156 193.5,-178 259.5,-178 259.5,-156 193.5,-156"/>
<text text-anchor="start" x="196.5" y="-164.2" font-family="Helvetica,sans-Serif" font-size="11.00">varchar[16]</text>
<polygon fill="none" stroke="black" points="10.5,-134 10.5,-156 193.5,-156 193.5,-134 10.5,-134"/>
<text text-anchor="start" x="30.5" y="-142.2" font-family="Helvetica,sans-Serif" font-size="11.00">etl_grid_square_serial_lngid</text>
<polygon fill="none" stroke="black" points="193.5,-134 193.5,-156 259.5,-156 259.5,-134 193.5,-134"/>
<text text-anchor="start" x="196.5" y="-142.2" font-family="Helvetica,sans-Serif" font-size="11.00">int4[10]</text>
<polygon fill="none" stroke="black" points="10.5,-112 10.5,-134 193.5,-134 193.5,-112 10.5,-112"/>
<text text-anchor="start" x="30.5" y="-120.2" font-family="Helvetica,sans-Serif" font-size="11.00">etl_grid_square_serial_latid</text>
<polygon fill="none" stroke="black" points="193.5,-112 193.5,-134 259.5,-134 259.5,-112 193.5,-112"/>
<text text-anchor="start" x="196.5" y="-120.2" font-family="Helvetica,sans-Serif" font-size="11.00">int4[10]</text>
<polygon fill="#ffffff" stroke="transparent" points="10.5,-90 10.5,-112 193.5,-112 193.5,-90 10.5,-90"/>
<polygon fill="none" stroke="black" points="10.5,-90 10.5,-112 193.5,-112 193.5,-90 10.5,-90"/>
<text text-anchor="start" x="30.5" y="-98.2" font-family="Helvetica,sans-Serif" font-size="11.00">etl_grid_square_name</text>
<polygon fill="none" stroke="black" points="193.5,-90 193.5,-112 259.5,-112 259.5,-90 193.5,-90"/>
<text text-anchor="start" x="196.5" y="-98.2" font-family="Helvetica,sans-Serif" font-size="11.00">varchar[32]</text>
<polygon fill="#ffffff" stroke="transparent" points="10.5,-68 10.5,-90 193.5,-90 193.5,-68 10.5,-68"/>
<polygon fill="none" stroke="black" points="10.5,-68 10.5,-90 193.5,-90 193.5,-68 10.5,-68"/>
<text text-anchor="start" x="30.5" y="-76.2" font-family="Helvetica,sans-Serif" font-size="11.00">decade</text>
<polygon fill="none" stroke="black" points="193.5,-68 193.5,-90 259.5,-90 259.5,-68 193.5,-68"/>
<text text-anchor="start" x="196.5" y="-76.2" font-family="Helvetica,sans-Serif" font-size="11.00">int2[5]</text>
<polygon fill="none" stroke="black" points="10.5,-46 10.5,-68 193.5,-68 193.5,-46 10.5,-46"/>
<text text-anchor="start" x="30.5" y="-54.2" font-family="Helvetica,sans-Serif" font-size="11.00">hazard_metric_mean</text>
<polygon fill="none" stroke="black" points="193.5,-46 193.5,-68 259.5,-68 259.5,-46 193.5,-46"/>
<text text-anchor="start" x="196.5" y="-54.2" font-family="Helvetica,sans-Serif" font-size="11.00">float8[17,17]</text>
<polygon fill="none" stroke="black" points="10.5,-24 10.5,-46 193.5,-46 193.5,-24 10.5,-24"/>
<text text-anchor="start" x="30.5" y="-32.2" font-family="Helvetica,sans-Serif" font-size="11.00">proc_stage_complete</text>
<polygon fill="none" stroke="black" points="193.5,-24 193.5,-46 259.5,-46 259.5,-24 193.5,-24"/>
<text text-anchor="start" x="196.5" y="-32.2" font-family="Helvetica,sans-Serif" font-size="11.00">int4[10]</text>
<polygon fill="#ffffff" stroke="transparent" points="10.5,-6 10.5,-24 86.5,-24 86.5,-6 10.5,-6"/>
<polygon fill="none" stroke="black" points="10.5,-6 10.5,-24 86.5,-24 86.5,-6 10.5,-6"/>
<text text-anchor="start" x="13.5" y="-12.2" font-family="Helvetica,sans-Serif" font-size="11.00">&lt; 0</text>
<polygon fill="#ffffff" stroke="transparent" points="86.5,-6 86.5,-24 193.5,-24 193.5,-6 86.5,-6"/>
<polygon fill="none" stroke="black" points="86.5,-6 86.5,-24 193.5,-24 193.5,-6 86.5,-6"/>
<text text-anchor="start" x="144.5" y="-12.2" font-family="Helvetica,sans-Serif" font-size="11.00">120 rows</text>
<polygon fill="#ffffff" stroke="transparent" points="193.5,-6 193.5,-24 259.5,-24 259.5,-6 193.5,-6"/>
<polygon fill="none" stroke="black" points="193.5,-6 193.5,-24 259.5,-24 259.5,-6 193.5,-6"/>
<text text-anchor="start" x="240.5" y="-12.2" font-family="Helvetica,sans-Serif" font-size="11.00">0 &gt;</text>
<polygon fill="none" stroke="black" stroke-width="2" points="9,-5 9,-267 260,-267 260,-5 9,-5"/>
</a>
</g>
</g>
</g>
</svg>
