<?xml version="1.0" encoding="UTF-8" standalone="no"?>
<!DOCTYPE svg PUBLIC "-//W3C//DTD SVG 1.1//EN"
 "http://www.w3.org/Graphics/SVG/1.1/DTD/svg11.dtd">
<!-- Generated by graphviz version 2.50.0 (20211204.2007)
 -->
<!-- Title: flyway_schema_history Pages: 1 -->
<svg width="268pt" height="280pt"
 viewBox="0.00 0.00 268.00 280.00" xmlns="http://www.w3.org/2000/svg" xmlns:xlink="http://www.w3.org/1999/xlink">
<g id="graph0" class="graph" transform="scale(1 1) rotate(0) translate(4 276)">
<title>flyway_schema_history</title>
<polygon fill="#ffffff" stroke="transparent" points="-4,4 -4,-276 264,-276 264,4 -4,4"/>
<!-- flyway_schema_history -->
<g id="node1" class="node">
<title>flyway_schema_history</title>
<g id="a_node1"><a xlink:href="../../tables/flyway_schema_history.html" xlink:title="flyway_schema_history" target="_top">
<polygon fill="#ffffff" stroke="transparent" points="8,-4 8,-268 252,-268 252,-4 8,-4"/>
<polygon fill="#f5f5f5" stroke="transparent" points="10,-244 10,-266 250,-266 250,-244 10,-244"/>
<polygon fill="none" stroke="black" points="10,-244 10,-266 250,-266 250,-244 10,-244"/>
<text text-anchor="start" x="15" y="-253.2" font-family="Helvetica,sans-Serif" font-weight="bold" font-size="11.00">flyway_schema_history</text>
<text text-anchor="start" x="215" y="-252.2" font-family="Helvetica,sans-Serif" font-size="11.00">[table]</text>
<polygon fill="none" stroke="black" points="10,-222 10,-244 165,-244 165,-222 10,-222"/>
<image xlink:href="../../images/primaryKeys.png" width="11px" height="12px" preserveAspectRatio="xMinYMin meet" x="15" y="-239"/>
<text text-anchor="start" x="30" y="-230.2" font-family="Helvetica,sans-Serif" font-size="11.00">installed_rank</text>
<polygon fill="none" stroke="black" points="165,-222 165,-244 250,-244 250,-222 165,-222"/>
<text text-anchor="start" x="168" y="-230.2" font-family="Helvetica,sans-Serif" font-size="11.00">int4[10]</text>
<polygon fill="none" stroke="black" points="10,-200 10,-222 165,-222 165,-200 10,-200"/>
<text text-anchor="start" x="30" y="-208.2" font-family="Helvetica,sans-Serif" font-size="11.00">version</text>
<polygon fill="none" stroke="black" points="165,-200 165,-222 250,-222 250,-200 165,-200"/>
<text text-anchor="start" x="168" y="-208.2" font-family="Helvetica,sans-Serif" font-size="11.00">varchar[50]</text>
<polygon fill="none" stroke="black" points="10,-178 10,-200 165,-200 165,-178 10,-178"/>
<text text-anchor="start" x="30" y="-186.2" font-family="Helvetica,sans-Serif" font-size="11.00">description</text>
<polygon fill="none" stroke="black" points="165,-178 165,-200 250,-200 250,-178 165,-178"/>
<text text-anchor="start" x="168" y="-186.2" font-family="Helvetica,sans-Serif" font-size="11.00">varchar[200]</text>
<polygon fill="none" stroke="black" points="10,-156 10,-178 165,-178 165,-156 10,-156"/>
<text text-anchor="start" x="30" y="-164.2" font-family="Helvetica,sans-Serif" font-size="11.00">type</text>
<polygon fill="none" stroke="black" points="165,-156 165,-178 250,-178 250,-156 165,-156"/>
<text text-anchor="start" x="168" y="-164.2" font-family="Helvetica,sans-Serif" font-size="11.00">varchar[20]</text>
<polygon fill="none" stroke="black" points="10,-134 10,-156 165,-156 165,-134 10,-134"/>
<text text-anchor="start" x="30" y="-142.2" font-family="Helvetica,sans-Serif" font-size="11.00">script</text>
<polygon fill="none" stroke="black" points="165,-134 165,-156 250,-156 250,-134 165,-134"/>
<text text-anchor="start" x="168" y="-142.2" font-family="Helvetica,sans-Serif" font-size="11.00">varchar[1000]</text>
<polygon fill="none" stroke="black" points="10,-112 10,-134 165,-134 165,-112 10,-112"/>
<text text-anchor="start" x="30" y="-120.2" font-family="Helvetica,sans-Serif" font-size="11.00">checksum</text>
<polygon fill="none" stroke="black" points="165,-112 165,-134 250,-134 250,-112 165,-112"/>
<text text-anchor="start" x="168" y="-120.2" font-family="Helvetica,sans-Serif" font-size="11.00">int4[10]</text>
<polygon fill="none" stroke="black" points="10,-90 10,-112 165,-112 165,-90 10,-90"/>
<text text-anchor="start" x="30" y="-98.2" font-family="Helvetica,sans-Serif" font-size="11.00">installed_by</text>
<polygon fill="none" stroke="black" points="165,-90 165,-112 250,-112 250,-90 165,-90"/>
<text text-anchor="start" x="168" y="-98.2" font-family="Helvetica,sans-Serif" font-size="11.00">varchar[100]</text>
<polygon fill="none" stroke="black" points="10,-68 10,-90 165,-90 165,-68 10,-68"/>
<text text-anchor="start" x="30" y="-76.2" font-family="Helvetica,sans-Serif" font-size="11.00">installed_on</text>
<polygon fill="none" stroke="black" points="165,-68 165,-90 250,-90 250,-68 165,-68"/>
<text text-anchor="start" x="168" y="-76.2" font-family="Helvetica,sans-Serif" font-size="11.00">timestamp[29,6]</text>
<polygon fill="none" stroke="black" points="10,-46 10,-68 165,-68 165,-46 10,-46"/>
<text text-anchor="start" x="30" y="-54.2" font-family="Helvetica,sans-Serif" font-size="11.00">execution_time</text>
<polygon fill="none" stroke="black" points="165,-46 165,-68 250,-68 250,-46 165,-46"/>
<text text-anchor="start" x="168" y="-54.2" font-family="Helvetica,sans-Serif" font-size="11.00">int4[10]</text>
<polygon fill="#ffffff" stroke="transparent" points="10,-24 10,-46 165,-46 165,-24 10,-24"/>
<polygon fill="none" stroke="black" points="10,-24 10,-46 165,-46 165,-24 10,-24"/>
<text text-anchor="start" x="30" y="-32.2" font-family="Helvetica,sans-Serif" font-size="11.00">success</text>
<polygon fill="none" stroke="black" points="165,-24 165,-46 250,-46 250,-24 165,-24"/>
<text text-anchor="start" x="168" y="-32.2" font-family="Helvetica,sans-Serif" font-size="11.00">bool[1]</text>
<polygon fill="#ffffff" stroke="transparent" points="10,-6 10,-24 72,-24 72,-6 10,-6"/>
<polygon fill="none" stroke="black" points="10,-6 10,-24 72,-24 72,-6 10,-6"/>
<text text-anchor="start" x="13" y="-12.2" font-family="Helvetica,sans-Serif" font-size="11.00">&lt; 0</text>
<polygon fill="#ffffff" stroke="transparent" points="72,-6 72,-24 165,-24 165,-6 72,-6"/>
<polygon fill="none" stroke="black" points="72,-6 72,-24 165,-24 165,-6 72,-6"/>
<text text-anchor="start" x="116" y="-12.2" font-family="Helvetica,sans-Serif" font-size="11.00">136 rows</text>
<polygon fill="#ffffff" stroke="transparent" points="165,-6 165,-24 250,-24 250,-6 165,-6"/>
<polygon fill="none" stroke="black" points="165,-6 165,-24 250,-24 250,-6 165,-6"/>
<text text-anchor="start" x="231" y="-12.2" font-family="Helvetica,sans-Serif" font-size="11.00">0 &gt;</text>
<polygon fill="none" stroke="black" stroke-width="2" points="9,-5 9,-267 251,-267 251,-5 9,-5"/>
</a>
</g>
</g>
</g>
</svg>
