<?xml version="1.0" encoding="UTF-8" standalone="no"?>
<!DOCTYPE svg PUBLIC "-//W3C//DTD SVG 1.1//EN"
 "http://www.w3.org/Graphics/SVG/1.1/DTD/svg11.dtd">
<!-- Generated by graphviz version 2.50.0 (20211204.2007)
 -->
<!-- Title: updates Pages: 1 -->
<svg width="252pt" height="324pt"
 viewBox="0.00 0.00 252.00 324.00" xmlns="http://www.w3.org/2000/svg" xmlns:xlink="http://www.w3.org/1999/xlink">
<g id="graph0" class="graph" transform="scale(1 1) rotate(0) translate(4 320)">
<title>updates</title>
<polygon fill="#ffffff" stroke="transparent" points="-4,4 -4,-320 248,-320 248,4 -4,4"/>
<!-- updates -->
<g id="node1" class="node">
<title>updates</title>
<g id="a_node1"><a xlink:href="../../tables/updates.html" xlink:title="updates" target="_top">
<polygon fill="#ffffff" stroke="transparent" points="8,-4 8,-312 236,-312 236,-4 8,-4"/>
<polygon fill="#f5f5f5" stroke="transparent" points="10,-288 10,-310 234,-310 234,-288 10,-288"/>
<polygon fill="none" stroke="black" points="10,-288 10,-310 234,-310 234,-288 10,-288"/>
<text text-anchor="start" x="15" y="-297.2" font-family="Helvetica,sans-Serif" font-weight="bold" font-size="11.00">updates</text>
<text text-anchor="start" x="199" y="-296.2" font-family="Helvetica,sans-Serif" font-size="11.00">[table]</text>
<polygon fill="none" stroke="black" points="10,-266 10,-288 141,-288 141,-266 10,-266"/>
<image xlink:href="../../images/primaryKeys.png" width="11px" height="12px" preserveAspectRatio="xMinYMin meet" x="15" y="-283"/>
<text text-anchor="start" x="30" y="-274.2" font-family="Helvetica,sans-Serif" font-size="11.00">id</text>
<polygon fill="none" stroke="black" points="141,-266 141,-288 234,-288 234,-266 141,-266"/>
<text text-anchor="start" x="144" y="-274.2" font-family="Helvetica,sans-Serif" font-size="11.00">serial[10]</text>
<polygon fill="#ffffff" stroke="transparent" points="10,-244 10,-266 141,-266 141,-244 10,-244"/>
<polygon fill="none" stroke="black" points="10,-244 10,-266 141,-266 141,-244 10,-244"/>
<text text-anchor="start" x="30" y="-252.2" font-family="Helvetica,sans-Serif" font-size="11.00">entity_type</text>
<polygon fill="none" stroke="black" points="141,-244 141,-266 234,-266 234,-244 141,-244"/>
<text text-anchor="start" x="144" y="-252.2" font-family="Helvetica,sans-Serif" font-size="11.00">int4[10]</text>
<polygon fill="#ffffff" stroke="transparent" points="10,-222 10,-244 141,-244 141,-222 10,-222"/>
<polygon fill="none" stroke="black" points="10,-222 10,-244 141,-244 141,-222 10,-222"/>
<text text-anchor="start" x="30" y="-230.2" font-family="Helvetica,sans-Serif" font-size="11.00">entity_id</text>
<polygon fill="none" stroke="black" points="141,-222 141,-244 234,-244 234,-222 141,-222"/>
<text text-anchor="start" x="144" y="-230.2" font-family="Helvetica,sans-Serif" font-size="11.00">int4[10]</text>
<polygon fill="#ffffff" stroke="transparent" points="10,-200 10,-222 141,-222 141,-200 10,-200"/>
<polygon fill="none" stroke="black" points="10,-200 10,-222 141,-222 141,-200 10,-200"/>
<text text-anchor="start" x="30" y="-208.2" font-family="Helvetica,sans-Serif" font-size="11.00">action</text>
<polygon fill="none" stroke="black" points="141,-200 141,-222 234,-222 234,-200 141,-200"/>
<text text-anchor="start" x="144" y="-208.2" font-family="Helvetica,sans-Serif" font-size="11.00">int4[10]</text>
<polygon fill="#ffffff" stroke="transparent" points="10,-178 10,-200 141,-200 141,-178 10,-178"/>
<polygon fill="none" stroke="black" points="10,-178 10,-200 141,-200 141,-178 10,-178"/>
<text text-anchor="start" x="30" y="-186.2" font-family="Helvetica,sans-Serif" font-size="11.00">scoring_status</text>
<polygon fill="none" stroke="black" points="141,-178 141,-200 234,-200 234,-178 141,-178"/>
<text text-anchor="start" x="144" y="-186.2" font-family="Helvetica,sans-Serif" font-size="11.00">int4[10]</text>
<polygon fill="#ffffff" stroke="transparent" points="10,-156 10,-178 141,-178 141,-156 10,-156"/>
<polygon fill="none" stroke="black" points="10,-156 10,-178 141,-178 141,-156 10,-156"/>
<text text-anchor="start" x="30" y="-164.2" font-family="Helvetica,sans-Serif" font-size="11.00">aggregation_status</text>
<polygon fill="none" stroke="black" points="141,-156 141,-178 234,-178 234,-156 141,-156"/>
<text text-anchor="start" x="144" y="-164.2" font-family="Helvetica,sans-Serif" font-size="11.00">int4[10]</text>
<polygon fill="#ffffff" stroke="transparent" points="10,-134 10,-156 141,-156 141,-134 10,-134"/>
<polygon fill="none" stroke="black" points="10,-134 10,-156 141,-156 141,-134 10,-134"/>
<text text-anchor="start" x="30" y="-142.2" font-family="Helvetica,sans-Serif" font-size="11.00">customer_id</text>
<polygon fill="none" stroke="black" points="141,-134 141,-156 234,-156 234,-134 141,-134"/>
<text text-anchor="start" x="144" y="-142.2" font-family="Helvetica,sans-Serif" font-size="11.00">int4[10]</text>
<polygon fill="#ffffff" stroke="transparent" points="10,-112 10,-134 141,-134 141,-112 10,-112"/>
<polygon fill="none" stroke="black" points="10,-112 10,-134 141,-134 141,-112 10,-112"/>
<text text-anchor="start" x="30" y="-120.2" font-family="Helvetica,sans-Serif" font-size="11.00">user_id</text>
<polygon fill="none" stroke="black" points="141,-112 141,-134 234,-134 234,-112 141,-112"/>
<text text-anchor="start" x="144" y="-120.2" font-family="Helvetica,sans-Serif" font-size="11.00">varchar[128]</text>
<polygon fill="#ffffff" stroke="transparent" points="10,-90 10,-112 141,-112 141,-90 10,-90"/>
<polygon fill="none" stroke="black" points="10,-90 10,-112 141,-112 141,-90 10,-90"/>
<text text-anchor="start" x="30" y="-98.2" font-family="Helvetica,sans-Serif" font-size="11.00">update_ts</text>
<polygon fill="none" stroke="black" points="141,-90 141,-112 234,-112 234,-90 141,-90"/>
<text text-anchor="start" x="144" y="-98.2" font-family="Helvetica,sans-Serif" font-size="11.00">timestamp[29,6]</text>
<polygon fill="none" stroke="black" points="10,-68 10,-90 141,-90 141,-68 10,-68"/>
<text text-anchor="start" x="30" y="-76.2" font-family="Helvetica,sans-Serif" font-size="11.00">update_details</text>
<polygon fill="none" stroke="black" points="141,-68 141,-90 234,-90 234,-68 141,-68"/>
<text text-anchor="start" x="144" y="-76.2" font-family="Helvetica,sans-Serif" font-size="11.00">json[2147483647]</text>
<polygon fill="none" stroke="black" points="10,-46 10,-68 141,-68 141,-46 10,-46"/>
<text text-anchor="start" x="30" y="-54.2" font-family="Helvetica,sans-Serif" font-size="11.00">created_at</text>
<polygon fill="none" stroke="black" points="141,-46 141,-68 234,-68 234,-46 141,-46"/>
<text text-anchor="start" x="144" y="-54.2" font-family="Helvetica,sans-Serif" font-size="11.00">timestamp[29,6]</text>
<polygon fill="none" stroke="black" points="10,-24 10,-46 141,-46 141,-24 10,-24"/>
<text text-anchor="start" x="30" y="-32.2" font-family="Helvetica,sans-Serif" font-size="11.00">updated_at</text>
<polygon fill="none" stroke="black" points="141,-24 141,-46 234,-46 234,-24 141,-24"/>
<text text-anchor="start" x="144" y="-32.2" font-family="Helvetica,sans-Serif" font-size="11.00">timestamp[29,6]</text>
<polygon fill="#ffffff" stroke="transparent" points="10,-6 10,-24 53,-24 53,-6 10,-6"/>
<polygon fill="none" stroke="black" points="10,-6 10,-24 53,-24 53,-6 10,-6"/>
<text text-anchor="start" x="13" y="-12.2" font-family="Helvetica,sans-Serif" font-size="11.00">&lt; 0</text>
<polygon fill="#ffffff" stroke="transparent" points="53,-6 53,-24 141,-24 141,-6 53,-6"/>
<polygon fill="none" stroke="black" points="53,-6 53,-24 141,-24 141,-6 53,-6"/>
<text text-anchor="start" x="77" y="-12.2" font-family="Helvetica,sans-Serif" font-size="11.00">39,009 rows</text>
<polygon fill="#ffffff" stroke="transparent" points="141,-6 141,-24 234,-24 234,-6 141,-6"/>
<polygon fill="none" stroke="black" points="141,-6 141,-24 234,-24 234,-6 141,-6"/>
<text text-anchor="start" x="215" y="-12.2" font-family="Helvetica,sans-Serif" font-size="11.00">0 &gt;</text>
<polygon fill="none" stroke="black" stroke-width="2" points="9,-5 9,-311 235,-311 235,-5 9,-5"/>
</a>
</g>
</g>
</g>
</svg>
